%TF.GenerationSoftware,KiCad,Pcbnew,7.0.11+dfsg-1build4*%
%TF.CreationDate,2026-09-10T16:20:27-05:00*%
%TF.ProjectId,rignexo-back,7269676e-6578-46f2-9d62-61636b2e6b69,rev?*%
%TF.SameCoordinates,Original*%
%TF.FileFunction,Legend,Top*%
%TF.FilePolarity,Positive*%
%FSLAX46Y46*%
G04 Gerber Fmt 4.6, Leading zero omitted, Abs format (unit mm)*
G04 Created by KiCad (PCBNEW 7.0.11+dfsg-1build4) date 2026-09-10 16:20:27*
%MOMM*%
%LPD*%
G01*
G04 APERTURE LIST*
%ADD10C,0.200000*%
%ADD11C,0.100000*%
%TA.AperFunction,Profile*%
%ADD12C,0.050000*%
%TD*%
G04 APERTURE END LIST*
D10*
X137783958Y-109853600D02*
X137898244Y-109891695D01*
X137898244Y-109891695D02*
X138088720Y-109891695D01*
X138088720Y-109891695D02*
X138164911Y-109853600D01*
X138164911Y-109853600D02*
X138203006Y-109815504D01*
X138203006Y-109815504D02*
X138241101Y-109739314D01*
X138241101Y-109739314D02*
X138241101Y-109663123D01*
X138241101Y-109663123D02*
X138203006Y-109586933D01*
X138203006Y-109586933D02*
X138164911Y-109548838D01*
X138164911Y-109548838D02*
X138088720Y-109510742D01*
X138088720Y-109510742D02*
X137936339Y-109472647D01*
X137936339Y-109472647D02*
X137860149Y-109434552D01*
X137860149Y-109434552D02*
X137822054Y-109396457D01*
X137822054Y-109396457D02*
X137783958Y-109320266D01*
X137783958Y-109320266D02*
X137783958Y-109244076D01*
X137783958Y-109244076D02*
X137822054Y-109167885D01*
X137822054Y-109167885D02*
X137860149Y-109129790D01*
X137860149Y-109129790D02*
X137936339Y-109091695D01*
X137936339Y-109091695D02*
X138126816Y-109091695D01*
X138126816Y-109091695D02*
X138241101Y-109129790D01*
X138583959Y-109891695D02*
X138583959Y-109091695D01*
X138583959Y-109091695D02*
X138888721Y-109091695D01*
X138888721Y-109091695D02*
X138964911Y-109129790D01*
X138964911Y-109129790D02*
X139003006Y-109167885D01*
X139003006Y-109167885D02*
X139041102Y-109244076D01*
X139041102Y-109244076D02*
X139041102Y-109358361D01*
X139041102Y-109358361D02*
X139003006Y-109434552D01*
X139003006Y-109434552D02*
X138964911Y-109472647D01*
X138964911Y-109472647D02*
X138888721Y-109510742D01*
X138888721Y-109510742D02*
X138583959Y-109510742D01*
X139383959Y-109891695D02*
X139383959Y-109091695D01*
X139841102Y-109891695D02*
X139498244Y-109434552D01*
X139841102Y-109091695D02*
X139383959Y-109548838D01*
X140679197Y-109091695D02*
X140945864Y-109891695D01*
X140945864Y-109891695D02*
X141212530Y-109091695D01*
X141631578Y-109091695D02*
X141783959Y-109091695D01*
X141783959Y-109091695D02*
X141860149Y-109129790D01*
X141860149Y-109129790D02*
X141936340Y-109205980D01*
X141936340Y-109205980D02*
X141974435Y-109358361D01*
X141974435Y-109358361D02*
X141974435Y-109625028D01*
X141974435Y-109625028D02*
X141936340Y-109777409D01*
X141936340Y-109777409D02*
X141860149Y-109853600D01*
X141860149Y-109853600D02*
X141783959Y-109891695D01*
X141783959Y-109891695D02*
X141631578Y-109891695D01*
X141631578Y-109891695D02*
X141555387Y-109853600D01*
X141555387Y-109853600D02*
X141479197Y-109777409D01*
X141479197Y-109777409D02*
X141441101Y-109625028D01*
X141441101Y-109625028D02*
X141441101Y-109358361D01*
X141441101Y-109358361D02*
X141479197Y-109205980D01*
X141479197Y-109205980D02*
X141555387Y-109129790D01*
X141555387Y-109129790D02*
X141631578Y-109091695D01*
X142698244Y-109891695D02*
X142317292Y-109891695D01*
X142317292Y-109891695D02*
X142317292Y-109091695D01*
X139572054Y-108336933D02*
X140181578Y-108336933D01*
X139876816Y-108641695D02*
X139876816Y-108032171D01*
X142572054Y-105586933D02*
X143181578Y-105586933D01*
D11*
X140475724Y-108262721D02*
G75*
G03*
X142734822Y-106036981I275613J1979604D01*
G01*
D10*
X107072054Y-105586933D02*
X107681578Y-105586933D01*
X103822054Y-108336933D02*
X104431578Y-108336933D01*
X104126816Y-108641695D02*
X104126816Y-108032171D01*
D11*
X104918915Y-108262720D02*
G75*
G03*
X107178012Y-105850746I204162J2072720D01*
G01*
D10*
X102572054Y-109891695D02*
X102572054Y-109091695D01*
X102572054Y-109091695D02*
X102838720Y-109663123D01*
X102838720Y-109663123D02*
X103105387Y-109091695D01*
X103105387Y-109091695D02*
X103105387Y-109891695D01*
X103486340Y-109891695D02*
X103486340Y-109091695D01*
X104324435Y-109815504D02*
X104286339Y-109853600D01*
X104286339Y-109853600D02*
X104172054Y-109891695D01*
X104172054Y-109891695D02*
X104095863Y-109891695D01*
X104095863Y-109891695D02*
X103981577Y-109853600D01*
X103981577Y-109853600D02*
X103905387Y-109777409D01*
X103905387Y-109777409D02*
X103867292Y-109701219D01*
X103867292Y-109701219D02*
X103829196Y-109548838D01*
X103829196Y-109548838D02*
X103829196Y-109434552D01*
X103829196Y-109434552D02*
X103867292Y-109282171D01*
X103867292Y-109282171D02*
X103905387Y-109205980D01*
X103905387Y-109205980D02*
X103981577Y-109129790D01*
X103981577Y-109129790D02*
X104095863Y-109091695D01*
X104095863Y-109091695D02*
X104172054Y-109091695D01*
X104172054Y-109091695D02*
X104286339Y-109129790D01*
X104286339Y-109129790D02*
X104324435Y-109167885D01*
X105162530Y-109091695D02*
X105429197Y-109891695D01*
X105429197Y-109891695D02*
X105695863Y-109091695D01*
X106114911Y-109091695D02*
X106267292Y-109091695D01*
X106267292Y-109091695D02*
X106343482Y-109129790D01*
X106343482Y-109129790D02*
X106419673Y-109205980D01*
X106419673Y-109205980D02*
X106457768Y-109358361D01*
X106457768Y-109358361D02*
X106457768Y-109625028D01*
X106457768Y-109625028D02*
X106419673Y-109777409D01*
X106419673Y-109777409D02*
X106343482Y-109853600D01*
X106343482Y-109853600D02*
X106267292Y-109891695D01*
X106267292Y-109891695D02*
X106114911Y-109891695D01*
X106114911Y-109891695D02*
X106038720Y-109853600D01*
X106038720Y-109853600D02*
X105962530Y-109777409D01*
X105962530Y-109777409D02*
X105924434Y-109625028D01*
X105924434Y-109625028D02*
X105924434Y-109358361D01*
X105924434Y-109358361D02*
X105962530Y-109205980D01*
X105962530Y-109205980D02*
X106038720Y-109129790D01*
X106038720Y-109129790D02*
X106114911Y-109091695D01*
X107181577Y-109891695D02*
X106800625Y-109891695D01*
X106800625Y-109891695D02*
X106800625Y-109091695D01*
X109869673Y-118117219D02*
X109869673Y-117117219D01*
X110298244Y-118069600D02*
X110441101Y-118117219D01*
X110441101Y-118117219D02*
X110679196Y-118117219D01*
X110679196Y-118117219D02*
X110774434Y-118069600D01*
X110774434Y-118069600D02*
X110822053Y-118021980D01*
X110822053Y-118021980D02*
X110869672Y-117926742D01*
X110869672Y-117926742D02*
X110869672Y-117831504D01*
X110869672Y-117831504D02*
X110822053Y-117736266D01*
X110822053Y-117736266D02*
X110774434Y-117688647D01*
X110774434Y-117688647D02*
X110679196Y-117641028D01*
X110679196Y-117641028D02*
X110488720Y-117593409D01*
X110488720Y-117593409D02*
X110393482Y-117545790D01*
X110393482Y-117545790D02*
X110345863Y-117498171D01*
X110345863Y-117498171D02*
X110298244Y-117402933D01*
X110298244Y-117402933D02*
X110298244Y-117307695D01*
X110298244Y-117307695D02*
X110345863Y-117212457D01*
X110345863Y-117212457D02*
X110393482Y-117164838D01*
X110393482Y-117164838D02*
X110488720Y-117117219D01*
X110488720Y-117117219D02*
X110726815Y-117117219D01*
X110726815Y-117117219D02*
X110869672Y-117164838D01*
X111488720Y-117117219D02*
X111679196Y-117117219D01*
X111679196Y-117117219D02*
X111774434Y-117164838D01*
X111774434Y-117164838D02*
X111869672Y-117260076D01*
X111869672Y-117260076D02*
X111917291Y-117450552D01*
X111917291Y-117450552D02*
X111917291Y-117783885D01*
X111917291Y-117783885D02*
X111869672Y-117974361D01*
X111869672Y-117974361D02*
X111774434Y-118069600D01*
X111774434Y-118069600D02*
X111679196Y-118117219D01*
X111679196Y-118117219D02*
X111488720Y-118117219D01*
X111488720Y-118117219D02*
X111393482Y-118069600D01*
X111393482Y-118069600D02*
X111298244Y-117974361D01*
X111298244Y-117974361D02*
X111250625Y-117783885D01*
X111250625Y-117783885D02*
X111250625Y-117450552D01*
X111250625Y-117450552D02*
X111298244Y-117260076D01*
X111298244Y-117260076D02*
X111393482Y-117164838D01*
X111393482Y-117164838D02*
X111488720Y-117117219D01*
X112822053Y-118117219D02*
X112345863Y-118117219D01*
X112345863Y-118117219D02*
X112345863Y-117117219D01*
X113107768Y-117831504D02*
X113583958Y-117831504D01*
X113012530Y-118117219D02*
X113345863Y-117117219D01*
X113345863Y-117117219D02*
X113679196Y-118117219D01*
X113869673Y-117117219D02*
X114441101Y-117117219D01*
X114155387Y-118117219D02*
X114155387Y-117117219D01*
X114774435Y-117593409D02*
X115107768Y-117593409D01*
X115250625Y-118117219D02*
X114774435Y-118117219D01*
X114774435Y-118117219D02*
X114774435Y-117117219D01*
X114774435Y-117117219D02*
X115250625Y-117117219D01*
X115679197Y-118117219D02*
X115679197Y-117117219D01*
X115679197Y-117117219D02*
X115917292Y-117117219D01*
X115917292Y-117117219D02*
X116060149Y-117164838D01*
X116060149Y-117164838D02*
X116155387Y-117260076D01*
X116155387Y-117260076D02*
X116203006Y-117355314D01*
X116203006Y-117355314D02*
X116250625Y-117545790D01*
X116250625Y-117545790D02*
X116250625Y-117688647D01*
X116250625Y-117688647D02*
X116203006Y-117879123D01*
X116203006Y-117879123D02*
X116155387Y-117974361D01*
X116155387Y-117974361D02*
X116060149Y-118069600D01*
X116060149Y-118069600D02*
X115917292Y-118117219D01*
X115917292Y-118117219D02*
X115679197Y-118117219D01*
X117441102Y-118117219D02*
X117441102Y-117117219D01*
X117441102Y-117593409D02*
X118012530Y-117593409D01*
X118012530Y-118117219D02*
X118012530Y-117117219D01*
X118441102Y-117831504D02*
X118917292Y-117831504D01*
X118345864Y-118117219D02*
X118679197Y-117117219D01*
X118679197Y-117117219D02*
X119012530Y-118117219D01*
X119345864Y-118117219D02*
X119345864Y-117117219D01*
X119345864Y-117117219D02*
X119679197Y-117831504D01*
X119679197Y-117831504D02*
X120012530Y-117117219D01*
X120012530Y-117117219D02*
X120012530Y-118117219D01*
X121822054Y-118117219D02*
X121488721Y-117641028D01*
X121250626Y-118117219D02*
X121250626Y-117117219D01*
X121250626Y-117117219D02*
X121631578Y-117117219D01*
X121631578Y-117117219D02*
X121726816Y-117164838D01*
X121726816Y-117164838D02*
X121774435Y-117212457D01*
X121774435Y-117212457D02*
X121822054Y-117307695D01*
X121822054Y-117307695D02*
X121822054Y-117450552D01*
X121822054Y-117450552D02*
X121774435Y-117545790D01*
X121774435Y-117545790D02*
X121726816Y-117593409D01*
X121726816Y-117593409D02*
X121631578Y-117641028D01*
X121631578Y-117641028D02*
X121250626Y-117641028D01*
X122203007Y-117831504D02*
X122679197Y-117831504D01*
X122107769Y-118117219D02*
X122441102Y-117117219D01*
X122441102Y-117117219D02*
X122774435Y-118117219D01*
X123107769Y-118117219D02*
X123107769Y-117117219D01*
X123107769Y-117117219D02*
X123345864Y-117117219D01*
X123345864Y-117117219D02*
X123488721Y-117164838D01*
X123488721Y-117164838D02*
X123583959Y-117260076D01*
X123583959Y-117260076D02*
X123631578Y-117355314D01*
X123631578Y-117355314D02*
X123679197Y-117545790D01*
X123679197Y-117545790D02*
X123679197Y-117688647D01*
X123679197Y-117688647D02*
X123631578Y-117879123D01*
X123631578Y-117879123D02*
X123583959Y-117974361D01*
X123583959Y-117974361D02*
X123488721Y-118069600D01*
X123488721Y-118069600D02*
X123345864Y-118117219D01*
X123345864Y-118117219D02*
X123107769Y-118117219D01*
X124107769Y-118117219D02*
X124107769Y-117117219D01*
X124774435Y-117117219D02*
X124964911Y-117117219D01*
X124964911Y-117117219D02*
X125060149Y-117164838D01*
X125060149Y-117164838D02*
X125155387Y-117260076D01*
X125155387Y-117260076D02*
X125203006Y-117450552D01*
X125203006Y-117450552D02*
X125203006Y-117783885D01*
X125203006Y-117783885D02*
X125155387Y-117974361D01*
X125155387Y-117974361D02*
X125060149Y-118069600D01*
X125060149Y-118069600D02*
X124964911Y-118117219D01*
X124964911Y-118117219D02*
X124774435Y-118117219D01*
X124774435Y-118117219D02*
X124679197Y-118069600D01*
X124679197Y-118069600D02*
X124583959Y-117974361D01*
X124583959Y-117974361D02*
X124536340Y-117783885D01*
X124536340Y-117783885D02*
X124536340Y-117450552D01*
X124536340Y-117450552D02*
X124583959Y-117260076D01*
X124583959Y-117260076D02*
X124679197Y-117164838D01*
X124679197Y-117164838D02*
X124774435Y-117117219D01*
X126393483Y-118117219D02*
X126393483Y-117117219D01*
X126869673Y-118117219D02*
X126869673Y-117117219D01*
X126869673Y-117117219D02*
X127441101Y-118117219D01*
X127441101Y-118117219D02*
X127441101Y-117117219D01*
X127774435Y-117117219D02*
X128345863Y-117117219D01*
X128060149Y-118117219D02*
X128060149Y-117117219D01*
X128679197Y-117593409D02*
X129012530Y-117593409D01*
X129155387Y-118117219D02*
X128679197Y-118117219D01*
X128679197Y-118117219D02*
X128679197Y-117117219D01*
X128679197Y-117117219D02*
X129155387Y-117117219D01*
X130155387Y-118117219D02*
X129822054Y-117641028D01*
X129583959Y-118117219D02*
X129583959Y-117117219D01*
X129583959Y-117117219D02*
X129964911Y-117117219D01*
X129964911Y-117117219D02*
X130060149Y-117164838D01*
X130060149Y-117164838D02*
X130107768Y-117212457D01*
X130107768Y-117212457D02*
X130155387Y-117307695D01*
X130155387Y-117307695D02*
X130155387Y-117450552D01*
X130155387Y-117450552D02*
X130107768Y-117545790D01*
X130107768Y-117545790D02*
X130060149Y-117593409D01*
X130060149Y-117593409D02*
X129964911Y-117641028D01*
X129964911Y-117641028D02*
X129583959Y-117641028D01*
X130917292Y-117593409D02*
X130583959Y-117593409D01*
X130583959Y-118117219D02*
X130583959Y-117117219D01*
X130583959Y-117117219D02*
X131060149Y-117117219D01*
X131393483Y-117831504D02*
X131869673Y-117831504D01*
X131298245Y-118117219D02*
X131631578Y-117117219D01*
X131631578Y-117117219D02*
X131964911Y-118117219D01*
X132869673Y-118021980D02*
X132822054Y-118069600D01*
X132822054Y-118069600D02*
X132679197Y-118117219D01*
X132679197Y-118117219D02*
X132583959Y-118117219D01*
X132583959Y-118117219D02*
X132441102Y-118069600D01*
X132441102Y-118069600D02*
X132345864Y-117974361D01*
X132345864Y-117974361D02*
X132298245Y-117879123D01*
X132298245Y-117879123D02*
X132250626Y-117688647D01*
X132250626Y-117688647D02*
X132250626Y-117545790D01*
X132250626Y-117545790D02*
X132298245Y-117355314D01*
X132298245Y-117355314D02*
X132345864Y-117260076D01*
X132345864Y-117260076D02*
X132441102Y-117164838D01*
X132441102Y-117164838D02*
X132583959Y-117117219D01*
X132583959Y-117117219D02*
X132679197Y-117117219D01*
X132679197Y-117117219D02*
X132822054Y-117164838D01*
X132822054Y-117164838D02*
X132869673Y-117212457D01*
X133298245Y-117593409D02*
X133631578Y-117593409D01*
X133774435Y-118117219D02*
X133298245Y-118117219D01*
X133298245Y-118117219D02*
X133298245Y-117117219D01*
X133298245Y-117117219D02*
X133774435Y-117117219D01*
X134322054Y-113141695D02*
X134322054Y-112341695D01*
X134322054Y-112341695D02*
X134626816Y-112341695D01*
X134626816Y-112341695D02*
X134703006Y-112379790D01*
X134703006Y-112379790D02*
X134741101Y-112417885D01*
X134741101Y-112417885D02*
X134779197Y-112494076D01*
X134779197Y-112494076D02*
X134779197Y-112608361D01*
X134779197Y-112608361D02*
X134741101Y-112684552D01*
X134741101Y-112684552D02*
X134703006Y-112722647D01*
X134703006Y-112722647D02*
X134626816Y-112760742D01*
X134626816Y-112760742D02*
X134322054Y-112760742D01*
X135007768Y-112341695D02*
X135464911Y-112341695D01*
X135236339Y-113141695D02*
X135236339Y-112341695D01*
X135617292Y-112341695D02*
X136074435Y-112341695D01*
X135845863Y-113141695D02*
X135845863Y-112341695D01*
X120822054Y-108591695D02*
X120822054Y-109239314D01*
X120822054Y-109239314D02*
X120860149Y-109315504D01*
X120860149Y-109315504D02*
X120898244Y-109353600D01*
X120898244Y-109353600D02*
X120974435Y-109391695D01*
X120974435Y-109391695D02*
X121126816Y-109391695D01*
X121126816Y-109391695D02*
X121203006Y-109353600D01*
X121203006Y-109353600D02*
X121241101Y-109315504D01*
X121241101Y-109315504D02*
X121279197Y-109239314D01*
X121279197Y-109239314D02*
X121279197Y-108591695D01*
X121622053Y-109353600D02*
X121736339Y-109391695D01*
X121736339Y-109391695D02*
X121926815Y-109391695D01*
X121926815Y-109391695D02*
X122003006Y-109353600D01*
X122003006Y-109353600D02*
X122041101Y-109315504D01*
X122041101Y-109315504D02*
X122079196Y-109239314D01*
X122079196Y-109239314D02*
X122079196Y-109163123D01*
X122079196Y-109163123D02*
X122041101Y-109086933D01*
X122041101Y-109086933D02*
X122003006Y-109048838D01*
X122003006Y-109048838D02*
X121926815Y-109010742D01*
X121926815Y-109010742D02*
X121774434Y-108972647D01*
X121774434Y-108972647D02*
X121698244Y-108934552D01*
X121698244Y-108934552D02*
X121660149Y-108896457D01*
X121660149Y-108896457D02*
X121622053Y-108820266D01*
X121622053Y-108820266D02*
X121622053Y-108744076D01*
X121622053Y-108744076D02*
X121660149Y-108667885D01*
X121660149Y-108667885D02*
X121698244Y-108629790D01*
X121698244Y-108629790D02*
X121774434Y-108591695D01*
X121774434Y-108591695D02*
X121964911Y-108591695D01*
X121964911Y-108591695D02*
X122079196Y-108629790D01*
X122688720Y-108972647D02*
X122803006Y-109010742D01*
X122803006Y-109010742D02*
X122841101Y-109048838D01*
X122841101Y-109048838D02*
X122879197Y-109125028D01*
X122879197Y-109125028D02*
X122879197Y-109239314D01*
X122879197Y-109239314D02*
X122841101Y-109315504D01*
X122841101Y-109315504D02*
X122803006Y-109353600D01*
X122803006Y-109353600D02*
X122726816Y-109391695D01*
X122726816Y-109391695D02*
X122422054Y-109391695D01*
X122422054Y-109391695D02*
X122422054Y-108591695D01*
X122422054Y-108591695D02*
X122688720Y-108591695D01*
X122688720Y-108591695D02*
X122764911Y-108629790D01*
X122764911Y-108629790D02*
X122803006Y-108667885D01*
X122803006Y-108667885D02*
X122841101Y-108744076D01*
X122841101Y-108744076D02*
X122841101Y-108820266D01*
X122841101Y-108820266D02*
X122803006Y-108896457D01*
X122803006Y-108896457D02*
X122764911Y-108934552D01*
X122764911Y-108934552D02*
X122688720Y-108972647D01*
X122688720Y-108972647D02*
X122422054Y-108972647D01*
X123222054Y-109086933D02*
X123831578Y-109086933D01*
X124669673Y-109315504D02*
X124631577Y-109353600D01*
X124631577Y-109353600D02*
X124517292Y-109391695D01*
X124517292Y-109391695D02*
X124441101Y-109391695D01*
X124441101Y-109391695D02*
X124326815Y-109353600D01*
X124326815Y-109353600D02*
X124250625Y-109277409D01*
X124250625Y-109277409D02*
X124212530Y-109201219D01*
X124212530Y-109201219D02*
X124174434Y-109048838D01*
X124174434Y-109048838D02*
X124174434Y-108934552D01*
X124174434Y-108934552D02*
X124212530Y-108782171D01*
X124212530Y-108782171D02*
X124250625Y-108705980D01*
X124250625Y-108705980D02*
X124326815Y-108629790D01*
X124326815Y-108629790D02*
X124441101Y-108591695D01*
X124441101Y-108591695D02*
X124517292Y-108591695D01*
X124517292Y-108591695D02*
X124631577Y-108629790D01*
X124631577Y-108629790D02*
X124669673Y-108667885D01*
X108822054Y-113141695D02*
X108822054Y-112341695D01*
X108822054Y-112341695D02*
X109126816Y-112341695D01*
X109126816Y-112341695D02*
X109203006Y-112379790D01*
X109203006Y-112379790D02*
X109241101Y-112417885D01*
X109241101Y-112417885D02*
X109279197Y-112494076D01*
X109279197Y-112494076D02*
X109279197Y-112608361D01*
X109279197Y-112608361D02*
X109241101Y-112684552D01*
X109241101Y-112684552D02*
X109203006Y-112722647D01*
X109203006Y-112722647D02*
X109126816Y-112760742D01*
X109126816Y-112760742D02*
X108822054Y-112760742D01*
X109545863Y-112341695D02*
X109736339Y-113141695D01*
X109736339Y-113141695D02*
X109888720Y-112570266D01*
X109888720Y-112570266D02*
X110041101Y-113141695D01*
X110041101Y-113141695D02*
X110231578Y-112341695D01*
X110993483Y-113141695D02*
X110726816Y-112760742D01*
X110536340Y-113141695D02*
X110536340Y-112341695D01*
X110536340Y-112341695D02*
X110841102Y-112341695D01*
X110841102Y-112341695D02*
X110917292Y-112379790D01*
X110917292Y-112379790D02*
X110955387Y-112417885D01*
X110955387Y-112417885D02*
X110993483Y-112494076D01*
X110993483Y-112494076D02*
X110993483Y-112608361D01*
X110993483Y-112608361D02*
X110955387Y-112684552D01*
X110955387Y-112684552D02*
X110917292Y-112722647D01*
X110917292Y-112722647D02*
X110841102Y-112760742D01*
X110841102Y-112760742D02*
X110536340Y-112760742D01*
X120441101Y-102367219D02*
X120107768Y-101891028D01*
X119869673Y-102367219D02*
X119869673Y-101367219D01*
X119869673Y-101367219D02*
X120250625Y-101367219D01*
X120250625Y-101367219D02*
X120345863Y-101414838D01*
X120345863Y-101414838D02*
X120393482Y-101462457D01*
X120393482Y-101462457D02*
X120441101Y-101557695D01*
X120441101Y-101557695D02*
X120441101Y-101700552D01*
X120441101Y-101700552D02*
X120393482Y-101795790D01*
X120393482Y-101795790D02*
X120345863Y-101843409D01*
X120345863Y-101843409D02*
X120250625Y-101891028D01*
X120250625Y-101891028D02*
X119869673Y-101891028D01*
X120869673Y-102367219D02*
X120869673Y-101367219D01*
X121869672Y-101414838D02*
X121774434Y-101367219D01*
X121774434Y-101367219D02*
X121631577Y-101367219D01*
X121631577Y-101367219D02*
X121488720Y-101414838D01*
X121488720Y-101414838D02*
X121393482Y-101510076D01*
X121393482Y-101510076D02*
X121345863Y-101605314D01*
X121345863Y-101605314D02*
X121298244Y-101795790D01*
X121298244Y-101795790D02*
X121298244Y-101938647D01*
X121298244Y-101938647D02*
X121345863Y-102129123D01*
X121345863Y-102129123D02*
X121393482Y-102224361D01*
X121393482Y-102224361D02*
X121488720Y-102319600D01*
X121488720Y-102319600D02*
X121631577Y-102367219D01*
X121631577Y-102367219D02*
X121726815Y-102367219D01*
X121726815Y-102367219D02*
X121869672Y-102319600D01*
X121869672Y-102319600D02*
X121917291Y-102271980D01*
X121917291Y-102271980D02*
X121917291Y-101938647D01*
X121917291Y-101938647D02*
X121726815Y-101938647D01*
X122345863Y-102367219D02*
X122345863Y-101367219D01*
X122345863Y-101367219D02*
X122917291Y-102367219D01*
X122917291Y-102367219D02*
X122917291Y-101367219D01*
X123393482Y-101843409D02*
X123726815Y-101843409D01*
X123869672Y-102367219D02*
X123393482Y-102367219D01*
X123393482Y-102367219D02*
X123393482Y-101367219D01*
X123393482Y-101367219D02*
X123869672Y-101367219D01*
X124203006Y-101367219D02*
X124869672Y-102367219D01*
X124869672Y-101367219D02*
X124203006Y-102367219D01*
X125441101Y-101367219D02*
X125631577Y-101367219D01*
X125631577Y-101367219D02*
X125726815Y-101414838D01*
X125726815Y-101414838D02*
X125822053Y-101510076D01*
X125822053Y-101510076D02*
X125869672Y-101700552D01*
X125869672Y-101700552D02*
X125869672Y-102033885D01*
X125869672Y-102033885D02*
X125822053Y-102224361D01*
X125822053Y-102224361D02*
X125726815Y-102319600D01*
X125726815Y-102319600D02*
X125631577Y-102367219D01*
X125631577Y-102367219D02*
X125441101Y-102367219D01*
X125441101Y-102367219D02*
X125345863Y-102319600D01*
X125345863Y-102319600D02*
X125250625Y-102224361D01*
X125250625Y-102224361D02*
X125203006Y-102033885D01*
X125203006Y-102033885D02*
X125203006Y-101700552D01*
X125203006Y-101700552D02*
X125250625Y-101510076D01*
X125250625Y-101510076D02*
X125345863Y-101414838D01*
X125345863Y-101414838D02*
X125441101Y-101367219D01*
D12*
X141750000Y-105800000D02*
G75*
G03*
X138750000Y-105800000I-1500000J0D01*
G01*
X138750000Y-105800000D02*
G75*
G03*
X141750000Y-105800000I1500000J0D01*
G01*
X145000000Y-102000000D02*
X145000000Y-117500000D01*
X127500000Y-104100000D02*
G75*
G03*
X127000000Y-103600000I-500000J0D01*
G01*
X117500000Y-104100000D02*
X117500000Y-106600000D01*
X101000001Y-100000000D02*
G75*
G03*
X100999999Y-100000000I-1J0D01*
G01*
X100999999Y-100000000D02*
G75*
G03*
X101000001Y-100000000I1J0D01*
G01*
X118000000Y-103600000D02*
G75*
G03*
X117500000Y-104100000I0J-500000D01*
G01*
X143000000Y-119500000D02*
G75*
G03*
X145000000Y-117500000I0J2000000D01*
G01*
X145000000Y-102000000D02*
G75*
G03*
X143000000Y-100000000I-2000000J0D01*
G01*
X100000000Y-117500000D02*
G75*
G03*
X102000000Y-119500000I2000000J0D01*
G01*
X106250000Y-105800000D02*
G75*
G03*
X103250000Y-105800000I-1500000J0D01*
G01*
X103250000Y-105800000D02*
G75*
G03*
X106250000Y-105800000I1500000J0D01*
G01*
X127000000Y-107100000D02*
G75*
G03*
X127500000Y-106600000I0J500000D01*
G01*
X102000000Y-119500000D02*
X143000000Y-119500000D01*
X118000000Y-103600000D02*
X127000000Y-103600000D01*
X102000000Y-100000000D02*
X143000000Y-100000000D01*
X127500000Y-104100000D02*
X127500000Y-106600000D01*
X117500000Y-106600000D02*
G75*
G03*
X118000000Y-107100000I500000J0D01*
G01*
X102000000Y-100000000D02*
G75*
G03*
X100000000Y-102000000I0J-2000000D01*
G01*
X118000000Y-107100000D02*
X127000000Y-107100000D01*
X100000000Y-102000000D02*
X100000000Y-117500000D01*
M02*
