%TF.GenerationSoftware,KiCad,Pcbnew,7.0.11+dfsg-1build4*%
%TF.CreationDate,2026-09-10T16:20:27-05:00*%
%TF.ProjectId,rignexo-back,7269676e-6578-46f2-9d62-61636b2e6b69,rev?*%
%TF.SameCoordinates,Original*%
%TF.FileFunction,Soldermask,Bot*%
%TF.FilePolarity,Negative*%
%FSLAX46Y46*%
G04 Gerber Fmt 4.6, Leading zero omitted, Abs format (unit mm)*
G04 Created by KiCad (PCBNEW 7.0.11+dfsg-1build4) date 2026-09-10 16:20:27*
%MOMM*%
%LPD*%
G01*
G04 APERTURE LIST*
%ADD10C,3.000000*%
%ADD11C,0.500000*%
%ADD12C,3.400000*%
%ADD13C,4.500000*%
%TA.AperFunction,Profile*%
%ADD14C,0.050000*%
%TD*%
G04 APERTURE END LIST*
D10*
%TO.C,H2*%
X142200000Y-103400000D03*
%TD*%
D11*
%TO.C,REF\u002A\u002A*%
X136250000Y-110000000D03*
%TD*%
%TO.C,REF\u002A\u002A*%
X135250000Y-110000000D03*
%TD*%
%TO.C,REF\u002A\u002A*%
X135957000Y-110707000D03*
%TD*%
%TO.C,REF\u002A\u002A*%
X135250000Y-109000000D03*
%TD*%
D10*
%TO.C,H1*%
X102800000Y-103400000D03*
%TD*%
D11*
%TO.C,REF\u002A\u002A*%
X134543000Y-109293000D03*
%TD*%
%TO.C,REF\u002A\u002A*%
X135957000Y-109293000D03*
%TD*%
%TO.C,REF\u002A\u002A*%
X109043000Y-109293000D03*
%TD*%
%TO.C,REF\u002A\u002A*%
X134250000Y-110000000D03*
%TD*%
%TO.C,REF\u002A\u002A*%
X109750000Y-111000000D03*
%TD*%
%TO.C,REF\u002A\u002A*%
X110457000Y-109293000D03*
%TD*%
%TO.C,REF\u002A\u002A*%
X135250000Y-111000000D03*
%TD*%
%TO.C,REF\u002A\u002A*%
X134543000Y-110707000D03*
%TD*%
%TO.C,REF\u002A\u002A*%
X109750000Y-110000000D03*
%TD*%
%TO.C,REF\u002A\u002A*%
X109043000Y-110707000D03*
%TD*%
%TO.C,REF\u002A\u002A*%
X108750000Y-110000000D03*
%TD*%
%TO.C,REF\u002A\u002A*%
X110457000Y-110707000D03*
%TD*%
%TO.C,REF\u002A\u002A*%
X109750000Y-109000000D03*
%TD*%
%TO.C,REF\u002A\u002A*%
X110750000Y-110000000D03*
%TD*%
D12*
%TO.C,H3*%
X102800000Y-116100000D03*
D13*
X102800000Y-116100000D03*
%TD*%
D12*
%TO.C,H4*%
X142200000Y-116100000D03*
D13*
X142200000Y-116100000D03*
%TD*%
D14*
X141750000Y-105800000D02*
G75*
G03*
X138750000Y-105800000I-1500000J0D01*
G01*
X138750000Y-105800000D02*
G75*
G03*
X141750000Y-105800000I1500000J0D01*
G01*
X145000000Y-102000000D02*
X145000000Y-117500000D01*
X127500000Y-104100000D02*
G75*
G03*
X127000000Y-103600000I-500000J0D01*
G01*
X117500000Y-104100000D02*
X117500000Y-106600000D01*
X101000001Y-100000000D02*
G75*
G03*
X100999999Y-100000000I-1J0D01*
G01*
X100999999Y-100000000D02*
G75*
G03*
X101000001Y-100000000I1J0D01*
G01*
X118000000Y-103600000D02*
G75*
G03*
X117500000Y-104100000I0J-500000D01*
G01*
X143000000Y-119500000D02*
G75*
G03*
X145000000Y-117500000I0J2000000D01*
G01*
X145000000Y-102000000D02*
G75*
G03*
X143000000Y-100000000I-2000000J0D01*
G01*
X100000000Y-117500000D02*
G75*
G03*
X102000000Y-119500000I2000000J0D01*
G01*
X106250000Y-105800000D02*
G75*
G03*
X103250000Y-105800000I-1500000J0D01*
G01*
X103250000Y-105800000D02*
G75*
G03*
X106250000Y-105800000I1500000J0D01*
G01*
X127000000Y-107100000D02*
G75*
G03*
X127500000Y-106600000I0J500000D01*
G01*
X102000000Y-119500000D02*
X143000000Y-119500000D01*
X118000000Y-103600000D02*
X127000000Y-103600000D01*
X102000000Y-100000000D02*
X143000000Y-100000000D01*
X127500000Y-104100000D02*
X127500000Y-106600000D01*
X117500000Y-106600000D02*
G75*
G03*
X118000000Y-107100000I500000J0D01*
G01*
X102000000Y-100000000D02*
G75*
G03*
X100000000Y-102000000I0J-2000000D01*
G01*
X118000000Y-107100000D02*
X127000000Y-107100000D01*
X100000000Y-102000000D02*
X100000000Y-117500000D01*
M02*
