%TF.GenerationSoftware,KiCad,Pcbnew,7.0.11+dfsg-1build4*%
%TF.CreationDate,2026-09-10T16:20:27-05:00*%
%TF.ProjectId,rignexo-back,7269676e-6578-46f2-9d62-61636b2e6b69,rev?*%
%TF.SameCoordinates,Original*%
%TF.FileFunction,Copper,L2,Bot*%
%TF.FilePolarity,Positive*%
%FSLAX46Y46*%
G04 Gerber Fmt 4.6, Leading zero omitted, Abs format (unit mm)*
G04 Created by KiCad (PCBNEW 7.0.11+dfsg-1build4) date 2026-09-10 16:20:27*
%MOMM*%
%LPD*%
G01*
G04 APERTURE LIST*
%TA.AperFunction,ComponentPad*%
%ADD10C,3.400000*%
%TD*%
%TA.AperFunction,ConnectorPad*%
%ADD11C,4.500000*%
%TD*%
%TA.AperFunction,Profile*%
%ADD12C,0.050000*%
%TD*%
G04 APERTURE END LIST*
D10*
%TO.P,H3,1,1*%
%TO.N,GND*%
X102800000Y-116100000D03*
D11*
X102800000Y-116100000D03*
%TD*%
D10*
%TO.P,H4,1,1*%
%TO.N,GND*%
X142200000Y-116100000D03*
D11*
X142200000Y-116100000D03*
%TD*%
%TA.AperFunction,Conductor*%
%TO.N,GND*%
G36*
X101692632Y-117119404D02*
G01*
X101875523Y-117287768D01*
X101930116Y-117323435D01*
X101039415Y-118214136D01*
X101039415Y-118214137D01*
X101234960Y-118367337D01*
X101234968Y-118367342D01*
X101519678Y-118539454D01*
X101519680Y-118539456D01*
X101823056Y-118675994D01*
X101823071Y-118676000D01*
X102083379Y-118757115D01*
X102141527Y-118795852D01*
X102169501Y-118859877D01*
X102158419Y-118928863D01*
X102111801Y-118980906D01*
X102046489Y-118999500D01*
X102004428Y-118999500D01*
X101995582Y-118999184D01*
X101973622Y-118997613D01*
X101795442Y-118984869D01*
X101777931Y-118982351D01*
X101586212Y-118940646D01*
X101569236Y-118935662D01*
X101385390Y-118867090D01*
X101369298Y-118859740D01*
X101197095Y-118765711D01*
X101182210Y-118756146D01*
X101025132Y-118638558D01*
X101011762Y-118626972D01*
X100873027Y-118488237D01*
X100861441Y-118474867D01*
X100780949Y-118367343D01*
X100743849Y-118317784D01*
X100734288Y-118302904D01*
X100640259Y-118130701D01*
X100632909Y-118114609D01*
X100601374Y-118030061D01*
X100596390Y-117960369D01*
X100629875Y-117899046D01*
X100668480Y-117877965D01*
X101576389Y-116970056D01*
X101692632Y-117119404D01*
G37*
%TD.AperFunction*%
%TA.AperFunction,Conductor*%
G36*
X143004418Y-100500816D02*
G01*
X143204561Y-100515130D01*
X143222063Y-100517647D01*
X143413797Y-100559355D01*
X143430755Y-100564334D01*
X143614609Y-100632909D01*
X143630701Y-100640259D01*
X143802904Y-100734288D01*
X143817784Y-100743849D01*
X143974867Y-100861441D01*
X143988237Y-100873027D01*
X144126972Y-101011762D01*
X144138558Y-101025132D01*
X144256146Y-101182210D01*
X144265711Y-101197095D01*
X144359740Y-101369298D01*
X144367090Y-101385390D01*
X144435662Y-101569236D01*
X144440646Y-101586212D01*
X144482351Y-101777931D01*
X144484869Y-101795442D01*
X144499184Y-101995580D01*
X144499500Y-102004427D01*
X144499500Y-114218900D01*
X144479815Y-114285939D01*
X144427011Y-114331694D01*
X144368014Y-114342674D01*
X144314136Y-114339415D01*
X143423609Y-115229942D01*
X143307368Y-115080596D01*
X143124477Y-114912232D01*
X143069882Y-114876563D01*
X143960583Y-113985862D01*
X143960583Y-113985861D01*
X143765039Y-113832662D01*
X143765031Y-113832657D01*
X143480321Y-113660545D01*
X143480319Y-113660543D01*
X143176943Y-113524005D01*
X143176928Y-113523999D01*
X142859329Y-113425032D01*
X142532076Y-113365060D01*
X142200000Y-113344974D01*
X141867923Y-113365060D01*
X141540670Y-113425032D01*
X141223071Y-113523999D01*
X141223056Y-113524005D01*
X140919680Y-113660543D01*
X140919678Y-113660545D01*
X140634968Y-113832657D01*
X140439415Y-113985862D01*
X141330117Y-114876564D01*
X141275523Y-114912232D01*
X141092632Y-115080596D01*
X140976389Y-115229942D01*
X140085862Y-114339415D01*
X139932657Y-114534968D01*
X139760545Y-114819678D01*
X139760543Y-114819680D01*
X139624005Y-115123056D01*
X139623999Y-115123071D01*
X139525032Y-115440670D01*
X139465060Y-115767923D01*
X139444974Y-116100000D01*
X139465060Y-116432076D01*
X139525032Y-116759329D01*
X139623999Y-117076928D01*
X139624005Y-117076943D01*
X139760543Y-117380319D01*
X139760545Y-117380321D01*
X139932657Y-117665031D01*
X139932662Y-117665039D01*
X140085862Y-117860583D01*
X140976389Y-116970056D01*
X141092632Y-117119404D01*
X141275523Y-117287768D01*
X141330116Y-117323435D01*
X140439415Y-118214136D01*
X140439415Y-118214137D01*
X140634960Y-118367337D01*
X140634968Y-118367342D01*
X140919678Y-118539454D01*
X140919680Y-118539456D01*
X141223056Y-118675994D01*
X141223071Y-118676000D01*
X141483379Y-118757115D01*
X141541527Y-118795852D01*
X141569501Y-118859877D01*
X141558419Y-118928863D01*
X141511801Y-118980906D01*
X141446489Y-118999500D01*
X103553511Y-118999500D01*
X103486472Y-118979815D01*
X103440717Y-118927011D01*
X103430773Y-118857853D01*
X103459798Y-118794297D01*
X103516621Y-118757115D01*
X103776928Y-118676000D01*
X103776943Y-118675994D01*
X104080319Y-118539456D01*
X104080321Y-118539454D01*
X104365030Y-118367343D01*
X104560583Y-118214137D01*
X104560583Y-118214136D01*
X103669882Y-117323435D01*
X103724477Y-117287768D01*
X103907368Y-117119404D01*
X104023610Y-116970057D01*
X104914136Y-117860583D01*
X104914137Y-117860583D01*
X105067343Y-117665030D01*
X105239454Y-117380321D01*
X105239456Y-117380319D01*
X105375994Y-117076943D01*
X105376000Y-117076928D01*
X105474967Y-116759329D01*
X105534939Y-116432076D01*
X105555025Y-116100000D01*
X105534939Y-115767923D01*
X105474967Y-115440670D01*
X105376000Y-115123071D01*
X105375994Y-115123056D01*
X105239456Y-114819680D01*
X105239454Y-114819678D01*
X105067342Y-114534968D01*
X105067337Y-114534960D01*
X104914136Y-114339415D01*
X104023609Y-115229942D01*
X103907368Y-115080596D01*
X103724477Y-114912232D01*
X103669882Y-114876563D01*
X104560583Y-113985862D01*
X104560583Y-113985861D01*
X104365039Y-113832662D01*
X104365031Y-113832657D01*
X104080321Y-113660545D01*
X104080319Y-113660543D01*
X103776943Y-113524005D01*
X103776928Y-113523999D01*
X103459329Y-113425032D01*
X103132076Y-113365060D01*
X102800000Y-113344974D01*
X102467923Y-113365060D01*
X102140670Y-113425032D01*
X101823071Y-113523999D01*
X101823056Y-113524005D01*
X101519680Y-113660543D01*
X101519678Y-113660545D01*
X101234968Y-113832657D01*
X101039415Y-113985862D01*
X101930117Y-114876564D01*
X101875523Y-114912232D01*
X101692632Y-115080596D01*
X101576389Y-115229942D01*
X100685862Y-114339415D01*
X100631986Y-114342674D01*
X100563881Y-114327073D01*
X100515021Y-114277127D01*
X100500500Y-114218900D01*
X100500500Y-110000000D01*
X108000000Y-110000000D01*
X108500000Y-111250000D01*
X109750000Y-111750000D01*
X111000000Y-111250000D01*
X111500000Y-110000000D01*
X133500000Y-110000000D01*
X134000000Y-111250000D01*
X135250000Y-111750000D01*
X136500000Y-111250000D01*
X137000000Y-110000000D01*
X136500000Y-108750000D01*
X135250000Y-108250000D01*
X134000000Y-108750000D01*
X133500000Y-110000000D01*
X111500000Y-110000000D01*
X111000000Y-108750000D01*
X109750000Y-108250000D01*
X108500000Y-108750000D01*
X108000000Y-110000000D01*
X100500500Y-110000000D01*
X100500500Y-103531187D01*
X101049500Y-103531187D01*
X101068685Y-103658462D01*
X101088604Y-103790615D01*
X101088605Y-103790617D01*
X101088606Y-103790623D01*
X101165938Y-104041326D01*
X101279767Y-104277696D01*
X101279768Y-104277697D01*
X101279770Y-104277700D01*
X101279772Y-104277704D01*
X101284249Y-104284270D01*
X101427567Y-104494479D01*
X101606014Y-104686801D01*
X101606018Y-104686804D01*
X101606019Y-104686805D01*
X101811143Y-104850386D01*
X102038357Y-104981568D01*
X102282584Y-105077420D01*
X102538370Y-105135802D01*
X102538376Y-105135802D01*
X102538379Y-105135803D01*
X102700031Y-105147917D01*
X102765412Y-105172556D01*
X102807093Y-105228631D01*
X102811931Y-105297928D01*
X102764804Y-105514566D01*
X102744390Y-105799998D01*
X102744390Y-105800001D01*
X102764804Y-106085433D01*
X102825628Y-106365037D01*
X102925635Y-106633166D01*
X103062770Y-106884309D01*
X103062775Y-106884317D01*
X103234254Y-107113387D01*
X103234270Y-107113405D01*
X103436594Y-107315729D01*
X103436612Y-107315745D01*
X103665682Y-107487224D01*
X103665690Y-107487229D01*
X103916833Y-107624364D01*
X103916832Y-107624364D01*
X103916836Y-107624365D01*
X103916839Y-107624367D01*
X104184954Y-107724369D01*
X104184960Y-107724370D01*
X104184962Y-107724371D01*
X104464566Y-107785195D01*
X104464568Y-107785195D01*
X104464572Y-107785196D01*
X104718220Y-107803337D01*
X104749999Y-107805610D01*
X104750000Y-107805610D01*
X104750001Y-107805610D01*
X104778595Y-107803564D01*
X105035428Y-107785196D01*
X105315046Y-107724369D01*
X105583161Y-107624367D01*
X105834315Y-107487226D01*
X106063395Y-107315739D01*
X106265739Y-107113395D01*
X106437226Y-106884315D01*
X106544677Y-106687534D01*
X116999500Y-106687534D01*
X117029898Y-106859937D01*
X117089775Y-107024446D01*
X117177309Y-107176057D01*
X117289836Y-107310163D01*
X117423942Y-107422690D01*
X117535716Y-107487224D01*
X117575555Y-107510225D01*
X117740062Y-107570101D01*
X117912468Y-107600500D01*
X117912472Y-107600500D01*
X127087528Y-107600500D01*
X127087532Y-107600500D01*
X127259938Y-107570101D01*
X127424445Y-107510225D01*
X127576055Y-107422692D01*
X127710163Y-107310163D01*
X127822692Y-107176055D01*
X127910225Y-107024445D01*
X127970101Y-106859938D01*
X128000500Y-106687532D01*
X128000500Y-106600000D01*
X128000500Y-106534108D01*
X128000500Y-105800001D01*
X138244390Y-105800001D01*
X138264804Y-106085433D01*
X138325628Y-106365037D01*
X138425635Y-106633166D01*
X138562770Y-106884309D01*
X138562775Y-106884317D01*
X138734254Y-107113387D01*
X138734270Y-107113405D01*
X138936594Y-107315729D01*
X138936612Y-107315745D01*
X139165682Y-107487224D01*
X139165690Y-107487229D01*
X139416833Y-107624364D01*
X139416832Y-107624364D01*
X139416836Y-107624365D01*
X139416839Y-107624367D01*
X139684954Y-107724369D01*
X139684960Y-107724370D01*
X139684962Y-107724371D01*
X139964566Y-107785195D01*
X139964568Y-107785195D01*
X139964572Y-107785196D01*
X140218220Y-107803337D01*
X140249999Y-107805610D01*
X140250000Y-107805610D01*
X140250001Y-107805610D01*
X140278595Y-107803564D01*
X140535428Y-107785196D01*
X140815046Y-107724369D01*
X141083161Y-107624367D01*
X141334315Y-107487226D01*
X141563395Y-107315739D01*
X141765739Y-107113395D01*
X141937226Y-106884315D01*
X142074367Y-106633161D01*
X142174369Y-106365046D01*
X142235196Y-106085428D01*
X142255610Y-105800000D01*
X142235196Y-105514572D01*
X142188068Y-105297927D01*
X142193052Y-105228237D01*
X142234923Y-105172303D01*
X142299968Y-105147917D01*
X142461620Y-105135803D01*
X142461622Y-105135802D01*
X142461630Y-105135802D01*
X142717416Y-105077420D01*
X142961643Y-104981568D01*
X143188857Y-104850386D01*
X143393981Y-104686805D01*
X143572433Y-104494479D01*
X143720228Y-104277704D01*
X143834063Y-104041323D01*
X143911396Y-103790615D01*
X143950500Y-103531182D01*
X143950500Y-103268818D01*
X143911396Y-103009385D01*
X143834063Y-102758677D01*
X143822121Y-102733880D01*
X143720232Y-102522303D01*
X143720231Y-102522302D01*
X143720230Y-102522301D01*
X143720228Y-102522296D01*
X143572433Y-102305521D01*
X143562441Y-102294753D01*
X143393985Y-102113198D01*
X143257590Y-102004427D01*
X143188857Y-101949614D01*
X142961643Y-101818432D01*
X142717416Y-101722580D01*
X142717411Y-101722578D01*
X142717402Y-101722576D01*
X142499818Y-101672914D01*
X142461630Y-101664198D01*
X142461629Y-101664197D01*
X142461625Y-101664197D01*
X142461620Y-101664196D01*
X142265515Y-101649500D01*
X142265494Y-101649500D01*
X142134506Y-101649500D01*
X142134484Y-101649500D01*
X141938379Y-101664196D01*
X141938374Y-101664197D01*
X141682597Y-101722576D01*
X141682578Y-101722582D01*
X141438356Y-101818432D01*
X141211143Y-101949614D01*
X141006014Y-102113198D01*
X140827567Y-102305520D01*
X140679768Y-102522302D01*
X140679767Y-102522303D01*
X140565938Y-102758673D01*
X140488606Y-103009376D01*
X140488605Y-103009381D01*
X140488604Y-103009385D01*
X140475021Y-103099500D01*
X140449500Y-103268812D01*
X140449500Y-103531189D01*
X140468684Y-103658463D01*
X140459211Y-103727687D01*
X140413816Y-103780801D01*
X140346912Y-103800941D01*
X140337223Y-103800628D01*
X140250001Y-103794390D01*
X140249999Y-103794390D01*
X139964566Y-103814804D01*
X139684962Y-103875628D01*
X139416833Y-103975635D01*
X139165690Y-104112770D01*
X139165682Y-104112775D01*
X138936612Y-104284254D01*
X138936594Y-104284270D01*
X138734270Y-104486594D01*
X138734254Y-104486612D01*
X138562775Y-104715682D01*
X138562770Y-104715690D01*
X138425635Y-104966833D01*
X138325628Y-105234962D01*
X138264804Y-105514566D01*
X138244390Y-105799998D01*
X138244390Y-105800001D01*
X128000500Y-105800001D01*
X128000500Y-104064201D01*
X128000500Y-104012468D01*
X127970101Y-103840062D01*
X127910225Y-103675555D01*
X127822692Y-103523945D01*
X127822691Y-103523943D01*
X127822690Y-103523942D01*
X127710163Y-103389836D01*
X127576057Y-103277309D01*
X127424446Y-103189775D01*
X127259937Y-103129898D01*
X127087534Y-103099500D01*
X127087532Y-103099500D01*
X127035799Y-103099500D01*
X118065892Y-103099500D01*
X118000000Y-103099500D01*
X117912468Y-103099500D01*
X117912465Y-103099500D01*
X117740062Y-103129898D01*
X117575553Y-103189775D01*
X117423942Y-103277309D01*
X117289836Y-103389836D01*
X117177309Y-103523942D01*
X117089775Y-103675553D01*
X117029898Y-103840062D01*
X116999500Y-104012465D01*
X116999500Y-106687534D01*
X106544677Y-106687534D01*
X106574367Y-106633161D01*
X106674369Y-106365046D01*
X106735196Y-106085428D01*
X106755610Y-105800000D01*
X106735196Y-105514572D01*
X106674369Y-105234954D01*
X106574367Y-104966839D01*
X106494025Y-104819705D01*
X106437229Y-104715690D01*
X106437224Y-104715682D01*
X106265745Y-104486612D01*
X106265729Y-104486594D01*
X106063405Y-104284270D01*
X106063387Y-104284254D01*
X105834317Y-104112775D01*
X105834309Y-104112770D01*
X105583166Y-103975635D01*
X105583167Y-103975635D01*
X105475915Y-103935632D01*
X105315046Y-103875631D01*
X105315043Y-103875630D01*
X105315037Y-103875628D01*
X105035433Y-103814804D01*
X104750001Y-103794390D01*
X104749999Y-103794390D01*
X104662776Y-103800628D01*
X104594503Y-103785776D01*
X104545098Y-103736371D01*
X104530246Y-103668098D01*
X104531315Y-103658462D01*
X104550499Y-103531187D01*
X104550500Y-103531182D01*
X104550500Y-103268817D01*
X104550499Y-103268812D01*
X104511396Y-103009385D01*
X104434063Y-102758677D01*
X104422121Y-102733880D01*
X104320232Y-102522303D01*
X104320231Y-102522302D01*
X104320230Y-102522301D01*
X104320228Y-102522296D01*
X104172433Y-102305521D01*
X104162441Y-102294753D01*
X103993985Y-102113198D01*
X103857590Y-102004427D01*
X103788857Y-101949614D01*
X103561643Y-101818432D01*
X103317416Y-101722580D01*
X103317411Y-101722578D01*
X103317402Y-101722576D01*
X103099818Y-101672914D01*
X103061630Y-101664198D01*
X103061629Y-101664197D01*
X103061625Y-101664197D01*
X103061620Y-101664196D01*
X102865515Y-101649500D01*
X102865494Y-101649500D01*
X102734506Y-101649500D01*
X102734484Y-101649500D01*
X102538379Y-101664196D01*
X102538374Y-101664197D01*
X102282597Y-101722576D01*
X102282578Y-101722582D01*
X102038356Y-101818432D01*
X101811143Y-101949614D01*
X101606014Y-102113198D01*
X101427567Y-102305520D01*
X101279768Y-102522302D01*
X101279767Y-102522303D01*
X101165938Y-102758673D01*
X101088606Y-103009376D01*
X101088605Y-103009381D01*
X101088604Y-103009385D01*
X101075021Y-103099500D01*
X101049500Y-103268812D01*
X101049500Y-103531187D01*
X100500500Y-103531187D01*
X100500500Y-102004427D01*
X100500816Y-101995581D01*
X100515130Y-101795443D01*
X100515131Y-101795442D01*
X100515130Y-101795436D01*
X100517646Y-101777938D01*
X100559356Y-101586199D01*
X100564333Y-101569248D01*
X100632911Y-101385385D01*
X100640259Y-101369298D01*
X100702815Y-101254734D01*
X100734291Y-101197089D01*
X100743845Y-101182221D01*
X100861448Y-101025123D01*
X100873020Y-101011769D01*
X101011769Y-100873020D01*
X101025123Y-100861448D01*
X101182221Y-100743845D01*
X101197089Y-100734291D01*
X101369298Y-100640258D01*
X101385385Y-100632911D01*
X101569248Y-100564333D01*
X101586199Y-100559356D01*
X101777938Y-100517646D01*
X101795436Y-100515130D01*
X101995582Y-100500816D01*
X102004428Y-100500500D01*
X102065892Y-100500500D01*
X142934108Y-100500500D01*
X142995572Y-100500500D01*
X143004418Y-100500816D01*
G37*
%TD.AperFunction*%
%TA.AperFunction,Conductor*%
G36*
X144328851Y-117875298D02*
G01*
X144343059Y-117878553D01*
X144391920Y-117928496D01*
X144406023Y-117996928D01*
X144398625Y-118030061D01*
X144367090Y-118114609D01*
X144359740Y-118130701D01*
X144265711Y-118302904D01*
X144256146Y-118317789D01*
X144138558Y-118474867D01*
X144126972Y-118488237D01*
X143988237Y-118626972D01*
X143974867Y-118638558D01*
X143817789Y-118756146D01*
X143802904Y-118765711D01*
X143630701Y-118859740D01*
X143614609Y-118867090D01*
X143430763Y-118935662D01*
X143413787Y-118940646D01*
X143222068Y-118982351D01*
X143204557Y-118984869D01*
X143023779Y-118997799D01*
X143004417Y-118999184D01*
X142995572Y-118999500D01*
X142953511Y-118999500D01*
X142886472Y-118979815D01*
X142840717Y-118927011D01*
X142830773Y-118857853D01*
X142859798Y-118794297D01*
X142916621Y-118757115D01*
X143176928Y-118676000D01*
X143176943Y-118675994D01*
X143480319Y-118539456D01*
X143480321Y-118539454D01*
X143765030Y-118367343D01*
X143960583Y-118214137D01*
X143960583Y-118214136D01*
X143069882Y-117323435D01*
X143124477Y-117287768D01*
X143307368Y-117119404D01*
X143423610Y-116970057D01*
X144328851Y-117875298D01*
G37*
%TD.AperFunction*%
%TD*%
D12*
X141750000Y-105800000D02*
G75*
G03*
X138750000Y-105800000I-1500000J0D01*
G01*
X138750000Y-105800000D02*
G75*
G03*
X141750000Y-105800000I1500000J0D01*
G01*
X145000000Y-102000000D02*
X145000000Y-117500000D01*
X127500000Y-104100000D02*
G75*
G03*
X127000000Y-103600000I-500000J0D01*
G01*
X117500000Y-104100000D02*
X117500000Y-106600000D01*
X101000001Y-100000000D02*
G75*
G03*
X100999999Y-100000000I-1J0D01*
G01*
X100999999Y-100000000D02*
G75*
G03*
X101000001Y-100000000I1J0D01*
G01*
X118000000Y-103600000D02*
G75*
G03*
X117500000Y-104100000I0J-500000D01*
G01*
X143000000Y-119500000D02*
G75*
G03*
X145000000Y-117500000I0J2000000D01*
G01*
X145000000Y-102000000D02*
G75*
G03*
X143000000Y-100000000I-2000000J0D01*
G01*
X100000000Y-117500000D02*
G75*
G03*
X102000000Y-119500000I2000000J0D01*
G01*
X106250000Y-105800000D02*
G75*
G03*
X103250000Y-105800000I-1500000J0D01*
G01*
X103250000Y-105800000D02*
G75*
G03*
X106250000Y-105800000I1500000J0D01*
G01*
X127000000Y-107100000D02*
G75*
G03*
X127500000Y-106600000I0J500000D01*
G01*
X102000000Y-119500000D02*
X143000000Y-119500000D01*
X118000000Y-103600000D02*
X127000000Y-103600000D01*
X102000000Y-100000000D02*
X143000000Y-100000000D01*
X127500000Y-104100000D02*
X127500000Y-106600000D01*
X117500000Y-106600000D02*
G75*
G03*
X118000000Y-107100000I500000J0D01*
G01*
X102000000Y-100000000D02*
G75*
G03*
X100000000Y-102000000I0J-2000000D01*
G01*
X118000000Y-107100000D02*
X127000000Y-107100000D01*
X100000000Y-102000000D02*
X100000000Y-117500000D01*
M02*
