%TF.GenerationSoftware,KiCad,Pcbnew,7.0.11+dfsg-1build4*%
%TF.CreationDate,2026-09-09T20:42:09-05:00*%
%TF.ProjectId,,58585858-5858-4585-9858-585858585858,rev?*%
%TF.SameCoordinates,Original*%
%TF.FileFunction,Copper,L2,Bot*%
%TF.FilePolarity,Positive*%
%FSLAX46Y46*%
G04 Gerber Fmt 4.6, Leading zero omitted, Abs format (unit mm)*
G04 Created by KiCad (PCBNEW 7.0.11+dfsg-1build4) date 2026-09-09 20:42:09*
%MOMM*%
%LPD*%
G01*
G04 APERTURE LIST*
%TA.AperFunction,ComponentPad*%
%ADD10C,3.400000*%
%TD*%
%TA.AperFunction,ConnectorPad*%
%ADD11C,4.500000*%
%TD*%
%TA.AperFunction,Profile*%
%ADD12C,0.050000*%
%TD*%
G04 APERTURE END LIST*
D10*
%TO.P,H3,1,1*%
%TO.N,GND*%
X94300000Y-165600000D03*
D11*
X94300000Y-165600000D03*
%TD*%
D10*
%TO.P,H4,1,1*%
%TO.N,GND*%
X133700000Y-165600000D03*
D11*
X133700000Y-165600000D03*
%TD*%
D10*
%TO.P,H3,1,1*%
%TO.N,GND*%
X49300000Y-165600000D03*
D11*
X49300000Y-165600000D03*
%TD*%
D10*
%TO.P,H4,1,1*%
%TO.N,GND*%
X88700000Y-165600000D03*
D11*
X88700000Y-165600000D03*
%TD*%
D10*
%TO.P,H3,1,1*%
%TO.N,GND*%
X94300000Y-146100000D03*
D11*
X94300000Y-146100000D03*
%TD*%
D10*
%TO.P,H4,1,1*%
%TO.N,GND*%
X133700000Y-146100000D03*
D11*
X133700000Y-146100000D03*
%TD*%
D10*
%TO.P,H3,1,1*%
%TO.N,GND*%
X49300000Y-146100000D03*
D11*
X49300000Y-146100000D03*
%TD*%
D10*
%TO.P,H4,1,1*%
%TO.N,GND*%
X88700000Y-146100000D03*
D11*
X88700000Y-146100000D03*
%TD*%
D10*
%TO.P,H3,1,1*%
%TO.N,GND*%
X94300000Y-126600000D03*
D11*
X94300000Y-126600000D03*
%TD*%
D10*
%TO.P,H4,1,1*%
%TO.N,GND*%
X133700000Y-126600000D03*
D11*
X133700000Y-126600000D03*
%TD*%
D10*
%TO.P,H3,1,1*%
%TO.N,GND*%
X49300000Y-126600000D03*
D11*
X49300000Y-126600000D03*
%TD*%
D10*
%TO.P,H4,1,1*%
%TO.N,GND*%
X88700000Y-126600000D03*
D11*
X88700000Y-126600000D03*
%TD*%
D10*
%TO.P,H3,1,1*%
%TO.N,GND*%
X94300000Y-107100000D03*
D11*
X94300000Y-107100000D03*
%TD*%
D10*
%TO.P,H4,1,1*%
%TO.N,GND*%
X133700000Y-107100000D03*
D11*
X133700000Y-107100000D03*
%TD*%
D10*
%TO.P,H3,1,1*%
%TO.N,GND*%
X49300000Y-107100000D03*
D11*
X49300000Y-107100000D03*
%TD*%
D10*
%TO.P,H4,1,1*%
%TO.N,GND*%
X88700000Y-107100000D03*
D11*
X88700000Y-107100000D03*
%TD*%
D10*
%TO.P,H3,1,1*%
%TO.N,GND*%
X94300000Y-87600000D03*
D11*
X94300000Y-87600000D03*
%TD*%
D10*
%TO.P,H4,1,1*%
%TO.N,GND*%
X133700000Y-87600000D03*
D11*
X133700000Y-87600000D03*
%TD*%
D10*
%TO.P,H3,1,1*%
%TO.N,GND*%
X49300000Y-87600000D03*
D11*
X49300000Y-87600000D03*
%TD*%
D10*
%TO.P,H4,1,1*%
%TO.N,GND*%
X88700000Y-87600000D03*
D11*
X88700000Y-87600000D03*
%TD*%
%TA.AperFunction,Conductor*%
%TO.N,GND*%
G36*
X48192632Y-88619404D02*
G01*
X48375523Y-88787768D01*
X48430116Y-88823435D01*
X47539415Y-89714136D01*
X47539415Y-89714137D01*
X47734960Y-89867337D01*
X47734968Y-89867342D01*
X48019678Y-90039454D01*
X48019680Y-90039456D01*
X48323056Y-90175994D01*
X48323071Y-90176000D01*
X48583379Y-90257115D01*
X48641527Y-90295852D01*
X48669501Y-90359877D01*
X48658419Y-90428863D01*
X48611801Y-90480906D01*
X48546489Y-90499500D01*
X48504428Y-90499500D01*
X48495582Y-90499184D01*
X48473622Y-90497613D01*
X48295442Y-90484869D01*
X48277931Y-90482351D01*
X48086212Y-90440646D01*
X48069236Y-90435662D01*
X47885390Y-90367090D01*
X47869298Y-90359740D01*
X47697095Y-90265711D01*
X47682210Y-90256146D01*
X47525132Y-90138558D01*
X47511762Y-90126972D01*
X47373027Y-89988237D01*
X47361441Y-89974867D01*
X47280949Y-89867343D01*
X47243849Y-89817784D01*
X47234288Y-89802904D01*
X47140259Y-89630701D01*
X47132909Y-89614609D01*
X47101374Y-89530061D01*
X47096390Y-89460369D01*
X47129875Y-89399046D01*
X47168480Y-89377965D01*
X48076389Y-88470056D01*
X48192632Y-88619404D01*
G37*
%TD.AperFunction*%
%TA.AperFunction,Conductor*%
G36*
X89504418Y-72000816D02*
G01*
X89704561Y-72015130D01*
X89722063Y-72017647D01*
X89913797Y-72059355D01*
X89930755Y-72064334D01*
X90114609Y-72132909D01*
X90130701Y-72140259D01*
X90302904Y-72234288D01*
X90317784Y-72243849D01*
X90474867Y-72361441D01*
X90488237Y-72373027D01*
X90626972Y-72511762D01*
X90638558Y-72525132D01*
X90756146Y-72682210D01*
X90765711Y-72697095D01*
X90859740Y-72869298D01*
X90867090Y-72885390D01*
X90935662Y-73069236D01*
X90940646Y-73086212D01*
X90982351Y-73277931D01*
X90984869Y-73295442D01*
X90999184Y-73495580D01*
X90999500Y-73504427D01*
X90999500Y-85718900D01*
X90979815Y-85785939D01*
X90927011Y-85831694D01*
X90868014Y-85842674D01*
X90814136Y-85839415D01*
X89923609Y-86729942D01*
X89807368Y-86580596D01*
X89624477Y-86412232D01*
X89569882Y-86376563D01*
X90460583Y-85485862D01*
X90460583Y-85485861D01*
X90265039Y-85332662D01*
X90265031Y-85332657D01*
X89980321Y-85160545D01*
X89980319Y-85160543D01*
X89676943Y-85024005D01*
X89676928Y-85023999D01*
X89359329Y-84925032D01*
X89032076Y-84865060D01*
X88700000Y-84844974D01*
X88367923Y-84865060D01*
X88040670Y-84925032D01*
X87723071Y-85023999D01*
X87723056Y-85024005D01*
X87419680Y-85160543D01*
X87419678Y-85160545D01*
X87134968Y-85332657D01*
X86939415Y-85485862D01*
X87830117Y-86376564D01*
X87775523Y-86412232D01*
X87592632Y-86580596D01*
X87476389Y-86729942D01*
X86585862Y-85839415D01*
X86432657Y-86034968D01*
X86260545Y-86319678D01*
X86260543Y-86319680D01*
X86124005Y-86623056D01*
X86123999Y-86623071D01*
X86025032Y-86940670D01*
X85965060Y-87267923D01*
X85944974Y-87600000D01*
X85965060Y-87932076D01*
X86025032Y-88259329D01*
X86123999Y-88576928D01*
X86124005Y-88576943D01*
X86260543Y-88880319D01*
X86260545Y-88880321D01*
X86432657Y-89165031D01*
X86432662Y-89165039D01*
X86585862Y-89360583D01*
X87476389Y-88470056D01*
X87592632Y-88619404D01*
X87775523Y-88787768D01*
X87830116Y-88823435D01*
X86939415Y-89714136D01*
X86939415Y-89714137D01*
X87134960Y-89867337D01*
X87134968Y-89867342D01*
X87419678Y-90039454D01*
X87419680Y-90039456D01*
X87723056Y-90175994D01*
X87723071Y-90176000D01*
X87983379Y-90257115D01*
X88041527Y-90295852D01*
X88069501Y-90359877D01*
X88058419Y-90428863D01*
X88011801Y-90480906D01*
X87946489Y-90499500D01*
X50053511Y-90499500D01*
X49986472Y-90479815D01*
X49940717Y-90427011D01*
X49930773Y-90357853D01*
X49959798Y-90294297D01*
X50016621Y-90257115D01*
X50276928Y-90176000D01*
X50276943Y-90175994D01*
X50580319Y-90039456D01*
X50580321Y-90039454D01*
X50865030Y-89867343D01*
X51060583Y-89714137D01*
X51060583Y-89714136D01*
X50169882Y-88823435D01*
X50224477Y-88787768D01*
X50407368Y-88619404D01*
X50523610Y-88470057D01*
X51414136Y-89360583D01*
X51414137Y-89360583D01*
X51567343Y-89165030D01*
X51739454Y-88880321D01*
X51739456Y-88880319D01*
X51875994Y-88576943D01*
X51876000Y-88576928D01*
X51974967Y-88259329D01*
X52034939Y-87932076D01*
X52055025Y-87600000D01*
X52034939Y-87267923D01*
X51974967Y-86940670D01*
X51876000Y-86623071D01*
X51875994Y-86623056D01*
X51739456Y-86319680D01*
X51739454Y-86319678D01*
X51567342Y-86034968D01*
X51567337Y-86034960D01*
X51414136Y-85839415D01*
X50523609Y-86729942D01*
X50407368Y-86580596D01*
X50224477Y-86412232D01*
X50169882Y-86376563D01*
X51060583Y-85485862D01*
X51060583Y-85485861D01*
X50865039Y-85332662D01*
X50865031Y-85332657D01*
X50580321Y-85160545D01*
X50580319Y-85160543D01*
X50276943Y-85024005D01*
X50276928Y-85023999D01*
X49959329Y-84925032D01*
X49632076Y-84865060D01*
X49300000Y-84844974D01*
X48967923Y-84865060D01*
X48640670Y-84925032D01*
X48323071Y-85023999D01*
X48323056Y-85024005D01*
X48019680Y-85160543D01*
X48019678Y-85160545D01*
X47734968Y-85332657D01*
X47539415Y-85485862D01*
X48430117Y-86376564D01*
X48375523Y-86412232D01*
X48192632Y-86580596D01*
X48076389Y-86729942D01*
X47185862Y-85839415D01*
X47131986Y-85842674D01*
X47063881Y-85827073D01*
X47015021Y-85777127D01*
X47000500Y-85718900D01*
X47000500Y-79250002D01*
X47544726Y-79250002D01*
X47563808Y-79601954D01*
X47620833Y-79949793D01*
X47620834Y-79949796D01*
X47715126Y-80289408D01*
X47715127Y-80289410D01*
X47845588Y-80616844D01*
X47845597Y-80616862D01*
X47964235Y-80840637D01*
X48010695Y-80928269D01*
X48193661Y-81198124D01*
X48208498Y-81220006D01*
X48208505Y-81220016D01*
X48300455Y-81328267D01*
X48436686Y-81488650D01*
X48692580Y-81731046D01*
X48973182Y-81944354D01*
X49275202Y-82126074D01*
X49275206Y-82126075D01*
X49275210Y-82126078D01*
X49595088Y-82274070D01*
X49595092Y-82274070D01*
X49595099Y-82274074D01*
X49929122Y-82386619D01*
X50273355Y-82462391D01*
X50623763Y-82500500D01*
X50623769Y-82500500D01*
X50976231Y-82500500D01*
X50976237Y-82500500D01*
X51326645Y-82462391D01*
X51670878Y-82386619D01*
X52004901Y-82274074D01*
X52004908Y-82274070D01*
X52004911Y-82274070D01*
X52324789Y-82126078D01*
X52324798Y-82126074D01*
X52626818Y-81944354D01*
X52907420Y-81731046D01*
X53163314Y-81488650D01*
X53391501Y-81220008D01*
X53589305Y-80928269D01*
X53754407Y-80616854D01*
X53884871Y-80289414D01*
X53979168Y-79949788D01*
X54036191Y-79601957D01*
X54055274Y-79250002D01*
X83244726Y-79250002D01*
X83263808Y-79601954D01*
X83320833Y-79949793D01*
X83320834Y-79949796D01*
X83415126Y-80289408D01*
X83415127Y-80289410D01*
X83545588Y-80616844D01*
X83545597Y-80616862D01*
X83664235Y-80840637D01*
X83710695Y-80928269D01*
X83893661Y-81198124D01*
X83908498Y-81220006D01*
X83908505Y-81220016D01*
X84000455Y-81328267D01*
X84136686Y-81488650D01*
X84392580Y-81731046D01*
X84673182Y-81944354D01*
X84975202Y-82126074D01*
X84975206Y-82126075D01*
X84975210Y-82126078D01*
X85295088Y-82274070D01*
X85295092Y-82274070D01*
X85295099Y-82274074D01*
X85629122Y-82386619D01*
X85973355Y-82462391D01*
X86323763Y-82500500D01*
X86323769Y-82500500D01*
X86676231Y-82500500D01*
X86676237Y-82500500D01*
X87026645Y-82462391D01*
X87370878Y-82386619D01*
X87704901Y-82274074D01*
X87704908Y-82274070D01*
X87704911Y-82274070D01*
X88024789Y-82126078D01*
X88024798Y-82126074D01*
X88326818Y-81944354D01*
X88607420Y-81731046D01*
X88863314Y-81488650D01*
X89091501Y-81220008D01*
X89289305Y-80928269D01*
X89454407Y-80616854D01*
X89584871Y-80289414D01*
X89679168Y-79949788D01*
X89736191Y-79601957D01*
X89755274Y-79250000D01*
X89736191Y-78898043D01*
X89679168Y-78550212D01*
X89634450Y-78389154D01*
X89584873Y-78210591D01*
X89584872Y-78210589D01*
X89454411Y-77883155D01*
X89454402Y-77883137D01*
X89453052Y-77880591D01*
X89289305Y-77571731D01*
X89091501Y-77279992D01*
X89091497Y-77279987D01*
X89091494Y-77279983D01*
X88863314Y-77011350D01*
X88706591Y-76862894D01*
X88671458Y-76802500D01*
X88674553Y-76732699D01*
X88714895Y-76675652D01*
X88779674Y-76649472D01*
X88782590Y-76649218D01*
X88829036Y-76645738D01*
X88961621Y-76635803D01*
X88961622Y-76635802D01*
X88961630Y-76635802D01*
X89217416Y-76577420D01*
X89461643Y-76481568D01*
X89688857Y-76350386D01*
X89893981Y-76186805D01*
X90072433Y-75994479D01*
X90220228Y-75777704D01*
X90334063Y-75541323D01*
X90411396Y-75290615D01*
X90450500Y-75031182D01*
X90450500Y-74768818D01*
X90411396Y-74509385D01*
X90334063Y-74258677D01*
X90322121Y-74233880D01*
X90220232Y-74022303D01*
X90220231Y-74022302D01*
X90220230Y-74022301D01*
X90220228Y-74022296D01*
X90072433Y-73805521D01*
X90062441Y-73794753D01*
X89893985Y-73613198D01*
X89757590Y-73504427D01*
X89688857Y-73449614D01*
X89461643Y-73318432D01*
X89217416Y-73222580D01*
X89217411Y-73222578D01*
X89217402Y-73222576D01*
X88999818Y-73172914D01*
X88961630Y-73164198D01*
X88961629Y-73164197D01*
X88961625Y-73164197D01*
X88961620Y-73164196D01*
X88765515Y-73149500D01*
X88765494Y-73149500D01*
X88634506Y-73149500D01*
X88634484Y-73149500D01*
X88438379Y-73164196D01*
X88438374Y-73164197D01*
X88182597Y-73222576D01*
X88182578Y-73222582D01*
X87938356Y-73318432D01*
X87711143Y-73449614D01*
X87506014Y-73613198D01*
X87327567Y-73805520D01*
X87179768Y-74022302D01*
X87179767Y-74022303D01*
X87065938Y-74258673D01*
X86988606Y-74509376D01*
X86988605Y-74509381D01*
X86988604Y-74509385D01*
X86973853Y-74607247D01*
X86949500Y-74768812D01*
X86949500Y-75031187D01*
X86969794Y-75165823D01*
X86988604Y-75290615D01*
X86988605Y-75290617D01*
X86988606Y-75290623D01*
X87065938Y-75541326D01*
X87179767Y-75777696D01*
X87179768Y-75777697D01*
X87179770Y-75777700D01*
X87179772Y-75777704D01*
X87239325Y-75865052D01*
X87260825Y-75931531D01*
X87242971Y-75999081D01*
X87191431Y-76046255D01*
X87122568Y-76058075D01*
X87110215Y-76056004D01*
X87026644Y-76037608D01*
X86676238Y-75999500D01*
X86676237Y-75999500D01*
X86323763Y-75999500D01*
X86323761Y-75999500D01*
X85973356Y-76037608D01*
X85629119Y-76113381D01*
X85295093Y-76225928D01*
X85295088Y-76225929D01*
X84975210Y-76373921D01*
X84975197Y-76373928D01*
X84673184Y-76555644D01*
X84392589Y-76768946D01*
X84392580Y-76768954D01*
X84136685Y-77011350D01*
X83908505Y-77279983D01*
X83908498Y-77279993D01*
X83710695Y-77571730D01*
X83545597Y-77883137D01*
X83545588Y-77883155D01*
X83415127Y-78210589D01*
X83415126Y-78210591D01*
X83320834Y-78550203D01*
X83320833Y-78550206D01*
X83263808Y-78898045D01*
X83244726Y-79249997D01*
X83244726Y-79250002D01*
X54055274Y-79250002D01*
X54055274Y-79250000D01*
X54036191Y-78898043D01*
X53979168Y-78550212D01*
X53934450Y-78389154D01*
X53884873Y-78210591D01*
X53884872Y-78210589D01*
X53754411Y-77883155D01*
X53754402Y-77883137D01*
X53753052Y-77880591D01*
X53589305Y-77571731D01*
X53391501Y-77279992D01*
X53391497Y-77279987D01*
X53391494Y-77279983D01*
X53163314Y-77011350D01*
X53006591Y-76862894D01*
X52907420Y-76768954D01*
X52907413Y-76768948D01*
X52907410Y-76768946D01*
X52626815Y-76555644D01*
X52324802Y-76373928D01*
X52324789Y-76373921D01*
X52004911Y-76225929D01*
X52004906Y-76225928D01*
X52004903Y-76225927D01*
X52004901Y-76225926D01*
X51888782Y-76186801D01*
X51670880Y-76113381D01*
X51326643Y-76037608D01*
X50976238Y-75999500D01*
X50976237Y-75999500D01*
X50903629Y-75999500D01*
X50836590Y-75979815D01*
X50790835Y-75927011D01*
X50780891Y-75857853D01*
X50801176Y-75805648D01*
X50820228Y-75777704D01*
X50934063Y-75541323D01*
X51011396Y-75290615D01*
X51050500Y-75031182D01*
X51050500Y-74768818D01*
X51011396Y-74509385D01*
X50934063Y-74258677D01*
X50922121Y-74233880D01*
X50820232Y-74022303D01*
X50820231Y-74022302D01*
X50820230Y-74022301D01*
X50820228Y-74022296D01*
X50672433Y-73805521D01*
X50662441Y-73794753D01*
X50493985Y-73613198D01*
X50357590Y-73504427D01*
X50288857Y-73449614D01*
X50061643Y-73318432D01*
X49817416Y-73222580D01*
X49817411Y-73222578D01*
X49817402Y-73222576D01*
X49599818Y-73172914D01*
X49561630Y-73164198D01*
X49561629Y-73164197D01*
X49561625Y-73164197D01*
X49561620Y-73164196D01*
X49365515Y-73149500D01*
X49365494Y-73149500D01*
X49234506Y-73149500D01*
X49234484Y-73149500D01*
X49038379Y-73164196D01*
X49038374Y-73164197D01*
X48782597Y-73222576D01*
X48782578Y-73222582D01*
X48538356Y-73318432D01*
X48311143Y-73449614D01*
X48106014Y-73613198D01*
X47927567Y-73805520D01*
X47779768Y-74022302D01*
X47779767Y-74022303D01*
X47665938Y-74258673D01*
X47588606Y-74509376D01*
X47588605Y-74509381D01*
X47588604Y-74509385D01*
X47573853Y-74607247D01*
X47549500Y-74768812D01*
X47549500Y-75031187D01*
X47569794Y-75165823D01*
X47588604Y-75290615D01*
X47588605Y-75290617D01*
X47588606Y-75290623D01*
X47665938Y-75541326D01*
X47779767Y-75777696D01*
X47779768Y-75777697D01*
X47779770Y-75777700D01*
X47779772Y-75777704D01*
X47881568Y-75927011D01*
X47927567Y-75994479D01*
X48106014Y-76186801D01*
X48106018Y-76186804D01*
X48106019Y-76186805D01*
X48311143Y-76350386D01*
X48538357Y-76481568D01*
X48683996Y-76538727D01*
X48739210Y-76581543D01*
X48762511Y-76647413D01*
X48746500Y-76715423D01*
X48713738Y-76752869D01*
X48692587Y-76768948D01*
X48692580Y-76768954D01*
X48436685Y-77011350D01*
X48208505Y-77279983D01*
X48208498Y-77279993D01*
X48010695Y-77571730D01*
X47845597Y-77883137D01*
X47845588Y-77883155D01*
X47715127Y-78210589D01*
X47715126Y-78210591D01*
X47620834Y-78550203D01*
X47620833Y-78550206D01*
X47563808Y-78898045D01*
X47544726Y-79249997D01*
X47544726Y-79250002D01*
X47000500Y-79250002D01*
X47000500Y-73504427D01*
X47000816Y-73495581D01*
X47015130Y-73295443D01*
X47015131Y-73295442D01*
X47015130Y-73295436D01*
X47017646Y-73277938D01*
X47059356Y-73086199D01*
X47064333Y-73069248D01*
X47132911Y-72885385D01*
X47140259Y-72869298D01*
X47202815Y-72754734D01*
X47234291Y-72697089D01*
X47243845Y-72682221D01*
X47361448Y-72525123D01*
X47373020Y-72511769D01*
X47511769Y-72373020D01*
X47525123Y-72361448D01*
X47682221Y-72243845D01*
X47697089Y-72234291D01*
X47869298Y-72140258D01*
X47885385Y-72132911D01*
X48069248Y-72064333D01*
X48086199Y-72059356D01*
X48277938Y-72017646D01*
X48295436Y-72015130D01*
X48495582Y-72000816D01*
X48504428Y-72000500D01*
X48565892Y-72000500D01*
X89434108Y-72000500D01*
X89495572Y-72000500D01*
X89504418Y-72000816D01*
G37*
%TD.AperFunction*%
%TA.AperFunction,Conductor*%
G36*
X90828851Y-89375298D02*
G01*
X90843059Y-89378553D01*
X90891920Y-89428496D01*
X90906023Y-89496928D01*
X90898625Y-89530061D01*
X90867090Y-89614609D01*
X90859740Y-89630701D01*
X90765711Y-89802904D01*
X90756146Y-89817789D01*
X90638558Y-89974867D01*
X90626972Y-89988237D01*
X90488237Y-90126972D01*
X90474867Y-90138558D01*
X90317789Y-90256146D01*
X90302904Y-90265711D01*
X90130701Y-90359740D01*
X90114609Y-90367090D01*
X89930763Y-90435662D01*
X89913787Y-90440646D01*
X89722068Y-90482351D01*
X89704557Y-90484869D01*
X89523779Y-90497799D01*
X89504417Y-90499184D01*
X89495572Y-90499500D01*
X89453511Y-90499500D01*
X89386472Y-90479815D01*
X89340717Y-90427011D01*
X89330773Y-90357853D01*
X89359798Y-90294297D01*
X89416621Y-90257115D01*
X89676928Y-90176000D01*
X89676943Y-90175994D01*
X89980319Y-90039456D01*
X89980321Y-90039454D01*
X90265030Y-89867343D01*
X90460583Y-89714137D01*
X90460583Y-89714136D01*
X89569882Y-88823435D01*
X89624477Y-88787768D01*
X89807368Y-88619404D01*
X89923610Y-88470057D01*
X90828851Y-89375298D01*
G37*
%TD.AperFunction*%
%TD*%
%TA.AperFunction,Conductor*%
%TO.N,GND*%
G36*
X93192632Y-88619404D02*
G01*
X93375523Y-88787768D01*
X93430116Y-88823435D01*
X92539415Y-89714136D01*
X92539415Y-89714137D01*
X92734960Y-89867337D01*
X92734968Y-89867342D01*
X93019678Y-90039454D01*
X93019680Y-90039456D01*
X93323056Y-90175994D01*
X93323071Y-90176000D01*
X93583379Y-90257115D01*
X93641527Y-90295852D01*
X93669501Y-90359877D01*
X93658419Y-90428863D01*
X93611801Y-90480906D01*
X93546489Y-90499500D01*
X93504428Y-90499500D01*
X93495582Y-90499184D01*
X93473622Y-90497613D01*
X93295442Y-90484869D01*
X93277931Y-90482351D01*
X93086212Y-90440646D01*
X93069236Y-90435662D01*
X92885390Y-90367090D01*
X92869298Y-90359740D01*
X92697095Y-90265711D01*
X92682210Y-90256146D01*
X92525132Y-90138558D01*
X92511762Y-90126972D01*
X92373027Y-89988237D01*
X92361441Y-89974867D01*
X92280949Y-89867343D01*
X92243849Y-89817784D01*
X92234288Y-89802904D01*
X92140259Y-89630701D01*
X92132909Y-89614609D01*
X92101374Y-89530061D01*
X92096390Y-89460369D01*
X92129875Y-89399046D01*
X92168480Y-89377965D01*
X93076389Y-88470056D01*
X93192632Y-88619404D01*
G37*
%TD.AperFunction*%
%TA.AperFunction,Conductor*%
G36*
X134504418Y-72000816D02*
G01*
X134704561Y-72015130D01*
X134722063Y-72017647D01*
X134913797Y-72059355D01*
X134930755Y-72064334D01*
X135114609Y-72132909D01*
X135130701Y-72140259D01*
X135302904Y-72234288D01*
X135317784Y-72243849D01*
X135474867Y-72361441D01*
X135488237Y-72373027D01*
X135626972Y-72511762D01*
X135638558Y-72525132D01*
X135756146Y-72682210D01*
X135765711Y-72697095D01*
X135859740Y-72869298D01*
X135867090Y-72885390D01*
X135935662Y-73069236D01*
X135940646Y-73086212D01*
X135982351Y-73277931D01*
X135984869Y-73295442D01*
X135999184Y-73495580D01*
X135999500Y-73504427D01*
X135999500Y-85718900D01*
X135979815Y-85785939D01*
X135927011Y-85831694D01*
X135868014Y-85842674D01*
X135814136Y-85839415D01*
X134923609Y-86729942D01*
X134807368Y-86580596D01*
X134624477Y-86412232D01*
X134569882Y-86376563D01*
X135460583Y-85485862D01*
X135460583Y-85485861D01*
X135265039Y-85332662D01*
X135265031Y-85332657D01*
X134980321Y-85160545D01*
X134980319Y-85160543D01*
X134676943Y-85024005D01*
X134676928Y-85023999D01*
X134359329Y-84925032D01*
X134032076Y-84865060D01*
X133700000Y-84844974D01*
X133367923Y-84865060D01*
X133040670Y-84925032D01*
X132723071Y-85023999D01*
X132723056Y-85024005D01*
X132419680Y-85160543D01*
X132419678Y-85160545D01*
X132134968Y-85332657D01*
X131939415Y-85485862D01*
X132830117Y-86376564D01*
X132775523Y-86412232D01*
X132592632Y-86580596D01*
X132476389Y-86729942D01*
X131585862Y-85839415D01*
X131432657Y-86034968D01*
X131260545Y-86319678D01*
X131260543Y-86319680D01*
X131124005Y-86623056D01*
X131123999Y-86623071D01*
X131025032Y-86940670D01*
X130965060Y-87267923D01*
X130944974Y-87600000D01*
X130965060Y-87932076D01*
X131025032Y-88259329D01*
X131123999Y-88576928D01*
X131124005Y-88576943D01*
X131260543Y-88880319D01*
X131260545Y-88880321D01*
X131432657Y-89165031D01*
X131432662Y-89165039D01*
X131585862Y-89360583D01*
X132476389Y-88470056D01*
X132592632Y-88619404D01*
X132775523Y-88787768D01*
X132830116Y-88823435D01*
X131939415Y-89714136D01*
X131939415Y-89714137D01*
X132134960Y-89867337D01*
X132134968Y-89867342D01*
X132419678Y-90039454D01*
X132419680Y-90039456D01*
X132723056Y-90175994D01*
X132723071Y-90176000D01*
X132983379Y-90257115D01*
X133041527Y-90295852D01*
X133069501Y-90359877D01*
X133058419Y-90428863D01*
X133011801Y-90480906D01*
X132946489Y-90499500D01*
X95053511Y-90499500D01*
X94986472Y-90479815D01*
X94940717Y-90427011D01*
X94930773Y-90357853D01*
X94959798Y-90294297D01*
X95016621Y-90257115D01*
X95276928Y-90176000D01*
X95276943Y-90175994D01*
X95580319Y-90039456D01*
X95580321Y-90039454D01*
X95865030Y-89867343D01*
X96060583Y-89714137D01*
X96060583Y-89714136D01*
X95169882Y-88823435D01*
X95224477Y-88787768D01*
X95407368Y-88619404D01*
X95523610Y-88470057D01*
X96414136Y-89360583D01*
X96414137Y-89360583D01*
X96567343Y-89165030D01*
X96739454Y-88880321D01*
X96739456Y-88880319D01*
X96875994Y-88576943D01*
X96876000Y-88576928D01*
X96974967Y-88259329D01*
X97034939Y-87932076D01*
X97055025Y-87600000D01*
X97034939Y-87267923D01*
X96974967Y-86940670D01*
X96876000Y-86623071D01*
X96875994Y-86623056D01*
X96739456Y-86319680D01*
X96739454Y-86319678D01*
X96567342Y-86034968D01*
X96567337Y-86034960D01*
X96414136Y-85839415D01*
X95523609Y-86729942D01*
X95407368Y-86580596D01*
X95224477Y-86412232D01*
X95169882Y-86376563D01*
X96060583Y-85485862D01*
X96060583Y-85485861D01*
X95865039Y-85332662D01*
X95865031Y-85332657D01*
X95580321Y-85160545D01*
X95580319Y-85160543D01*
X95276943Y-85024005D01*
X95276928Y-85023999D01*
X94959329Y-84925032D01*
X94632076Y-84865060D01*
X94300000Y-84844974D01*
X93967923Y-84865060D01*
X93640670Y-84925032D01*
X93323071Y-85023999D01*
X93323056Y-85024005D01*
X93019680Y-85160543D01*
X93019678Y-85160545D01*
X92734968Y-85332657D01*
X92539415Y-85485862D01*
X93430117Y-86376564D01*
X93375523Y-86412232D01*
X93192632Y-86580596D01*
X93076389Y-86729942D01*
X92185862Y-85839415D01*
X92131986Y-85842674D01*
X92063881Y-85827073D01*
X92015021Y-85777127D01*
X92000500Y-85718900D01*
X92000500Y-79250002D01*
X92544726Y-79250002D01*
X92563808Y-79601954D01*
X92620833Y-79949793D01*
X92620834Y-79949796D01*
X92715126Y-80289408D01*
X92715127Y-80289410D01*
X92845588Y-80616844D01*
X92845597Y-80616862D01*
X92964235Y-80840637D01*
X93010695Y-80928269D01*
X93193661Y-81198124D01*
X93208498Y-81220006D01*
X93208505Y-81220016D01*
X93300455Y-81328267D01*
X93436686Y-81488650D01*
X93692580Y-81731046D01*
X93973182Y-81944354D01*
X94275202Y-82126074D01*
X94275206Y-82126075D01*
X94275210Y-82126078D01*
X94595088Y-82274070D01*
X94595092Y-82274070D01*
X94595099Y-82274074D01*
X94929122Y-82386619D01*
X95273355Y-82462391D01*
X95623763Y-82500500D01*
X95623769Y-82500500D01*
X95976231Y-82500500D01*
X95976237Y-82500500D01*
X96326645Y-82462391D01*
X96670878Y-82386619D01*
X97004901Y-82274074D01*
X97004908Y-82274070D01*
X97004911Y-82274070D01*
X97324789Y-82126078D01*
X97324798Y-82126074D01*
X97626818Y-81944354D01*
X97907420Y-81731046D01*
X98163314Y-81488650D01*
X98391501Y-81220008D01*
X98589305Y-80928269D01*
X98754407Y-80616854D01*
X98884871Y-80289414D01*
X98979168Y-79949788D01*
X99036191Y-79601957D01*
X99055274Y-79250002D01*
X128244726Y-79250002D01*
X128263808Y-79601954D01*
X128320833Y-79949793D01*
X128320834Y-79949796D01*
X128415126Y-80289408D01*
X128415127Y-80289410D01*
X128545588Y-80616844D01*
X128545597Y-80616862D01*
X128664235Y-80840637D01*
X128710695Y-80928269D01*
X128893661Y-81198124D01*
X128908498Y-81220006D01*
X128908505Y-81220016D01*
X129000455Y-81328267D01*
X129136686Y-81488650D01*
X129392580Y-81731046D01*
X129673182Y-81944354D01*
X129975202Y-82126074D01*
X129975206Y-82126075D01*
X129975210Y-82126078D01*
X130295088Y-82274070D01*
X130295092Y-82274070D01*
X130295099Y-82274074D01*
X130629122Y-82386619D01*
X130973355Y-82462391D01*
X131323763Y-82500500D01*
X131323769Y-82500500D01*
X131676231Y-82500500D01*
X131676237Y-82500500D01*
X132026645Y-82462391D01*
X132370878Y-82386619D01*
X132704901Y-82274074D01*
X132704908Y-82274070D01*
X132704911Y-82274070D01*
X133024789Y-82126078D01*
X133024798Y-82126074D01*
X133326818Y-81944354D01*
X133607420Y-81731046D01*
X133863314Y-81488650D01*
X134091501Y-81220008D01*
X134289305Y-80928269D01*
X134454407Y-80616854D01*
X134584871Y-80289414D01*
X134679168Y-79949788D01*
X134736191Y-79601957D01*
X134755274Y-79250000D01*
X134736191Y-78898043D01*
X134679168Y-78550212D01*
X134634450Y-78389154D01*
X134584873Y-78210591D01*
X134584872Y-78210589D01*
X134454411Y-77883155D01*
X134454402Y-77883137D01*
X134453052Y-77880591D01*
X134289305Y-77571731D01*
X134091501Y-77279992D01*
X134091497Y-77279987D01*
X134091494Y-77279983D01*
X133863314Y-77011350D01*
X133706591Y-76862894D01*
X133671458Y-76802500D01*
X133674553Y-76732699D01*
X133714895Y-76675652D01*
X133779674Y-76649472D01*
X133782590Y-76649218D01*
X133829036Y-76645738D01*
X133961621Y-76635803D01*
X133961622Y-76635802D01*
X133961630Y-76635802D01*
X134217416Y-76577420D01*
X134461643Y-76481568D01*
X134688857Y-76350386D01*
X134893981Y-76186805D01*
X135072433Y-75994479D01*
X135220228Y-75777704D01*
X135334063Y-75541323D01*
X135411396Y-75290615D01*
X135450500Y-75031182D01*
X135450500Y-74768818D01*
X135411396Y-74509385D01*
X135334063Y-74258677D01*
X135322121Y-74233880D01*
X135220232Y-74022303D01*
X135220231Y-74022302D01*
X135220230Y-74022301D01*
X135220228Y-74022296D01*
X135072433Y-73805521D01*
X135062441Y-73794753D01*
X134893985Y-73613198D01*
X134757590Y-73504427D01*
X134688857Y-73449614D01*
X134461643Y-73318432D01*
X134217416Y-73222580D01*
X134217411Y-73222578D01*
X134217402Y-73222576D01*
X133999818Y-73172914D01*
X133961630Y-73164198D01*
X133961629Y-73164197D01*
X133961625Y-73164197D01*
X133961620Y-73164196D01*
X133765515Y-73149500D01*
X133765494Y-73149500D01*
X133634506Y-73149500D01*
X133634484Y-73149500D01*
X133438379Y-73164196D01*
X133438374Y-73164197D01*
X133182597Y-73222576D01*
X133182578Y-73222582D01*
X132938356Y-73318432D01*
X132711143Y-73449614D01*
X132506014Y-73613198D01*
X132327567Y-73805520D01*
X132179768Y-74022302D01*
X132179767Y-74022303D01*
X132065938Y-74258673D01*
X131988606Y-74509376D01*
X131988605Y-74509381D01*
X131988604Y-74509385D01*
X131973853Y-74607247D01*
X131949500Y-74768812D01*
X131949500Y-75031187D01*
X131969794Y-75165823D01*
X131988604Y-75290615D01*
X131988605Y-75290617D01*
X131988606Y-75290623D01*
X132065938Y-75541326D01*
X132179767Y-75777696D01*
X132179768Y-75777697D01*
X132179770Y-75777700D01*
X132179772Y-75777704D01*
X132239325Y-75865052D01*
X132260825Y-75931531D01*
X132242971Y-75999081D01*
X132191431Y-76046255D01*
X132122568Y-76058075D01*
X132110215Y-76056004D01*
X132026644Y-76037608D01*
X131676238Y-75999500D01*
X131676237Y-75999500D01*
X131323763Y-75999500D01*
X131323761Y-75999500D01*
X130973356Y-76037608D01*
X130629119Y-76113381D01*
X130295093Y-76225928D01*
X130295088Y-76225929D01*
X129975210Y-76373921D01*
X129975197Y-76373928D01*
X129673184Y-76555644D01*
X129392589Y-76768946D01*
X129392580Y-76768954D01*
X129136685Y-77011350D01*
X128908505Y-77279983D01*
X128908498Y-77279993D01*
X128710695Y-77571730D01*
X128545597Y-77883137D01*
X128545588Y-77883155D01*
X128415127Y-78210589D01*
X128415126Y-78210591D01*
X128320834Y-78550203D01*
X128320833Y-78550206D01*
X128263808Y-78898045D01*
X128244726Y-79249997D01*
X128244726Y-79250002D01*
X99055274Y-79250002D01*
X99055274Y-79250000D01*
X99036191Y-78898043D01*
X98979168Y-78550212D01*
X98934450Y-78389154D01*
X98884873Y-78210591D01*
X98884872Y-78210589D01*
X98754411Y-77883155D01*
X98754402Y-77883137D01*
X98753052Y-77880591D01*
X98589305Y-77571731D01*
X98391501Y-77279992D01*
X98391497Y-77279987D01*
X98391494Y-77279983D01*
X98163314Y-77011350D01*
X98006591Y-76862894D01*
X97907420Y-76768954D01*
X97907413Y-76768948D01*
X97907410Y-76768946D01*
X97626815Y-76555644D01*
X97324802Y-76373928D01*
X97324789Y-76373921D01*
X97004911Y-76225929D01*
X97004906Y-76225928D01*
X97004903Y-76225927D01*
X97004901Y-76225926D01*
X96888782Y-76186801D01*
X96670880Y-76113381D01*
X96326643Y-76037608D01*
X95976238Y-75999500D01*
X95976237Y-75999500D01*
X95903629Y-75999500D01*
X95836590Y-75979815D01*
X95790835Y-75927011D01*
X95780891Y-75857853D01*
X95801176Y-75805648D01*
X95820228Y-75777704D01*
X95934063Y-75541323D01*
X96011396Y-75290615D01*
X96050500Y-75031182D01*
X96050500Y-74768818D01*
X96011396Y-74509385D01*
X95934063Y-74258677D01*
X95922121Y-74233880D01*
X95820232Y-74022303D01*
X95820231Y-74022302D01*
X95820230Y-74022301D01*
X95820228Y-74022296D01*
X95672433Y-73805521D01*
X95662441Y-73794753D01*
X95493985Y-73613198D01*
X95357590Y-73504427D01*
X95288857Y-73449614D01*
X95061643Y-73318432D01*
X94817416Y-73222580D01*
X94817411Y-73222578D01*
X94817402Y-73222576D01*
X94599818Y-73172914D01*
X94561630Y-73164198D01*
X94561629Y-73164197D01*
X94561625Y-73164197D01*
X94561620Y-73164196D01*
X94365515Y-73149500D01*
X94365494Y-73149500D01*
X94234506Y-73149500D01*
X94234484Y-73149500D01*
X94038379Y-73164196D01*
X94038374Y-73164197D01*
X93782597Y-73222576D01*
X93782578Y-73222582D01*
X93538356Y-73318432D01*
X93311143Y-73449614D01*
X93106014Y-73613198D01*
X92927567Y-73805520D01*
X92779768Y-74022302D01*
X92779767Y-74022303D01*
X92665938Y-74258673D01*
X92588606Y-74509376D01*
X92588605Y-74509381D01*
X92588604Y-74509385D01*
X92573853Y-74607247D01*
X92549500Y-74768812D01*
X92549500Y-75031187D01*
X92569794Y-75165823D01*
X92588604Y-75290615D01*
X92588605Y-75290617D01*
X92588606Y-75290623D01*
X92665938Y-75541326D01*
X92779767Y-75777696D01*
X92779768Y-75777697D01*
X92779770Y-75777700D01*
X92779772Y-75777704D01*
X92881568Y-75927011D01*
X92927567Y-75994479D01*
X93106014Y-76186801D01*
X93106018Y-76186804D01*
X93106019Y-76186805D01*
X93311143Y-76350386D01*
X93538357Y-76481568D01*
X93683996Y-76538727D01*
X93739210Y-76581543D01*
X93762511Y-76647413D01*
X93746500Y-76715423D01*
X93713738Y-76752869D01*
X93692587Y-76768948D01*
X93692580Y-76768954D01*
X93436685Y-77011350D01*
X93208505Y-77279983D01*
X93208498Y-77279993D01*
X93010695Y-77571730D01*
X92845597Y-77883137D01*
X92845588Y-77883155D01*
X92715127Y-78210589D01*
X92715126Y-78210591D01*
X92620834Y-78550203D01*
X92620833Y-78550206D01*
X92563808Y-78898045D01*
X92544726Y-79249997D01*
X92544726Y-79250002D01*
X92000500Y-79250002D01*
X92000500Y-73504427D01*
X92000816Y-73495581D01*
X92015130Y-73295443D01*
X92015131Y-73295442D01*
X92015130Y-73295436D01*
X92017646Y-73277938D01*
X92059356Y-73086199D01*
X92064333Y-73069248D01*
X92132911Y-72885385D01*
X92140259Y-72869298D01*
X92202815Y-72754734D01*
X92234291Y-72697089D01*
X92243845Y-72682221D01*
X92361448Y-72525123D01*
X92373020Y-72511769D01*
X92511769Y-72373020D01*
X92525123Y-72361448D01*
X92682221Y-72243845D01*
X92697089Y-72234291D01*
X92869298Y-72140258D01*
X92885385Y-72132911D01*
X93069248Y-72064333D01*
X93086199Y-72059356D01*
X93277938Y-72017646D01*
X93295436Y-72015130D01*
X93495582Y-72000816D01*
X93504428Y-72000500D01*
X93565892Y-72000500D01*
X134434108Y-72000500D01*
X134495572Y-72000500D01*
X134504418Y-72000816D01*
G37*
%TD.AperFunction*%
%TA.AperFunction,Conductor*%
G36*
X135828851Y-89375298D02*
G01*
X135843059Y-89378553D01*
X135891920Y-89428496D01*
X135906023Y-89496928D01*
X135898625Y-89530061D01*
X135867090Y-89614609D01*
X135859740Y-89630701D01*
X135765711Y-89802904D01*
X135756146Y-89817789D01*
X135638558Y-89974867D01*
X135626972Y-89988237D01*
X135488237Y-90126972D01*
X135474867Y-90138558D01*
X135317789Y-90256146D01*
X135302904Y-90265711D01*
X135130701Y-90359740D01*
X135114609Y-90367090D01*
X134930763Y-90435662D01*
X134913787Y-90440646D01*
X134722068Y-90482351D01*
X134704557Y-90484869D01*
X134523779Y-90497799D01*
X134504417Y-90499184D01*
X134495572Y-90499500D01*
X134453511Y-90499500D01*
X134386472Y-90479815D01*
X134340717Y-90427011D01*
X134330773Y-90357853D01*
X134359798Y-90294297D01*
X134416621Y-90257115D01*
X134676928Y-90176000D01*
X134676943Y-90175994D01*
X134980319Y-90039456D01*
X134980321Y-90039454D01*
X135265030Y-89867343D01*
X135460583Y-89714137D01*
X135460583Y-89714136D01*
X134569882Y-88823435D01*
X134624477Y-88787768D01*
X134807368Y-88619404D01*
X134923610Y-88470057D01*
X135828851Y-89375298D01*
G37*
%TD.AperFunction*%
%TD*%
%TA.AperFunction,Conductor*%
%TO.N,GND*%
G36*
X48192632Y-108119404D02*
G01*
X48375523Y-108287768D01*
X48430116Y-108323435D01*
X47539415Y-109214136D01*
X47539415Y-109214137D01*
X47734960Y-109367337D01*
X47734968Y-109367342D01*
X48019678Y-109539454D01*
X48019680Y-109539456D01*
X48323056Y-109675994D01*
X48323071Y-109676000D01*
X48583379Y-109757115D01*
X48641527Y-109795852D01*
X48669501Y-109859877D01*
X48658419Y-109928863D01*
X48611801Y-109980906D01*
X48546489Y-109999500D01*
X48504428Y-109999500D01*
X48495582Y-109999184D01*
X48473622Y-109997613D01*
X48295442Y-109984869D01*
X48277931Y-109982351D01*
X48086212Y-109940646D01*
X48069236Y-109935662D01*
X47885390Y-109867090D01*
X47869298Y-109859740D01*
X47697095Y-109765711D01*
X47682210Y-109756146D01*
X47525132Y-109638558D01*
X47511762Y-109626972D01*
X47373027Y-109488237D01*
X47361441Y-109474867D01*
X47280949Y-109367343D01*
X47243849Y-109317784D01*
X47234288Y-109302904D01*
X47140259Y-109130701D01*
X47132909Y-109114609D01*
X47101374Y-109030061D01*
X47096390Y-108960369D01*
X47129875Y-108899046D01*
X47168480Y-108877965D01*
X48076389Y-107970056D01*
X48192632Y-108119404D01*
G37*
%TD.AperFunction*%
%TA.AperFunction,Conductor*%
G36*
X89504418Y-91500816D02*
G01*
X89704561Y-91515130D01*
X89722063Y-91517647D01*
X89913797Y-91559355D01*
X89930755Y-91564334D01*
X90114609Y-91632909D01*
X90130701Y-91640259D01*
X90302904Y-91734288D01*
X90317784Y-91743849D01*
X90474867Y-91861441D01*
X90488237Y-91873027D01*
X90626972Y-92011762D01*
X90638558Y-92025132D01*
X90756146Y-92182210D01*
X90765711Y-92197095D01*
X90859740Y-92369298D01*
X90867090Y-92385390D01*
X90935662Y-92569236D01*
X90940646Y-92586212D01*
X90982351Y-92777931D01*
X90984869Y-92795442D01*
X90999184Y-92995580D01*
X90999500Y-93004427D01*
X90999500Y-105218900D01*
X90979815Y-105285939D01*
X90927011Y-105331694D01*
X90868014Y-105342674D01*
X90814136Y-105339415D01*
X89923609Y-106229942D01*
X89807368Y-106080596D01*
X89624477Y-105912232D01*
X89569882Y-105876563D01*
X90460583Y-104985862D01*
X90460583Y-104985861D01*
X90265039Y-104832662D01*
X90265031Y-104832657D01*
X89980321Y-104660545D01*
X89980319Y-104660543D01*
X89676943Y-104524005D01*
X89676928Y-104523999D01*
X89359329Y-104425032D01*
X89032076Y-104365060D01*
X88700000Y-104344974D01*
X88367923Y-104365060D01*
X88040670Y-104425032D01*
X87723071Y-104523999D01*
X87723056Y-104524005D01*
X87419680Y-104660543D01*
X87419678Y-104660545D01*
X87134968Y-104832657D01*
X86939415Y-104985862D01*
X87830117Y-105876564D01*
X87775523Y-105912232D01*
X87592632Y-106080596D01*
X87476389Y-106229942D01*
X86585862Y-105339415D01*
X86432657Y-105534968D01*
X86260545Y-105819678D01*
X86260543Y-105819680D01*
X86124005Y-106123056D01*
X86123999Y-106123071D01*
X86025032Y-106440670D01*
X85965060Y-106767923D01*
X85944974Y-107100000D01*
X85965060Y-107432076D01*
X86025032Y-107759329D01*
X86123999Y-108076928D01*
X86124005Y-108076943D01*
X86260543Y-108380319D01*
X86260545Y-108380321D01*
X86432657Y-108665031D01*
X86432662Y-108665039D01*
X86585862Y-108860583D01*
X87476389Y-107970056D01*
X87592632Y-108119404D01*
X87775523Y-108287768D01*
X87830116Y-108323435D01*
X86939415Y-109214136D01*
X86939415Y-109214137D01*
X87134960Y-109367337D01*
X87134968Y-109367342D01*
X87419678Y-109539454D01*
X87419680Y-109539456D01*
X87723056Y-109675994D01*
X87723071Y-109676000D01*
X87983379Y-109757115D01*
X88041527Y-109795852D01*
X88069501Y-109859877D01*
X88058419Y-109928863D01*
X88011801Y-109980906D01*
X87946489Y-109999500D01*
X50053511Y-109999500D01*
X49986472Y-109979815D01*
X49940717Y-109927011D01*
X49930773Y-109857853D01*
X49959798Y-109794297D01*
X50016621Y-109757115D01*
X50276928Y-109676000D01*
X50276943Y-109675994D01*
X50580319Y-109539456D01*
X50580321Y-109539454D01*
X50865030Y-109367343D01*
X51060583Y-109214137D01*
X51060583Y-109214136D01*
X50169882Y-108323435D01*
X50224477Y-108287768D01*
X50407368Y-108119404D01*
X50523610Y-107970057D01*
X51414136Y-108860583D01*
X51414137Y-108860583D01*
X51567343Y-108665030D01*
X51739454Y-108380321D01*
X51739456Y-108380319D01*
X51875994Y-108076943D01*
X51876000Y-108076928D01*
X51974967Y-107759329D01*
X52034939Y-107432076D01*
X52055025Y-107100000D01*
X52034939Y-106767923D01*
X51974967Y-106440670D01*
X51876000Y-106123071D01*
X51875994Y-106123056D01*
X51739456Y-105819680D01*
X51739454Y-105819678D01*
X51567342Y-105534968D01*
X51567337Y-105534960D01*
X51414136Y-105339415D01*
X50523609Y-106229942D01*
X50407368Y-106080596D01*
X50224477Y-105912232D01*
X50169882Y-105876563D01*
X51060583Y-104985862D01*
X51060583Y-104985861D01*
X50865039Y-104832662D01*
X50865031Y-104832657D01*
X50580321Y-104660545D01*
X50580319Y-104660543D01*
X50276943Y-104524005D01*
X50276928Y-104523999D01*
X49959329Y-104425032D01*
X49632076Y-104365060D01*
X49300000Y-104344974D01*
X48967923Y-104365060D01*
X48640670Y-104425032D01*
X48323071Y-104523999D01*
X48323056Y-104524005D01*
X48019680Y-104660543D01*
X48019678Y-104660545D01*
X47734968Y-104832657D01*
X47539415Y-104985862D01*
X48430117Y-105876564D01*
X48375523Y-105912232D01*
X48192632Y-106080596D01*
X48076389Y-106229942D01*
X47185862Y-105339415D01*
X47131986Y-105342674D01*
X47063881Y-105327073D01*
X47015021Y-105277127D01*
X47000500Y-105218900D01*
X47000500Y-98750002D01*
X47544726Y-98750002D01*
X47563808Y-99101954D01*
X47620833Y-99449793D01*
X47620834Y-99449796D01*
X47715126Y-99789408D01*
X47715127Y-99789410D01*
X47845588Y-100116844D01*
X47845597Y-100116862D01*
X47964235Y-100340637D01*
X48010695Y-100428269D01*
X48193661Y-100698124D01*
X48208498Y-100720006D01*
X48208505Y-100720016D01*
X48300455Y-100828267D01*
X48436686Y-100988650D01*
X48692580Y-101231046D01*
X48973182Y-101444354D01*
X49275202Y-101626074D01*
X49275206Y-101626075D01*
X49275210Y-101626078D01*
X49595088Y-101774070D01*
X49595092Y-101774070D01*
X49595099Y-101774074D01*
X49929122Y-101886619D01*
X50273355Y-101962391D01*
X50623763Y-102000500D01*
X50623769Y-102000500D01*
X50976231Y-102000500D01*
X50976237Y-102000500D01*
X51326645Y-101962391D01*
X51670878Y-101886619D01*
X52004901Y-101774074D01*
X52004908Y-101774070D01*
X52004911Y-101774070D01*
X52324789Y-101626078D01*
X52324798Y-101626074D01*
X52626818Y-101444354D01*
X52907420Y-101231046D01*
X53163314Y-100988650D01*
X53391501Y-100720008D01*
X53589305Y-100428269D01*
X53754407Y-100116854D01*
X53884871Y-99789414D01*
X53979168Y-99449788D01*
X54036191Y-99101957D01*
X54055274Y-98750002D01*
X83244726Y-98750002D01*
X83263808Y-99101954D01*
X83320833Y-99449793D01*
X83320834Y-99449796D01*
X83415126Y-99789408D01*
X83415127Y-99789410D01*
X83545588Y-100116844D01*
X83545597Y-100116862D01*
X83664235Y-100340637D01*
X83710695Y-100428269D01*
X83893661Y-100698124D01*
X83908498Y-100720006D01*
X83908505Y-100720016D01*
X84000455Y-100828267D01*
X84136686Y-100988650D01*
X84392580Y-101231046D01*
X84673182Y-101444354D01*
X84975202Y-101626074D01*
X84975206Y-101626075D01*
X84975210Y-101626078D01*
X85295088Y-101774070D01*
X85295092Y-101774070D01*
X85295099Y-101774074D01*
X85629122Y-101886619D01*
X85973355Y-101962391D01*
X86323763Y-102000500D01*
X86323769Y-102000500D01*
X86676231Y-102000500D01*
X86676237Y-102000500D01*
X87026645Y-101962391D01*
X87370878Y-101886619D01*
X87704901Y-101774074D01*
X87704908Y-101774070D01*
X87704911Y-101774070D01*
X88024789Y-101626078D01*
X88024798Y-101626074D01*
X88326818Y-101444354D01*
X88607420Y-101231046D01*
X88863314Y-100988650D01*
X89091501Y-100720008D01*
X89289305Y-100428269D01*
X89454407Y-100116854D01*
X89584871Y-99789414D01*
X89679168Y-99449788D01*
X89736191Y-99101957D01*
X89755274Y-98750000D01*
X89736191Y-98398043D01*
X89679168Y-98050212D01*
X89634450Y-97889154D01*
X89584873Y-97710591D01*
X89584872Y-97710589D01*
X89454411Y-97383155D01*
X89454402Y-97383137D01*
X89453052Y-97380591D01*
X89289305Y-97071731D01*
X89091501Y-96779992D01*
X89091497Y-96779987D01*
X89091494Y-96779983D01*
X88863314Y-96511350D01*
X88706591Y-96362894D01*
X88671458Y-96302500D01*
X88674553Y-96232699D01*
X88714895Y-96175652D01*
X88779674Y-96149472D01*
X88782590Y-96149218D01*
X88829036Y-96145738D01*
X88961621Y-96135803D01*
X88961622Y-96135802D01*
X88961630Y-96135802D01*
X89217416Y-96077420D01*
X89461643Y-95981568D01*
X89688857Y-95850386D01*
X89893981Y-95686805D01*
X90072433Y-95494479D01*
X90220228Y-95277704D01*
X90334063Y-95041323D01*
X90411396Y-94790615D01*
X90450500Y-94531182D01*
X90450500Y-94268818D01*
X90411396Y-94009385D01*
X90334063Y-93758677D01*
X90322121Y-93733880D01*
X90220232Y-93522303D01*
X90220231Y-93522302D01*
X90220230Y-93522301D01*
X90220228Y-93522296D01*
X90072433Y-93305521D01*
X90062441Y-93294753D01*
X89893985Y-93113198D01*
X89757590Y-93004427D01*
X89688857Y-92949614D01*
X89461643Y-92818432D01*
X89217416Y-92722580D01*
X89217411Y-92722578D01*
X89217402Y-92722576D01*
X88999818Y-92672914D01*
X88961630Y-92664198D01*
X88961629Y-92664197D01*
X88961625Y-92664197D01*
X88961620Y-92664196D01*
X88765515Y-92649500D01*
X88765494Y-92649500D01*
X88634506Y-92649500D01*
X88634484Y-92649500D01*
X88438379Y-92664196D01*
X88438374Y-92664197D01*
X88182597Y-92722576D01*
X88182578Y-92722582D01*
X87938356Y-92818432D01*
X87711143Y-92949614D01*
X87506014Y-93113198D01*
X87327567Y-93305520D01*
X87179768Y-93522302D01*
X87179767Y-93522303D01*
X87065938Y-93758673D01*
X86988606Y-94009376D01*
X86988605Y-94009381D01*
X86988604Y-94009385D01*
X86973853Y-94107247D01*
X86949500Y-94268812D01*
X86949500Y-94531187D01*
X86969794Y-94665823D01*
X86988604Y-94790615D01*
X86988605Y-94790617D01*
X86988606Y-94790623D01*
X87065938Y-95041326D01*
X87179767Y-95277696D01*
X87179768Y-95277697D01*
X87179770Y-95277700D01*
X87179772Y-95277704D01*
X87239325Y-95365052D01*
X87260825Y-95431531D01*
X87242971Y-95499081D01*
X87191431Y-95546255D01*
X87122568Y-95558075D01*
X87110215Y-95556004D01*
X87026644Y-95537608D01*
X86676238Y-95499500D01*
X86676237Y-95499500D01*
X86323763Y-95499500D01*
X86323761Y-95499500D01*
X85973356Y-95537608D01*
X85629119Y-95613381D01*
X85295093Y-95725928D01*
X85295088Y-95725929D01*
X84975210Y-95873921D01*
X84975197Y-95873928D01*
X84673184Y-96055644D01*
X84392589Y-96268946D01*
X84392580Y-96268954D01*
X84136685Y-96511350D01*
X83908505Y-96779983D01*
X83908498Y-96779993D01*
X83710695Y-97071730D01*
X83545597Y-97383137D01*
X83545588Y-97383155D01*
X83415127Y-97710589D01*
X83415126Y-97710591D01*
X83320834Y-98050203D01*
X83320833Y-98050206D01*
X83263808Y-98398045D01*
X83244726Y-98749997D01*
X83244726Y-98750002D01*
X54055274Y-98750002D01*
X54055274Y-98750000D01*
X54036191Y-98398043D01*
X53979168Y-98050212D01*
X53934450Y-97889154D01*
X53884873Y-97710591D01*
X53884872Y-97710589D01*
X53754411Y-97383155D01*
X53754402Y-97383137D01*
X53753052Y-97380591D01*
X53589305Y-97071731D01*
X53391501Y-96779992D01*
X53391497Y-96779987D01*
X53391494Y-96779983D01*
X53163314Y-96511350D01*
X53006591Y-96362894D01*
X52907420Y-96268954D01*
X52907413Y-96268948D01*
X52907410Y-96268946D01*
X52626815Y-96055644D01*
X52324802Y-95873928D01*
X52324789Y-95873921D01*
X52004911Y-95725929D01*
X52004906Y-95725928D01*
X52004903Y-95725927D01*
X52004901Y-95725926D01*
X51888782Y-95686801D01*
X51670880Y-95613381D01*
X51326643Y-95537608D01*
X50976238Y-95499500D01*
X50976237Y-95499500D01*
X50903629Y-95499500D01*
X50836590Y-95479815D01*
X50790835Y-95427011D01*
X50780891Y-95357853D01*
X50801176Y-95305648D01*
X50820228Y-95277704D01*
X50934063Y-95041323D01*
X51011396Y-94790615D01*
X51050500Y-94531182D01*
X51050500Y-94268818D01*
X51011396Y-94009385D01*
X50934063Y-93758677D01*
X50922121Y-93733880D01*
X50820232Y-93522303D01*
X50820231Y-93522302D01*
X50820230Y-93522301D01*
X50820228Y-93522296D01*
X50672433Y-93305521D01*
X50662441Y-93294753D01*
X50493985Y-93113198D01*
X50357590Y-93004427D01*
X50288857Y-92949614D01*
X50061643Y-92818432D01*
X49817416Y-92722580D01*
X49817411Y-92722578D01*
X49817402Y-92722576D01*
X49599818Y-92672914D01*
X49561630Y-92664198D01*
X49561629Y-92664197D01*
X49561625Y-92664197D01*
X49561620Y-92664196D01*
X49365515Y-92649500D01*
X49365494Y-92649500D01*
X49234506Y-92649500D01*
X49234484Y-92649500D01*
X49038379Y-92664196D01*
X49038374Y-92664197D01*
X48782597Y-92722576D01*
X48782578Y-92722582D01*
X48538356Y-92818432D01*
X48311143Y-92949614D01*
X48106014Y-93113198D01*
X47927567Y-93305520D01*
X47779768Y-93522302D01*
X47779767Y-93522303D01*
X47665938Y-93758673D01*
X47588606Y-94009376D01*
X47588605Y-94009381D01*
X47588604Y-94009385D01*
X47573853Y-94107247D01*
X47549500Y-94268812D01*
X47549500Y-94531187D01*
X47569794Y-94665823D01*
X47588604Y-94790615D01*
X47588605Y-94790617D01*
X47588606Y-94790623D01*
X47665938Y-95041326D01*
X47779767Y-95277696D01*
X47779768Y-95277697D01*
X47779770Y-95277700D01*
X47779772Y-95277704D01*
X47881568Y-95427011D01*
X47927567Y-95494479D01*
X48106014Y-95686801D01*
X48106018Y-95686804D01*
X48106019Y-95686805D01*
X48311143Y-95850386D01*
X48538357Y-95981568D01*
X48683996Y-96038727D01*
X48739210Y-96081543D01*
X48762511Y-96147413D01*
X48746500Y-96215423D01*
X48713738Y-96252869D01*
X48692587Y-96268948D01*
X48692580Y-96268954D01*
X48436685Y-96511350D01*
X48208505Y-96779983D01*
X48208498Y-96779993D01*
X48010695Y-97071730D01*
X47845597Y-97383137D01*
X47845588Y-97383155D01*
X47715127Y-97710589D01*
X47715126Y-97710591D01*
X47620834Y-98050203D01*
X47620833Y-98050206D01*
X47563808Y-98398045D01*
X47544726Y-98749997D01*
X47544726Y-98750002D01*
X47000500Y-98750002D01*
X47000500Y-93004427D01*
X47000816Y-92995581D01*
X47015130Y-92795443D01*
X47015131Y-92795442D01*
X47015130Y-92795436D01*
X47017646Y-92777938D01*
X47059356Y-92586199D01*
X47064333Y-92569248D01*
X47132911Y-92385385D01*
X47140259Y-92369298D01*
X47202815Y-92254734D01*
X47234291Y-92197089D01*
X47243845Y-92182221D01*
X47361448Y-92025123D01*
X47373020Y-92011769D01*
X47511769Y-91873020D01*
X47525123Y-91861448D01*
X47682221Y-91743845D01*
X47697089Y-91734291D01*
X47869298Y-91640258D01*
X47885385Y-91632911D01*
X48069248Y-91564333D01*
X48086199Y-91559356D01*
X48277938Y-91517646D01*
X48295436Y-91515130D01*
X48495582Y-91500816D01*
X48504428Y-91500500D01*
X48565892Y-91500500D01*
X89434108Y-91500500D01*
X89495572Y-91500500D01*
X89504418Y-91500816D01*
G37*
%TD.AperFunction*%
%TA.AperFunction,Conductor*%
G36*
X90828851Y-108875298D02*
G01*
X90843059Y-108878553D01*
X90891920Y-108928496D01*
X90906023Y-108996928D01*
X90898625Y-109030061D01*
X90867090Y-109114609D01*
X90859740Y-109130701D01*
X90765711Y-109302904D01*
X90756146Y-109317789D01*
X90638558Y-109474867D01*
X90626972Y-109488237D01*
X90488237Y-109626972D01*
X90474867Y-109638558D01*
X90317789Y-109756146D01*
X90302904Y-109765711D01*
X90130701Y-109859740D01*
X90114609Y-109867090D01*
X89930763Y-109935662D01*
X89913787Y-109940646D01*
X89722068Y-109982351D01*
X89704557Y-109984869D01*
X89523779Y-109997799D01*
X89504417Y-109999184D01*
X89495572Y-109999500D01*
X89453511Y-109999500D01*
X89386472Y-109979815D01*
X89340717Y-109927011D01*
X89330773Y-109857853D01*
X89359798Y-109794297D01*
X89416621Y-109757115D01*
X89676928Y-109676000D01*
X89676943Y-109675994D01*
X89980319Y-109539456D01*
X89980321Y-109539454D01*
X90265030Y-109367343D01*
X90460583Y-109214137D01*
X90460583Y-109214136D01*
X89569882Y-108323435D01*
X89624477Y-108287768D01*
X89807368Y-108119404D01*
X89923610Y-107970057D01*
X90828851Y-108875298D01*
G37*
%TD.AperFunction*%
%TD*%
%TA.AperFunction,Conductor*%
%TO.N,GND*%
G36*
X93192632Y-108119404D02*
G01*
X93375523Y-108287768D01*
X93430116Y-108323435D01*
X92539415Y-109214136D01*
X92539415Y-109214137D01*
X92734960Y-109367337D01*
X92734968Y-109367342D01*
X93019678Y-109539454D01*
X93019680Y-109539456D01*
X93323056Y-109675994D01*
X93323071Y-109676000D01*
X93583379Y-109757115D01*
X93641527Y-109795852D01*
X93669501Y-109859877D01*
X93658419Y-109928863D01*
X93611801Y-109980906D01*
X93546489Y-109999500D01*
X93504428Y-109999500D01*
X93495582Y-109999184D01*
X93473622Y-109997613D01*
X93295442Y-109984869D01*
X93277931Y-109982351D01*
X93086212Y-109940646D01*
X93069236Y-109935662D01*
X92885390Y-109867090D01*
X92869298Y-109859740D01*
X92697095Y-109765711D01*
X92682210Y-109756146D01*
X92525132Y-109638558D01*
X92511762Y-109626972D01*
X92373027Y-109488237D01*
X92361441Y-109474867D01*
X92280949Y-109367343D01*
X92243849Y-109317784D01*
X92234288Y-109302904D01*
X92140259Y-109130701D01*
X92132909Y-109114609D01*
X92101374Y-109030061D01*
X92096390Y-108960369D01*
X92129875Y-108899046D01*
X92168480Y-108877965D01*
X93076389Y-107970056D01*
X93192632Y-108119404D01*
G37*
%TD.AperFunction*%
%TA.AperFunction,Conductor*%
G36*
X134504418Y-91500816D02*
G01*
X134704561Y-91515130D01*
X134722063Y-91517647D01*
X134913797Y-91559355D01*
X134930755Y-91564334D01*
X135114609Y-91632909D01*
X135130701Y-91640259D01*
X135302904Y-91734288D01*
X135317784Y-91743849D01*
X135474867Y-91861441D01*
X135488237Y-91873027D01*
X135626972Y-92011762D01*
X135638558Y-92025132D01*
X135756146Y-92182210D01*
X135765711Y-92197095D01*
X135859740Y-92369298D01*
X135867090Y-92385390D01*
X135935662Y-92569236D01*
X135940646Y-92586212D01*
X135982351Y-92777931D01*
X135984869Y-92795442D01*
X135999184Y-92995580D01*
X135999500Y-93004427D01*
X135999500Y-105218900D01*
X135979815Y-105285939D01*
X135927011Y-105331694D01*
X135868014Y-105342674D01*
X135814136Y-105339415D01*
X134923609Y-106229942D01*
X134807368Y-106080596D01*
X134624477Y-105912232D01*
X134569882Y-105876563D01*
X135460583Y-104985862D01*
X135460583Y-104985861D01*
X135265039Y-104832662D01*
X135265031Y-104832657D01*
X134980321Y-104660545D01*
X134980319Y-104660543D01*
X134676943Y-104524005D01*
X134676928Y-104523999D01*
X134359329Y-104425032D01*
X134032076Y-104365060D01*
X133700000Y-104344974D01*
X133367923Y-104365060D01*
X133040670Y-104425032D01*
X132723071Y-104523999D01*
X132723056Y-104524005D01*
X132419680Y-104660543D01*
X132419678Y-104660545D01*
X132134968Y-104832657D01*
X131939415Y-104985862D01*
X132830117Y-105876564D01*
X132775523Y-105912232D01*
X132592632Y-106080596D01*
X132476389Y-106229942D01*
X131585862Y-105339415D01*
X131432657Y-105534968D01*
X131260545Y-105819678D01*
X131260543Y-105819680D01*
X131124005Y-106123056D01*
X131123999Y-106123071D01*
X131025032Y-106440670D01*
X130965060Y-106767923D01*
X130944974Y-107100000D01*
X130965060Y-107432076D01*
X131025032Y-107759329D01*
X131123999Y-108076928D01*
X131124005Y-108076943D01*
X131260543Y-108380319D01*
X131260545Y-108380321D01*
X131432657Y-108665031D01*
X131432662Y-108665039D01*
X131585862Y-108860583D01*
X132476389Y-107970056D01*
X132592632Y-108119404D01*
X132775523Y-108287768D01*
X132830116Y-108323435D01*
X131939415Y-109214136D01*
X131939415Y-109214137D01*
X132134960Y-109367337D01*
X132134968Y-109367342D01*
X132419678Y-109539454D01*
X132419680Y-109539456D01*
X132723056Y-109675994D01*
X132723071Y-109676000D01*
X132983379Y-109757115D01*
X133041527Y-109795852D01*
X133069501Y-109859877D01*
X133058419Y-109928863D01*
X133011801Y-109980906D01*
X132946489Y-109999500D01*
X95053511Y-109999500D01*
X94986472Y-109979815D01*
X94940717Y-109927011D01*
X94930773Y-109857853D01*
X94959798Y-109794297D01*
X95016621Y-109757115D01*
X95276928Y-109676000D01*
X95276943Y-109675994D01*
X95580319Y-109539456D01*
X95580321Y-109539454D01*
X95865030Y-109367343D01*
X96060583Y-109214137D01*
X96060583Y-109214136D01*
X95169882Y-108323435D01*
X95224477Y-108287768D01*
X95407368Y-108119404D01*
X95523610Y-107970057D01*
X96414136Y-108860583D01*
X96414137Y-108860583D01*
X96567343Y-108665030D01*
X96739454Y-108380321D01*
X96739456Y-108380319D01*
X96875994Y-108076943D01*
X96876000Y-108076928D01*
X96974967Y-107759329D01*
X97034939Y-107432076D01*
X97055025Y-107100000D01*
X97034939Y-106767923D01*
X96974967Y-106440670D01*
X96876000Y-106123071D01*
X96875994Y-106123056D01*
X96739456Y-105819680D01*
X96739454Y-105819678D01*
X96567342Y-105534968D01*
X96567337Y-105534960D01*
X96414136Y-105339415D01*
X95523609Y-106229942D01*
X95407368Y-106080596D01*
X95224477Y-105912232D01*
X95169882Y-105876563D01*
X96060583Y-104985862D01*
X96060583Y-104985861D01*
X95865039Y-104832662D01*
X95865031Y-104832657D01*
X95580321Y-104660545D01*
X95580319Y-104660543D01*
X95276943Y-104524005D01*
X95276928Y-104523999D01*
X94959329Y-104425032D01*
X94632076Y-104365060D01*
X94300000Y-104344974D01*
X93967923Y-104365060D01*
X93640670Y-104425032D01*
X93323071Y-104523999D01*
X93323056Y-104524005D01*
X93019680Y-104660543D01*
X93019678Y-104660545D01*
X92734968Y-104832657D01*
X92539415Y-104985862D01*
X93430117Y-105876564D01*
X93375523Y-105912232D01*
X93192632Y-106080596D01*
X93076389Y-106229942D01*
X92185862Y-105339415D01*
X92131986Y-105342674D01*
X92063881Y-105327073D01*
X92015021Y-105277127D01*
X92000500Y-105218900D01*
X92000500Y-98750002D01*
X92544726Y-98750002D01*
X92563808Y-99101954D01*
X92620833Y-99449793D01*
X92620834Y-99449796D01*
X92715126Y-99789408D01*
X92715127Y-99789410D01*
X92845588Y-100116844D01*
X92845597Y-100116862D01*
X92964235Y-100340637D01*
X93010695Y-100428269D01*
X93193661Y-100698124D01*
X93208498Y-100720006D01*
X93208505Y-100720016D01*
X93300455Y-100828267D01*
X93436686Y-100988650D01*
X93692580Y-101231046D01*
X93973182Y-101444354D01*
X94275202Y-101626074D01*
X94275206Y-101626075D01*
X94275210Y-101626078D01*
X94595088Y-101774070D01*
X94595092Y-101774070D01*
X94595099Y-101774074D01*
X94929122Y-101886619D01*
X95273355Y-101962391D01*
X95623763Y-102000500D01*
X95623769Y-102000500D01*
X95976231Y-102000500D01*
X95976237Y-102000500D01*
X96326645Y-101962391D01*
X96670878Y-101886619D01*
X97004901Y-101774074D01*
X97004908Y-101774070D01*
X97004911Y-101774070D01*
X97324789Y-101626078D01*
X97324798Y-101626074D01*
X97626818Y-101444354D01*
X97907420Y-101231046D01*
X98163314Y-100988650D01*
X98391501Y-100720008D01*
X98589305Y-100428269D01*
X98754407Y-100116854D01*
X98884871Y-99789414D01*
X98979168Y-99449788D01*
X99036191Y-99101957D01*
X99055274Y-98750002D01*
X128244726Y-98750002D01*
X128263808Y-99101954D01*
X128320833Y-99449793D01*
X128320834Y-99449796D01*
X128415126Y-99789408D01*
X128415127Y-99789410D01*
X128545588Y-100116844D01*
X128545597Y-100116862D01*
X128664235Y-100340637D01*
X128710695Y-100428269D01*
X128893661Y-100698124D01*
X128908498Y-100720006D01*
X128908505Y-100720016D01*
X129000455Y-100828267D01*
X129136686Y-100988650D01*
X129392580Y-101231046D01*
X129673182Y-101444354D01*
X129975202Y-101626074D01*
X129975206Y-101626075D01*
X129975210Y-101626078D01*
X130295088Y-101774070D01*
X130295092Y-101774070D01*
X130295099Y-101774074D01*
X130629122Y-101886619D01*
X130973355Y-101962391D01*
X131323763Y-102000500D01*
X131323769Y-102000500D01*
X131676231Y-102000500D01*
X131676237Y-102000500D01*
X132026645Y-101962391D01*
X132370878Y-101886619D01*
X132704901Y-101774074D01*
X132704908Y-101774070D01*
X132704911Y-101774070D01*
X133024789Y-101626078D01*
X133024798Y-101626074D01*
X133326818Y-101444354D01*
X133607420Y-101231046D01*
X133863314Y-100988650D01*
X134091501Y-100720008D01*
X134289305Y-100428269D01*
X134454407Y-100116854D01*
X134584871Y-99789414D01*
X134679168Y-99449788D01*
X134736191Y-99101957D01*
X134755274Y-98750000D01*
X134736191Y-98398043D01*
X134679168Y-98050212D01*
X134634450Y-97889154D01*
X134584873Y-97710591D01*
X134584872Y-97710589D01*
X134454411Y-97383155D01*
X134454402Y-97383137D01*
X134453052Y-97380591D01*
X134289305Y-97071731D01*
X134091501Y-96779992D01*
X134091497Y-96779987D01*
X134091494Y-96779983D01*
X133863314Y-96511350D01*
X133706591Y-96362894D01*
X133671458Y-96302500D01*
X133674553Y-96232699D01*
X133714895Y-96175652D01*
X133779674Y-96149472D01*
X133782590Y-96149218D01*
X133829036Y-96145738D01*
X133961621Y-96135803D01*
X133961622Y-96135802D01*
X133961630Y-96135802D01*
X134217416Y-96077420D01*
X134461643Y-95981568D01*
X134688857Y-95850386D01*
X134893981Y-95686805D01*
X135072433Y-95494479D01*
X135220228Y-95277704D01*
X135334063Y-95041323D01*
X135411396Y-94790615D01*
X135450500Y-94531182D01*
X135450500Y-94268818D01*
X135411396Y-94009385D01*
X135334063Y-93758677D01*
X135322121Y-93733880D01*
X135220232Y-93522303D01*
X135220231Y-93522302D01*
X135220230Y-93522301D01*
X135220228Y-93522296D01*
X135072433Y-93305521D01*
X135062441Y-93294753D01*
X134893985Y-93113198D01*
X134757590Y-93004427D01*
X134688857Y-92949614D01*
X134461643Y-92818432D01*
X134217416Y-92722580D01*
X134217411Y-92722578D01*
X134217402Y-92722576D01*
X133999818Y-92672914D01*
X133961630Y-92664198D01*
X133961629Y-92664197D01*
X133961625Y-92664197D01*
X133961620Y-92664196D01*
X133765515Y-92649500D01*
X133765494Y-92649500D01*
X133634506Y-92649500D01*
X133634484Y-92649500D01*
X133438379Y-92664196D01*
X133438374Y-92664197D01*
X133182597Y-92722576D01*
X133182578Y-92722582D01*
X132938356Y-92818432D01*
X132711143Y-92949614D01*
X132506014Y-93113198D01*
X132327567Y-93305520D01*
X132179768Y-93522302D01*
X132179767Y-93522303D01*
X132065938Y-93758673D01*
X131988606Y-94009376D01*
X131988605Y-94009381D01*
X131988604Y-94009385D01*
X131973853Y-94107247D01*
X131949500Y-94268812D01*
X131949500Y-94531187D01*
X131969794Y-94665823D01*
X131988604Y-94790615D01*
X131988605Y-94790617D01*
X131988606Y-94790623D01*
X132065938Y-95041326D01*
X132179767Y-95277696D01*
X132179768Y-95277697D01*
X132179770Y-95277700D01*
X132179772Y-95277704D01*
X132239325Y-95365052D01*
X132260825Y-95431531D01*
X132242971Y-95499081D01*
X132191431Y-95546255D01*
X132122568Y-95558075D01*
X132110215Y-95556004D01*
X132026644Y-95537608D01*
X131676238Y-95499500D01*
X131676237Y-95499500D01*
X131323763Y-95499500D01*
X131323761Y-95499500D01*
X130973356Y-95537608D01*
X130629119Y-95613381D01*
X130295093Y-95725928D01*
X130295088Y-95725929D01*
X129975210Y-95873921D01*
X129975197Y-95873928D01*
X129673184Y-96055644D01*
X129392589Y-96268946D01*
X129392580Y-96268954D01*
X129136685Y-96511350D01*
X128908505Y-96779983D01*
X128908498Y-96779993D01*
X128710695Y-97071730D01*
X128545597Y-97383137D01*
X128545588Y-97383155D01*
X128415127Y-97710589D01*
X128415126Y-97710591D01*
X128320834Y-98050203D01*
X128320833Y-98050206D01*
X128263808Y-98398045D01*
X128244726Y-98749997D01*
X128244726Y-98750002D01*
X99055274Y-98750002D01*
X99055274Y-98750000D01*
X99036191Y-98398043D01*
X98979168Y-98050212D01*
X98934450Y-97889154D01*
X98884873Y-97710591D01*
X98884872Y-97710589D01*
X98754411Y-97383155D01*
X98754402Y-97383137D01*
X98753052Y-97380591D01*
X98589305Y-97071731D01*
X98391501Y-96779992D01*
X98391497Y-96779987D01*
X98391494Y-96779983D01*
X98163314Y-96511350D01*
X98006591Y-96362894D01*
X97907420Y-96268954D01*
X97907413Y-96268948D01*
X97907410Y-96268946D01*
X97626815Y-96055644D01*
X97324802Y-95873928D01*
X97324789Y-95873921D01*
X97004911Y-95725929D01*
X97004906Y-95725928D01*
X97004903Y-95725927D01*
X97004901Y-95725926D01*
X96888782Y-95686801D01*
X96670880Y-95613381D01*
X96326643Y-95537608D01*
X95976238Y-95499500D01*
X95976237Y-95499500D01*
X95903629Y-95499500D01*
X95836590Y-95479815D01*
X95790835Y-95427011D01*
X95780891Y-95357853D01*
X95801176Y-95305648D01*
X95820228Y-95277704D01*
X95934063Y-95041323D01*
X96011396Y-94790615D01*
X96050500Y-94531182D01*
X96050500Y-94268818D01*
X96011396Y-94009385D01*
X95934063Y-93758677D01*
X95922121Y-93733880D01*
X95820232Y-93522303D01*
X95820231Y-93522302D01*
X95820230Y-93522301D01*
X95820228Y-93522296D01*
X95672433Y-93305521D01*
X95662441Y-93294753D01*
X95493985Y-93113198D01*
X95357590Y-93004427D01*
X95288857Y-92949614D01*
X95061643Y-92818432D01*
X94817416Y-92722580D01*
X94817411Y-92722578D01*
X94817402Y-92722576D01*
X94599818Y-92672914D01*
X94561630Y-92664198D01*
X94561629Y-92664197D01*
X94561625Y-92664197D01*
X94561620Y-92664196D01*
X94365515Y-92649500D01*
X94365494Y-92649500D01*
X94234506Y-92649500D01*
X94234484Y-92649500D01*
X94038379Y-92664196D01*
X94038374Y-92664197D01*
X93782597Y-92722576D01*
X93782578Y-92722582D01*
X93538356Y-92818432D01*
X93311143Y-92949614D01*
X93106014Y-93113198D01*
X92927567Y-93305520D01*
X92779768Y-93522302D01*
X92779767Y-93522303D01*
X92665938Y-93758673D01*
X92588606Y-94009376D01*
X92588605Y-94009381D01*
X92588604Y-94009385D01*
X92573853Y-94107247D01*
X92549500Y-94268812D01*
X92549500Y-94531187D01*
X92569794Y-94665823D01*
X92588604Y-94790615D01*
X92588605Y-94790617D01*
X92588606Y-94790623D01*
X92665938Y-95041326D01*
X92779767Y-95277696D01*
X92779768Y-95277697D01*
X92779770Y-95277700D01*
X92779772Y-95277704D01*
X92881568Y-95427011D01*
X92927567Y-95494479D01*
X93106014Y-95686801D01*
X93106018Y-95686804D01*
X93106019Y-95686805D01*
X93311143Y-95850386D01*
X93538357Y-95981568D01*
X93683996Y-96038727D01*
X93739210Y-96081543D01*
X93762511Y-96147413D01*
X93746500Y-96215423D01*
X93713738Y-96252869D01*
X93692587Y-96268948D01*
X93692580Y-96268954D01*
X93436685Y-96511350D01*
X93208505Y-96779983D01*
X93208498Y-96779993D01*
X93010695Y-97071730D01*
X92845597Y-97383137D01*
X92845588Y-97383155D01*
X92715127Y-97710589D01*
X92715126Y-97710591D01*
X92620834Y-98050203D01*
X92620833Y-98050206D01*
X92563808Y-98398045D01*
X92544726Y-98749997D01*
X92544726Y-98750002D01*
X92000500Y-98750002D01*
X92000500Y-93004427D01*
X92000816Y-92995581D01*
X92015130Y-92795443D01*
X92015131Y-92795442D01*
X92015130Y-92795436D01*
X92017646Y-92777938D01*
X92059356Y-92586199D01*
X92064333Y-92569248D01*
X92132911Y-92385385D01*
X92140259Y-92369298D01*
X92202815Y-92254734D01*
X92234291Y-92197089D01*
X92243845Y-92182221D01*
X92361448Y-92025123D01*
X92373020Y-92011769D01*
X92511769Y-91873020D01*
X92525123Y-91861448D01*
X92682221Y-91743845D01*
X92697089Y-91734291D01*
X92869298Y-91640258D01*
X92885385Y-91632911D01*
X93069248Y-91564333D01*
X93086199Y-91559356D01*
X93277938Y-91517646D01*
X93295436Y-91515130D01*
X93495582Y-91500816D01*
X93504428Y-91500500D01*
X93565892Y-91500500D01*
X134434108Y-91500500D01*
X134495572Y-91500500D01*
X134504418Y-91500816D01*
G37*
%TD.AperFunction*%
%TA.AperFunction,Conductor*%
G36*
X135828851Y-108875298D02*
G01*
X135843059Y-108878553D01*
X135891920Y-108928496D01*
X135906023Y-108996928D01*
X135898625Y-109030061D01*
X135867090Y-109114609D01*
X135859740Y-109130701D01*
X135765711Y-109302904D01*
X135756146Y-109317789D01*
X135638558Y-109474867D01*
X135626972Y-109488237D01*
X135488237Y-109626972D01*
X135474867Y-109638558D01*
X135317789Y-109756146D01*
X135302904Y-109765711D01*
X135130701Y-109859740D01*
X135114609Y-109867090D01*
X134930763Y-109935662D01*
X134913787Y-109940646D01*
X134722068Y-109982351D01*
X134704557Y-109984869D01*
X134523779Y-109997799D01*
X134504417Y-109999184D01*
X134495572Y-109999500D01*
X134453511Y-109999500D01*
X134386472Y-109979815D01*
X134340717Y-109927011D01*
X134330773Y-109857853D01*
X134359798Y-109794297D01*
X134416621Y-109757115D01*
X134676928Y-109676000D01*
X134676943Y-109675994D01*
X134980319Y-109539456D01*
X134980321Y-109539454D01*
X135265030Y-109367343D01*
X135460583Y-109214137D01*
X135460583Y-109214136D01*
X134569882Y-108323435D01*
X134624477Y-108287768D01*
X134807368Y-108119404D01*
X134923610Y-107970057D01*
X135828851Y-108875298D01*
G37*
%TD.AperFunction*%
%TD*%
%TA.AperFunction,Conductor*%
%TO.N,GND*%
G36*
X48192632Y-127619404D02*
G01*
X48375523Y-127787768D01*
X48430116Y-127823435D01*
X47539415Y-128714136D01*
X47539415Y-128714137D01*
X47734960Y-128867337D01*
X47734968Y-128867342D01*
X48019678Y-129039454D01*
X48019680Y-129039456D01*
X48323056Y-129175994D01*
X48323071Y-129176000D01*
X48583379Y-129257115D01*
X48641527Y-129295852D01*
X48669501Y-129359877D01*
X48658419Y-129428863D01*
X48611801Y-129480906D01*
X48546489Y-129499500D01*
X48504428Y-129499500D01*
X48495582Y-129499184D01*
X48473622Y-129497613D01*
X48295442Y-129484869D01*
X48277931Y-129482351D01*
X48086212Y-129440646D01*
X48069236Y-129435662D01*
X47885390Y-129367090D01*
X47869298Y-129359740D01*
X47697095Y-129265711D01*
X47682210Y-129256146D01*
X47525132Y-129138558D01*
X47511762Y-129126972D01*
X47373027Y-128988237D01*
X47361441Y-128974867D01*
X47280949Y-128867343D01*
X47243849Y-128817784D01*
X47234288Y-128802904D01*
X47140259Y-128630701D01*
X47132909Y-128614609D01*
X47101374Y-128530061D01*
X47096390Y-128460369D01*
X47129875Y-128399046D01*
X47168480Y-128377965D01*
X48076389Y-127470056D01*
X48192632Y-127619404D01*
G37*
%TD.AperFunction*%
%TA.AperFunction,Conductor*%
G36*
X89504418Y-111000816D02*
G01*
X89704561Y-111015130D01*
X89722063Y-111017647D01*
X89913797Y-111059355D01*
X89930755Y-111064334D01*
X90114609Y-111132909D01*
X90130701Y-111140259D01*
X90302904Y-111234288D01*
X90317784Y-111243849D01*
X90474867Y-111361441D01*
X90488237Y-111373027D01*
X90626972Y-111511762D01*
X90638558Y-111525132D01*
X90756146Y-111682210D01*
X90765711Y-111697095D01*
X90859740Y-111869298D01*
X90867090Y-111885390D01*
X90935662Y-112069236D01*
X90940646Y-112086212D01*
X90982351Y-112277931D01*
X90984869Y-112295442D01*
X90999184Y-112495580D01*
X90999500Y-112504427D01*
X90999500Y-124718900D01*
X90979815Y-124785939D01*
X90927011Y-124831694D01*
X90868014Y-124842674D01*
X90814136Y-124839415D01*
X89923609Y-125729942D01*
X89807368Y-125580596D01*
X89624477Y-125412232D01*
X89569882Y-125376563D01*
X90460583Y-124485862D01*
X90460583Y-124485861D01*
X90265039Y-124332662D01*
X90265031Y-124332657D01*
X89980321Y-124160545D01*
X89980319Y-124160543D01*
X89676943Y-124024005D01*
X89676928Y-124023999D01*
X89359329Y-123925032D01*
X89032076Y-123865060D01*
X88700000Y-123844974D01*
X88367923Y-123865060D01*
X88040670Y-123925032D01*
X87723071Y-124023999D01*
X87723056Y-124024005D01*
X87419680Y-124160543D01*
X87419678Y-124160545D01*
X87134968Y-124332657D01*
X86939415Y-124485862D01*
X87830117Y-125376564D01*
X87775523Y-125412232D01*
X87592632Y-125580596D01*
X87476389Y-125729942D01*
X86585862Y-124839415D01*
X86432657Y-125034968D01*
X86260545Y-125319678D01*
X86260543Y-125319680D01*
X86124005Y-125623056D01*
X86123999Y-125623071D01*
X86025032Y-125940670D01*
X85965060Y-126267923D01*
X85944974Y-126600000D01*
X85965060Y-126932076D01*
X86025032Y-127259329D01*
X86123999Y-127576928D01*
X86124005Y-127576943D01*
X86260543Y-127880319D01*
X86260545Y-127880321D01*
X86432657Y-128165031D01*
X86432662Y-128165039D01*
X86585862Y-128360583D01*
X87476389Y-127470056D01*
X87592632Y-127619404D01*
X87775523Y-127787768D01*
X87830116Y-127823435D01*
X86939415Y-128714136D01*
X86939415Y-128714137D01*
X87134960Y-128867337D01*
X87134968Y-128867342D01*
X87419678Y-129039454D01*
X87419680Y-129039456D01*
X87723056Y-129175994D01*
X87723071Y-129176000D01*
X87983379Y-129257115D01*
X88041527Y-129295852D01*
X88069501Y-129359877D01*
X88058419Y-129428863D01*
X88011801Y-129480906D01*
X87946489Y-129499500D01*
X50053511Y-129499500D01*
X49986472Y-129479815D01*
X49940717Y-129427011D01*
X49930773Y-129357853D01*
X49959798Y-129294297D01*
X50016621Y-129257115D01*
X50276928Y-129176000D01*
X50276943Y-129175994D01*
X50580319Y-129039456D01*
X50580321Y-129039454D01*
X50865030Y-128867343D01*
X51060583Y-128714137D01*
X51060583Y-128714136D01*
X50169882Y-127823435D01*
X50224477Y-127787768D01*
X50407368Y-127619404D01*
X50523610Y-127470057D01*
X51414136Y-128360583D01*
X51414137Y-128360583D01*
X51567343Y-128165030D01*
X51739454Y-127880321D01*
X51739456Y-127880319D01*
X51875994Y-127576943D01*
X51876000Y-127576928D01*
X51974967Y-127259329D01*
X52034939Y-126932076D01*
X52055025Y-126600000D01*
X52034939Y-126267923D01*
X51974967Y-125940670D01*
X51876000Y-125623071D01*
X51875994Y-125623056D01*
X51739456Y-125319680D01*
X51739454Y-125319678D01*
X51567342Y-125034968D01*
X51567337Y-125034960D01*
X51414136Y-124839415D01*
X50523609Y-125729942D01*
X50407368Y-125580596D01*
X50224477Y-125412232D01*
X50169882Y-125376563D01*
X51060583Y-124485862D01*
X51060583Y-124485861D01*
X50865039Y-124332662D01*
X50865031Y-124332657D01*
X50580321Y-124160545D01*
X50580319Y-124160543D01*
X50276943Y-124024005D01*
X50276928Y-124023999D01*
X49959329Y-123925032D01*
X49632076Y-123865060D01*
X49300000Y-123844974D01*
X48967923Y-123865060D01*
X48640670Y-123925032D01*
X48323071Y-124023999D01*
X48323056Y-124024005D01*
X48019680Y-124160543D01*
X48019678Y-124160545D01*
X47734968Y-124332657D01*
X47539415Y-124485862D01*
X48430117Y-125376564D01*
X48375523Y-125412232D01*
X48192632Y-125580596D01*
X48076389Y-125729942D01*
X47185862Y-124839415D01*
X47131986Y-124842674D01*
X47063881Y-124827073D01*
X47015021Y-124777127D01*
X47000500Y-124718900D01*
X47000500Y-118250002D01*
X47544726Y-118250002D01*
X47563808Y-118601954D01*
X47620833Y-118949793D01*
X47620834Y-118949796D01*
X47715126Y-119289408D01*
X47715127Y-119289410D01*
X47845588Y-119616844D01*
X47845597Y-119616862D01*
X47964235Y-119840637D01*
X48010695Y-119928269D01*
X48193661Y-120198124D01*
X48208498Y-120220006D01*
X48208505Y-120220016D01*
X48300455Y-120328267D01*
X48436686Y-120488650D01*
X48692580Y-120731046D01*
X48973182Y-120944354D01*
X49275202Y-121126074D01*
X49275206Y-121126075D01*
X49275210Y-121126078D01*
X49595088Y-121274070D01*
X49595092Y-121274070D01*
X49595099Y-121274074D01*
X49929122Y-121386619D01*
X50273355Y-121462391D01*
X50623763Y-121500500D01*
X50623769Y-121500500D01*
X50976231Y-121500500D01*
X50976237Y-121500500D01*
X51326645Y-121462391D01*
X51670878Y-121386619D01*
X52004901Y-121274074D01*
X52004908Y-121274070D01*
X52004911Y-121274070D01*
X52324789Y-121126078D01*
X52324798Y-121126074D01*
X52626818Y-120944354D01*
X52907420Y-120731046D01*
X53163314Y-120488650D01*
X53391501Y-120220008D01*
X53589305Y-119928269D01*
X53754407Y-119616854D01*
X53884871Y-119289414D01*
X53979168Y-118949788D01*
X54036191Y-118601957D01*
X54055274Y-118250002D01*
X83244726Y-118250002D01*
X83263808Y-118601954D01*
X83320833Y-118949793D01*
X83320834Y-118949796D01*
X83415126Y-119289408D01*
X83415127Y-119289410D01*
X83545588Y-119616844D01*
X83545597Y-119616862D01*
X83664235Y-119840637D01*
X83710695Y-119928269D01*
X83893661Y-120198124D01*
X83908498Y-120220006D01*
X83908505Y-120220016D01*
X84000455Y-120328267D01*
X84136686Y-120488650D01*
X84392580Y-120731046D01*
X84673182Y-120944354D01*
X84975202Y-121126074D01*
X84975206Y-121126075D01*
X84975210Y-121126078D01*
X85295088Y-121274070D01*
X85295092Y-121274070D01*
X85295099Y-121274074D01*
X85629122Y-121386619D01*
X85973355Y-121462391D01*
X86323763Y-121500500D01*
X86323769Y-121500500D01*
X86676231Y-121500500D01*
X86676237Y-121500500D01*
X87026645Y-121462391D01*
X87370878Y-121386619D01*
X87704901Y-121274074D01*
X87704908Y-121274070D01*
X87704911Y-121274070D01*
X88024789Y-121126078D01*
X88024798Y-121126074D01*
X88326818Y-120944354D01*
X88607420Y-120731046D01*
X88863314Y-120488650D01*
X89091501Y-120220008D01*
X89289305Y-119928269D01*
X89454407Y-119616854D01*
X89584871Y-119289414D01*
X89679168Y-118949788D01*
X89736191Y-118601957D01*
X89755274Y-118250000D01*
X89736191Y-117898043D01*
X89679168Y-117550212D01*
X89634450Y-117389154D01*
X89584873Y-117210591D01*
X89584872Y-117210589D01*
X89454411Y-116883155D01*
X89454402Y-116883137D01*
X89453052Y-116880591D01*
X89289305Y-116571731D01*
X89091501Y-116279992D01*
X89091497Y-116279987D01*
X89091494Y-116279983D01*
X88863314Y-116011350D01*
X88706591Y-115862894D01*
X88671458Y-115802500D01*
X88674553Y-115732699D01*
X88714895Y-115675652D01*
X88779674Y-115649472D01*
X88782590Y-115649218D01*
X88829036Y-115645738D01*
X88961621Y-115635803D01*
X88961622Y-115635802D01*
X88961630Y-115635802D01*
X89217416Y-115577420D01*
X89461643Y-115481568D01*
X89688857Y-115350386D01*
X89893981Y-115186805D01*
X90072433Y-114994479D01*
X90220228Y-114777704D01*
X90334063Y-114541323D01*
X90411396Y-114290615D01*
X90450500Y-114031182D01*
X90450500Y-113768818D01*
X90411396Y-113509385D01*
X90334063Y-113258677D01*
X90322121Y-113233880D01*
X90220232Y-113022303D01*
X90220231Y-113022302D01*
X90220230Y-113022301D01*
X90220228Y-113022296D01*
X90072433Y-112805521D01*
X90062441Y-112794753D01*
X89893985Y-112613198D01*
X89757590Y-112504427D01*
X89688857Y-112449614D01*
X89461643Y-112318432D01*
X89217416Y-112222580D01*
X89217411Y-112222578D01*
X89217402Y-112222576D01*
X88999818Y-112172914D01*
X88961630Y-112164198D01*
X88961629Y-112164197D01*
X88961625Y-112164197D01*
X88961620Y-112164196D01*
X88765515Y-112149500D01*
X88765494Y-112149500D01*
X88634506Y-112149500D01*
X88634484Y-112149500D01*
X88438379Y-112164196D01*
X88438374Y-112164197D01*
X88182597Y-112222576D01*
X88182578Y-112222582D01*
X87938356Y-112318432D01*
X87711143Y-112449614D01*
X87506014Y-112613198D01*
X87327567Y-112805520D01*
X87179768Y-113022302D01*
X87179767Y-113022303D01*
X87065938Y-113258673D01*
X86988606Y-113509376D01*
X86988605Y-113509381D01*
X86988604Y-113509385D01*
X86973853Y-113607247D01*
X86949500Y-113768812D01*
X86949500Y-114031187D01*
X86969794Y-114165823D01*
X86988604Y-114290615D01*
X86988605Y-114290617D01*
X86988606Y-114290623D01*
X87065938Y-114541326D01*
X87179767Y-114777696D01*
X87179768Y-114777697D01*
X87179770Y-114777700D01*
X87179772Y-114777704D01*
X87239325Y-114865052D01*
X87260825Y-114931531D01*
X87242971Y-114999081D01*
X87191431Y-115046255D01*
X87122568Y-115058075D01*
X87110215Y-115056004D01*
X87026644Y-115037608D01*
X86676238Y-114999500D01*
X86676237Y-114999500D01*
X86323763Y-114999500D01*
X86323761Y-114999500D01*
X85973356Y-115037608D01*
X85629119Y-115113381D01*
X85295093Y-115225928D01*
X85295088Y-115225929D01*
X84975210Y-115373921D01*
X84975197Y-115373928D01*
X84673184Y-115555644D01*
X84392589Y-115768946D01*
X84392580Y-115768954D01*
X84136685Y-116011350D01*
X83908505Y-116279983D01*
X83908498Y-116279993D01*
X83710695Y-116571730D01*
X83545597Y-116883137D01*
X83545588Y-116883155D01*
X83415127Y-117210589D01*
X83415126Y-117210591D01*
X83320834Y-117550203D01*
X83320833Y-117550206D01*
X83263808Y-117898045D01*
X83244726Y-118249997D01*
X83244726Y-118250002D01*
X54055274Y-118250002D01*
X54055274Y-118250000D01*
X54036191Y-117898043D01*
X53979168Y-117550212D01*
X53934450Y-117389154D01*
X53884873Y-117210591D01*
X53884872Y-117210589D01*
X53754411Y-116883155D01*
X53754402Y-116883137D01*
X53753052Y-116880591D01*
X53589305Y-116571731D01*
X53391501Y-116279992D01*
X53391497Y-116279987D01*
X53391494Y-116279983D01*
X53163314Y-116011350D01*
X53006591Y-115862894D01*
X52907420Y-115768954D01*
X52907413Y-115768948D01*
X52907410Y-115768946D01*
X52626815Y-115555644D01*
X52324802Y-115373928D01*
X52324789Y-115373921D01*
X52004911Y-115225929D01*
X52004906Y-115225928D01*
X52004903Y-115225927D01*
X52004901Y-115225926D01*
X51888782Y-115186801D01*
X51670880Y-115113381D01*
X51326643Y-115037608D01*
X50976238Y-114999500D01*
X50976237Y-114999500D01*
X50903629Y-114999500D01*
X50836590Y-114979815D01*
X50790835Y-114927011D01*
X50780891Y-114857853D01*
X50801176Y-114805648D01*
X50820228Y-114777704D01*
X50934063Y-114541323D01*
X51011396Y-114290615D01*
X51050500Y-114031182D01*
X51050500Y-113768818D01*
X51011396Y-113509385D01*
X50934063Y-113258677D01*
X50922121Y-113233880D01*
X50820232Y-113022303D01*
X50820231Y-113022302D01*
X50820230Y-113022301D01*
X50820228Y-113022296D01*
X50672433Y-112805521D01*
X50662441Y-112794753D01*
X50493985Y-112613198D01*
X50357590Y-112504427D01*
X50288857Y-112449614D01*
X50061643Y-112318432D01*
X49817416Y-112222580D01*
X49817411Y-112222578D01*
X49817402Y-112222576D01*
X49599818Y-112172914D01*
X49561630Y-112164198D01*
X49561629Y-112164197D01*
X49561625Y-112164197D01*
X49561620Y-112164196D01*
X49365515Y-112149500D01*
X49365494Y-112149500D01*
X49234506Y-112149500D01*
X49234484Y-112149500D01*
X49038379Y-112164196D01*
X49038374Y-112164197D01*
X48782597Y-112222576D01*
X48782578Y-112222582D01*
X48538356Y-112318432D01*
X48311143Y-112449614D01*
X48106014Y-112613198D01*
X47927567Y-112805520D01*
X47779768Y-113022302D01*
X47779767Y-113022303D01*
X47665938Y-113258673D01*
X47588606Y-113509376D01*
X47588605Y-113509381D01*
X47588604Y-113509385D01*
X47573853Y-113607247D01*
X47549500Y-113768812D01*
X47549500Y-114031187D01*
X47569794Y-114165823D01*
X47588604Y-114290615D01*
X47588605Y-114290617D01*
X47588606Y-114290623D01*
X47665938Y-114541326D01*
X47779767Y-114777696D01*
X47779768Y-114777697D01*
X47779770Y-114777700D01*
X47779772Y-114777704D01*
X47881568Y-114927011D01*
X47927567Y-114994479D01*
X48106014Y-115186801D01*
X48106018Y-115186804D01*
X48106019Y-115186805D01*
X48311143Y-115350386D01*
X48538357Y-115481568D01*
X48683996Y-115538727D01*
X48739210Y-115581543D01*
X48762511Y-115647413D01*
X48746500Y-115715423D01*
X48713738Y-115752869D01*
X48692587Y-115768948D01*
X48692580Y-115768954D01*
X48436685Y-116011350D01*
X48208505Y-116279983D01*
X48208498Y-116279993D01*
X48010695Y-116571730D01*
X47845597Y-116883137D01*
X47845588Y-116883155D01*
X47715127Y-117210589D01*
X47715126Y-117210591D01*
X47620834Y-117550203D01*
X47620833Y-117550206D01*
X47563808Y-117898045D01*
X47544726Y-118249997D01*
X47544726Y-118250002D01*
X47000500Y-118250002D01*
X47000500Y-112504427D01*
X47000816Y-112495581D01*
X47015130Y-112295443D01*
X47015131Y-112295442D01*
X47015130Y-112295436D01*
X47017646Y-112277938D01*
X47059356Y-112086199D01*
X47064333Y-112069248D01*
X47132911Y-111885385D01*
X47140259Y-111869298D01*
X47202815Y-111754734D01*
X47234291Y-111697089D01*
X47243845Y-111682221D01*
X47361448Y-111525123D01*
X47373020Y-111511769D01*
X47511769Y-111373020D01*
X47525123Y-111361448D01*
X47682221Y-111243845D01*
X47697089Y-111234291D01*
X47869298Y-111140258D01*
X47885385Y-111132911D01*
X48069248Y-111064333D01*
X48086199Y-111059356D01*
X48277938Y-111017646D01*
X48295436Y-111015130D01*
X48495582Y-111000816D01*
X48504428Y-111000500D01*
X48565892Y-111000500D01*
X89434108Y-111000500D01*
X89495572Y-111000500D01*
X89504418Y-111000816D01*
G37*
%TD.AperFunction*%
%TA.AperFunction,Conductor*%
G36*
X90828851Y-128375298D02*
G01*
X90843059Y-128378553D01*
X90891920Y-128428496D01*
X90906023Y-128496928D01*
X90898625Y-128530061D01*
X90867090Y-128614609D01*
X90859740Y-128630701D01*
X90765711Y-128802904D01*
X90756146Y-128817789D01*
X90638558Y-128974867D01*
X90626972Y-128988237D01*
X90488237Y-129126972D01*
X90474867Y-129138558D01*
X90317789Y-129256146D01*
X90302904Y-129265711D01*
X90130701Y-129359740D01*
X90114609Y-129367090D01*
X89930763Y-129435662D01*
X89913787Y-129440646D01*
X89722068Y-129482351D01*
X89704557Y-129484869D01*
X89523779Y-129497799D01*
X89504417Y-129499184D01*
X89495572Y-129499500D01*
X89453511Y-129499500D01*
X89386472Y-129479815D01*
X89340717Y-129427011D01*
X89330773Y-129357853D01*
X89359798Y-129294297D01*
X89416621Y-129257115D01*
X89676928Y-129176000D01*
X89676943Y-129175994D01*
X89980319Y-129039456D01*
X89980321Y-129039454D01*
X90265030Y-128867343D01*
X90460583Y-128714137D01*
X90460583Y-128714136D01*
X89569882Y-127823435D01*
X89624477Y-127787768D01*
X89807368Y-127619404D01*
X89923610Y-127470057D01*
X90828851Y-128375298D01*
G37*
%TD.AperFunction*%
%TD*%
%TA.AperFunction,Conductor*%
%TO.N,GND*%
G36*
X93192632Y-127619404D02*
G01*
X93375523Y-127787768D01*
X93430116Y-127823435D01*
X92539415Y-128714136D01*
X92539415Y-128714137D01*
X92734960Y-128867337D01*
X92734968Y-128867342D01*
X93019678Y-129039454D01*
X93019680Y-129039456D01*
X93323056Y-129175994D01*
X93323071Y-129176000D01*
X93583379Y-129257115D01*
X93641527Y-129295852D01*
X93669501Y-129359877D01*
X93658419Y-129428863D01*
X93611801Y-129480906D01*
X93546489Y-129499500D01*
X93504428Y-129499500D01*
X93495582Y-129499184D01*
X93473622Y-129497613D01*
X93295442Y-129484869D01*
X93277931Y-129482351D01*
X93086212Y-129440646D01*
X93069236Y-129435662D01*
X92885390Y-129367090D01*
X92869298Y-129359740D01*
X92697095Y-129265711D01*
X92682210Y-129256146D01*
X92525132Y-129138558D01*
X92511762Y-129126972D01*
X92373027Y-128988237D01*
X92361441Y-128974867D01*
X92280949Y-128867343D01*
X92243849Y-128817784D01*
X92234288Y-128802904D01*
X92140259Y-128630701D01*
X92132909Y-128614609D01*
X92101374Y-128530061D01*
X92096390Y-128460369D01*
X92129875Y-128399046D01*
X92168480Y-128377965D01*
X93076389Y-127470056D01*
X93192632Y-127619404D01*
G37*
%TD.AperFunction*%
%TA.AperFunction,Conductor*%
G36*
X134504418Y-111000816D02*
G01*
X134704561Y-111015130D01*
X134722063Y-111017647D01*
X134913797Y-111059355D01*
X134930755Y-111064334D01*
X135114609Y-111132909D01*
X135130701Y-111140259D01*
X135302904Y-111234288D01*
X135317784Y-111243849D01*
X135474867Y-111361441D01*
X135488237Y-111373027D01*
X135626972Y-111511762D01*
X135638558Y-111525132D01*
X135756146Y-111682210D01*
X135765711Y-111697095D01*
X135859740Y-111869298D01*
X135867090Y-111885390D01*
X135935662Y-112069236D01*
X135940646Y-112086212D01*
X135982351Y-112277931D01*
X135984869Y-112295442D01*
X135999184Y-112495580D01*
X135999500Y-112504427D01*
X135999500Y-124718900D01*
X135979815Y-124785939D01*
X135927011Y-124831694D01*
X135868014Y-124842674D01*
X135814136Y-124839415D01*
X134923609Y-125729942D01*
X134807368Y-125580596D01*
X134624477Y-125412232D01*
X134569882Y-125376563D01*
X135460583Y-124485862D01*
X135460583Y-124485861D01*
X135265039Y-124332662D01*
X135265031Y-124332657D01*
X134980321Y-124160545D01*
X134980319Y-124160543D01*
X134676943Y-124024005D01*
X134676928Y-124023999D01*
X134359329Y-123925032D01*
X134032076Y-123865060D01*
X133700000Y-123844974D01*
X133367923Y-123865060D01*
X133040670Y-123925032D01*
X132723071Y-124023999D01*
X132723056Y-124024005D01*
X132419680Y-124160543D01*
X132419678Y-124160545D01*
X132134968Y-124332657D01*
X131939415Y-124485862D01*
X132830117Y-125376564D01*
X132775523Y-125412232D01*
X132592632Y-125580596D01*
X132476389Y-125729942D01*
X131585862Y-124839415D01*
X131432657Y-125034968D01*
X131260545Y-125319678D01*
X131260543Y-125319680D01*
X131124005Y-125623056D01*
X131123999Y-125623071D01*
X131025032Y-125940670D01*
X130965060Y-126267923D01*
X130944974Y-126600000D01*
X130965060Y-126932076D01*
X131025032Y-127259329D01*
X131123999Y-127576928D01*
X131124005Y-127576943D01*
X131260543Y-127880319D01*
X131260545Y-127880321D01*
X131432657Y-128165031D01*
X131432662Y-128165039D01*
X131585862Y-128360583D01*
X132476389Y-127470056D01*
X132592632Y-127619404D01*
X132775523Y-127787768D01*
X132830116Y-127823435D01*
X131939415Y-128714136D01*
X131939415Y-128714137D01*
X132134960Y-128867337D01*
X132134968Y-128867342D01*
X132419678Y-129039454D01*
X132419680Y-129039456D01*
X132723056Y-129175994D01*
X132723071Y-129176000D01*
X132983379Y-129257115D01*
X133041527Y-129295852D01*
X133069501Y-129359877D01*
X133058419Y-129428863D01*
X133011801Y-129480906D01*
X132946489Y-129499500D01*
X95053511Y-129499500D01*
X94986472Y-129479815D01*
X94940717Y-129427011D01*
X94930773Y-129357853D01*
X94959798Y-129294297D01*
X95016621Y-129257115D01*
X95276928Y-129176000D01*
X95276943Y-129175994D01*
X95580319Y-129039456D01*
X95580321Y-129039454D01*
X95865030Y-128867343D01*
X96060583Y-128714137D01*
X96060583Y-128714136D01*
X95169882Y-127823435D01*
X95224477Y-127787768D01*
X95407368Y-127619404D01*
X95523610Y-127470057D01*
X96414136Y-128360583D01*
X96414137Y-128360583D01*
X96567343Y-128165030D01*
X96739454Y-127880321D01*
X96739456Y-127880319D01*
X96875994Y-127576943D01*
X96876000Y-127576928D01*
X96974967Y-127259329D01*
X97034939Y-126932076D01*
X97055025Y-126600000D01*
X97034939Y-126267923D01*
X96974967Y-125940670D01*
X96876000Y-125623071D01*
X96875994Y-125623056D01*
X96739456Y-125319680D01*
X96739454Y-125319678D01*
X96567342Y-125034968D01*
X96567337Y-125034960D01*
X96414136Y-124839415D01*
X95523609Y-125729942D01*
X95407368Y-125580596D01*
X95224477Y-125412232D01*
X95169882Y-125376563D01*
X96060583Y-124485862D01*
X96060583Y-124485861D01*
X95865039Y-124332662D01*
X95865031Y-124332657D01*
X95580321Y-124160545D01*
X95580319Y-124160543D01*
X95276943Y-124024005D01*
X95276928Y-124023999D01*
X94959329Y-123925032D01*
X94632076Y-123865060D01*
X94300000Y-123844974D01*
X93967923Y-123865060D01*
X93640670Y-123925032D01*
X93323071Y-124023999D01*
X93323056Y-124024005D01*
X93019680Y-124160543D01*
X93019678Y-124160545D01*
X92734968Y-124332657D01*
X92539415Y-124485862D01*
X93430117Y-125376564D01*
X93375523Y-125412232D01*
X93192632Y-125580596D01*
X93076389Y-125729942D01*
X92185862Y-124839415D01*
X92131986Y-124842674D01*
X92063881Y-124827073D01*
X92015021Y-124777127D01*
X92000500Y-124718900D01*
X92000500Y-118250002D01*
X92544726Y-118250002D01*
X92563808Y-118601954D01*
X92620833Y-118949793D01*
X92620834Y-118949796D01*
X92715126Y-119289408D01*
X92715127Y-119289410D01*
X92845588Y-119616844D01*
X92845597Y-119616862D01*
X92964235Y-119840637D01*
X93010695Y-119928269D01*
X93193661Y-120198124D01*
X93208498Y-120220006D01*
X93208505Y-120220016D01*
X93300455Y-120328267D01*
X93436686Y-120488650D01*
X93692580Y-120731046D01*
X93973182Y-120944354D01*
X94275202Y-121126074D01*
X94275206Y-121126075D01*
X94275210Y-121126078D01*
X94595088Y-121274070D01*
X94595092Y-121274070D01*
X94595099Y-121274074D01*
X94929122Y-121386619D01*
X95273355Y-121462391D01*
X95623763Y-121500500D01*
X95623769Y-121500500D01*
X95976231Y-121500500D01*
X95976237Y-121500500D01*
X96326645Y-121462391D01*
X96670878Y-121386619D01*
X97004901Y-121274074D01*
X97004908Y-121274070D01*
X97004911Y-121274070D01*
X97324789Y-121126078D01*
X97324798Y-121126074D01*
X97626818Y-120944354D01*
X97907420Y-120731046D01*
X98163314Y-120488650D01*
X98391501Y-120220008D01*
X98589305Y-119928269D01*
X98754407Y-119616854D01*
X98884871Y-119289414D01*
X98979168Y-118949788D01*
X99036191Y-118601957D01*
X99055274Y-118250002D01*
X128244726Y-118250002D01*
X128263808Y-118601954D01*
X128320833Y-118949793D01*
X128320834Y-118949796D01*
X128415126Y-119289408D01*
X128415127Y-119289410D01*
X128545588Y-119616844D01*
X128545597Y-119616862D01*
X128664235Y-119840637D01*
X128710695Y-119928269D01*
X128893661Y-120198124D01*
X128908498Y-120220006D01*
X128908505Y-120220016D01*
X129000455Y-120328267D01*
X129136686Y-120488650D01*
X129392580Y-120731046D01*
X129673182Y-120944354D01*
X129975202Y-121126074D01*
X129975206Y-121126075D01*
X129975210Y-121126078D01*
X130295088Y-121274070D01*
X130295092Y-121274070D01*
X130295099Y-121274074D01*
X130629122Y-121386619D01*
X130973355Y-121462391D01*
X131323763Y-121500500D01*
X131323769Y-121500500D01*
X131676231Y-121500500D01*
X131676237Y-121500500D01*
X132026645Y-121462391D01*
X132370878Y-121386619D01*
X132704901Y-121274074D01*
X132704908Y-121274070D01*
X132704911Y-121274070D01*
X133024789Y-121126078D01*
X133024798Y-121126074D01*
X133326818Y-120944354D01*
X133607420Y-120731046D01*
X133863314Y-120488650D01*
X134091501Y-120220008D01*
X134289305Y-119928269D01*
X134454407Y-119616854D01*
X134584871Y-119289414D01*
X134679168Y-118949788D01*
X134736191Y-118601957D01*
X134755274Y-118250000D01*
X134736191Y-117898043D01*
X134679168Y-117550212D01*
X134634450Y-117389154D01*
X134584873Y-117210591D01*
X134584872Y-117210589D01*
X134454411Y-116883155D01*
X134454402Y-116883137D01*
X134453052Y-116880591D01*
X134289305Y-116571731D01*
X134091501Y-116279992D01*
X134091497Y-116279987D01*
X134091494Y-116279983D01*
X133863314Y-116011350D01*
X133706591Y-115862894D01*
X133671458Y-115802500D01*
X133674553Y-115732699D01*
X133714895Y-115675652D01*
X133779674Y-115649472D01*
X133782590Y-115649218D01*
X133829036Y-115645738D01*
X133961621Y-115635803D01*
X133961622Y-115635802D01*
X133961630Y-115635802D01*
X134217416Y-115577420D01*
X134461643Y-115481568D01*
X134688857Y-115350386D01*
X134893981Y-115186805D01*
X135072433Y-114994479D01*
X135220228Y-114777704D01*
X135334063Y-114541323D01*
X135411396Y-114290615D01*
X135450500Y-114031182D01*
X135450500Y-113768818D01*
X135411396Y-113509385D01*
X135334063Y-113258677D01*
X135322121Y-113233880D01*
X135220232Y-113022303D01*
X135220231Y-113022302D01*
X135220230Y-113022301D01*
X135220228Y-113022296D01*
X135072433Y-112805521D01*
X135062441Y-112794753D01*
X134893985Y-112613198D01*
X134757590Y-112504427D01*
X134688857Y-112449614D01*
X134461643Y-112318432D01*
X134217416Y-112222580D01*
X134217411Y-112222578D01*
X134217402Y-112222576D01*
X133999818Y-112172914D01*
X133961630Y-112164198D01*
X133961629Y-112164197D01*
X133961625Y-112164197D01*
X133961620Y-112164196D01*
X133765515Y-112149500D01*
X133765494Y-112149500D01*
X133634506Y-112149500D01*
X133634484Y-112149500D01*
X133438379Y-112164196D01*
X133438374Y-112164197D01*
X133182597Y-112222576D01*
X133182578Y-112222582D01*
X132938356Y-112318432D01*
X132711143Y-112449614D01*
X132506014Y-112613198D01*
X132327567Y-112805520D01*
X132179768Y-113022302D01*
X132179767Y-113022303D01*
X132065938Y-113258673D01*
X131988606Y-113509376D01*
X131988605Y-113509381D01*
X131988604Y-113509385D01*
X131973853Y-113607247D01*
X131949500Y-113768812D01*
X131949500Y-114031187D01*
X131969794Y-114165823D01*
X131988604Y-114290615D01*
X131988605Y-114290617D01*
X131988606Y-114290623D01*
X132065938Y-114541326D01*
X132179767Y-114777696D01*
X132179768Y-114777697D01*
X132179770Y-114777700D01*
X132179772Y-114777704D01*
X132239325Y-114865052D01*
X132260825Y-114931531D01*
X132242971Y-114999081D01*
X132191431Y-115046255D01*
X132122568Y-115058075D01*
X132110215Y-115056004D01*
X132026644Y-115037608D01*
X131676238Y-114999500D01*
X131676237Y-114999500D01*
X131323763Y-114999500D01*
X131323761Y-114999500D01*
X130973356Y-115037608D01*
X130629119Y-115113381D01*
X130295093Y-115225928D01*
X130295088Y-115225929D01*
X129975210Y-115373921D01*
X129975197Y-115373928D01*
X129673184Y-115555644D01*
X129392589Y-115768946D01*
X129392580Y-115768954D01*
X129136685Y-116011350D01*
X128908505Y-116279983D01*
X128908498Y-116279993D01*
X128710695Y-116571730D01*
X128545597Y-116883137D01*
X128545588Y-116883155D01*
X128415127Y-117210589D01*
X128415126Y-117210591D01*
X128320834Y-117550203D01*
X128320833Y-117550206D01*
X128263808Y-117898045D01*
X128244726Y-118249997D01*
X128244726Y-118250002D01*
X99055274Y-118250002D01*
X99055274Y-118250000D01*
X99036191Y-117898043D01*
X98979168Y-117550212D01*
X98934450Y-117389154D01*
X98884873Y-117210591D01*
X98884872Y-117210589D01*
X98754411Y-116883155D01*
X98754402Y-116883137D01*
X98753052Y-116880591D01*
X98589305Y-116571731D01*
X98391501Y-116279992D01*
X98391497Y-116279987D01*
X98391494Y-116279983D01*
X98163314Y-116011350D01*
X98006591Y-115862894D01*
X97907420Y-115768954D01*
X97907413Y-115768948D01*
X97907410Y-115768946D01*
X97626815Y-115555644D01*
X97324802Y-115373928D01*
X97324789Y-115373921D01*
X97004911Y-115225929D01*
X97004906Y-115225928D01*
X97004903Y-115225927D01*
X97004901Y-115225926D01*
X96888782Y-115186801D01*
X96670880Y-115113381D01*
X96326643Y-115037608D01*
X95976238Y-114999500D01*
X95976237Y-114999500D01*
X95903629Y-114999500D01*
X95836590Y-114979815D01*
X95790835Y-114927011D01*
X95780891Y-114857853D01*
X95801176Y-114805648D01*
X95820228Y-114777704D01*
X95934063Y-114541323D01*
X96011396Y-114290615D01*
X96050500Y-114031182D01*
X96050500Y-113768818D01*
X96011396Y-113509385D01*
X95934063Y-113258677D01*
X95922121Y-113233880D01*
X95820232Y-113022303D01*
X95820231Y-113022302D01*
X95820230Y-113022301D01*
X95820228Y-113022296D01*
X95672433Y-112805521D01*
X95662441Y-112794753D01*
X95493985Y-112613198D01*
X95357590Y-112504427D01*
X95288857Y-112449614D01*
X95061643Y-112318432D01*
X94817416Y-112222580D01*
X94817411Y-112222578D01*
X94817402Y-112222576D01*
X94599818Y-112172914D01*
X94561630Y-112164198D01*
X94561629Y-112164197D01*
X94561625Y-112164197D01*
X94561620Y-112164196D01*
X94365515Y-112149500D01*
X94365494Y-112149500D01*
X94234506Y-112149500D01*
X94234484Y-112149500D01*
X94038379Y-112164196D01*
X94038374Y-112164197D01*
X93782597Y-112222576D01*
X93782578Y-112222582D01*
X93538356Y-112318432D01*
X93311143Y-112449614D01*
X93106014Y-112613198D01*
X92927567Y-112805520D01*
X92779768Y-113022302D01*
X92779767Y-113022303D01*
X92665938Y-113258673D01*
X92588606Y-113509376D01*
X92588605Y-113509381D01*
X92588604Y-113509385D01*
X92573853Y-113607247D01*
X92549500Y-113768812D01*
X92549500Y-114031187D01*
X92569794Y-114165823D01*
X92588604Y-114290615D01*
X92588605Y-114290617D01*
X92588606Y-114290623D01*
X92665938Y-114541326D01*
X92779767Y-114777696D01*
X92779768Y-114777697D01*
X92779770Y-114777700D01*
X92779772Y-114777704D01*
X92881568Y-114927011D01*
X92927567Y-114994479D01*
X93106014Y-115186801D01*
X93106018Y-115186804D01*
X93106019Y-115186805D01*
X93311143Y-115350386D01*
X93538357Y-115481568D01*
X93683996Y-115538727D01*
X93739210Y-115581543D01*
X93762511Y-115647413D01*
X93746500Y-115715423D01*
X93713738Y-115752869D01*
X93692587Y-115768948D01*
X93692580Y-115768954D01*
X93436685Y-116011350D01*
X93208505Y-116279983D01*
X93208498Y-116279993D01*
X93010695Y-116571730D01*
X92845597Y-116883137D01*
X92845588Y-116883155D01*
X92715127Y-117210589D01*
X92715126Y-117210591D01*
X92620834Y-117550203D01*
X92620833Y-117550206D01*
X92563808Y-117898045D01*
X92544726Y-118249997D01*
X92544726Y-118250002D01*
X92000500Y-118250002D01*
X92000500Y-112504427D01*
X92000816Y-112495581D01*
X92015130Y-112295443D01*
X92015131Y-112295442D01*
X92015130Y-112295436D01*
X92017646Y-112277938D01*
X92059356Y-112086199D01*
X92064333Y-112069248D01*
X92132911Y-111885385D01*
X92140259Y-111869298D01*
X92202815Y-111754734D01*
X92234291Y-111697089D01*
X92243845Y-111682221D01*
X92361448Y-111525123D01*
X92373020Y-111511769D01*
X92511769Y-111373020D01*
X92525123Y-111361448D01*
X92682221Y-111243845D01*
X92697089Y-111234291D01*
X92869298Y-111140258D01*
X92885385Y-111132911D01*
X93069248Y-111064333D01*
X93086199Y-111059356D01*
X93277938Y-111017646D01*
X93295436Y-111015130D01*
X93495582Y-111000816D01*
X93504428Y-111000500D01*
X93565892Y-111000500D01*
X134434108Y-111000500D01*
X134495572Y-111000500D01*
X134504418Y-111000816D01*
G37*
%TD.AperFunction*%
%TA.AperFunction,Conductor*%
G36*
X135828851Y-128375298D02*
G01*
X135843059Y-128378553D01*
X135891920Y-128428496D01*
X135906023Y-128496928D01*
X135898625Y-128530061D01*
X135867090Y-128614609D01*
X135859740Y-128630701D01*
X135765711Y-128802904D01*
X135756146Y-128817789D01*
X135638558Y-128974867D01*
X135626972Y-128988237D01*
X135488237Y-129126972D01*
X135474867Y-129138558D01*
X135317789Y-129256146D01*
X135302904Y-129265711D01*
X135130701Y-129359740D01*
X135114609Y-129367090D01*
X134930763Y-129435662D01*
X134913787Y-129440646D01*
X134722068Y-129482351D01*
X134704557Y-129484869D01*
X134523779Y-129497799D01*
X134504417Y-129499184D01*
X134495572Y-129499500D01*
X134453511Y-129499500D01*
X134386472Y-129479815D01*
X134340717Y-129427011D01*
X134330773Y-129357853D01*
X134359798Y-129294297D01*
X134416621Y-129257115D01*
X134676928Y-129176000D01*
X134676943Y-129175994D01*
X134980319Y-129039456D01*
X134980321Y-129039454D01*
X135265030Y-128867343D01*
X135460583Y-128714137D01*
X135460583Y-128714136D01*
X134569882Y-127823435D01*
X134624477Y-127787768D01*
X134807368Y-127619404D01*
X134923610Y-127470057D01*
X135828851Y-128375298D01*
G37*
%TD.AperFunction*%
%TD*%
%TA.AperFunction,Conductor*%
%TO.N,GND*%
G36*
X48192632Y-147119404D02*
G01*
X48375523Y-147287768D01*
X48430116Y-147323435D01*
X47539415Y-148214136D01*
X47539415Y-148214137D01*
X47734960Y-148367337D01*
X47734968Y-148367342D01*
X48019678Y-148539454D01*
X48019680Y-148539456D01*
X48323056Y-148675994D01*
X48323071Y-148676000D01*
X48583379Y-148757115D01*
X48641527Y-148795852D01*
X48669501Y-148859877D01*
X48658419Y-148928863D01*
X48611801Y-148980906D01*
X48546489Y-148999500D01*
X48504428Y-148999500D01*
X48495582Y-148999184D01*
X48473622Y-148997613D01*
X48295442Y-148984869D01*
X48277931Y-148982351D01*
X48086212Y-148940646D01*
X48069236Y-148935662D01*
X47885390Y-148867090D01*
X47869298Y-148859740D01*
X47697095Y-148765711D01*
X47682210Y-148756146D01*
X47525132Y-148638558D01*
X47511762Y-148626972D01*
X47373027Y-148488237D01*
X47361441Y-148474867D01*
X47280949Y-148367343D01*
X47243849Y-148317784D01*
X47234288Y-148302904D01*
X47140259Y-148130701D01*
X47132909Y-148114609D01*
X47101374Y-148030061D01*
X47096390Y-147960369D01*
X47129875Y-147899046D01*
X47168480Y-147877965D01*
X48076389Y-146970056D01*
X48192632Y-147119404D01*
G37*
%TD.AperFunction*%
%TA.AperFunction,Conductor*%
G36*
X89504418Y-130500816D02*
G01*
X89704561Y-130515130D01*
X89722063Y-130517647D01*
X89913797Y-130559355D01*
X89930755Y-130564334D01*
X90114609Y-130632909D01*
X90130701Y-130640259D01*
X90302904Y-130734288D01*
X90317784Y-130743849D01*
X90474867Y-130861441D01*
X90488237Y-130873027D01*
X90626972Y-131011762D01*
X90638558Y-131025132D01*
X90756146Y-131182210D01*
X90765711Y-131197095D01*
X90859740Y-131369298D01*
X90867090Y-131385390D01*
X90935662Y-131569236D01*
X90940646Y-131586212D01*
X90982351Y-131777931D01*
X90984869Y-131795442D01*
X90999184Y-131995580D01*
X90999500Y-132004427D01*
X90999500Y-144218900D01*
X90979815Y-144285939D01*
X90927011Y-144331694D01*
X90868014Y-144342674D01*
X90814136Y-144339415D01*
X89923609Y-145229942D01*
X89807368Y-145080596D01*
X89624477Y-144912232D01*
X89569882Y-144876563D01*
X90460583Y-143985862D01*
X90460583Y-143985861D01*
X90265039Y-143832662D01*
X90265031Y-143832657D01*
X89980321Y-143660545D01*
X89980319Y-143660543D01*
X89676943Y-143524005D01*
X89676928Y-143523999D01*
X89359329Y-143425032D01*
X89032076Y-143365060D01*
X88700000Y-143344974D01*
X88367923Y-143365060D01*
X88040670Y-143425032D01*
X87723071Y-143523999D01*
X87723056Y-143524005D01*
X87419680Y-143660543D01*
X87419678Y-143660545D01*
X87134968Y-143832657D01*
X86939415Y-143985862D01*
X87830117Y-144876564D01*
X87775523Y-144912232D01*
X87592632Y-145080596D01*
X87476389Y-145229942D01*
X86585862Y-144339415D01*
X86432657Y-144534968D01*
X86260545Y-144819678D01*
X86260543Y-144819680D01*
X86124005Y-145123056D01*
X86123999Y-145123071D01*
X86025032Y-145440670D01*
X85965060Y-145767923D01*
X85944974Y-146100000D01*
X85965060Y-146432076D01*
X86025032Y-146759329D01*
X86123999Y-147076928D01*
X86124005Y-147076943D01*
X86260543Y-147380319D01*
X86260545Y-147380321D01*
X86432657Y-147665031D01*
X86432662Y-147665039D01*
X86585862Y-147860583D01*
X87476389Y-146970056D01*
X87592632Y-147119404D01*
X87775523Y-147287768D01*
X87830116Y-147323435D01*
X86939415Y-148214136D01*
X86939415Y-148214137D01*
X87134960Y-148367337D01*
X87134968Y-148367342D01*
X87419678Y-148539454D01*
X87419680Y-148539456D01*
X87723056Y-148675994D01*
X87723071Y-148676000D01*
X87983379Y-148757115D01*
X88041527Y-148795852D01*
X88069501Y-148859877D01*
X88058419Y-148928863D01*
X88011801Y-148980906D01*
X87946489Y-148999500D01*
X50053511Y-148999500D01*
X49986472Y-148979815D01*
X49940717Y-148927011D01*
X49930773Y-148857853D01*
X49959798Y-148794297D01*
X50016621Y-148757115D01*
X50276928Y-148676000D01*
X50276943Y-148675994D01*
X50580319Y-148539456D01*
X50580321Y-148539454D01*
X50865030Y-148367343D01*
X51060583Y-148214137D01*
X51060583Y-148214136D01*
X50169882Y-147323435D01*
X50224477Y-147287768D01*
X50407368Y-147119404D01*
X50523610Y-146970057D01*
X51414136Y-147860583D01*
X51414137Y-147860583D01*
X51567343Y-147665030D01*
X51739454Y-147380321D01*
X51739456Y-147380319D01*
X51875994Y-147076943D01*
X51876000Y-147076928D01*
X51974967Y-146759329D01*
X52034939Y-146432076D01*
X52055025Y-146100000D01*
X52034939Y-145767923D01*
X51974967Y-145440670D01*
X51876000Y-145123071D01*
X51875994Y-145123056D01*
X51739456Y-144819680D01*
X51739454Y-144819678D01*
X51567342Y-144534968D01*
X51567337Y-144534960D01*
X51414136Y-144339415D01*
X50523609Y-145229942D01*
X50407368Y-145080596D01*
X50224477Y-144912232D01*
X50169882Y-144876563D01*
X51060583Y-143985862D01*
X51060583Y-143985861D01*
X50865039Y-143832662D01*
X50865031Y-143832657D01*
X50580321Y-143660545D01*
X50580319Y-143660543D01*
X50276943Y-143524005D01*
X50276928Y-143523999D01*
X49959329Y-143425032D01*
X49632076Y-143365060D01*
X49300000Y-143344974D01*
X48967923Y-143365060D01*
X48640670Y-143425032D01*
X48323071Y-143523999D01*
X48323056Y-143524005D01*
X48019680Y-143660543D01*
X48019678Y-143660545D01*
X47734968Y-143832657D01*
X47539415Y-143985862D01*
X48430117Y-144876564D01*
X48375523Y-144912232D01*
X48192632Y-145080596D01*
X48076389Y-145229942D01*
X47185862Y-144339415D01*
X47131986Y-144342674D01*
X47063881Y-144327073D01*
X47015021Y-144277127D01*
X47000500Y-144218900D01*
X47000500Y-137750002D01*
X47544726Y-137750002D01*
X47563808Y-138101954D01*
X47620833Y-138449793D01*
X47620834Y-138449796D01*
X47715126Y-138789408D01*
X47715127Y-138789410D01*
X47845588Y-139116844D01*
X47845597Y-139116862D01*
X47964235Y-139340637D01*
X48010695Y-139428269D01*
X48193661Y-139698124D01*
X48208498Y-139720006D01*
X48208505Y-139720016D01*
X48300455Y-139828267D01*
X48436686Y-139988650D01*
X48692580Y-140231046D01*
X48973182Y-140444354D01*
X49275202Y-140626074D01*
X49275206Y-140626075D01*
X49275210Y-140626078D01*
X49595088Y-140774070D01*
X49595092Y-140774070D01*
X49595099Y-140774074D01*
X49929122Y-140886619D01*
X50273355Y-140962391D01*
X50623763Y-141000500D01*
X50623769Y-141000500D01*
X50976231Y-141000500D01*
X50976237Y-141000500D01*
X51326645Y-140962391D01*
X51670878Y-140886619D01*
X52004901Y-140774074D01*
X52004908Y-140774070D01*
X52004911Y-140774070D01*
X52324789Y-140626078D01*
X52324798Y-140626074D01*
X52626818Y-140444354D01*
X52907420Y-140231046D01*
X53163314Y-139988650D01*
X53391501Y-139720008D01*
X53589305Y-139428269D01*
X53754407Y-139116854D01*
X53884871Y-138789414D01*
X53979168Y-138449788D01*
X54036191Y-138101957D01*
X54055274Y-137750002D01*
X83244726Y-137750002D01*
X83263808Y-138101954D01*
X83320833Y-138449793D01*
X83320834Y-138449796D01*
X83415126Y-138789408D01*
X83415127Y-138789410D01*
X83545588Y-139116844D01*
X83545597Y-139116862D01*
X83664235Y-139340637D01*
X83710695Y-139428269D01*
X83893661Y-139698124D01*
X83908498Y-139720006D01*
X83908505Y-139720016D01*
X84000455Y-139828267D01*
X84136686Y-139988650D01*
X84392580Y-140231046D01*
X84673182Y-140444354D01*
X84975202Y-140626074D01*
X84975206Y-140626075D01*
X84975210Y-140626078D01*
X85295088Y-140774070D01*
X85295092Y-140774070D01*
X85295099Y-140774074D01*
X85629122Y-140886619D01*
X85973355Y-140962391D01*
X86323763Y-141000500D01*
X86323769Y-141000500D01*
X86676231Y-141000500D01*
X86676237Y-141000500D01*
X87026645Y-140962391D01*
X87370878Y-140886619D01*
X87704901Y-140774074D01*
X87704908Y-140774070D01*
X87704911Y-140774070D01*
X88024789Y-140626078D01*
X88024798Y-140626074D01*
X88326818Y-140444354D01*
X88607420Y-140231046D01*
X88863314Y-139988650D01*
X89091501Y-139720008D01*
X89289305Y-139428269D01*
X89454407Y-139116854D01*
X89584871Y-138789414D01*
X89679168Y-138449788D01*
X89736191Y-138101957D01*
X89755274Y-137750000D01*
X89736191Y-137398043D01*
X89679168Y-137050212D01*
X89634450Y-136889154D01*
X89584873Y-136710591D01*
X89584872Y-136710589D01*
X89454411Y-136383155D01*
X89454402Y-136383137D01*
X89453052Y-136380591D01*
X89289305Y-136071731D01*
X89091501Y-135779992D01*
X89091497Y-135779987D01*
X89091494Y-135779983D01*
X88863314Y-135511350D01*
X88706591Y-135362894D01*
X88671458Y-135302500D01*
X88674553Y-135232699D01*
X88714895Y-135175652D01*
X88779674Y-135149472D01*
X88782590Y-135149218D01*
X88829036Y-135145738D01*
X88961621Y-135135803D01*
X88961622Y-135135802D01*
X88961630Y-135135802D01*
X89217416Y-135077420D01*
X89461643Y-134981568D01*
X89688857Y-134850386D01*
X89893981Y-134686805D01*
X90072433Y-134494479D01*
X90220228Y-134277704D01*
X90334063Y-134041323D01*
X90411396Y-133790615D01*
X90450500Y-133531182D01*
X90450500Y-133268818D01*
X90411396Y-133009385D01*
X90334063Y-132758677D01*
X90322121Y-132733880D01*
X90220232Y-132522303D01*
X90220231Y-132522302D01*
X90220230Y-132522301D01*
X90220228Y-132522296D01*
X90072433Y-132305521D01*
X90062441Y-132294753D01*
X89893985Y-132113198D01*
X89757590Y-132004427D01*
X89688857Y-131949614D01*
X89461643Y-131818432D01*
X89217416Y-131722580D01*
X89217411Y-131722578D01*
X89217402Y-131722576D01*
X88999818Y-131672914D01*
X88961630Y-131664198D01*
X88961629Y-131664197D01*
X88961625Y-131664197D01*
X88961620Y-131664196D01*
X88765515Y-131649500D01*
X88765494Y-131649500D01*
X88634506Y-131649500D01*
X88634484Y-131649500D01*
X88438379Y-131664196D01*
X88438374Y-131664197D01*
X88182597Y-131722576D01*
X88182578Y-131722582D01*
X87938356Y-131818432D01*
X87711143Y-131949614D01*
X87506014Y-132113198D01*
X87327567Y-132305520D01*
X87179768Y-132522302D01*
X87179767Y-132522303D01*
X87065938Y-132758673D01*
X86988606Y-133009376D01*
X86988605Y-133009381D01*
X86988604Y-133009385D01*
X86973853Y-133107247D01*
X86949500Y-133268812D01*
X86949500Y-133531187D01*
X86969794Y-133665823D01*
X86988604Y-133790615D01*
X86988605Y-133790617D01*
X86988606Y-133790623D01*
X87065938Y-134041326D01*
X87179767Y-134277696D01*
X87179768Y-134277697D01*
X87179770Y-134277700D01*
X87179772Y-134277704D01*
X87239325Y-134365052D01*
X87260825Y-134431531D01*
X87242971Y-134499081D01*
X87191431Y-134546255D01*
X87122568Y-134558075D01*
X87110215Y-134556004D01*
X87026644Y-134537608D01*
X86676238Y-134499500D01*
X86676237Y-134499500D01*
X86323763Y-134499500D01*
X86323761Y-134499500D01*
X85973356Y-134537608D01*
X85629119Y-134613381D01*
X85295093Y-134725928D01*
X85295088Y-134725929D01*
X84975210Y-134873921D01*
X84975197Y-134873928D01*
X84673184Y-135055644D01*
X84392589Y-135268946D01*
X84392580Y-135268954D01*
X84136685Y-135511350D01*
X83908505Y-135779983D01*
X83908498Y-135779993D01*
X83710695Y-136071730D01*
X83545597Y-136383137D01*
X83545588Y-136383155D01*
X83415127Y-136710589D01*
X83415126Y-136710591D01*
X83320834Y-137050203D01*
X83320833Y-137050206D01*
X83263808Y-137398045D01*
X83244726Y-137749997D01*
X83244726Y-137750002D01*
X54055274Y-137750002D01*
X54055274Y-137750000D01*
X54036191Y-137398043D01*
X53979168Y-137050212D01*
X53934450Y-136889154D01*
X53884873Y-136710591D01*
X53884872Y-136710589D01*
X53754411Y-136383155D01*
X53754402Y-136383137D01*
X53753052Y-136380591D01*
X53589305Y-136071731D01*
X53391501Y-135779992D01*
X53391497Y-135779987D01*
X53391494Y-135779983D01*
X53163314Y-135511350D01*
X53006591Y-135362894D01*
X52907420Y-135268954D01*
X52907413Y-135268948D01*
X52907410Y-135268946D01*
X52626815Y-135055644D01*
X52324802Y-134873928D01*
X52324789Y-134873921D01*
X52004911Y-134725929D01*
X52004906Y-134725928D01*
X52004903Y-134725927D01*
X52004901Y-134725926D01*
X51888782Y-134686801D01*
X51670880Y-134613381D01*
X51326643Y-134537608D01*
X50976238Y-134499500D01*
X50976237Y-134499500D01*
X50903629Y-134499500D01*
X50836590Y-134479815D01*
X50790835Y-134427011D01*
X50780891Y-134357853D01*
X50801176Y-134305648D01*
X50820228Y-134277704D01*
X50934063Y-134041323D01*
X51011396Y-133790615D01*
X51050500Y-133531182D01*
X51050500Y-133268818D01*
X51011396Y-133009385D01*
X50934063Y-132758677D01*
X50922121Y-132733880D01*
X50820232Y-132522303D01*
X50820231Y-132522302D01*
X50820230Y-132522301D01*
X50820228Y-132522296D01*
X50672433Y-132305521D01*
X50662441Y-132294753D01*
X50493985Y-132113198D01*
X50357590Y-132004427D01*
X50288857Y-131949614D01*
X50061643Y-131818432D01*
X49817416Y-131722580D01*
X49817411Y-131722578D01*
X49817402Y-131722576D01*
X49599818Y-131672914D01*
X49561630Y-131664198D01*
X49561629Y-131664197D01*
X49561625Y-131664197D01*
X49561620Y-131664196D01*
X49365515Y-131649500D01*
X49365494Y-131649500D01*
X49234506Y-131649500D01*
X49234484Y-131649500D01*
X49038379Y-131664196D01*
X49038374Y-131664197D01*
X48782597Y-131722576D01*
X48782578Y-131722582D01*
X48538356Y-131818432D01*
X48311143Y-131949614D01*
X48106014Y-132113198D01*
X47927567Y-132305520D01*
X47779768Y-132522302D01*
X47779767Y-132522303D01*
X47665938Y-132758673D01*
X47588606Y-133009376D01*
X47588605Y-133009381D01*
X47588604Y-133009385D01*
X47573853Y-133107247D01*
X47549500Y-133268812D01*
X47549500Y-133531187D01*
X47569794Y-133665823D01*
X47588604Y-133790615D01*
X47588605Y-133790617D01*
X47588606Y-133790623D01*
X47665938Y-134041326D01*
X47779767Y-134277696D01*
X47779768Y-134277697D01*
X47779770Y-134277700D01*
X47779772Y-134277704D01*
X47881568Y-134427011D01*
X47927567Y-134494479D01*
X48106014Y-134686801D01*
X48106018Y-134686804D01*
X48106019Y-134686805D01*
X48311143Y-134850386D01*
X48538357Y-134981568D01*
X48683996Y-135038727D01*
X48739210Y-135081543D01*
X48762511Y-135147413D01*
X48746500Y-135215423D01*
X48713738Y-135252869D01*
X48692587Y-135268948D01*
X48692580Y-135268954D01*
X48436685Y-135511350D01*
X48208505Y-135779983D01*
X48208498Y-135779993D01*
X48010695Y-136071730D01*
X47845597Y-136383137D01*
X47845588Y-136383155D01*
X47715127Y-136710589D01*
X47715126Y-136710591D01*
X47620834Y-137050203D01*
X47620833Y-137050206D01*
X47563808Y-137398045D01*
X47544726Y-137749997D01*
X47544726Y-137750002D01*
X47000500Y-137750002D01*
X47000500Y-132004427D01*
X47000816Y-131995581D01*
X47015130Y-131795443D01*
X47015131Y-131795442D01*
X47015130Y-131795436D01*
X47017646Y-131777938D01*
X47059356Y-131586199D01*
X47064333Y-131569248D01*
X47132911Y-131385385D01*
X47140259Y-131369298D01*
X47202815Y-131254734D01*
X47234291Y-131197089D01*
X47243845Y-131182221D01*
X47361448Y-131025123D01*
X47373020Y-131011769D01*
X47511769Y-130873020D01*
X47525123Y-130861448D01*
X47682221Y-130743845D01*
X47697089Y-130734291D01*
X47869298Y-130640258D01*
X47885385Y-130632911D01*
X48069248Y-130564333D01*
X48086199Y-130559356D01*
X48277938Y-130517646D01*
X48295436Y-130515130D01*
X48495582Y-130500816D01*
X48504428Y-130500500D01*
X48565892Y-130500500D01*
X89434108Y-130500500D01*
X89495572Y-130500500D01*
X89504418Y-130500816D01*
G37*
%TD.AperFunction*%
%TA.AperFunction,Conductor*%
G36*
X90828851Y-147875298D02*
G01*
X90843059Y-147878553D01*
X90891920Y-147928496D01*
X90906023Y-147996928D01*
X90898625Y-148030061D01*
X90867090Y-148114609D01*
X90859740Y-148130701D01*
X90765711Y-148302904D01*
X90756146Y-148317789D01*
X90638558Y-148474867D01*
X90626972Y-148488237D01*
X90488237Y-148626972D01*
X90474867Y-148638558D01*
X90317789Y-148756146D01*
X90302904Y-148765711D01*
X90130701Y-148859740D01*
X90114609Y-148867090D01*
X89930763Y-148935662D01*
X89913787Y-148940646D01*
X89722068Y-148982351D01*
X89704557Y-148984869D01*
X89523779Y-148997799D01*
X89504417Y-148999184D01*
X89495572Y-148999500D01*
X89453511Y-148999500D01*
X89386472Y-148979815D01*
X89340717Y-148927011D01*
X89330773Y-148857853D01*
X89359798Y-148794297D01*
X89416621Y-148757115D01*
X89676928Y-148676000D01*
X89676943Y-148675994D01*
X89980319Y-148539456D01*
X89980321Y-148539454D01*
X90265030Y-148367343D01*
X90460583Y-148214137D01*
X90460583Y-148214136D01*
X89569882Y-147323435D01*
X89624477Y-147287768D01*
X89807368Y-147119404D01*
X89923610Y-146970057D01*
X90828851Y-147875298D01*
G37*
%TD.AperFunction*%
%TD*%
%TA.AperFunction,Conductor*%
%TO.N,GND*%
G36*
X93192632Y-147119404D02*
G01*
X93375523Y-147287768D01*
X93430116Y-147323435D01*
X92539415Y-148214136D01*
X92539415Y-148214137D01*
X92734960Y-148367337D01*
X92734968Y-148367342D01*
X93019678Y-148539454D01*
X93019680Y-148539456D01*
X93323056Y-148675994D01*
X93323071Y-148676000D01*
X93583379Y-148757115D01*
X93641527Y-148795852D01*
X93669501Y-148859877D01*
X93658419Y-148928863D01*
X93611801Y-148980906D01*
X93546489Y-148999500D01*
X93504428Y-148999500D01*
X93495582Y-148999184D01*
X93473622Y-148997613D01*
X93295442Y-148984869D01*
X93277931Y-148982351D01*
X93086212Y-148940646D01*
X93069236Y-148935662D01*
X92885390Y-148867090D01*
X92869298Y-148859740D01*
X92697095Y-148765711D01*
X92682210Y-148756146D01*
X92525132Y-148638558D01*
X92511762Y-148626972D01*
X92373027Y-148488237D01*
X92361441Y-148474867D01*
X92280949Y-148367343D01*
X92243849Y-148317784D01*
X92234288Y-148302904D01*
X92140259Y-148130701D01*
X92132909Y-148114609D01*
X92101374Y-148030061D01*
X92096390Y-147960369D01*
X92129875Y-147899046D01*
X92168480Y-147877965D01*
X93076389Y-146970056D01*
X93192632Y-147119404D01*
G37*
%TD.AperFunction*%
%TA.AperFunction,Conductor*%
G36*
X134504418Y-130500816D02*
G01*
X134704561Y-130515130D01*
X134722063Y-130517647D01*
X134913797Y-130559355D01*
X134930755Y-130564334D01*
X135114609Y-130632909D01*
X135130701Y-130640259D01*
X135302904Y-130734288D01*
X135317784Y-130743849D01*
X135474867Y-130861441D01*
X135488237Y-130873027D01*
X135626972Y-131011762D01*
X135638558Y-131025132D01*
X135756146Y-131182210D01*
X135765711Y-131197095D01*
X135859740Y-131369298D01*
X135867090Y-131385390D01*
X135935662Y-131569236D01*
X135940646Y-131586212D01*
X135982351Y-131777931D01*
X135984869Y-131795442D01*
X135999184Y-131995580D01*
X135999500Y-132004427D01*
X135999500Y-144218900D01*
X135979815Y-144285939D01*
X135927011Y-144331694D01*
X135868014Y-144342674D01*
X135814136Y-144339415D01*
X134923609Y-145229942D01*
X134807368Y-145080596D01*
X134624477Y-144912232D01*
X134569882Y-144876563D01*
X135460583Y-143985862D01*
X135460583Y-143985861D01*
X135265039Y-143832662D01*
X135265031Y-143832657D01*
X134980321Y-143660545D01*
X134980319Y-143660543D01*
X134676943Y-143524005D01*
X134676928Y-143523999D01*
X134359329Y-143425032D01*
X134032076Y-143365060D01*
X133700000Y-143344974D01*
X133367923Y-143365060D01*
X133040670Y-143425032D01*
X132723071Y-143523999D01*
X132723056Y-143524005D01*
X132419680Y-143660543D01*
X132419678Y-143660545D01*
X132134968Y-143832657D01*
X131939415Y-143985862D01*
X132830117Y-144876564D01*
X132775523Y-144912232D01*
X132592632Y-145080596D01*
X132476389Y-145229942D01*
X131585862Y-144339415D01*
X131432657Y-144534968D01*
X131260545Y-144819678D01*
X131260543Y-144819680D01*
X131124005Y-145123056D01*
X131123999Y-145123071D01*
X131025032Y-145440670D01*
X130965060Y-145767923D01*
X130944974Y-146100000D01*
X130965060Y-146432076D01*
X131025032Y-146759329D01*
X131123999Y-147076928D01*
X131124005Y-147076943D01*
X131260543Y-147380319D01*
X131260545Y-147380321D01*
X131432657Y-147665031D01*
X131432662Y-147665039D01*
X131585862Y-147860583D01*
X132476389Y-146970056D01*
X132592632Y-147119404D01*
X132775523Y-147287768D01*
X132830116Y-147323435D01*
X131939415Y-148214136D01*
X131939415Y-148214137D01*
X132134960Y-148367337D01*
X132134968Y-148367342D01*
X132419678Y-148539454D01*
X132419680Y-148539456D01*
X132723056Y-148675994D01*
X132723071Y-148676000D01*
X132983379Y-148757115D01*
X133041527Y-148795852D01*
X133069501Y-148859877D01*
X133058419Y-148928863D01*
X133011801Y-148980906D01*
X132946489Y-148999500D01*
X95053511Y-148999500D01*
X94986472Y-148979815D01*
X94940717Y-148927011D01*
X94930773Y-148857853D01*
X94959798Y-148794297D01*
X95016621Y-148757115D01*
X95276928Y-148676000D01*
X95276943Y-148675994D01*
X95580319Y-148539456D01*
X95580321Y-148539454D01*
X95865030Y-148367343D01*
X96060583Y-148214137D01*
X96060583Y-148214136D01*
X95169882Y-147323435D01*
X95224477Y-147287768D01*
X95407368Y-147119404D01*
X95523610Y-146970057D01*
X96414136Y-147860583D01*
X96414137Y-147860583D01*
X96567343Y-147665030D01*
X96739454Y-147380321D01*
X96739456Y-147380319D01*
X96875994Y-147076943D01*
X96876000Y-147076928D01*
X96974967Y-146759329D01*
X97034939Y-146432076D01*
X97055025Y-146100000D01*
X97034939Y-145767923D01*
X96974967Y-145440670D01*
X96876000Y-145123071D01*
X96875994Y-145123056D01*
X96739456Y-144819680D01*
X96739454Y-144819678D01*
X96567342Y-144534968D01*
X96567337Y-144534960D01*
X96414136Y-144339415D01*
X95523609Y-145229942D01*
X95407368Y-145080596D01*
X95224477Y-144912232D01*
X95169882Y-144876563D01*
X96060583Y-143985862D01*
X96060583Y-143985861D01*
X95865039Y-143832662D01*
X95865031Y-143832657D01*
X95580321Y-143660545D01*
X95580319Y-143660543D01*
X95276943Y-143524005D01*
X95276928Y-143523999D01*
X94959329Y-143425032D01*
X94632076Y-143365060D01*
X94300000Y-143344974D01*
X93967923Y-143365060D01*
X93640670Y-143425032D01*
X93323071Y-143523999D01*
X93323056Y-143524005D01*
X93019680Y-143660543D01*
X93019678Y-143660545D01*
X92734968Y-143832657D01*
X92539415Y-143985862D01*
X93430117Y-144876564D01*
X93375523Y-144912232D01*
X93192632Y-145080596D01*
X93076389Y-145229942D01*
X92185862Y-144339415D01*
X92131986Y-144342674D01*
X92063881Y-144327073D01*
X92015021Y-144277127D01*
X92000500Y-144218900D01*
X92000500Y-137750002D01*
X92544726Y-137750002D01*
X92563808Y-138101954D01*
X92620833Y-138449793D01*
X92620834Y-138449796D01*
X92715126Y-138789408D01*
X92715127Y-138789410D01*
X92845588Y-139116844D01*
X92845597Y-139116862D01*
X92964235Y-139340637D01*
X93010695Y-139428269D01*
X93193661Y-139698124D01*
X93208498Y-139720006D01*
X93208505Y-139720016D01*
X93300455Y-139828267D01*
X93436686Y-139988650D01*
X93692580Y-140231046D01*
X93973182Y-140444354D01*
X94275202Y-140626074D01*
X94275206Y-140626075D01*
X94275210Y-140626078D01*
X94595088Y-140774070D01*
X94595092Y-140774070D01*
X94595099Y-140774074D01*
X94929122Y-140886619D01*
X95273355Y-140962391D01*
X95623763Y-141000500D01*
X95623769Y-141000500D01*
X95976231Y-141000500D01*
X95976237Y-141000500D01*
X96326645Y-140962391D01*
X96670878Y-140886619D01*
X97004901Y-140774074D01*
X97004908Y-140774070D01*
X97004911Y-140774070D01*
X97324789Y-140626078D01*
X97324798Y-140626074D01*
X97626818Y-140444354D01*
X97907420Y-140231046D01*
X98163314Y-139988650D01*
X98391501Y-139720008D01*
X98589305Y-139428269D01*
X98754407Y-139116854D01*
X98884871Y-138789414D01*
X98979168Y-138449788D01*
X99036191Y-138101957D01*
X99055274Y-137750002D01*
X128244726Y-137750002D01*
X128263808Y-138101954D01*
X128320833Y-138449793D01*
X128320834Y-138449796D01*
X128415126Y-138789408D01*
X128415127Y-138789410D01*
X128545588Y-139116844D01*
X128545597Y-139116862D01*
X128664235Y-139340637D01*
X128710695Y-139428269D01*
X128893661Y-139698124D01*
X128908498Y-139720006D01*
X128908505Y-139720016D01*
X129000455Y-139828267D01*
X129136686Y-139988650D01*
X129392580Y-140231046D01*
X129673182Y-140444354D01*
X129975202Y-140626074D01*
X129975206Y-140626075D01*
X129975210Y-140626078D01*
X130295088Y-140774070D01*
X130295092Y-140774070D01*
X130295099Y-140774074D01*
X130629122Y-140886619D01*
X130973355Y-140962391D01*
X131323763Y-141000500D01*
X131323769Y-141000500D01*
X131676231Y-141000500D01*
X131676237Y-141000500D01*
X132026645Y-140962391D01*
X132370878Y-140886619D01*
X132704901Y-140774074D01*
X132704908Y-140774070D01*
X132704911Y-140774070D01*
X133024789Y-140626078D01*
X133024798Y-140626074D01*
X133326818Y-140444354D01*
X133607420Y-140231046D01*
X133863314Y-139988650D01*
X134091501Y-139720008D01*
X134289305Y-139428269D01*
X134454407Y-139116854D01*
X134584871Y-138789414D01*
X134679168Y-138449788D01*
X134736191Y-138101957D01*
X134755274Y-137750000D01*
X134736191Y-137398043D01*
X134679168Y-137050212D01*
X134634450Y-136889154D01*
X134584873Y-136710591D01*
X134584872Y-136710589D01*
X134454411Y-136383155D01*
X134454402Y-136383137D01*
X134453052Y-136380591D01*
X134289305Y-136071731D01*
X134091501Y-135779992D01*
X134091497Y-135779987D01*
X134091494Y-135779983D01*
X133863314Y-135511350D01*
X133706591Y-135362894D01*
X133671458Y-135302500D01*
X133674553Y-135232699D01*
X133714895Y-135175652D01*
X133779674Y-135149472D01*
X133782590Y-135149218D01*
X133829036Y-135145738D01*
X133961621Y-135135803D01*
X133961622Y-135135802D01*
X133961630Y-135135802D01*
X134217416Y-135077420D01*
X134461643Y-134981568D01*
X134688857Y-134850386D01*
X134893981Y-134686805D01*
X135072433Y-134494479D01*
X135220228Y-134277704D01*
X135334063Y-134041323D01*
X135411396Y-133790615D01*
X135450500Y-133531182D01*
X135450500Y-133268818D01*
X135411396Y-133009385D01*
X135334063Y-132758677D01*
X135322121Y-132733880D01*
X135220232Y-132522303D01*
X135220231Y-132522302D01*
X135220230Y-132522301D01*
X135220228Y-132522296D01*
X135072433Y-132305521D01*
X135062441Y-132294753D01*
X134893985Y-132113198D01*
X134757590Y-132004427D01*
X134688857Y-131949614D01*
X134461643Y-131818432D01*
X134217416Y-131722580D01*
X134217411Y-131722578D01*
X134217402Y-131722576D01*
X133999818Y-131672914D01*
X133961630Y-131664198D01*
X133961629Y-131664197D01*
X133961625Y-131664197D01*
X133961620Y-131664196D01*
X133765515Y-131649500D01*
X133765494Y-131649500D01*
X133634506Y-131649500D01*
X133634484Y-131649500D01*
X133438379Y-131664196D01*
X133438374Y-131664197D01*
X133182597Y-131722576D01*
X133182578Y-131722582D01*
X132938356Y-131818432D01*
X132711143Y-131949614D01*
X132506014Y-132113198D01*
X132327567Y-132305520D01*
X132179768Y-132522302D01*
X132179767Y-132522303D01*
X132065938Y-132758673D01*
X131988606Y-133009376D01*
X131988605Y-133009381D01*
X131988604Y-133009385D01*
X131973853Y-133107247D01*
X131949500Y-133268812D01*
X131949500Y-133531187D01*
X131969794Y-133665823D01*
X131988604Y-133790615D01*
X131988605Y-133790617D01*
X131988606Y-133790623D01*
X132065938Y-134041326D01*
X132179767Y-134277696D01*
X132179768Y-134277697D01*
X132179770Y-134277700D01*
X132179772Y-134277704D01*
X132239325Y-134365052D01*
X132260825Y-134431531D01*
X132242971Y-134499081D01*
X132191431Y-134546255D01*
X132122568Y-134558075D01*
X132110215Y-134556004D01*
X132026644Y-134537608D01*
X131676238Y-134499500D01*
X131676237Y-134499500D01*
X131323763Y-134499500D01*
X131323761Y-134499500D01*
X130973356Y-134537608D01*
X130629119Y-134613381D01*
X130295093Y-134725928D01*
X130295088Y-134725929D01*
X129975210Y-134873921D01*
X129975197Y-134873928D01*
X129673184Y-135055644D01*
X129392589Y-135268946D01*
X129392580Y-135268954D01*
X129136685Y-135511350D01*
X128908505Y-135779983D01*
X128908498Y-135779993D01*
X128710695Y-136071730D01*
X128545597Y-136383137D01*
X128545588Y-136383155D01*
X128415127Y-136710589D01*
X128415126Y-136710591D01*
X128320834Y-137050203D01*
X128320833Y-137050206D01*
X128263808Y-137398045D01*
X128244726Y-137749997D01*
X128244726Y-137750002D01*
X99055274Y-137750002D01*
X99055274Y-137750000D01*
X99036191Y-137398043D01*
X98979168Y-137050212D01*
X98934450Y-136889154D01*
X98884873Y-136710591D01*
X98884872Y-136710589D01*
X98754411Y-136383155D01*
X98754402Y-136383137D01*
X98753052Y-136380591D01*
X98589305Y-136071731D01*
X98391501Y-135779992D01*
X98391497Y-135779987D01*
X98391494Y-135779983D01*
X98163314Y-135511350D01*
X98006591Y-135362894D01*
X97907420Y-135268954D01*
X97907413Y-135268948D01*
X97907410Y-135268946D01*
X97626815Y-135055644D01*
X97324802Y-134873928D01*
X97324789Y-134873921D01*
X97004911Y-134725929D01*
X97004906Y-134725928D01*
X97004903Y-134725927D01*
X97004901Y-134725926D01*
X96888782Y-134686801D01*
X96670880Y-134613381D01*
X96326643Y-134537608D01*
X95976238Y-134499500D01*
X95976237Y-134499500D01*
X95903629Y-134499500D01*
X95836590Y-134479815D01*
X95790835Y-134427011D01*
X95780891Y-134357853D01*
X95801176Y-134305648D01*
X95820228Y-134277704D01*
X95934063Y-134041323D01*
X96011396Y-133790615D01*
X96050500Y-133531182D01*
X96050500Y-133268818D01*
X96011396Y-133009385D01*
X95934063Y-132758677D01*
X95922121Y-132733880D01*
X95820232Y-132522303D01*
X95820231Y-132522302D01*
X95820230Y-132522301D01*
X95820228Y-132522296D01*
X95672433Y-132305521D01*
X95662441Y-132294753D01*
X95493985Y-132113198D01*
X95357590Y-132004427D01*
X95288857Y-131949614D01*
X95061643Y-131818432D01*
X94817416Y-131722580D01*
X94817411Y-131722578D01*
X94817402Y-131722576D01*
X94599818Y-131672914D01*
X94561630Y-131664198D01*
X94561629Y-131664197D01*
X94561625Y-131664197D01*
X94561620Y-131664196D01*
X94365515Y-131649500D01*
X94365494Y-131649500D01*
X94234506Y-131649500D01*
X94234484Y-131649500D01*
X94038379Y-131664196D01*
X94038374Y-131664197D01*
X93782597Y-131722576D01*
X93782578Y-131722582D01*
X93538356Y-131818432D01*
X93311143Y-131949614D01*
X93106014Y-132113198D01*
X92927567Y-132305520D01*
X92779768Y-132522302D01*
X92779767Y-132522303D01*
X92665938Y-132758673D01*
X92588606Y-133009376D01*
X92588605Y-133009381D01*
X92588604Y-133009385D01*
X92573853Y-133107247D01*
X92549500Y-133268812D01*
X92549500Y-133531187D01*
X92569794Y-133665823D01*
X92588604Y-133790615D01*
X92588605Y-133790617D01*
X92588606Y-133790623D01*
X92665938Y-134041326D01*
X92779767Y-134277696D01*
X92779768Y-134277697D01*
X92779770Y-134277700D01*
X92779772Y-134277704D01*
X92881568Y-134427011D01*
X92927567Y-134494479D01*
X93106014Y-134686801D01*
X93106018Y-134686804D01*
X93106019Y-134686805D01*
X93311143Y-134850386D01*
X93538357Y-134981568D01*
X93683996Y-135038727D01*
X93739210Y-135081543D01*
X93762511Y-135147413D01*
X93746500Y-135215423D01*
X93713738Y-135252869D01*
X93692587Y-135268948D01*
X93692580Y-135268954D01*
X93436685Y-135511350D01*
X93208505Y-135779983D01*
X93208498Y-135779993D01*
X93010695Y-136071730D01*
X92845597Y-136383137D01*
X92845588Y-136383155D01*
X92715127Y-136710589D01*
X92715126Y-136710591D01*
X92620834Y-137050203D01*
X92620833Y-137050206D01*
X92563808Y-137398045D01*
X92544726Y-137749997D01*
X92544726Y-137750002D01*
X92000500Y-137750002D01*
X92000500Y-132004427D01*
X92000816Y-131995581D01*
X92015130Y-131795443D01*
X92015131Y-131795442D01*
X92015130Y-131795436D01*
X92017646Y-131777938D01*
X92059356Y-131586199D01*
X92064333Y-131569248D01*
X92132911Y-131385385D01*
X92140259Y-131369298D01*
X92202815Y-131254734D01*
X92234291Y-131197089D01*
X92243845Y-131182221D01*
X92361448Y-131025123D01*
X92373020Y-131011769D01*
X92511769Y-130873020D01*
X92525123Y-130861448D01*
X92682221Y-130743845D01*
X92697089Y-130734291D01*
X92869298Y-130640258D01*
X92885385Y-130632911D01*
X93069248Y-130564333D01*
X93086199Y-130559356D01*
X93277938Y-130517646D01*
X93295436Y-130515130D01*
X93495582Y-130500816D01*
X93504428Y-130500500D01*
X93565892Y-130500500D01*
X134434108Y-130500500D01*
X134495572Y-130500500D01*
X134504418Y-130500816D01*
G37*
%TD.AperFunction*%
%TA.AperFunction,Conductor*%
G36*
X135828851Y-147875298D02*
G01*
X135843059Y-147878553D01*
X135891920Y-147928496D01*
X135906023Y-147996928D01*
X135898625Y-148030061D01*
X135867090Y-148114609D01*
X135859740Y-148130701D01*
X135765711Y-148302904D01*
X135756146Y-148317789D01*
X135638558Y-148474867D01*
X135626972Y-148488237D01*
X135488237Y-148626972D01*
X135474867Y-148638558D01*
X135317789Y-148756146D01*
X135302904Y-148765711D01*
X135130701Y-148859740D01*
X135114609Y-148867090D01*
X134930763Y-148935662D01*
X134913787Y-148940646D01*
X134722068Y-148982351D01*
X134704557Y-148984869D01*
X134523779Y-148997799D01*
X134504417Y-148999184D01*
X134495572Y-148999500D01*
X134453511Y-148999500D01*
X134386472Y-148979815D01*
X134340717Y-148927011D01*
X134330773Y-148857853D01*
X134359798Y-148794297D01*
X134416621Y-148757115D01*
X134676928Y-148676000D01*
X134676943Y-148675994D01*
X134980319Y-148539456D01*
X134980321Y-148539454D01*
X135265030Y-148367343D01*
X135460583Y-148214137D01*
X135460583Y-148214136D01*
X134569882Y-147323435D01*
X134624477Y-147287768D01*
X134807368Y-147119404D01*
X134923610Y-146970057D01*
X135828851Y-147875298D01*
G37*
%TD.AperFunction*%
%TD*%
%TA.AperFunction,Conductor*%
%TO.N,GND*%
G36*
X48192632Y-166619404D02*
G01*
X48375523Y-166787768D01*
X48430116Y-166823435D01*
X47539415Y-167714136D01*
X47539415Y-167714137D01*
X47734960Y-167867337D01*
X47734968Y-167867342D01*
X48019678Y-168039454D01*
X48019680Y-168039456D01*
X48323056Y-168175994D01*
X48323071Y-168176000D01*
X48583379Y-168257115D01*
X48641527Y-168295852D01*
X48669501Y-168359877D01*
X48658419Y-168428863D01*
X48611801Y-168480906D01*
X48546489Y-168499500D01*
X48504428Y-168499500D01*
X48495582Y-168499184D01*
X48473622Y-168497613D01*
X48295442Y-168484869D01*
X48277931Y-168482351D01*
X48086212Y-168440646D01*
X48069236Y-168435662D01*
X47885390Y-168367090D01*
X47869298Y-168359740D01*
X47697095Y-168265711D01*
X47682210Y-168256146D01*
X47525132Y-168138558D01*
X47511762Y-168126972D01*
X47373027Y-167988237D01*
X47361441Y-167974867D01*
X47280949Y-167867343D01*
X47243849Y-167817784D01*
X47234288Y-167802904D01*
X47140259Y-167630701D01*
X47132909Y-167614609D01*
X47101374Y-167530061D01*
X47096390Y-167460369D01*
X47129875Y-167399046D01*
X47168480Y-167377965D01*
X48076389Y-166470056D01*
X48192632Y-166619404D01*
G37*
%TD.AperFunction*%
%TA.AperFunction,Conductor*%
G36*
X89504418Y-150000816D02*
G01*
X89704561Y-150015130D01*
X89722063Y-150017647D01*
X89913797Y-150059355D01*
X89930755Y-150064334D01*
X90114609Y-150132909D01*
X90130701Y-150140259D01*
X90302904Y-150234288D01*
X90317784Y-150243849D01*
X90474867Y-150361441D01*
X90488237Y-150373027D01*
X90626972Y-150511762D01*
X90638558Y-150525132D01*
X90756146Y-150682210D01*
X90765711Y-150697095D01*
X90859740Y-150869298D01*
X90867090Y-150885390D01*
X90935662Y-151069236D01*
X90940646Y-151086212D01*
X90982351Y-151277931D01*
X90984869Y-151295442D01*
X90999184Y-151495580D01*
X90999500Y-151504427D01*
X90999500Y-163718900D01*
X90979815Y-163785939D01*
X90927011Y-163831694D01*
X90868014Y-163842674D01*
X90814136Y-163839415D01*
X89923609Y-164729942D01*
X89807368Y-164580596D01*
X89624477Y-164412232D01*
X89569882Y-164376563D01*
X90460583Y-163485862D01*
X90460583Y-163485861D01*
X90265039Y-163332662D01*
X90265031Y-163332657D01*
X89980321Y-163160545D01*
X89980319Y-163160543D01*
X89676943Y-163024005D01*
X89676928Y-163023999D01*
X89359329Y-162925032D01*
X89032076Y-162865060D01*
X88700000Y-162844974D01*
X88367923Y-162865060D01*
X88040670Y-162925032D01*
X87723071Y-163023999D01*
X87723056Y-163024005D01*
X87419680Y-163160543D01*
X87419678Y-163160545D01*
X87134968Y-163332657D01*
X86939415Y-163485862D01*
X87830117Y-164376564D01*
X87775523Y-164412232D01*
X87592632Y-164580596D01*
X87476389Y-164729942D01*
X86585862Y-163839415D01*
X86432657Y-164034968D01*
X86260545Y-164319678D01*
X86260543Y-164319680D01*
X86124005Y-164623056D01*
X86123999Y-164623071D01*
X86025032Y-164940670D01*
X85965060Y-165267923D01*
X85944974Y-165600000D01*
X85965060Y-165932076D01*
X86025032Y-166259329D01*
X86123999Y-166576928D01*
X86124005Y-166576943D01*
X86260543Y-166880319D01*
X86260545Y-166880321D01*
X86432657Y-167165031D01*
X86432662Y-167165039D01*
X86585862Y-167360583D01*
X87476389Y-166470056D01*
X87592632Y-166619404D01*
X87775523Y-166787768D01*
X87830116Y-166823435D01*
X86939415Y-167714136D01*
X86939415Y-167714137D01*
X87134960Y-167867337D01*
X87134968Y-167867342D01*
X87419678Y-168039454D01*
X87419680Y-168039456D01*
X87723056Y-168175994D01*
X87723071Y-168176000D01*
X87983379Y-168257115D01*
X88041527Y-168295852D01*
X88069501Y-168359877D01*
X88058419Y-168428863D01*
X88011801Y-168480906D01*
X87946489Y-168499500D01*
X50053511Y-168499500D01*
X49986472Y-168479815D01*
X49940717Y-168427011D01*
X49930773Y-168357853D01*
X49959798Y-168294297D01*
X50016621Y-168257115D01*
X50276928Y-168176000D01*
X50276943Y-168175994D01*
X50580319Y-168039456D01*
X50580321Y-168039454D01*
X50865030Y-167867343D01*
X51060583Y-167714137D01*
X51060583Y-167714136D01*
X50169882Y-166823435D01*
X50224477Y-166787768D01*
X50407368Y-166619404D01*
X50523610Y-166470057D01*
X51414136Y-167360583D01*
X51414137Y-167360583D01*
X51567343Y-167165030D01*
X51739454Y-166880321D01*
X51739456Y-166880319D01*
X51875994Y-166576943D01*
X51876000Y-166576928D01*
X51974967Y-166259329D01*
X52034939Y-165932076D01*
X52055025Y-165600000D01*
X52034939Y-165267923D01*
X51974967Y-164940670D01*
X51876000Y-164623071D01*
X51875994Y-164623056D01*
X51739456Y-164319680D01*
X51739454Y-164319678D01*
X51567342Y-164034968D01*
X51567337Y-164034960D01*
X51414136Y-163839415D01*
X50523609Y-164729942D01*
X50407368Y-164580596D01*
X50224477Y-164412232D01*
X50169882Y-164376563D01*
X51060583Y-163485862D01*
X51060583Y-163485861D01*
X50865039Y-163332662D01*
X50865031Y-163332657D01*
X50580321Y-163160545D01*
X50580319Y-163160543D01*
X50276943Y-163024005D01*
X50276928Y-163023999D01*
X49959329Y-162925032D01*
X49632076Y-162865060D01*
X49300000Y-162844974D01*
X48967923Y-162865060D01*
X48640670Y-162925032D01*
X48323071Y-163023999D01*
X48323056Y-163024005D01*
X48019680Y-163160543D01*
X48019678Y-163160545D01*
X47734968Y-163332657D01*
X47539415Y-163485862D01*
X48430117Y-164376564D01*
X48375523Y-164412232D01*
X48192632Y-164580596D01*
X48076389Y-164729942D01*
X47185862Y-163839415D01*
X47131986Y-163842674D01*
X47063881Y-163827073D01*
X47015021Y-163777127D01*
X47000500Y-163718900D01*
X47000500Y-157250002D01*
X47544726Y-157250002D01*
X47563808Y-157601954D01*
X47620833Y-157949793D01*
X47620834Y-157949796D01*
X47715126Y-158289408D01*
X47715127Y-158289410D01*
X47845588Y-158616844D01*
X47845597Y-158616862D01*
X47964235Y-158840637D01*
X48010695Y-158928269D01*
X48193661Y-159198124D01*
X48208498Y-159220006D01*
X48208505Y-159220016D01*
X48300455Y-159328267D01*
X48436686Y-159488650D01*
X48692580Y-159731046D01*
X48973182Y-159944354D01*
X49275202Y-160126074D01*
X49275206Y-160126075D01*
X49275210Y-160126078D01*
X49595088Y-160274070D01*
X49595092Y-160274070D01*
X49595099Y-160274074D01*
X49929122Y-160386619D01*
X50273355Y-160462391D01*
X50623763Y-160500500D01*
X50623769Y-160500500D01*
X50976231Y-160500500D01*
X50976237Y-160500500D01*
X51326645Y-160462391D01*
X51670878Y-160386619D01*
X52004901Y-160274074D01*
X52004908Y-160274070D01*
X52004911Y-160274070D01*
X52324789Y-160126078D01*
X52324798Y-160126074D01*
X52626818Y-159944354D01*
X52907420Y-159731046D01*
X53163314Y-159488650D01*
X53391501Y-159220008D01*
X53589305Y-158928269D01*
X53754407Y-158616854D01*
X53884871Y-158289414D01*
X53979168Y-157949788D01*
X54036191Y-157601957D01*
X54055274Y-157250002D01*
X83244726Y-157250002D01*
X83263808Y-157601954D01*
X83320833Y-157949793D01*
X83320834Y-157949796D01*
X83415126Y-158289408D01*
X83415127Y-158289410D01*
X83545588Y-158616844D01*
X83545597Y-158616862D01*
X83664235Y-158840637D01*
X83710695Y-158928269D01*
X83893661Y-159198124D01*
X83908498Y-159220006D01*
X83908505Y-159220016D01*
X84000455Y-159328267D01*
X84136686Y-159488650D01*
X84392580Y-159731046D01*
X84673182Y-159944354D01*
X84975202Y-160126074D01*
X84975206Y-160126075D01*
X84975210Y-160126078D01*
X85295088Y-160274070D01*
X85295092Y-160274070D01*
X85295099Y-160274074D01*
X85629122Y-160386619D01*
X85973355Y-160462391D01*
X86323763Y-160500500D01*
X86323769Y-160500500D01*
X86676231Y-160500500D01*
X86676237Y-160500500D01*
X87026645Y-160462391D01*
X87370878Y-160386619D01*
X87704901Y-160274074D01*
X87704908Y-160274070D01*
X87704911Y-160274070D01*
X88024789Y-160126078D01*
X88024798Y-160126074D01*
X88326818Y-159944354D01*
X88607420Y-159731046D01*
X88863314Y-159488650D01*
X89091501Y-159220008D01*
X89289305Y-158928269D01*
X89454407Y-158616854D01*
X89584871Y-158289414D01*
X89679168Y-157949788D01*
X89736191Y-157601957D01*
X89755274Y-157250000D01*
X89736191Y-156898043D01*
X89679168Y-156550212D01*
X89634450Y-156389154D01*
X89584873Y-156210591D01*
X89584872Y-156210589D01*
X89454411Y-155883155D01*
X89454402Y-155883137D01*
X89453052Y-155880591D01*
X89289305Y-155571731D01*
X89091501Y-155279992D01*
X89091497Y-155279987D01*
X89091494Y-155279983D01*
X88863314Y-155011350D01*
X88706591Y-154862894D01*
X88671458Y-154802500D01*
X88674553Y-154732699D01*
X88714895Y-154675652D01*
X88779674Y-154649472D01*
X88782590Y-154649218D01*
X88829036Y-154645738D01*
X88961621Y-154635803D01*
X88961622Y-154635802D01*
X88961630Y-154635802D01*
X89217416Y-154577420D01*
X89461643Y-154481568D01*
X89688857Y-154350386D01*
X89893981Y-154186805D01*
X90072433Y-153994479D01*
X90220228Y-153777704D01*
X90334063Y-153541323D01*
X90411396Y-153290615D01*
X90450500Y-153031182D01*
X90450500Y-152768818D01*
X90411396Y-152509385D01*
X90334063Y-152258677D01*
X90322121Y-152233880D01*
X90220232Y-152022303D01*
X90220231Y-152022302D01*
X90220230Y-152022301D01*
X90220228Y-152022296D01*
X90072433Y-151805521D01*
X90062441Y-151794753D01*
X89893985Y-151613198D01*
X89757590Y-151504427D01*
X89688857Y-151449614D01*
X89461643Y-151318432D01*
X89217416Y-151222580D01*
X89217411Y-151222578D01*
X89217402Y-151222576D01*
X88999818Y-151172914D01*
X88961630Y-151164198D01*
X88961629Y-151164197D01*
X88961625Y-151164197D01*
X88961620Y-151164196D01*
X88765515Y-151149500D01*
X88765494Y-151149500D01*
X88634506Y-151149500D01*
X88634484Y-151149500D01*
X88438379Y-151164196D01*
X88438374Y-151164197D01*
X88182597Y-151222576D01*
X88182578Y-151222582D01*
X87938356Y-151318432D01*
X87711143Y-151449614D01*
X87506014Y-151613198D01*
X87327567Y-151805520D01*
X87179768Y-152022302D01*
X87179767Y-152022303D01*
X87065938Y-152258673D01*
X86988606Y-152509376D01*
X86988605Y-152509381D01*
X86988604Y-152509385D01*
X86973853Y-152607247D01*
X86949500Y-152768812D01*
X86949500Y-153031187D01*
X86969794Y-153165823D01*
X86988604Y-153290615D01*
X86988605Y-153290617D01*
X86988606Y-153290623D01*
X87065938Y-153541326D01*
X87179767Y-153777696D01*
X87179768Y-153777697D01*
X87179770Y-153777700D01*
X87179772Y-153777704D01*
X87239325Y-153865052D01*
X87260825Y-153931531D01*
X87242971Y-153999081D01*
X87191431Y-154046255D01*
X87122568Y-154058075D01*
X87110215Y-154056004D01*
X87026644Y-154037608D01*
X86676238Y-153999500D01*
X86676237Y-153999500D01*
X86323763Y-153999500D01*
X86323761Y-153999500D01*
X85973356Y-154037608D01*
X85629119Y-154113381D01*
X85295093Y-154225928D01*
X85295088Y-154225929D01*
X84975210Y-154373921D01*
X84975197Y-154373928D01*
X84673184Y-154555644D01*
X84392589Y-154768946D01*
X84392580Y-154768954D01*
X84136685Y-155011350D01*
X83908505Y-155279983D01*
X83908498Y-155279993D01*
X83710695Y-155571730D01*
X83545597Y-155883137D01*
X83545588Y-155883155D01*
X83415127Y-156210589D01*
X83415126Y-156210591D01*
X83320834Y-156550203D01*
X83320833Y-156550206D01*
X83263808Y-156898045D01*
X83244726Y-157249997D01*
X83244726Y-157250002D01*
X54055274Y-157250002D01*
X54055274Y-157250000D01*
X54036191Y-156898043D01*
X53979168Y-156550212D01*
X53934450Y-156389154D01*
X53884873Y-156210591D01*
X53884872Y-156210589D01*
X53754411Y-155883155D01*
X53754402Y-155883137D01*
X53753052Y-155880591D01*
X53589305Y-155571731D01*
X53391501Y-155279992D01*
X53391497Y-155279987D01*
X53391494Y-155279983D01*
X53163314Y-155011350D01*
X53006591Y-154862894D01*
X52907420Y-154768954D01*
X52907413Y-154768948D01*
X52907410Y-154768946D01*
X52626815Y-154555644D01*
X52324802Y-154373928D01*
X52324789Y-154373921D01*
X52004911Y-154225929D01*
X52004906Y-154225928D01*
X52004903Y-154225927D01*
X52004901Y-154225926D01*
X51888782Y-154186801D01*
X51670880Y-154113381D01*
X51326643Y-154037608D01*
X50976238Y-153999500D01*
X50976237Y-153999500D01*
X50903629Y-153999500D01*
X50836590Y-153979815D01*
X50790835Y-153927011D01*
X50780891Y-153857853D01*
X50801176Y-153805648D01*
X50820228Y-153777704D01*
X50934063Y-153541323D01*
X51011396Y-153290615D01*
X51050500Y-153031182D01*
X51050500Y-152768818D01*
X51011396Y-152509385D01*
X50934063Y-152258677D01*
X50922121Y-152233880D01*
X50820232Y-152022303D01*
X50820231Y-152022302D01*
X50820230Y-152022301D01*
X50820228Y-152022296D01*
X50672433Y-151805521D01*
X50662441Y-151794753D01*
X50493985Y-151613198D01*
X50357590Y-151504427D01*
X50288857Y-151449614D01*
X50061643Y-151318432D01*
X49817416Y-151222580D01*
X49817411Y-151222578D01*
X49817402Y-151222576D01*
X49599818Y-151172914D01*
X49561630Y-151164198D01*
X49561629Y-151164197D01*
X49561625Y-151164197D01*
X49561620Y-151164196D01*
X49365515Y-151149500D01*
X49365494Y-151149500D01*
X49234506Y-151149500D01*
X49234484Y-151149500D01*
X49038379Y-151164196D01*
X49038374Y-151164197D01*
X48782597Y-151222576D01*
X48782578Y-151222582D01*
X48538356Y-151318432D01*
X48311143Y-151449614D01*
X48106014Y-151613198D01*
X47927567Y-151805520D01*
X47779768Y-152022302D01*
X47779767Y-152022303D01*
X47665938Y-152258673D01*
X47588606Y-152509376D01*
X47588605Y-152509381D01*
X47588604Y-152509385D01*
X47573853Y-152607247D01*
X47549500Y-152768812D01*
X47549500Y-153031187D01*
X47569794Y-153165823D01*
X47588604Y-153290615D01*
X47588605Y-153290617D01*
X47588606Y-153290623D01*
X47665938Y-153541326D01*
X47779767Y-153777696D01*
X47779768Y-153777697D01*
X47779770Y-153777700D01*
X47779772Y-153777704D01*
X47881568Y-153927011D01*
X47927567Y-153994479D01*
X48106014Y-154186801D01*
X48106018Y-154186804D01*
X48106019Y-154186805D01*
X48311143Y-154350386D01*
X48538357Y-154481568D01*
X48683996Y-154538727D01*
X48739210Y-154581543D01*
X48762511Y-154647413D01*
X48746500Y-154715423D01*
X48713738Y-154752869D01*
X48692587Y-154768948D01*
X48692580Y-154768954D01*
X48436685Y-155011350D01*
X48208505Y-155279983D01*
X48208498Y-155279993D01*
X48010695Y-155571730D01*
X47845597Y-155883137D01*
X47845588Y-155883155D01*
X47715127Y-156210589D01*
X47715126Y-156210591D01*
X47620834Y-156550203D01*
X47620833Y-156550206D01*
X47563808Y-156898045D01*
X47544726Y-157249997D01*
X47544726Y-157250002D01*
X47000500Y-157250002D01*
X47000500Y-151504427D01*
X47000816Y-151495581D01*
X47015130Y-151295443D01*
X47015131Y-151295442D01*
X47015130Y-151295436D01*
X47017646Y-151277938D01*
X47059356Y-151086199D01*
X47064333Y-151069248D01*
X47132911Y-150885385D01*
X47140259Y-150869298D01*
X47202815Y-150754734D01*
X47234291Y-150697089D01*
X47243845Y-150682221D01*
X47361448Y-150525123D01*
X47373020Y-150511769D01*
X47511769Y-150373020D01*
X47525123Y-150361448D01*
X47682221Y-150243845D01*
X47697089Y-150234291D01*
X47869298Y-150140258D01*
X47885385Y-150132911D01*
X48069248Y-150064333D01*
X48086199Y-150059356D01*
X48277938Y-150017646D01*
X48295436Y-150015130D01*
X48495582Y-150000816D01*
X48504428Y-150000500D01*
X48565892Y-150000500D01*
X89434108Y-150000500D01*
X89495572Y-150000500D01*
X89504418Y-150000816D01*
G37*
%TD.AperFunction*%
%TA.AperFunction,Conductor*%
G36*
X90828851Y-167375298D02*
G01*
X90843059Y-167378553D01*
X90891920Y-167428496D01*
X90906023Y-167496928D01*
X90898625Y-167530061D01*
X90867090Y-167614609D01*
X90859740Y-167630701D01*
X90765711Y-167802904D01*
X90756146Y-167817789D01*
X90638558Y-167974867D01*
X90626972Y-167988237D01*
X90488237Y-168126972D01*
X90474867Y-168138558D01*
X90317789Y-168256146D01*
X90302904Y-168265711D01*
X90130701Y-168359740D01*
X90114609Y-168367090D01*
X89930763Y-168435662D01*
X89913787Y-168440646D01*
X89722068Y-168482351D01*
X89704557Y-168484869D01*
X89523779Y-168497799D01*
X89504417Y-168499184D01*
X89495572Y-168499500D01*
X89453511Y-168499500D01*
X89386472Y-168479815D01*
X89340717Y-168427011D01*
X89330773Y-168357853D01*
X89359798Y-168294297D01*
X89416621Y-168257115D01*
X89676928Y-168176000D01*
X89676943Y-168175994D01*
X89980319Y-168039456D01*
X89980321Y-168039454D01*
X90265030Y-167867343D01*
X90460583Y-167714137D01*
X90460583Y-167714136D01*
X89569882Y-166823435D01*
X89624477Y-166787768D01*
X89807368Y-166619404D01*
X89923610Y-166470057D01*
X90828851Y-167375298D01*
G37*
%TD.AperFunction*%
%TD*%
%TA.AperFunction,Conductor*%
%TO.N,GND*%
G36*
X93192632Y-166619404D02*
G01*
X93375523Y-166787768D01*
X93430116Y-166823435D01*
X92539415Y-167714136D01*
X92539415Y-167714137D01*
X92734960Y-167867337D01*
X92734968Y-167867342D01*
X93019678Y-168039454D01*
X93019680Y-168039456D01*
X93323056Y-168175994D01*
X93323071Y-168176000D01*
X93583379Y-168257115D01*
X93641527Y-168295852D01*
X93669501Y-168359877D01*
X93658419Y-168428863D01*
X93611801Y-168480906D01*
X93546489Y-168499500D01*
X93504428Y-168499500D01*
X93495582Y-168499184D01*
X93473622Y-168497613D01*
X93295442Y-168484869D01*
X93277931Y-168482351D01*
X93086212Y-168440646D01*
X93069236Y-168435662D01*
X92885390Y-168367090D01*
X92869298Y-168359740D01*
X92697095Y-168265711D01*
X92682210Y-168256146D01*
X92525132Y-168138558D01*
X92511762Y-168126972D01*
X92373027Y-167988237D01*
X92361441Y-167974867D01*
X92280949Y-167867343D01*
X92243849Y-167817784D01*
X92234288Y-167802904D01*
X92140259Y-167630701D01*
X92132909Y-167614609D01*
X92101374Y-167530061D01*
X92096390Y-167460369D01*
X92129875Y-167399046D01*
X92168480Y-167377965D01*
X93076389Y-166470056D01*
X93192632Y-166619404D01*
G37*
%TD.AperFunction*%
%TA.AperFunction,Conductor*%
G36*
X134504418Y-150000816D02*
G01*
X134704561Y-150015130D01*
X134722063Y-150017647D01*
X134913797Y-150059355D01*
X134930755Y-150064334D01*
X135114609Y-150132909D01*
X135130701Y-150140259D01*
X135302904Y-150234288D01*
X135317784Y-150243849D01*
X135474867Y-150361441D01*
X135488237Y-150373027D01*
X135626972Y-150511762D01*
X135638558Y-150525132D01*
X135756146Y-150682210D01*
X135765711Y-150697095D01*
X135859740Y-150869298D01*
X135867090Y-150885390D01*
X135935662Y-151069236D01*
X135940646Y-151086212D01*
X135982351Y-151277931D01*
X135984869Y-151295442D01*
X135999184Y-151495580D01*
X135999500Y-151504427D01*
X135999500Y-163718900D01*
X135979815Y-163785939D01*
X135927011Y-163831694D01*
X135868014Y-163842674D01*
X135814136Y-163839415D01*
X134923609Y-164729942D01*
X134807368Y-164580596D01*
X134624477Y-164412232D01*
X134569882Y-164376563D01*
X135460583Y-163485862D01*
X135460583Y-163485861D01*
X135265039Y-163332662D01*
X135265031Y-163332657D01*
X134980321Y-163160545D01*
X134980319Y-163160543D01*
X134676943Y-163024005D01*
X134676928Y-163023999D01*
X134359329Y-162925032D01*
X134032076Y-162865060D01*
X133700000Y-162844974D01*
X133367923Y-162865060D01*
X133040670Y-162925032D01*
X132723071Y-163023999D01*
X132723056Y-163024005D01*
X132419680Y-163160543D01*
X132419678Y-163160545D01*
X132134968Y-163332657D01*
X131939415Y-163485862D01*
X132830117Y-164376564D01*
X132775523Y-164412232D01*
X132592632Y-164580596D01*
X132476389Y-164729942D01*
X131585862Y-163839415D01*
X131432657Y-164034968D01*
X131260545Y-164319678D01*
X131260543Y-164319680D01*
X131124005Y-164623056D01*
X131123999Y-164623071D01*
X131025032Y-164940670D01*
X130965060Y-165267923D01*
X130944974Y-165600000D01*
X130965060Y-165932076D01*
X131025032Y-166259329D01*
X131123999Y-166576928D01*
X131124005Y-166576943D01*
X131260543Y-166880319D01*
X131260545Y-166880321D01*
X131432657Y-167165031D01*
X131432662Y-167165039D01*
X131585862Y-167360583D01*
X132476389Y-166470056D01*
X132592632Y-166619404D01*
X132775523Y-166787768D01*
X132830116Y-166823435D01*
X131939415Y-167714136D01*
X131939415Y-167714137D01*
X132134960Y-167867337D01*
X132134968Y-167867342D01*
X132419678Y-168039454D01*
X132419680Y-168039456D01*
X132723056Y-168175994D01*
X132723071Y-168176000D01*
X132983379Y-168257115D01*
X133041527Y-168295852D01*
X133069501Y-168359877D01*
X133058419Y-168428863D01*
X133011801Y-168480906D01*
X132946489Y-168499500D01*
X95053511Y-168499500D01*
X94986472Y-168479815D01*
X94940717Y-168427011D01*
X94930773Y-168357853D01*
X94959798Y-168294297D01*
X95016621Y-168257115D01*
X95276928Y-168176000D01*
X95276943Y-168175994D01*
X95580319Y-168039456D01*
X95580321Y-168039454D01*
X95865030Y-167867343D01*
X96060583Y-167714137D01*
X96060583Y-167714136D01*
X95169882Y-166823435D01*
X95224477Y-166787768D01*
X95407368Y-166619404D01*
X95523610Y-166470057D01*
X96414136Y-167360583D01*
X96414137Y-167360583D01*
X96567343Y-167165030D01*
X96739454Y-166880321D01*
X96739456Y-166880319D01*
X96875994Y-166576943D01*
X96876000Y-166576928D01*
X96974967Y-166259329D01*
X97034939Y-165932076D01*
X97055025Y-165600000D01*
X97034939Y-165267923D01*
X96974967Y-164940670D01*
X96876000Y-164623071D01*
X96875994Y-164623056D01*
X96739456Y-164319680D01*
X96739454Y-164319678D01*
X96567342Y-164034968D01*
X96567337Y-164034960D01*
X96414136Y-163839415D01*
X95523609Y-164729942D01*
X95407368Y-164580596D01*
X95224477Y-164412232D01*
X95169882Y-164376563D01*
X96060583Y-163485862D01*
X96060583Y-163485861D01*
X95865039Y-163332662D01*
X95865031Y-163332657D01*
X95580321Y-163160545D01*
X95580319Y-163160543D01*
X95276943Y-163024005D01*
X95276928Y-163023999D01*
X94959329Y-162925032D01*
X94632076Y-162865060D01*
X94300000Y-162844974D01*
X93967923Y-162865060D01*
X93640670Y-162925032D01*
X93323071Y-163023999D01*
X93323056Y-163024005D01*
X93019680Y-163160543D01*
X93019678Y-163160545D01*
X92734968Y-163332657D01*
X92539415Y-163485862D01*
X93430117Y-164376564D01*
X93375523Y-164412232D01*
X93192632Y-164580596D01*
X93076389Y-164729942D01*
X92185862Y-163839415D01*
X92131986Y-163842674D01*
X92063881Y-163827073D01*
X92015021Y-163777127D01*
X92000500Y-163718900D01*
X92000500Y-157250002D01*
X92544726Y-157250002D01*
X92563808Y-157601954D01*
X92620833Y-157949793D01*
X92620834Y-157949796D01*
X92715126Y-158289408D01*
X92715127Y-158289410D01*
X92845588Y-158616844D01*
X92845597Y-158616862D01*
X92964235Y-158840637D01*
X93010695Y-158928269D01*
X93193661Y-159198124D01*
X93208498Y-159220006D01*
X93208505Y-159220016D01*
X93300455Y-159328267D01*
X93436686Y-159488650D01*
X93692580Y-159731046D01*
X93973182Y-159944354D01*
X94275202Y-160126074D01*
X94275206Y-160126075D01*
X94275210Y-160126078D01*
X94595088Y-160274070D01*
X94595092Y-160274070D01*
X94595099Y-160274074D01*
X94929122Y-160386619D01*
X95273355Y-160462391D01*
X95623763Y-160500500D01*
X95623769Y-160500500D01*
X95976231Y-160500500D01*
X95976237Y-160500500D01*
X96326645Y-160462391D01*
X96670878Y-160386619D01*
X97004901Y-160274074D01*
X97004908Y-160274070D01*
X97004911Y-160274070D01*
X97324789Y-160126078D01*
X97324798Y-160126074D01*
X97626818Y-159944354D01*
X97907420Y-159731046D01*
X98163314Y-159488650D01*
X98391501Y-159220008D01*
X98589305Y-158928269D01*
X98754407Y-158616854D01*
X98884871Y-158289414D01*
X98979168Y-157949788D01*
X99036191Y-157601957D01*
X99055274Y-157250002D01*
X128244726Y-157250002D01*
X128263808Y-157601954D01*
X128320833Y-157949793D01*
X128320834Y-157949796D01*
X128415126Y-158289408D01*
X128415127Y-158289410D01*
X128545588Y-158616844D01*
X128545597Y-158616862D01*
X128664235Y-158840637D01*
X128710695Y-158928269D01*
X128893661Y-159198124D01*
X128908498Y-159220006D01*
X128908505Y-159220016D01*
X129000455Y-159328267D01*
X129136686Y-159488650D01*
X129392580Y-159731046D01*
X129673182Y-159944354D01*
X129975202Y-160126074D01*
X129975206Y-160126075D01*
X129975210Y-160126078D01*
X130295088Y-160274070D01*
X130295092Y-160274070D01*
X130295099Y-160274074D01*
X130629122Y-160386619D01*
X130973355Y-160462391D01*
X131323763Y-160500500D01*
X131323769Y-160500500D01*
X131676231Y-160500500D01*
X131676237Y-160500500D01*
X132026645Y-160462391D01*
X132370878Y-160386619D01*
X132704901Y-160274074D01*
X132704908Y-160274070D01*
X132704911Y-160274070D01*
X133024789Y-160126078D01*
X133024798Y-160126074D01*
X133326818Y-159944354D01*
X133607420Y-159731046D01*
X133863314Y-159488650D01*
X134091501Y-159220008D01*
X134289305Y-158928269D01*
X134454407Y-158616854D01*
X134584871Y-158289414D01*
X134679168Y-157949788D01*
X134736191Y-157601957D01*
X134755274Y-157250000D01*
X134736191Y-156898043D01*
X134679168Y-156550212D01*
X134634450Y-156389154D01*
X134584873Y-156210591D01*
X134584872Y-156210589D01*
X134454411Y-155883155D01*
X134454402Y-155883137D01*
X134453052Y-155880591D01*
X134289305Y-155571731D01*
X134091501Y-155279992D01*
X134091497Y-155279987D01*
X134091494Y-155279983D01*
X133863314Y-155011350D01*
X133706591Y-154862894D01*
X133671458Y-154802500D01*
X133674553Y-154732699D01*
X133714895Y-154675652D01*
X133779674Y-154649472D01*
X133782590Y-154649218D01*
X133829036Y-154645738D01*
X133961621Y-154635803D01*
X133961622Y-154635802D01*
X133961630Y-154635802D01*
X134217416Y-154577420D01*
X134461643Y-154481568D01*
X134688857Y-154350386D01*
X134893981Y-154186805D01*
X135072433Y-153994479D01*
X135220228Y-153777704D01*
X135334063Y-153541323D01*
X135411396Y-153290615D01*
X135450500Y-153031182D01*
X135450500Y-152768818D01*
X135411396Y-152509385D01*
X135334063Y-152258677D01*
X135322121Y-152233880D01*
X135220232Y-152022303D01*
X135220231Y-152022302D01*
X135220230Y-152022301D01*
X135220228Y-152022296D01*
X135072433Y-151805521D01*
X135062441Y-151794753D01*
X134893985Y-151613198D01*
X134757590Y-151504427D01*
X134688857Y-151449614D01*
X134461643Y-151318432D01*
X134217416Y-151222580D01*
X134217411Y-151222578D01*
X134217402Y-151222576D01*
X133999818Y-151172914D01*
X133961630Y-151164198D01*
X133961629Y-151164197D01*
X133961625Y-151164197D01*
X133961620Y-151164196D01*
X133765515Y-151149500D01*
X133765494Y-151149500D01*
X133634506Y-151149500D01*
X133634484Y-151149500D01*
X133438379Y-151164196D01*
X133438374Y-151164197D01*
X133182597Y-151222576D01*
X133182578Y-151222582D01*
X132938356Y-151318432D01*
X132711143Y-151449614D01*
X132506014Y-151613198D01*
X132327567Y-151805520D01*
X132179768Y-152022302D01*
X132179767Y-152022303D01*
X132065938Y-152258673D01*
X131988606Y-152509376D01*
X131988605Y-152509381D01*
X131988604Y-152509385D01*
X131973853Y-152607247D01*
X131949500Y-152768812D01*
X131949500Y-153031187D01*
X131969794Y-153165823D01*
X131988604Y-153290615D01*
X131988605Y-153290617D01*
X131988606Y-153290623D01*
X132065938Y-153541326D01*
X132179767Y-153777696D01*
X132179768Y-153777697D01*
X132179770Y-153777700D01*
X132179772Y-153777704D01*
X132239325Y-153865052D01*
X132260825Y-153931531D01*
X132242971Y-153999081D01*
X132191431Y-154046255D01*
X132122568Y-154058075D01*
X132110215Y-154056004D01*
X132026644Y-154037608D01*
X131676238Y-153999500D01*
X131676237Y-153999500D01*
X131323763Y-153999500D01*
X131323761Y-153999500D01*
X130973356Y-154037608D01*
X130629119Y-154113381D01*
X130295093Y-154225928D01*
X130295088Y-154225929D01*
X129975210Y-154373921D01*
X129975197Y-154373928D01*
X129673184Y-154555644D01*
X129392589Y-154768946D01*
X129392580Y-154768954D01*
X129136685Y-155011350D01*
X128908505Y-155279983D01*
X128908498Y-155279993D01*
X128710695Y-155571730D01*
X128545597Y-155883137D01*
X128545588Y-155883155D01*
X128415127Y-156210589D01*
X128415126Y-156210591D01*
X128320834Y-156550203D01*
X128320833Y-156550206D01*
X128263808Y-156898045D01*
X128244726Y-157249997D01*
X128244726Y-157250002D01*
X99055274Y-157250002D01*
X99055274Y-157250000D01*
X99036191Y-156898043D01*
X98979168Y-156550212D01*
X98934450Y-156389154D01*
X98884873Y-156210591D01*
X98884872Y-156210589D01*
X98754411Y-155883155D01*
X98754402Y-155883137D01*
X98753052Y-155880591D01*
X98589305Y-155571731D01*
X98391501Y-155279992D01*
X98391497Y-155279987D01*
X98391494Y-155279983D01*
X98163314Y-155011350D01*
X98006591Y-154862894D01*
X97907420Y-154768954D01*
X97907413Y-154768948D01*
X97907410Y-154768946D01*
X97626815Y-154555644D01*
X97324802Y-154373928D01*
X97324789Y-154373921D01*
X97004911Y-154225929D01*
X97004906Y-154225928D01*
X97004903Y-154225927D01*
X97004901Y-154225926D01*
X96888782Y-154186801D01*
X96670880Y-154113381D01*
X96326643Y-154037608D01*
X95976238Y-153999500D01*
X95976237Y-153999500D01*
X95903629Y-153999500D01*
X95836590Y-153979815D01*
X95790835Y-153927011D01*
X95780891Y-153857853D01*
X95801176Y-153805648D01*
X95820228Y-153777704D01*
X95934063Y-153541323D01*
X96011396Y-153290615D01*
X96050500Y-153031182D01*
X96050500Y-152768818D01*
X96011396Y-152509385D01*
X95934063Y-152258677D01*
X95922121Y-152233880D01*
X95820232Y-152022303D01*
X95820231Y-152022302D01*
X95820230Y-152022301D01*
X95820228Y-152022296D01*
X95672433Y-151805521D01*
X95662441Y-151794753D01*
X95493985Y-151613198D01*
X95357590Y-151504427D01*
X95288857Y-151449614D01*
X95061643Y-151318432D01*
X94817416Y-151222580D01*
X94817411Y-151222578D01*
X94817402Y-151222576D01*
X94599818Y-151172914D01*
X94561630Y-151164198D01*
X94561629Y-151164197D01*
X94561625Y-151164197D01*
X94561620Y-151164196D01*
X94365515Y-151149500D01*
X94365494Y-151149500D01*
X94234506Y-151149500D01*
X94234484Y-151149500D01*
X94038379Y-151164196D01*
X94038374Y-151164197D01*
X93782597Y-151222576D01*
X93782578Y-151222582D01*
X93538356Y-151318432D01*
X93311143Y-151449614D01*
X93106014Y-151613198D01*
X92927567Y-151805520D01*
X92779768Y-152022302D01*
X92779767Y-152022303D01*
X92665938Y-152258673D01*
X92588606Y-152509376D01*
X92588605Y-152509381D01*
X92588604Y-152509385D01*
X92573853Y-152607247D01*
X92549500Y-152768812D01*
X92549500Y-153031187D01*
X92569794Y-153165823D01*
X92588604Y-153290615D01*
X92588605Y-153290617D01*
X92588606Y-153290623D01*
X92665938Y-153541326D01*
X92779767Y-153777696D01*
X92779768Y-153777697D01*
X92779770Y-153777700D01*
X92779772Y-153777704D01*
X92881568Y-153927011D01*
X92927567Y-153994479D01*
X93106014Y-154186801D01*
X93106018Y-154186804D01*
X93106019Y-154186805D01*
X93311143Y-154350386D01*
X93538357Y-154481568D01*
X93683996Y-154538727D01*
X93739210Y-154581543D01*
X93762511Y-154647413D01*
X93746500Y-154715423D01*
X93713738Y-154752869D01*
X93692587Y-154768948D01*
X93692580Y-154768954D01*
X93436685Y-155011350D01*
X93208505Y-155279983D01*
X93208498Y-155279993D01*
X93010695Y-155571730D01*
X92845597Y-155883137D01*
X92845588Y-155883155D01*
X92715127Y-156210589D01*
X92715126Y-156210591D01*
X92620834Y-156550203D01*
X92620833Y-156550206D01*
X92563808Y-156898045D01*
X92544726Y-157249997D01*
X92544726Y-157250002D01*
X92000500Y-157250002D01*
X92000500Y-151504427D01*
X92000816Y-151495581D01*
X92015130Y-151295443D01*
X92015131Y-151295442D01*
X92015130Y-151295436D01*
X92017646Y-151277938D01*
X92059356Y-151086199D01*
X92064333Y-151069248D01*
X92132911Y-150885385D01*
X92140259Y-150869298D01*
X92202815Y-150754734D01*
X92234291Y-150697089D01*
X92243845Y-150682221D01*
X92361448Y-150525123D01*
X92373020Y-150511769D01*
X92511769Y-150373020D01*
X92525123Y-150361448D01*
X92682221Y-150243845D01*
X92697089Y-150234291D01*
X92869298Y-150140258D01*
X92885385Y-150132911D01*
X93069248Y-150064333D01*
X93086199Y-150059356D01*
X93277938Y-150017646D01*
X93295436Y-150015130D01*
X93495582Y-150000816D01*
X93504428Y-150000500D01*
X93565892Y-150000500D01*
X134434108Y-150000500D01*
X134495572Y-150000500D01*
X134504418Y-150000816D01*
G37*
%TD.AperFunction*%
%TA.AperFunction,Conductor*%
G36*
X135828851Y-167375298D02*
G01*
X135843059Y-167378553D01*
X135891920Y-167428496D01*
X135906023Y-167496928D01*
X135898625Y-167530061D01*
X135867090Y-167614609D01*
X135859740Y-167630701D01*
X135765711Y-167802904D01*
X135756146Y-167817789D01*
X135638558Y-167974867D01*
X135626972Y-167988237D01*
X135488237Y-168126972D01*
X135474867Y-168138558D01*
X135317789Y-168256146D01*
X135302904Y-168265711D01*
X135130701Y-168359740D01*
X135114609Y-168367090D01*
X134930763Y-168435662D01*
X134913787Y-168440646D01*
X134722068Y-168482351D01*
X134704557Y-168484869D01*
X134523779Y-168497799D01*
X134504417Y-168499184D01*
X134495572Y-168499500D01*
X134453511Y-168499500D01*
X134386472Y-168479815D01*
X134340717Y-168427011D01*
X134330773Y-168357853D01*
X134359798Y-168294297D01*
X134416621Y-168257115D01*
X134676928Y-168176000D01*
X134676943Y-168175994D01*
X134980319Y-168039456D01*
X134980321Y-168039454D01*
X135265030Y-167867343D01*
X135460583Y-167714137D01*
X135460583Y-167714136D01*
X134569882Y-166823435D01*
X134624477Y-166787768D01*
X134807368Y-166619404D01*
X134923610Y-166470057D01*
X135828851Y-167375298D01*
G37*
%TD.AperFunction*%
%TD*%
D12*
X134500000Y-169000000D02*
G75*
G03*
X136500000Y-167000000I0J2000000D01*
G01*
X134250000Y-157250000D02*
G75*
G03*
X128750000Y-157250000I-2750000J0D01*
G01*
X128750000Y-157250000D02*
G75*
G03*
X134250000Y-157250000I2750000J0D01*
G01*
X136500000Y-151500000D02*
X136500000Y-167000000D01*
X136500000Y-151500000D02*
G75*
G03*
X134500000Y-149500000I-2000000J0D01*
G01*
X91500000Y-167000000D02*
G75*
G03*
X93500000Y-169000000I2000000J0D01*
G01*
X92500001Y-149500000D02*
G75*
G03*
X92499999Y-149500000I-1J0D01*
G01*
X92499999Y-149500000D02*
G75*
G03*
X92500001Y-149500000I1J0D01*
G01*
X93500000Y-169000000D02*
X134500000Y-169000000D01*
X93500000Y-149500000D02*
X134500000Y-149500000D01*
X93500000Y-149500000D02*
G75*
G03*
X91500000Y-151500000I0J-2000000D01*
G01*
X98550000Y-157250000D02*
G75*
G03*
X93050000Y-157250000I-2750000J0D01*
G01*
X93050000Y-157250000D02*
G75*
G03*
X98550000Y-157250000I2750000J0D01*
G01*
X91500000Y-151500000D02*
X91500000Y-167000000D01*
X89500000Y-169000000D02*
G75*
G03*
X91500000Y-167000000I0J2000000D01*
G01*
X89250000Y-157250000D02*
G75*
G03*
X83750000Y-157250000I-2750000J0D01*
G01*
X83750000Y-157250000D02*
G75*
G03*
X89250000Y-157250000I2750000J0D01*
G01*
X91500000Y-151500000D02*
X91500000Y-167000000D01*
X91500000Y-151500000D02*
G75*
G03*
X89500000Y-149500000I-2000000J0D01*
G01*
X46500000Y-167000000D02*
G75*
G03*
X48500000Y-169000000I2000000J0D01*
G01*
X47500001Y-149500000D02*
G75*
G03*
X47499999Y-149500000I-1J0D01*
G01*
X47499999Y-149500000D02*
G75*
G03*
X47500001Y-149500000I1J0D01*
G01*
X48500000Y-169000000D02*
X89500000Y-169000000D01*
X48500000Y-149500000D02*
X89500000Y-149500000D01*
X48500000Y-149500000D02*
G75*
G03*
X46500000Y-151500000I0J-2000000D01*
G01*
X53550000Y-157250000D02*
G75*
G03*
X48050000Y-157250000I-2750000J0D01*
G01*
X48050000Y-157250000D02*
G75*
G03*
X53550000Y-157250000I2750000J0D01*
G01*
X46500000Y-151500000D02*
X46500000Y-167000000D01*
X134500000Y-149500000D02*
G75*
G03*
X136500000Y-147500000I0J2000000D01*
G01*
X134250000Y-137750000D02*
G75*
G03*
X128750000Y-137750000I-2750000J0D01*
G01*
X128750000Y-137750000D02*
G75*
G03*
X134250000Y-137750000I2750000J0D01*
G01*
X136500000Y-132000000D02*
X136500000Y-147500000D01*
X136500000Y-132000000D02*
G75*
G03*
X134500000Y-130000000I-2000000J0D01*
G01*
X91500000Y-147500000D02*
G75*
G03*
X93500000Y-149500000I2000000J0D01*
G01*
X92500001Y-130000000D02*
G75*
G03*
X92499999Y-130000000I-1J0D01*
G01*
X92499999Y-130000000D02*
G75*
G03*
X92500001Y-130000000I1J0D01*
G01*
X93500000Y-149500000D02*
X134500000Y-149500000D01*
X93500000Y-130000000D02*
X134500000Y-130000000D01*
X93500000Y-130000000D02*
G75*
G03*
X91500000Y-132000000I0J-2000000D01*
G01*
X98550000Y-137750000D02*
G75*
G03*
X93050000Y-137750000I-2750000J0D01*
G01*
X93050000Y-137750000D02*
G75*
G03*
X98550000Y-137750000I2750000J0D01*
G01*
X91500000Y-132000000D02*
X91500000Y-147500000D01*
X89500000Y-149500000D02*
G75*
G03*
X91500000Y-147500000I0J2000000D01*
G01*
X89250000Y-137750000D02*
G75*
G03*
X83750000Y-137750000I-2750000J0D01*
G01*
X83750000Y-137750000D02*
G75*
G03*
X89250000Y-137750000I2750000J0D01*
G01*
X91500000Y-132000000D02*
X91500000Y-147500000D01*
X91500000Y-132000000D02*
G75*
G03*
X89500000Y-130000000I-2000000J0D01*
G01*
X46500000Y-147500000D02*
G75*
G03*
X48500000Y-149500000I2000000J0D01*
G01*
X47500001Y-130000000D02*
G75*
G03*
X47499999Y-130000000I-1J0D01*
G01*
X47499999Y-130000000D02*
G75*
G03*
X47500001Y-130000000I1J0D01*
G01*
X48500000Y-149500000D02*
X89500000Y-149500000D01*
X48500000Y-130000000D02*
X89500000Y-130000000D01*
X48500000Y-130000000D02*
G75*
G03*
X46500000Y-132000000I0J-2000000D01*
G01*
X53550000Y-137750000D02*
G75*
G03*
X48050000Y-137750000I-2750000J0D01*
G01*
X48050000Y-137750000D02*
G75*
G03*
X53550000Y-137750000I2750000J0D01*
G01*
X46500000Y-132000000D02*
X46500000Y-147500000D01*
X134500000Y-130000000D02*
G75*
G03*
X136500000Y-128000000I0J2000000D01*
G01*
X134250000Y-118250000D02*
G75*
G03*
X128750000Y-118250000I-2750000J0D01*
G01*
X128750000Y-118250000D02*
G75*
G03*
X134250000Y-118250000I2750000J0D01*
G01*
X136500000Y-112500000D02*
X136500000Y-128000000D01*
X136500000Y-112500000D02*
G75*
G03*
X134500000Y-110500000I-2000000J0D01*
G01*
X91500000Y-128000000D02*
G75*
G03*
X93500000Y-130000000I2000000J0D01*
G01*
X92500001Y-110500000D02*
G75*
G03*
X92499999Y-110500000I-1J0D01*
G01*
X92499999Y-110500000D02*
G75*
G03*
X92500001Y-110500000I1J0D01*
G01*
X93500000Y-130000000D02*
X134500000Y-130000000D01*
X93500000Y-110500000D02*
X134500000Y-110500000D01*
X93500000Y-110500000D02*
G75*
G03*
X91500000Y-112500000I0J-2000000D01*
G01*
X98550000Y-118250000D02*
G75*
G03*
X93050000Y-118250000I-2750000J0D01*
G01*
X93050000Y-118250000D02*
G75*
G03*
X98550000Y-118250000I2750000J0D01*
G01*
X91500000Y-112500000D02*
X91500000Y-128000000D01*
X89500000Y-130000000D02*
G75*
G03*
X91500000Y-128000000I0J2000000D01*
G01*
X89250000Y-118250000D02*
G75*
G03*
X83750000Y-118250000I-2750000J0D01*
G01*
X83750000Y-118250000D02*
G75*
G03*
X89250000Y-118250000I2750000J0D01*
G01*
X91500000Y-112500000D02*
X91500000Y-128000000D01*
X91500000Y-112500000D02*
G75*
G03*
X89500000Y-110500000I-2000000J0D01*
G01*
X46500000Y-128000000D02*
G75*
G03*
X48500000Y-130000000I2000000J0D01*
G01*
X47500001Y-110500000D02*
G75*
G03*
X47499999Y-110500000I-1J0D01*
G01*
X47499999Y-110500000D02*
G75*
G03*
X47500001Y-110500000I1J0D01*
G01*
X48500000Y-130000000D02*
X89500000Y-130000000D01*
X48500000Y-110500000D02*
X89500000Y-110500000D01*
X48500000Y-110500000D02*
G75*
G03*
X46500000Y-112500000I0J-2000000D01*
G01*
X53550000Y-118250000D02*
G75*
G03*
X48050000Y-118250000I-2750000J0D01*
G01*
X48050000Y-118250000D02*
G75*
G03*
X53550000Y-118250000I2750000J0D01*
G01*
X46500000Y-112500000D02*
X46500000Y-128000000D01*
X134500000Y-110500000D02*
G75*
G03*
X136500000Y-108500000I0J2000000D01*
G01*
X134250000Y-98750000D02*
G75*
G03*
X128750000Y-98750000I-2750000J0D01*
G01*
X128750000Y-98750000D02*
G75*
G03*
X134250000Y-98750000I2750000J0D01*
G01*
X136500000Y-93000000D02*
X136500000Y-108500000D01*
X136500000Y-93000000D02*
G75*
G03*
X134500000Y-91000000I-2000000J0D01*
G01*
X91500000Y-108500000D02*
G75*
G03*
X93500000Y-110500000I2000000J0D01*
G01*
X92500001Y-91000000D02*
G75*
G03*
X92499999Y-91000000I-1J0D01*
G01*
X92499999Y-91000000D02*
G75*
G03*
X92500001Y-91000000I1J0D01*
G01*
X93500000Y-110500000D02*
X134500000Y-110500000D01*
X93500000Y-91000000D02*
X134500000Y-91000000D01*
X93500000Y-91000000D02*
G75*
G03*
X91500000Y-93000000I0J-2000000D01*
G01*
X98550000Y-98750000D02*
G75*
G03*
X93050000Y-98750000I-2750000J0D01*
G01*
X93050000Y-98750000D02*
G75*
G03*
X98550000Y-98750000I2750000J0D01*
G01*
X91500000Y-93000000D02*
X91500000Y-108500000D01*
X89500000Y-110500000D02*
G75*
G03*
X91500000Y-108500000I0J2000000D01*
G01*
X89250000Y-98750000D02*
G75*
G03*
X83750000Y-98750000I-2750000J0D01*
G01*
X83750000Y-98750000D02*
G75*
G03*
X89250000Y-98750000I2750000J0D01*
G01*
X91500000Y-93000000D02*
X91500000Y-108500000D01*
X91500000Y-93000000D02*
G75*
G03*
X89500000Y-91000000I-2000000J0D01*
G01*
X46500000Y-108500000D02*
G75*
G03*
X48500000Y-110500000I2000000J0D01*
G01*
X47500001Y-91000000D02*
G75*
G03*
X47499999Y-91000000I-1J0D01*
G01*
X47499999Y-91000000D02*
G75*
G03*
X47500001Y-91000000I1J0D01*
G01*
X48500000Y-110500000D02*
X89500000Y-110500000D01*
X48500000Y-91000000D02*
X89500000Y-91000000D01*
X48500000Y-91000000D02*
G75*
G03*
X46500000Y-93000000I0J-2000000D01*
G01*
X53550000Y-98750000D02*
G75*
G03*
X48050000Y-98750000I-2750000J0D01*
G01*
X48050000Y-98750000D02*
G75*
G03*
X53550000Y-98750000I2750000J0D01*
G01*
X46500000Y-93000000D02*
X46500000Y-108500000D01*
X134500000Y-91000000D02*
G75*
G03*
X136500000Y-89000000I0J2000000D01*
G01*
X134250000Y-79250000D02*
G75*
G03*
X128750000Y-79250000I-2750000J0D01*
G01*
X128750000Y-79250000D02*
G75*
G03*
X134250000Y-79250000I2750000J0D01*
G01*
X136500000Y-73500000D02*
X136500000Y-89000000D01*
X136500000Y-73500000D02*
G75*
G03*
X134500000Y-71500000I-2000000J0D01*
G01*
X91500000Y-89000000D02*
G75*
G03*
X93500000Y-91000000I2000000J0D01*
G01*
X92500001Y-71500000D02*
G75*
G03*
X92499999Y-71500000I-1J0D01*
G01*
X92499999Y-71500000D02*
G75*
G03*
X92500001Y-71500000I1J0D01*
G01*
X93500000Y-91000000D02*
X134500000Y-91000000D01*
X93500000Y-71500000D02*
X134500000Y-71500000D01*
X93500000Y-71500000D02*
G75*
G03*
X91500000Y-73500000I0J-2000000D01*
G01*
X98550000Y-79250000D02*
G75*
G03*
X93050000Y-79250000I-2750000J0D01*
G01*
X93050000Y-79250000D02*
G75*
G03*
X98550000Y-79250000I2750000J0D01*
G01*
X91500000Y-73500000D02*
X91500000Y-89000000D01*
X91500000Y-73500000D02*
X91500000Y-89000000D01*
X47500001Y-71500000D02*
G75*
G03*
X47499999Y-71500000I-1J0D01*
G01*
X47499999Y-71500000D02*
G75*
G03*
X47500001Y-71500000I1J0D01*
G01*
X89500000Y-91000000D02*
G75*
G03*
X91500000Y-89000000I0J2000000D01*
G01*
X91500000Y-73500000D02*
G75*
G03*
X89500000Y-71500000I-2000000J0D01*
G01*
X89250000Y-79250000D02*
G75*
G03*
X83750000Y-79250000I-2750000J0D01*
G01*
X83750000Y-79250000D02*
G75*
G03*
X89250000Y-79250000I2750000J0D01*
G01*
X46500000Y-89000000D02*
G75*
G03*
X48500000Y-91000000I2000000J0D01*
G01*
X48500000Y-91000000D02*
X89500000Y-91000000D01*
X48500000Y-71500000D02*
X89500000Y-71500000D01*
X48500000Y-71500000D02*
G75*
G03*
X46500000Y-73500000I0J-2000000D01*
G01*
X53550000Y-79250000D02*
G75*
G03*
X48050000Y-79250000I-2750000J0D01*
G01*
X48050000Y-79250000D02*
G75*
G03*
X53550000Y-79250000I2750000J0D01*
G01*
X46500000Y-73500000D02*
X46500000Y-89000000D01*
M02*
