M48
; DRILL file {KiCad 7.0.11+dfsg-1build4} date mié 09 sep 2026 20:42:06
; FORMAT={-:-/ absolute / metric / decimal}
; #@! TF.CreationDate,2026-09-09T20:42:06-05:00
; #@! TF.GenerationSoftware,Kicad,Pcbnew,7.0.11+dfsg-1build4
; #@! TF.FileFunction,NonPlated,1,2,NPTH
FMAT,2
METRIC
; #@! TA.AperFunction,NonPlated,NPTH,ComponentDrill
T1C3.000
%
G90
G05
T1
X49.3Y-74.9
X49.3Y-94.4
X49.3Y-113.9
X49.3Y-133.4
X49.3Y-152.9
X88.7Y-74.9
X88.7Y-94.4
X88.7Y-113.9
X88.7Y-133.4
X88.7Y-152.9
X94.3Y-74.9
X94.3Y-94.4
X94.3Y-113.9
X94.3Y-133.4
X94.3Y-152.9
X133.7Y-74.9
X133.7Y-94.4
X133.7Y-113.9
X133.7Y-133.4
X133.7Y-152.9
M30
