M48
; DRILL file {KiCad 7.0.11+dfsg-1build4} date mié 09 sep 2026 20:42:06
; FORMAT={-:-/ absolute / metric / decimal}
; #@! TF.CreationDate,2026-09-09T20:42:06-05:00
; #@! TF.GenerationSoftware,Kicad,Pcbnew,7.0.11+dfsg-1build4
; #@! TF.FileFunction,Plated,1,2,PTH
FMAT,2
METRIC
; #@! TA.AperFunction,Plated,PTH,ComponentDrill
T1C3.000
%
G90
G05
T1
X49.3Y-87.6
X49.3Y-107.1
X49.3Y-126.6
X49.3Y-146.1
X49.3Y-165.6
X88.7Y-87.6
X88.7Y-107.1
X88.7Y-126.6
X88.7Y-146.1
X88.7Y-165.6
X94.3Y-87.6
X94.3Y-107.1
X94.3Y-126.6
X94.3Y-146.1
X94.3Y-165.6
X133.7Y-87.6
X133.7Y-107.1
X133.7Y-126.6
X133.7Y-146.1
X133.7Y-165.6
M30
