%TF.GenerationSoftware,KiCad,Pcbnew,7.0.11+dfsg-1build4*%
%TF.CreationDate,2026-09-09T20:34:47-05:00*%
%TF.ProjectId,rignexo-front,7269676e-6578-46f2-9d66-726f6e742e6b,rev?*%
%TF.SameCoordinates,Original*%
%TF.FileFunction,Copper,L1,Top*%
%TF.FilePolarity,Positive*%
%FSLAX46Y46*%
G04 Gerber Fmt 4.6, Leading zero omitted, Abs format (unit mm)*
G04 Created by KiCad (PCBNEW 7.0.11+dfsg-1build4) date 2026-09-09 20:34:47*
%MOMM*%
%LPD*%
G01*
G04 APERTURE LIST*
%TA.AperFunction,ComponentPad*%
%ADD10C,3.400000*%
%TD*%
%TA.AperFunction,Profile*%
%ADD11C,0.050000*%
%TD*%
G04 APERTURE END LIST*
D10*
%TO.P,H3,1,1*%
%TO.N,GND*%
X102800000Y-116100000D03*
%TD*%
%TO.P,H4,1,1*%
%TO.N,GND*%
X142200000Y-116100000D03*
%TD*%
%TA.AperFunction,Conductor*%
%TO.N,GND*%
G36*
X143004418Y-100500816D02*
G01*
X143204561Y-100515130D01*
X143222063Y-100517647D01*
X143413797Y-100559355D01*
X143430755Y-100564334D01*
X143614609Y-100632909D01*
X143630701Y-100640259D01*
X143802904Y-100734288D01*
X143817784Y-100743849D01*
X143974867Y-100861441D01*
X143988237Y-100873027D01*
X144126972Y-101011762D01*
X144138558Y-101025132D01*
X144256146Y-101182210D01*
X144265711Y-101197095D01*
X144359740Y-101369298D01*
X144367090Y-101385390D01*
X144435662Y-101569236D01*
X144440646Y-101586212D01*
X144482351Y-101777931D01*
X144484869Y-101795442D01*
X144499184Y-101995580D01*
X144499500Y-102004427D01*
X144499500Y-115278839D01*
X144479815Y-115345878D01*
X144427011Y-115391633D01*
X144357853Y-115401577D01*
X144294297Y-115372552D01*
X144258081Y-115318697D01*
X144236899Y-115256297D01*
X144236895Y-115256287D01*
X144109346Y-114997643D01*
X143949124Y-114757854D01*
X143924161Y-114729390D01*
X143924160Y-114729390D01*
X143423609Y-115229941D01*
X143307368Y-115080596D01*
X143124477Y-114912232D01*
X143069882Y-114876563D01*
X143570608Y-114375838D01*
X143570608Y-114375835D01*
X143542152Y-114350881D01*
X143542146Y-114350876D01*
X143302356Y-114190653D01*
X143043712Y-114063104D01*
X143043702Y-114063100D01*
X142770635Y-113970407D01*
X142770615Y-113970402D01*
X142487784Y-113914144D01*
X142487757Y-113914140D01*
X142200007Y-113895280D01*
X142199993Y-113895280D01*
X141912242Y-113914140D01*
X141912215Y-113914144D01*
X141629384Y-113970402D01*
X141629364Y-113970407D01*
X141356297Y-114063100D01*
X141356287Y-114063104D01*
X141097643Y-114190653D01*
X140857851Y-114350878D01*
X140829390Y-114375837D01*
X141330117Y-114876564D01*
X141275523Y-114912232D01*
X141092632Y-115080596D01*
X140976389Y-115229942D01*
X140475837Y-114729390D01*
X140450878Y-114757851D01*
X140290653Y-114997643D01*
X140163104Y-115256287D01*
X140163100Y-115256297D01*
X140070407Y-115529364D01*
X140070402Y-115529384D01*
X140014144Y-115812215D01*
X140014140Y-115812242D01*
X139995280Y-116099992D01*
X139995280Y-116100007D01*
X140014140Y-116387757D01*
X140014144Y-116387784D01*
X140070402Y-116670615D01*
X140070407Y-116670635D01*
X140163100Y-116943702D01*
X140163104Y-116943712D01*
X140290653Y-117202356D01*
X140450876Y-117442146D01*
X140450881Y-117442152D01*
X140475835Y-117470608D01*
X140475838Y-117470608D01*
X140976389Y-116970056D01*
X141092632Y-117119404D01*
X141275523Y-117287768D01*
X141330115Y-117323435D01*
X140829390Y-117824160D01*
X140829390Y-117824161D01*
X140857854Y-117849124D01*
X141097643Y-118009346D01*
X141356287Y-118136895D01*
X141356297Y-118136899D01*
X141629364Y-118229592D01*
X141629384Y-118229597D01*
X141912215Y-118285855D01*
X141912242Y-118285859D01*
X142199993Y-118304720D01*
X142200007Y-118304720D01*
X142487757Y-118285859D01*
X142487784Y-118285855D01*
X142770615Y-118229597D01*
X142770635Y-118229592D01*
X143043702Y-118136899D01*
X143043712Y-118136895D01*
X143302356Y-118009346D01*
X143542141Y-117849126D01*
X143542147Y-117849121D01*
X143570608Y-117824162D01*
X143570608Y-117824161D01*
X143069882Y-117323435D01*
X143124477Y-117287768D01*
X143307368Y-117119404D01*
X143423610Y-116970057D01*
X143924161Y-117470608D01*
X143924162Y-117470608D01*
X143949121Y-117442147D01*
X143949126Y-117442141D01*
X144109346Y-117202356D01*
X144236894Y-116943714D01*
X144258080Y-116881302D01*
X144298269Y-116824148D01*
X144362978Y-116797794D01*
X144431663Y-116810608D01*
X144482516Y-116858521D01*
X144499500Y-116921160D01*
X144499500Y-117495572D01*
X144499184Y-117504419D01*
X144484869Y-117704557D01*
X144482351Y-117722068D01*
X144440646Y-117913787D01*
X144435662Y-117930763D01*
X144367090Y-118114609D01*
X144359740Y-118130701D01*
X144265711Y-118302904D01*
X144256146Y-118317789D01*
X144138558Y-118474867D01*
X144126972Y-118488237D01*
X143988237Y-118626972D01*
X143974867Y-118638558D01*
X143817789Y-118756146D01*
X143802904Y-118765711D01*
X143630701Y-118859740D01*
X143614609Y-118867090D01*
X143430763Y-118935662D01*
X143413787Y-118940646D01*
X143222068Y-118982351D01*
X143204557Y-118984869D01*
X143023779Y-118997799D01*
X143004417Y-118999184D01*
X142995572Y-118999500D01*
X102004428Y-118999500D01*
X101995582Y-118999184D01*
X101973622Y-118997613D01*
X101795442Y-118984869D01*
X101777931Y-118982351D01*
X101586212Y-118940646D01*
X101569236Y-118935662D01*
X101385390Y-118867090D01*
X101369298Y-118859740D01*
X101197095Y-118765711D01*
X101182210Y-118756146D01*
X101025132Y-118638558D01*
X101011762Y-118626972D01*
X100873027Y-118488237D01*
X100861441Y-118474867D01*
X100743849Y-118317784D01*
X100734288Y-118302904D01*
X100640259Y-118130701D01*
X100632909Y-118114609D01*
X100564334Y-117930755D01*
X100559355Y-117913797D01*
X100517647Y-117722063D01*
X100515130Y-117704556D01*
X100500816Y-117504418D01*
X100500500Y-117495572D01*
X100500500Y-116921160D01*
X100520185Y-116854121D01*
X100572989Y-116808366D01*
X100642147Y-116798422D01*
X100705703Y-116827447D01*
X100741920Y-116881302D01*
X100763105Y-116943714D01*
X100890653Y-117202356D01*
X101050876Y-117442146D01*
X101050881Y-117442152D01*
X101075835Y-117470608D01*
X101075838Y-117470608D01*
X101576389Y-116970056D01*
X101692632Y-117119404D01*
X101875523Y-117287768D01*
X101930115Y-117323435D01*
X101429390Y-117824160D01*
X101429390Y-117824161D01*
X101457854Y-117849124D01*
X101697643Y-118009346D01*
X101956287Y-118136895D01*
X101956297Y-118136899D01*
X102229364Y-118229592D01*
X102229384Y-118229597D01*
X102512215Y-118285855D01*
X102512242Y-118285859D01*
X102799993Y-118304720D01*
X102800007Y-118304720D01*
X103087757Y-118285859D01*
X103087784Y-118285855D01*
X103370615Y-118229597D01*
X103370635Y-118229592D01*
X103643702Y-118136899D01*
X103643712Y-118136895D01*
X103902356Y-118009346D01*
X104142141Y-117849126D01*
X104142147Y-117849121D01*
X104170608Y-117824162D01*
X104170608Y-117824161D01*
X103669882Y-117323435D01*
X103724477Y-117287768D01*
X103907368Y-117119404D01*
X104023610Y-116970057D01*
X104524161Y-117470608D01*
X104524162Y-117470608D01*
X104549121Y-117442147D01*
X104549126Y-117442141D01*
X104709346Y-117202356D01*
X104836895Y-116943712D01*
X104836899Y-116943702D01*
X104929592Y-116670635D01*
X104929597Y-116670615D01*
X104985855Y-116387784D01*
X104985859Y-116387757D01*
X105004720Y-116100007D01*
X105004720Y-116099992D01*
X104985859Y-115812242D01*
X104985855Y-115812215D01*
X104929597Y-115529384D01*
X104929592Y-115529364D01*
X104836899Y-115256297D01*
X104836895Y-115256287D01*
X104709346Y-114997643D01*
X104549124Y-114757854D01*
X104524161Y-114729390D01*
X104524160Y-114729390D01*
X104023609Y-115229941D01*
X103907368Y-115080596D01*
X103724477Y-114912232D01*
X103669882Y-114876563D01*
X104170608Y-114375838D01*
X104170608Y-114375835D01*
X104142152Y-114350881D01*
X104142146Y-114350876D01*
X103902356Y-114190653D01*
X103643712Y-114063104D01*
X103643702Y-114063100D01*
X103370635Y-113970407D01*
X103370615Y-113970402D01*
X103087784Y-113914144D01*
X103087757Y-113914140D01*
X102800007Y-113895280D01*
X102799993Y-113895280D01*
X102512242Y-113914140D01*
X102512215Y-113914144D01*
X102229384Y-113970402D01*
X102229364Y-113970407D01*
X101956297Y-114063100D01*
X101956287Y-114063104D01*
X101697643Y-114190653D01*
X101457851Y-114350878D01*
X101429390Y-114375837D01*
X101930117Y-114876564D01*
X101875523Y-114912232D01*
X101692632Y-115080596D01*
X101576389Y-115229942D01*
X101075837Y-114729390D01*
X101050878Y-114757851D01*
X100890653Y-114997643D01*
X100763104Y-115256287D01*
X100763100Y-115256297D01*
X100741919Y-115318697D01*
X100701731Y-115375852D01*
X100637022Y-115402205D01*
X100568337Y-115389391D01*
X100517484Y-115341477D01*
X100500500Y-115278839D01*
X100500500Y-107750002D01*
X101044726Y-107750002D01*
X101063808Y-108101954D01*
X101120833Y-108449793D01*
X101120834Y-108449796D01*
X101215126Y-108789408D01*
X101215127Y-108789410D01*
X101345588Y-109116844D01*
X101345597Y-109116862D01*
X101464235Y-109340637D01*
X101510695Y-109428269D01*
X101693661Y-109698124D01*
X101708498Y-109720006D01*
X101708505Y-109720016D01*
X101800455Y-109828267D01*
X101936686Y-109988650D01*
X102192580Y-110231046D01*
X102473182Y-110444354D01*
X102775202Y-110626074D01*
X102775206Y-110626075D01*
X102775210Y-110626078D01*
X103095088Y-110774070D01*
X103095092Y-110774070D01*
X103095099Y-110774074D01*
X103429122Y-110886619D01*
X103773355Y-110962391D01*
X104123763Y-111000500D01*
X104123769Y-111000500D01*
X104476231Y-111000500D01*
X104476237Y-111000500D01*
X104826645Y-110962391D01*
X105170878Y-110886619D01*
X105504901Y-110774074D01*
X105504908Y-110774070D01*
X105504911Y-110774070D01*
X105824789Y-110626078D01*
X105824798Y-110626074D01*
X106126818Y-110444354D01*
X106407420Y-110231046D01*
X106663314Y-109988650D01*
X106891501Y-109720008D01*
X107089305Y-109428269D01*
X107254407Y-109116854D01*
X107384871Y-108789414D01*
X107479168Y-108449788D01*
X107536191Y-108101957D01*
X107555274Y-107750002D01*
X136744726Y-107750002D01*
X136763808Y-108101954D01*
X136820833Y-108449793D01*
X136820834Y-108449796D01*
X136915126Y-108789408D01*
X136915127Y-108789410D01*
X137045588Y-109116844D01*
X137045597Y-109116862D01*
X137164235Y-109340637D01*
X137210695Y-109428269D01*
X137393661Y-109698124D01*
X137408498Y-109720006D01*
X137408505Y-109720016D01*
X137500455Y-109828267D01*
X137636686Y-109988650D01*
X137892580Y-110231046D01*
X138173182Y-110444354D01*
X138475202Y-110626074D01*
X138475206Y-110626075D01*
X138475210Y-110626078D01*
X138795088Y-110774070D01*
X138795092Y-110774070D01*
X138795099Y-110774074D01*
X139129122Y-110886619D01*
X139473355Y-110962391D01*
X139823763Y-111000500D01*
X139823769Y-111000500D01*
X140176231Y-111000500D01*
X140176237Y-111000500D01*
X140526645Y-110962391D01*
X140870878Y-110886619D01*
X141204901Y-110774074D01*
X141204908Y-110774070D01*
X141204911Y-110774070D01*
X141524789Y-110626078D01*
X141524798Y-110626074D01*
X141826818Y-110444354D01*
X142107420Y-110231046D01*
X142363314Y-109988650D01*
X142591501Y-109720008D01*
X142789305Y-109428269D01*
X142954407Y-109116854D01*
X143084871Y-108789414D01*
X143179168Y-108449788D01*
X143236191Y-108101957D01*
X143255274Y-107750000D01*
X143236191Y-107398043D01*
X143179168Y-107050212D01*
X143134450Y-106889154D01*
X143084873Y-106710591D01*
X143084872Y-106710589D01*
X142954411Y-106383155D01*
X142954402Y-106383137D01*
X142953052Y-106380591D01*
X142789305Y-106071731D01*
X142591501Y-105779992D01*
X142591497Y-105779987D01*
X142591494Y-105779983D01*
X142363314Y-105511350D01*
X142206591Y-105362894D01*
X142171458Y-105302500D01*
X142174553Y-105232699D01*
X142214895Y-105175652D01*
X142279674Y-105149472D01*
X142282590Y-105149218D01*
X142329036Y-105145738D01*
X142461621Y-105135803D01*
X142461622Y-105135802D01*
X142461630Y-105135802D01*
X142717416Y-105077420D01*
X142961643Y-104981568D01*
X143188857Y-104850386D01*
X143393981Y-104686805D01*
X143572433Y-104494479D01*
X143720228Y-104277704D01*
X143834063Y-104041323D01*
X143911396Y-103790615D01*
X143950500Y-103531182D01*
X143950500Y-103268818D01*
X143911396Y-103009385D01*
X143834063Y-102758677D01*
X143822121Y-102733880D01*
X143720232Y-102522303D01*
X143720231Y-102522302D01*
X143720230Y-102522301D01*
X143720228Y-102522296D01*
X143572433Y-102305521D01*
X143562441Y-102294753D01*
X143393985Y-102113198D01*
X143257590Y-102004427D01*
X143188857Y-101949614D01*
X142961643Y-101818432D01*
X142717416Y-101722580D01*
X142717411Y-101722578D01*
X142717402Y-101722576D01*
X142499818Y-101672914D01*
X142461630Y-101664198D01*
X142461629Y-101664197D01*
X142461625Y-101664197D01*
X142461620Y-101664196D01*
X142265515Y-101649500D01*
X142265494Y-101649500D01*
X142134506Y-101649500D01*
X142134484Y-101649500D01*
X141938379Y-101664196D01*
X141938374Y-101664197D01*
X141682597Y-101722576D01*
X141682578Y-101722582D01*
X141438356Y-101818432D01*
X141211143Y-101949614D01*
X141006014Y-102113198D01*
X140827567Y-102305520D01*
X140679768Y-102522302D01*
X140679767Y-102522303D01*
X140565938Y-102758673D01*
X140488606Y-103009376D01*
X140488605Y-103009381D01*
X140488604Y-103009385D01*
X140473853Y-103107247D01*
X140449500Y-103268812D01*
X140449500Y-103531187D01*
X140469794Y-103665823D01*
X140488604Y-103790615D01*
X140488605Y-103790617D01*
X140488606Y-103790623D01*
X140565938Y-104041326D01*
X140679767Y-104277696D01*
X140679768Y-104277697D01*
X140679770Y-104277700D01*
X140679772Y-104277704D01*
X140739325Y-104365052D01*
X140760825Y-104431531D01*
X140742971Y-104499081D01*
X140691431Y-104546255D01*
X140622568Y-104558075D01*
X140610215Y-104556004D01*
X140526644Y-104537608D01*
X140176238Y-104499500D01*
X140176237Y-104499500D01*
X139823763Y-104499500D01*
X139823761Y-104499500D01*
X139473356Y-104537608D01*
X139129119Y-104613381D01*
X138795093Y-104725928D01*
X138795088Y-104725929D01*
X138475210Y-104873921D01*
X138475197Y-104873928D01*
X138173184Y-105055644D01*
X137892589Y-105268946D01*
X137892580Y-105268954D01*
X137636685Y-105511350D01*
X137408505Y-105779983D01*
X137408498Y-105779993D01*
X137210695Y-106071730D01*
X137045597Y-106383137D01*
X137045588Y-106383155D01*
X136915127Y-106710589D01*
X136915126Y-106710591D01*
X136820834Y-107050203D01*
X136820833Y-107050206D01*
X136763808Y-107398045D01*
X136744726Y-107749997D01*
X136744726Y-107750002D01*
X107555274Y-107750002D01*
X107555274Y-107750000D01*
X107536191Y-107398043D01*
X107479168Y-107050212D01*
X107434450Y-106889154D01*
X107384873Y-106710591D01*
X107384872Y-106710589D01*
X107254411Y-106383155D01*
X107254402Y-106383137D01*
X107253052Y-106380591D01*
X107089305Y-106071731D01*
X106891501Y-105779992D01*
X106891497Y-105779987D01*
X106891494Y-105779983D01*
X106663314Y-105511350D01*
X106506591Y-105362894D01*
X106407420Y-105268954D01*
X106407413Y-105268948D01*
X106407410Y-105268946D01*
X106126815Y-105055644D01*
X105824802Y-104873928D01*
X105824789Y-104873921D01*
X105504911Y-104725929D01*
X105504906Y-104725928D01*
X105504903Y-104725927D01*
X105504901Y-104725926D01*
X105388782Y-104686801D01*
X105170880Y-104613381D01*
X104826643Y-104537608D01*
X104476238Y-104499500D01*
X104476237Y-104499500D01*
X104403629Y-104499500D01*
X104336590Y-104479815D01*
X104290835Y-104427011D01*
X104280891Y-104357853D01*
X104301176Y-104305648D01*
X104320228Y-104277704D01*
X104434063Y-104041323D01*
X104511396Y-103790615D01*
X104550500Y-103531182D01*
X104550500Y-103268818D01*
X104511396Y-103009385D01*
X104434063Y-102758677D01*
X104422121Y-102733880D01*
X104320232Y-102522303D01*
X104320231Y-102522302D01*
X104320230Y-102522301D01*
X104320228Y-102522296D01*
X104172433Y-102305521D01*
X104162441Y-102294753D01*
X103993985Y-102113198D01*
X103857590Y-102004427D01*
X103788857Y-101949614D01*
X103561643Y-101818432D01*
X103317416Y-101722580D01*
X103317411Y-101722578D01*
X103317402Y-101722576D01*
X103099818Y-101672914D01*
X103061630Y-101664198D01*
X103061629Y-101664197D01*
X103061625Y-101664197D01*
X103061620Y-101664196D01*
X102865515Y-101649500D01*
X102865494Y-101649500D01*
X102734506Y-101649500D01*
X102734484Y-101649500D01*
X102538379Y-101664196D01*
X102538374Y-101664197D01*
X102282597Y-101722576D01*
X102282578Y-101722582D01*
X102038356Y-101818432D01*
X101811143Y-101949614D01*
X101606014Y-102113198D01*
X101427567Y-102305520D01*
X101279768Y-102522302D01*
X101279767Y-102522303D01*
X101165938Y-102758673D01*
X101088606Y-103009376D01*
X101088605Y-103009381D01*
X101088604Y-103009385D01*
X101073853Y-103107247D01*
X101049500Y-103268812D01*
X101049500Y-103531187D01*
X101069794Y-103665823D01*
X101088604Y-103790615D01*
X101088605Y-103790617D01*
X101088606Y-103790623D01*
X101165938Y-104041326D01*
X101279767Y-104277696D01*
X101279768Y-104277697D01*
X101279770Y-104277700D01*
X101279772Y-104277704D01*
X101381568Y-104427011D01*
X101427567Y-104494479D01*
X101606014Y-104686801D01*
X101606018Y-104686804D01*
X101606019Y-104686805D01*
X101811143Y-104850386D01*
X102038357Y-104981568D01*
X102183996Y-105038727D01*
X102239210Y-105081543D01*
X102262511Y-105147413D01*
X102246500Y-105215423D01*
X102213738Y-105252869D01*
X102192587Y-105268948D01*
X102192580Y-105268954D01*
X101936685Y-105511350D01*
X101708505Y-105779983D01*
X101708498Y-105779993D01*
X101510695Y-106071730D01*
X101345597Y-106383137D01*
X101345588Y-106383155D01*
X101215127Y-106710589D01*
X101215126Y-106710591D01*
X101120834Y-107050203D01*
X101120833Y-107050206D01*
X101063808Y-107398045D01*
X101044726Y-107749997D01*
X101044726Y-107750002D01*
X100500500Y-107750002D01*
X100500500Y-102004427D01*
X100500816Y-101995581D01*
X100515130Y-101795443D01*
X100515131Y-101795442D01*
X100515130Y-101795436D01*
X100517646Y-101777938D01*
X100559356Y-101586199D01*
X100564333Y-101569248D01*
X100632911Y-101385385D01*
X100640259Y-101369298D01*
X100702815Y-101254734D01*
X100734291Y-101197089D01*
X100743845Y-101182221D01*
X100861448Y-101025123D01*
X100873020Y-101011769D01*
X101011769Y-100873020D01*
X101025123Y-100861448D01*
X101182221Y-100743845D01*
X101197089Y-100734291D01*
X101369298Y-100640258D01*
X101385385Y-100632911D01*
X101569248Y-100564333D01*
X101586199Y-100559356D01*
X101777938Y-100517646D01*
X101795436Y-100515130D01*
X101995582Y-100500816D01*
X102004428Y-100500500D01*
X102065892Y-100500500D01*
X142934108Y-100500500D01*
X142995572Y-100500500D01*
X143004418Y-100500816D01*
G37*
%TD.AperFunction*%
%TD*%
D11*
X100000000Y-117500000D02*
G75*
G03*
X102000000Y-119500000I2000000J0D01*
G01*
X143000000Y-119500000D02*
G75*
G03*
X145000000Y-117500000I0J2000000D01*
G01*
X145000000Y-102000000D02*
G75*
G03*
X143000000Y-100000000I-2000000J0D01*
G01*
X102000000Y-100000000D02*
G75*
G03*
X100000000Y-102000000I0J-2000000D01*
G01*
X101000001Y-100000000D02*
G75*
G03*
X100999999Y-100000000I-1J0D01*
G01*
X100999999Y-100000000D02*
G75*
G03*
X101000001Y-100000000I1J0D01*
G01*
X145000000Y-102000000D02*
X145000000Y-117500000D01*
X100000000Y-102000000D02*
X100000000Y-117500000D01*
X102000000Y-119500000D02*
X143000000Y-119500000D01*
X102000000Y-100000000D02*
X143000000Y-100000000D01*
X142750000Y-107750000D02*
G75*
G03*
X137250000Y-107750000I-2750000J0D01*
G01*
X137250000Y-107750000D02*
G75*
G03*
X142750000Y-107750000I2750000J0D01*
G01*
X107050000Y-107750000D02*
G75*
G03*
X101550000Y-107750000I-2750000J0D01*
G01*
X101550000Y-107750000D02*
G75*
G03*
X107050000Y-107750000I2750000J0D01*
G01*
M02*
