%TF.GenerationSoftware,KiCad,Pcbnew,7.0.11+dfsg-1build4*%
%TF.CreationDate,2026-09-02T21:55:24-05:00*%
%TF.ProjectId,rignexo-mainboard,7269676e-6578-46f2-9d6d-61696e626f61,rev?*%
%TF.SameCoordinates,Original*%
%TF.FileFunction,Soldermask,Bot*%
%TF.FilePolarity,Negative*%
%FSLAX46Y46*%
G04 Gerber Fmt 4.6, Leading zero omitted, Abs format (unit mm)*
G04 Created by KiCad (PCBNEW 7.0.11+dfsg-1build4) date 2026-09-02 21:55:24*
%MOMM*%
%LPD*%
G01*
G04 APERTURE LIST*
%ADD10C,1.000000*%
%ADD11O,1.200000X2.200000*%
%ADD12C,1.800000*%
%ADD13R,1.600000X1.600000*%
%ADD14O,1.600000X1.600000*%
%ADD15O,2.200000X1.200000*%
%TA.AperFunction,Profile*%
%ADD16C,0.050000*%
%TD*%
G04 APERTURE END LIST*
D10*
%TO.C,J1*%
X137500000Y-143000000D03*
X137500000Y-137000000D03*
D11*
X135200000Y-140500000D03*
X139800000Y-142500000D03*
X139800000Y-135550000D03*
%TD*%
D12*
%TO.C,RV1*%
X136500000Y-116200000D03*
X139040000Y-108580000D03*
X136500000Y-103500000D03*
%TD*%
%TO.C,RV2*%
X103500000Y-116200000D03*
X106040000Y-108580000D03*
X103500000Y-103500000D03*
%TD*%
D13*
%TO.C,U2*%
X113630000Y-101700000D03*
D14*
X113630000Y-104240000D03*
X113630000Y-106780000D03*
X113630000Y-109320000D03*
X113630000Y-111860000D03*
X113630000Y-114400000D03*
X113630000Y-116940000D03*
X113630000Y-119480000D03*
X113630000Y-122020000D03*
X128870000Y-122020000D03*
X128870000Y-119480000D03*
X128870000Y-116940000D03*
X128870000Y-114400000D03*
X128870000Y-111860000D03*
X128870000Y-109320000D03*
X128870000Y-106780000D03*
X128870000Y-104240000D03*
X128870000Y-101700000D03*
%TD*%
D10*
%TO.C,J2*%
X104300000Y-142300000D03*
D11*
X102500000Y-138800000D03*
D15*
X104300000Y-136100000D03*
D11*
X106100000Y-138800000D03*
%TD*%
G36*
X142443039Y-100019685D02*
G01*
X142488794Y-100072489D01*
X142500000Y-100124000D01*
X142500000Y-101376000D01*
X142480315Y-101443039D01*
X142427511Y-101488794D01*
X142376000Y-101500000D01*
X141124000Y-101500000D01*
X141056961Y-101480315D01*
X141011206Y-101427511D01*
X141000000Y-101376000D01*
X141000000Y-100124000D01*
X141019685Y-100056961D01*
X141072489Y-100011206D01*
X141124000Y-100000000D01*
X142376000Y-100000000D01*
X142443039Y-100019685D01*
G37*
G36*
X101443039Y-100019685D02*
G01*
X101488794Y-100072489D01*
X101500000Y-100124000D01*
X101500000Y-133626000D01*
X101480315Y-133693039D01*
X101427511Y-133738794D01*
X101376000Y-133750000D01*
X100124000Y-133750000D01*
X100056961Y-133730315D01*
X100011206Y-133677511D01*
X100000000Y-133626000D01*
X100000000Y-100124000D01*
X100019685Y-100056961D01*
X100072489Y-100011206D01*
X100124000Y-100000000D01*
X101376000Y-100000000D01*
X101443039Y-100019685D01*
G37*
D16*
X100000000Y-100000000D02*
X142500000Y-100000000D01*
X142500000Y-145000000D01*
X100000000Y-145000000D01*
X100000000Y-100000000D01*
M02*
