%TF.GenerationSoftware,KiCad,Pcbnew,7.0.11+dfsg-1build4*%
%TF.CreationDate,2026-09-02T21:55:24-05:00*%
%TF.ProjectId,rignexo-mainboard,7269676e-6578-46f2-9d6d-61696e626f61,rev?*%
%TF.SameCoordinates,Original*%
%TF.FileFunction,Legend,Bot*%
%TF.FilePolarity,Positive*%
%FSLAX46Y46*%
G04 Gerber Fmt 4.6, Leading zero omitted, Abs format (unit mm)*
G04 Created by KiCad (PCBNEW 7.0.11+dfsg-1build4) date 2026-09-02 21:55:24*
%MOMM*%
%LPD*%
G01*
G04 APERTURE LIST*
%ADD10C,0.160000*%
%TA.AperFunction,Profile*%
%ADD11C,0.050000*%
%TD*%
G04 APERTURE END LIST*
D10*
X133044737Y-135075013D02*
X132611403Y-135075013D01*
X132611403Y-135075013D02*
X132844737Y-135341680D01*
X132844737Y-135341680D02*
X132744737Y-135341680D01*
X132744737Y-135341680D02*
X132678070Y-135375013D01*
X132678070Y-135375013D02*
X132644737Y-135408346D01*
X132644737Y-135408346D02*
X132611403Y-135475013D01*
X132611403Y-135475013D02*
X132611403Y-135641680D01*
X132611403Y-135641680D02*
X132644737Y-135708346D01*
X132644737Y-135708346D02*
X132678070Y-135741680D01*
X132678070Y-135741680D02*
X132744737Y-135775013D01*
X132744737Y-135775013D02*
X132944737Y-135775013D01*
X132944737Y-135775013D02*
X133011403Y-135741680D01*
X133011403Y-135741680D02*
X133044737Y-135708346D01*
X132311403Y-135708346D02*
X132278070Y-135741680D01*
X132278070Y-135741680D02*
X132311403Y-135775013D01*
X132311403Y-135775013D02*
X132344736Y-135741680D01*
X132344736Y-135741680D02*
X132311403Y-135708346D01*
X132311403Y-135708346D02*
X132311403Y-135775013D01*
X131644737Y-135075013D02*
X131978070Y-135075013D01*
X131978070Y-135075013D02*
X132011403Y-135408346D01*
X132011403Y-135408346D02*
X131978070Y-135375013D01*
X131978070Y-135375013D02*
X131911403Y-135341680D01*
X131911403Y-135341680D02*
X131744737Y-135341680D01*
X131744737Y-135341680D02*
X131678070Y-135375013D01*
X131678070Y-135375013D02*
X131644737Y-135408346D01*
X131644737Y-135408346D02*
X131611403Y-135475013D01*
X131611403Y-135475013D02*
X131611403Y-135641680D01*
X131611403Y-135641680D02*
X131644737Y-135708346D01*
X131644737Y-135708346D02*
X131678070Y-135741680D01*
X131678070Y-135741680D02*
X131744737Y-135775013D01*
X131744737Y-135775013D02*
X131911403Y-135775013D01*
X131911403Y-135775013D02*
X131978070Y-135741680D01*
X131978070Y-135741680D02*
X132011403Y-135708346D01*
X130778070Y-135775013D02*
X130778070Y-135308346D01*
X130778070Y-135375013D02*
X130744737Y-135341680D01*
X130744737Y-135341680D02*
X130678070Y-135308346D01*
X130678070Y-135308346D02*
X130578070Y-135308346D01*
X130578070Y-135308346D02*
X130511403Y-135341680D01*
X130511403Y-135341680D02*
X130478070Y-135408346D01*
X130478070Y-135408346D02*
X130478070Y-135775013D01*
X130478070Y-135408346D02*
X130444737Y-135341680D01*
X130444737Y-135341680D02*
X130378070Y-135308346D01*
X130378070Y-135308346D02*
X130278070Y-135308346D01*
X130278070Y-135308346D02*
X130211403Y-135341680D01*
X130211403Y-135341680D02*
X130178070Y-135408346D01*
X130178070Y-135408346D02*
X130178070Y-135775013D01*
X129844737Y-135775013D02*
X129844737Y-135308346D01*
X129844737Y-135375013D02*
X129811404Y-135341680D01*
X129811404Y-135341680D02*
X129744737Y-135308346D01*
X129744737Y-135308346D02*
X129644737Y-135308346D01*
X129644737Y-135308346D02*
X129578070Y-135341680D01*
X129578070Y-135341680D02*
X129544737Y-135408346D01*
X129544737Y-135408346D02*
X129544737Y-135775013D01*
X129544737Y-135408346D02*
X129511404Y-135341680D01*
X129511404Y-135341680D02*
X129444737Y-135308346D01*
X129444737Y-135308346D02*
X129344737Y-135308346D01*
X129344737Y-135308346D02*
X129278070Y-135341680D01*
X129278070Y-135341680D02*
X129244737Y-135408346D01*
X129244737Y-135408346D02*
X129244737Y-135775013D01*
X133078070Y-136202013D02*
X132678070Y-136202013D01*
X132878070Y-136902013D02*
X132878070Y-136202013D01*
X132444737Y-136835346D02*
X132411404Y-136868680D01*
X132411404Y-136868680D02*
X132444737Y-136902013D01*
X132444737Y-136902013D02*
X132478070Y-136868680D01*
X132478070Y-136868680D02*
X132444737Y-136835346D01*
X132444737Y-136835346D02*
X132444737Y-136902013D01*
X132444737Y-136468680D02*
X132411404Y-136502013D01*
X132411404Y-136502013D02*
X132444737Y-136535346D01*
X132444737Y-136535346D02*
X132478070Y-136502013D01*
X132478070Y-136502013D02*
X132444737Y-136468680D01*
X132444737Y-136468680D02*
X132444737Y-136535346D01*
X132111404Y-136902013D02*
X132111404Y-136202013D01*
X132111404Y-136202013D02*
X131844737Y-136202013D01*
X131844737Y-136202013D02*
X131778071Y-136235346D01*
X131778071Y-136235346D02*
X131744737Y-136268680D01*
X131744737Y-136268680D02*
X131711404Y-136335346D01*
X131711404Y-136335346D02*
X131711404Y-136435346D01*
X131711404Y-136435346D02*
X131744737Y-136502013D01*
X131744737Y-136502013D02*
X131778071Y-136535346D01*
X131778071Y-136535346D02*
X131844737Y-136568680D01*
X131844737Y-136568680D02*
X132111404Y-136568680D01*
X131511404Y-136202013D02*
X131111404Y-136202013D01*
X131311404Y-136902013D02*
X131311404Y-136202013D01*
X130978071Y-136202013D02*
X130578071Y-136202013D01*
X130778071Y-136902013D02*
X130778071Y-136202013D01*
X132578070Y-138029013D02*
X132811403Y-137695680D01*
X132978070Y-138029013D02*
X132978070Y-137329013D01*
X132978070Y-137329013D02*
X132711403Y-137329013D01*
X132711403Y-137329013D02*
X132644737Y-137362346D01*
X132644737Y-137362346D02*
X132611403Y-137395680D01*
X132611403Y-137395680D02*
X132578070Y-137462346D01*
X132578070Y-137462346D02*
X132578070Y-137562346D01*
X132578070Y-137562346D02*
X132611403Y-137629013D01*
X132611403Y-137629013D02*
X132644737Y-137662346D01*
X132644737Y-137662346D02*
X132711403Y-137695680D01*
X132711403Y-137695680D02*
X132978070Y-137695680D01*
X132278070Y-137962346D02*
X132244737Y-137995680D01*
X132244737Y-137995680D02*
X132278070Y-138029013D01*
X132278070Y-138029013D02*
X132311403Y-137995680D01*
X132311403Y-137995680D02*
X132278070Y-137962346D01*
X132278070Y-137962346D02*
X132278070Y-138029013D01*
X132278070Y-137595680D02*
X132244737Y-137629013D01*
X132244737Y-137629013D02*
X132278070Y-137662346D01*
X132278070Y-137662346D02*
X132311403Y-137629013D01*
X132311403Y-137629013D02*
X132278070Y-137595680D01*
X132278070Y-137595680D02*
X132278070Y-137662346D01*
X131944737Y-138029013D02*
X131944737Y-137329013D01*
X131944737Y-137329013D02*
X131711404Y-137829013D01*
X131711404Y-137829013D02*
X131478070Y-137329013D01*
X131478070Y-137329013D02*
X131478070Y-138029013D01*
X131144737Y-138029013D02*
X131144737Y-137329013D01*
X130411404Y-137962346D02*
X130444737Y-137995680D01*
X130444737Y-137995680D02*
X130544737Y-138029013D01*
X130544737Y-138029013D02*
X130611404Y-138029013D01*
X130611404Y-138029013D02*
X130711404Y-137995680D01*
X130711404Y-137995680D02*
X130778071Y-137929013D01*
X130778071Y-137929013D02*
X130811404Y-137862346D01*
X130811404Y-137862346D02*
X130844737Y-137729013D01*
X130844737Y-137729013D02*
X130844737Y-137629013D01*
X130844737Y-137629013D02*
X130811404Y-137495680D01*
X130811404Y-137495680D02*
X130778071Y-137429013D01*
X130778071Y-137429013D02*
X130711404Y-137362346D01*
X130711404Y-137362346D02*
X130611404Y-137329013D01*
X130611404Y-137329013D02*
X130544737Y-137329013D01*
X130544737Y-137329013D02*
X130444737Y-137362346D01*
X130444737Y-137362346D02*
X130411404Y-137395680D01*
X133011403Y-139122680D02*
X132911403Y-139156013D01*
X132911403Y-139156013D02*
X132744737Y-139156013D01*
X132744737Y-139156013D02*
X132678070Y-139122680D01*
X132678070Y-139122680D02*
X132644737Y-139089346D01*
X132644737Y-139089346D02*
X132611403Y-139022680D01*
X132611403Y-139022680D02*
X132611403Y-138956013D01*
X132611403Y-138956013D02*
X132644737Y-138889346D01*
X132644737Y-138889346D02*
X132678070Y-138856013D01*
X132678070Y-138856013D02*
X132744737Y-138822680D01*
X132744737Y-138822680D02*
X132878070Y-138789346D01*
X132878070Y-138789346D02*
X132944737Y-138756013D01*
X132944737Y-138756013D02*
X132978070Y-138722680D01*
X132978070Y-138722680D02*
X133011403Y-138656013D01*
X133011403Y-138656013D02*
X133011403Y-138589346D01*
X133011403Y-138589346D02*
X132978070Y-138522680D01*
X132978070Y-138522680D02*
X132944737Y-138489346D01*
X132944737Y-138489346D02*
X132878070Y-138456013D01*
X132878070Y-138456013D02*
X132711403Y-138456013D01*
X132711403Y-138456013D02*
X132611403Y-138489346D01*
X132311403Y-139089346D02*
X132278070Y-139122680D01*
X132278070Y-139122680D02*
X132311403Y-139156013D01*
X132311403Y-139156013D02*
X132344736Y-139122680D01*
X132344736Y-139122680D02*
X132311403Y-139089346D01*
X132311403Y-139089346D02*
X132311403Y-139156013D01*
X132311403Y-138722680D02*
X132278070Y-138756013D01*
X132278070Y-138756013D02*
X132311403Y-138789346D01*
X132311403Y-138789346D02*
X132344736Y-138756013D01*
X132344736Y-138756013D02*
X132311403Y-138722680D01*
X132311403Y-138722680D02*
X132311403Y-138789346D01*
X131978070Y-139156013D02*
X131978070Y-138456013D01*
X131978070Y-138456013D02*
X131744737Y-138956013D01*
X131744737Y-138956013D02*
X131511403Y-138456013D01*
X131511403Y-138456013D02*
X131511403Y-139156013D01*
X131178070Y-139156013D02*
X131178070Y-138456013D01*
X130444737Y-139089346D02*
X130478070Y-139122680D01*
X130478070Y-139122680D02*
X130578070Y-139156013D01*
X130578070Y-139156013D02*
X130644737Y-139156013D01*
X130644737Y-139156013D02*
X130744737Y-139122680D01*
X130744737Y-139122680D02*
X130811404Y-139056013D01*
X130811404Y-139056013D02*
X130844737Y-138989346D01*
X130844737Y-138989346D02*
X130878070Y-138856013D01*
X130878070Y-138856013D02*
X130878070Y-138756013D01*
X130878070Y-138756013D02*
X130844737Y-138622680D01*
X130844737Y-138622680D02*
X130811404Y-138556013D01*
X130811404Y-138556013D02*
X130744737Y-138489346D01*
X130744737Y-138489346D02*
X130644737Y-138456013D01*
X130644737Y-138456013D02*
X130578070Y-138456013D01*
X130578070Y-138456013D02*
X130478070Y-138489346D01*
X130478070Y-138489346D02*
X130444737Y-138522680D01*
X111261403Y-135141680D02*
X111228070Y-135108346D01*
X111228070Y-135108346D02*
X111161403Y-135075013D01*
X111161403Y-135075013D02*
X110994737Y-135075013D01*
X110994737Y-135075013D02*
X110928070Y-135108346D01*
X110928070Y-135108346D02*
X110894737Y-135141680D01*
X110894737Y-135141680D02*
X110861403Y-135208346D01*
X110861403Y-135208346D02*
X110861403Y-135275013D01*
X110861403Y-135275013D02*
X110894737Y-135375013D01*
X110894737Y-135375013D02*
X111294737Y-135775013D01*
X111294737Y-135775013D02*
X110861403Y-135775013D01*
X110561403Y-135708346D02*
X110528070Y-135741680D01*
X110528070Y-135741680D02*
X110561403Y-135775013D01*
X110561403Y-135775013D02*
X110594736Y-135741680D01*
X110594736Y-135741680D02*
X110561403Y-135708346D01*
X110561403Y-135708346D02*
X110561403Y-135775013D01*
X109894737Y-135075013D02*
X110228070Y-135075013D01*
X110228070Y-135075013D02*
X110261403Y-135408346D01*
X110261403Y-135408346D02*
X110228070Y-135375013D01*
X110228070Y-135375013D02*
X110161403Y-135341680D01*
X110161403Y-135341680D02*
X109994737Y-135341680D01*
X109994737Y-135341680D02*
X109928070Y-135375013D01*
X109928070Y-135375013D02*
X109894737Y-135408346D01*
X109894737Y-135408346D02*
X109861403Y-135475013D01*
X109861403Y-135475013D02*
X109861403Y-135641680D01*
X109861403Y-135641680D02*
X109894737Y-135708346D01*
X109894737Y-135708346D02*
X109928070Y-135741680D01*
X109928070Y-135741680D02*
X109994737Y-135775013D01*
X109994737Y-135775013D02*
X110161403Y-135775013D01*
X110161403Y-135775013D02*
X110228070Y-135741680D01*
X110228070Y-135741680D02*
X110261403Y-135708346D01*
X109028070Y-135775013D02*
X109028070Y-135308346D01*
X109028070Y-135375013D02*
X108994737Y-135341680D01*
X108994737Y-135341680D02*
X108928070Y-135308346D01*
X108928070Y-135308346D02*
X108828070Y-135308346D01*
X108828070Y-135308346D02*
X108761403Y-135341680D01*
X108761403Y-135341680D02*
X108728070Y-135408346D01*
X108728070Y-135408346D02*
X108728070Y-135775013D01*
X108728070Y-135408346D02*
X108694737Y-135341680D01*
X108694737Y-135341680D02*
X108628070Y-135308346D01*
X108628070Y-135308346D02*
X108528070Y-135308346D01*
X108528070Y-135308346D02*
X108461403Y-135341680D01*
X108461403Y-135341680D02*
X108428070Y-135408346D01*
X108428070Y-135408346D02*
X108428070Y-135775013D01*
X108094737Y-135775013D02*
X108094737Y-135308346D01*
X108094737Y-135375013D02*
X108061404Y-135341680D01*
X108061404Y-135341680D02*
X107994737Y-135308346D01*
X107994737Y-135308346D02*
X107894737Y-135308346D01*
X107894737Y-135308346D02*
X107828070Y-135341680D01*
X107828070Y-135341680D02*
X107794737Y-135408346D01*
X107794737Y-135408346D02*
X107794737Y-135775013D01*
X107794737Y-135408346D02*
X107761404Y-135341680D01*
X107761404Y-135341680D02*
X107694737Y-135308346D01*
X107694737Y-135308346D02*
X107594737Y-135308346D01*
X107594737Y-135308346D02*
X107528070Y-135341680D01*
X107528070Y-135341680D02*
X107494737Y-135408346D01*
X107494737Y-135408346D02*
X107494737Y-135775013D01*
X111328070Y-136202013D02*
X110928070Y-136202013D01*
X111128070Y-136902013D02*
X111128070Y-136202013D01*
X110694737Y-136835346D02*
X110661404Y-136868680D01*
X110661404Y-136868680D02*
X110694737Y-136902013D01*
X110694737Y-136902013D02*
X110728070Y-136868680D01*
X110728070Y-136868680D02*
X110694737Y-136835346D01*
X110694737Y-136835346D02*
X110694737Y-136902013D01*
X110694737Y-136468680D02*
X110661404Y-136502013D01*
X110661404Y-136502013D02*
X110694737Y-136535346D01*
X110694737Y-136535346D02*
X110728070Y-136502013D01*
X110728070Y-136502013D02*
X110694737Y-136468680D01*
X110694737Y-136468680D02*
X110694737Y-136535346D01*
X110394737Y-136868680D02*
X110294737Y-136902013D01*
X110294737Y-136902013D02*
X110128071Y-136902013D01*
X110128071Y-136902013D02*
X110061404Y-136868680D01*
X110061404Y-136868680D02*
X110028071Y-136835346D01*
X110028071Y-136835346D02*
X109994737Y-136768680D01*
X109994737Y-136768680D02*
X109994737Y-136702013D01*
X109994737Y-136702013D02*
X110028071Y-136635346D01*
X110028071Y-136635346D02*
X110061404Y-136602013D01*
X110061404Y-136602013D02*
X110128071Y-136568680D01*
X110128071Y-136568680D02*
X110261404Y-136535346D01*
X110261404Y-136535346D02*
X110328071Y-136502013D01*
X110328071Y-136502013D02*
X110361404Y-136468680D01*
X110361404Y-136468680D02*
X110394737Y-136402013D01*
X110394737Y-136402013D02*
X110394737Y-136335346D01*
X110394737Y-136335346D02*
X110361404Y-136268680D01*
X110361404Y-136268680D02*
X110328071Y-136235346D01*
X110328071Y-136235346D02*
X110261404Y-136202013D01*
X110261404Y-136202013D02*
X110094737Y-136202013D01*
X110094737Y-136202013D02*
X109994737Y-136235346D01*
X109694737Y-136902013D02*
X109694737Y-136202013D01*
X109694737Y-136202013D02*
X109428070Y-136202013D01*
X109428070Y-136202013D02*
X109361404Y-136235346D01*
X109361404Y-136235346D02*
X109328070Y-136268680D01*
X109328070Y-136268680D02*
X109294737Y-136335346D01*
X109294737Y-136335346D02*
X109294737Y-136435346D01*
X109294737Y-136435346D02*
X109328070Y-136502013D01*
X109328070Y-136502013D02*
X109361404Y-136535346D01*
X109361404Y-136535346D02*
X109428070Y-136568680D01*
X109428070Y-136568680D02*
X109694737Y-136568680D01*
X108994737Y-136902013D02*
X108994737Y-136202013D01*
X108594737Y-136902013D02*
X108894737Y-136502013D01*
X108594737Y-136202013D02*
X108994737Y-136602013D01*
X110828070Y-138029013D02*
X111061403Y-137695680D01*
X111228070Y-138029013D02*
X111228070Y-137329013D01*
X111228070Y-137329013D02*
X110961403Y-137329013D01*
X110961403Y-137329013D02*
X110894737Y-137362346D01*
X110894737Y-137362346D02*
X110861403Y-137395680D01*
X110861403Y-137395680D02*
X110828070Y-137462346D01*
X110828070Y-137462346D02*
X110828070Y-137562346D01*
X110828070Y-137562346D02*
X110861403Y-137629013D01*
X110861403Y-137629013D02*
X110894737Y-137662346D01*
X110894737Y-137662346D02*
X110961403Y-137695680D01*
X110961403Y-137695680D02*
X111228070Y-137695680D01*
X110528070Y-137962346D02*
X110494737Y-137995680D01*
X110494737Y-137995680D02*
X110528070Y-138029013D01*
X110528070Y-138029013D02*
X110561403Y-137995680D01*
X110561403Y-137995680D02*
X110528070Y-137962346D01*
X110528070Y-137962346D02*
X110528070Y-138029013D01*
X110528070Y-137595680D02*
X110494737Y-137629013D01*
X110494737Y-137629013D02*
X110528070Y-137662346D01*
X110528070Y-137662346D02*
X110561403Y-137629013D01*
X110561403Y-137629013D02*
X110528070Y-137595680D01*
X110528070Y-137595680D02*
X110528070Y-137662346D01*
X110194737Y-138029013D02*
X110194737Y-137329013D01*
X110194737Y-137329013D02*
X109928070Y-137329013D01*
X109928070Y-137329013D02*
X109861404Y-137362346D01*
X109861404Y-137362346D02*
X109828070Y-137395680D01*
X109828070Y-137395680D02*
X109794737Y-137462346D01*
X109794737Y-137462346D02*
X109794737Y-137562346D01*
X109794737Y-137562346D02*
X109828070Y-137629013D01*
X109828070Y-137629013D02*
X109861404Y-137662346D01*
X109861404Y-137662346D02*
X109928070Y-137695680D01*
X109928070Y-137695680D02*
X110194737Y-137695680D01*
X109594737Y-137329013D02*
X109194737Y-137329013D01*
X109394737Y-138029013D02*
X109394737Y-137329013D01*
X109061404Y-137329013D02*
X108661404Y-137329013D01*
X108861404Y-138029013D02*
X108861404Y-137329013D01*
X111261403Y-139122680D02*
X111161403Y-139156013D01*
X111161403Y-139156013D02*
X110994737Y-139156013D01*
X110994737Y-139156013D02*
X110928070Y-139122680D01*
X110928070Y-139122680D02*
X110894737Y-139089346D01*
X110894737Y-139089346D02*
X110861403Y-139022680D01*
X110861403Y-139022680D02*
X110861403Y-138956013D01*
X110861403Y-138956013D02*
X110894737Y-138889346D01*
X110894737Y-138889346D02*
X110928070Y-138856013D01*
X110928070Y-138856013D02*
X110994737Y-138822680D01*
X110994737Y-138822680D02*
X111128070Y-138789346D01*
X111128070Y-138789346D02*
X111194737Y-138756013D01*
X111194737Y-138756013D02*
X111228070Y-138722680D01*
X111228070Y-138722680D02*
X111261403Y-138656013D01*
X111261403Y-138656013D02*
X111261403Y-138589346D01*
X111261403Y-138589346D02*
X111228070Y-138522680D01*
X111228070Y-138522680D02*
X111194737Y-138489346D01*
X111194737Y-138489346D02*
X111128070Y-138456013D01*
X111128070Y-138456013D02*
X110961403Y-138456013D01*
X110961403Y-138456013D02*
X110861403Y-138489346D01*
X110561403Y-139089346D02*
X110528070Y-139122680D01*
X110528070Y-139122680D02*
X110561403Y-139156013D01*
X110561403Y-139156013D02*
X110594736Y-139122680D01*
X110594736Y-139122680D02*
X110561403Y-139089346D01*
X110561403Y-139089346D02*
X110561403Y-139156013D01*
X110561403Y-138722680D02*
X110528070Y-138756013D01*
X110528070Y-138756013D02*
X110561403Y-138789346D01*
X110561403Y-138789346D02*
X110594736Y-138756013D01*
X110594736Y-138756013D02*
X110561403Y-138722680D01*
X110561403Y-138722680D02*
X110561403Y-138789346D01*
X110261403Y-139122680D02*
X110161403Y-139156013D01*
X110161403Y-139156013D02*
X109994737Y-139156013D01*
X109994737Y-139156013D02*
X109928070Y-139122680D01*
X109928070Y-139122680D02*
X109894737Y-139089346D01*
X109894737Y-139089346D02*
X109861403Y-139022680D01*
X109861403Y-139022680D02*
X109861403Y-138956013D01*
X109861403Y-138956013D02*
X109894737Y-138889346D01*
X109894737Y-138889346D02*
X109928070Y-138856013D01*
X109928070Y-138856013D02*
X109994737Y-138822680D01*
X109994737Y-138822680D02*
X110128070Y-138789346D01*
X110128070Y-138789346D02*
X110194737Y-138756013D01*
X110194737Y-138756013D02*
X110228070Y-138722680D01*
X110228070Y-138722680D02*
X110261403Y-138656013D01*
X110261403Y-138656013D02*
X110261403Y-138589346D01*
X110261403Y-138589346D02*
X110228070Y-138522680D01*
X110228070Y-138522680D02*
X110194737Y-138489346D01*
X110194737Y-138489346D02*
X110128070Y-138456013D01*
X110128070Y-138456013D02*
X109961403Y-138456013D01*
X109961403Y-138456013D02*
X109861403Y-138489346D01*
X109561403Y-139156013D02*
X109561403Y-138456013D01*
X109561403Y-138456013D02*
X109294736Y-138456013D01*
X109294736Y-138456013D02*
X109228070Y-138489346D01*
X109228070Y-138489346D02*
X109194736Y-138522680D01*
X109194736Y-138522680D02*
X109161403Y-138589346D01*
X109161403Y-138589346D02*
X109161403Y-138689346D01*
X109161403Y-138689346D02*
X109194736Y-138756013D01*
X109194736Y-138756013D02*
X109228070Y-138789346D01*
X109228070Y-138789346D02*
X109294736Y-138822680D01*
X109294736Y-138822680D02*
X109561403Y-138822680D01*
X108861403Y-139156013D02*
X108861403Y-138456013D01*
X108461403Y-139156013D02*
X108761403Y-138756013D01*
X108461403Y-138456013D02*
X108861403Y-138856013D01*
X106761403Y-101372680D02*
X106661403Y-101406013D01*
X106661403Y-101406013D02*
X106494737Y-101406013D01*
X106494737Y-101406013D02*
X106428070Y-101372680D01*
X106428070Y-101372680D02*
X106394737Y-101339346D01*
X106394737Y-101339346D02*
X106361403Y-101272680D01*
X106361403Y-101272680D02*
X106361403Y-101206013D01*
X106361403Y-101206013D02*
X106394737Y-101139346D01*
X106394737Y-101139346D02*
X106428070Y-101106013D01*
X106428070Y-101106013D02*
X106494737Y-101072680D01*
X106494737Y-101072680D02*
X106628070Y-101039346D01*
X106628070Y-101039346D02*
X106694737Y-101006013D01*
X106694737Y-101006013D02*
X106728070Y-100972680D01*
X106728070Y-100972680D02*
X106761403Y-100906013D01*
X106761403Y-100906013D02*
X106761403Y-100839346D01*
X106761403Y-100839346D02*
X106728070Y-100772680D01*
X106728070Y-100772680D02*
X106694737Y-100739346D01*
X106694737Y-100739346D02*
X106628070Y-100706013D01*
X106628070Y-100706013D02*
X106461403Y-100706013D01*
X106461403Y-100706013D02*
X106361403Y-100739346D01*
X106061403Y-101406013D02*
X106061403Y-100706013D01*
X106061403Y-100706013D02*
X105794736Y-100706013D01*
X105794736Y-100706013D02*
X105728070Y-100739346D01*
X105728070Y-100739346D02*
X105694736Y-100772680D01*
X105694736Y-100772680D02*
X105661403Y-100839346D01*
X105661403Y-100839346D02*
X105661403Y-100939346D01*
X105661403Y-100939346D02*
X105694736Y-101006013D01*
X105694736Y-101006013D02*
X105728070Y-101039346D01*
X105728070Y-101039346D02*
X105794736Y-101072680D01*
X105794736Y-101072680D02*
X106061403Y-101072680D01*
X105361403Y-101406013D02*
X105361403Y-100706013D01*
X104961403Y-101406013D02*
X105261403Y-101006013D01*
X104961403Y-100706013D02*
X105361403Y-101106013D01*
X104228070Y-100706013D02*
X103994737Y-101406013D01*
X103994737Y-101406013D02*
X103761403Y-100706013D01*
X103394737Y-100706013D02*
X103261403Y-100706013D01*
X103261403Y-100706013D02*
X103194737Y-100739346D01*
X103194737Y-100739346D02*
X103128070Y-100806013D01*
X103128070Y-100806013D02*
X103094737Y-100939346D01*
X103094737Y-100939346D02*
X103094737Y-101172680D01*
X103094737Y-101172680D02*
X103128070Y-101306013D01*
X103128070Y-101306013D02*
X103194737Y-101372680D01*
X103194737Y-101372680D02*
X103261403Y-101406013D01*
X103261403Y-101406013D02*
X103394737Y-101406013D01*
X103394737Y-101406013D02*
X103461403Y-101372680D01*
X103461403Y-101372680D02*
X103528070Y-101306013D01*
X103528070Y-101306013D02*
X103561403Y-101172680D01*
X103561403Y-101172680D02*
X103561403Y-100939346D01*
X103561403Y-100939346D02*
X103528070Y-100806013D01*
X103528070Y-100806013D02*
X103461403Y-100739346D01*
X103461403Y-100739346D02*
X103394737Y-100706013D01*
X102461404Y-101406013D02*
X102794737Y-101406013D01*
X102794737Y-101406013D02*
X102794737Y-100706013D01*
X139978070Y-101406013D02*
X139978070Y-100706013D01*
X139978070Y-100706013D02*
X139744737Y-101206013D01*
X139744737Y-101206013D02*
X139511403Y-100706013D01*
X139511403Y-100706013D02*
X139511403Y-101406013D01*
X139178070Y-101406013D02*
X139178070Y-100706013D01*
X138444737Y-101339346D02*
X138478070Y-101372680D01*
X138478070Y-101372680D02*
X138578070Y-101406013D01*
X138578070Y-101406013D02*
X138644737Y-101406013D01*
X138644737Y-101406013D02*
X138744737Y-101372680D01*
X138744737Y-101372680D02*
X138811404Y-101306013D01*
X138811404Y-101306013D02*
X138844737Y-101239346D01*
X138844737Y-101239346D02*
X138878070Y-101106013D01*
X138878070Y-101106013D02*
X138878070Y-101006013D01*
X138878070Y-101006013D02*
X138844737Y-100872680D01*
X138844737Y-100872680D02*
X138811404Y-100806013D01*
X138811404Y-100806013D02*
X138744737Y-100739346D01*
X138744737Y-100739346D02*
X138644737Y-100706013D01*
X138644737Y-100706013D02*
X138578070Y-100706013D01*
X138578070Y-100706013D02*
X138478070Y-100739346D01*
X138478070Y-100739346D02*
X138444737Y-100772680D01*
X137711404Y-100706013D02*
X137478071Y-101406013D01*
X137478071Y-101406013D02*
X137244737Y-100706013D01*
X136878071Y-100706013D02*
X136744737Y-100706013D01*
X136744737Y-100706013D02*
X136678071Y-100739346D01*
X136678071Y-100739346D02*
X136611404Y-100806013D01*
X136611404Y-100806013D02*
X136578071Y-100939346D01*
X136578071Y-100939346D02*
X136578071Y-101172680D01*
X136578071Y-101172680D02*
X136611404Y-101306013D01*
X136611404Y-101306013D02*
X136678071Y-101372680D01*
X136678071Y-101372680D02*
X136744737Y-101406013D01*
X136744737Y-101406013D02*
X136878071Y-101406013D01*
X136878071Y-101406013D02*
X136944737Y-101372680D01*
X136944737Y-101372680D02*
X137011404Y-101306013D01*
X137011404Y-101306013D02*
X137044737Y-101172680D01*
X137044737Y-101172680D02*
X137044737Y-100939346D01*
X137044737Y-100939346D02*
X137011404Y-100806013D01*
X137011404Y-100806013D02*
X136944737Y-100739346D01*
X136944737Y-100739346D02*
X136878071Y-100706013D01*
X135944738Y-101406013D02*
X136278071Y-101406013D01*
X136278071Y-101406013D02*
X136278071Y-100706013D01*
X126478070Y-143906013D02*
X126478070Y-143206013D01*
X126178070Y-143872680D02*
X126078070Y-143906013D01*
X126078070Y-143906013D02*
X125911404Y-143906013D01*
X125911404Y-143906013D02*
X125844737Y-143872680D01*
X125844737Y-143872680D02*
X125811404Y-143839346D01*
X125811404Y-143839346D02*
X125778070Y-143772680D01*
X125778070Y-143772680D02*
X125778070Y-143706013D01*
X125778070Y-143706013D02*
X125811404Y-143639346D01*
X125811404Y-143639346D02*
X125844737Y-143606013D01*
X125844737Y-143606013D02*
X125911404Y-143572680D01*
X125911404Y-143572680D02*
X126044737Y-143539346D01*
X126044737Y-143539346D02*
X126111404Y-143506013D01*
X126111404Y-143506013D02*
X126144737Y-143472680D01*
X126144737Y-143472680D02*
X126178070Y-143406013D01*
X126178070Y-143406013D02*
X126178070Y-143339346D01*
X126178070Y-143339346D02*
X126144737Y-143272680D01*
X126144737Y-143272680D02*
X126111404Y-143239346D01*
X126111404Y-143239346D02*
X126044737Y-143206013D01*
X126044737Y-143206013D02*
X125878070Y-143206013D01*
X125878070Y-143206013D02*
X125778070Y-143239346D01*
X125344737Y-143206013D02*
X125211403Y-143206013D01*
X125211403Y-143206013D02*
X125144737Y-143239346D01*
X125144737Y-143239346D02*
X125078070Y-143306013D01*
X125078070Y-143306013D02*
X125044737Y-143439346D01*
X125044737Y-143439346D02*
X125044737Y-143672680D01*
X125044737Y-143672680D02*
X125078070Y-143806013D01*
X125078070Y-143806013D02*
X125144737Y-143872680D01*
X125144737Y-143872680D02*
X125211403Y-143906013D01*
X125211403Y-143906013D02*
X125344737Y-143906013D01*
X125344737Y-143906013D02*
X125411403Y-143872680D01*
X125411403Y-143872680D02*
X125478070Y-143806013D01*
X125478070Y-143806013D02*
X125511403Y-143672680D01*
X125511403Y-143672680D02*
X125511403Y-143439346D01*
X125511403Y-143439346D02*
X125478070Y-143306013D01*
X125478070Y-143306013D02*
X125411403Y-143239346D01*
X125411403Y-143239346D02*
X125344737Y-143206013D01*
X124411404Y-143906013D02*
X124744737Y-143906013D01*
X124744737Y-143906013D02*
X124744737Y-143206013D01*
X124211403Y-143706013D02*
X123878070Y-143706013D01*
X124278070Y-143906013D02*
X124044737Y-143206013D01*
X124044737Y-143206013D02*
X123811403Y-143906013D01*
X123678070Y-143206013D02*
X123278070Y-143206013D01*
X123478070Y-143906013D02*
X123478070Y-143206013D01*
X123044737Y-143539346D02*
X122811404Y-143539346D01*
X122711404Y-143906013D02*
X123044737Y-143906013D01*
X123044737Y-143906013D02*
X123044737Y-143206013D01*
X123044737Y-143206013D02*
X122711404Y-143206013D01*
X122411404Y-143906013D02*
X122411404Y-143206013D01*
X122411404Y-143206013D02*
X122244737Y-143206013D01*
X122244737Y-143206013D02*
X122144737Y-143239346D01*
X122144737Y-143239346D02*
X122078071Y-143306013D01*
X122078071Y-143306013D02*
X122044737Y-143372680D01*
X122044737Y-143372680D02*
X122011404Y-143506013D01*
X122011404Y-143506013D02*
X122011404Y-143606013D01*
X122011404Y-143606013D02*
X122044737Y-143739346D01*
X122044737Y-143739346D02*
X122078071Y-143806013D01*
X122078071Y-143806013D02*
X122144737Y-143872680D01*
X122144737Y-143872680D02*
X122244737Y-143906013D01*
X122244737Y-143906013D02*
X122411404Y-143906013D01*
X121178071Y-143906013D02*
X121178071Y-143206013D01*
X121178071Y-143539346D02*
X120778071Y-143539346D01*
X120778071Y-143906013D02*
X120778071Y-143206013D01*
X120478071Y-143706013D02*
X120144738Y-143706013D01*
X120544738Y-143906013D02*
X120311405Y-143206013D01*
X120311405Y-143206013D02*
X120078071Y-143906013D01*
X119844738Y-143906013D02*
X119844738Y-143206013D01*
X119844738Y-143206013D02*
X119611405Y-143706013D01*
X119611405Y-143706013D02*
X119378071Y-143206013D01*
X119378071Y-143206013D02*
X119378071Y-143906013D01*
X118111405Y-143906013D02*
X118344738Y-143572680D01*
X118511405Y-143906013D02*
X118511405Y-143206013D01*
X118511405Y-143206013D02*
X118244738Y-143206013D01*
X118244738Y-143206013D02*
X118178072Y-143239346D01*
X118178072Y-143239346D02*
X118144738Y-143272680D01*
X118144738Y-143272680D02*
X118111405Y-143339346D01*
X118111405Y-143339346D02*
X118111405Y-143439346D01*
X118111405Y-143439346D02*
X118144738Y-143506013D01*
X118144738Y-143506013D02*
X118178072Y-143539346D01*
X118178072Y-143539346D02*
X118244738Y-143572680D01*
X118244738Y-143572680D02*
X118511405Y-143572680D01*
X117844738Y-143706013D02*
X117511405Y-143706013D01*
X117911405Y-143906013D02*
X117678072Y-143206013D01*
X117678072Y-143206013D02*
X117444738Y-143906013D01*
X117211405Y-143906013D02*
X117211405Y-143206013D01*
X117211405Y-143206013D02*
X117044738Y-143206013D01*
X117044738Y-143206013D02*
X116944738Y-143239346D01*
X116944738Y-143239346D02*
X116878072Y-143306013D01*
X116878072Y-143306013D02*
X116844738Y-143372680D01*
X116844738Y-143372680D02*
X116811405Y-143506013D01*
X116811405Y-143506013D02*
X116811405Y-143606013D01*
X116811405Y-143606013D02*
X116844738Y-143739346D01*
X116844738Y-143739346D02*
X116878072Y-143806013D01*
X116878072Y-143806013D02*
X116944738Y-143872680D01*
X116944738Y-143872680D02*
X117044738Y-143906013D01*
X117044738Y-143906013D02*
X117211405Y-143906013D01*
X116511405Y-143906013D02*
X116511405Y-143206013D01*
X116044739Y-143206013D02*
X115911405Y-143206013D01*
X115911405Y-143206013D02*
X115844739Y-143239346D01*
X115844739Y-143239346D02*
X115778072Y-143306013D01*
X115778072Y-143306013D02*
X115744739Y-143439346D01*
X115744739Y-143439346D02*
X115744739Y-143672680D01*
X115744739Y-143672680D02*
X115778072Y-143806013D01*
X115778072Y-143806013D02*
X115844739Y-143872680D01*
X115844739Y-143872680D02*
X115911405Y-143906013D01*
X115911405Y-143906013D02*
X116044739Y-143906013D01*
X116044739Y-143906013D02*
X116111405Y-143872680D01*
X116111405Y-143872680D02*
X116178072Y-143806013D01*
X116178072Y-143806013D02*
X116211405Y-143672680D01*
X116211405Y-143672680D02*
X116211405Y-143439346D01*
X116211405Y-143439346D02*
X116178072Y-143306013D01*
X116178072Y-143306013D02*
X116111405Y-143239346D01*
X116111405Y-143239346D02*
X116044739Y-143206013D01*
X114911406Y-143906013D02*
X114911406Y-143206013D01*
X114578073Y-143906013D02*
X114578073Y-143206013D01*
X114578073Y-143206013D02*
X114178073Y-143906013D01*
X114178073Y-143906013D02*
X114178073Y-143206013D01*
X113944740Y-143206013D02*
X113544740Y-143206013D01*
X113744740Y-143906013D02*
X113744740Y-143206013D01*
X113311407Y-143539346D02*
X113078074Y-143539346D01*
X112978074Y-143906013D02*
X113311407Y-143906013D01*
X113311407Y-143906013D02*
X113311407Y-143206013D01*
X113311407Y-143206013D02*
X112978074Y-143206013D01*
X112278074Y-143906013D02*
X112511407Y-143572680D01*
X112678074Y-143906013D02*
X112678074Y-143206013D01*
X112678074Y-143206013D02*
X112411407Y-143206013D01*
X112411407Y-143206013D02*
X112344741Y-143239346D01*
X112344741Y-143239346D02*
X112311407Y-143272680D01*
X112311407Y-143272680D02*
X112278074Y-143339346D01*
X112278074Y-143339346D02*
X112278074Y-143439346D01*
X112278074Y-143439346D02*
X112311407Y-143506013D01*
X112311407Y-143506013D02*
X112344741Y-143539346D01*
X112344741Y-143539346D02*
X112411407Y-143572680D01*
X112411407Y-143572680D02*
X112678074Y-143572680D01*
X111744741Y-143539346D02*
X111978074Y-143539346D01*
X111978074Y-143906013D02*
X111978074Y-143206013D01*
X111978074Y-143206013D02*
X111644741Y-143206013D01*
X111411407Y-143706013D02*
X111078074Y-143706013D01*
X111478074Y-143906013D02*
X111244741Y-143206013D01*
X111244741Y-143206013D02*
X111011407Y-143906013D01*
X110378074Y-143839346D02*
X110411407Y-143872680D01*
X110411407Y-143872680D02*
X110511407Y-143906013D01*
X110511407Y-143906013D02*
X110578074Y-143906013D01*
X110578074Y-143906013D02*
X110678074Y-143872680D01*
X110678074Y-143872680D02*
X110744741Y-143806013D01*
X110744741Y-143806013D02*
X110778074Y-143739346D01*
X110778074Y-143739346D02*
X110811407Y-143606013D01*
X110811407Y-143606013D02*
X110811407Y-143506013D01*
X110811407Y-143506013D02*
X110778074Y-143372680D01*
X110778074Y-143372680D02*
X110744741Y-143306013D01*
X110744741Y-143306013D02*
X110678074Y-143239346D01*
X110678074Y-143239346D02*
X110578074Y-143206013D01*
X110578074Y-143206013D02*
X110511407Y-143206013D01*
X110511407Y-143206013D02*
X110411407Y-143239346D01*
X110411407Y-143239346D02*
X110378074Y-143272680D01*
X110078074Y-143539346D02*
X109844741Y-143539346D01*
X109744741Y-143906013D02*
X110078074Y-143906013D01*
X110078074Y-143906013D02*
X110078074Y-143206013D01*
X110078074Y-143206013D02*
X109744741Y-143206013D01*
X121423308Y-142094822D02*
X121823308Y-141523394D01*
X122109022Y-142094822D02*
X122109022Y-140894822D01*
X122109022Y-140894822D02*
X121651879Y-140894822D01*
X121651879Y-140894822D02*
X121537594Y-140951965D01*
X121537594Y-140951965D02*
X121480451Y-141009108D01*
X121480451Y-141009108D02*
X121423308Y-141123394D01*
X121423308Y-141123394D02*
X121423308Y-141294822D01*
X121423308Y-141294822D02*
X121480451Y-141409108D01*
X121480451Y-141409108D02*
X121537594Y-141466251D01*
X121537594Y-141466251D02*
X121651879Y-141523394D01*
X121651879Y-141523394D02*
X122109022Y-141523394D01*
X120909022Y-142094822D02*
X120909022Y-140894822D01*
X119709022Y-140951965D02*
X119823308Y-140894822D01*
X119823308Y-140894822D02*
X119994736Y-140894822D01*
X119994736Y-140894822D02*
X120166165Y-140951965D01*
X120166165Y-140951965D02*
X120280450Y-141066251D01*
X120280450Y-141066251D02*
X120337593Y-141180537D01*
X120337593Y-141180537D02*
X120394736Y-141409108D01*
X120394736Y-141409108D02*
X120394736Y-141580537D01*
X120394736Y-141580537D02*
X120337593Y-141809108D01*
X120337593Y-141809108D02*
X120280450Y-141923394D01*
X120280450Y-141923394D02*
X120166165Y-142037680D01*
X120166165Y-142037680D02*
X119994736Y-142094822D01*
X119994736Y-142094822D02*
X119880450Y-142094822D01*
X119880450Y-142094822D02*
X119709022Y-142037680D01*
X119709022Y-142037680D02*
X119651879Y-141980537D01*
X119651879Y-141980537D02*
X119651879Y-141580537D01*
X119651879Y-141580537D02*
X119880450Y-141580537D01*
X119137593Y-142094822D02*
X119137593Y-140894822D01*
X119137593Y-140894822D02*
X118451879Y-142094822D01*
X118451879Y-142094822D02*
X118451879Y-140894822D01*
X117880450Y-141466251D02*
X117480450Y-141466251D01*
X117309022Y-142094822D02*
X117880450Y-142094822D01*
X117880450Y-142094822D02*
X117880450Y-140894822D01*
X117880450Y-140894822D02*
X117309022Y-140894822D01*
X116909022Y-140894822D02*
X116109022Y-142094822D01*
X116109022Y-140894822D02*
X116909022Y-142094822D01*
X115423308Y-140894822D02*
X115194736Y-140894822D01*
X115194736Y-140894822D02*
X115080451Y-140951965D01*
X115080451Y-140951965D02*
X114966165Y-141066251D01*
X114966165Y-141066251D02*
X114909022Y-141294822D01*
X114909022Y-141294822D02*
X114909022Y-141694822D01*
X114909022Y-141694822D02*
X114966165Y-141923394D01*
X114966165Y-141923394D02*
X115080451Y-142037680D01*
X115080451Y-142037680D02*
X115194736Y-142094822D01*
X115194736Y-142094822D02*
X115423308Y-142094822D01*
X115423308Y-142094822D02*
X115537594Y-142037680D01*
X115537594Y-142037680D02*
X115651879Y-141923394D01*
X115651879Y-141923394D02*
X115709022Y-141694822D01*
X115709022Y-141694822D02*
X115709022Y-141294822D01*
X115709022Y-141294822D02*
X115651879Y-141066251D01*
X115651879Y-141066251D02*
X115537594Y-140951965D01*
X115537594Y-140951965D02*
X115423308Y-140894822D01*
D11*
X100000000Y-100000000D02*
X142500000Y-100000000D01*
X142500000Y-145000000D01*
X100000000Y-145000000D01*
X100000000Y-100000000D01*
M02*
