%TF.GenerationSoftware,KiCad,Pcbnew,7.0.11+dfsg-1build4*%
%TF.CreationDate,2026-09-02T21:55:24-05:00*%
%TF.ProjectId,rignexo-mainboard,7269676e-6578-46f2-9d6d-61696e626f61,rev?*%
%TF.SameCoordinates,Original*%
%TF.FileFunction,Soldermask,Top*%
%TF.FilePolarity,Negative*%
%FSLAX46Y46*%
G04 Gerber Fmt 4.6, Leading zero omitted, Abs format (unit mm)*
G04 Created by KiCad (PCBNEW 7.0.11+dfsg-1build4) date 2026-09-02 21:55:24*
%MOMM*%
%LPD*%
G01*
G04 APERTURE LIST*
G04 Aperture macros list*
%AMRoundRect*
0 Rectangle with rounded corners*
0 $1 Rounding radius*
0 $2 $3 $4 $5 $6 $7 $8 $9 X,Y pos of 4 corners*
0 Add a 4 corners polygon primitive as box body*
4,1,4,$2,$3,$4,$5,$6,$7,$8,$9,$2,$3,0*
0 Add four circle primitives for the rounded corners*
1,1,$1+$1,$2,$3*
1,1,$1+$1,$4,$5*
1,1,$1+$1,$6,$7*
1,1,$1+$1,$8,$9*
0 Add four rect primitives between the rounded corners*
20,1,$1+$1,$2,$3,$4,$5,0*
20,1,$1+$1,$4,$5,$6,$7,0*
20,1,$1+$1,$6,$7,$8,$9,0*
20,1,$1+$1,$8,$9,$2,$3,0*%
G04 Aperture macros list end*
%ADD10RoundRect,0.250000X0.337500X0.475000X-0.337500X0.475000X-0.337500X-0.475000X0.337500X-0.475000X0*%
%ADD11RoundRect,0.250000X0.325000X0.450000X-0.325000X0.450000X-0.325000X-0.450000X0.325000X-0.450000X0*%
%ADD12R,0.800000X1.800000*%
%ADD13C,1.000000*%
%ADD14O,1.200000X2.200000*%
%ADD15RoundRect,0.250000X0.350000X0.450000X-0.350000X0.450000X-0.350000X-0.450000X0.350000X-0.450000X0*%
%ADD16RoundRect,0.250000X-0.350000X-0.450000X0.350000X-0.450000X0.350000X0.450000X-0.350000X0.450000X0*%
%ADD17RoundRect,0.250000X-0.337500X-0.475000X0.337500X-0.475000X0.337500X0.475000X-0.337500X0.475000X0*%
%ADD18R,1.500000X2.030000*%
%ADD19C,1.800000*%
%ADD20RoundRect,0.250000X0.450000X-0.350000X0.450000X0.350000X-0.450000X0.350000X-0.450000X-0.350000X0*%
%ADD21R,1.600000X1.600000*%
%ADD22O,1.600000X1.600000*%
%ADD23RoundRect,0.150000X-0.587500X-0.150000X0.587500X-0.150000X0.587500X0.150000X-0.587500X0.150000X0*%
%ADD24O,2.200000X1.200000*%
%ADD25RoundRect,0.250000X-0.475000X0.337500X-0.475000X-0.337500X0.475000X-0.337500X0.475000X0.337500X0*%
%ADD26RoundRect,0.250000X0.475000X-0.337500X0.475000X0.337500X-0.475000X0.337500X-0.475000X-0.337500X0*%
%ADD27RoundRect,0.250000X-0.250000X-0.250000X0.250000X-0.250000X0.250000X0.250000X-0.250000X0.250000X0*%
%TA.AperFunction,Profile*%
%ADD28C,0.050000*%
%TD*%
G04 APERTURE END LIST*
D10*
%TO.C,C4*%
X133537500Y-115250000D03*
X131462500Y-115250000D03*
%TD*%
D11*
%TO.C,D1*%
X133750000Y-101200000D03*
X131700000Y-101200000D03*
%TD*%
D12*
%TO.C,K1*%
X137350000Y-121000000D03*
X135150000Y-121000000D03*
X139550000Y-121000000D03*
X137350000Y-128000000D03*
X135150000Y-128000000D03*
X139550000Y-128000000D03*
X131950000Y-121000000D03*
X131950000Y-128000000D03*
%TD*%
D13*
%TO.C,J1*%
X137500000Y-143000000D03*
X137500000Y-137000000D03*
D14*
X135200000Y-140500000D03*
X139800000Y-142500000D03*
X139800000Y-135550000D03*
%TD*%
D15*
%TO.C,R11*%
X110750000Y-104500000D03*
X108750000Y-104500000D03*
%TD*%
D10*
%TO.C,C7*%
X105500000Y-121250000D03*
X103425000Y-121250000D03*
%TD*%
%TO.C,C5*%
X133500000Y-118000000D03*
X131425000Y-118000000D03*
%TD*%
D16*
%TO.C,R12*%
X108500000Y-125250000D03*
X110500000Y-125250000D03*
%TD*%
D10*
%TO.C,C3*%
X133500000Y-110250000D03*
X131425000Y-110250000D03*
%TD*%
D15*
%TO.C,R2*%
X133500000Y-107750000D03*
X131500000Y-107750000D03*
%TD*%
D17*
%TO.C,C6*%
X103425000Y-126750000D03*
X105500000Y-126750000D03*
%TD*%
D18*
%TO.C,T1*%
X128500000Y-130150000D03*
X123500000Y-130150000D03*
X128500000Y-143450000D03*
X123500000Y-143450000D03*
%TD*%
%TO.C,T2*%
X119000000Y-130150000D03*
X114000000Y-130150000D03*
X119000000Y-143450000D03*
X114000000Y-143450000D03*
%TD*%
D16*
%TO.C,R9*%
X108750000Y-107750000D03*
X110750000Y-107750000D03*
%TD*%
D19*
%TO.C,RV1*%
X136500000Y-116200000D03*
X139040000Y-108580000D03*
X136500000Y-103500000D03*
%TD*%
%TO.C,RV2*%
X103500000Y-116200000D03*
X106040000Y-108580000D03*
X103500000Y-103500000D03*
%TD*%
D16*
%TO.C,R10*%
X108500000Y-121750000D03*
X110500000Y-121750000D03*
%TD*%
%TO.C,R8*%
X108750000Y-113750000D03*
X110750000Y-113750000D03*
%TD*%
D20*
%TO.C,R1*%
X132000000Y-138000000D03*
X132000000Y-136000000D03*
%TD*%
D15*
%TO.C,R4*%
X133500000Y-104000000D03*
X131500000Y-104000000D03*
%TD*%
D11*
%TO.C,D5*%
X110750000Y-101200000D03*
X108700000Y-101200000D03*
%TD*%
D21*
%TO.C,U2*%
X113630000Y-101700000D03*
D22*
X113630000Y-104240000D03*
X113630000Y-106780000D03*
X113630000Y-109320000D03*
X113630000Y-111860000D03*
X113630000Y-114400000D03*
X113630000Y-116940000D03*
X113630000Y-119480000D03*
X113630000Y-122020000D03*
X128870000Y-122020000D03*
X128870000Y-119480000D03*
X128870000Y-116940000D03*
X128870000Y-114400000D03*
X128870000Y-111860000D03*
X128870000Y-109320000D03*
X128870000Y-106780000D03*
X128870000Y-104240000D03*
X128870000Y-101700000D03*
%TD*%
D23*
%TO.C,Q1*%
X108625000Y-130300000D03*
X108625000Y-132200000D03*
X110500000Y-131250000D03*
%TD*%
D13*
%TO.C,J2*%
X104300000Y-142300000D03*
D14*
X102500000Y-138800000D03*
D24*
X104300000Y-136100000D03*
D14*
X106100000Y-138800000D03*
%TD*%
D15*
%TO.C,R6*%
X105500000Y-132000000D03*
X103500000Y-132000000D03*
%TD*%
D25*
%TO.C,C1*%
X132000000Y-140962500D03*
X132000000Y-143037500D03*
%TD*%
D15*
%TO.C,R5*%
X105500000Y-129250000D03*
X103500000Y-129250000D03*
%TD*%
D26*
%TO.C,C2*%
X110000000Y-141037500D03*
X110000000Y-138962500D03*
%TD*%
D27*
%TO.C,D3*%
X108500000Y-110750000D03*
X111000000Y-110750000D03*
%TD*%
%TO.C,D2*%
X108500000Y-116750000D03*
X111000000Y-116750000D03*
%TD*%
D15*
%TO.C,R3*%
X133500000Y-112750000D03*
X131500000Y-112750000D03*
%TD*%
D27*
%TO.C,D4*%
X124250000Y-127000000D03*
X126750000Y-127000000D03*
%TD*%
D16*
%TO.C,R7*%
X103500000Y-124000000D03*
X105500000Y-124000000D03*
%TD*%
G36*
X142443039Y-100019685D02*
G01*
X142488794Y-100072489D01*
X142500000Y-100124000D01*
X142500000Y-101376000D01*
X142480315Y-101443039D01*
X142427511Y-101488794D01*
X142376000Y-101500000D01*
X141124000Y-101500000D01*
X141056961Y-101480315D01*
X141011206Y-101427511D01*
X141000000Y-101376000D01*
X141000000Y-100124000D01*
X141019685Y-100056961D01*
X141072489Y-100011206D01*
X141124000Y-100000000D01*
X142376000Y-100000000D01*
X142443039Y-100019685D01*
G37*
G36*
X101443039Y-100019685D02*
G01*
X101488794Y-100072489D01*
X101500000Y-100124000D01*
X101500000Y-133626000D01*
X101480315Y-133693039D01*
X101427511Y-133738794D01*
X101376000Y-133750000D01*
X100124000Y-133750000D01*
X100056961Y-133730315D01*
X100011206Y-133677511D01*
X100000000Y-133626000D01*
X100000000Y-100124000D01*
X100019685Y-100056961D01*
X100072489Y-100011206D01*
X100124000Y-100000000D01*
X101376000Y-100000000D01*
X101443039Y-100019685D01*
G37*
D28*
X100000000Y-100000000D02*
X142500000Y-100000000D01*
X142500000Y-145000000D01*
X100000000Y-145000000D01*
X100000000Y-100000000D01*
M02*
