%TF.GenerationSoftware,KiCad,Pcbnew,7.0.11+dfsg-1build4*%
%TF.CreationDate,2026-09-02T21:55:24-05:00*%
%TF.ProjectId,rignexo-mainboard,7269676e-6578-46f2-9d6d-61696e626f61,rev?*%
%TF.SameCoordinates,Original*%
%TF.FileFunction,Copper,L2,Bot*%
%TF.FilePolarity,Positive*%
%FSLAX46Y46*%
G04 Gerber Fmt 4.6, Leading zero omitted, Abs format (unit mm)*
G04 Created by KiCad (PCBNEW 7.0.11+dfsg-1build4) date 2026-09-02 21:55:24*
%MOMM*%
%LPD*%
G01*
G04 APERTURE LIST*
%TA.AperFunction,EtchedComponent*%
%ADD10C,0.010000*%
%TD*%
%TA.AperFunction,ComponentPad*%
%ADD11O,1.200000X2.200000*%
%TD*%
%TA.AperFunction,ComponentPad*%
%ADD12C,1.800000*%
%TD*%
%TA.AperFunction,ComponentPad*%
%ADD13R,1.600000X1.600000*%
%TD*%
%TA.AperFunction,ComponentPad*%
%ADD14O,1.600000X1.600000*%
%TD*%
%TA.AperFunction,ComponentPad*%
%ADD15O,2.200000X1.200000*%
%TD*%
%TA.AperFunction,ViaPad*%
%ADD16C,0.600000*%
%TD*%
%TA.AperFunction,Conductor*%
%ADD17C,0.200000*%
%TD*%
%TA.AperFunction,Profile*%
%ADD18C,0.050000*%
%TD*%
G04 APERTURE END LIST*
%TO.C,REF\u002A\u002A*%
D10*
X127787275Y-126968931D02*
X127871095Y-127413555D01*
X128489667Y-127668551D01*
X128860707Y-127416246D01*
X128934144Y-127366506D01*
X129031499Y-127301218D01*
X129115787Y-127245454D01*
X129182631Y-127202078D01*
X129227654Y-127173953D01*
X129246478Y-127163942D01*
X129258039Y-127171061D01*
X129292596Y-127200894D01*
X129344894Y-127249852D01*
X129410500Y-127313440D01*
X129484983Y-127387163D01*
X129563913Y-127466525D01*
X129642856Y-127547031D01*
X129717384Y-127624185D01*
X129783063Y-127693493D01*
X129835463Y-127750457D01*
X129870153Y-127790584D01*
X129882701Y-127809377D01*
X129879782Y-127817451D01*
X129859571Y-127853469D01*
X129822663Y-127912744D01*
X129772050Y-127990630D01*
X129710725Y-128082481D01*
X129641679Y-128183650D01*
X129603787Y-128238826D01*
X129538606Y-128334884D01*
X129482723Y-128418717D01*
X129439117Y-128485777D01*
X129410769Y-128531519D01*
X129400657Y-128551396D01*
X129400823Y-128552497D01*
X129409743Y-128577694D01*
X129430206Y-128629147D01*
X129459360Y-128700135D01*
X129494353Y-128783935D01*
X129532332Y-128873828D01*
X129570445Y-128963091D01*
X129605839Y-129045003D01*
X129635662Y-129112843D01*
X129657061Y-129159890D01*
X129667184Y-129179422D01*
X129673174Y-129181155D01*
X129709566Y-129188969D01*
X129774427Y-129201915D01*
X129862565Y-129218979D01*
X129968787Y-129239151D01*
X130087902Y-129261418D01*
X130150683Y-129273223D01*
X130265912Y-129295748D01*
X130366662Y-129316550D01*
X130447426Y-129334435D01*
X130502698Y-129348208D01*
X130526971Y-129356674D01*
X130531331Y-129365066D01*
X130538563Y-129406072D01*
X130544246Y-129474368D01*
X130548382Y-129563529D01*
X130550977Y-129667128D01*
X130552036Y-129778740D01*
X130551561Y-129891938D01*
X130549559Y-130000296D01*
X130546033Y-130097389D01*
X130540987Y-130176790D01*
X130534427Y-130232072D01*
X130526356Y-130256810D01*
X130521458Y-130259600D01*
X130484930Y-130271569D01*
X130421565Y-130287405D01*
X130338686Y-130305374D01*
X130243618Y-130323741D01*
X130211542Y-130329591D01*
X130063393Y-130356798D01*
X129946961Y-130378663D01*
X129858209Y-130396093D01*
X129793103Y-130409996D01*
X129747606Y-130421277D01*
X129717682Y-130430843D01*
X129699294Y-130439601D01*
X129688407Y-130448457D01*
X129687142Y-130449943D01*
X129669338Y-130480931D01*
X129642994Y-130537634D01*
X129610661Y-130613399D01*
X129574893Y-130701574D01*
X129538244Y-130795507D01*
X129503266Y-130888547D01*
X129472513Y-130974041D01*
X129448538Y-131045336D01*
X129433895Y-131095782D01*
X129431136Y-131118726D01*
X129432981Y-131121703D01*
X129452075Y-131150493D01*
X129487984Y-131203595D01*
X129537378Y-131276117D01*
X129596927Y-131363167D01*
X129663303Y-131459854D01*
X129681520Y-131486456D01*
X129745577Y-131581875D01*
X129800937Y-131667212D01*
X129844439Y-131737405D01*
X129872924Y-131787394D01*
X129883232Y-131812116D01*
X129881011Y-131818616D01*
X129857858Y-131850644D01*
X129812177Y-131902945D01*
X129747241Y-131971999D01*
X129666319Y-132054286D01*
X129572685Y-132146286D01*
X129519165Y-132197781D01*
X129434542Y-132277983D01*
X129360475Y-132346678D01*
X129300941Y-132400252D01*
X129259917Y-132435085D01*
X129241381Y-132447563D01*
X129228646Y-132442938D01*
X129189436Y-132421057D01*
X129132495Y-132385273D01*
X129065250Y-132340117D01*
X129017438Y-132307165D01*
X128921985Y-132241727D01*
X128820125Y-132172228D01*
X128727088Y-132109075D01*
X128544832Y-131985800D01*
X128391841Y-132068520D01*
X128355817Y-132087613D01*
X128290303Y-132120272D01*
X128239640Y-132142819D01*
X128212564Y-132151226D01*
X128203703Y-132140430D01*
X128181699Y-132099323D01*
X128149199Y-132031549D01*
X128108010Y-131941409D01*
X128059942Y-131833205D01*
X128006802Y-131711237D01*
X127950399Y-131579808D01*
X127892542Y-131443218D01*
X127835038Y-131305767D01*
X127779697Y-131171758D01*
X127728326Y-131045491D01*
X127682735Y-130931268D01*
X127644732Y-130833390D01*
X127616124Y-130756157D01*
X127598721Y-130703871D01*
X127594331Y-130680833D01*
X127594628Y-130680160D01*
X127615077Y-130658863D01*
X127657850Y-130625508D01*
X127714117Y-130587011D01*
X127731877Y-130575256D01*
X127867014Y-130463735D01*
X127978856Y-130330906D01*
X128064755Y-130182298D01*
X128122062Y-130023440D01*
X128148131Y-129859860D01*
X128140313Y-129697088D01*
X128108644Y-129552315D01*
X128051782Y-129406124D01*
X127968888Y-129275703D01*
X127855131Y-129151813D01*
X127810433Y-129112235D01*
X127665935Y-129014723D01*
X127509838Y-128949050D01*
X127346667Y-128914630D01*
X127180943Y-128910874D01*
X127017192Y-128937194D01*
X126859936Y-128993003D01*
X126713698Y-129077714D01*
X126583004Y-129190737D01*
X126472374Y-129331487D01*
X126451105Y-129366342D01*
X126378810Y-129525655D01*
X126340415Y-129691552D01*
X126334914Y-129859737D01*
X126361301Y-130025913D01*
X126418570Y-130185784D01*
X126505717Y-130335053D01*
X126621736Y-130469423D01*
X126765622Y-130584599D01*
X126770294Y-130587702D01*
X126825964Y-130626933D01*
X126867689Y-130660286D01*
X126886746Y-130680833D01*
X126884342Y-130696941D01*
X126869391Y-130743844D01*
X126842881Y-130816539D01*
X126806620Y-130910725D01*
X126762416Y-131022098D01*
X126712076Y-131146358D01*
X126657407Y-131279202D01*
X126600218Y-131416327D01*
X126542316Y-131553432D01*
X126485510Y-131686215D01*
X126431606Y-131810374D01*
X126382412Y-131921606D01*
X126339737Y-132015609D01*
X126305387Y-132088082D01*
X126281171Y-132134722D01*
X126268897Y-132151226D01*
X126258689Y-132148991D01*
X126218586Y-132132926D01*
X126159318Y-132104759D01*
X126089619Y-132068520D01*
X125936629Y-131985800D01*
X125754373Y-132109075D01*
X125700527Y-132145579D01*
X125600374Y-132213784D01*
X125500525Y-132282098D01*
X125416211Y-132340117D01*
X125369679Y-132371736D01*
X125309200Y-132411020D01*
X125264357Y-132437912D01*
X125242455Y-132447883D01*
X125233045Y-132443650D01*
X125199031Y-132417721D01*
X125146595Y-132372070D01*
X125080301Y-132311186D01*
X125004713Y-132239561D01*
X124924396Y-132161683D01*
X124843913Y-132082045D01*
X124767829Y-132005135D01*
X124700707Y-131935445D01*
X124647112Y-131877464D01*
X124611608Y-131835684D01*
X124598759Y-131814593D01*
X124599500Y-131810581D01*
X124614793Y-131777920D01*
X124647462Y-131721412D01*
X124694350Y-131646163D01*
X124752301Y-131557275D01*
X124818157Y-131459854D01*
X124836627Y-131432982D01*
X124901482Y-131338423D01*
X124958609Y-131254827D01*
X125004678Y-131187084D01*
X125036359Y-131140086D01*
X125050324Y-131118726D01*
X125050668Y-131117811D01*
X125046546Y-131091678D01*
X125030807Y-131038740D01*
X125006004Y-130965647D01*
X124974689Y-130879052D01*
X124939417Y-130785608D01*
X124902740Y-130691965D01*
X124867212Y-130604777D01*
X124835386Y-130530695D01*
X124809816Y-130476371D01*
X124793053Y-130448457D01*
X124791374Y-130446724D01*
X124779372Y-130437956D01*
X124759103Y-130429115D01*
X124726529Y-130419292D01*
X124677616Y-130407583D01*
X124608327Y-130393080D01*
X124514625Y-130374876D01*
X124392476Y-130352066D01*
X124237842Y-130323741D01*
X124205770Y-130317780D01*
X124113893Y-130299352D01*
X124036607Y-130281892D01*
X123981236Y-130267133D01*
X123955105Y-130256810D01*
X123950733Y-130248197D01*
X123943445Y-130206826D01*
X123937669Y-130138241D01*
X123933410Y-130048868D01*
X123930673Y-129945135D01*
X123929462Y-129833465D01*
X123929782Y-129720287D01*
X123931636Y-129612026D01*
X123935030Y-129515108D01*
X123939967Y-129435959D01*
X123946452Y-129381006D01*
X123954489Y-129356674D01*
X123962696Y-129353079D01*
X124003519Y-129341748D01*
X124072524Y-129325722D01*
X124164203Y-129306195D01*
X124273050Y-129284362D01*
X124393558Y-129261418D01*
X124459357Y-129249159D01*
X124572135Y-129227901D01*
X124669207Y-129209287D01*
X124745382Y-129194328D01*
X124795469Y-129184036D01*
X124814276Y-129179422D01*
X124814983Y-129178471D01*
X124826961Y-129154310D01*
X124849794Y-129103694D01*
X124880630Y-129033338D01*
X124916613Y-128949958D01*
X124954891Y-128860270D01*
X124992609Y-128770989D01*
X125026913Y-128688832D01*
X125054949Y-128620513D01*
X125073864Y-128572748D01*
X125080803Y-128552254D01*
X125077742Y-128545043D01*
X125057372Y-128510728D01*
X125020422Y-128452970D01*
X124969860Y-128376299D01*
X124908657Y-128285248D01*
X124839781Y-128184350D01*
X124801994Y-128129093D01*
X124736782Y-128032215D01*
X124680871Y-127947193D01*
X124637241Y-127878662D01*
X124608877Y-127831260D01*
X124598759Y-127809623D01*
X124605790Y-127797887D01*
X124635197Y-127762818D01*
X124683441Y-127709745D01*
X124746093Y-127643164D01*
X124818725Y-127567574D01*
X124896908Y-127487472D01*
X124976214Y-127407354D01*
X125052213Y-127331718D01*
X125120478Y-127265062D01*
X125176580Y-127211882D01*
X125216090Y-127176676D01*
X125234579Y-127163942D01*
X125244843Y-127168893D01*
X125282530Y-127191857D01*
X125343348Y-127230938D01*
X125422913Y-127283272D01*
X125516843Y-127345996D01*
X125620754Y-127416246D01*
X125991794Y-127668551D01*
X126301080Y-127541053D01*
X126610365Y-127413555D01*
X126694186Y-126968931D01*
X126778006Y-126524307D01*
X127703454Y-126524307D01*
X127787275Y-126968931D01*
%TA.AperFunction,EtchedComponent*%
G36*
X127787275Y-126968931D02*
G01*
X127871095Y-127413555D01*
X128489667Y-127668551D01*
X128860707Y-127416246D01*
X128934144Y-127366506D01*
X129031499Y-127301218D01*
X129115787Y-127245454D01*
X129182631Y-127202078D01*
X129227654Y-127173953D01*
X129246478Y-127163942D01*
X129258039Y-127171061D01*
X129292596Y-127200894D01*
X129344894Y-127249852D01*
X129410500Y-127313440D01*
X129484983Y-127387163D01*
X129563913Y-127466525D01*
X129642856Y-127547031D01*
X129717384Y-127624185D01*
X129783063Y-127693493D01*
X129835463Y-127750457D01*
X129870153Y-127790584D01*
X129882701Y-127809377D01*
X129879782Y-127817451D01*
X129859571Y-127853469D01*
X129822663Y-127912744D01*
X129772050Y-127990630D01*
X129710725Y-128082481D01*
X129641679Y-128183650D01*
X129603787Y-128238826D01*
X129538606Y-128334884D01*
X129482723Y-128418717D01*
X129439117Y-128485777D01*
X129410769Y-128531519D01*
X129400657Y-128551396D01*
X129400823Y-128552497D01*
X129409743Y-128577694D01*
X129430206Y-128629147D01*
X129459360Y-128700135D01*
X129494353Y-128783935D01*
X129532332Y-128873828D01*
X129570445Y-128963091D01*
X129605839Y-129045003D01*
X129635662Y-129112843D01*
X129657061Y-129159890D01*
X129667184Y-129179422D01*
X129673174Y-129181155D01*
X129709566Y-129188969D01*
X129774427Y-129201915D01*
X129862565Y-129218979D01*
X129968787Y-129239151D01*
X130087902Y-129261418D01*
X130150683Y-129273223D01*
X130265912Y-129295748D01*
X130366662Y-129316550D01*
X130447426Y-129334435D01*
X130502698Y-129348208D01*
X130526971Y-129356674D01*
X130531331Y-129365066D01*
X130538563Y-129406072D01*
X130544246Y-129474368D01*
X130548382Y-129563529D01*
X130550977Y-129667128D01*
X130552036Y-129778740D01*
X130551561Y-129891938D01*
X130549559Y-130000296D01*
X130546033Y-130097389D01*
X130540987Y-130176790D01*
X130534427Y-130232072D01*
X130526356Y-130256810D01*
X130521458Y-130259600D01*
X130484930Y-130271569D01*
X130421565Y-130287405D01*
X130338686Y-130305374D01*
X130243618Y-130323741D01*
X130211542Y-130329591D01*
X130063393Y-130356798D01*
X129946961Y-130378663D01*
X129858209Y-130396093D01*
X129793103Y-130409996D01*
X129747606Y-130421277D01*
X129717682Y-130430843D01*
X129699294Y-130439601D01*
X129688407Y-130448457D01*
X129687142Y-130449943D01*
X129669338Y-130480931D01*
X129642994Y-130537634D01*
X129610661Y-130613399D01*
X129574893Y-130701574D01*
X129538244Y-130795507D01*
X129503266Y-130888547D01*
X129472513Y-130974041D01*
X129448538Y-131045336D01*
X129433895Y-131095782D01*
X129431136Y-131118726D01*
X129432981Y-131121703D01*
X129452075Y-131150493D01*
X129487984Y-131203595D01*
X129537378Y-131276117D01*
X129596927Y-131363167D01*
X129663303Y-131459854D01*
X129681520Y-131486456D01*
X129745577Y-131581875D01*
X129800937Y-131667212D01*
X129844439Y-131737405D01*
X129872924Y-131787394D01*
X129883232Y-131812116D01*
X129881011Y-131818616D01*
X129857858Y-131850644D01*
X129812177Y-131902945D01*
X129747241Y-131971999D01*
X129666319Y-132054286D01*
X129572685Y-132146286D01*
X129519165Y-132197781D01*
X129434542Y-132277983D01*
X129360475Y-132346678D01*
X129300941Y-132400252D01*
X129259917Y-132435085D01*
X129241381Y-132447563D01*
X129228646Y-132442938D01*
X129189436Y-132421057D01*
X129132495Y-132385273D01*
X129065250Y-132340117D01*
X129017438Y-132307165D01*
X128921985Y-132241727D01*
X128820125Y-132172228D01*
X128727088Y-132109075D01*
X128544832Y-131985800D01*
X128391841Y-132068520D01*
X128355817Y-132087613D01*
X128290303Y-132120272D01*
X128239640Y-132142819D01*
X128212564Y-132151226D01*
X128203703Y-132140430D01*
X128181699Y-132099323D01*
X128149199Y-132031549D01*
X128108010Y-131941409D01*
X128059942Y-131833205D01*
X128006802Y-131711237D01*
X127950399Y-131579808D01*
X127892542Y-131443218D01*
X127835038Y-131305767D01*
X127779697Y-131171758D01*
X127728326Y-131045491D01*
X127682735Y-130931268D01*
X127644732Y-130833390D01*
X127616124Y-130756157D01*
X127598721Y-130703871D01*
X127594331Y-130680833D01*
X127594628Y-130680160D01*
X127615077Y-130658863D01*
X127657850Y-130625508D01*
X127714117Y-130587011D01*
X127731877Y-130575256D01*
X127867014Y-130463735D01*
X127978856Y-130330906D01*
X128064755Y-130182298D01*
X128122062Y-130023440D01*
X128148131Y-129859860D01*
X128140313Y-129697088D01*
X128108644Y-129552315D01*
X128051782Y-129406124D01*
X127968888Y-129275703D01*
X127855131Y-129151813D01*
X127810433Y-129112235D01*
X127665935Y-129014723D01*
X127509838Y-128949050D01*
X127346667Y-128914630D01*
X127180943Y-128910874D01*
X127017192Y-128937194D01*
X126859936Y-128993003D01*
X126713698Y-129077714D01*
X126583004Y-129190737D01*
X126472374Y-129331487D01*
X126451105Y-129366342D01*
X126378810Y-129525655D01*
X126340415Y-129691552D01*
X126334914Y-129859737D01*
X126361301Y-130025913D01*
X126418570Y-130185784D01*
X126505717Y-130335053D01*
X126621736Y-130469423D01*
X126765622Y-130584599D01*
X126770294Y-130587702D01*
X126825964Y-130626933D01*
X126867689Y-130660286D01*
X126886746Y-130680833D01*
X126884342Y-130696941D01*
X126869391Y-130743844D01*
X126842881Y-130816539D01*
X126806620Y-130910725D01*
X126762416Y-131022098D01*
X126712076Y-131146358D01*
X126657407Y-131279202D01*
X126600218Y-131416327D01*
X126542316Y-131553432D01*
X126485510Y-131686215D01*
X126431606Y-131810374D01*
X126382412Y-131921606D01*
X126339737Y-132015609D01*
X126305387Y-132088082D01*
X126281171Y-132134722D01*
X126268897Y-132151226D01*
X126258689Y-132148991D01*
X126218586Y-132132926D01*
X126159318Y-132104759D01*
X126089619Y-132068520D01*
X125936629Y-131985800D01*
X125754373Y-132109075D01*
X125700527Y-132145579D01*
X125600374Y-132213784D01*
X125500525Y-132282098D01*
X125416211Y-132340117D01*
X125369679Y-132371736D01*
X125309200Y-132411020D01*
X125264357Y-132437912D01*
X125242455Y-132447883D01*
X125233045Y-132443650D01*
X125199031Y-132417721D01*
X125146595Y-132372070D01*
X125080301Y-132311186D01*
X125004713Y-132239561D01*
X124924396Y-132161683D01*
X124843913Y-132082045D01*
X124767829Y-132005135D01*
X124700707Y-131935445D01*
X124647112Y-131877464D01*
X124611608Y-131835684D01*
X124598759Y-131814593D01*
X124599500Y-131810581D01*
X124614793Y-131777920D01*
X124647462Y-131721412D01*
X124694350Y-131646163D01*
X124752301Y-131557275D01*
X124818157Y-131459854D01*
X124836627Y-131432982D01*
X124901482Y-131338423D01*
X124958609Y-131254827D01*
X125004678Y-131187084D01*
X125036359Y-131140086D01*
X125050324Y-131118726D01*
X125050668Y-131117811D01*
X125046546Y-131091678D01*
X125030807Y-131038740D01*
X125006004Y-130965647D01*
X124974689Y-130879052D01*
X124939417Y-130785608D01*
X124902740Y-130691965D01*
X124867212Y-130604777D01*
X124835386Y-130530695D01*
X124809816Y-130476371D01*
X124793053Y-130448457D01*
X124791374Y-130446724D01*
X124779372Y-130437956D01*
X124759103Y-130429115D01*
X124726529Y-130419292D01*
X124677616Y-130407583D01*
X124608327Y-130393080D01*
X124514625Y-130374876D01*
X124392476Y-130352066D01*
X124237842Y-130323741D01*
X124205770Y-130317780D01*
X124113893Y-130299352D01*
X124036607Y-130281892D01*
X123981236Y-130267133D01*
X123955105Y-130256810D01*
X123950733Y-130248197D01*
X123943445Y-130206826D01*
X123937669Y-130138241D01*
X123933410Y-130048868D01*
X123930673Y-129945135D01*
X123929462Y-129833465D01*
X123929782Y-129720287D01*
X123931636Y-129612026D01*
X123935030Y-129515108D01*
X123939967Y-129435959D01*
X123946452Y-129381006D01*
X123954489Y-129356674D01*
X123962696Y-129353079D01*
X124003519Y-129341748D01*
X124072524Y-129325722D01*
X124164203Y-129306195D01*
X124273050Y-129284362D01*
X124393558Y-129261418D01*
X124459357Y-129249159D01*
X124572135Y-129227901D01*
X124669207Y-129209287D01*
X124745382Y-129194328D01*
X124795469Y-129184036D01*
X124814276Y-129179422D01*
X124814983Y-129178471D01*
X124826961Y-129154310D01*
X124849794Y-129103694D01*
X124880630Y-129033338D01*
X124916613Y-128949958D01*
X124954891Y-128860270D01*
X124992609Y-128770989D01*
X125026913Y-128688832D01*
X125054949Y-128620513D01*
X125073864Y-128572748D01*
X125080803Y-128552254D01*
X125077742Y-128545043D01*
X125057372Y-128510728D01*
X125020422Y-128452970D01*
X124969860Y-128376299D01*
X124908657Y-128285248D01*
X124839781Y-128184350D01*
X124801994Y-128129093D01*
X124736782Y-128032215D01*
X124680871Y-127947193D01*
X124637241Y-127878662D01*
X124608877Y-127831260D01*
X124598759Y-127809623D01*
X124605790Y-127797887D01*
X124635197Y-127762818D01*
X124683441Y-127709745D01*
X124746093Y-127643164D01*
X124818725Y-127567574D01*
X124896908Y-127487472D01*
X124976214Y-127407354D01*
X125052213Y-127331718D01*
X125120478Y-127265062D01*
X125176580Y-127211882D01*
X125216090Y-127176676D01*
X125234579Y-127163942D01*
X125244843Y-127168893D01*
X125282530Y-127191857D01*
X125343348Y-127230938D01*
X125422913Y-127283272D01*
X125516843Y-127345996D01*
X125620754Y-127416246D01*
X125991794Y-127668551D01*
X126301080Y-127541053D01*
X126610365Y-127413555D01*
X126694186Y-126968931D01*
X126778006Y-126524307D01*
X127703454Y-126524307D01*
X127787275Y-126968931D01*
G37*
%TD.AperFunction*%
%TD*%
D11*
%TO.P,J1,R*%
%TO.N,Net-(C1-Pad2)*%
X135200000Y-140500000D03*
%TO.P,J1,S*%
%TO.N,Net-(J1-PadS)*%
X139800000Y-142500000D03*
%TO.P,J1,T*%
%TO.N,/PTT2*%
X139800000Y-135550000D03*
%TD*%
D12*
%TO.P,RV1,1,1*%
%TO.N,Net-(J1-PadS)*%
X136500000Y-116200000D03*
%TO.P,RV1,2,2*%
%TO.N,Net-(C1-Pad1)*%
X139040000Y-108580000D03*
%TO.P,RV1,3,3*%
%TO.N,Net-(R1-Pad2)*%
X136500000Y-103500000D03*
%TD*%
%TO.P,RV2,1,1*%
%TO.N,GND*%
X103500000Y-116200000D03*
%TO.P,RV2,2,2*%
%TO.N,Net-(C6-Pad2)*%
X106040000Y-108580000D03*
%TO.P,RV2,3,3*%
%TO.N,Net-(R5-Pad2)*%
X103500000Y-103500000D03*
%TD*%
D13*
%TO.P,U2,1,5V*%
%TO.N,unconnected-(U2-5V-Pad1)*%
X113630000Y-101700000D03*
D14*
%TO.P,U2,2,GND*%
%TO.N,GND*%
X113630000Y-104240000D03*
%TO.P,U2,3,3V3*%
%TO.N,+3.3V*%
X113630000Y-106780000D03*
%TO.P,U2,4,GPIO29*%
%TO.N,unconnected-(U2-GPIO29-Pad4)*%
X113630000Y-109320000D03*
%TO.P,U2,5,GPIO28*%
%TO.N,/ADC*%
X113630000Y-111860000D03*
%TO.P,U2,6,GPIO27*%
%TO.N,/PTT_LED*%
X113630000Y-114400000D03*
%TO.P,U2,7,GPIO26*%
%TO.N,unconnected-(U2-GPIO26-Pad7)*%
X113630000Y-116940000D03*
%TO.P,U2,8,GPIO15*%
%TO.N,unconnected-(U2-GPIO15-Pad8)*%
X113630000Y-119480000D03*
%TO.P,U2,9,GPIO14*%
%TO.N,/PTT_RELAY*%
X113630000Y-122020000D03*
%TO.P,U2,10,GPIO8*%
%TO.N,unconnected-(U2-GPIO8-Pad10)*%
X128870000Y-122020000D03*
%TO.P,U2,11,GPIO7*%
%TO.N,unconnected-(U2-GPIO7-Pad11)*%
X128870000Y-119480000D03*
%TO.P,U2,12,GPIO6*%
%TO.N,unconnected-(U2-GPIO6-Pad12)*%
X128870000Y-116940000D03*
%TO.P,U2,13,GPIO5*%
%TO.N,unconnected-(U2-GPIO5-Pad13)*%
X128870000Y-114400000D03*
%TO.P,U2,14,GPIO4*%
%TO.N,unconnected-(U2-GPIO4-Pad14)*%
X128870000Y-111860000D03*
%TO.P,U2,15,GPIO3*%
%TO.N,unconnected-(U2-GPIO3-Pad15)*%
X128870000Y-109320000D03*
%TO.P,U2,16,GPIO2*%
%TO.N,/PWM*%
X128870000Y-106780000D03*
%TO.P,U2,17,GPIO1*%
%TO.N,unconnected-(U2-GPIO1-Pad17)*%
X128870000Y-104240000D03*
%TO.P,U2,18,GPIO0*%
%TO.N,unconnected-(U2-GPIO0-Pad18)*%
X128870000Y-101700000D03*
%TD*%
D11*
%TO.P,J2,R*%
%TO.N,/PTT1*%
X102500000Y-138800000D03*
D15*
%TO.P,J2,S*%
%TO.N,Net-(J2-PadS)*%
X104300000Y-136100000D03*
D11*
%TO.P,J2,T*%
%TO.N,Net-(C2-Pad2)*%
X106100000Y-138800000D03*
%TD*%
D16*
%TO.N,GND*%
X117250000Y-126500000D03*
X117250000Y-109500000D03*
X117000000Y-119000000D03*
X124500000Y-119000000D03*
X124500000Y-109500000D03*
X107500000Y-101000000D03*
X115750000Y-101250000D03*
X126750000Y-101250000D03*
X135750000Y-101000000D03*
X133250000Y-119500000D03*
X132750000Y-129750000D03*
X129000000Y-133250000D03*
X123000000Y-133250000D03*
X119750000Y-133250000D03*
X113500000Y-133250000D03*
X141500000Y-101000000D03*
X101000000Y-101000000D03*
X101000000Y-130500000D03*
X101000000Y-106500000D03*
%TO.N,Net-(C1-Pad1)*%
X136250000Y-134500000D03*
%TO.N,Net-(R1-Pad2)*%
X135250000Y-132500000D03*
%TO.N,Net-(J1-PadS)*%
X129998700Y-143632500D03*
%TO.N,Net-(J2-PadS)*%
X118403600Y-136945600D03*
%TO.N,GND*%
X109250000Y-133250000D03*
X101000000Y-112250000D03*
X121750000Y-116000000D03*
X111000000Y-118250000D03*
X101000000Y-124000000D03*
X134000000Y-109000000D03*
X122000000Y-126500000D03*
X125000000Y-124750000D03*
X101000000Y-117500000D03*
X111750000Y-129600000D03*
X133750000Y-102500000D03*
%TO.N,+3.3V*%
X131769700Y-122500000D03*
X109445300Y-106354700D03*
X133400000Y-105500000D03*
X125250000Y-123750000D03*
%TO.N,Net-(R5-Pad1)*%
X107250000Y-129000000D03*
X117615100Y-129954000D03*
%TO.N,Net-(R5-Pad2)*%
X107000000Y-127500000D03*
X106635100Y-125250000D03*
%TO.N,/PWM*%
X133400000Y-106299500D03*
%TO.N,/ADC*%
X104500000Y-114750000D03*
%TO.N,/PTT1*%
X128000000Y-136500000D03*
%TO.N,Net-(Q1-B)*%
X109250000Y-128000000D03*
X110750000Y-123500000D03*
%TD*%
D17*
%TO.N,Net-(C1-Pad1)*%
X138750000Y-132000000D02*
X138750000Y-108870000D01*
X136250000Y-134500000D02*
X138750000Y-132000000D01*
X138750000Y-108870000D02*
X139040000Y-108580000D01*
%TO.N,Net-(R1-Pad2)*%
X138000000Y-129750000D02*
X138000000Y-113250000D01*
X135250000Y-132500000D02*
X138000000Y-129750000D01*
X136500000Y-111750000D02*
X136500000Y-103500000D01*
X138000000Y-113250000D02*
X136500000Y-111750000D01*
%TO.N,Net-(J1-PadS)*%
X139800000Y-142500000D02*
X139800000Y-142700000D01*
X129998700Y-136251300D02*
X129998700Y-135251300D01*
X138250000Y-144250000D02*
X130849400Y-144250000D01*
X129998700Y-143632500D02*
X129998700Y-136251300D01*
X139800000Y-142700000D02*
X138250000Y-144250000D01*
X130849400Y-144250000D02*
X130231900Y-143632500D01*
X136250000Y-116450000D02*
X136500000Y-116200000D01*
X129998700Y-135251300D02*
X136250000Y-129000000D01*
X136250000Y-129000000D02*
X136250000Y-116450000D01*
X130231900Y-143632500D02*
X129998700Y-143632500D01*
X129998700Y-136251300D02*
X130000000Y-136250000D01*
%TO.N,Net-(J2-PadS)*%
X118403600Y-136945600D02*
X118403600Y-136903600D01*
X118403600Y-136903600D02*
X117600000Y-136100000D01*
X117600000Y-136100000D02*
X104300000Y-136100000D01*
%TO.N,GND*%
X109500000Y-133500000D02*
X109250000Y-133250000D01*
X111750000Y-129600000D02*
X111750000Y-133000000D01*
X111250000Y-133500000D02*
X109500000Y-133500000D01*
X109000000Y-118250000D02*
X107054200Y-116304200D01*
X107054200Y-116304200D02*
X103604200Y-116304200D01*
X119500000Y-118250000D02*
X121750000Y-116000000D01*
X125000000Y-124750000D02*
X123000000Y-124750000D01*
X133750000Y-102500000D02*
X133750000Y-103500000D01*
X130250000Y-103000000D02*
X115971900Y-103000000D01*
X134000000Y-103750000D02*
X134000000Y-109000000D01*
X115971900Y-103000000D02*
X114731900Y-104240000D01*
X130750000Y-102500000D02*
X130250000Y-103000000D01*
X103604200Y-116304200D02*
X103500000Y-116200000D01*
X123000000Y-124750000D02*
X122000000Y-125750000D01*
X133750000Y-102500000D02*
X130750000Y-102500000D01*
X111000000Y-118250000D02*
X109000000Y-118250000D01*
X114731900Y-104240000D02*
X113630000Y-104240000D01*
X111000000Y-118250000D02*
X119500000Y-118250000D01*
X133750000Y-103500000D02*
X134000000Y-103750000D01*
X111750000Y-133000000D02*
X111250000Y-133500000D01*
X122000000Y-125750000D02*
X122000000Y-126500000D01*
%TO.N,+3.3V*%
X112102800Y-106354700D02*
X112528100Y-106780000D01*
X109445300Y-106354700D02*
X112102800Y-106354700D01*
X133390000Y-105510000D02*
X116001900Y-105510000D01*
X125500000Y-124000000D02*
X125250000Y-123750000D01*
X113630000Y-106780000D02*
X112528100Y-106780000D01*
X131769700Y-123480300D02*
X131250000Y-124000000D01*
X116001900Y-105510000D02*
X114731900Y-106780000D01*
X114731900Y-106780000D02*
X113630000Y-106780000D01*
X131250000Y-124000000D02*
X125500000Y-124000000D01*
X131769700Y-122500000D02*
X131769700Y-123480300D01*
X133400000Y-105500000D02*
X133390000Y-105510000D01*
%TO.N,Net-(R5-Pad1)*%
X116661100Y-129000000D02*
X117615100Y-129954000D01*
X107250000Y-129000000D02*
X116661100Y-129000000D01*
X117615100Y-129954000D02*
X117717900Y-129954000D01*
X117717900Y-129954000D02*
X117615100Y-129954000D01*
%TO.N,Net-(R5-Pad2)*%
X106635100Y-125250000D02*
X107000000Y-125614900D01*
X107000000Y-125614900D02*
X107000000Y-127500000D01*
%TO.N,/PWM*%
X129750000Y-106750000D02*
X128900000Y-106750000D01*
X130200500Y-106299500D02*
X129750000Y-106750000D01*
X133400000Y-106299500D02*
X130200500Y-106299500D01*
X128900000Y-106750000D02*
X128870000Y-106780000D01*
%TO.N,/ADC*%
X106390000Y-111860000D02*
X113630000Y-111860000D01*
X104500000Y-114750000D02*
X104500000Y-113750000D01*
X104500000Y-113750000D02*
X106390000Y-111860000D01*
%TO.N,/PTT1*%
X128000000Y-136500000D02*
X126000000Y-138500000D01*
X103401900Y-138800000D02*
X102500000Y-138800000D01*
X104835600Y-137366300D02*
X103401900Y-138800000D01*
X113866300Y-137366300D02*
X104835600Y-137366300D01*
X126000000Y-138500000D02*
X115000000Y-138500000D01*
X115000000Y-138500000D02*
X113866300Y-137366300D01*
%TO.N,Net-(Q1-B)*%
X109250000Y-128000000D02*
X111000000Y-128000000D01*
X111750000Y-124000000D02*
X111250000Y-123500000D01*
X111250000Y-123500000D02*
X110750000Y-123500000D01*
X111750000Y-127250000D02*
X111750000Y-124000000D01*
X111000000Y-128000000D02*
X111750000Y-127250000D01*
%TD*%
%TA.AperFunction,Conductor*%
%TO.N,GND*%
G36*
X112725269Y-100520185D02*
G01*
X112771024Y-100572989D01*
X112780968Y-100642147D01*
X112751943Y-100705703D01*
X112727122Y-100727602D01*
X112685446Y-100755448D01*
X112641132Y-100821769D01*
X112641131Y-100821770D01*
X112629500Y-100880247D01*
X112629500Y-102519752D01*
X112641131Y-102578229D01*
X112641132Y-102578230D01*
X112685447Y-102644552D01*
X112751769Y-102688867D01*
X112751770Y-102688868D01*
X112810247Y-102700499D01*
X112810250Y-102700500D01*
X113470668Y-102700500D01*
X113537707Y-102720185D01*
X113583462Y-102772989D01*
X113593406Y-102842147D01*
X113564381Y-102905703D01*
X113505603Y-102943477D01*
X113481475Y-102948028D01*
X113403400Y-102954858D01*
X113403389Y-102954860D01*
X113183682Y-103013730D01*
X113183673Y-103013734D01*
X112977517Y-103109865D01*
X112791179Y-103240342D01*
X112630342Y-103401179D01*
X112499865Y-103587517D01*
X112403734Y-103793673D01*
X112403730Y-103793682D01*
X112351127Y-103989999D01*
X112351128Y-103990000D01*
X113196314Y-103990000D01*
X113170507Y-104030156D01*
X113130000Y-104168111D01*
X113130000Y-104311889D01*
X113170507Y-104449844D01*
X113196314Y-104490000D01*
X112351128Y-104490000D01*
X112403730Y-104686317D01*
X112403734Y-104686326D01*
X112499865Y-104892482D01*
X112630342Y-105078820D01*
X112791179Y-105239657D01*
X112977517Y-105370134D01*
X113183673Y-105466265D01*
X113183682Y-105466269D01*
X113379999Y-105518872D01*
X113380000Y-105518871D01*
X113380000Y-104675501D01*
X113487685Y-104724680D01*
X113594237Y-104740000D01*
X113665763Y-104740000D01*
X113772315Y-104724680D01*
X113880000Y-104675501D01*
X113880000Y-105518872D01*
X114076317Y-105466269D01*
X114076326Y-105466265D01*
X114282482Y-105370134D01*
X114468820Y-105239657D01*
X114629657Y-105078820D01*
X114760134Y-104892482D01*
X114856265Y-104686326D01*
X114856269Y-104686317D01*
X114908872Y-104490000D01*
X114063686Y-104490000D01*
X114089493Y-104449844D01*
X114130000Y-104311889D01*
X114130000Y-104168111D01*
X114089493Y-104030156D01*
X114063686Y-103990000D01*
X114908872Y-103990000D01*
X114908872Y-103989999D01*
X114856269Y-103793682D01*
X114856265Y-103793673D01*
X114760134Y-103587517D01*
X114629657Y-103401179D01*
X114468820Y-103240342D01*
X114282482Y-103109865D01*
X114076326Y-103013734D01*
X114076317Y-103013730D01*
X113856610Y-102954860D01*
X113856599Y-102954858D01*
X113778525Y-102948028D01*
X113713456Y-102922576D01*
X113672477Y-102865985D01*
X113668599Y-102796223D01*
X113703053Y-102735439D01*
X113764900Y-102702931D01*
X113789332Y-102700500D01*
X114449750Y-102700500D01*
X114449751Y-102700499D01*
X114464568Y-102697552D01*
X114508229Y-102688868D01*
X114508229Y-102688867D01*
X114508231Y-102688867D01*
X114574552Y-102644552D01*
X114618867Y-102578231D01*
X114618867Y-102578229D01*
X114618868Y-102578229D01*
X114630499Y-102519752D01*
X114630500Y-102519750D01*
X114630500Y-100880249D01*
X114630499Y-100880247D01*
X114618868Y-100821770D01*
X114618867Y-100821769D01*
X114574553Y-100755448D01*
X114532878Y-100727602D01*
X114488074Y-100673989D01*
X114479367Y-100604664D01*
X114509522Y-100541637D01*
X114568965Y-100504918D01*
X114601770Y-100500500D01*
X128541665Y-100500500D01*
X128608704Y-100520185D01*
X128654459Y-100572989D01*
X128664403Y-100642147D01*
X128635378Y-100705703D01*
X128577663Y-100743159D01*
X128498232Y-100767254D01*
X128485266Y-100771188D01*
X128311467Y-100864086D01*
X128311460Y-100864090D01*
X128159116Y-100989116D01*
X128034090Y-101141460D01*
X128034086Y-101141467D01*
X127941188Y-101315266D01*
X127883975Y-101503870D01*
X127864659Y-101700000D01*
X127883975Y-101896129D01*
X127941188Y-102084733D01*
X128034086Y-102258532D01*
X128034090Y-102258539D01*
X128159116Y-102410883D01*
X128311460Y-102535909D01*
X128311467Y-102535913D01*
X128485266Y-102628811D01*
X128485269Y-102628811D01*
X128485273Y-102628814D01*
X128673868Y-102686024D01*
X128870000Y-102705341D01*
X129066132Y-102686024D01*
X129254727Y-102628814D01*
X129428538Y-102535910D01*
X129580883Y-102410883D01*
X129705910Y-102258538D01*
X129798814Y-102084727D01*
X129856024Y-101896132D01*
X129875341Y-101700000D01*
X129856024Y-101503868D01*
X129798814Y-101315273D01*
X129798811Y-101315269D01*
X129798811Y-101315266D01*
X129705913Y-101141467D01*
X129705909Y-101141460D01*
X129580883Y-100989116D01*
X129428539Y-100864090D01*
X129428532Y-100864086D01*
X129254733Y-100771188D01*
X129254727Y-100771186D01*
X129162336Y-100743159D01*
X129103901Y-100704863D01*
X129075445Y-100641051D01*
X129086005Y-100571984D01*
X129132229Y-100519590D01*
X129198335Y-100500500D01*
X141875500Y-100500500D01*
X141942539Y-100520185D01*
X141988294Y-100572989D01*
X141999500Y-100624500D01*
X141999500Y-101376000D01*
X141979815Y-101443039D01*
X141927011Y-101488794D01*
X141875500Y-101500000D01*
X136000000Y-101500000D01*
X135357143Y-102250000D01*
X134500001Y-103249998D01*
X134500000Y-103250001D01*
X134500000Y-119187999D01*
X134480315Y-119255038D01*
X134450400Y-119287199D01*
X133500000Y-119999999D01*
X133500000Y-129460643D01*
X133480315Y-129527682D01*
X133477304Y-129532152D01*
X130537052Y-133697509D01*
X130482310Y-133740926D01*
X130435748Y-133750000D01*
X100624500Y-133750000D01*
X100557461Y-133730315D01*
X100511706Y-133677511D01*
X100500500Y-133626000D01*
X100500500Y-129000000D01*
X106744353Y-129000000D01*
X106764834Y-129142456D01*
X106817912Y-129258679D01*
X106824623Y-129273373D01*
X106918872Y-129382143D01*
X107039947Y-129459953D01*
X107039950Y-129459954D01*
X107039949Y-129459954D01*
X107122427Y-129484171D01*
X107176336Y-129500000D01*
X107178036Y-129500499D01*
X107178038Y-129500500D01*
X107178039Y-129500500D01*
X107321962Y-129500500D01*
X107321962Y-129500499D01*
X107460053Y-129459953D01*
X107581128Y-129382143D01*
X107614788Y-129343296D01*
X107673567Y-129305523D01*
X107708501Y-129300500D01*
X116485267Y-129300500D01*
X116552306Y-129320185D01*
X116572948Y-129336819D01*
X117075704Y-129839575D01*
X117109189Y-129900898D01*
X117110761Y-129944902D01*
X117109453Y-129953999D01*
X117129934Y-130096456D01*
X117186206Y-130219673D01*
X117189723Y-130227373D01*
X117283972Y-130336143D01*
X117405047Y-130413953D01*
X117405050Y-130413954D01*
X117405049Y-130413954D01*
X117505213Y-130443364D01*
X117542260Y-130454242D01*
X117543136Y-130454499D01*
X117543138Y-130454500D01*
X117543139Y-130454500D01*
X117687062Y-130454500D01*
X117687062Y-130454499D01*
X117816407Y-130416521D01*
X117825150Y-130413954D01*
X117825150Y-130413953D01*
X117825153Y-130413953D01*
X117946228Y-130336143D01*
X118040477Y-130227373D01*
X118100265Y-130096457D01*
X118120747Y-129954000D01*
X118100265Y-129811543D01*
X118099622Y-129810134D01*
X123723696Y-129810134D01*
X123723948Y-129833407D01*
X123723955Y-129835087D01*
X123723890Y-129858453D01*
X123724292Y-129865142D01*
X123724865Y-129917968D01*
X123724583Y-129925492D01*
X123725176Y-129947967D01*
X123725212Y-129949885D01*
X123725457Y-129972431D01*
X123726019Y-129979947D01*
X123727207Y-130025007D01*
X123727017Y-130035019D01*
X123727975Y-130055155D01*
X123728072Y-130057770D01*
X123728605Y-130077948D01*
X123729537Y-130087925D01*
X123730989Y-130118401D01*
X123731081Y-130127770D01*
X123730951Y-130132415D01*
X123732390Y-130149517D01*
X123732686Y-130154009D01*
X123733503Y-130171149D01*
X123734240Y-130175720D01*
X123735383Y-130185050D01*
X123736813Y-130202035D01*
X123737096Y-130218622D01*
X123737043Y-130219673D01*
X123737956Y-130224855D01*
X123739809Y-130243770D01*
X123739993Y-130252605D01*
X123748546Y-130286766D01*
X123750379Y-130295372D01*
X123751817Y-130303537D01*
X123753369Y-130316048D01*
X123753546Y-130318487D01*
X123753546Y-130318488D01*
X123753547Y-130318490D01*
X123758002Y-130326247D01*
X123764047Y-130336772D01*
X123770789Y-130350378D01*
X123779569Y-130371216D01*
X123787722Y-130382559D01*
X123787245Y-130382901D01*
X123798373Y-130396535D01*
X123800267Y-130399832D01*
X123800269Y-130399835D01*
X123801203Y-130400474D01*
X123826429Y-130423446D01*
X123827157Y-130424321D01*
X123827158Y-130424321D01*
X123827159Y-130424322D01*
X123843868Y-130431942D01*
X123851781Y-130436413D01*
X123851916Y-130436161D01*
X123858073Y-130439433D01*
X123871687Y-130444811D01*
X123877552Y-130447303D01*
X123899138Y-130457148D01*
X123910956Y-130462538D01*
X123912509Y-130463246D01*
X123912511Y-130463247D01*
X123916134Y-130463994D01*
X123923451Y-130465735D01*
X123927264Y-130466766D01*
X123927267Y-130466767D01*
X123932449Y-130467559D01*
X123945629Y-130470316D01*
X123952150Y-130472054D01*
X123954886Y-130472784D01*
X123963637Y-130475466D01*
X123968730Y-130477234D01*
X123968737Y-130477238D01*
X123985196Y-130480955D01*
X123989773Y-130482083D01*
X124006053Y-130486423D01*
X124006057Y-130486423D01*
X124011366Y-130487216D01*
X124020382Y-130488905D01*
X124040018Y-130493341D01*
X124050547Y-130496212D01*
X124050777Y-130496286D01*
X124069600Y-130500061D01*
X124072544Y-130500689D01*
X124077462Y-130501800D01*
X124091195Y-130504903D01*
X124091205Y-130504902D01*
X124091410Y-130504926D01*
X124102189Y-130506597D01*
X124136479Y-130513474D01*
X124143203Y-130515171D01*
X124145453Y-130515589D01*
X124165962Y-130519400D01*
X124167612Y-130519719D01*
X124188060Y-130523821D01*
X124188061Y-130523820D01*
X124190275Y-130524265D01*
X124196773Y-130525137D01*
X124200556Y-130525830D01*
X124200692Y-130525854D01*
X124223055Y-130530012D01*
X124228934Y-130531105D01*
X124230286Y-130531276D01*
X124355022Y-130554124D01*
X124475928Y-130576702D01*
X124476774Y-130576864D01*
X124566850Y-130594363D01*
X124568484Y-130594692D01*
X124583123Y-130597757D01*
X124644707Y-130630760D01*
X124671646Y-130670178D01*
X124677193Y-130683089D01*
X124678095Y-130685245D01*
X124711578Y-130767415D01*
X124712206Y-130768986D01*
X124747344Y-130858701D01*
X124747894Y-130860131D01*
X124758262Y-130887597D01*
X124781616Y-130949467D01*
X124782191Y-130951023D01*
X124807352Y-131020603D01*
X124811638Y-131090341D01*
X124793285Y-131132491D01*
X124789022Y-131138761D01*
X124788858Y-131139002D01*
X124732127Y-131222020D01*
X124732007Y-131222196D01*
X124667133Y-131316782D01*
X124667057Y-131316893D01*
X124665603Y-131319008D01*
X124663203Y-131322138D01*
X124648647Y-131343668D01*
X124648117Y-131344446D01*
X124633325Y-131365969D01*
X124631287Y-131369350D01*
X124612919Y-131396523D01*
X124598504Y-131417846D01*
X124593673Y-131424306D01*
X124581673Y-131442713D01*
X124580533Y-131444430D01*
X124568181Y-131462702D01*
X124564106Y-131469658D01*
X124538213Y-131509374D01*
X124532540Y-131517261D01*
X124521737Y-131534597D01*
X124520377Y-131536730D01*
X124509193Y-131553885D01*
X124504433Y-131562366D01*
X124488646Y-131587702D01*
X124483149Y-131595795D01*
X124481145Y-131598507D01*
X124472273Y-131613853D01*
X124470169Y-131617357D01*
X124460805Y-131632386D01*
X124459358Y-131635419D01*
X124454794Y-131644085D01*
X124448285Y-131655343D01*
X124438740Y-131669503D01*
X124438507Y-131669800D01*
X124437723Y-131671080D01*
X124430861Y-131682666D01*
X124428948Y-131687104D01*
X124427759Y-131689470D01*
X124423486Y-131699253D01*
X124422155Y-131702861D01*
X124418055Y-131712369D01*
X124408266Y-131730679D01*
X124400786Y-131742227D01*
X124400785Y-131742230D01*
X124396883Y-131773019D01*
X124395052Y-131783699D01*
X124388727Y-131812873D01*
X124388879Y-131826847D01*
X124388159Y-131826854D01*
X124388992Y-131835293D01*
X124389088Y-131835579D01*
X124395383Y-131869725D01*
X124395396Y-131870036D01*
X124400662Y-131879896D01*
X124407409Y-131897663D01*
X124410597Y-131904101D01*
X124411668Y-131905415D01*
X124424944Y-131925358D01*
X124439590Y-131952779D01*
X124445955Y-131960110D01*
X124456584Y-131971038D01*
X124462186Y-131977198D01*
X124471040Y-131987617D01*
X124476459Y-131994468D01*
X124480486Y-131999947D01*
X124480489Y-131999951D01*
X124480491Y-131999954D01*
X124480494Y-131999957D01*
X124491534Y-132011900D01*
X124494947Y-132015750D01*
X124501154Y-132023054D01*
X124505515Y-132028186D01*
X124510478Y-132032849D01*
X124516625Y-132039046D01*
X124529904Y-132053412D01*
X124536162Y-132060836D01*
X124536630Y-132061322D01*
X124536632Y-132061325D01*
X124550383Y-132075602D01*
X124552083Y-132077405D01*
X124565977Y-132092436D01*
X124573036Y-132099121D01*
X124581474Y-132107882D01*
X124599365Y-132126458D01*
X124603685Y-132131412D01*
X124620218Y-132148124D01*
X124621378Y-132149313D01*
X124637610Y-132166167D01*
X124642451Y-132170598D01*
X124677026Y-132205549D01*
X124680579Y-132209526D01*
X124698153Y-132226915D01*
X124699089Y-132227851D01*
X124710192Y-132239075D01*
X124716422Y-132245372D01*
X124720384Y-132248913D01*
X124728517Y-132256960D01*
X124750868Y-132279077D01*
X124758810Y-132286935D01*
X124762237Y-132290692D01*
X124780158Y-132308068D01*
X124781047Y-132308939D01*
X124783582Y-132311448D01*
X124798774Y-132326480D01*
X124802593Y-132329822D01*
X124840462Y-132366542D01*
X124844351Y-132370712D01*
X124862007Y-132387442D01*
X124862988Y-132388382D01*
X124878283Y-132403213D01*
X124878286Y-132403215D01*
X124880476Y-132405338D01*
X124884809Y-132409049D01*
X124917611Y-132440131D01*
X124922849Y-132445598D01*
X124939386Y-132460785D01*
X124940800Y-132462104D01*
X124955761Y-132476281D01*
X124955763Y-132476282D01*
X124957135Y-132477582D01*
X124962957Y-132482433D01*
X124985988Y-132503584D01*
X124993488Y-132511088D01*
X124994189Y-132511853D01*
X124994195Y-132511858D01*
X125006910Y-132522928D01*
X125008381Y-132524208D01*
X125010836Y-132526404D01*
X125024645Y-132539087D01*
X125025470Y-132539689D01*
X125033771Y-132546313D01*
X125044242Y-132555429D01*
X125050978Y-132562309D01*
X125050995Y-132562292D01*
X125056029Y-132567110D01*
X125065926Y-132574654D01*
X125072176Y-132579748D01*
X125081556Y-132587915D01*
X125087288Y-132591871D01*
X125087264Y-132591904D01*
X125094548Y-132596568D01*
X125108805Y-132607342D01*
X125109220Y-132607657D01*
X125111991Y-132609769D01*
X125126877Y-132621117D01*
X125126878Y-132621117D01*
X125127005Y-132621214D01*
X125143023Y-132632525D01*
X125146922Y-132635775D01*
X125163185Y-132639858D01*
X125184327Y-132647252D01*
X125190646Y-132650127D01*
X125190647Y-132650126D01*
X125190648Y-132650127D01*
X125196948Y-132651421D01*
X125219215Y-132653926D01*
X125237906Y-132658619D01*
X125237910Y-132658618D01*
X125238289Y-132658627D01*
X125239904Y-132658805D01*
X125239961Y-132658804D01*
X125245893Y-132658790D01*
X125245953Y-132658791D01*
X125247565Y-132658606D01*
X125247946Y-132658595D01*
X125247951Y-132658596D01*
X125285795Y-132648912D01*
X125291532Y-132647590D01*
X125306528Y-132644507D01*
X125306540Y-132644501D01*
X125313156Y-132642346D01*
X125313270Y-132642697D01*
X125321683Y-132639730D01*
X125338832Y-132635344D01*
X125340202Y-132634191D01*
X125368662Y-132616219D01*
X125370578Y-132615348D01*
X125374377Y-132612449D01*
X125385799Y-132604702D01*
X125389482Y-132602493D01*
X125397779Y-132597940D01*
X125401710Y-132595973D01*
X125401722Y-132595969D01*
X125416221Y-132586550D01*
X125419966Y-132584213D01*
X125419971Y-132584210D01*
X125434747Y-132575350D01*
X125434752Y-132575344D01*
X125438256Y-132572668D01*
X125445979Y-132567220D01*
X125457034Y-132560039D01*
X125465520Y-132555064D01*
X125466020Y-132554723D01*
X125466025Y-132554722D01*
X125482399Y-132543594D01*
X125484492Y-132542205D01*
X125506892Y-132527657D01*
X125506979Y-132527792D01*
X125508193Y-132526982D01*
X125507863Y-132526502D01*
X125513627Y-132522534D01*
X125513630Y-132522534D01*
X125532025Y-132509874D01*
X125532488Y-132509559D01*
X125550861Y-132497075D01*
X125550863Y-132497072D01*
X125554883Y-132494341D01*
X125557271Y-132492503D01*
X125616750Y-132451574D01*
X125617025Y-132451385D01*
X125716443Y-132383366D01*
X125716665Y-132383214D01*
X125747343Y-132362323D01*
X125816063Y-132315525D01*
X125816065Y-132315529D01*
X125816237Y-132315406D01*
X125869727Y-132279144D01*
X125869848Y-132279106D01*
X125869829Y-132279077D01*
X125886228Y-132267984D01*
X125952785Y-132246726D01*
X126005116Y-132259318D01*
X126005773Y-132257690D01*
X126010067Y-132259421D01*
X126020906Y-132264410D01*
X126038220Y-132273412D01*
X126046460Y-132278105D01*
X126050195Y-132280426D01*
X126065798Y-132287841D01*
X126069773Y-132289818D01*
X126085063Y-132297768D01*
X126085074Y-132297771D01*
X126089157Y-132299342D01*
X126097853Y-132303075D01*
X126104417Y-132306194D01*
X126106252Y-132307066D01*
X126114498Y-132311838D01*
X126114532Y-132311777D01*
X126120669Y-132315075D01*
X126120673Y-132315078D01*
X126132583Y-132319849D01*
X126139684Y-132322954D01*
X126151291Y-132328471D01*
X126151292Y-132328471D01*
X126151294Y-132328472D01*
X126154635Y-132329622D01*
X126173001Y-132339310D01*
X126183900Y-132344114D01*
X126193970Y-132346057D01*
X126203392Y-132348261D01*
X126203757Y-132348360D01*
X126203765Y-132348364D01*
X126213559Y-132349910D01*
X126217662Y-132350629D01*
X126225972Y-132352233D01*
X126228930Y-132352842D01*
X126247564Y-132356923D01*
X126247574Y-132356922D01*
X126248005Y-132356968D01*
X126258722Y-132358554D01*
X126276008Y-132361891D01*
X126281437Y-132360457D01*
X126312002Y-132356352D01*
X126317619Y-132356303D01*
X126330109Y-132350150D01*
X126353248Y-132341497D01*
X126366704Y-132337944D01*
X126366703Y-132337944D01*
X126366708Y-132337943D01*
X126370977Y-132334295D01*
X126396733Y-132317335D01*
X126401773Y-132314854D01*
X126412641Y-132300975D01*
X126419685Y-132292749D01*
X126419959Y-132292454D01*
X126419976Y-132292440D01*
X126431388Y-132277094D01*
X126433180Y-132274746D01*
X126447527Y-132256423D01*
X126450550Y-132252717D01*
X126452883Y-132249967D01*
X126452886Y-132249960D01*
X126453304Y-132249468D01*
X126457454Y-132243749D01*
X126459610Y-132240997D01*
X126459610Y-132240993D01*
X126459612Y-132240992D01*
X126465291Y-132228922D01*
X126468693Y-132219516D01*
X126470544Y-132215951D01*
X126474099Y-132209102D01*
X126478748Y-132200924D01*
X126481161Y-132197027D01*
X126481167Y-132197021D01*
X126488544Y-132181454D01*
X126490511Y-132177492D01*
X126498439Y-132162226D01*
X126498441Y-132162217D01*
X126500080Y-132157950D01*
X126503786Y-132149295D01*
X126512845Y-132130183D01*
X126516589Y-132123174D01*
X126517283Y-132121644D01*
X126517286Y-132121641D01*
X126525771Y-132102948D01*
X126526543Y-132101282D01*
X126535352Y-132082701D01*
X126535352Y-132082700D01*
X126536070Y-132081186D01*
X126539008Y-132073788D01*
X126557295Y-132033509D01*
X126559541Y-132029168D01*
X126560984Y-132025904D01*
X126560986Y-132025902D01*
X126569712Y-132006168D01*
X126570143Y-132005206D01*
X126579104Y-131985470D01*
X126579104Y-131985467D01*
X126580583Y-131982211D01*
X126582332Y-131977636D01*
X126582526Y-131977198D01*
X126607513Y-131920699D01*
X126609077Y-131917615D01*
X126610882Y-131913457D01*
X126610886Y-131913452D01*
X126619718Y-131893106D01*
X126619926Y-131892632D01*
X126628912Y-131872317D01*
X126628911Y-131872317D01*
X126630744Y-131868176D01*
X126631966Y-131864895D01*
X126662132Y-131795414D01*
X126663365Y-131792944D01*
X126665336Y-131788336D01*
X126665339Y-131788333D01*
X126674292Y-131767406D01*
X126683232Y-131746814D01*
X126683232Y-131746808D01*
X126685246Y-131742172D01*
X126686181Y-131739611D01*
X126719502Y-131661724D01*
X126720566Y-131659571D01*
X126722618Y-131654712D01*
X126731448Y-131633802D01*
X126740360Y-131612972D01*
X126740360Y-131612966D01*
X126742429Y-131608133D01*
X126743243Y-131605872D01*
X126777900Y-131523809D01*
X126778914Y-131521730D01*
X126780969Y-131516801D01*
X126780971Y-131516799D01*
X126789640Y-131496010D01*
X126798537Y-131474946D01*
X126798537Y-131474941D01*
X126800612Y-131470030D01*
X126801388Y-131467841D01*
X126835579Y-131385860D01*
X126836639Y-131383662D01*
X126838630Y-131378822D01*
X126838632Y-131378820D01*
X126847246Y-131357886D01*
X126855986Y-131336932D01*
X126855986Y-131336929D01*
X126858005Y-131332090D01*
X126858812Y-131329779D01*
X126890760Y-131252147D01*
X126891978Y-131249588D01*
X126893844Y-131244981D01*
X126893846Y-131244979D01*
X126902224Y-131224296D01*
X126902451Y-131223743D01*
X126912814Y-131198560D01*
X126913736Y-131195878D01*
X126941718Y-131126808D01*
X126943244Y-131123546D01*
X126944876Y-131119434D01*
X126944879Y-131119430D01*
X126953039Y-131098870D01*
X126953253Y-131098334D01*
X126961574Y-131077797D01*
X126961574Y-131077791D01*
X126963241Y-131073679D01*
X126964391Y-131070265D01*
X126986714Y-131014025D01*
X126988860Y-131009333D01*
X126990147Y-131005990D01*
X126997803Y-130986100D01*
X126998231Y-130985009D01*
X127006168Y-130965013D01*
X127006168Y-130965012D01*
X127007421Y-130961856D01*
X127009028Y-130956944D01*
X127024105Y-130917781D01*
X127027551Y-130909956D01*
X127028008Y-130908702D01*
X127028011Y-130908698D01*
X127034946Y-130889678D01*
X127035726Y-130887597D01*
X127036889Y-130884578D01*
X127042978Y-130868764D01*
X127042978Y-130868762D01*
X127043454Y-130867527D01*
X127046000Y-130859367D01*
X127052176Y-130842428D01*
X127055485Y-130834273D01*
X127058146Y-130828327D01*
X127058152Y-130828317D01*
X127063148Y-130812642D01*
X127064764Y-130807912D01*
X127070387Y-130792495D01*
X127070388Y-130792486D01*
X127071921Y-130786152D01*
X127074292Y-130777683D01*
X127076943Y-130769366D01*
X127079583Y-130761920D01*
X127084171Y-130750180D01*
X127084173Y-130750176D01*
X127084174Y-130750168D01*
X127085880Y-130743767D01*
X127086873Y-130738773D01*
X127087963Y-130735055D01*
X127088187Y-130734093D01*
X127088913Y-130731816D01*
X127093077Y-130717619D01*
X127095170Y-130712290D01*
X127093918Y-130695542D01*
X127093901Y-130694649D01*
X127093171Y-130685092D01*
X127093235Y-130668742D01*
X127093057Y-130667485D01*
X127093058Y-130667483D01*
X127093056Y-130667480D01*
X127091105Y-130653646D01*
X127091985Y-130653521D01*
X127090170Y-130645390D01*
X127088179Y-130618744D01*
X127088176Y-130618740D01*
X127088076Y-130618412D01*
X127086122Y-130615039D01*
X127064948Y-130578488D01*
X127053163Y-130558065D01*
X127053161Y-130558063D01*
X127050035Y-130552645D01*
X127049549Y-130551904D01*
X127041054Y-130537240D01*
X127041052Y-130537238D01*
X127037803Y-130535030D01*
X127019817Y-130518340D01*
X127019004Y-130519152D01*
X127012202Y-130512334D01*
X127004654Y-130505320D01*
X127002614Y-130503564D01*
X126993791Y-130497546D01*
X126986253Y-130491974D01*
X126975411Y-130483309D01*
X126968550Y-130476834D01*
X126968477Y-130476917D01*
X126963268Y-130472292D01*
X126963267Y-130472291D01*
X126952484Y-130464692D01*
X126946501Y-130460199D01*
X126936187Y-130451954D01*
X126930299Y-130448245D01*
X126930356Y-130448153D01*
X126922220Y-130443364D01*
X126912640Y-130436613D01*
X126904337Y-130430220D01*
X126903280Y-130429333D01*
X126903277Y-130429330D01*
X126895737Y-130424322D01*
X126891504Y-130421510D01*
X126882622Y-130415025D01*
X126773824Y-130327936D01*
X126757458Y-130312167D01*
X126681105Y-130223736D01*
X126667876Y-130205219D01*
X126611404Y-130108492D01*
X126601755Y-130087795D01*
X126565153Y-129985617D01*
X126559426Y-129963258D01*
X126542797Y-129858537D01*
X126541330Y-129835049D01*
X126544752Y-129730435D01*
X126547879Y-129706532D01*
X126550525Y-129695100D01*
X126571618Y-129603958D01*
X126579503Y-129580690D01*
X126629934Y-129469560D01*
X126636978Y-129456253D01*
X126637617Y-129455206D01*
X126645981Y-129443157D01*
X126725008Y-129342615D01*
X126741382Y-129325457D01*
X126786018Y-129286856D01*
X126824626Y-129253468D01*
X126843576Y-129239967D01*
X126936636Y-129186059D01*
X126957313Y-129176501D01*
X127057641Y-129140895D01*
X127079425Y-129135328D01*
X127183869Y-129118540D01*
X127206345Y-129117002D01*
X127311411Y-129119383D01*
X127334196Y-129122021D01*
X127369907Y-129129554D01*
X127434403Y-129143159D01*
X127436646Y-129143632D01*
X127459133Y-129150663D01*
X127556483Y-129191620D01*
X127577745Y-129203124D01*
X127677178Y-129270225D01*
X127677553Y-129270478D01*
X127690395Y-129280428D01*
X127706151Y-129294380D01*
X127715282Y-129303348D01*
X127751964Y-129343297D01*
X127797758Y-129393170D01*
X127797787Y-129393201D01*
X127811100Y-129410551D01*
X127861040Y-129489125D01*
X127871955Y-129510689D01*
X127907809Y-129602869D01*
X127913379Y-129621321D01*
X127933654Y-129714007D01*
X127936375Y-129734557D01*
X127941232Y-129835691D01*
X127939830Y-129861153D01*
X127924016Y-129960391D01*
X127918203Y-129982955D01*
X127881420Y-130084918D01*
X127872134Y-130104895D01*
X127815463Y-130202937D01*
X127802961Y-130220749D01*
X127729076Y-130308499D01*
X127713148Y-130324270D01*
X127618160Y-130402660D01*
X127615317Y-130405006D01*
X127606399Y-130411714D01*
X127600161Y-130415981D01*
X127598601Y-130417031D01*
X127579741Y-130429515D01*
X127573811Y-130434009D01*
X127563896Y-130440793D01*
X127555629Y-130445516D01*
X127555669Y-130445581D01*
X127549732Y-130449221D01*
X127539577Y-130457140D01*
X127533359Y-130461685D01*
X127522699Y-130468979D01*
X127517437Y-130473523D01*
X127517388Y-130473467D01*
X127510380Y-130479907D01*
X127499240Y-130488595D01*
X127491078Y-130494445D01*
X127482890Y-130499824D01*
X127477533Y-130504279D01*
X127477196Y-130503874D01*
X127468279Y-130510567D01*
X127468434Y-130510748D01*
X127456998Y-130520505D01*
X127437325Y-130540121D01*
X127434382Y-130543550D01*
X127424942Y-130561465D01*
X127418324Y-130571965D01*
X127415969Y-130576006D01*
X127414948Y-130578321D01*
X127407821Y-130592072D01*
X127394298Y-130614598D01*
X127393203Y-130617943D01*
X127392436Y-130619753D01*
X127391997Y-130621232D01*
X127391849Y-130622067D01*
X127390656Y-130626542D01*
X127389887Y-130647832D01*
X127387709Y-130666912D01*
X127383661Y-130687826D01*
X127383880Y-130694433D01*
X127385691Y-130708011D01*
X127389446Y-130718082D01*
X127394527Y-130740080D01*
X127394979Y-130739985D01*
X127396424Y-130746798D01*
X127396425Y-130746800D01*
X127396811Y-130747960D01*
X127400962Y-130763898D01*
X127401187Y-130765082D01*
X127404431Y-130772491D01*
X127408491Y-130783053D01*
X127411635Y-130792499D01*
X127411818Y-130793047D01*
X127414535Y-130802426D01*
X127415376Y-130805828D01*
X127421507Y-130822379D01*
X127422879Y-130826280D01*
X127428453Y-130843025D01*
X127428456Y-130843031D01*
X127429918Y-130846189D01*
X127433663Y-130855196D01*
X127441810Y-130877189D01*
X127444095Y-130884410D01*
X127452215Y-130905325D01*
X127452897Y-130907123D01*
X127460728Y-130928260D01*
X127463806Y-130935176D01*
X127480457Y-130978062D01*
X127481939Y-130982548D01*
X127483292Y-130985939D01*
X127483293Y-130985942D01*
X127490481Y-131003951D01*
X127491295Y-131005990D01*
X127491721Y-131007074D01*
X127500875Y-131030650D01*
X127502857Y-131034958D01*
X127526455Y-131094082D01*
X127527542Y-131097285D01*
X127537560Y-131121910D01*
X127537864Y-131122666D01*
X127547741Y-131147410D01*
X127549187Y-131150488D01*
X127578109Y-131221578D01*
X127578992Y-131224132D01*
X127580918Y-131228795D01*
X127588346Y-131246784D01*
X127589460Y-131249480D01*
X127589704Y-131250077D01*
X127599961Y-131275288D01*
X127601126Y-131277731D01*
X127633717Y-131356652D01*
X127634513Y-131358913D01*
X127645215Y-131384497D01*
X127645429Y-131385012D01*
X127655941Y-131410464D01*
X127656966Y-131412588D01*
X127691443Y-131494996D01*
X127692211Y-131497150D01*
X127703030Y-131522695D01*
X127703238Y-131523190D01*
X127713954Y-131548802D01*
X127714970Y-131550881D01*
X127749546Y-131632509D01*
X127750377Y-131634805D01*
X127752422Y-131639571D01*
X127752423Y-131639573D01*
X127761317Y-131660300D01*
X127761456Y-131660625D01*
X127772247Y-131686100D01*
X127773329Y-131688289D01*
X127806204Y-131764895D01*
X127807177Y-131767542D01*
X127809157Y-131772087D01*
X127809158Y-131772091D01*
X127818063Y-131792531D01*
X127818285Y-131793045D01*
X127829045Y-131818117D01*
X127830319Y-131820660D01*
X127836819Y-131835579D01*
X127859676Y-131888042D01*
X127860957Y-131891462D01*
X127871648Y-131915530D01*
X127872002Y-131916335D01*
X127882544Y-131940530D01*
X127884208Y-131943802D01*
X127908207Y-131997827D01*
X127910098Y-132002740D01*
X127911475Y-132005754D01*
X127911476Y-132005757D01*
X127920406Y-132025301D01*
X127920839Y-132026261D01*
X127927376Y-132040975D01*
X127930953Y-132049027D01*
X127933387Y-132053709D01*
X127950096Y-132090276D01*
X127953401Y-132098507D01*
X127953889Y-132099526D01*
X127953890Y-132099527D01*
X127954679Y-132101172D01*
X127962613Y-132117718D01*
X127963568Y-132119759D01*
X127969169Y-132132015D01*
X127972387Y-132139057D01*
X127976588Y-132146860D01*
X127983539Y-132161356D01*
X127986615Y-132169577D01*
X127987016Y-132169418D01*
X127989593Y-132175885D01*
X127989595Y-132175890D01*
X127989596Y-132175891D01*
X127997089Y-132189892D01*
X127999555Y-132194755D01*
X128001891Y-132199625D01*
X128006418Y-132209064D01*
X128010109Y-132214959D01*
X128009734Y-132215193D01*
X128014557Y-132222525D01*
X128020303Y-132233260D01*
X128021928Y-132236403D01*
X128022477Y-132237503D01*
X128029947Y-132256097D01*
X128030215Y-132256957D01*
X128030216Y-132256960D01*
X128055160Y-132283743D01*
X128060247Y-132289558D01*
X128068408Y-132299501D01*
X128068410Y-132299503D01*
X128068414Y-132299507D01*
X128073083Y-132304047D01*
X128080197Y-132311567D01*
X128083628Y-132315512D01*
X128090074Y-132321230D01*
X128092696Y-132324045D01*
X128094149Y-132325605D01*
X128094151Y-132325605D01*
X128095190Y-132326311D01*
X128122667Y-132341884D01*
X128123788Y-132342405D01*
X128123790Y-132342406D01*
X128143531Y-132346619D01*
X128162736Y-132352376D01*
X128181536Y-132359715D01*
X128181539Y-132359714D01*
X128182779Y-132359899D01*
X128214280Y-132362007D01*
X128215526Y-132361989D01*
X128215531Y-132361990D01*
X128235156Y-132357218D01*
X128244561Y-132355725D01*
X128244548Y-132355657D01*
X128251381Y-132354350D01*
X128251382Y-132354349D01*
X128251388Y-132354349D01*
X128263667Y-132350535D01*
X128271109Y-132348478D01*
X128306685Y-132339830D01*
X128306688Y-132339827D01*
X128313867Y-132336245D01*
X128319449Y-132333631D01*
X128322681Y-132332212D01*
X128322691Y-132332210D01*
X128327507Y-132329417D01*
X128339271Y-132323411D01*
X128346577Y-132320159D01*
X128354879Y-132317339D01*
X128354721Y-132316906D01*
X128361254Y-132314519D01*
X128361254Y-132314518D01*
X128361262Y-132314517D01*
X128375590Y-132307373D01*
X128380395Y-132305108D01*
X128395013Y-132298604D01*
X128395018Y-132298600D01*
X128401025Y-132295073D01*
X128401261Y-132295475D01*
X128408708Y-132290863D01*
X128421279Y-132284597D01*
X128431161Y-132280200D01*
X128431587Y-132280031D01*
X128431593Y-132280030D01*
X128431599Y-132280027D01*
X128448422Y-132271110D01*
X128451179Y-132269692D01*
X128468222Y-132261197D01*
X128468223Y-132261196D01*
X128470759Y-132259932D01*
X128539539Y-132247642D01*
X128595547Y-132268196D01*
X128611861Y-132279231D01*
X128704771Y-132342298D01*
X128805698Y-132411160D01*
X128805879Y-132411381D01*
X128805925Y-132411316D01*
X128900752Y-132476325D01*
X128901005Y-132476498D01*
X128924331Y-132492574D01*
X128929081Y-132496212D01*
X128949028Y-132509606D01*
X128950269Y-132510451D01*
X128970056Y-132524088D01*
X128975177Y-132527166D01*
X128993543Y-132539499D01*
X129001716Y-132545487D01*
X129003539Y-132546941D01*
X129003545Y-132546947D01*
X129018972Y-132556641D01*
X129022065Y-132558651D01*
X129037155Y-132568785D01*
X129037161Y-132568787D01*
X129039213Y-132569853D01*
X129048022Y-132574898D01*
X129055998Y-132579910D01*
X129063251Y-132585393D01*
X129063412Y-132585170D01*
X129069070Y-132589218D01*
X129069075Y-132589223D01*
X129069079Y-132589225D01*
X129081808Y-132596329D01*
X129087360Y-132599619D01*
X129099697Y-132607372D01*
X129099704Y-132607374D01*
X129105976Y-132610396D01*
X129105855Y-132610645D01*
X129114141Y-132614371D01*
X129119353Y-132617280D01*
X129126076Y-132621317D01*
X129136733Y-132628190D01*
X129136736Y-132628191D01*
X129136744Y-132628196D01*
X129142630Y-132631116D01*
X129148720Y-132633668D01*
X129148725Y-132633671D01*
X129148729Y-132633672D01*
X129154534Y-132636105D01*
X129169240Y-132643450D01*
X129178059Y-132648611D01*
X129178061Y-132648612D01*
X129178063Y-132648613D01*
X129195467Y-132650020D01*
X129212225Y-132653116D01*
X129229909Y-132654182D01*
X129229876Y-132654714D01*
X129240204Y-132654506D01*
X129262516Y-132657286D01*
X129262518Y-132657285D01*
X129263256Y-132657377D01*
X129264419Y-132657210D01*
X129269732Y-132656558D01*
X129270871Y-132656443D01*
X129270876Y-132656441D01*
X129271563Y-132656175D01*
X129271566Y-132656176D01*
X129308710Y-132641849D01*
X129313707Y-132640045D01*
X129351418Y-132627346D01*
X129358398Y-132620527D01*
X129372906Y-132608732D01*
X129375272Y-132606722D01*
X129375275Y-132606721D01*
X129378906Y-132603636D01*
X129389921Y-132595293D01*
X129393884Y-132592627D01*
X129396978Y-132589331D01*
X129407128Y-132579673D01*
X129411571Y-132575900D01*
X129419726Y-132569543D01*
X129421184Y-132568500D01*
X129421192Y-132568496D01*
X129434896Y-132556162D01*
X129437581Y-132553817D01*
X129449568Y-132543639D01*
X129451600Y-132541914D01*
X129451604Y-132541907D01*
X129452811Y-132540625D01*
X129460227Y-132533368D01*
X129476061Y-132519120D01*
X129481735Y-132514493D01*
X129483239Y-132513097D01*
X129483242Y-132513096D01*
X129498556Y-132498891D01*
X129499637Y-132497904D01*
X129515150Y-132483945D01*
X129515154Y-132483938D01*
X129516683Y-132482563D01*
X129521790Y-132477341D01*
X129552592Y-132448772D01*
X129556723Y-132445316D01*
X129559094Y-132443067D01*
X129559098Y-132443066D01*
X129574781Y-132428200D01*
X129575523Y-132427505D01*
X129591262Y-132412909D01*
X129591263Y-132412906D01*
X129593658Y-132410686D01*
X129597350Y-132406810D01*
X129638969Y-132367365D01*
X129641874Y-132364890D01*
X129647061Y-132359899D01*
X129660943Y-132346541D01*
X129661164Y-132346330D01*
X129677333Y-132331007D01*
X129677336Y-132331002D01*
X129680463Y-132328039D01*
X129683069Y-132325251D01*
X129693845Y-132314883D01*
X129697802Y-132311448D01*
X129700192Y-132309098D01*
X129700194Y-132309098D01*
X129715529Y-132294028D01*
X129716410Y-132293173D01*
X129734263Y-132275998D01*
X129737809Y-132272137D01*
X129789395Y-132221452D01*
X129795556Y-132215951D01*
X129796601Y-132214887D01*
X129796604Y-132214886D01*
X129810902Y-132200345D01*
X129812296Y-132198951D01*
X129826861Y-132184642D01*
X129826865Y-132184634D01*
X129827936Y-132183583D01*
X129833436Y-132177431D01*
X129834951Y-132175891D01*
X129873218Y-132136977D01*
X129880907Y-132129833D01*
X129894401Y-132115483D01*
X129896328Y-132113479D01*
X129899395Y-132110359D01*
X129909997Y-132099580D01*
X129909998Y-132099577D01*
X129910169Y-132099404D01*
X129917021Y-132091427D01*
X129941561Y-132065331D01*
X129948208Y-132058778D01*
X129951711Y-132055575D01*
X129951720Y-132055569D01*
X129962976Y-132042680D01*
X129965979Y-132039365D01*
X129977745Y-132026855D01*
X129977751Y-132026844D01*
X129980588Y-132023054D01*
X129986485Y-132015765D01*
X129989861Y-132011900D01*
X129998258Y-132002285D01*
X130009861Y-131990656D01*
X130010834Y-131989802D01*
X130012409Y-131987622D01*
X130024589Y-131973220D01*
X130031146Y-131966566D01*
X130031149Y-131966565D01*
X130048871Y-131937893D01*
X130061693Y-131920682D01*
X130067954Y-131913645D01*
X130074137Y-131891987D01*
X130079231Y-131877579D01*
X130088498Y-131855758D01*
X130088497Y-131855756D01*
X130088499Y-131855754D01*
X130090960Y-131842005D01*
X130091435Y-131842090D01*
X130093519Y-131824122D01*
X130093562Y-131823968D01*
X130093713Y-131823442D01*
X130093505Y-131822234D01*
X130092386Y-131788192D01*
X130092513Y-131786983D01*
X130092512Y-131786980D01*
X130092513Y-131786978D01*
X130091338Y-131783699D01*
X130087253Y-131772294D01*
X130084527Y-131763717D01*
X130082175Y-131755265D01*
X130081816Y-131754405D01*
X130081816Y-131754402D01*
X130076130Y-131740766D01*
X130073867Y-131734923D01*
X130060880Y-131698664D01*
X130060879Y-131698663D01*
X130057701Y-131693686D01*
X130053826Y-131687189D01*
X130053688Y-131686942D01*
X130053686Y-131686937D01*
X130049952Y-131681701D01*
X130043187Y-131671116D01*
X130037678Y-131661448D01*
X130033363Y-131653164D01*
X130031312Y-131648837D01*
X130031311Y-131648832D01*
X130022310Y-131634309D01*
X130019994Y-131630414D01*
X130011522Y-131615546D01*
X130011518Y-131615542D01*
X130008690Y-131611664D01*
X130003473Y-131603914D01*
X129998565Y-131595995D01*
X129991059Y-131583883D01*
X129986290Y-131575338D01*
X129985941Y-131574800D01*
X129985940Y-131574797D01*
X129975135Y-131558142D01*
X129973796Y-131556028D01*
X129963083Y-131538741D01*
X129957382Y-131530776D01*
X129952279Y-131522910D01*
X129947765Y-131515951D01*
X129933979Y-131494699D01*
X129930143Y-131488111D01*
X129929103Y-131486562D01*
X129929102Y-131486559D01*
X129917589Y-131469410D01*
X129916587Y-131467890D01*
X129904364Y-131449048D01*
X129899799Y-131442911D01*
X129868647Y-131396507D01*
X129866276Y-131392547D01*
X129864158Y-131389454D01*
X129864157Y-131389451D01*
X129851935Y-131371603D01*
X129851340Y-131370725D01*
X129837186Y-131349641D01*
X129834436Y-131346043D01*
X129833613Y-131344845D01*
X129832638Y-131343424D01*
X129827860Y-131336447D01*
X129816173Y-131319380D01*
X129815800Y-131318897D01*
X129766294Y-131246784D01*
X129707215Y-131160421D01*
X129688266Y-131132598D01*
X129666798Y-131066113D01*
X129674073Y-131020827D01*
X129676511Y-131014052D01*
X129695850Y-130960287D01*
X129696450Y-130958658D01*
X129729889Y-130869711D01*
X129730400Y-130868375D01*
X129765545Y-130778296D01*
X129766144Y-130776793D01*
X129799986Y-130693366D01*
X129800843Y-130691306D01*
X129802329Y-130687826D01*
X129809793Y-130670333D01*
X129854212Y-130616401D01*
X129897890Y-130597751D01*
X129898509Y-130597619D01*
X129900343Y-130597243D01*
X129985356Y-130580547D01*
X129986148Y-130580395D01*
X130100946Y-130558837D01*
X130101099Y-130558809D01*
X130247773Y-130531872D01*
X130247895Y-130531885D01*
X130247889Y-130531851D01*
X130247923Y-130531845D01*
X130251361Y-130531217D01*
X130256554Y-130530542D01*
X130280888Y-130525840D01*
X130282172Y-130525599D01*
X130306586Y-130521147D01*
X130311660Y-130519895D01*
X130321368Y-130518019D01*
X130348908Y-130512698D01*
X130359414Y-130511153D01*
X130359594Y-130511113D01*
X130359600Y-130511114D01*
X130378623Y-130506989D01*
X130381326Y-130506436D01*
X130400573Y-130502718D01*
X130410870Y-130499997D01*
X130436354Y-130494472D01*
X130446234Y-130492745D01*
X130448912Y-130492387D01*
X130448926Y-130492387D01*
X130455962Y-130490628D01*
X130466368Y-130488028D01*
X130470112Y-130487153D01*
X130487737Y-130483333D01*
X130487749Y-130483327D01*
X130490316Y-130482461D01*
X130499942Y-130479637D01*
X130505079Y-130478352D01*
X130510303Y-130477047D01*
X130522624Y-130474951D01*
X130526901Y-130474064D01*
X130526914Y-130474063D01*
X130537693Y-130470530D01*
X130546230Y-130468069D01*
X130548271Y-130467559D01*
X130557220Y-130465323D01*
X130557224Y-130465320D01*
X130563755Y-130462885D01*
X130564188Y-130464046D01*
X130592309Y-130455299D01*
X130600181Y-130454243D01*
X130630484Y-130434292D01*
X130637298Y-130430115D01*
X130648189Y-130423912D01*
X130648201Y-130423900D01*
X130649288Y-130423109D01*
X130658502Y-130416999D01*
X130667501Y-130411593D01*
X130667502Y-130411590D01*
X130669721Y-130410258D01*
X130676239Y-130405054D01*
X130678532Y-130402660D01*
X130678534Y-130402660D01*
X130678534Y-130402658D01*
X130679812Y-130401326D01*
X130698768Y-130378084D01*
X130699815Y-130376565D01*
X130699821Y-130376561D01*
X130707421Y-130357520D01*
X130711678Y-130348927D01*
X130711646Y-130348913D01*
X130714479Y-130342694D01*
X130717431Y-130337344D01*
X130718983Y-130333176D01*
X130718985Y-130333174D01*
X130718985Y-130333170D01*
X130722615Y-130323426D01*
X130725629Y-130311908D01*
X130734600Y-130289438D01*
X130734599Y-130289432D01*
X130736763Y-130275629D01*
X130736805Y-130275635D01*
X130736971Y-130273805D01*
X130736974Y-130273799D01*
X130738677Y-130255124D01*
X130739018Y-130251876D01*
X130741752Y-130228834D01*
X130743609Y-130219825D01*
X130743388Y-130219786D01*
X130744602Y-130212938D01*
X130744605Y-130212932D01*
X130745503Y-130198783D01*
X130746114Y-130192079D01*
X130747784Y-130178012D01*
X130747784Y-130178010D01*
X130747825Y-130171046D01*
X130748049Y-130171047D01*
X130747851Y-130161844D01*
X130749259Y-130139681D01*
X130750374Y-130129207D01*
X130750554Y-130127995D01*
X130750557Y-130127987D01*
X130751237Y-130109249D01*
X130751398Y-130106031D01*
X130752588Y-130087314D01*
X130752586Y-130087304D01*
X130752527Y-130086078D01*
X130752461Y-130075545D01*
X130753857Y-130037087D01*
X130754571Y-130028570D01*
X130754595Y-130027245D01*
X130754596Y-130027243D01*
X130754970Y-130006952D01*
X130755026Y-130004893D01*
X130755764Y-129984614D01*
X130755763Y-129984608D01*
X130755811Y-129983289D01*
X130755565Y-129974752D01*
X130756481Y-129925187D01*
X130756952Y-129918227D01*
X130756961Y-129915957D01*
X130756962Y-129915955D01*
X130757048Y-129895160D01*
X130757068Y-129893411D01*
X130757437Y-129873481D01*
X130757454Y-129872584D01*
X130757453Y-129872581D01*
X130757495Y-129870337D01*
X130757182Y-129863362D01*
X130757409Y-129809070D01*
X130757769Y-129802374D01*
X130757547Y-129779091D01*
X130757542Y-129777382D01*
X130757631Y-129756448D01*
X130757629Y-129756443D01*
X130757640Y-129754033D01*
X130757246Y-129747335D01*
X130756745Y-129694585D01*
X130757039Y-129687050D01*
X130756991Y-129685133D01*
X130756992Y-129685129D01*
X130756473Y-129664441D01*
X130756444Y-129662784D01*
X130756248Y-129642024D01*
X130756246Y-129642019D01*
X130756229Y-129640116D01*
X130755675Y-129632587D01*
X130754551Y-129587695D01*
X130754756Y-129577638D01*
X130754733Y-129577142D01*
X130754734Y-129577137D01*
X130753821Y-129557479D01*
X130753729Y-129554865D01*
X130753226Y-129534750D01*
X130752302Y-129524726D01*
X130750898Y-129494471D01*
X130750819Y-129485109D01*
X130750956Y-129480412D01*
X130750958Y-129480402D01*
X130749537Y-129463329D01*
X130749244Y-129458802D01*
X130749078Y-129455215D01*
X130748452Y-129441715D01*
X130748448Y-129441703D01*
X130747704Y-129437042D01*
X130746575Y-129427739D01*
X130746005Y-129420893D01*
X130745171Y-129410873D01*
X130744900Y-129394407D01*
X130744961Y-129393185D01*
X130744961Y-129393183D01*
X130744227Y-129389022D01*
X130742399Y-129371235D01*
X130742018Y-129358671D01*
X130742019Y-129358667D01*
X130733527Y-129326060D01*
X130731410Y-129316350D01*
X130729686Y-129306571D01*
X130729684Y-129306568D01*
X130728706Y-129301018D01*
X130725883Y-129287092D01*
X130725857Y-129286856D01*
X130717695Y-129273895D01*
X130708360Y-129255986D01*
X130707299Y-129253470D01*
X130702471Y-129242016D01*
X130702470Y-129242015D01*
X130702470Y-129242014D01*
X130699129Y-129237368D01*
X130682044Y-129217283D01*
X130675868Y-129207476D01*
X130675867Y-129207475D01*
X130669558Y-129201179D01*
X130660454Y-129193296D01*
X130653334Y-129187963D01*
X130631812Y-129178392D01*
X130616828Y-129170415D01*
X130616509Y-129170262D01*
X130607535Y-129167132D01*
X130598006Y-129163359D01*
X130567615Y-129149845D01*
X130567613Y-129149844D01*
X130553911Y-129147152D01*
X130553911Y-129147149D01*
X130547298Y-129146410D01*
X130531099Y-129143500D01*
X130525571Y-129142123D01*
X130515347Y-129139104D01*
X130514470Y-129138803D01*
X130503810Y-129136442D01*
X130496054Y-129134724D01*
X130492903Y-129133982D01*
X130474652Y-129129434D01*
X130473707Y-129129309D01*
X130463237Y-129127457D01*
X130439836Y-129122275D01*
X130433074Y-129120427D01*
X130410543Y-129115775D01*
X130408833Y-129115409D01*
X130388486Y-129110904D01*
X130386314Y-129110423D01*
X130379389Y-129109342D01*
X130336413Y-129100469D01*
X130331311Y-129099142D01*
X130307041Y-129094397D01*
X130305767Y-129094141D01*
X130281569Y-129089145D01*
X130276334Y-129088395D01*
X130219264Y-129077239D01*
X130215709Y-129076348D01*
X130189842Y-129071484D01*
X130188976Y-129071318D01*
X130163093Y-129066259D01*
X130159464Y-129065772D01*
X130155429Y-129065013D01*
X130154873Y-129064876D01*
X130126149Y-129059507D01*
X130126030Y-129059446D01*
X130126024Y-129059484D01*
X130096778Y-129053985D01*
X130096200Y-129053909D01*
X130084038Y-129051635D01*
X130007116Y-129037255D01*
X130006788Y-129037088D01*
X130006769Y-129037190D01*
X129901199Y-129017142D01*
X129900957Y-129017095D01*
X129892609Y-129015479D01*
X129874321Y-129011938D01*
X129812246Y-128979868D01*
X129784065Y-128939385D01*
X129784049Y-128939347D01*
X129759265Y-128881990D01*
X129730990Y-128815768D01*
X129721567Y-128793697D01*
X129721383Y-128793266D01*
X129710635Y-128767826D01*
X129683805Y-128704323D01*
X129653744Y-128632333D01*
X129646078Y-128562889D01*
X129664991Y-128515781D01*
X129708933Y-128449863D01*
X129709304Y-128449311D01*
X129754882Y-128382143D01*
X129773386Y-128354874D01*
X129773775Y-128354304D01*
X129781334Y-128343297D01*
X129794099Y-128324708D01*
X129795036Y-128323494D01*
X129811196Y-128299815D01*
X129811403Y-128299512D01*
X129811607Y-128299215D01*
X129824187Y-128280898D01*
X129824188Y-128280894D01*
X129827558Y-128275988D01*
X129828339Y-128274695D01*
X129863787Y-128222755D01*
X129866868Y-128218703D01*
X129868773Y-128215847D01*
X129868776Y-128215846D01*
X129880866Y-128197737D01*
X129881247Y-128197171D01*
X129893515Y-128179198D01*
X129893516Y-128179194D01*
X129895456Y-128176353D01*
X129898066Y-128171973D01*
X129926572Y-128129279D01*
X129930229Y-128124355D01*
X129943275Y-128104279D01*
X129944052Y-128103098D01*
X129955816Y-128085480D01*
X129955817Y-128085475D01*
X129957363Y-128083161D01*
X129960438Y-128077864D01*
X129978998Y-128049303D01*
X129984368Y-128041827D01*
X129984867Y-128041024D01*
X129984871Y-128041021D01*
X129995451Y-128024027D01*
X129996689Y-128022080D01*
X130007593Y-128005303D01*
X130007594Y-128005297D01*
X130008116Y-128004496D01*
X130012614Y-127996464D01*
X130018397Y-127987176D01*
X130023721Y-127980126D01*
X130023383Y-127979883D01*
X130027449Y-127974229D01*
X130027453Y-127974225D01*
X130035128Y-127960545D01*
X130037982Y-127955723D01*
X130038976Y-127954127D01*
X130046257Y-127942434D01*
X130046259Y-127942426D01*
X130049253Y-127936147D01*
X130049631Y-127936327D01*
X130053239Y-127928270D01*
X130054178Y-127926597D01*
X130057977Y-127920278D01*
X130065167Y-127909095D01*
X130065169Y-127909088D01*
X130065171Y-127909086D01*
X130067912Y-127903543D01*
X130070089Y-127898381D01*
X130077563Y-127883526D01*
X130083510Y-127873454D01*
X130084859Y-127857521D01*
X130089487Y-127832891D01*
X130090155Y-127830628D01*
X130090154Y-127830623D01*
X130090155Y-127830621D01*
X130090918Y-127818452D01*
X130090603Y-127802472D01*
X130092393Y-127787938D01*
X130092391Y-127787934D01*
X130092463Y-127787356D01*
X130092314Y-127786292D01*
X130091743Y-127781597D01*
X130091633Y-127780526D01*
X130091425Y-127779982D01*
X130091426Y-127779981D01*
X130076933Y-127741977D01*
X130075350Y-127737574D01*
X130062325Y-127699080D01*
X130062324Y-127699078D01*
X130056000Y-127692623D01*
X130042280Y-127675926D01*
X130040757Y-127673704D01*
X130039002Y-127671673D01*
X130029684Y-127659436D01*
X130028200Y-127657214D01*
X130024483Y-127653697D01*
X130023387Y-127652660D01*
X130014808Y-127643688D01*
X130010164Y-127638317D01*
X130003872Y-127630411D01*
X130002383Y-127628376D01*
X130002382Y-127628373D01*
X129990130Y-127615053D01*
X129987590Y-127612205D01*
X129986140Y-127610528D01*
X129975780Y-127598544D01*
X129975772Y-127598538D01*
X129973924Y-127596831D01*
X129966803Y-127589695D01*
X129954225Y-127576022D01*
X129949617Y-127570494D01*
X129948154Y-127568950D01*
X129948153Y-127568948D01*
X129933908Y-127553915D01*
X129932697Y-127552618D01*
X129917215Y-127535787D01*
X129911978Y-127530774D01*
X129886932Y-127504344D01*
X129883804Y-127500684D01*
X129881276Y-127498067D01*
X129881275Y-127498065D01*
X129866179Y-127482438D01*
X129865447Y-127481672D01*
X129848130Y-127463397D01*
X129844613Y-127460111D01*
X129811297Y-127425621D01*
X129808785Y-127422733D01*
X129790436Y-127404021D01*
X129789784Y-127403351D01*
X129771608Y-127384534D01*
X129768786Y-127381942D01*
X129744860Y-127357543D01*
X129731462Y-127343879D01*
X129729081Y-127341180D01*
X129710453Y-127322449D01*
X129709843Y-127321831D01*
X129691343Y-127302966D01*
X129688659Y-127300537D01*
X129651637Y-127263312D01*
X129648972Y-127260336D01*
X129630465Y-127242018D01*
X129629776Y-127241331D01*
X129611423Y-127222878D01*
X129608444Y-127220222D01*
X129576087Y-127188195D01*
X129572559Y-127184328D01*
X129554835Y-127167149D01*
X129553908Y-127166241D01*
X129536258Y-127148771D01*
X129532293Y-127145300D01*
X129530000Y-127143078D01*
X129509000Y-127122724D01*
X129503294Y-127116642D01*
X129487410Y-127101772D01*
X129485886Y-127100321D01*
X129471290Y-127086174D01*
X129471289Y-127086173D01*
X129470258Y-127085174D01*
X129463891Y-127079756D01*
X129454903Y-127071342D01*
X129448610Y-127065010D01*
X129444414Y-127060473D01*
X129431903Y-127049673D01*
X129428187Y-127046332D01*
X129411051Y-127030290D01*
X129411308Y-127030015D01*
X129405891Y-127026038D01*
X129404189Y-127024788D01*
X129390688Y-127013305D01*
X129385509Y-127008218D01*
X129380278Y-127004124D01*
X129374805Y-127000380D01*
X129374801Y-127000377D01*
X129368828Y-126997208D01*
X129353570Y-126987631D01*
X129330270Y-126970528D01*
X129307385Y-126966259D01*
X129290229Y-126961769D01*
X129268181Y-126954277D01*
X129260055Y-126953436D01*
X129246226Y-126952999D01*
X129238049Y-126953326D01*
X129215574Y-126959410D01*
X129198182Y-126962806D01*
X129175062Y-126965624D01*
X129175056Y-126965626D01*
X129155446Y-126978197D01*
X129142046Y-126985660D01*
X129138416Y-126987396D01*
X129128498Y-126993591D01*
X129121047Y-126997893D01*
X129110723Y-127003384D01*
X129104979Y-127007323D01*
X129104712Y-127006933D01*
X129095759Y-127012906D01*
X129096019Y-127013306D01*
X129073139Y-127028153D01*
X129071337Y-127029300D01*
X129052876Y-127040832D01*
X129046131Y-127045678D01*
X129028775Y-127056940D01*
X129024899Y-127059181D01*
X129003590Y-127073278D01*
X129002679Y-127073875D01*
X128981293Y-127087753D01*
X128977698Y-127090407D01*
X128942916Y-127113418D01*
X128940156Y-127115042D01*
X128917998Y-127129902D01*
X128917358Y-127130328D01*
X128894932Y-127145165D01*
X128892365Y-127147090D01*
X128844430Y-127179236D01*
X128842390Y-127180451D01*
X128819407Y-127196016D01*
X128818948Y-127196325D01*
X128796136Y-127211624D01*
X128794226Y-127213072D01*
X128770194Y-127229350D01*
X128769361Y-127229850D01*
X128745157Y-127246307D01*
X128744983Y-127246425D01*
X128721216Y-127262524D01*
X128720450Y-127263108D01*
X128520880Y-127398814D01*
X128454374Y-127420233D01*
X128403895Y-127410916D01*
X128114543Y-127291636D01*
X128060066Y-127247887D01*
X128039949Y-127199971D01*
X127984928Y-126908107D01*
X127984927Y-126908106D01*
X127911100Y-126516488D01*
X127908954Y-126493517D01*
X127908954Y-126477404D01*
X127908954Y-126477403D01*
X127891307Y-126440759D01*
X127889364Y-126436518D01*
X127873135Y-126399252D01*
X127873133Y-126399251D01*
X127872900Y-126398714D01*
X127872243Y-126397890D01*
X127869361Y-126394132D01*
X127868713Y-126393252D01*
X127836482Y-126367549D01*
X127832850Y-126364538D01*
X127832844Y-126364533D01*
X127802071Y-126338015D01*
X127802069Y-126338014D01*
X127801622Y-126337629D01*
X127800634Y-126337153D01*
X127796424Y-126335025D01*
X127795482Y-126334526D01*
X127755270Y-126325348D01*
X127750703Y-126324213D01*
X127739122Y-126321102D01*
X127711475Y-126313674D01*
X127696868Y-126316428D01*
X127695641Y-126316660D01*
X127672669Y-126318807D01*
X126808794Y-126318807D01*
X126785823Y-126316661D01*
X126769982Y-126313674D01*
X126730754Y-126324213D01*
X126726179Y-126325349D01*
X126685978Y-126334525D01*
X126685035Y-126335025D01*
X126680825Y-126337152D01*
X126679841Y-126337625D01*
X126648615Y-126364533D01*
X126644986Y-126367541D01*
X126612743Y-126393255D01*
X126612094Y-126394136D01*
X126609222Y-126397881D01*
X126608560Y-126398710D01*
X126592101Y-126436503D01*
X126590137Y-126440788D01*
X126572506Y-126477400D01*
X126572506Y-126493518D01*
X126570360Y-126516488D01*
X126499992Y-126889760D01*
X126496533Y-126908106D01*
X126441511Y-127199966D01*
X126409747Y-127262198D01*
X126366916Y-127291635D01*
X126209341Y-127356592D01*
X126209335Y-127356597D01*
X126077562Y-127410917D01*
X126008080Y-127418267D01*
X125960578Y-127398814D01*
X125761131Y-127263192D01*
X125759997Y-127262326D01*
X125736044Y-127246132D01*
X125735769Y-127245946D01*
X125735716Y-127245910D01*
X125717160Y-127233292D01*
X125717159Y-127233291D01*
X125712232Y-127229941D01*
X125711028Y-127229220D01*
X125656647Y-127192456D01*
X125654299Y-127190679D01*
X125650223Y-127187957D01*
X125650222Y-127187956D01*
X125631553Y-127175489D01*
X125631118Y-127175197D01*
X125608725Y-127160057D01*
X125606201Y-127158560D01*
X125561754Y-127128879D01*
X125558897Y-127126746D01*
X125536799Y-127112211D01*
X125536083Y-127111736D01*
X125514088Y-127097049D01*
X125511017Y-127095252D01*
X125480982Y-127075497D01*
X125476697Y-127072356D01*
X125458203Y-127060472D01*
X125455902Y-127058993D01*
X125454827Y-127058294D01*
X125434193Y-127044722D01*
X125429568Y-127042071D01*
X125418272Y-127034812D01*
X125409349Y-127028505D01*
X125409239Y-127028420D01*
X125392817Y-127018413D01*
X125390310Y-127016844D01*
X125368293Y-127002697D01*
X125368473Y-127002415D01*
X125359030Y-126996408D01*
X125354981Y-126993860D01*
X125348651Y-126990807D01*
X125338010Y-126985017D01*
X125332004Y-126981358D01*
X125332005Y-126981358D01*
X125332001Y-126981356D01*
X125331996Y-126981354D01*
X125325684Y-126978420D01*
X125325855Y-126978051D01*
X125314763Y-126973085D01*
X125295757Y-126962231D01*
X125294763Y-126962161D01*
X125284987Y-126961474D01*
X125279469Y-126960376D01*
X125279457Y-126960502D01*
X125265007Y-126959074D01*
X125249533Y-126956549D01*
X125234714Y-126953156D01*
X125231210Y-126953154D01*
X125205634Y-126955123D01*
X125202175Y-126955661D01*
X125182356Y-126963548D01*
X125164032Y-126969242D01*
X125143246Y-126973972D01*
X125143242Y-126973974D01*
X125118010Y-126994069D01*
X125100602Y-127005675D01*
X125096666Y-127007843D01*
X125096662Y-127007846D01*
X125094724Y-127009573D01*
X125082602Y-127019088D01*
X125080459Y-127020564D01*
X125075898Y-127025526D01*
X125067102Y-127034186D01*
X125061817Y-127038895D01*
X125054043Y-127045275D01*
X125052012Y-127046807D01*
X125038892Y-127059243D01*
X125036097Y-127061813D01*
X125032510Y-127065010D01*
X125023233Y-127073278D01*
X125022575Y-127073864D01*
X125020878Y-127075757D01*
X125013863Y-127082969D01*
X125000445Y-127095688D01*
X124994975Y-127100391D01*
X124978655Y-127116324D01*
X124977348Y-127117581D01*
X124960777Y-127133291D01*
X124955859Y-127138583D01*
X124929816Y-127164012D01*
X124926222Y-127167179D01*
X124908349Y-127184966D01*
X124907516Y-127185787D01*
X124889498Y-127203380D01*
X124886280Y-127206929D01*
X124852291Y-127240756D01*
X124849444Y-127243308D01*
X124831012Y-127261929D01*
X124830360Y-127262583D01*
X124811830Y-127281024D01*
X124809287Y-127283875D01*
X124794072Y-127299248D01*
X124771771Y-127321777D01*
X124769101Y-127324205D01*
X124750564Y-127343196D01*
X124749965Y-127343805D01*
X124731464Y-127362498D01*
X124729114Y-127365171D01*
X124692378Y-127402810D01*
X124689462Y-127405502D01*
X124671566Y-127424127D01*
X124670899Y-127424817D01*
X124652612Y-127443554D01*
X124649996Y-127446575D01*
X124618392Y-127479465D01*
X124614580Y-127483050D01*
X124597661Y-127501030D01*
X124596779Y-127501958D01*
X124579565Y-127519875D01*
X124576187Y-127523850D01*
X124553900Y-127547536D01*
X124547937Y-127553299D01*
X124533287Y-127569415D01*
X124531843Y-127570976D01*
X124516912Y-127586844D01*
X124511629Y-127593240D01*
X124503256Y-127602451D01*
X124497012Y-127608841D01*
X124492612Y-127613030D01*
X124481966Y-127625725D01*
X124478719Y-127629444D01*
X124467554Y-127641727D01*
X124463999Y-127646649D01*
X124458510Y-127653697D01*
X124455355Y-127657460D01*
X124449863Y-127663585D01*
X124441409Y-127672406D01*
X124437234Y-127677876D01*
X124429601Y-127689386D01*
X124429434Y-127689275D01*
X124420220Y-127703369D01*
X124409903Y-127716009D01*
X124409900Y-127716014D01*
X124407230Y-127727128D01*
X124404223Y-127735250D01*
X124398067Y-127759470D01*
X124397454Y-127759314D01*
X124395724Y-127769389D01*
X124388844Y-127790475D01*
X124388081Y-127798846D01*
X124387986Y-127807224D01*
X124395132Y-127840267D01*
X124396831Y-127849972D01*
X124401326Y-127883450D01*
X124401327Y-127883451D01*
X124409287Y-127895543D01*
X124418582Y-127912370D01*
X124420643Y-127916900D01*
X124420646Y-127916908D01*
X124423921Y-127922382D01*
X124429835Y-127933515D01*
X124432533Y-127939286D01*
X124434341Y-127941607D01*
X124442915Y-127954127D01*
X124445830Y-127958998D01*
X124450820Y-127968195D01*
X124451456Y-127969495D01*
X124461431Y-127985164D01*
X124463233Y-127988081D01*
X124472787Y-128004047D01*
X124473644Y-128005170D01*
X124479644Y-128013770D01*
X124491714Y-128032728D01*
X124495284Y-128038988D01*
X124496447Y-128040757D01*
X124496448Y-128040758D01*
X124507846Y-128058091D01*
X124508797Y-128059561D01*
X124521094Y-128078876D01*
X124525339Y-128084692D01*
X124548837Y-128120425D01*
X124551563Y-128125067D01*
X124565333Y-128145524D01*
X124566071Y-128146633D01*
X124579588Y-128167187D01*
X124582805Y-128171480D01*
X124614921Y-128219190D01*
X124616838Y-128222388D01*
X124619293Y-128225979D01*
X124619294Y-128225980D01*
X124626520Y-128236547D01*
X124631777Y-128244235D01*
X124632285Y-128244985D01*
X124646846Y-128266617D01*
X124649114Y-128269587D01*
X124669814Y-128299856D01*
X124669848Y-128299960D01*
X124669874Y-128299943D01*
X124707238Y-128354680D01*
X124738269Y-128400138D01*
X124738766Y-128400872D01*
X124798489Y-128489721D01*
X124799037Y-128490543D01*
X124804944Y-128499500D01*
X124816557Y-128517110D01*
X124837030Y-128583913D01*
X124827466Y-128633151D01*
X124803089Y-128691535D01*
X124765892Y-128779581D01*
X124765803Y-128779792D01*
X124727810Y-128868812D01*
X124727613Y-128869271D01*
X124697371Y-128939347D01*
X124652735Y-128993100D01*
X124606873Y-129011995D01*
X124534096Y-129025950D01*
X124533713Y-129026023D01*
X124421516Y-129047172D01*
X124407039Y-129049868D01*
X124385239Y-129053930D01*
X124383217Y-129054196D01*
X124377869Y-129055214D01*
X124355957Y-129059385D01*
X124355534Y-129059465D01*
X124327767Y-129064638D01*
X124325756Y-129065135D01*
X124263670Y-129076955D01*
X124258786Y-129077629D01*
X124234302Y-129082540D01*
X124233118Y-129082772D01*
X124208398Y-129087479D01*
X124203616Y-129088695D01*
X124152705Y-129098906D01*
X124146883Y-129099774D01*
X124123383Y-129104779D01*
X124121952Y-129105075D01*
X124098234Y-129109833D01*
X124092533Y-129111349D01*
X124058405Y-129118618D01*
X124049754Y-129120041D01*
X124048591Y-129120310D01*
X124048590Y-129120311D01*
X124028917Y-129124879D01*
X124026767Y-129125357D01*
X124005906Y-129129801D01*
X123997459Y-129132184D01*
X123986302Y-129134776D01*
X123977669Y-129135987D01*
X123977742Y-129136442D01*
X123970865Y-129137541D01*
X123955305Y-129141860D01*
X123950206Y-129143159D01*
X123934474Y-129146813D01*
X123928413Y-129148960D01*
X123910265Y-129153873D01*
X123894624Y-129156857D01*
X123894564Y-129156542D01*
X123886490Y-129158305D01*
X123881385Y-129158971D01*
X123865015Y-129169663D01*
X123856775Y-129174119D01*
X123856847Y-129174243D01*
X123850828Y-129177730D01*
X123846883Y-129180650D01*
X123832042Y-129190082D01*
X123823779Y-129194544D01*
X123821157Y-129196842D01*
X123807267Y-129207379D01*
X123802844Y-129210267D01*
X123799879Y-129213339D01*
X123798782Y-129214301D01*
X123798154Y-129214991D01*
X123797295Y-129216179D01*
X123794519Y-129219415D01*
X123777169Y-129252356D01*
X123773598Y-129258679D01*
X123766623Y-129270225D01*
X123763713Y-129276553D01*
X123763582Y-129276493D01*
X123759915Y-129285120D01*
X123750808Y-129302414D01*
X123749740Y-129306420D01*
X123745815Y-129326971D01*
X123746662Y-129327170D01*
X123745118Y-129333767D01*
X123744883Y-129334601D01*
X123744832Y-129334848D01*
X123744221Y-129337603D01*
X123744167Y-129337831D01*
X123744069Y-129338430D01*
X123742225Y-129357858D01*
X123741925Y-129360676D01*
X123739156Y-129384133D01*
X123737305Y-129393170D01*
X123737514Y-129393207D01*
X123736306Y-129400058D01*
X123735431Y-129414087D01*
X123734818Y-129420893D01*
X123733168Y-129434874D01*
X123733132Y-129441831D01*
X123732919Y-129441829D01*
X123733125Y-129451067D01*
X123731753Y-129473046D01*
X123730657Y-129483480D01*
X123730466Y-129484766D01*
X123729812Y-129503426D01*
X123729648Y-129506793D01*
X123728486Y-129525427D01*
X123728551Y-129526722D01*
X123728628Y-129537226D01*
X123727288Y-129575504D01*
X123726586Y-129584042D01*
X123726215Y-129605600D01*
X123726157Y-129607798D01*
X123725406Y-129629272D01*
X123725663Y-129637845D01*
X123724815Y-129687333D01*
X123724353Y-129694327D01*
X123724288Y-129717356D01*
X123724271Y-129719120D01*
X123723877Y-129742175D01*
X123724198Y-129749138D01*
X123724044Y-129803445D01*
X123723696Y-129810134D01*
X118099622Y-129810134D01*
X118040477Y-129680627D01*
X117946228Y-129571857D01*
X117825153Y-129494047D01*
X117825151Y-129494046D01*
X117825149Y-129494045D01*
X117825150Y-129494045D01*
X117687063Y-129453500D01*
X117687061Y-129453500D01*
X117590933Y-129453500D01*
X117523894Y-129433815D01*
X117503252Y-129417181D01*
X116921062Y-128834991D01*
X116909787Y-128822035D01*
X116905055Y-128815768D01*
X116870783Y-128784525D01*
X116866660Y-128780589D01*
X116853897Y-128767826D01*
X116853896Y-128767825D01*
X116853894Y-128767823D01*
X116850177Y-128764737D01*
X116841779Y-128758084D01*
X116822033Y-128740084D01*
X116815570Y-128737580D01*
X116790292Y-128724256D01*
X116784581Y-128720344D01*
X116784578Y-128720343D01*
X116784579Y-128720343D01*
X116758583Y-128714228D01*
X116742189Y-128709151D01*
X116717274Y-128699500D01*
X116717273Y-128699500D01*
X116710349Y-128699500D01*
X116681958Y-128696206D01*
X116675219Y-128694621D01*
X116648766Y-128698311D01*
X116631636Y-128699500D01*
X109505538Y-128699500D01*
X109438499Y-128679815D01*
X109392744Y-128627011D01*
X109382800Y-128557853D01*
X109411825Y-128494297D01*
X109454023Y-128462707D01*
X109460047Y-128459954D01*
X109460053Y-128459953D01*
X109581128Y-128382143D01*
X109614788Y-128343296D01*
X109673567Y-128305523D01*
X109708501Y-128300500D01*
X110932862Y-128300500D01*
X110949990Y-128301689D01*
X110957761Y-128302772D01*
X110957761Y-128302771D01*
X110957765Y-128302773D01*
X111004080Y-128300632D01*
X111009805Y-128300500D01*
X111027843Y-128300500D01*
X111027844Y-128300500D01*
X111027844Y-128300499D01*
X111032731Y-128300046D01*
X111043318Y-128298817D01*
X111069992Y-128297585D01*
X111076322Y-128294789D01*
X111103629Y-128286332D01*
X111110433Y-128285061D01*
X111110435Y-128285059D01*
X111110437Y-128285059D01*
X111133138Y-128271003D01*
X111148325Y-128262996D01*
X111172765Y-128252206D01*
X111177661Y-128247309D01*
X111200069Y-128229561D01*
X111205952Y-128225919D01*
X111222053Y-128204595D01*
X111233314Y-128191655D01*
X111915011Y-127509958D01*
X111927963Y-127498688D01*
X111934223Y-127493960D01*
X111934228Y-127493958D01*
X111965488Y-127459666D01*
X111969402Y-127455567D01*
X111982174Y-127442797D01*
X111982175Y-127442796D01*
X111985282Y-127439054D01*
X111991916Y-127430676D01*
X112009916Y-127410933D01*
X112012416Y-127404478D01*
X112025749Y-127379182D01*
X112029656Y-127373481D01*
X112035770Y-127347481D01*
X112040846Y-127331089D01*
X112050500Y-127306173D01*
X112050500Y-127299248D01*
X112053795Y-127270855D01*
X112055378Y-127264123D01*
X112055379Y-127264119D01*
X112051689Y-127237665D01*
X112050500Y-127220535D01*
X112050500Y-124067137D01*
X112051689Y-124050006D01*
X112052771Y-124042240D01*
X112052773Y-124042236D01*
X112050632Y-123995921D01*
X112050500Y-123990196D01*
X112050500Y-123972159D01*
X112050046Y-123967266D01*
X112048817Y-123956680D01*
X112047585Y-123930009D01*
X112044788Y-123923676D01*
X112036332Y-123896370D01*
X112035061Y-123889567D01*
X112021003Y-123866862D01*
X112012995Y-123851670D01*
X112002207Y-123827237D01*
X112002206Y-123827236D01*
X112002206Y-123827235D01*
X111997309Y-123822338D01*
X111979563Y-123799934D01*
X111975918Y-123794047D01*
X111975917Y-123794046D01*
X111954602Y-123777950D01*
X111941648Y-123766677D01*
X111924971Y-123750000D01*
X124744353Y-123750000D01*
X124764834Y-123892456D01*
X124801234Y-123972159D01*
X124824623Y-124023373D01*
X124918872Y-124132143D01*
X125039947Y-124209953D01*
X125039950Y-124209954D01*
X125039949Y-124209954D01*
X125178036Y-124250499D01*
X125178038Y-124250500D01*
X125291581Y-124250500D01*
X125336369Y-124258871D01*
X125339067Y-124259916D01*
X125345522Y-124262416D01*
X125370811Y-124275746D01*
X125376519Y-124279656D01*
X125402514Y-124285769D01*
X125418910Y-124290846D01*
X125443827Y-124300500D01*
X125450751Y-124300500D01*
X125479141Y-124303793D01*
X125485881Y-124305379D01*
X125508655Y-124302201D01*
X125512334Y-124301689D01*
X125529464Y-124300500D01*
X131182862Y-124300500D01*
X131199990Y-124301689D01*
X131207761Y-124302772D01*
X131207761Y-124302771D01*
X131207765Y-124302773D01*
X131254080Y-124300632D01*
X131259805Y-124300500D01*
X131277843Y-124300500D01*
X131277844Y-124300500D01*
X131277844Y-124300499D01*
X131282731Y-124300046D01*
X131293318Y-124298817D01*
X131319992Y-124297585D01*
X131326322Y-124294789D01*
X131353629Y-124286332D01*
X131360433Y-124285061D01*
X131360435Y-124285059D01*
X131360437Y-124285059D01*
X131383138Y-124271003D01*
X131398325Y-124262996D01*
X131422765Y-124252206D01*
X131427661Y-124247309D01*
X131450069Y-124229561D01*
X131455952Y-124225919D01*
X131472053Y-124204595D01*
X131483314Y-124191655D01*
X131934711Y-123740258D01*
X131947663Y-123728988D01*
X131953923Y-123724260D01*
X131953928Y-123724258D01*
X131985188Y-123689966D01*
X131989102Y-123685867D01*
X132001874Y-123673097D01*
X132001875Y-123673096D01*
X132004982Y-123669354D01*
X132011616Y-123660976D01*
X132029616Y-123641233D01*
X132032116Y-123634778D01*
X132045450Y-123609483D01*
X132046780Y-123607542D01*
X132049357Y-123603780D01*
X132055475Y-123577767D01*
X132060548Y-123561386D01*
X132070200Y-123536473D01*
X132070200Y-123529548D01*
X132073495Y-123501155D01*
X132075078Y-123494423D01*
X132075079Y-123494419D01*
X132071389Y-123467965D01*
X132070200Y-123450835D01*
X132070200Y-122963738D01*
X132089885Y-122896699D01*
X132100487Y-122882535D01*
X132100824Y-122882144D01*
X132100828Y-122882143D01*
X132195077Y-122773373D01*
X132254865Y-122642457D01*
X132275347Y-122500000D01*
X132254865Y-122357543D01*
X132195077Y-122226627D01*
X132100828Y-122117857D01*
X131979753Y-122040047D01*
X131979751Y-122040046D01*
X131979749Y-122040045D01*
X131979750Y-122040045D01*
X131841663Y-121999500D01*
X131841661Y-121999500D01*
X131697739Y-121999500D01*
X131697736Y-121999500D01*
X131559649Y-122040045D01*
X131438573Y-122117856D01*
X131344323Y-122226626D01*
X131344322Y-122226628D01*
X131284534Y-122357543D01*
X131264053Y-122500000D01*
X131284534Y-122642456D01*
X131324918Y-122730883D01*
X131344323Y-122773373D01*
X131438572Y-122882143D01*
X131438575Y-122882144D01*
X131438913Y-122882535D01*
X131467938Y-122946091D01*
X131469200Y-122963738D01*
X131469200Y-123304467D01*
X131449515Y-123371506D01*
X131432881Y-123392148D01*
X131161848Y-123663181D01*
X131100525Y-123696666D01*
X131074167Y-123699500D01*
X125854991Y-123699500D01*
X125787952Y-123679815D01*
X125742197Y-123627011D01*
X125736015Y-123610438D01*
X125735165Y-123607547D01*
X125735165Y-123607543D01*
X125702708Y-123536472D01*
X125675379Y-123476630D01*
X125675376Y-123476626D01*
X125653028Y-123450835D01*
X125581128Y-123367857D01*
X125460053Y-123290047D01*
X125460051Y-123290046D01*
X125460049Y-123290045D01*
X125460050Y-123290045D01*
X125321963Y-123249500D01*
X125321961Y-123249500D01*
X125178039Y-123249500D01*
X125178036Y-123249500D01*
X125039949Y-123290045D01*
X124918873Y-123367856D01*
X124824623Y-123476626D01*
X124824622Y-123476628D01*
X124764834Y-123607543D01*
X124744353Y-123750000D01*
X111924971Y-123750000D01*
X111509962Y-123334991D01*
X111498687Y-123322035D01*
X111493955Y-123315768D01*
X111459683Y-123284525D01*
X111455560Y-123280589D01*
X111442797Y-123267826D01*
X111442796Y-123267825D01*
X111442794Y-123267823D01*
X111439077Y-123264737D01*
X111430679Y-123258084D01*
X111410933Y-123240084D01*
X111404470Y-123237580D01*
X111379192Y-123224256D01*
X111373481Y-123220344D01*
X111373478Y-123220343D01*
X111373479Y-123220343D01*
X111347483Y-123214228D01*
X111331089Y-123209151D01*
X111306174Y-123199500D01*
X111306173Y-123199500D01*
X111299249Y-123199500D01*
X111270858Y-123196206D01*
X111264119Y-123194621D01*
X111237666Y-123198311D01*
X111220536Y-123199500D01*
X111208501Y-123199500D01*
X111141462Y-123179815D01*
X111114788Y-123156703D01*
X111081128Y-123117857D01*
X110960053Y-123040047D01*
X110960051Y-123040046D01*
X110960049Y-123040045D01*
X110960050Y-123040045D01*
X110821963Y-122999500D01*
X110821961Y-122999500D01*
X110678039Y-122999500D01*
X110678036Y-122999500D01*
X110539949Y-123040045D01*
X110418873Y-123117856D01*
X110324623Y-123226626D01*
X110324622Y-123226628D01*
X110264834Y-123357543D01*
X110244353Y-123500000D01*
X110264834Y-123642456D01*
X110304353Y-123728988D01*
X110324623Y-123773373D01*
X110418872Y-123882143D01*
X110539947Y-123959953D01*
X110539950Y-123959954D01*
X110539949Y-123959954D01*
X110678036Y-124000499D01*
X110678038Y-124000500D01*
X110678039Y-124000500D01*
X110821962Y-124000500D01*
X110821962Y-124000499D01*
X110960050Y-123959954D01*
X110960051Y-123959954D01*
X110960053Y-123959953D01*
X111073798Y-123886853D01*
X111140835Y-123867169D01*
X111207875Y-123886853D01*
X111228517Y-123903488D01*
X111413181Y-124088152D01*
X111446666Y-124149475D01*
X111449500Y-124175833D01*
X111449500Y-127074167D01*
X111429815Y-127141206D01*
X111413181Y-127161848D01*
X110911848Y-127663181D01*
X110850525Y-127696666D01*
X110824167Y-127699500D01*
X109708501Y-127699500D01*
X109641462Y-127679815D01*
X109614788Y-127656703D01*
X109581128Y-127617857D01*
X109460053Y-127540047D01*
X109460051Y-127540046D01*
X109460049Y-127540045D01*
X109460050Y-127540045D01*
X109321963Y-127499500D01*
X109321961Y-127499500D01*
X109178039Y-127499500D01*
X109178036Y-127499500D01*
X109039949Y-127540045D01*
X108918873Y-127617856D01*
X108824623Y-127726626D01*
X108824622Y-127726628D01*
X108764834Y-127857543D01*
X108744353Y-128000000D01*
X108764834Y-128142456D01*
X108822901Y-128269603D01*
X108824623Y-128273373D01*
X108918872Y-128382143D01*
X109039947Y-128459953D01*
X109039949Y-128459953D01*
X109045977Y-128462707D01*
X109098779Y-128508464D01*
X109118462Y-128575504D01*
X109098776Y-128642542D01*
X109045970Y-128688296D01*
X108994462Y-128699500D01*
X107708501Y-128699500D01*
X107641462Y-128679815D01*
X107614788Y-128656703D01*
X107581128Y-128617857D01*
X107460053Y-128540047D01*
X107460051Y-128540046D01*
X107460049Y-128540045D01*
X107460050Y-128540045D01*
X107321963Y-128499500D01*
X107321961Y-128499500D01*
X107178039Y-128499500D01*
X107178036Y-128499500D01*
X107039949Y-128540045D01*
X106918873Y-128617856D01*
X106824623Y-128726626D01*
X106824622Y-128726628D01*
X106764834Y-128857543D01*
X106744353Y-129000000D01*
X100500500Y-129000000D01*
X100500500Y-125250000D01*
X106129453Y-125250000D01*
X106149934Y-125392456D01*
X106209722Y-125523371D01*
X106209723Y-125523373D01*
X106303972Y-125632143D01*
X106425047Y-125709953D01*
X106425050Y-125709954D01*
X106425049Y-125709954D01*
X106563136Y-125750499D01*
X106563138Y-125750500D01*
X106563139Y-125750500D01*
X106575500Y-125750500D01*
X106642539Y-125770185D01*
X106688294Y-125822989D01*
X106699500Y-125874500D01*
X106699500Y-127036260D01*
X106679815Y-127103299D01*
X106669213Y-127117462D01*
X106574625Y-127226622D01*
X106574622Y-127226628D01*
X106514834Y-127357543D01*
X106494353Y-127500000D01*
X106514834Y-127642456D01*
X106574622Y-127773371D01*
X106574623Y-127773373D01*
X106668872Y-127882143D01*
X106789947Y-127959953D01*
X106789950Y-127959954D01*
X106789949Y-127959954D01*
X106880798Y-127986629D01*
X106926336Y-128000000D01*
X106928036Y-128000499D01*
X106928038Y-128000500D01*
X106928039Y-128000500D01*
X107071962Y-128000500D01*
X107071962Y-128000499D01*
X107210053Y-127959953D01*
X107331128Y-127882143D01*
X107425377Y-127773373D01*
X107485165Y-127642457D01*
X107505647Y-127500000D01*
X107485165Y-127357543D01*
X107425377Y-127226627D01*
X107425375Y-127226625D01*
X107425374Y-127226622D01*
X107330787Y-127117462D01*
X107301762Y-127053906D01*
X107300500Y-127036260D01*
X107300500Y-125682044D01*
X107301689Y-125664913D01*
X107302772Y-125657140D01*
X107302774Y-125657136D01*
X107300632Y-125610799D01*
X107300500Y-125605074D01*
X107300500Y-125587055D01*
X107300049Y-125582198D01*
X107298819Y-125571602D01*
X107297586Y-125544909D01*
X107294787Y-125538572D01*
X107286331Y-125511267D01*
X107285061Y-125504467D01*
X107271003Y-125481762D01*
X107262996Y-125466573D01*
X107252206Y-125442135D01*
X107247309Y-125437238D01*
X107229563Y-125414834D01*
X107225918Y-125408947D01*
X107225917Y-125408946D01*
X107204602Y-125392850D01*
X107191648Y-125381577D01*
X107174495Y-125364424D01*
X107141010Y-125303101D01*
X107139439Y-125259094D01*
X107140747Y-125250000D01*
X107120265Y-125107543D01*
X107060477Y-124976627D01*
X106966228Y-124867857D01*
X106845153Y-124790047D01*
X106845151Y-124790046D01*
X106845149Y-124790045D01*
X106845150Y-124790045D01*
X106707063Y-124749500D01*
X106707061Y-124749500D01*
X106563139Y-124749500D01*
X106563136Y-124749500D01*
X106425049Y-124790045D01*
X106303973Y-124867856D01*
X106209723Y-124976626D01*
X106209722Y-124976628D01*
X106149934Y-125107543D01*
X106129453Y-125250000D01*
X100500500Y-125250000D01*
X100500500Y-122020000D01*
X112624659Y-122020000D01*
X112643975Y-122216129D01*
X112701188Y-122404733D01*
X112794086Y-122578532D01*
X112794090Y-122578539D01*
X112919116Y-122730883D01*
X113071460Y-122855909D01*
X113071467Y-122855913D01*
X113245266Y-122948811D01*
X113245269Y-122948811D01*
X113245273Y-122948814D01*
X113433868Y-123006024D01*
X113630000Y-123025341D01*
X113826132Y-123006024D01*
X114014727Y-122948814D01*
X114019822Y-122946091D01*
X114138726Y-122882535D01*
X114188538Y-122855910D01*
X114340883Y-122730883D01*
X114465910Y-122578538D01*
X114558814Y-122404727D01*
X114616024Y-122216132D01*
X114635341Y-122020000D01*
X127864659Y-122020000D01*
X127883975Y-122216129D01*
X127941188Y-122404733D01*
X128034086Y-122578532D01*
X128034090Y-122578539D01*
X128159116Y-122730883D01*
X128311460Y-122855909D01*
X128311467Y-122855913D01*
X128485266Y-122948811D01*
X128485269Y-122948811D01*
X128485273Y-122948814D01*
X128673868Y-123006024D01*
X128870000Y-123025341D01*
X129066132Y-123006024D01*
X129254727Y-122948814D01*
X129259822Y-122946091D01*
X129378726Y-122882535D01*
X129428538Y-122855910D01*
X129580883Y-122730883D01*
X129705910Y-122578538D01*
X129798814Y-122404727D01*
X129856024Y-122216132D01*
X129875341Y-122020000D01*
X129856024Y-121823868D01*
X129798814Y-121635273D01*
X129798811Y-121635269D01*
X129798811Y-121635266D01*
X129705913Y-121461467D01*
X129705909Y-121461460D01*
X129580883Y-121309116D01*
X129428539Y-121184090D01*
X129428532Y-121184086D01*
X129254733Y-121091188D01*
X129254727Y-121091186D01*
X129066132Y-121033976D01*
X129066129Y-121033975D01*
X128870000Y-121014659D01*
X128673870Y-121033975D01*
X128485266Y-121091188D01*
X128311467Y-121184086D01*
X128311460Y-121184090D01*
X128159116Y-121309116D01*
X128034090Y-121461460D01*
X128034086Y-121461467D01*
X127941188Y-121635266D01*
X127883975Y-121823870D01*
X127864659Y-122020000D01*
X114635341Y-122020000D01*
X114616024Y-121823868D01*
X114558814Y-121635273D01*
X114558811Y-121635269D01*
X114558811Y-121635266D01*
X114465913Y-121461467D01*
X114465909Y-121461460D01*
X114340883Y-121309116D01*
X114188539Y-121184090D01*
X114188532Y-121184086D01*
X114014733Y-121091188D01*
X114014727Y-121091186D01*
X113826132Y-121033976D01*
X113826129Y-121033975D01*
X113630000Y-121014659D01*
X113433870Y-121033975D01*
X113245266Y-121091188D01*
X113071467Y-121184086D01*
X113071460Y-121184090D01*
X112919116Y-121309116D01*
X112794090Y-121461460D01*
X112794086Y-121461467D01*
X112701188Y-121635266D01*
X112643975Y-121823870D01*
X112624659Y-122020000D01*
X100500500Y-122020000D01*
X100500500Y-119480000D01*
X112624659Y-119480000D01*
X112643975Y-119676129D01*
X112701188Y-119864733D01*
X112794086Y-120038532D01*
X112794090Y-120038539D01*
X112919116Y-120190883D01*
X113071460Y-120315909D01*
X113071467Y-120315913D01*
X113245266Y-120408811D01*
X113245269Y-120408811D01*
X113245273Y-120408814D01*
X113433868Y-120466024D01*
X113630000Y-120485341D01*
X113826132Y-120466024D01*
X114014727Y-120408814D01*
X114188538Y-120315910D01*
X114340883Y-120190883D01*
X114465910Y-120038538D01*
X114558814Y-119864727D01*
X114616024Y-119676132D01*
X114635341Y-119480000D01*
X127864659Y-119480000D01*
X127883975Y-119676129D01*
X127941188Y-119864733D01*
X128034086Y-120038532D01*
X128034090Y-120038539D01*
X128159116Y-120190883D01*
X128311460Y-120315909D01*
X128311467Y-120315913D01*
X128485266Y-120408811D01*
X128485269Y-120408811D01*
X128485273Y-120408814D01*
X128673868Y-120466024D01*
X128870000Y-120485341D01*
X129066132Y-120466024D01*
X129254727Y-120408814D01*
X129428538Y-120315910D01*
X129580883Y-120190883D01*
X129705910Y-120038538D01*
X129798814Y-119864727D01*
X129856024Y-119676132D01*
X129875341Y-119480000D01*
X129856024Y-119283868D01*
X129798814Y-119095273D01*
X129798811Y-119095269D01*
X129798811Y-119095266D01*
X129705913Y-118921467D01*
X129705909Y-118921460D01*
X129580883Y-118769116D01*
X129428539Y-118644090D01*
X129428532Y-118644086D01*
X129254733Y-118551188D01*
X129254727Y-118551186D01*
X129066132Y-118493976D01*
X129066129Y-118493975D01*
X128870000Y-118474659D01*
X128673870Y-118493975D01*
X128485266Y-118551188D01*
X128311467Y-118644086D01*
X128311460Y-118644090D01*
X128159116Y-118769116D01*
X128034090Y-118921460D01*
X128034086Y-118921467D01*
X127941188Y-119095266D01*
X127883975Y-119283870D01*
X127864659Y-119480000D01*
X114635341Y-119480000D01*
X114616024Y-119283868D01*
X114558814Y-119095273D01*
X114558811Y-119095269D01*
X114558811Y-119095266D01*
X114465913Y-118921467D01*
X114465909Y-118921460D01*
X114340883Y-118769116D01*
X114188539Y-118644090D01*
X114188532Y-118644086D01*
X114014733Y-118551188D01*
X114014727Y-118551186D01*
X113826132Y-118493976D01*
X113826129Y-118493975D01*
X113630000Y-118474659D01*
X113433870Y-118493975D01*
X113245266Y-118551188D01*
X113071467Y-118644086D01*
X113071460Y-118644090D01*
X112919116Y-118769116D01*
X112794090Y-118921460D01*
X112794086Y-118921467D01*
X112701188Y-119095266D01*
X112643975Y-119283870D01*
X112624659Y-119480000D01*
X100500500Y-119480000D01*
X100500500Y-116200005D01*
X102095202Y-116200005D01*
X102114361Y-116431218D01*
X102171317Y-116656135D01*
X102264515Y-116868606D01*
X102348812Y-116997633D01*
X103016922Y-116329523D01*
X103040507Y-116409844D01*
X103118239Y-116530798D01*
X103226900Y-116624952D01*
X103357685Y-116684680D01*
X103367466Y-116686086D01*
X102701201Y-117352351D01*
X102731649Y-117376050D01*
X102935697Y-117486476D01*
X102935706Y-117486479D01*
X103155139Y-117561811D01*
X103383993Y-117600000D01*
X103616007Y-117600000D01*
X103844860Y-117561811D01*
X104064293Y-117486479D01*
X104064301Y-117486476D01*
X104268355Y-117376047D01*
X104298797Y-117352351D01*
X104298798Y-117352350D01*
X103632534Y-116686086D01*
X103642315Y-116684680D01*
X103773100Y-116624952D01*
X103881761Y-116530798D01*
X103959493Y-116409844D01*
X103983076Y-116329523D01*
X104651186Y-116997633D01*
X104688840Y-116940000D01*
X112624659Y-116940000D01*
X112643975Y-117136129D01*
X112643976Y-117136132D01*
X112682468Y-117263024D01*
X112701188Y-117324733D01*
X112794086Y-117498532D01*
X112794090Y-117498539D01*
X112919116Y-117650883D01*
X113071460Y-117775909D01*
X113071467Y-117775913D01*
X113245266Y-117868811D01*
X113245269Y-117868811D01*
X113245273Y-117868814D01*
X113433868Y-117926024D01*
X113630000Y-117945341D01*
X113826132Y-117926024D01*
X114014727Y-117868814D01*
X114188538Y-117775910D01*
X114340883Y-117650883D01*
X114465910Y-117498538D01*
X114558814Y-117324727D01*
X114616024Y-117136132D01*
X114635341Y-116940000D01*
X127864659Y-116940000D01*
X127883975Y-117136129D01*
X127883976Y-117136132D01*
X127922468Y-117263024D01*
X127941188Y-117324733D01*
X128034086Y-117498532D01*
X128034090Y-117498539D01*
X128159116Y-117650883D01*
X128311460Y-117775909D01*
X128311467Y-117775913D01*
X128485266Y-117868811D01*
X128485269Y-117868811D01*
X128485273Y-117868814D01*
X128673868Y-117926024D01*
X128870000Y-117945341D01*
X129066132Y-117926024D01*
X129254727Y-117868814D01*
X129428538Y-117775910D01*
X129580883Y-117650883D01*
X129705910Y-117498538D01*
X129798814Y-117324727D01*
X129856024Y-117136132D01*
X129875341Y-116940000D01*
X129856024Y-116743868D01*
X129798814Y-116555273D01*
X129798811Y-116555269D01*
X129798811Y-116555266D01*
X129705913Y-116381467D01*
X129705909Y-116381460D01*
X129580883Y-116229116D01*
X129428539Y-116104090D01*
X129428532Y-116104086D01*
X129254733Y-116011188D01*
X129254727Y-116011186D01*
X129066132Y-115953976D01*
X129066129Y-115953975D01*
X128870000Y-115934659D01*
X128673870Y-115953975D01*
X128485266Y-116011188D01*
X128311467Y-116104086D01*
X128311460Y-116104090D01*
X128159116Y-116229116D01*
X128034090Y-116381460D01*
X128034086Y-116381467D01*
X127941188Y-116555266D01*
X127883975Y-116743870D01*
X127864659Y-116940000D01*
X114635341Y-116940000D01*
X114616024Y-116743868D01*
X114558814Y-116555273D01*
X114558811Y-116555269D01*
X114558811Y-116555266D01*
X114465913Y-116381467D01*
X114465909Y-116381460D01*
X114340883Y-116229116D01*
X114188539Y-116104090D01*
X114188532Y-116104086D01*
X114014733Y-116011188D01*
X114014727Y-116011186D01*
X113826132Y-115953976D01*
X113826129Y-115953975D01*
X113630000Y-115934659D01*
X113433870Y-115953975D01*
X113245266Y-116011188D01*
X113071467Y-116104086D01*
X113071460Y-116104090D01*
X112919116Y-116229116D01*
X112794090Y-116381460D01*
X112794086Y-116381467D01*
X112701188Y-116555266D01*
X112643975Y-116743870D01*
X112624659Y-116940000D01*
X104688840Y-116940000D01*
X104735482Y-116868611D01*
X104828682Y-116656135D01*
X104885638Y-116431218D01*
X104904798Y-116200005D01*
X104904798Y-116199994D01*
X104885638Y-115968781D01*
X104828682Y-115743864D01*
X104735482Y-115531388D01*
X104646499Y-115395190D01*
X104626311Y-115328300D01*
X104645490Y-115261115D01*
X104697949Y-115214964D01*
X104704453Y-115212510D01*
X104710047Y-115209954D01*
X104710053Y-115209953D01*
X104831128Y-115132143D01*
X104925377Y-115023373D01*
X104985165Y-114892457D01*
X105005647Y-114750000D01*
X104985165Y-114607543D01*
X104925377Y-114476627D01*
X104925375Y-114476625D01*
X104925374Y-114476622D01*
X104858981Y-114400000D01*
X112624659Y-114400000D01*
X112643975Y-114596129D01*
X112701188Y-114784733D01*
X112794086Y-114958532D01*
X112794090Y-114958539D01*
X112919116Y-115110883D01*
X113071460Y-115235909D01*
X113071467Y-115235913D01*
X113245266Y-115328811D01*
X113245269Y-115328811D01*
X113245273Y-115328814D01*
X113433868Y-115386024D01*
X113630000Y-115405341D01*
X113826132Y-115386024D01*
X114014727Y-115328814D01*
X114188538Y-115235910D01*
X114340883Y-115110883D01*
X114465910Y-114958538D01*
X114529787Y-114839032D01*
X114558811Y-114784733D01*
X114558811Y-114784732D01*
X114558814Y-114784727D01*
X114616024Y-114596132D01*
X114635341Y-114400000D01*
X127864659Y-114400000D01*
X127883975Y-114596129D01*
X127941188Y-114784733D01*
X128034086Y-114958532D01*
X128034090Y-114958539D01*
X128159116Y-115110883D01*
X128311460Y-115235909D01*
X128311467Y-115235913D01*
X128485266Y-115328811D01*
X128485269Y-115328811D01*
X128485273Y-115328814D01*
X128673868Y-115386024D01*
X128870000Y-115405341D01*
X129066132Y-115386024D01*
X129254727Y-115328814D01*
X129428538Y-115235910D01*
X129580883Y-115110883D01*
X129705910Y-114958538D01*
X129769787Y-114839032D01*
X129798811Y-114784733D01*
X129798811Y-114784732D01*
X129798814Y-114784727D01*
X129856024Y-114596132D01*
X129875341Y-114400000D01*
X129856024Y-114203868D01*
X129798814Y-114015273D01*
X129798811Y-114015269D01*
X129798811Y-114015266D01*
X129705913Y-113841467D01*
X129705909Y-113841460D01*
X129580883Y-113689116D01*
X129428539Y-113564090D01*
X129428532Y-113564086D01*
X129254733Y-113471188D01*
X129254727Y-113471186D01*
X129066132Y-113413976D01*
X129066129Y-113413975D01*
X128870000Y-113394659D01*
X128673870Y-113413975D01*
X128485266Y-113471188D01*
X128311467Y-113564086D01*
X128311460Y-113564090D01*
X128159116Y-113689116D01*
X128034090Y-113841460D01*
X128034086Y-113841467D01*
X127941188Y-114015266D01*
X127883975Y-114203870D01*
X127864659Y-114400000D01*
X114635341Y-114400000D01*
X114616024Y-114203868D01*
X114558814Y-114015273D01*
X114558811Y-114015269D01*
X114558811Y-114015266D01*
X114465913Y-113841467D01*
X114465909Y-113841460D01*
X114340883Y-113689116D01*
X114188539Y-113564090D01*
X114188532Y-113564086D01*
X114014733Y-113471188D01*
X114014727Y-113471186D01*
X113826132Y-113413976D01*
X113826129Y-113413975D01*
X113630000Y-113394659D01*
X113433870Y-113413975D01*
X113245266Y-113471188D01*
X113071467Y-113564086D01*
X113071460Y-113564090D01*
X112919116Y-113689116D01*
X112794090Y-113841460D01*
X112794086Y-113841467D01*
X112701188Y-114015266D01*
X112643975Y-114203870D01*
X112624659Y-114400000D01*
X104858981Y-114400000D01*
X104830787Y-114367462D01*
X104801762Y-114303906D01*
X104800500Y-114286260D01*
X104800500Y-113925833D01*
X104820185Y-113858794D01*
X104836819Y-113838152D01*
X106478153Y-112196819D01*
X106539476Y-112163334D01*
X106565834Y-112160500D01*
X112583672Y-112160500D01*
X112650711Y-112180185D01*
X112696466Y-112232989D01*
X112698787Y-112239131D01*
X112698856Y-112239103D01*
X112701185Y-112244726D01*
X112794086Y-112418532D01*
X112794090Y-112418539D01*
X112919116Y-112570883D01*
X113071460Y-112695909D01*
X113071467Y-112695913D01*
X113245266Y-112788811D01*
X113245269Y-112788811D01*
X113245273Y-112788814D01*
X113433868Y-112846024D01*
X113630000Y-112865341D01*
X113826132Y-112846024D01*
X114014727Y-112788814D01*
X114188538Y-112695910D01*
X114340883Y-112570883D01*
X114465910Y-112418538D01*
X114558814Y-112244727D01*
X114616024Y-112056132D01*
X114635341Y-111860000D01*
X127864659Y-111860000D01*
X127883975Y-112056129D01*
X127883976Y-112056132D01*
X127939488Y-112239131D01*
X127941188Y-112244733D01*
X128034086Y-112418532D01*
X128034090Y-112418539D01*
X128159116Y-112570883D01*
X128311460Y-112695909D01*
X128311467Y-112695913D01*
X128485266Y-112788811D01*
X128485269Y-112788811D01*
X128485273Y-112788814D01*
X128673868Y-112846024D01*
X128870000Y-112865341D01*
X129066132Y-112846024D01*
X129254727Y-112788814D01*
X129428538Y-112695910D01*
X129580883Y-112570883D01*
X129705910Y-112418538D01*
X129798814Y-112244727D01*
X129856024Y-112056132D01*
X129875341Y-111860000D01*
X129856024Y-111663868D01*
X129798814Y-111475273D01*
X129798811Y-111475269D01*
X129798811Y-111475266D01*
X129705913Y-111301467D01*
X129705909Y-111301460D01*
X129580883Y-111149116D01*
X129428539Y-111024090D01*
X129428532Y-111024086D01*
X129254733Y-110931188D01*
X129254727Y-110931186D01*
X129066132Y-110873976D01*
X129066129Y-110873975D01*
X128870000Y-110854659D01*
X128673870Y-110873975D01*
X128485266Y-110931188D01*
X128311467Y-111024086D01*
X128311460Y-111024090D01*
X128159116Y-111149116D01*
X128034090Y-111301460D01*
X128034086Y-111301467D01*
X127941188Y-111475266D01*
X127883975Y-111663870D01*
X127864659Y-111860000D01*
X114635341Y-111860000D01*
X114616024Y-111663868D01*
X114558814Y-111475273D01*
X114558811Y-111475269D01*
X114558811Y-111475266D01*
X114465913Y-111301467D01*
X114465909Y-111301460D01*
X114340883Y-111149116D01*
X114188539Y-111024090D01*
X114188532Y-111024086D01*
X114014733Y-110931188D01*
X114014727Y-110931186D01*
X113826132Y-110873976D01*
X113826129Y-110873975D01*
X113630000Y-110854659D01*
X113433870Y-110873975D01*
X113245266Y-110931188D01*
X113071467Y-111024086D01*
X113071460Y-111024090D01*
X112919116Y-111149116D01*
X112794090Y-111301460D01*
X112794086Y-111301467D01*
X112701185Y-111475273D01*
X112698856Y-111480897D01*
X112696739Y-111480020D01*
X112664055Y-111529917D01*
X112600249Y-111558387D01*
X112583672Y-111559500D01*
X106457139Y-111559500D01*
X106440011Y-111558311D01*
X106432239Y-111557227D01*
X106432236Y-111557227D01*
X106391973Y-111559088D01*
X106385921Y-111559368D01*
X106380196Y-111559500D01*
X106362156Y-111559500D01*
X106362151Y-111559500D01*
X106357332Y-111559947D01*
X106346696Y-111561181D01*
X106320007Y-111562415D01*
X106320006Y-111562415D01*
X106313665Y-111565215D01*
X106286379Y-111573664D01*
X106279572Y-111574936D01*
X106279566Y-111574939D01*
X106256854Y-111589000D01*
X106241674Y-111597001D01*
X106217237Y-111607792D01*
X106212336Y-111612693D01*
X106189942Y-111630431D01*
X106184048Y-111634080D01*
X106167949Y-111655398D01*
X106156679Y-111668348D01*
X104334986Y-113490041D01*
X104322035Y-113501312D01*
X104315767Y-113506044D01*
X104284522Y-113540318D01*
X104280574Y-113544453D01*
X104267827Y-113557200D01*
X104264746Y-113560911D01*
X104258085Y-113569319D01*
X104240083Y-113589066D01*
X104240083Y-113589067D01*
X104237578Y-113595533D01*
X104224259Y-113620802D01*
X104220345Y-113626515D01*
X104220343Y-113626520D01*
X104214228Y-113652517D01*
X104209151Y-113668913D01*
X104199500Y-113693826D01*
X104199500Y-113700751D01*
X104196206Y-113729141D01*
X104194621Y-113735877D01*
X104194621Y-113735882D01*
X104198311Y-113762333D01*
X104199500Y-113779464D01*
X104199500Y-114286260D01*
X104179815Y-114353299D01*
X104169213Y-114367462D01*
X104074625Y-114476622D01*
X104074622Y-114476628D01*
X104014834Y-114607543D01*
X103996476Y-114735233D01*
X103967451Y-114798789D01*
X103908673Y-114836563D01*
X103850144Y-114837671D01*
X103849917Y-114839032D01*
X103616007Y-114800000D01*
X103383993Y-114800000D01*
X103155139Y-114838188D01*
X102935706Y-114913520D01*
X102935697Y-114913523D01*
X102731650Y-115023949D01*
X102701200Y-115047647D01*
X103367466Y-115713913D01*
X103357685Y-115715320D01*
X103226900Y-115775048D01*
X103118239Y-115869202D01*
X103040507Y-115990156D01*
X103016922Y-116070476D01*
X102348811Y-115402365D01*
X102264516Y-115531390D01*
X102171317Y-115743864D01*
X102114361Y-115968781D01*
X102095202Y-116199994D01*
X102095202Y-116200005D01*
X100500500Y-116200005D01*
X100500500Y-108580000D01*
X104934785Y-108580000D01*
X104953602Y-108783082D01*
X105009417Y-108979247D01*
X105009422Y-108979260D01*
X105100327Y-109161821D01*
X105223237Y-109324581D01*
X105373958Y-109461980D01*
X105373960Y-109461982D01*
X105461411Y-109516129D01*
X105547363Y-109569348D01*
X105737544Y-109643024D01*
X105938024Y-109680500D01*
X105938026Y-109680500D01*
X106141974Y-109680500D01*
X106141976Y-109680500D01*
X106342456Y-109643024D01*
X106532637Y-109569348D01*
X106706041Y-109461981D01*
X106856764Y-109324579D01*
X106860222Y-109320000D01*
X112624659Y-109320000D01*
X112643975Y-109516129D01*
X112643976Y-109516132D01*
X112682468Y-109643024D01*
X112701188Y-109704733D01*
X112794086Y-109878532D01*
X112794090Y-109878539D01*
X112919116Y-110030883D01*
X113071460Y-110155909D01*
X113071467Y-110155913D01*
X113245266Y-110248811D01*
X113245269Y-110248811D01*
X113245273Y-110248814D01*
X113433868Y-110306024D01*
X113630000Y-110325341D01*
X113826132Y-110306024D01*
X114014727Y-110248814D01*
X114188538Y-110155910D01*
X114340883Y-110030883D01*
X114465910Y-109878538D01*
X114558814Y-109704727D01*
X114616024Y-109516132D01*
X114635341Y-109320000D01*
X127864659Y-109320000D01*
X127883975Y-109516129D01*
X127883976Y-109516132D01*
X127922468Y-109643024D01*
X127941188Y-109704733D01*
X128034086Y-109878532D01*
X128034090Y-109878539D01*
X128159116Y-110030883D01*
X128311460Y-110155909D01*
X128311467Y-110155913D01*
X128485266Y-110248811D01*
X128485269Y-110248811D01*
X128485273Y-110248814D01*
X128673868Y-110306024D01*
X128870000Y-110325341D01*
X129066132Y-110306024D01*
X129254727Y-110248814D01*
X129428538Y-110155910D01*
X129580883Y-110030883D01*
X129705910Y-109878538D01*
X129798814Y-109704727D01*
X129856024Y-109516132D01*
X129875341Y-109320000D01*
X129856024Y-109123868D01*
X129798814Y-108935273D01*
X129798811Y-108935269D01*
X129798811Y-108935266D01*
X129705913Y-108761467D01*
X129705909Y-108761460D01*
X129580883Y-108609116D01*
X129428539Y-108484090D01*
X129428532Y-108484086D01*
X129254733Y-108391188D01*
X129254727Y-108391186D01*
X129066132Y-108333976D01*
X129066129Y-108333975D01*
X128870000Y-108314659D01*
X128673870Y-108333975D01*
X128485266Y-108391188D01*
X128311467Y-108484086D01*
X128311460Y-108484090D01*
X128159116Y-108609116D01*
X128034090Y-108761460D01*
X128034086Y-108761467D01*
X127941188Y-108935266D01*
X127883975Y-109123870D01*
X127864659Y-109320000D01*
X114635341Y-109320000D01*
X114616024Y-109123868D01*
X114558814Y-108935273D01*
X114558811Y-108935269D01*
X114558811Y-108935266D01*
X114465913Y-108761467D01*
X114465909Y-108761460D01*
X114340883Y-108609116D01*
X114188539Y-108484090D01*
X114188532Y-108484086D01*
X114014733Y-108391188D01*
X114014727Y-108391186D01*
X113826132Y-108333976D01*
X113826129Y-108333975D01*
X113630000Y-108314659D01*
X113433870Y-108333975D01*
X113245266Y-108391188D01*
X113071467Y-108484086D01*
X113071460Y-108484090D01*
X112919116Y-108609116D01*
X112794090Y-108761460D01*
X112794086Y-108761467D01*
X112701188Y-108935266D01*
X112643975Y-109123870D01*
X112624659Y-109320000D01*
X106860222Y-109320000D01*
X106979673Y-109161821D01*
X107070582Y-108979250D01*
X107126397Y-108783083D01*
X107145215Y-108580000D01*
X107136327Y-108484086D01*
X107126397Y-108376917D01*
X107108683Y-108314659D01*
X107070582Y-108180750D01*
X106979673Y-107998179D01*
X106856764Y-107835421D01*
X106856762Y-107835418D01*
X106706041Y-107698019D01*
X106706039Y-107698017D01*
X106532642Y-107590655D01*
X106532635Y-107590651D01*
X106437546Y-107553814D01*
X106342456Y-107516976D01*
X106141976Y-107479500D01*
X105938024Y-107479500D01*
X105737544Y-107516976D01*
X105737541Y-107516976D01*
X105737541Y-107516977D01*
X105547364Y-107590651D01*
X105547357Y-107590655D01*
X105373960Y-107698017D01*
X105373958Y-107698019D01*
X105223237Y-107835418D01*
X105100327Y-107998178D01*
X105009422Y-108180739D01*
X105009417Y-108180752D01*
X104953602Y-108376917D01*
X104934785Y-108579999D01*
X104934785Y-108580000D01*
X100500500Y-108580000D01*
X100500500Y-106354700D01*
X108939653Y-106354700D01*
X108960134Y-106497156D01*
X109016092Y-106619685D01*
X109019923Y-106628073D01*
X109114172Y-106736843D01*
X109235247Y-106814653D01*
X109235250Y-106814654D01*
X109235249Y-106814654D01*
X109373336Y-106855199D01*
X109373338Y-106855200D01*
X109373339Y-106855200D01*
X109517262Y-106855200D01*
X109517262Y-106855199D01*
X109655353Y-106814653D01*
X109776428Y-106736843D01*
X109810088Y-106697996D01*
X109868867Y-106660223D01*
X109903801Y-106655200D01*
X111926967Y-106655200D01*
X111994006Y-106674885D01*
X112014648Y-106691519D01*
X112268139Y-106945010D01*
X112279410Y-106957962D01*
X112284139Y-106964225D01*
X112284141Y-106964227D01*
X112284142Y-106964228D01*
X112297197Y-106976129D01*
X112318417Y-106995474D01*
X112322558Y-106999429D01*
X112335303Y-107012174D01*
X112339031Y-107015270D01*
X112347424Y-107021918D01*
X112353450Y-107027411D01*
X112367164Y-107039914D01*
X112367165Y-107039914D01*
X112367167Y-107039916D01*
X112373630Y-107042419D01*
X112398907Y-107055743D01*
X112404619Y-107059656D01*
X112430614Y-107065769D01*
X112447010Y-107070846D01*
X112471927Y-107080500D01*
X112478851Y-107080500D01*
X112507241Y-107083793D01*
X112513981Y-107085379D01*
X112536755Y-107082201D01*
X112540434Y-107081689D01*
X112557564Y-107080500D01*
X112583672Y-107080500D01*
X112650711Y-107100185D01*
X112696466Y-107152989D01*
X112698787Y-107159131D01*
X112698856Y-107159103D01*
X112701185Y-107164726D01*
X112794086Y-107338532D01*
X112794090Y-107338539D01*
X112919116Y-107490883D01*
X113071460Y-107615909D01*
X113071467Y-107615913D01*
X113245266Y-107708811D01*
X113245269Y-107708811D01*
X113245273Y-107708814D01*
X113433868Y-107766024D01*
X113630000Y-107785341D01*
X113826132Y-107766024D01*
X114014727Y-107708814D01*
X114188538Y-107615910D01*
X114340883Y-107490883D01*
X114465910Y-107338538D01*
X114558814Y-107164727D01*
X114558815Y-107164723D01*
X114561144Y-107159103D01*
X114563729Y-107160174D01*
X114595291Y-107111787D01*
X114659042Y-107083193D01*
X114679981Y-107083220D01*
X114689663Y-107082772D01*
X114689665Y-107082773D01*
X114735980Y-107080632D01*
X114741705Y-107080500D01*
X114759743Y-107080500D01*
X114759744Y-107080500D01*
X114759744Y-107080499D01*
X114764631Y-107080046D01*
X114775218Y-107078817D01*
X114801892Y-107077585D01*
X114808222Y-107074789D01*
X114835529Y-107066332D01*
X114842333Y-107065061D01*
X114842335Y-107065059D01*
X114842337Y-107065059D01*
X114865038Y-107051003D01*
X114880225Y-107042996D01*
X114904665Y-107032206D01*
X114909561Y-107027309D01*
X114931969Y-107009561D01*
X114937852Y-107005919D01*
X114953953Y-106984595D01*
X114965214Y-106971655D01*
X116090052Y-105846819D01*
X116151375Y-105813334D01*
X116177733Y-105810500D01*
X128127685Y-105810500D01*
X128194724Y-105830185D01*
X128240479Y-105882989D01*
X128250423Y-105952147D01*
X128221398Y-106015703D01*
X128206350Y-106030353D01*
X128159116Y-106069116D01*
X128034090Y-106221460D01*
X128034086Y-106221467D01*
X127941188Y-106395266D01*
X127883975Y-106583870D01*
X127864659Y-106780000D01*
X127883975Y-106976129D01*
X127893012Y-107005919D01*
X127939488Y-107159131D01*
X127941188Y-107164733D01*
X128034086Y-107338532D01*
X128034090Y-107338539D01*
X128159116Y-107490883D01*
X128311460Y-107615909D01*
X128311467Y-107615913D01*
X128485266Y-107708811D01*
X128485269Y-107708811D01*
X128485273Y-107708814D01*
X128673868Y-107766024D01*
X128870000Y-107785341D01*
X129066132Y-107766024D01*
X129254727Y-107708814D01*
X129428538Y-107615910D01*
X129580883Y-107490883D01*
X129705910Y-107338538D01*
X129798814Y-107164727D01*
X129819407Y-107096840D01*
X129857704Y-107038403D01*
X129872788Y-107027411D01*
X129883137Y-107021003D01*
X129898325Y-107012996D01*
X129922765Y-107002206D01*
X129927661Y-106997309D01*
X129950069Y-106979561D01*
X129955952Y-106975919D01*
X129972053Y-106954595D01*
X129983307Y-106941662D01*
X130288653Y-106636316D01*
X130349975Y-106602834D01*
X130376333Y-106600000D01*
X132941499Y-106600000D01*
X133008538Y-106619685D01*
X133035211Y-106642796D01*
X133068872Y-106681643D01*
X133189947Y-106759453D01*
X133189950Y-106759454D01*
X133189949Y-106759454D01*
X133328036Y-106799999D01*
X133328038Y-106800000D01*
X133328039Y-106800000D01*
X133471962Y-106800000D01*
X133471962Y-106799999D01*
X133610053Y-106759453D01*
X133731128Y-106681643D01*
X133825377Y-106572873D01*
X133885165Y-106441957D01*
X133905647Y-106299500D01*
X133885165Y-106157043D01*
X133825377Y-106026127D01*
X133786232Y-105980951D01*
X133757208Y-105917397D01*
X133767151Y-105848239D01*
X133786230Y-105818550D01*
X133825377Y-105773373D01*
X133885165Y-105642457D01*
X133905647Y-105500000D01*
X133885165Y-105357543D01*
X133825377Y-105226627D01*
X133731128Y-105117857D01*
X133610053Y-105040047D01*
X133610051Y-105040046D01*
X133610049Y-105040045D01*
X133610050Y-105040045D01*
X133471963Y-104999500D01*
X133471961Y-104999500D01*
X133328039Y-104999500D01*
X133328036Y-104999500D01*
X133189949Y-105040045D01*
X133068869Y-105117858D01*
X133026547Y-105166702D01*
X132967770Y-105204477D01*
X132932834Y-105209500D01*
X129612315Y-105209500D01*
X129545276Y-105189815D01*
X129499521Y-105137011D01*
X129489577Y-105067853D01*
X129518602Y-105004297D01*
X129533650Y-104989647D01*
X129580883Y-104950883D01*
X129705909Y-104798539D01*
X129705913Y-104798532D01*
X129798811Y-104624733D01*
X129798811Y-104624732D01*
X129798814Y-104624727D01*
X129856024Y-104436132D01*
X129875341Y-104240000D01*
X129856024Y-104043868D01*
X129798814Y-103855273D01*
X129798811Y-103855269D01*
X129798811Y-103855266D01*
X129705913Y-103681467D01*
X129705909Y-103681460D01*
X129580883Y-103529116D01*
X129428539Y-103404090D01*
X129428532Y-103404086D01*
X129254733Y-103311188D01*
X129254727Y-103311186D01*
X129066132Y-103253976D01*
X129066129Y-103253975D01*
X128870000Y-103234659D01*
X128673870Y-103253975D01*
X128485266Y-103311188D01*
X128311467Y-103404086D01*
X128311460Y-103404090D01*
X128159116Y-103529116D01*
X128034090Y-103681460D01*
X128034086Y-103681467D01*
X127941188Y-103855266D01*
X127883975Y-104043870D01*
X127864659Y-104240000D01*
X127883975Y-104436129D01*
X127900118Y-104489344D01*
X127922468Y-104563024D01*
X127941188Y-104624733D01*
X128034086Y-104798532D01*
X128034090Y-104798539D01*
X128159116Y-104950883D01*
X128206350Y-104989647D01*
X128245684Y-105047393D01*
X128247555Y-105117238D01*
X128211367Y-105177006D01*
X128148611Y-105207721D01*
X128127685Y-105209500D01*
X116069038Y-105209500D01*
X116051910Y-105208311D01*
X116044138Y-105207227D01*
X116044135Y-105207227D01*
X116003872Y-105209088D01*
X115997820Y-105209368D01*
X115992095Y-105209500D01*
X115974056Y-105209500D01*
X115974051Y-105209500D01*
X115969226Y-105209948D01*
X115958597Y-105211181D01*
X115931908Y-105212415D01*
X115925563Y-105215215D01*
X115898280Y-105223665D01*
X115891468Y-105224938D01*
X115891467Y-105224939D01*
X115868757Y-105238999D01*
X115853578Y-105247000D01*
X115829135Y-105257793D01*
X115824236Y-105262693D01*
X115801842Y-105280431D01*
X115795948Y-105284080D01*
X115779849Y-105305398D01*
X115768579Y-105318348D01*
X114723310Y-106363617D01*
X114661987Y-106397102D01*
X114592295Y-106392118D01*
X114536362Y-106350246D01*
X114526271Y-106334389D01*
X114465913Y-106221467D01*
X114465909Y-106221460D01*
X114340883Y-106069116D01*
X114188539Y-105944090D01*
X114188532Y-105944086D01*
X114014733Y-105851188D01*
X114014727Y-105851186D01*
X113826132Y-105793976D01*
X113826129Y-105793975D01*
X113630000Y-105774659D01*
X113433870Y-105793975D01*
X113245266Y-105851188D01*
X113071467Y-105944086D01*
X113071460Y-105944090D01*
X112919116Y-106069116D01*
X112794090Y-106221460D01*
X112794088Y-106221464D01*
X112733727Y-106334390D01*
X112684764Y-106384234D01*
X112616626Y-106399694D01*
X112550947Y-106375862D01*
X112536688Y-106363617D01*
X112362762Y-106189691D01*
X112351487Y-106176735D01*
X112346755Y-106170468D01*
X112312483Y-106139225D01*
X112308360Y-106135289D01*
X112295597Y-106122526D01*
X112295596Y-106122525D01*
X112295594Y-106122523D01*
X112291877Y-106119437D01*
X112283479Y-106112784D01*
X112263733Y-106094784D01*
X112257270Y-106092280D01*
X112231992Y-106078956D01*
X112226281Y-106075044D01*
X112226278Y-106075043D01*
X112226279Y-106075043D01*
X112200283Y-106068928D01*
X112183889Y-106063851D01*
X112158974Y-106054200D01*
X112158973Y-106054200D01*
X112152049Y-106054200D01*
X112123658Y-106050906D01*
X112116919Y-106049321D01*
X112090466Y-106053011D01*
X112073336Y-106054200D01*
X109903801Y-106054200D01*
X109836762Y-106034515D01*
X109810088Y-106011403D01*
X109776428Y-105972557D01*
X109655353Y-105894747D01*
X109655351Y-105894746D01*
X109655349Y-105894745D01*
X109655350Y-105894745D01*
X109517263Y-105854200D01*
X109517261Y-105854200D01*
X109373339Y-105854200D01*
X109373336Y-105854200D01*
X109235249Y-105894745D01*
X109114173Y-105972556D01*
X109019923Y-106081326D01*
X109019922Y-106081328D01*
X108960134Y-106212243D01*
X108939653Y-106354700D01*
X100500500Y-106354700D01*
X100500500Y-103500000D01*
X102394785Y-103500000D01*
X102413602Y-103703082D01*
X102469417Y-103899247D01*
X102469422Y-103899260D01*
X102560327Y-104081821D01*
X102683237Y-104244581D01*
X102833958Y-104381980D01*
X102833960Y-104381982D01*
X102921411Y-104436129D01*
X103007363Y-104489348D01*
X103197544Y-104563024D01*
X103398024Y-104600500D01*
X103398026Y-104600500D01*
X103601974Y-104600500D01*
X103601976Y-104600500D01*
X103802456Y-104563024D01*
X103992637Y-104489348D01*
X104166041Y-104381981D01*
X104316764Y-104244579D01*
X104439673Y-104081821D01*
X104530582Y-103899250D01*
X104586397Y-103703083D01*
X104605215Y-103500000D01*
X104596327Y-103404086D01*
X104586397Y-103296917D01*
X104533175Y-103109865D01*
X104530582Y-103100750D01*
X104439673Y-102918179D01*
X104316764Y-102755421D01*
X104316762Y-102755418D01*
X104166041Y-102618019D01*
X104166039Y-102618017D01*
X103992642Y-102510655D01*
X103992635Y-102510651D01*
X103897546Y-102473814D01*
X103802456Y-102436976D01*
X103601976Y-102399500D01*
X103398024Y-102399500D01*
X103197544Y-102436976D01*
X103197541Y-102436976D01*
X103197541Y-102436977D01*
X103007364Y-102510651D01*
X103007357Y-102510655D01*
X102833960Y-102618017D01*
X102833958Y-102618019D01*
X102683237Y-102755418D01*
X102560327Y-102918178D01*
X102469422Y-103100739D01*
X102469417Y-103100752D01*
X102413602Y-103296917D01*
X102394785Y-103499999D01*
X102394785Y-103500000D01*
X100500500Y-103500000D01*
X100500500Y-100624500D01*
X100520185Y-100557461D01*
X100572989Y-100511706D01*
X100624500Y-100500500D01*
X112658230Y-100500500D01*
X112725269Y-100520185D01*
G37*
%TD.AperFunction*%
%TD*%
D18*
X100000000Y-100000000D02*
X142500000Y-100000000D01*
X142500000Y-145000000D01*
X100000000Y-145000000D01*
X100000000Y-100000000D01*
M02*
