%TF.GenerationSoftware,KiCad,Pcbnew,7.0.11+dfsg-1build4*%
%TF.CreationDate,2026-09-02T21:55:24-05:00*%
%TF.ProjectId,rignexo-mainboard,7269676e-6578-46f2-9d6d-61696e626f61,rev?*%
%TF.SameCoordinates,Original*%
%TF.FileFunction,Copper,L1,Top*%
%TF.FilePolarity,Positive*%
%FSLAX46Y46*%
G04 Gerber Fmt 4.6, Leading zero omitted, Abs format (unit mm)*
G04 Created by KiCad (PCBNEW 7.0.11+dfsg-1build4) date 2026-09-02 21:55:24*
%MOMM*%
%LPD*%
G01*
G04 APERTURE LIST*
G04 Aperture macros list*
%AMRoundRect*
0 Rectangle with rounded corners*
0 $1 Rounding radius*
0 $2 $3 $4 $5 $6 $7 $8 $9 X,Y pos of 4 corners*
0 Add a 4 corners polygon primitive as box body*
4,1,4,$2,$3,$4,$5,$6,$7,$8,$9,$2,$3,0*
0 Add four circle primitives for the rounded corners*
1,1,$1+$1,$2,$3*
1,1,$1+$1,$4,$5*
1,1,$1+$1,$6,$7*
1,1,$1+$1,$8,$9*
0 Add four rect primitives between the rounded corners*
20,1,$1+$1,$2,$3,$4,$5,0*
20,1,$1+$1,$4,$5,$6,$7,0*
20,1,$1+$1,$6,$7,$8,$9,0*
20,1,$1+$1,$8,$9,$2,$3,0*%
G04 Aperture macros list end*
%TA.AperFunction,SMDPad,CuDef*%
%ADD10RoundRect,0.250000X0.337500X0.475000X-0.337500X0.475000X-0.337500X-0.475000X0.337500X-0.475000X0*%
%TD*%
%TA.AperFunction,SMDPad,CuDef*%
%ADD11RoundRect,0.250000X0.325000X0.450000X-0.325000X0.450000X-0.325000X-0.450000X0.325000X-0.450000X0*%
%TD*%
%TA.AperFunction,SMDPad,CuDef*%
%ADD12R,0.800000X1.800000*%
%TD*%
%TA.AperFunction,ComponentPad*%
%ADD13O,1.200000X2.200000*%
%TD*%
%TA.AperFunction,SMDPad,CuDef*%
%ADD14RoundRect,0.250000X0.350000X0.450000X-0.350000X0.450000X-0.350000X-0.450000X0.350000X-0.450000X0*%
%TD*%
%TA.AperFunction,SMDPad,CuDef*%
%ADD15RoundRect,0.250000X-0.350000X-0.450000X0.350000X-0.450000X0.350000X0.450000X-0.350000X0.450000X0*%
%TD*%
%TA.AperFunction,SMDPad,CuDef*%
%ADD16RoundRect,0.250000X-0.337500X-0.475000X0.337500X-0.475000X0.337500X0.475000X-0.337500X0.475000X0*%
%TD*%
%TA.AperFunction,SMDPad,CuDef*%
%ADD17R,1.500000X2.030000*%
%TD*%
%TA.AperFunction,ComponentPad*%
%ADD18C,1.800000*%
%TD*%
%TA.AperFunction,SMDPad,CuDef*%
%ADD19RoundRect,0.250000X0.450000X-0.350000X0.450000X0.350000X-0.450000X0.350000X-0.450000X-0.350000X0*%
%TD*%
%TA.AperFunction,ComponentPad*%
%ADD20R,1.600000X1.600000*%
%TD*%
%TA.AperFunction,ComponentPad*%
%ADD21O,1.600000X1.600000*%
%TD*%
%TA.AperFunction,SMDPad,CuDef*%
%ADD22RoundRect,0.150000X-0.587500X-0.150000X0.587500X-0.150000X0.587500X0.150000X-0.587500X0.150000X0*%
%TD*%
%TA.AperFunction,ComponentPad*%
%ADD23O,2.200000X1.200000*%
%TD*%
%TA.AperFunction,SMDPad,CuDef*%
%ADD24RoundRect,0.250000X-0.475000X0.337500X-0.475000X-0.337500X0.475000X-0.337500X0.475000X0.337500X0*%
%TD*%
%TA.AperFunction,SMDPad,CuDef*%
%ADD25RoundRect,0.250000X0.475000X-0.337500X0.475000X0.337500X-0.475000X0.337500X-0.475000X-0.337500X0*%
%TD*%
%TA.AperFunction,SMDPad,CuDef*%
%ADD26RoundRect,0.250000X-0.250000X-0.250000X0.250000X-0.250000X0.250000X0.250000X-0.250000X0.250000X0*%
%TD*%
%TA.AperFunction,ViaPad*%
%ADD27C,0.600000*%
%TD*%
%TA.AperFunction,Conductor*%
%ADD28C,0.200000*%
%TD*%
%TA.AperFunction,Profile*%
%ADD29C,0.050000*%
%TD*%
G04 APERTURE END LIST*
D10*
%TO.P,C4,1*%
%TO.N,Net-(C4-Pad1)*%
X133537500Y-115250000D03*
%TO.P,C4,2*%
%TO.N,GND*%
X131462500Y-115250000D03*
%TD*%
D11*
%TO.P,D1,1,K*%
%TO.N,GND*%
X133750000Y-101200000D03*
%TO.P,D1,2,A*%
%TO.N,Net-(D1-A)*%
X131700000Y-101200000D03*
%TD*%
D12*
%TO.P,K1,11*%
%TO.N,unconnected-(K1-Pad11)*%
X137350000Y-121000000D03*
%TO.P,K1,12*%
%TO.N,unconnected-(K1-Pad12)*%
X135150000Y-121000000D03*
%TO.P,K1,14*%
%TO.N,unconnected-(K1-Pad14)*%
X139550000Y-121000000D03*
%TO.P,K1,21*%
%TO.N,/PTT1*%
X137350000Y-128000000D03*
%TO.P,K1,22*%
%TO.N,unconnected-(K1-Pad22)*%
X135150000Y-128000000D03*
%TO.P,K1,24*%
%TO.N,/PTT2*%
X139550000Y-128000000D03*
%TO.P,K1,A1*%
%TO.N,+3.3V*%
X131950000Y-121000000D03*
%TO.P,K1,A2*%
%TO.N,Net-(D4-A)*%
X131950000Y-128000000D03*
%TD*%
D13*
%TO.P,J1,R*%
%TO.N,Net-(C1-Pad2)*%
X135200000Y-140500000D03*
%TO.P,J1,S*%
%TO.N,Net-(J1-PadS)*%
X139800000Y-142500000D03*
%TO.P,J1,T*%
%TO.N,/PTT2*%
X139800000Y-135550000D03*
%TD*%
D14*
%TO.P,R11,1*%
%TO.N,/PTT_LED*%
X110750000Y-104500000D03*
%TO.P,R11,2*%
%TO.N,Net-(D5-A)*%
X108750000Y-104500000D03*
%TD*%
D10*
%TO.P,C7,1*%
%TO.N,/ADC*%
X105500000Y-121250000D03*
%TO.P,C7,2*%
%TO.N,GND*%
X103425000Y-121250000D03*
%TD*%
%TO.P,C5,1*%
%TO.N,Net-(C4-Pad1)*%
X133500000Y-118000000D03*
%TO.P,C5,2*%
%TO.N,Net-(C5-Pad2)*%
X131425000Y-118000000D03*
%TD*%
D15*
%TO.P,R12,1*%
%TO.N,/PTT_RELAY*%
X108500000Y-125250000D03*
%TO.P,R12,2*%
%TO.N,GND*%
X110500000Y-125250000D03*
%TD*%
D10*
%TO.P,C3,1*%
%TO.N,GND*%
X133500000Y-110250000D03*
%TO.P,C3,2*%
%TO.N,Net-(C3-Pad2)*%
X131425000Y-110250000D03*
%TD*%
D14*
%TO.P,R2,1*%
%TO.N,/PWM*%
X133500000Y-107750000D03*
%TO.P,R2,2*%
%TO.N,Net-(C3-Pad2)*%
X131500000Y-107750000D03*
%TD*%
D16*
%TO.P,C6,1*%
%TO.N,Net-(C6-Pad1)*%
X103425000Y-126750000D03*
%TO.P,C6,2*%
%TO.N,Net-(C6-Pad2)*%
X105500000Y-126750000D03*
%TD*%
D17*
%TO.P,T1,1*%
%TO.N,Net-(C5-Pad2)*%
X128500000Y-130150000D03*
%TO.P,T1,3*%
%TO.N,GND*%
X123500000Y-130150000D03*
%TO.P,T1,4*%
%TO.N,Net-(J1-PadS)*%
X128500000Y-143450000D03*
%TO.P,T1,6*%
%TO.N,Net-(R1-Pad1)*%
X123500000Y-143450000D03*
%TD*%
%TO.P,T2,1*%
%TO.N,Net-(R5-Pad1)*%
X119000000Y-130150000D03*
%TO.P,T2,3*%
%TO.N,GND*%
X114000000Y-130150000D03*
%TO.P,T2,4*%
%TO.N,Net-(J2-PadS)*%
X119000000Y-143450000D03*
%TO.P,T2,6*%
%TO.N,Net-(C2-Pad1)*%
X114000000Y-143450000D03*
%TD*%
D15*
%TO.P,R9,1*%
%TO.N,+3.3V*%
X108750000Y-107750000D03*
%TO.P,R9,2*%
%TO.N,/ADC*%
X110750000Y-107750000D03*
%TD*%
D18*
%TO.P,RV1,1,1*%
%TO.N,Net-(J1-PadS)*%
X136500000Y-116200000D03*
%TO.P,RV1,2,2*%
%TO.N,Net-(C1-Pad1)*%
X139040000Y-108580000D03*
%TO.P,RV1,3,3*%
%TO.N,Net-(R1-Pad2)*%
X136500000Y-103500000D03*
%TD*%
%TO.P,RV2,1,1*%
%TO.N,GND*%
X103500000Y-116200000D03*
%TO.P,RV2,2,2*%
%TO.N,Net-(C6-Pad2)*%
X106040000Y-108580000D03*
%TO.P,RV2,3,3*%
%TO.N,Net-(R5-Pad2)*%
X103500000Y-103500000D03*
%TD*%
D15*
%TO.P,R10,1*%
%TO.N,/PTT_RELAY*%
X108500000Y-121750000D03*
%TO.P,R10,2*%
%TO.N,Net-(Q1-B)*%
X110500000Y-121750000D03*
%TD*%
%TO.P,R8,1*%
%TO.N,/ADC*%
X108750000Y-113750000D03*
%TO.P,R8,2*%
%TO.N,GND*%
X110750000Y-113750000D03*
%TD*%
D19*
%TO.P,R1,1*%
%TO.N,Net-(R1-Pad1)*%
X132000000Y-138000000D03*
%TO.P,R1,2*%
%TO.N,Net-(R1-Pad2)*%
X132000000Y-136000000D03*
%TD*%
D14*
%TO.P,R4,1*%
%TO.N,+3.3V*%
X133500000Y-104000000D03*
%TO.P,R4,2*%
%TO.N,Net-(D1-A)*%
X131500000Y-104000000D03*
%TD*%
D11*
%TO.P,D5,1,K*%
%TO.N,GND*%
X110750000Y-101200000D03*
%TO.P,D5,2,A*%
%TO.N,Net-(D5-A)*%
X108700000Y-101200000D03*
%TD*%
D20*
%TO.P,U2,1,5V*%
%TO.N,unconnected-(U2-5V-Pad1)*%
X113630000Y-101700000D03*
D21*
%TO.P,U2,2,GND*%
%TO.N,GND*%
X113630000Y-104240000D03*
%TO.P,U2,3,3V3*%
%TO.N,+3.3V*%
X113630000Y-106780000D03*
%TO.P,U2,4,GPIO29*%
%TO.N,unconnected-(U2-GPIO29-Pad4)*%
X113630000Y-109320000D03*
%TO.P,U2,5,GPIO28*%
%TO.N,/ADC*%
X113630000Y-111860000D03*
%TO.P,U2,6,GPIO27*%
%TO.N,/PTT_LED*%
X113630000Y-114400000D03*
%TO.P,U2,7,GPIO26*%
%TO.N,unconnected-(U2-GPIO26-Pad7)*%
X113630000Y-116940000D03*
%TO.P,U2,8,GPIO15*%
%TO.N,unconnected-(U2-GPIO15-Pad8)*%
X113630000Y-119480000D03*
%TO.P,U2,9,GPIO14*%
%TO.N,/PTT_RELAY*%
X113630000Y-122020000D03*
%TO.P,U2,10,GPIO8*%
%TO.N,unconnected-(U2-GPIO8-Pad10)*%
X128870000Y-122020000D03*
%TO.P,U2,11,GPIO7*%
%TO.N,unconnected-(U2-GPIO7-Pad11)*%
X128870000Y-119480000D03*
%TO.P,U2,12,GPIO6*%
%TO.N,unconnected-(U2-GPIO6-Pad12)*%
X128870000Y-116940000D03*
%TO.P,U2,13,GPIO5*%
%TO.N,unconnected-(U2-GPIO5-Pad13)*%
X128870000Y-114400000D03*
%TO.P,U2,14,GPIO4*%
%TO.N,unconnected-(U2-GPIO4-Pad14)*%
X128870000Y-111860000D03*
%TO.P,U2,15,GPIO3*%
%TO.N,unconnected-(U2-GPIO3-Pad15)*%
X128870000Y-109320000D03*
%TO.P,U2,16,GPIO2*%
%TO.N,/PWM*%
X128870000Y-106780000D03*
%TO.P,U2,17,GPIO1*%
%TO.N,unconnected-(U2-GPIO1-Pad17)*%
X128870000Y-104240000D03*
%TO.P,U2,18,GPIO0*%
%TO.N,unconnected-(U2-GPIO0-Pad18)*%
X128870000Y-101700000D03*
%TD*%
D22*
%TO.P,Q1,1,B*%
%TO.N,Net-(Q1-B)*%
X108625000Y-130300000D03*
%TO.P,Q1,2,E*%
%TO.N,GND*%
X108625000Y-132200000D03*
%TO.P,Q1,3,C*%
%TO.N,Net-(D4-A)*%
X110500000Y-131250000D03*
%TD*%
D13*
%TO.P,J2,R*%
%TO.N,/PTT1*%
X102500000Y-138800000D03*
D23*
%TO.P,J2,S*%
%TO.N,Net-(J2-PadS)*%
X104300000Y-136100000D03*
D13*
%TO.P,J2,T*%
%TO.N,Net-(C2-Pad2)*%
X106100000Y-138800000D03*
%TD*%
D14*
%TO.P,R6,1*%
%TO.N,Net-(R5-Pad2)*%
X105500000Y-132000000D03*
%TO.P,R6,2*%
%TO.N,GND*%
X103500000Y-132000000D03*
%TD*%
D24*
%TO.P,C1,1*%
%TO.N,Net-(C1-Pad1)*%
X132000000Y-140962500D03*
%TO.P,C1,2*%
%TO.N,Net-(C1-Pad2)*%
X132000000Y-143037500D03*
%TD*%
D14*
%TO.P,R5,1*%
%TO.N,Net-(R5-Pad1)*%
X105500000Y-129250000D03*
%TO.P,R5,2*%
%TO.N,Net-(R5-Pad2)*%
X103500000Y-129250000D03*
%TD*%
D25*
%TO.P,C2,1*%
%TO.N,Net-(C2-Pad1)*%
X110000000Y-141037500D03*
%TO.P,C2,2*%
%TO.N,Net-(C2-Pad2)*%
X110000000Y-138962500D03*
%TD*%
D26*
%TO.P,D3,1,K*%
%TO.N,+3.3V*%
X108500000Y-110750000D03*
%TO.P,D3,2,A*%
%TO.N,/ADC*%
X111000000Y-110750000D03*
%TD*%
%TO.P,D2,1,K*%
%TO.N,/ADC*%
X108500000Y-116750000D03*
%TO.P,D2,2,A*%
%TO.N,GND*%
X111000000Y-116750000D03*
%TD*%
D14*
%TO.P,R3,1*%
%TO.N,Net-(C3-Pad2)*%
X133500000Y-112750000D03*
%TO.P,R3,2*%
%TO.N,Net-(C4-Pad1)*%
X131500000Y-112750000D03*
%TD*%
D26*
%TO.P,D4,1,K*%
%TO.N,+3.3V*%
X124250000Y-127000000D03*
%TO.P,D4,2,A*%
%TO.N,Net-(D4-A)*%
X126750000Y-127000000D03*
%TD*%
D15*
%TO.P,R7,1*%
%TO.N,/ADC*%
X103500000Y-124000000D03*
%TO.P,R7,2*%
%TO.N,Net-(C6-Pad1)*%
X105500000Y-124000000D03*
%TD*%
D27*
%TO.N,GND*%
X117250000Y-126500000D03*
X117250000Y-109500000D03*
X117000000Y-119000000D03*
X124500000Y-119000000D03*
X124500000Y-109500000D03*
X107500000Y-101000000D03*
X115750000Y-101250000D03*
X126750000Y-101250000D03*
X135750000Y-101000000D03*
X133250000Y-119500000D03*
X132750000Y-129750000D03*
X129000000Y-133250000D03*
X123000000Y-133250000D03*
X119750000Y-133250000D03*
X113500000Y-133250000D03*
X141500000Y-101000000D03*
X101000000Y-101000000D03*
X101000000Y-130500000D03*
X101000000Y-106500000D03*
%TO.N,Net-(C1-Pad1)*%
X136250000Y-134500000D03*
%TO.N,Net-(R1-Pad2)*%
X135250000Y-132500000D03*
%TO.N,Net-(J1-PadS)*%
X129998700Y-143632500D03*
%TO.N,Net-(J2-PadS)*%
X118403600Y-136945600D03*
%TO.N,GND*%
X109250000Y-133250000D03*
X101000000Y-112250000D03*
X121750000Y-116000000D03*
X111000000Y-118250000D03*
X101000000Y-124000000D03*
X134000000Y-109000000D03*
X122000000Y-126500000D03*
X125000000Y-124750000D03*
X101000000Y-117500000D03*
X111750000Y-129600000D03*
X133750000Y-102500000D03*
%TO.N,+3.3V*%
X131769700Y-122500000D03*
X109445300Y-106354700D03*
X133400000Y-105500000D03*
X125250000Y-123750000D03*
%TO.N,Net-(R5-Pad1)*%
X107250000Y-129000000D03*
X117615100Y-129954000D03*
%TO.N,Net-(R5-Pad2)*%
X107000000Y-127500000D03*
X106635100Y-125250000D03*
%TO.N,/PWM*%
X133400000Y-106299500D03*
%TO.N,/ADC*%
X104500000Y-114750000D03*
%TO.N,/PTT1*%
X128000000Y-136500000D03*
%TO.N,Net-(Q1-B)*%
X109250000Y-128000000D03*
X110750000Y-123500000D03*
%TD*%
D28*
%TO.N,Net-(C1-Pad1)*%
X139040000Y-108580000D02*
X138848100Y-108771900D01*
X132000000Y-140500000D02*
X132000000Y-140962500D01*
X136250000Y-134500000D02*
X136250000Y-136250000D01*
X136250000Y-136250000D02*
X132000000Y-140500000D01*
%TO.N,Net-(C1-Pad2)*%
X134500000Y-140500000D02*
X133750000Y-141250000D01*
X133750000Y-142250000D02*
X132962500Y-143037500D01*
X132962500Y-143037500D02*
X132000000Y-143037500D01*
X133750000Y-141250000D02*
X133750000Y-142250000D01*
X135200000Y-140500000D02*
X134500000Y-140500000D01*
%TO.N,Net-(R1-Pad1)*%
X132000000Y-138000000D02*
X130001900Y-138000000D01*
X130001900Y-138000000D02*
X124551900Y-143450000D01*
X123500000Y-143450000D02*
X124551900Y-143450000D01*
%TO.N,Net-(R1-Pad2)*%
X135250000Y-132500000D02*
X135250000Y-132851900D01*
X135250000Y-132851900D02*
X132101900Y-136000000D01*
X132101900Y-136000000D02*
X132000000Y-136000000D01*
%TO.N,Net-(J1-PadS)*%
X129998700Y-143450000D02*
X129551900Y-143450000D01*
X130231900Y-143632500D02*
X129998700Y-143632500D01*
X129998700Y-143632500D02*
X129998700Y-143450000D01*
X128500000Y-143450000D02*
X129551900Y-143450000D01*
X129998700Y-143632500D02*
X130231900Y-143632500D01*
%TO.N,Net-(C2-Pad1)*%
X114000000Y-143450000D02*
X112412500Y-143450000D01*
X112412500Y-143450000D02*
X110000000Y-141037500D01*
%TO.N,Net-(C2-Pad2)*%
X110000000Y-138962500D02*
X107164400Y-138962500D01*
X106100000Y-138800000D02*
X107001900Y-138800000D01*
X107164400Y-138962500D02*
X107001900Y-138800000D01*
%TO.N,Net-(J2-PadS)*%
X118403600Y-141536700D02*
X118403600Y-136945600D01*
X119000000Y-143450000D02*
X119000000Y-142133100D01*
X119000000Y-142133100D02*
X118403600Y-141536700D01*
%TO.N,GND*%
X103000000Y-120825000D02*
X103000000Y-118675000D01*
X121750000Y-127750000D02*
X123500000Y-129500000D01*
X103000000Y-118675000D02*
X103500000Y-118175000D01*
X111750000Y-129500000D02*
X110500000Y-128250000D01*
X113630000Y-104240000D02*
X112240000Y-104240000D01*
X113630000Y-104240000D02*
X115240000Y-104240000D01*
X108625000Y-132200000D02*
X108625000Y-132625000D01*
X110500000Y-128250000D02*
X110500000Y-125250000D01*
X111250000Y-125250000D02*
X114000000Y-128000000D01*
X121500000Y-127500000D02*
X121750000Y-127750000D01*
X112000000Y-101750000D02*
X111450000Y-101200000D01*
X114000000Y-129408700D02*
X114000000Y-129450000D01*
X111000000Y-114000000D02*
X111000000Y-116750000D01*
X103500000Y-132625000D02*
X103500000Y-132000000D01*
X115750000Y-106000000D02*
X118750000Y-109000000D01*
X102250000Y-131250000D02*
X103000000Y-132000000D01*
X104125000Y-133250000D02*
X103500000Y-132625000D01*
X123500000Y-129500000D02*
X123500000Y-130150000D01*
X114500000Y-127500000D02*
X121500000Y-127500000D01*
X108625000Y-132625000D02*
X108000000Y-133250000D01*
X121750000Y-112000000D02*
X121750000Y-116000000D01*
X112240000Y-104240000D02*
X112000000Y-104000000D01*
X133750000Y-102500000D02*
X133750000Y-101000000D01*
X110500000Y-125250000D02*
X111250000Y-125250000D01*
X111450000Y-101200000D02*
X110750000Y-101200000D01*
X122000000Y-126500000D02*
X122000000Y-127500000D01*
X103425000Y-121250000D02*
X103000000Y-120825000D01*
X131462500Y-115250000D02*
X130250000Y-116462500D01*
X103500000Y-116200000D02*
X102250000Y-117450000D01*
X122000000Y-127500000D02*
X121750000Y-127750000D01*
X102250000Y-117450000D02*
X102250000Y-131250000D01*
X134000000Y-109000000D02*
X134000000Y-109750000D01*
X128500000Y-124750000D02*
X125000000Y-124750000D01*
X118750000Y-109000000D02*
X121750000Y-112000000D01*
X111000000Y-118250000D02*
X111000000Y-116750000D01*
X111750000Y-129600000D02*
X111750000Y-129500000D01*
X130250000Y-123000000D02*
X128500000Y-124750000D01*
X108000000Y-133250000D02*
X104125000Y-133250000D01*
X114000000Y-128833100D02*
X114000000Y-129408700D01*
X103500000Y-118175000D02*
X103500000Y-116200000D01*
X115750000Y-104750000D02*
X115750000Y-106000000D01*
X114000000Y-128833100D02*
X114000000Y-128000000D01*
X110750000Y-113750000D02*
X111000000Y-114000000D01*
X130250000Y-116462500D02*
X130250000Y-123000000D01*
X114000000Y-128000000D02*
X114500000Y-127500000D01*
X103425000Y-121250000D02*
X103500000Y-121325000D01*
X114000000Y-129450000D02*
X114000000Y-130150000D01*
X109250000Y-133250000D02*
X108625000Y-132625000D01*
X103000000Y-132000000D02*
X103500000Y-132000000D01*
X115240000Y-104240000D02*
X115750000Y-104750000D01*
X134000000Y-109750000D02*
X133500000Y-110250000D01*
X112000000Y-104000000D02*
X112000000Y-101750000D01*
%TO.N,Net-(C3-Pad2)*%
X131425000Y-110675000D02*
X133500000Y-112750000D01*
X131425000Y-107825000D02*
X131425000Y-110250000D01*
X131425000Y-110250000D02*
X131425000Y-110675000D01*
X131500000Y-107750000D02*
X131425000Y-107825000D01*
%TO.N,Net-(C4-Pad1)*%
X133500000Y-115287500D02*
X133500000Y-118000000D01*
X133537500Y-115250000D02*
X133500000Y-115287500D01*
X133537500Y-115250000D02*
X133537500Y-114787500D01*
X133537500Y-114787500D02*
X131500000Y-112750000D01*
%TO.N,Net-(C5-Pad2)*%
X128500000Y-128250000D02*
X128500000Y-130150000D01*
X131425000Y-118000000D02*
X131000000Y-118425000D01*
X131000000Y-125750000D02*
X128500000Y-128250000D01*
X131000000Y-118425000D02*
X131000000Y-125750000D01*
%TO.N,Net-(D1-A)*%
X131500000Y-101200000D02*
X131700000Y-101000000D01*
X131500000Y-104000000D02*
X131500000Y-101200000D01*
%TO.N,+3.3V*%
X108750000Y-107750000D02*
X108750000Y-107050000D01*
X108750000Y-107050000D02*
X109445300Y-106354700D01*
X114030000Y-106780000D02*
X113630000Y-106780000D01*
X123000000Y-123250000D02*
X120500000Y-120750000D01*
X124250000Y-127000000D02*
X124250000Y-123250000D01*
X116000000Y-108750000D02*
X114030000Y-106780000D01*
X120500000Y-120750000D02*
X120500000Y-114614200D01*
X108500000Y-110750000D02*
X108750000Y-110500000D01*
X133400000Y-105500000D02*
X133400000Y-104100000D01*
X108750000Y-110500000D02*
X108750000Y-107750000D01*
X124750000Y-123250000D02*
X124250000Y-123250000D01*
X116000000Y-110114200D02*
X116000000Y-108750000D01*
X125250000Y-123750000D02*
X124750000Y-123250000D01*
X131769700Y-122500000D02*
X131950000Y-122319700D01*
X120500000Y-114614200D02*
X116000000Y-110114200D01*
X124250000Y-123250000D02*
X123000000Y-123250000D01*
X131950000Y-122319700D02*
X131950000Y-121000000D01*
X133400000Y-104100000D02*
X133500000Y-104000000D01*
%TO.N,Net-(R5-Pad1)*%
X117752100Y-129954000D02*
X117948100Y-130150000D01*
X117615100Y-129954000D02*
X117752100Y-129954000D01*
X107000000Y-129250000D02*
X105500000Y-129250000D01*
X117615100Y-129954000D02*
X117717900Y-129954000D01*
X107250000Y-129000000D02*
X107000000Y-129250000D01*
X117717900Y-129954000D02*
X117615100Y-129954000D01*
X119000000Y-130150000D02*
X117948100Y-130150000D01*
%TO.N,Net-(R5-Pad2)*%
X103750000Y-128000000D02*
X103500000Y-128250000D01*
X103500000Y-129750000D02*
X105500000Y-131750000D01*
X106635100Y-125250000D02*
X106635100Y-125114900D01*
X106750000Y-117250000D02*
X105500000Y-116000000D01*
X103500000Y-128250000D02*
X103500000Y-129250000D01*
X103500000Y-111000000D02*
X103500000Y-103500000D01*
X103500000Y-129250000D02*
X103500000Y-129750000D01*
X105500000Y-131750000D02*
X105500000Y-132000000D01*
X106500000Y-128000000D02*
X103750000Y-128000000D01*
X106750000Y-125000000D02*
X106750000Y-117250000D01*
X106635100Y-125114900D02*
X106750000Y-125000000D01*
X105500000Y-113000000D02*
X103500000Y-111000000D01*
X105500000Y-116000000D02*
X105500000Y-113000000D01*
X107000000Y-127500000D02*
X106500000Y-128000000D01*
%TO.N,Net-(C6-Pad1)*%
X103425000Y-126075000D02*
X103425000Y-126750000D01*
X105500000Y-124000000D02*
X103425000Y-126075000D01*
%TO.N,Net-(C6-Pad2)*%
X106040000Y-108580000D02*
X106040000Y-114290000D01*
X106750000Y-126750000D02*
X105500000Y-126750000D01*
X107235100Y-115485100D02*
X107235100Y-126264900D01*
X107235100Y-126264900D02*
X106750000Y-126750000D01*
X106040000Y-114290000D02*
X107235100Y-115485100D01*
%TO.N,/PWM*%
X133400000Y-106299500D02*
X133400000Y-107650000D01*
X133400000Y-107650000D02*
X133500000Y-107750000D01*
%TO.N,/ADC*%
X103500000Y-123742300D02*
X103500000Y-124000000D01*
X108750000Y-116500000D02*
X108750000Y-113750000D01*
X110750000Y-109998200D02*
X110750000Y-107750000D01*
X104500000Y-114750000D02*
X105000000Y-115250000D01*
X110750000Y-109998200D02*
X110750000Y-111750000D01*
X110750000Y-110500000D02*
X110750000Y-109998200D01*
X103500000Y-124000000D02*
X103500000Y-123250000D01*
X111000000Y-110750000D02*
X111418100Y-110750000D01*
X103500000Y-123701000D02*
X103500000Y-123742300D01*
X111000000Y-110750000D02*
X110750000Y-110500000D01*
X105000000Y-118250000D02*
X105500000Y-118750000D01*
X113630000Y-111860000D02*
X112528100Y-111860000D01*
X105000000Y-115250000D02*
X105000000Y-118250000D01*
X110750000Y-111750000D02*
X108750000Y-113750000D01*
X103500000Y-123250000D02*
X105500000Y-121250000D01*
X111418100Y-110750000D02*
X112528100Y-111860000D01*
X108500000Y-116750000D02*
X108750000Y-116500000D01*
X105500000Y-118750000D02*
X105500000Y-121250000D01*
%TO.N,/PTT1*%
X128000000Y-136500000D02*
X129250000Y-136500000D01*
X129250000Y-136500000D02*
X131250000Y-134500000D01*
X132051900Y-134500000D02*
X137350000Y-129201900D01*
X131250000Y-134500000D02*
X132051900Y-134500000D01*
X137350000Y-129201900D02*
X137350000Y-128000000D01*
%TO.N,/PTT2*%
X139800000Y-129451900D02*
X139800000Y-135550000D01*
X139550000Y-128000000D02*
X139550000Y-129201900D01*
X139550000Y-129201900D02*
X139800000Y-129451900D01*
%TO.N,Net-(Q1-B)*%
X110750000Y-123500000D02*
X110750000Y-122000000D01*
X110750000Y-122000000D02*
X110500000Y-121750000D01*
X108750000Y-128500000D02*
X109250000Y-128000000D01*
X108625000Y-130300000D02*
X108625000Y-128625000D01*
X108625000Y-128625000D02*
X108750000Y-128500000D01*
%TO.N,/PTT_RELAY*%
X108500000Y-121750000D02*
X108500000Y-122259000D01*
X108500000Y-122259000D02*
X108500000Y-120750000D01*
X108500000Y-120750000D02*
X109250000Y-120000000D01*
X113270000Y-122020000D02*
X113630000Y-122020000D01*
X108500000Y-122768000D02*
X108500000Y-124195900D01*
X108500000Y-124195900D02*
X108500000Y-125250000D01*
X111250000Y-120000000D02*
X113270000Y-122020000D01*
X109250000Y-120000000D02*
X111250000Y-120000000D01*
X108500000Y-122259000D02*
X108500000Y-122768000D01*
%TO.N,Net-(D4-A)*%
X126750000Y-131500000D02*
X127750000Y-132500000D01*
X111750000Y-132500000D02*
X110500000Y-131250000D01*
X130000000Y-132500000D02*
X131950000Y-130550000D01*
X127750000Y-132500000D02*
X130000000Y-132500000D01*
X125750000Y-132500000D02*
X111750000Y-132500000D01*
X126750000Y-131500000D02*
X125750000Y-132500000D01*
X126750000Y-130678600D02*
X126750000Y-131500000D01*
X126750000Y-127000000D02*
X126750000Y-130678600D01*
X131950000Y-130550000D02*
X131950000Y-128000000D01*
%TO.N,Net-(D5-A)*%
X108750000Y-104500000D02*
X108700000Y-104450000D01*
X108700000Y-104450000D02*
X108700000Y-101000000D01*
%TO.N,/PTT_LED*%
X114850000Y-114400000D02*
X115500000Y-113750000D01*
X115500000Y-111500000D02*
X114590000Y-110590000D01*
X111801400Y-109551400D02*
X111801400Y-105551400D01*
X114590000Y-110590000D02*
X112840000Y-110590000D01*
X113630000Y-114400000D02*
X114850000Y-114400000D01*
X115500000Y-113750000D02*
X115500000Y-111500000D01*
X112840000Y-110590000D02*
X111801400Y-109551400D01*
X111801400Y-105551400D02*
X110750000Y-104500000D01*
%TD*%
%TA.AperFunction,Conductor*%
%TO.N,GND*%
G36*
X107877297Y-100520185D02*
G01*
X107923052Y-100572989D01*
X107932996Y-100642147D01*
X107927486Y-100664692D01*
X107927353Y-100665300D01*
X107924500Y-100695730D01*
X107924500Y-101704269D01*
X107927353Y-101734699D01*
X107927353Y-101734701D01*
X107972206Y-101862880D01*
X107972207Y-101862882D01*
X108052850Y-101972150D01*
X108162118Y-102052793D01*
X108194163Y-102064006D01*
X108290298Y-102097646D01*
X108297670Y-102099256D01*
X108297206Y-102101379D01*
X108351982Y-102123198D01*
X108392609Y-102180041D01*
X108399500Y-102220802D01*
X108399500Y-103484908D01*
X108379815Y-103551947D01*
X108327011Y-103597702D01*
X108316456Y-103601949D01*
X108187117Y-103647207D01*
X108077850Y-103727850D01*
X107997207Y-103837117D01*
X107997206Y-103837119D01*
X107952353Y-103965298D01*
X107952353Y-103965300D01*
X107949500Y-103995730D01*
X107949500Y-105004269D01*
X107952353Y-105034699D01*
X107952353Y-105034701D01*
X107997206Y-105162880D01*
X107997207Y-105162882D01*
X108077850Y-105272150D01*
X108187118Y-105352793D01*
X108200693Y-105357543D01*
X108315299Y-105397646D01*
X108345730Y-105400500D01*
X108345734Y-105400500D01*
X109154270Y-105400500D01*
X109184699Y-105397646D01*
X109184701Y-105397646D01*
X109263324Y-105370134D01*
X109312882Y-105352793D01*
X109422150Y-105272150D01*
X109502793Y-105162882D01*
X109525436Y-105098173D01*
X109547646Y-105034701D01*
X109547646Y-105034699D01*
X109550500Y-105004269D01*
X109550500Y-103995730D01*
X109547646Y-103965300D01*
X109547646Y-103965298D01*
X109502793Y-103837119D01*
X109502792Y-103837117D01*
X109422150Y-103727850D01*
X109312882Y-103647207D01*
X109312880Y-103647206D01*
X109184700Y-103602353D01*
X109154270Y-103599500D01*
X109154266Y-103599500D01*
X109124500Y-103599500D01*
X109057461Y-103579815D01*
X109011706Y-103527011D01*
X109000500Y-103475500D01*
X109000500Y-102220802D01*
X109020185Y-102153763D01*
X109072989Y-102108008D01*
X109102519Y-102100122D01*
X109102330Y-102099256D01*
X109109701Y-102097646D01*
X109200501Y-102065873D01*
X109237882Y-102052793D01*
X109347150Y-101972150D01*
X109427793Y-101862882D01*
X109450158Y-101798964D01*
X109490877Y-101742192D01*
X109555830Y-101716444D01*
X109624392Y-101729900D01*
X109674795Y-101778287D01*
X109684904Y-101800917D01*
X109740642Y-101969121D01*
X109740643Y-101969124D01*
X109832684Y-102118345D01*
X109956654Y-102242315D01*
X110105875Y-102334356D01*
X110105880Y-102334358D01*
X110272302Y-102389505D01*
X110272309Y-102389506D01*
X110375019Y-102399999D01*
X110499999Y-102399999D01*
X110500000Y-102399998D01*
X110500000Y-101450000D01*
X111000000Y-101450000D01*
X111000000Y-102399999D01*
X111124972Y-102399999D01*
X111124986Y-102399998D01*
X111227697Y-102389505D01*
X111394119Y-102334358D01*
X111394124Y-102334356D01*
X111543345Y-102242315D01*
X111667315Y-102118345D01*
X111759356Y-101969124D01*
X111759358Y-101969119D01*
X111814505Y-101802697D01*
X111814506Y-101802690D01*
X111824999Y-101699986D01*
X111825000Y-101699973D01*
X111825000Y-101450000D01*
X111000000Y-101450000D01*
X110500000Y-101450000D01*
X110500000Y-101074000D01*
X110519685Y-101006961D01*
X110572489Y-100961206D01*
X110624000Y-100950000D01*
X111824999Y-100950000D01*
X111824999Y-100700028D01*
X111824998Y-100700010D01*
X111818572Y-100637101D01*
X111831342Y-100568408D01*
X111879223Y-100517524D01*
X111941930Y-100500500D01*
X112658230Y-100500500D01*
X112725269Y-100520185D01*
X112771024Y-100572989D01*
X112780968Y-100642147D01*
X112751943Y-100705703D01*
X112727122Y-100727602D01*
X112685446Y-100755448D01*
X112641132Y-100821769D01*
X112641131Y-100821770D01*
X112629500Y-100880247D01*
X112629500Y-102519752D01*
X112641131Y-102578229D01*
X112641132Y-102578230D01*
X112685447Y-102644552D01*
X112751769Y-102688867D01*
X112751770Y-102688868D01*
X112810247Y-102700499D01*
X112810250Y-102700500D01*
X113470668Y-102700500D01*
X113537707Y-102720185D01*
X113583462Y-102772989D01*
X113593406Y-102842147D01*
X113564381Y-102905703D01*
X113505603Y-102943477D01*
X113481475Y-102948028D01*
X113403400Y-102954858D01*
X113403389Y-102954860D01*
X113183682Y-103013730D01*
X113183673Y-103013734D01*
X112977517Y-103109865D01*
X112791179Y-103240342D01*
X112630342Y-103401179D01*
X112499865Y-103587517D01*
X112403734Y-103793673D01*
X112403730Y-103793682D01*
X112351127Y-103989999D01*
X112351128Y-103990000D01*
X113196314Y-103990000D01*
X113170507Y-104030156D01*
X113130000Y-104168111D01*
X113130000Y-104311889D01*
X113170507Y-104449844D01*
X113196314Y-104490000D01*
X112351128Y-104490000D01*
X112403730Y-104686317D01*
X112403734Y-104686326D01*
X112499865Y-104892482D01*
X112630342Y-105078820D01*
X112791179Y-105239657D01*
X112977517Y-105370134D01*
X113183673Y-105466265D01*
X113183682Y-105466269D01*
X113379999Y-105518872D01*
X113380000Y-105518871D01*
X113380000Y-104675501D01*
X113487685Y-104724680D01*
X113594237Y-104740000D01*
X113665763Y-104740000D01*
X113772315Y-104724680D01*
X113880000Y-104675501D01*
X113880000Y-105518872D01*
X114076317Y-105466269D01*
X114076326Y-105466265D01*
X114282482Y-105370134D01*
X114468820Y-105239657D01*
X114629657Y-105078820D01*
X114760134Y-104892482D01*
X114856265Y-104686326D01*
X114856269Y-104686317D01*
X114908872Y-104490000D01*
X114063686Y-104490000D01*
X114089493Y-104449844D01*
X114130000Y-104311889D01*
X114130000Y-104240000D01*
X127864659Y-104240000D01*
X127883975Y-104436129D01*
X127900118Y-104489344D01*
X127922468Y-104563024D01*
X127941188Y-104624733D01*
X128034086Y-104798532D01*
X128034090Y-104798539D01*
X128159116Y-104950883D01*
X128311460Y-105075909D01*
X128311467Y-105075913D01*
X128485266Y-105168811D01*
X128485269Y-105168811D01*
X128485273Y-105168814D01*
X128673868Y-105226024D01*
X128870000Y-105245341D01*
X129066132Y-105226024D01*
X129254727Y-105168814D01*
X129428538Y-105075910D01*
X129580883Y-104950883D01*
X129705910Y-104798538D01*
X129787839Y-104645260D01*
X129798811Y-104624733D01*
X129798811Y-104624732D01*
X129798814Y-104624727D01*
X129856024Y-104436132D01*
X129875341Y-104240000D01*
X129856024Y-104043868D01*
X129798814Y-103855273D01*
X129798811Y-103855269D01*
X129798811Y-103855266D01*
X129705913Y-103681467D01*
X129705909Y-103681460D01*
X129580883Y-103529116D01*
X129428539Y-103404090D01*
X129428532Y-103404086D01*
X129254733Y-103311188D01*
X129254727Y-103311186D01*
X129066132Y-103253976D01*
X129066129Y-103253975D01*
X128870000Y-103234659D01*
X128673870Y-103253975D01*
X128485266Y-103311188D01*
X128311467Y-103404086D01*
X128311460Y-103404090D01*
X128159116Y-103529116D01*
X128034090Y-103681460D01*
X128034086Y-103681467D01*
X127941188Y-103855266D01*
X127883975Y-104043870D01*
X127864659Y-104240000D01*
X114130000Y-104240000D01*
X114130000Y-104168111D01*
X114089493Y-104030156D01*
X114063686Y-103990000D01*
X114908872Y-103990000D01*
X114908872Y-103989999D01*
X114856269Y-103793682D01*
X114856265Y-103793673D01*
X114760134Y-103587517D01*
X114629657Y-103401179D01*
X114468820Y-103240342D01*
X114282482Y-103109865D01*
X114076326Y-103013734D01*
X114076317Y-103013730D01*
X113856610Y-102954860D01*
X113856599Y-102954858D01*
X113778525Y-102948028D01*
X113713456Y-102922576D01*
X113672477Y-102865985D01*
X113668599Y-102796223D01*
X113703053Y-102735439D01*
X113764900Y-102702931D01*
X113789332Y-102700500D01*
X114449750Y-102700500D01*
X114449751Y-102700499D01*
X114464568Y-102697552D01*
X114508229Y-102688868D01*
X114508229Y-102688867D01*
X114508231Y-102688867D01*
X114574552Y-102644552D01*
X114618867Y-102578231D01*
X114618867Y-102578229D01*
X114618868Y-102578229D01*
X114630499Y-102519752D01*
X114630500Y-102519750D01*
X114630500Y-100880249D01*
X114630499Y-100880247D01*
X114618868Y-100821770D01*
X114618867Y-100821769D01*
X114574553Y-100755448D01*
X114532878Y-100727602D01*
X114488074Y-100673989D01*
X114479367Y-100604664D01*
X114509522Y-100541637D01*
X114568965Y-100504918D01*
X114601770Y-100500500D01*
X128541665Y-100500500D01*
X128608704Y-100520185D01*
X128654459Y-100572989D01*
X128664403Y-100642147D01*
X128635378Y-100705703D01*
X128577663Y-100743159D01*
X128498232Y-100767254D01*
X128485266Y-100771188D01*
X128311467Y-100864086D01*
X128311460Y-100864090D01*
X128159116Y-100989116D01*
X128034090Y-101141460D01*
X128034086Y-101141467D01*
X127941188Y-101315266D01*
X127883975Y-101503870D01*
X127864659Y-101700000D01*
X127883975Y-101896129D01*
X127883976Y-101896132D01*
X127906116Y-101969119D01*
X127941188Y-102084733D01*
X128034086Y-102258532D01*
X128034090Y-102258539D01*
X128159116Y-102410883D01*
X128311460Y-102535909D01*
X128311467Y-102535913D01*
X128485266Y-102628811D01*
X128485269Y-102628811D01*
X128485273Y-102628814D01*
X128673868Y-102686024D01*
X128870000Y-102705341D01*
X129066132Y-102686024D01*
X129254727Y-102628814D01*
X129428538Y-102535910D01*
X129580883Y-102410883D01*
X129705910Y-102258538D01*
X129780845Y-102118345D01*
X129798811Y-102084733D01*
X129798811Y-102084732D01*
X129798814Y-102084727D01*
X129856024Y-101896132D01*
X129875341Y-101700000D01*
X129856024Y-101503868D01*
X129798814Y-101315273D01*
X129798811Y-101315269D01*
X129798811Y-101315266D01*
X129705913Y-101141467D01*
X129705909Y-101141460D01*
X129580883Y-100989116D01*
X129428539Y-100864090D01*
X129428532Y-100864086D01*
X129254733Y-100771188D01*
X129254727Y-100771186D01*
X129162336Y-100743159D01*
X129103901Y-100704863D01*
X129075445Y-100641051D01*
X129086005Y-100571984D01*
X129132229Y-100519590D01*
X129198335Y-100500500D01*
X130810258Y-100500500D01*
X130877297Y-100520185D01*
X130923052Y-100572989D01*
X130932996Y-100642147D01*
X130927486Y-100664692D01*
X130927353Y-100665300D01*
X130924500Y-100695730D01*
X130924500Y-101704269D01*
X130927353Y-101734699D01*
X130927353Y-101734701D01*
X130972206Y-101862880D01*
X130972207Y-101862882D01*
X131052849Y-101972149D01*
X131052851Y-101972151D01*
X131149133Y-102043210D01*
X131191384Y-102098857D01*
X131199500Y-102142980D01*
X131199500Y-102976853D01*
X131179815Y-103043892D01*
X131127011Y-103089647D01*
X131087079Y-103100311D01*
X131065300Y-103102353D01*
X131065298Y-103102353D01*
X130937119Y-103147206D01*
X130937117Y-103147207D01*
X130827850Y-103227850D01*
X130747207Y-103337117D01*
X130747206Y-103337119D01*
X130702353Y-103465298D01*
X130702353Y-103465300D01*
X130699500Y-103495730D01*
X130699500Y-104504269D01*
X130702353Y-104534699D01*
X130702353Y-104534701D01*
X130747206Y-104662880D01*
X130747207Y-104662882D01*
X130827850Y-104772150D01*
X130937118Y-104852793D01*
X130979845Y-104867744D01*
X131065299Y-104897646D01*
X131095730Y-104900500D01*
X131095734Y-104900500D01*
X131904270Y-104900500D01*
X131934699Y-104897646D01*
X131934701Y-104897646D01*
X131998790Y-104875219D01*
X132062882Y-104852793D01*
X132172150Y-104772150D01*
X132252793Y-104662882D01*
X132283127Y-104576193D01*
X132297646Y-104534701D01*
X132297646Y-104534699D01*
X132300500Y-104504269D01*
X132300500Y-103495730D01*
X132297646Y-103465300D01*
X132297646Y-103465298D01*
X132252793Y-103337119D01*
X132252792Y-103337117D01*
X132172150Y-103227850D01*
X132062882Y-103147207D01*
X132062880Y-103147206D01*
X131934700Y-103102353D01*
X131912921Y-103100311D01*
X131848013Y-103074453D01*
X131807388Y-103017607D01*
X131800500Y-102976853D01*
X131800500Y-102224500D01*
X131820185Y-102157461D01*
X131872989Y-102111706D01*
X131924500Y-102100500D01*
X132079270Y-102100500D01*
X132109699Y-102097646D01*
X132109701Y-102097646D01*
X132200501Y-102065873D01*
X132237882Y-102052793D01*
X132347150Y-101972150D01*
X132427793Y-101862882D01*
X132450158Y-101798964D01*
X132490877Y-101742192D01*
X132555830Y-101716444D01*
X132624392Y-101729900D01*
X132674795Y-101778287D01*
X132684904Y-101800917D01*
X132740642Y-101969121D01*
X132740643Y-101969124D01*
X132832684Y-102118345D01*
X132956654Y-102242315D01*
X133105875Y-102334356D01*
X133105880Y-102334358D01*
X133272302Y-102389505D01*
X133272309Y-102389506D01*
X133375019Y-102399999D01*
X133499999Y-102399999D01*
X133500000Y-102399998D01*
X133500000Y-101450000D01*
X134000000Y-101450000D01*
X134000000Y-102399999D01*
X134124972Y-102399999D01*
X134124986Y-102399998D01*
X134227697Y-102389505D01*
X134394119Y-102334358D01*
X134394124Y-102334356D01*
X134543345Y-102242315D01*
X134667315Y-102118345D01*
X134759356Y-101969124D01*
X134759358Y-101969119D01*
X134814505Y-101802697D01*
X134814506Y-101802690D01*
X134824999Y-101699986D01*
X134825000Y-101699973D01*
X134825000Y-101450000D01*
X134000000Y-101450000D01*
X133500000Y-101450000D01*
X133500000Y-101074000D01*
X133519685Y-101006961D01*
X133572489Y-100961206D01*
X133624000Y-100950000D01*
X134824999Y-100950000D01*
X134824999Y-100700028D01*
X134824998Y-100700010D01*
X134818572Y-100637101D01*
X134831342Y-100568408D01*
X134879223Y-100517524D01*
X134941930Y-100500500D01*
X141875500Y-100500500D01*
X141942539Y-100520185D01*
X141988294Y-100572989D01*
X141999500Y-100624500D01*
X141999500Y-101376000D01*
X141979815Y-101443039D01*
X141927011Y-101488794D01*
X141875500Y-101500000D01*
X136000000Y-101500000D01*
X135439632Y-102153763D01*
X134500001Y-103249998D01*
X134500000Y-103250001D01*
X134500000Y-103313784D01*
X134480315Y-103380823D01*
X134427511Y-103426578D01*
X134358353Y-103436522D01*
X134294797Y-103407497D01*
X134258959Y-103354740D01*
X134252793Y-103337119D01*
X134252793Y-103337118D01*
X134172150Y-103227850D01*
X134062882Y-103147207D01*
X134062880Y-103147206D01*
X133934700Y-103102353D01*
X133904270Y-103099500D01*
X133904266Y-103099500D01*
X133095734Y-103099500D01*
X133095730Y-103099500D01*
X133065300Y-103102353D01*
X133065298Y-103102353D01*
X132937119Y-103147206D01*
X132937117Y-103147207D01*
X132827850Y-103227850D01*
X132747207Y-103337117D01*
X132747206Y-103337119D01*
X132702353Y-103465298D01*
X132702353Y-103465300D01*
X132699500Y-103495730D01*
X132699500Y-104504269D01*
X132702353Y-104534699D01*
X132702353Y-104534701D01*
X132747206Y-104662880D01*
X132747207Y-104662882D01*
X132827850Y-104772150D01*
X132937118Y-104852793D01*
X133016458Y-104880555D01*
X133073231Y-104921275D01*
X133098978Y-104986228D01*
X133099500Y-104997595D01*
X133099500Y-105036260D01*
X133079815Y-105103299D01*
X133069213Y-105117462D01*
X132974625Y-105226622D01*
X132974622Y-105226628D01*
X132914834Y-105357543D01*
X132894353Y-105500000D01*
X132914834Y-105642456D01*
X132941514Y-105700875D01*
X132974623Y-105773373D01*
X133011536Y-105815973D01*
X133013767Y-105818548D01*
X133042791Y-105882104D01*
X133032847Y-105951262D01*
X133013767Y-105980952D01*
X132974623Y-106026127D01*
X132974622Y-106026128D01*
X132914834Y-106157043D01*
X132894353Y-106299500D01*
X132914834Y-106441956D01*
X132940044Y-106497157D01*
X132974623Y-106572873D01*
X133062009Y-106673723D01*
X133091034Y-106737278D01*
X133081090Y-106806437D01*
X133035335Y-106859241D01*
X133009252Y-106871966D01*
X132937117Y-106897207D01*
X132827850Y-106977850D01*
X132747207Y-107087117D01*
X132747206Y-107087119D01*
X132702353Y-107215298D01*
X132702353Y-107215300D01*
X132699500Y-107245730D01*
X132699500Y-108254269D01*
X132702353Y-108284699D01*
X132702353Y-108284701D01*
X132747206Y-108412880D01*
X132747207Y-108412882D01*
X132827850Y-108522150D01*
X132937118Y-108602793D01*
X132977325Y-108616862D01*
X133065299Y-108647646D01*
X133095730Y-108650500D01*
X133095734Y-108650500D01*
X133904270Y-108650500D01*
X133934699Y-108647646D01*
X133934701Y-108647646D01*
X133998790Y-108625219D01*
X134062882Y-108602793D01*
X134172150Y-108522150D01*
X134252793Y-108412882D01*
X134258959Y-108395259D01*
X134299680Y-108338484D01*
X134364633Y-108312737D01*
X134433195Y-108326193D01*
X134483597Y-108374581D01*
X134500000Y-108436215D01*
X134500000Y-109080264D01*
X134480315Y-109147303D01*
X134427511Y-109193058D01*
X134358353Y-109203002D01*
X134310904Y-109185803D01*
X134156628Y-109090645D01*
X134156619Y-109090641D01*
X133990197Y-109035494D01*
X133990190Y-109035493D01*
X133887486Y-109025000D01*
X133750000Y-109025000D01*
X133750000Y-111474999D01*
X133887472Y-111474999D01*
X133887486Y-111474998D01*
X133990197Y-111464505D01*
X134156619Y-111409358D01*
X134156624Y-111409356D01*
X134310903Y-111314196D01*
X134378296Y-111295756D01*
X134444959Y-111316678D01*
X134489729Y-111370320D01*
X134500000Y-111419735D01*
X134500000Y-112063784D01*
X134480315Y-112130823D01*
X134427511Y-112176578D01*
X134358353Y-112186522D01*
X134294797Y-112157497D01*
X134258959Y-112104740D01*
X134257973Y-112101922D01*
X134252793Y-112087118D01*
X134172150Y-111977850D01*
X134062882Y-111897207D01*
X134062880Y-111897206D01*
X133934700Y-111852353D01*
X133904270Y-111849500D01*
X133904266Y-111849500D01*
X133095734Y-111849500D01*
X133095727Y-111849500D01*
X133088607Y-111850167D01*
X133020024Y-111836822D01*
X132989360Y-111814389D01*
X132825904Y-111650933D01*
X132792419Y-111589610D01*
X132797403Y-111519918D01*
X132839275Y-111463985D01*
X132904739Y-111439568D01*
X132952590Y-111445546D01*
X133009805Y-111464505D01*
X133009809Y-111464506D01*
X133112519Y-111474999D01*
X133249999Y-111474999D01*
X133250000Y-111474998D01*
X133250000Y-109025000D01*
X133112527Y-109025000D01*
X133112512Y-109025001D01*
X133009802Y-109035494D01*
X132843380Y-109090641D01*
X132843375Y-109090643D01*
X132694154Y-109182684D01*
X132570184Y-109306654D01*
X132478143Y-109455875D01*
X132478141Y-109455880D01*
X132422405Y-109624082D01*
X132382632Y-109681527D01*
X132318117Y-109708350D01*
X132249341Y-109696035D01*
X132198141Y-109648492D01*
X132187658Y-109626033D01*
X132172975Y-109584071D01*
X132165293Y-109562118D01*
X132084650Y-109452850D01*
X131975382Y-109372207D01*
X131975380Y-109372206D01*
X131847201Y-109327353D01*
X131837918Y-109326483D01*
X131773010Y-109300623D01*
X131732387Y-109243776D01*
X131725500Y-109203025D01*
X131725500Y-108774500D01*
X131745185Y-108707461D01*
X131797989Y-108661706D01*
X131849500Y-108650500D01*
X131904270Y-108650500D01*
X131934699Y-108647646D01*
X131934701Y-108647646D01*
X131998790Y-108625219D01*
X132062882Y-108602793D01*
X132172150Y-108522150D01*
X132252793Y-108412882D01*
X132287163Y-108314659D01*
X132297646Y-108284701D01*
X132297646Y-108284699D01*
X132300500Y-108254269D01*
X132300500Y-107245730D01*
X132297646Y-107215300D01*
X132297646Y-107215298D01*
X132252793Y-107087119D01*
X132252792Y-107087117D01*
X132250900Y-107084553D01*
X132172150Y-106977850D01*
X132062882Y-106897207D01*
X132062880Y-106897206D01*
X131934700Y-106852353D01*
X131904270Y-106849500D01*
X131904266Y-106849500D01*
X131095734Y-106849500D01*
X131095730Y-106849500D01*
X131065300Y-106852353D01*
X131065298Y-106852353D01*
X130937119Y-106897206D01*
X130937117Y-106897207D01*
X130827850Y-106977850D01*
X130747207Y-107087117D01*
X130747206Y-107087119D01*
X130702353Y-107215298D01*
X130702353Y-107215300D01*
X130699500Y-107245730D01*
X130699500Y-108254269D01*
X130702353Y-108284699D01*
X130702353Y-108284701D01*
X130747206Y-108412880D01*
X130747207Y-108412882D01*
X130827850Y-108522150D01*
X130937118Y-108602793D01*
X131029716Y-108635194D01*
X131041455Y-108639302D01*
X131098231Y-108680023D01*
X131123978Y-108744976D01*
X131124500Y-108756343D01*
X131124500Y-109203025D01*
X131104815Y-109270064D01*
X131052011Y-109315819D01*
X131012082Y-109326483D01*
X131002799Y-109327353D01*
X131002798Y-109327353D01*
X130874619Y-109372206D01*
X130874617Y-109372207D01*
X130765350Y-109452850D01*
X130684707Y-109562117D01*
X130684706Y-109562119D01*
X130639853Y-109690298D01*
X130639853Y-109690300D01*
X130637000Y-109720730D01*
X130637000Y-110779269D01*
X130639853Y-110809699D01*
X130639853Y-110809701D01*
X130682950Y-110932861D01*
X130684707Y-110937882D01*
X130765350Y-111047150D01*
X130874618Y-111127793D01*
X130910804Y-111140455D01*
X131002799Y-111172646D01*
X131033230Y-111175500D01*
X131033234Y-111175500D01*
X131449167Y-111175500D01*
X131516206Y-111195185D01*
X131536848Y-111211819D01*
X131962848Y-111637819D01*
X131996333Y-111699142D01*
X131991349Y-111768834D01*
X131949477Y-111824767D01*
X131884013Y-111849184D01*
X131875167Y-111849500D01*
X131095730Y-111849500D01*
X131065300Y-111852353D01*
X131065298Y-111852353D01*
X130937119Y-111897206D01*
X130937117Y-111897207D01*
X130827850Y-111977850D01*
X130747207Y-112087117D01*
X130747206Y-112087119D01*
X130702353Y-112215298D01*
X130702353Y-112215300D01*
X130699500Y-112245730D01*
X130699500Y-113254269D01*
X130702353Y-113284699D01*
X130702353Y-113284701D01*
X130747206Y-113412880D01*
X130747207Y-113412882D01*
X130827850Y-113522150D01*
X130937118Y-113602793D01*
X130979845Y-113617744D01*
X131065299Y-113647646D01*
X131095730Y-113650500D01*
X131095734Y-113650500D01*
X131904267Y-113650500D01*
X131911379Y-113649833D01*
X131979963Y-113663171D01*
X132010639Y-113685610D01*
X132192679Y-113867650D01*
X132226164Y-113928973D01*
X132221180Y-113998665D01*
X132179308Y-114054598D01*
X132113844Y-114079015D01*
X132065995Y-114073037D01*
X131952700Y-114035495D01*
X131952690Y-114035493D01*
X131849986Y-114025000D01*
X131712500Y-114025000D01*
X131712500Y-116474999D01*
X131849972Y-116474999D01*
X131849986Y-116474998D01*
X131952697Y-116464505D01*
X132119119Y-116409358D01*
X132119124Y-116409356D01*
X132268345Y-116317315D01*
X132392315Y-116193345D01*
X132484356Y-116044124D01*
X132484359Y-116044117D01*
X132540094Y-115875918D01*
X132579866Y-115818473D01*
X132644382Y-115791649D01*
X132713158Y-115803964D01*
X132764358Y-115851506D01*
X132774841Y-115873965D01*
X132783164Y-115897749D01*
X132797207Y-115937882D01*
X132877850Y-116047150D01*
X132987118Y-116127793D01*
X133069494Y-116156617D01*
X133116455Y-116173050D01*
X133173231Y-116213771D01*
X133198978Y-116278724D01*
X133199500Y-116290091D01*
X133199500Y-116953025D01*
X133179815Y-117020064D01*
X133127011Y-117065819D01*
X133087082Y-117076483D01*
X133077799Y-117077353D01*
X133077798Y-117077353D01*
X132949619Y-117122206D01*
X132949617Y-117122207D01*
X132840350Y-117202850D01*
X132759707Y-117312117D01*
X132759706Y-117312119D01*
X132714853Y-117440298D01*
X132714853Y-117440300D01*
X132712000Y-117470730D01*
X132712000Y-118529269D01*
X132714853Y-118559699D01*
X132714853Y-118559701D01*
X132756951Y-118680007D01*
X132759707Y-118687882D01*
X132840350Y-118797150D01*
X132949618Y-118877793D01*
X132992345Y-118892744D01*
X133077799Y-118922646D01*
X133108230Y-118925500D01*
X133108234Y-118925500D01*
X133891770Y-118925500D01*
X133922199Y-118922646D01*
X133922201Y-118922646D01*
X133988418Y-118899475D01*
X134050382Y-118877793D01*
X134159650Y-118797150D01*
X134240293Y-118687882D01*
X134257199Y-118639567D01*
X134258959Y-118634538D01*
X134299681Y-118577762D01*
X134364633Y-118552015D01*
X134433195Y-118565472D01*
X134483598Y-118613859D01*
X134500000Y-118675493D01*
X134500000Y-119187999D01*
X134480315Y-119255038D01*
X134450400Y-119287199D01*
X133500000Y-119999999D01*
X133500000Y-129460643D01*
X133480315Y-129527682D01*
X133477304Y-129532152D01*
X130537052Y-133697509D01*
X130482310Y-133740926D01*
X130435748Y-133750000D01*
X100624500Y-133750000D01*
X100557461Y-133730315D01*
X100511706Y-133677511D01*
X100500500Y-133626000D01*
X100500500Y-132250000D01*
X102400001Y-132250000D01*
X102400001Y-132499986D01*
X102410494Y-132602697D01*
X102465641Y-132769119D01*
X102465643Y-132769124D01*
X102557684Y-132918345D01*
X102681654Y-133042315D01*
X102830875Y-133134356D01*
X102830880Y-133134358D01*
X102997302Y-133189505D01*
X102997309Y-133189506D01*
X103100019Y-133199999D01*
X103249999Y-133199999D01*
X103250000Y-133199998D01*
X103250000Y-132250000D01*
X102400001Y-132250000D01*
X100500500Y-132250000D01*
X100500500Y-131750000D01*
X102400000Y-131750000D01*
X103250000Y-131750000D01*
X103250000Y-130800000D01*
X103100027Y-130800000D01*
X103100012Y-130800001D01*
X102997302Y-130810494D01*
X102830880Y-130865641D01*
X102830875Y-130865643D01*
X102681654Y-130957684D01*
X102557684Y-131081654D01*
X102465643Y-131230875D01*
X102465641Y-131230880D01*
X102410494Y-131397302D01*
X102410493Y-131397309D01*
X102400000Y-131500013D01*
X102400000Y-131750000D01*
X100500500Y-131750000D01*
X100500500Y-121500000D01*
X102337501Y-121500000D01*
X102337501Y-121774986D01*
X102347994Y-121877697D01*
X102403141Y-122044119D01*
X102403143Y-122044124D01*
X102495184Y-122193345D01*
X102619154Y-122317315D01*
X102768375Y-122409356D01*
X102768380Y-122409358D01*
X102934802Y-122464505D01*
X102934809Y-122464506D01*
X103037519Y-122474999D01*
X103174999Y-122474999D01*
X103175000Y-122474998D01*
X103175000Y-121500000D01*
X102337501Y-121500000D01*
X100500500Y-121500000D01*
X100500500Y-121000000D01*
X102337500Y-121000000D01*
X103175000Y-121000000D01*
X103175000Y-120025000D01*
X103037527Y-120025000D01*
X103037512Y-120025001D01*
X102934802Y-120035494D01*
X102768380Y-120090641D01*
X102768375Y-120090643D01*
X102619154Y-120182684D01*
X102495184Y-120306654D01*
X102403143Y-120455875D01*
X102403141Y-120455880D01*
X102347994Y-120622302D01*
X102347993Y-120622309D01*
X102337500Y-120725013D01*
X102337500Y-121000000D01*
X100500500Y-121000000D01*
X100500500Y-116200005D01*
X102095202Y-116200005D01*
X102114361Y-116431218D01*
X102171317Y-116656135D01*
X102264515Y-116868606D01*
X102348812Y-116997633D01*
X103016922Y-116329523D01*
X103040507Y-116409844D01*
X103118239Y-116530798D01*
X103226900Y-116624952D01*
X103357685Y-116684680D01*
X103367466Y-116686086D01*
X102701201Y-117352351D01*
X102731649Y-117376050D01*
X102935697Y-117486476D01*
X102935706Y-117486479D01*
X103155139Y-117561811D01*
X103383993Y-117600000D01*
X103616007Y-117600000D01*
X103844860Y-117561811D01*
X104064293Y-117486479D01*
X104064301Y-117486476D01*
X104268355Y-117376047D01*
X104298797Y-117352351D01*
X104298798Y-117352350D01*
X103632534Y-116686086D01*
X103642315Y-116684680D01*
X103773100Y-116624952D01*
X103881761Y-116530798D01*
X103959493Y-116409844D01*
X103983076Y-116329523D01*
X104663181Y-117009628D01*
X104696666Y-117070951D01*
X104699500Y-117097309D01*
X104699500Y-118182861D01*
X104698312Y-118199988D01*
X104697227Y-118207765D01*
X104699368Y-118254079D01*
X104699500Y-118259804D01*
X104699500Y-118277842D01*
X104699947Y-118282671D01*
X104701181Y-118293305D01*
X104702415Y-118319992D01*
X104702416Y-118319997D01*
X104705214Y-118326334D01*
X104713664Y-118353620D01*
X104714937Y-118360429D01*
X104714937Y-118360430D01*
X104714939Y-118360433D01*
X104729001Y-118383146D01*
X104736997Y-118398315D01*
X104747794Y-118422765D01*
X104747795Y-118422766D01*
X104747796Y-118422768D01*
X104752689Y-118427661D01*
X104770435Y-118450065D01*
X104774077Y-118455948D01*
X104774079Y-118455950D01*
X104774080Y-118455951D01*
X104774081Y-118455952D01*
X104795396Y-118472048D01*
X104808350Y-118483321D01*
X105163181Y-118838152D01*
X105196666Y-118899475D01*
X105199500Y-118925833D01*
X105199500Y-120203025D01*
X105179815Y-120270064D01*
X105127011Y-120315819D01*
X105087082Y-120326483D01*
X105077799Y-120327353D01*
X105077798Y-120327353D01*
X104949619Y-120372206D01*
X104949617Y-120372207D01*
X104840350Y-120452850D01*
X104759707Y-120562117D01*
X104737342Y-120626033D01*
X104696620Y-120682808D01*
X104631667Y-120708555D01*
X104563105Y-120695098D01*
X104512703Y-120646711D01*
X104502595Y-120624081D01*
X104446858Y-120455880D01*
X104446856Y-120455875D01*
X104354815Y-120306654D01*
X104230845Y-120182684D01*
X104081624Y-120090643D01*
X104081619Y-120090641D01*
X103915197Y-120035494D01*
X103915190Y-120035493D01*
X103812486Y-120025000D01*
X103675000Y-120025000D01*
X103675000Y-122475137D01*
X103708318Y-122536155D01*
X103703334Y-122605847D01*
X103674833Y-122650194D01*
X103334986Y-122990041D01*
X103322035Y-123001312D01*
X103315767Y-123006044D01*
X103284522Y-123040318D01*
X103280574Y-123044453D01*
X103263778Y-123061251D01*
X103262332Y-123059806D01*
X103211900Y-123093723D01*
X103174493Y-123099500D01*
X103095730Y-123099500D01*
X103065300Y-123102353D01*
X103065298Y-123102353D01*
X102937119Y-123147206D01*
X102937117Y-123147207D01*
X102827850Y-123227850D01*
X102747207Y-123337117D01*
X102747206Y-123337119D01*
X102702353Y-123465298D01*
X102702353Y-123465300D01*
X102699500Y-123495730D01*
X102699500Y-124504269D01*
X102702353Y-124534699D01*
X102702353Y-124534701D01*
X102741755Y-124647302D01*
X102747207Y-124662882D01*
X102827850Y-124772150D01*
X102937118Y-124852793D01*
X102959464Y-124860612D01*
X103065299Y-124897646D01*
X103095730Y-124900500D01*
X103875167Y-124900500D01*
X103942206Y-124920185D01*
X103987961Y-124972989D01*
X103997905Y-125042147D01*
X103968880Y-125105703D01*
X103962848Y-125112181D01*
X103286848Y-125788181D01*
X103225525Y-125821666D01*
X103199167Y-125824500D01*
X103033230Y-125824500D01*
X103002800Y-125827353D01*
X103002798Y-125827353D01*
X102874619Y-125872206D01*
X102874617Y-125872207D01*
X102765350Y-125952850D01*
X102684707Y-126062117D01*
X102684706Y-126062119D01*
X102639853Y-126190298D01*
X102639853Y-126190300D01*
X102637000Y-126220730D01*
X102637000Y-127279269D01*
X102639853Y-127309699D01*
X102639853Y-127309701D01*
X102676150Y-127413428D01*
X102684707Y-127437882D01*
X102765350Y-127547150D01*
X102874618Y-127627793D01*
X102897118Y-127635666D01*
X103002799Y-127672646D01*
X103033230Y-127675500D01*
X103350165Y-127675500D01*
X103417204Y-127695185D01*
X103462959Y-127747989D01*
X103472903Y-127817147D01*
X103443878Y-127880703D01*
X103437846Y-127887181D01*
X103334985Y-127990042D01*
X103322033Y-128001313D01*
X103315769Y-128006043D01*
X103284522Y-128040318D01*
X103280574Y-128044453D01*
X103267827Y-128057200D01*
X103264746Y-128060911D01*
X103258085Y-128069319D01*
X103240083Y-128089066D01*
X103240083Y-128089067D01*
X103237578Y-128095533D01*
X103224259Y-128120802D01*
X103220345Y-128126515D01*
X103220343Y-128126520D01*
X103214228Y-128152517D01*
X103209151Y-128168913D01*
X103199500Y-128193826D01*
X103199500Y-128200751D01*
X103196206Y-128229141D01*
X103191990Y-128247066D01*
X103190067Y-128246613D01*
X103171995Y-128299071D01*
X103117134Y-128342339D01*
X103082464Y-128350744D01*
X103065300Y-128352353D01*
X103065298Y-128352353D01*
X102937119Y-128397206D01*
X102937117Y-128397207D01*
X102827850Y-128477850D01*
X102747207Y-128587117D01*
X102747206Y-128587119D01*
X102702353Y-128715298D01*
X102702353Y-128715300D01*
X102699500Y-128745730D01*
X102699500Y-129754269D01*
X102702353Y-129784699D01*
X102702353Y-129784701D01*
X102742699Y-129900000D01*
X102747207Y-129912882D01*
X102827850Y-130022150D01*
X102937118Y-130102793D01*
X102976974Y-130116739D01*
X103065299Y-130147646D01*
X103095730Y-130150500D01*
X103095734Y-130150500D01*
X103424167Y-130150500D01*
X103491206Y-130170185D01*
X103511848Y-130186819D01*
X103913348Y-130588319D01*
X103946833Y-130649642D01*
X103941849Y-130719334D01*
X103899977Y-130775267D01*
X103834513Y-130799684D01*
X103825667Y-130800000D01*
X103750000Y-130800000D01*
X103750000Y-133199999D01*
X103899972Y-133199999D01*
X103899986Y-133199998D01*
X104002697Y-133189505D01*
X104169119Y-133134358D01*
X104169124Y-133134356D01*
X104318345Y-133042315D01*
X104442315Y-132918345D01*
X104534356Y-132769124D01*
X104534359Y-132769117D01*
X104549300Y-132724028D01*
X104589072Y-132666583D01*
X104653587Y-132639759D01*
X104722363Y-132652073D01*
X104766775Y-132689396D01*
X104827850Y-132772150D01*
X104937118Y-132852793D01*
X104979657Y-132867678D01*
X105065299Y-132897646D01*
X105095730Y-132900500D01*
X105095734Y-132900500D01*
X105904270Y-132900500D01*
X105934699Y-132897646D01*
X105934701Y-132897646D01*
X105998790Y-132875219D01*
X106062882Y-132852793D01*
X106172150Y-132772150D01*
X106252793Y-132662882D01*
X106275219Y-132598790D01*
X106297646Y-132534701D01*
X106297646Y-132534699D01*
X106300500Y-132504269D01*
X106300500Y-132450001D01*
X107390204Y-132450001D01*
X107390399Y-132452486D01*
X107436218Y-132610198D01*
X107519814Y-132751552D01*
X107519821Y-132751561D01*
X107635938Y-132867678D01*
X107635947Y-132867685D01*
X107777303Y-132951282D01*
X107777306Y-132951283D01*
X107935004Y-132997099D01*
X107935010Y-132997100D01*
X107971850Y-132999999D01*
X107971866Y-133000000D01*
X108375000Y-133000000D01*
X108375000Y-132450000D01*
X108875000Y-132450000D01*
X108875000Y-133000000D01*
X109278134Y-133000000D01*
X109278149Y-132999999D01*
X109314989Y-132997100D01*
X109314995Y-132997099D01*
X109472693Y-132951283D01*
X109472696Y-132951282D01*
X109614052Y-132867685D01*
X109614061Y-132867678D01*
X109730178Y-132751561D01*
X109730185Y-132751552D01*
X109813781Y-132610198D01*
X109859600Y-132452486D01*
X109859795Y-132450001D01*
X109859795Y-132450000D01*
X108875000Y-132450000D01*
X108375000Y-132450000D01*
X107390205Y-132450000D01*
X107390204Y-132450001D01*
X106300500Y-132450001D01*
X106300500Y-131949998D01*
X107390204Y-131949998D01*
X107390205Y-131950000D01*
X108375000Y-131950000D01*
X108875000Y-131950000D01*
X109859795Y-131950000D01*
X109859795Y-131949998D01*
X109859600Y-131947513D01*
X109848439Y-131909095D01*
X109848639Y-131839225D01*
X109886582Y-131780555D01*
X109950220Y-131751712D01*
X109967516Y-131750500D01*
X110524167Y-131750500D01*
X110591206Y-131770185D01*
X110611848Y-131786819D01*
X111490039Y-132665010D01*
X111501310Y-132677962D01*
X111506039Y-132684225D01*
X111506041Y-132684227D01*
X111506042Y-132684228D01*
X111520861Y-132697737D01*
X111540317Y-132715474D01*
X111544458Y-132719429D01*
X111557203Y-132732174D01*
X111560931Y-132735270D01*
X111569324Y-132741918D01*
X111577575Y-132749440D01*
X111589065Y-132759915D01*
X111589066Y-132759915D01*
X111589067Y-132759916D01*
X111595521Y-132762416D01*
X111620806Y-132775744D01*
X111626518Y-132779657D01*
X111633743Y-132781356D01*
X111652521Y-132785772D01*
X111668909Y-132790846D01*
X111693827Y-132800500D01*
X111700752Y-132800500D01*
X111729140Y-132803793D01*
X111735881Y-132805379D01*
X111762333Y-132801689D01*
X111779464Y-132800500D01*
X125682862Y-132800500D01*
X125699990Y-132801689D01*
X125707761Y-132802772D01*
X125707761Y-132802771D01*
X125707765Y-132802773D01*
X125754080Y-132800632D01*
X125759805Y-132800500D01*
X125777843Y-132800500D01*
X125777844Y-132800500D01*
X125777844Y-132800499D01*
X125782731Y-132800046D01*
X125793318Y-132798817D01*
X125819992Y-132797585D01*
X125826322Y-132794789D01*
X125853629Y-132786332D01*
X125860433Y-132785061D01*
X125860435Y-132785059D01*
X125860437Y-132785059D01*
X125883138Y-132771003D01*
X125898325Y-132762996D01*
X125922765Y-132752206D01*
X125927661Y-132747309D01*
X125950069Y-132729561D01*
X125955952Y-132725919D01*
X125972053Y-132704595D01*
X125983314Y-132691655D01*
X126662319Y-132012650D01*
X126723641Y-131979167D01*
X126793333Y-131984151D01*
X126837680Y-132012652D01*
X127490042Y-132665014D01*
X127501313Y-132677966D01*
X127506039Y-132684225D01*
X127506041Y-132684227D01*
X127506042Y-132684228D01*
X127520861Y-132697737D01*
X127540306Y-132715464D01*
X127544447Y-132719419D01*
X127557201Y-132732173D01*
X127560942Y-132735279D01*
X127569334Y-132741927D01*
X127589062Y-132759912D01*
X127589065Y-132759914D01*
X127589067Y-132759916D01*
X127595523Y-132762417D01*
X127620807Y-132775743D01*
X127626520Y-132779657D01*
X127652516Y-132785770D01*
X127668920Y-132790851D01*
X127693826Y-132800500D01*
X127693827Y-132800500D01*
X127700753Y-132800500D01*
X127729141Y-132803793D01*
X127735882Y-132805379D01*
X127759660Y-132802062D01*
X127762336Y-132801689D01*
X127779466Y-132800500D01*
X129932862Y-132800500D01*
X129949990Y-132801689D01*
X129957761Y-132802772D01*
X129957761Y-132802771D01*
X129957765Y-132802773D01*
X130004080Y-132800632D01*
X130009805Y-132800500D01*
X130027843Y-132800500D01*
X130027844Y-132800500D01*
X130027844Y-132800499D01*
X130032731Y-132800046D01*
X130043318Y-132798817D01*
X130069992Y-132797585D01*
X130076322Y-132794789D01*
X130103629Y-132786332D01*
X130110433Y-132785061D01*
X130110435Y-132785059D01*
X130110437Y-132785059D01*
X130133138Y-132771003D01*
X130148325Y-132762996D01*
X130172765Y-132752206D01*
X130177661Y-132747309D01*
X130200069Y-132729561D01*
X130205952Y-132725919D01*
X130222053Y-132704595D01*
X130233314Y-132691655D01*
X132115011Y-130809958D01*
X132127963Y-130798688D01*
X132134223Y-130793960D01*
X132134228Y-130793958D01*
X132165488Y-130759666D01*
X132169402Y-130755567D01*
X132182174Y-130742797D01*
X132182175Y-130742796D01*
X132185282Y-130739054D01*
X132191916Y-130730676D01*
X132209916Y-130710933D01*
X132212416Y-130704478D01*
X132225749Y-130679182D01*
X132229656Y-130673481D01*
X132235770Y-130647481D01*
X132240846Y-130631089D01*
X132250500Y-130606173D01*
X132250500Y-130599248D01*
X132253795Y-130570855D01*
X132255378Y-130564123D01*
X132255379Y-130564119D01*
X132251689Y-130537666D01*
X132250500Y-130520536D01*
X132250500Y-129224500D01*
X132270185Y-129157461D01*
X132322989Y-129111706D01*
X132363857Y-129102815D01*
X132363688Y-129101097D01*
X132369742Y-129100500D01*
X132369748Y-129100500D01*
X132384568Y-129097552D01*
X132428229Y-129088868D01*
X132428229Y-129088867D01*
X132428231Y-129088867D01*
X132494552Y-129044552D01*
X132538867Y-128978231D01*
X132538867Y-128978229D01*
X132538868Y-128978229D01*
X132547566Y-128934500D01*
X132550500Y-128919748D01*
X132550500Y-127080252D01*
X132550500Y-127080249D01*
X132550499Y-127080247D01*
X132538868Y-127021770D01*
X132538867Y-127021769D01*
X132494552Y-126955447D01*
X132428230Y-126911132D01*
X132428229Y-126911131D01*
X132369752Y-126899500D01*
X132369748Y-126899500D01*
X131530252Y-126899500D01*
X131530247Y-126899500D01*
X131471770Y-126911131D01*
X131471769Y-126911132D01*
X131405447Y-126955447D01*
X131361132Y-127021769D01*
X131361131Y-127021770D01*
X131349500Y-127080247D01*
X131349500Y-128919752D01*
X131361131Y-128978229D01*
X131361132Y-128978230D01*
X131405447Y-129044552D01*
X131471769Y-129088867D01*
X131471770Y-129088868D01*
X131529852Y-129100420D01*
X131530252Y-129100500D01*
X131530257Y-129100500D01*
X131536312Y-129101097D01*
X131536065Y-129103602D01*
X131592539Y-129120185D01*
X131638294Y-129172989D01*
X131649500Y-129224500D01*
X131649500Y-130374166D01*
X131629815Y-130441205D01*
X131613181Y-130461847D01*
X129911848Y-132163181D01*
X129850525Y-132196666D01*
X129824167Y-132199500D01*
X127925833Y-132199500D01*
X127858794Y-132179815D01*
X127838152Y-132163181D01*
X127086819Y-131411848D01*
X127053334Y-131350525D01*
X127050500Y-131324167D01*
X127050500Y-131184752D01*
X127549500Y-131184752D01*
X127561131Y-131243229D01*
X127561132Y-131243230D01*
X127605447Y-131309552D01*
X127671769Y-131353867D01*
X127671770Y-131353868D01*
X127730247Y-131365499D01*
X127730250Y-131365500D01*
X127730252Y-131365500D01*
X129269750Y-131365500D01*
X129269751Y-131365499D01*
X129284568Y-131362552D01*
X129328229Y-131353868D01*
X129328229Y-131353867D01*
X129328231Y-131353867D01*
X129394552Y-131309552D01*
X129438867Y-131243231D01*
X129438867Y-131243229D01*
X129438868Y-131243229D01*
X129450499Y-131184752D01*
X129450500Y-131184750D01*
X129450500Y-129115249D01*
X129450499Y-129115247D01*
X129438868Y-129056770D01*
X129438867Y-129056769D01*
X129394552Y-128990447D01*
X129328230Y-128946132D01*
X129328229Y-128946131D01*
X129269752Y-128934500D01*
X129269748Y-128934500D01*
X128924500Y-128934500D01*
X128857461Y-128914815D01*
X128811706Y-128862011D01*
X128800500Y-128810500D01*
X128800500Y-128425832D01*
X128820185Y-128358793D01*
X128836814Y-128338156D01*
X131165011Y-126009958D01*
X131177963Y-125998688D01*
X131184223Y-125993960D01*
X131184228Y-125993958D01*
X131215488Y-125959666D01*
X131219402Y-125955567D01*
X131232174Y-125942797D01*
X131232175Y-125942796D01*
X131235282Y-125939054D01*
X131241916Y-125930676D01*
X131259916Y-125910933D01*
X131262417Y-125904476D01*
X131275750Y-125879184D01*
X131275766Y-125879159D01*
X131279657Y-125873481D01*
X131285772Y-125847478D01*
X131290854Y-125831071D01*
X131292295Y-125827353D01*
X131300500Y-125806173D01*
X131300500Y-125799248D01*
X131303794Y-125770856D01*
X131305379Y-125764119D01*
X131301689Y-125737665D01*
X131300500Y-125720535D01*
X131300500Y-123020498D01*
X131320185Y-122953459D01*
X131372989Y-122907704D01*
X131442147Y-122897760D01*
X131491538Y-122916182D01*
X131512751Y-122929815D01*
X131559648Y-122959954D01*
X131697736Y-123000499D01*
X131697738Y-123000500D01*
X131697739Y-123000500D01*
X131841662Y-123000500D01*
X131841662Y-123000499D01*
X131965194Y-122964228D01*
X131979750Y-122959954D01*
X131979750Y-122959953D01*
X131979753Y-122959953D01*
X132100828Y-122882143D01*
X132195077Y-122773373D01*
X132254865Y-122642457D01*
X132275347Y-122500000D01*
X132256095Y-122366103D01*
X132254966Y-122342732D01*
X132255377Y-122333825D01*
X132255379Y-122333819D01*
X132251689Y-122307365D01*
X132250500Y-122290235D01*
X132250500Y-122224500D01*
X132270185Y-122157461D01*
X132322989Y-122111706D01*
X132363857Y-122102815D01*
X132363688Y-122101097D01*
X132369742Y-122100500D01*
X132369748Y-122100500D01*
X132384568Y-122097552D01*
X132428229Y-122088868D01*
X132428229Y-122088867D01*
X132428231Y-122088867D01*
X132494552Y-122044552D01*
X132538867Y-121978231D01*
X132538867Y-121978229D01*
X132538868Y-121978229D01*
X132550499Y-121919752D01*
X132550500Y-121919750D01*
X132550500Y-120080249D01*
X132550499Y-120080247D01*
X132538868Y-120021770D01*
X132538867Y-120021769D01*
X132494552Y-119955447D01*
X132428230Y-119911132D01*
X132428229Y-119911131D01*
X132369752Y-119899500D01*
X132369748Y-119899500D01*
X131530252Y-119899500D01*
X131530247Y-119899500D01*
X131459790Y-119913515D01*
X131459565Y-119912388D01*
X131402480Y-119918524D01*
X131340002Y-119887248D01*
X131304351Y-119827158D01*
X131300500Y-119796495D01*
X131300500Y-119049500D01*
X131320185Y-118982461D01*
X131372989Y-118936706D01*
X131424500Y-118925500D01*
X131816770Y-118925500D01*
X131847199Y-118922646D01*
X131847201Y-118922646D01*
X131913418Y-118899475D01*
X131975382Y-118877793D01*
X132084650Y-118797150D01*
X132165293Y-118687882D01*
X132203826Y-118577762D01*
X132210146Y-118559701D01*
X132210146Y-118559699D01*
X132213000Y-118529269D01*
X132213000Y-117470730D01*
X132210146Y-117440300D01*
X132210146Y-117440298D01*
X132167744Y-117319124D01*
X132165293Y-117312118D01*
X132084650Y-117202850D01*
X131975382Y-117122207D01*
X131975380Y-117122206D01*
X131847200Y-117077353D01*
X131816770Y-117074500D01*
X131816766Y-117074500D01*
X131033234Y-117074500D01*
X131033230Y-117074500D01*
X131002800Y-117077353D01*
X131002798Y-117077353D01*
X130874619Y-117122206D01*
X130874617Y-117122207D01*
X130765350Y-117202850D01*
X130684707Y-117312117D01*
X130684706Y-117312119D01*
X130639853Y-117440298D01*
X130639853Y-117440300D01*
X130637000Y-117470730D01*
X130637000Y-118529269D01*
X130639853Y-118559699D01*
X130639853Y-118559701D01*
X130675130Y-118660512D01*
X130684707Y-118687882D01*
X130684709Y-118687884D01*
X130685128Y-118688678D01*
X130685475Y-118690077D01*
X130687776Y-118696653D01*
X130687159Y-118696868D01*
X130699500Y-118746623D01*
X130699500Y-125574166D01*
X130679815Y-125641205D01*
X130663181Y-125661847D01*
X128334986Y-127990041D01*
X128322035Y-128001312D01*
X128315767Y-128006044D01*
X128284522Y-128040318D01*
X128280574Y-128044453D01*
X128267827Y-128057200D01*
X128264746Y-128060911D01*
X128258085Y-128069319D01*
X128240083Y-128089066D01*
X128240083Y-128089067D01*
X128237578Y-128095533D01*
X128224259Y-128120802D01*
X128220345Y-128126515D01*
X128220343Y-128126520D01*
X128214228Y-128152517D01*
X128209151Y-128168913D01*
X128199500Y-128193826D01*
X128199500Y-128200751D01*
X128196206Y-128229141D01*
X128194621Y-128235877D01*
X128194621Y-128235882D01*
X128198311Y-128262333D01*
X128199500Y-128279464D01*
X128199500Y-128810500D01*
X128179815Y-128877539D01*
X128127011Y-128923294D01*
X128075500Y-128934500D01*
X127730247Y-128934500D01*
X127671770Y-128946131D01*
X127671769Y-128946132D01*
X127605447Y-128990447D01*
X127561132Y-129056769D01*
X127561131Y-129056770D01*
X127549500Y-129115247D01*
X127549500Y-131184752D01*
X127050500Y-131184752D01*
X127050500Y-127797595D01*
X127070185Y-127730556D01*
X127122989Y-127684801D01*
X127133523Y-127680561D01*
X127212882Y-127652793D01*
X127322150Y-127572150D01*
X127402793Y-127462882D01*
X127439653Y-127357543D01*
X127447646Y-127334701D01*
X127447646Y-127334699D01*
X127450500Y-127304269D01*
X127450500Y-126695730D01*
X127447646Y-126665300D01*
X127447646Y-126665298D01*
X127402793Y-126537119D01*
X127402792Y-126537117D01*
X127381936Y-126508858D01*
X127322150Y-126427850D01*
X127212882Y-126347207D01*
X127212880Y-126347206D01*
X127084700Y-126302353D01*
X127054270Y-126299500D01*
X127054266Y-126299500D01*
X126445734Y-126299500D01*
X126445730Y-126299500D01*
X126415300Y-126302353D01*
X126415298Y-126302353D01*
X126287119Y-126347206D01*
X126287117Y-126347207D01*
X126177850Y-126427850D01*
X126097207Y-126537117D01*
X126097206Y-126537119D01*
X126052353Y-126665298D01*
X126052353Y-126665300D01*
X126049500Y-126695730D01*
X126049500Y-127304269D01*
X126052353Y-127334699D01*
X126052353Y-127334701D01*
X126097206Y-127462880D01*
X126097207Y-127462882D01*
X126177850Y-127572150D01*
X126287118Y-127652793D01*
X126366458Y-127680555D01*
X126423231Y-127721275D01*
X126448978Y-127786228D01*
X126449500Y-127797595D01*
X126449500Y-131324167D01*
X126429815Y-131391206D01*
X126413181Y-131411848D01*
X125661848Y-132163181D01*
X125600525Y-132196666D01*
X125574167Y-132199500D01*
X111925833Y-132199500D01*
X111858794Y-132179815D01*
X111838152Y-132163181D01*
X111408027Y-131733056D01*
X111374542Y-131671733D01*
X111379526Y-131602041D01*
X111384299Y-131590933D01*
X111428073Y-131501393D01*
X111438000Y-131433260D01*
X111438000Y-131066740D01*
X111437481Y-131063181D01*
X111428073Y-130998608D01*
X111408067Y-130957684D01*
X111376698Y-130893517D01*
X111376696Y-130893515D01*
X111376696Y-130893514D01*
X111293985Y-130810803D01*
X111188891Y-130759426D01*
X111120761Y-130749500D01*
X111120760Y-130749500D01*
X109879240Y-130749500D01*
X109879239Y-130749500D01*
X109811108Y-130759426D01*
X109706014Y-130810803D01*
X109623303Y-130893514D01*
X109571926Y-130998608D01*
X109562000Y-131066739D01*
X109562000Y-131309510D01*
X109542315Y-131376549D01*
X109489511Y-131422304D01*
X109420353Y-131432248D01*
X109403405Y-131428586D01*
X109314995Y-131402900D01*
X109314989Y-131402899D01*
X109278149Y-131400000D01*
X108875000Y-131400000D01*
X108875000Y-131950000D01*
X108375000Y-131950000D01*
X108375000Y-131400000D01*
X107971850Y-131400000D01*
X107935010Y-131402899D01*
X107935004Y-131402900D01*
X107777306Y-131448716D01*
X107777303Y-131448717D01*
X107635947Y-131532314D01*
X107635938Y-131532321D01*
X107519821Y-131648438D01*
X107519814Y-131648447D01*
X107436218Y-131789801D01*
X107390399Y-131947513D01*
X107390204Y-131949998D01*
X106300500Y-131949998D01*
X106300500Y-131495730D01*
X106297646Y-131465300D01*
X106297646Y-131465298D01*
X106252793Y-131337119D01*
X106252792Y-131337117D01*
X106172150Y-131227850D01*
X106062882Y-131147207D01*
X106062880Y-131147206D01*
X105934700Y-131102353D01*
X105904270Y-131099500D01*
X105904266Y-131099500D01*
X105325833Y-131099500D01*
X105258794Y-131079815D01*
X105238152Y-131063181D01*
X104658231Y-130483260D01*
X107687000Y-130483260D01*
X107696926Y-130551391D01*
X107748303Y-130656485D01*
X107831014Y-130739196D01*
X107831015Y-130739196D01*
X107831017Y-130739198D01*
X107936107Y-130790573D01*
X107959326Y-130793956D01*
X108004239Y-130800500D01*
X108004240Y-130800500D01*
X109245761Y-130800500D01*
X109268780Y-130797146D01*
X109313893Y-130790573D01*
X109418983Y-130739198D01*
X109501698Y-130656483D01*
X109553073Y-130551393D01*
X109563000Y-130483260D01*
X109563000Y-130400000D01*
X112750000Y-130400000D01*
X112750000Y-131212844D01*
X112756401Y-131272372D01*
X112756403Y-131272379D01*
X112806645Y-131407086D01*
X112806649Y-131407093D01*
X112892809Y-131522187D01*
X112892812Y-131522190D01*
X113007906Y-131608350D01*
X113007913Y-131608354D01*
X113142620Y-131658596D01*
X113142627Y-131658598D01*
X113202155Y-131664999D01*
X113202172Y-131665000D01*
X113750000Y-131665000D01*
X113750000Y-130400000D01*
X114250000Y-130400000D01*
X114250000Y-131665000D01*
X114797828Y-131665000D01*
X114797844Y-131664999D01*
X114857372Y-131658598D01*
X114857379Y-131658596D01*
X114992086Y-131608354D01*
X114992093Y-131608350D01*
X115107187Y-131522190D01*
X115107190Y-131522187D01*
X115193350Y-131407093D01*
X115193354Y-131407086D01*
X115243596Y-131272379D01*
X115243598Y-131272372D01*
X115249999Y-131212844D01*
X115250000Y-131212827D01*
X115250000Y-130400000D01*
X114250000Y-130400000D01*
X113750000Y-130400000D01*
X112750000Y-130400000D01*
X109563000Y-130400000D01*
X109563000Y-130116740D01*
X109553073Y-130048607D01*
X109506823Y-129954000D01*
X117109453Y-129954000D01*
X117129934Y-130096456D01*
X117139198Y-130116740D01*
X117189723Y-130227373D01*
X117283972Y-130336143D01*
X117405047Y-130413953D01*
X117405050Y-130413954D01*
X117405049Y-130413954D01*
X117543136Y-130454499D01*
X117543138Y-130454500D01*
X117543139Y-130454500D01*
X117687062Y-130454500D01*
X117750849Y-130435770D01*
X117763784Y-130431971D01*
X117827104Y-130430242D01*
X117841018Y-130433514D01*
X117850617Y-130435771D01*
X117867009Y-130440846D01*
X117891927Y-130450500D01*
X117898852Y-130450500D01*
X117927240Y-130453793D01*
X117933981Y-130455379D01*
X117933981Y-130455378D01*
X117945168Y-130458010D01*
X117944722Y-130459901D01*
X117997282Y-130478008D01*
X118040551Y-130532867D01*
X118049500Y-130579119D01*
X118049500Y-131184752D01*
X118061131Y-131243229D01*
X118061132Y-131243230D01*
X118105447Y-131309552D01*
X118171769Y-131353867D01*
X118171770Y-131353868D01*
X118230247Y-131365499D01*
X118230250Y-131365500D01*
X118230252Y-131365500D01*
X119769750Y-131365500D01*
X119769751Y-131365499D01*
X119784568Y-131362552D01*
X119828229Y-131353868D01*
X119828229Y-131353867D01*
X119828231Y-131353867D01*
X119894552Y-131309552D01*
X119938867Y-131243231D01*
X119938867Y-131243229D01*
X119938868Y-131243229D01*
X119950499Y-131184752D01*
X119950500Y-131184750D01*
X119950500Y-130400000D01*
X122250000Y-130400000D01*
X122250000Y-131212844D01*
X122256401Y-131272372D01*
X122256403Y-131272379D01*
X122306645Y-131407086D01*
X122306649Y-131407093D01*
X122392809Y-131522187D01*
X122392812Y-131522190D01*
X122507906Y-131608350D01*
X122507913Y-131608354D01*
X122642620Y-131658596D01*
X122642627Y-131658598D01*
X122702155Y-131664999D01*
X122702172Y-131665000D01*
X123250000Y-131665000D01*
X123250000Y-130400000D01*
X123750000Y-130400000D01*
X123750000Y-131665000D01*
X124297828Y-131665000D01*
X124297844Y-131664999D01*
X124357372Y-131658598D01*
X124357379Y-131658596D01*
X124492086Y-131608354D01*
X124492093Y-131608350D01*
X124607187Y-131522190D01*
X124607190Y-131522187D01*
X124693350Y-131407093D01*
X124693354Y-131407086D01*
X124743596Y-131272379D01*
X124743598Y-131272372D01*
X124749999Y-131212844D01*
X124750000Y-131212827D01*
X124750000Y-130400000D01*
X123750000Y-130400000D01*
X123250000Y-130400000D01*
X122250000Y-130400000D01*
X119950500Y-130400000D01*
X119950500Y-129900000D01*
X122250000Y-129900000D01*
X123250000Y-129900000D01*
X123250000Y-128635000D01*
X123750000Y-128635000D01*
X123750000Y-129900000D01*
X124750000Y-129900000D01*
X124750000Y-129087172D01*
X124749999Y-129087155D01*
X124743598Y-129027627D01*
X124743596Y-129027620D01*
X124693354Y-128892913D01*
X124693350Y-128892906D01*
X124607190Y-128777812D01*
X124607187Y-128777809D01*
X124492093Y-128691649D01*
X124492086Y-128691645D01*
X124357379Y-128641403D01*
X124357372Y-128641401D01*
X124297844Y-128635000D01*
X123750000Y-128635000D01*
X123250000Y-128635000D01*
X122702155Y-128635000D01*
X122642627Y-128641401D01*
X122642620Y-128641403D01*
X122507913Y-128691645D01*
X122507906Y-128691649D01*
X122392812Y-128777809D01*
X122392809Y-128777812D01*
X122306649Y-128892906D01*
X122306645Y-128892913D01*
X122256403Y-129027620D01*
X122256401Y-129027627D01*
X122250000Y-129087155D01*
X122250000Y-129900000D01*
X119950500Y-129900000D01*
X119950500Y-129115249D01*
X119950499Y-129115247D01*
X119938868Y-129056770D01*
X119938867Y-129056769D01*
X119894552Y-128990447D01*
X119828230Y-128946132D01*
X119828229Y-128946131D01*
X119769752Y-128934500D01*
X119769748Y-128934500D01*
X118230252Y-128934500D01*
X118230247Y-128934500D01*
X118171770Y-128946131D01*
X118171769Y-128946132D01*
X118105447Y-128990447D01*
X118061132Y-129056769D01*
X118061131Y-129056770D01*
X118049500Y-129115247D01*
X118049500Y-129411136D01*
X118029815Y-129478175D01*
X117977011Y-129523930D01*
X117907853Y-129533874D01*
X117858462Y-129515453D01*
X117845897Y-129507378D01*
X117825153Y-129494047D01*
X117825151Y-129494046D01*
X117825149Y-129494045D01*
X117687063Y-129453500D01*
X117687061Y-129453500D01*
X117543139Y-129453500D01*
X117543136Y-129453500D01*
X117405049Y-129494045D01*
X117283973Y-129571856D01*
X117189723Y-129680626D01*
X117189722Y-129680628D01*
X117129934Y-129811543D01*
X117109453Y-129954000D01*
X109506823Y-129954000D01*
X109501698Y-129943517D01*
X109501696Y-129943515D01*
X109501696Y-129943514D01*
X109458182Y-129900000D01*
X112750000Y-129900000D01*
X113750000Y-129900000D01*
X113750000Y-128635000D01*
X114250000Y-128635000D01*
X114250000Y-129900000D01*
X115250000Y-129900000D01*
X115250000Y-129087172D01*
X115249999Y-129087155D01*
X115243598Y-129027627D01*
X115243596Y-129027620D01*
X115193354Y-128892913D01*
X115193350Y-128892906D01*
X115107190Y-128777812D01*
X115107187Y-128777809D01*
X114992093Y-128691649D01*
X114992086Y-128691645D01*
X114857379Y-128641403D01*
X114857372Y-128641401D01*
X114797844Y-128635000D01*
X114250000Y-128635000D01*
X113750000Y-128635000D01*
X113202155Y-128635000D01*
X113142627Y-128641401D01*
X113142620Y-128641403D01*
X113007913Y-128691645D01*
X113007906Y-128691649D01*
X112892812Y-128777809D01*
X112892809Y-128777812D01*
X112806649Y-128892906D01*
X112806645Y-128892913D01*
X112756403Y-129027620D01*
X112756401Y-129027627D01*
X112750000Y-129087155D01*
X112750000Y-129900000D01*
X109458182Y-129900000D01*
X109418985Y-129860803D01*
X109313891Y-129809426D01*
X109245761Y-129799500D01*
X109245760Y-129799500D01*
X109049500Y-129799500D01*
X108982461Y-129779815D01*
X108936706Y-129727011D01*
X108925500Y-129675500D01*
X108925500Y-128800833D01*
X108945185Y-128733794D01*
X108961819Y-128713152D01*
X108982174Y-128692797D01*
X109138152Y-128536817D01*
X109199474Y-128503334D01*
X109225832Y-128500500D01*
X109321962Y-128500500D01*
X109321962Y-128500499D01*
X109460053Y-128459953D01*
X109581128Y-128382143D01*
X109675377Y-128273373D01*
X109735165Y-128142457D01*
X109755647Y-128000000D01*
X109735165Y-127857543D01*
X109675377Y-127726627D01*
X109581128Y-127617857D01*
X109460053Y-127540047D01*
X109460051Y-127540046D01*
X109460049Y-127540045D01*
X109460050Y-127540045D01*
X109321963Y-127499500D01*
X109321961Y-127499500D01*
X109178039Y-127499500D01*
X109178036Y-127499500D01*
X109039949Y-127540045D01*
X108918873Y-127617856D01*
X108918872Y-127617856D01*
X108918872Y-127617857D01*
X108906290Y-127632377D01*
X108824623Y-127726626D01*
X108824622Y-127726628D01*
X108764834Y-127857543D01*
X108744353Y-128000000D01*
X108744353Y-128000001D01*
X108745661Y-128009103D01*
X108735713Y-128078261D01*
X108710604Y-128114424D01*
X108577236Y-128247793D01*
X108577234Y-128247794D01*
X108459981Y-128365045D01*
X108447031Y-128376315D01*
X108440768Y-128381044D01*
X108409522Y-128415318D01*
X108405574Y-128419453D01*
X108392827Y-128432200D01*
X108389746Y-128435911D01*
X108383085Y-128444319D01*
X108365083Y-128464066D01*
X108365083Y-128464067D01*
X108362578Y-128470533D01*
X108349259Y-128495802D01*
X108345345Y-128501515D01*
X108345343Y-128501520D01*
X108339228Y-128527517D01*
X108334151Y-128543913D01*
X108324500Y-128568826D01*
X108324500Y-128575751D01*
X108321206Y-128604141D01*
X108319621Y-128610877D01*
X108319621Y-128610882D01*
X108323311Y-128637333D01*
X108324500Y-128654464D01*
X108324500Y-129675500D01*
X108304815Y-129742539D01*
X108252011Y-129788294D01*
X108200500Y-129799500D01*
X108004239Y-129799500D01*
X107936108Y-129809426D01*
X107831014Y-129860803D01*
X107748303Y-129943514D01*
X107696926Y-130048608D01*
X107687000Y-130116739D01*
X107687000Y-130483260D01*
X104658231Y-130483260D01*
X104258209Y-130083238D01*
X104224724Y-130021915D01*
X104229708Y-129952223D01*
X104246120Y-129921923D01*
X104252793Y-129912882D01*
X104288253Y-129811543D01*
X104297646Y-129784701D01*
X104297646Y-129784699D01*
X104300500Y-129754269D01*
X104300500Y-128745730D01*
X104297646Y-128715300D01*
X104297646Y-128715298D01*
X104261107Y-128610877D01*
X104252793Y-128587118D01*
X104252791Y-128587115D01*
X104252790Y-128587113D01*
X104187120Y-128498133D01*
X104163149Y-128432504D01*
X104178465Y-128364334D01*
X104228205Y-128315266D01*
X104286890Y-128300500D01*
X104713110Y-128300500D01*
X104780149Y-128320185D01*
X104825904Y-128372989D01*
X104835848Y-128442147D01*
X104812880Y-128498133D01*
X104747209Y-128587113D01*
X104747206Y-128587119D01*
X104702353Y-128715298D01*
X104702353Y-128715300D01*
X104699500Y-128745730D01*
X104699500Y-129754269D01*
X104702353Y-129784699D01*
X104702353Y-129784701D01*
X104742699Y-129900000D01*
X104747207Y-129912882D01*
X104827850Y-130022150D01*
X104937118Y-130102793D01*
X104976974Y-130116739D01*
X105065299Y-130147646D01*
X105095730Y-130150500D01*
X105095734Y-130150500D01*
X105904270Y-130150500D01*
X105934699Y-130147646D01*
X105934701Y-130147646D01*
X105998790Y-130125219D01*
X106062882Y-130102793D01*
X106172150Y-130022150D01*
X106252793Y-129912882D01*
X106288253Y-129811543D01*
X106297646Y-129784701D01*
X106297646Y-129784699D01*
X106300500Y-129754269D01*
X106300500Y-129674500D01*
X106320185Y-129607461D01*
X106372989Y-129561706D01*
X106424500Y-129550500D01*
X106932862Y-129550500D01*
X106949990Y-129551689D01*
X106957761Y-129552772D01*
X106957761Y-129552771D01*
X106957765Y-129552773D01*
X107004080Y-129550632D01*
X107009805Y-129550500D01*
X107027843Y-129550500D01*
X107027844Y-129550500D01*
X107027844Y-129550499D01*
X107032731Y-129550046D01*
X107043318Y-129548817D01*
X107069992Y-129547585D01*
X107076322Y-129544789D01*
X107103629Y-129536332D01*
X107110433Y-129535061D01*
X107133150Y-129520995D01*
X107148337Y-129512991D01*
X107152721Y-129511055D01*
X107202786Y-129500500D01*
X107321962Y-129500500D01*
X107321962Y-129500499D01*
X107460053Y-129459953D01*
X107581128Y-129382143D01*
X107675377Y-129273373D01*
X107735165Y-129142457D01*
X107755647Y-129000000D01*
X107735165Y-128857543D01*
X107675377Y-128726627D01*
X107581128Y-128617857D01*
X107460053Y-128540047D01*
X107460051Y-128540046D01*
X107460049Y-128540045D01*
X107460050Y-128540045D01*
X107321963Y-128499500D01*
X107321961Y-128499500D01*
X107178039Y-128499500D01*
X107178036Y-128499500D01*
X107039949Y-128540045D01*
X106918873Y-128617856D01*
X106824623Y-128726626D01*
X106824620Y-128726630D01*
X106764835Y-128857542D01*
X106763985Y-128860438D01*
X106762354Y-128862975D01*
X106761151Y-128865610D01*
X106760772Y-128865436D01*
X106726209Y-128919215D01*
X106662652Y-128948238D01*
X106645009Y-128949500D01*
X106424500Y-128949500D01*
X106357461Y-128929815D01*
X106311706Y-128877011D01*
X106300500Y-128825500D01*
X106300500Y-128745730D01*
X106297646Y-128715300D01*
X106297646Y-128715298D01*
X106261107Y-128610877D01*
X106252793Y-128587118D01*
X106252791Y-128587115D01*
X106252790Y-128587113D01*
X106187120Y-128498133D01*
X106163149Y-128432504D01*
X106178465Y-128364334D01*
X106228205Y-128315266D01*
X106286890Y-128300500D01*
X106432862Y-128300500D01*
X106449990Y-128301689D01*
X106457761Y-128302772D01*
X106457761Y-128302771D01*
X106457765Y-128302773D01*
X106504080Y-128300632D01*
X106509805Y-128300500D01*
X106527843Y-128300500D01*
X106527844Y-128300500D01*
X106527844Y-128300499D01*
X106532731Y-128300046D01*
X106543318Y-128298817D01*
X106569992Y-128297585D01*
X106576322Y-128294789D01*
X106603629Y-128286332D01*
X106610433Y-128285061D01*
X106610435Y-128285059D01*
X106610437Y-128285059D01*
X106633138Y-128271003D01*
X106648325Y-128262996D01*
X106672765Y-128252206D01*
X106677661Y-128247309D01*
X106700069Y-128229561D01*
X106705952Y-128225919D01*
X106722053Y-128204595D01*
X106733307Y-128191662D01*
X106888153Y-128036816D01*
X106949474Y-128003334D01*
X106975832Y-128000500D01*
X107071962Y-128000500D01*
X107071962Y-128000499D01*
X107210053Y-127959953D01*
X107331128Y-127882143D01*
X107425377Y-127773373D01*
X107485165Y-127642457D01*
X107505647Y-127500000D01*
X107485165Y-127357543D01*
X107425377Y-127226627D01*
X107331128Y-127117857D01*
X107296581Y-127095655D01*
X107210051Y-127040045D01*
X107159245Y-127025128D01*
X107100467Y-126987354D01*
X107071442Y-126923798D01*
X107081386Y-126854640D01*
X107106496Y-126818473D01*
X107400111Y-126524858D01*
X107413063Y-126513588D01*
X107419323Y-126508860D01*
X107419328Y-126508858D01*
X107450588Y-126474566D01*
X107454502Y-126470467D01*
X107467274Y-126457697D01*
X107467275Y-126457696D01*
X107470382Y-126453954D01*
X107477016Y-126445576D01*
X107495016Y-126425833D01*
X107497516Y-126419378D01*
X107510849Y-126394082D01*
X107514756Y-126388381D01*
X107520870Y-126362381D01*
X107525946Y-126345989D01*
X107535600Y-126321073D01*
X107535600Y-126314148D01*
X107538895Y-126285755D01*
X107540478Y-126279023D01*
X107540479Y-126279019D01*
X107536789Y-126252565D01*
X107535600Y-126235435D01*
X107535600Y-126002995D01*
X107555285Y-125935956D01*
X107608089Y-125890201D01*
X107677247Y-125880257D01*
X107740803Y-125909282D01*
X107759364Y-125929355D01*
X107827850Y-126022150D01*
X107937118Y-126102793D01*
X107979845Y-126117744D01*
X108065299Y-126147646D01*
X108095730Y-126150500D01*
X108095734Y-126150500D01*
X108904270Y-126150500D01*
X108934699Y-126147646D01*
X108934701Y-126147646D01*
X108998790Y-126125219D01*
X109062882Y-126102793D01*
X109172150Y-126022150D01*
X109233225Y-125939395D01*
X109288870Y-125897147D01*
X109358526Y-125891688D01*
X109420075Y-125924755D01*
X109450699Y-125974026D01*
X109465642Y-126019121D01*
X109465643Y-126019124D01*
X109557684Y-126168345D01*
X109681654Y-126292315D01*
X109830875Y-126384356D01*
X109830880Y-126384358D01*
X109997302Y-126439505D01*
X109997309Y-126439506D01*
X110100019Y-126449999D01*
X110249999Y-126449999D01*
X110250000Y-126449998D01*
X110250000Y-125500000D01*
X110750000Y-125500000D01*
X110750000Y-126449999D01*
X110899972Y-126449999D01*
X110899986Y-126449998D01*
X111002697Y-126439505D01*
X111169119Y-126384358D01*
X111169124Y-126384356D01*
X111318345Y-126292315D01*
X111442315Y-126168345D01*
X111534356Y-126019124D01*
X111534358Y-126019119D01*
X111589505Y-125852697D01*
X111589506Y-125852690D01*
X111599999Y-125749986D01*
X111600000Y-125749973D01*
X111600000Y-125500000D01*
X110750000Y-125500000D01*
X110250000Y-125500000D01*
X110250000Y-125124000D01*
X110269685Y-125056961D01*
X110322489Y-125011206D01*
X110374000Y-125000000D01*
X111599999Y-125000000D01*
X111599999Y-124750028D01*
X111599998Y-124750013D01*
X111589505Y-124647302D01*
X111534358Y-124480880D01*
X111534356Y-124480875D01*
X111442315Y-124331654D01*
X111318345Y-124207684D01*
X111169124Y-124115643D01*
X111169119Y-124115641D01*
X111117561Y-124098557D01*
X111060116Y-124058785D01*
X111033293Y-123994269D01*
X111045608Y-123925493D01*
X111075365Y-123887136D01*
X111081120Y-123882147D01*
X111081128Y-123882143D01*
X111175377Y-123773373D01*
X111235165Y-123642457D01*
X111255647Y-123500000D01*
X111235165Y-123357543D01*
X111175377Y-123226627D01*
X111175375Y-123226625D01*
X111175374Y-123226622D01*
X111080787Y-123117462D01*
X111051762Y-123053906D01*
X111050500Y-123036260D01*
X111050500Y-122674529D01*
X111070185Y-122607490D01*
X111100867Y-122574759D01*
X111107393Y-122569942D01*
X111172150Y-122522150D01*
X111252793Y-122412882D01*
X111275219Y-122348790D01*
X111297646Y-122284701D01*
X111297646Y-122284699D01*
X111300500Y-122254269D01*
X111300500Y-121245730D01*
X111297646Y-121215300D01*
X111297646Y-121215298D01*
X111252793Y-121087119D01*
X111252792Y-121087117D01*
X111172150Y-120977850D01*
X111062882Y-120897207D01*
X111062880Y-120897206D01*
X110934700Y-120852353D01*
X110904270Y-120849500D01*
X110904266Y-120849500D01*
X110095734Y-120849500D01*
X110095730Y-120849500D01*
X110065300Y-120852353D01*
X110065298Y-120852353D01*
X109937119Y-120897206D01*
X109937117Y-120897207D01*
X109827850Y-120977850D01*
X109747207Y-121087117D01*
X109747206Y-121087119D01*
X109702353Y-121215298D01*
X109702353Y-121215300D01*
X109699500Y-121245730D01*
X109699500Y-122254269D01*
X109702353Y-122284699D01*
X109702353Y-122284701D01*
X109745947Y-122409282D01*
X109747207Y-122412882D01*
X109827850Y-122522150D01*
X109937118Y-122602793D01*
X109979845Y-122617744D01*
X110065299Y-122647646D01*
X110095730Y-122650500D01*
X110095734Y-122650500D01*
X110325500Y-122650500D01*
X110392539Y-122670185D01*
X110438294Y-122722989D01*
X110449500Y-122774500D01*
X110449500Y-123036260D01*
X110429815Y-123103299D01*
X110419213Y-123117462D01*
X110324625Y-123226622D01*
X110324622Y-123226628D01*
X110264834Y-123357543D01*
X110244353Y-123500000D01*
X110264834Y-123642456D01*
X110324622Y-123773371D01*
X110324625Y-123773377D01*
X110386512Y-123844798D01*
X110415537Y-123908353D01*
X110405593Y-123977512D01*
X110359838Y-124030316D01*
X110292800Y-124050000D01*
X110100029Y-124050000D01*
X110100012Y-124050001D01*
X109997302Y-124060494D01*
X109830880Y-124115641D01*
X109830875Y-124115643D01*
X109681654Y-124207684D01*
X109557684Y-124331654D01*
X109465643Y-124480875D01*
X109465640Y-124480883D01*
X109450698Y-124525974D01*
X109410925Y-124583418D01*
X109346409Y-124610240D01*
X109277633Y-124597924D01*
X109233223Y-124560601D01*
X109172151Y-124477851D01*
X109168514Y-124475167D01*
X109062882Y-124397207D01*
X109062880Y-124397206D01*
X108934700Y-124352353D01*
X108912921Y-124350311D01*
X108848013Y-124324453D01*
X108807388Y-124267607D01*
X108800500Y-124226853D01*
X108800500Y-122773146D01*
X108820185Y-122706107D01*
X108872989Y-122660352D01*
X108912919Y-122649688D01*
X108934699Y-122647646D01*
X108934701Y-122647645D01*
X108934704Y-122647645D01*
X109000991Y-122624449D01*
X109062882Y-122602793D01*
X109172150Y-122522150D01*
X109252793Y-122412882D01*
X109275219Y-122348790D01*
X109297646Y-122284701D01*
X109297646Y-122284699D01*
X109300500Y-122254269D01*
X109300500Y-121245730D01*
X109297646Y-121215300D01*
X109297646Y-121215298D01*
X109252793Y-121087119D01*
X109252792Y-121087117D01*
X109172150Y-120977850D01*
X109062882Y-120897207D01*
X109037937Y-120888478D01*
X108981163Y-120847757D01*
X108955416Y-120782804D01*
X108968873Y-120714243D01*
X108991210Y-120683760D01*
X109338152Y-120336819D01*
X109399475Y-120303334D01*
X109425833Y-120300500D01*
X111074167Y-120300500D01*
X111141206Y-120320185D01*
X111161848Y-120336819D01*
X112602947Y-121777918D01*
X112636432Y-121839241D01*
X112638669Y-121877753D01*
X112624659Y-122020000D01*
X112643975Y-122216129D01*
X112701188Y-122404733D01*
X112794086Y-122578532D01*
X112794090Y-122578539D01*
X112919116Y-122730883D01*
X113071460Y-122855909D01*
X113071467Y-122855913D01*
X113245266Y-122948811D01*
X113245269Y-122948811D01*
X113245273Y-122948814D01*
X113433868Y-123006024D01*
X113630000Y-123025341D01*
X113826132Y-123006024D01*
X114014727Y-122948814D01*
X114019607Y-122946206D01*
X114110242Y-122897760D01*
X114188538Y-122855910D01*
X114340883Y-122730883D01*
X114465910Y-122578538D01*
X114558814Y-122404727D01*
X114616024Y-122216132D01*
X114635341Y-122020000D01*
X114616024Y-121823868D01*
X114558814Y-121635273D01*
X114558811Y-121635269D01*
X114558811Y-121635266D01*
X114465913Y-121461467D01*
X114465909Y-121461460D01*
X114340883Y-121309116D01*
X114188539Y-121184090D01*
X114188532Y-121184086D01*
X114014733Y-121091188D01*
X114014727Y-121091186D01*
X113826132Y-121033976D01*
X113826129Y-121033975D01*
X113630000Y-121014659D01*
X113433870Y-121033975D01*
X113245266Y-121091188D01*
X113071467Y-121184086D01*
X113071460Y-121184090D01*
X113041677Y-121208533D01*
X112977366Y-121235845D01*
X112908499Y-121224053D01*
X112875332Y-121200360D01*
X111509962Y-119834991D01*
X111498687Y-119822035D01*
X111493955Y-119815768D01*
X111459683Y-119784525D01*
X111455560Y-119780589D01*
X111442797Y-119767826D01*
X111442796Y-119767825D01*
X111442794Y-119767823D01*
X111439077Y-119764737D01*
X111430679Y-119758084D01*
X111410933Y-119740084D01*
X111404470Y-119737580D01*
X111379192Y-119724256D01*
X111373481Y-119720344D01*
X111373478Y-119720343D01*
X111373479Y-119720343D01*
X111347483Y-119714228D01*
X111331089Y-119709151D01*
X111306174Y-119699500D01*
X111306173Y-119699500D01*
X111299249Y-119699500D01*
X111270858Y-119696206D01*
X111264119Y-119694621D01*
X111237666Y-119698311D01*
X111220536Y-119699500D01*
X109317138Y-119699500D01*
X109300010Y-119698311D01*
X109292238Y-119697227D01*
X109292235Y-119697227D01*
X109251972Y-119699088D01*
X109245920Y-119699368D01*
X109240195Y-119699500D01*
X109222156Y-119699500D01*
X109222151Y-119699500D01*
X109217326Y-119699948D01*
X109206697Y-119701181D01*
X109180008Y-119702415D01*
X109173663Y-119705215D01*
X109146380Y-119713665D01*
X109139568Y-119714938D01*
X109139567Y-119714939D01*
X109116857Y-119728999D01*
X109101678Y-119737000D01*
X109077235Y-119747793D01*
X109072336Y-119752693D01*
X109049942Y-119770431D01*
X109044048Y-119774080D01*
X109027949Y-119795398D01*
X109016679Y-119808348D01*
X108334986Y-120490041D01*
X108322035Y-120501312D01*
X108315767Y-120506044D01*
X108284522Y-120540318D01*
X108280574Y-120544453D01*
X108267827Y-120557200D01*
X108264746Y-120560911D01*
X108258085Y-120569319D01*
X108240083Y-120589066D01*
X108240083Y-120589067D01*
X108237578Y-120595533D01*
X108224259Y-120620802D01*
X108220345Y-120626515D01*
X108220343Y-120626520D01*
X108214228Y-120652517D01*
X108209151Y-120668913D01*
X108199500Y-120693826D01*
X108199500Y-120700751D01*
X108196206Y-120729141D01*
X108191990Y-120747066D01*
X108190067Y-120746613D01*
X108171995Y-120799071D01*
X108117134Y-120842339D01*
X108082464Y-120850744D01*
X108065300Y-120852353D01*
X108065298Y-120852353D01*
X107937119Y-120897206D01*
X107937117Y-120897207D01*
X107857521Y-120955952D01*
X107827850Y-120977850D01*
X107786428Y-121033976D01*
X107759370Y-121070638D01*
X107703723Y-121112888D01*
X107634067Y-121118347D01*
X107572517Y-121085280D01*
X107538616Y-121024186D01*
X107535600Y-120997004D01*
X107535600Y-119480000D01*
X112624659Y-119480000D01*
X112643975Y-119676129D01*
X112651454Y-119700784D01*
X112688235Y-119822035D01*
X112701188Y-119864733D01*
X112794086Y-120038532D01*
X112794090Y-120038539D01*
X112919116Y-120190883D01*
X113071460Y-120315909D01*
X113071467Y-120315913D01*
X113245266Y-120408811D01*
X113245269Y-120408811D01*
X113245273Y-120408814D01*
X113433868Y-120466024D01*
X113630000Y-120485341D01*
X113826132Y-120466024D01*
X114014727Y-120408814D01*
X114188538Y-120315910D01*
X114340883Y-120190883D01*
X114465910Y-120038538D01*
X114533339Y-119912388D01*
X114558811Y-119864733D01*
X114558811Y-119864732D01*
X114558814Y-119864727D01*
X114616024Y-119676132D01*
X114635341Y-119480000D01*
X114616024Y-119283868D01*
X114558814Y-119095273D01*
X114558811Y-119095269D01*
X114558811Y-119095266D01*
X114465913Y-118921467D01*
X114465909Y-118921460D01*
X114340883Y-118769116D01*
X114188539Y-118644090D01*
X114188532Y-118644086D01*
X114014733Y-118551188D01*
X114014727Y-118551186D01*
X113826132Y-118493976D01*
X113826129Y-118493975D01*
X113630000Y-118474659D01*
X113433870Y-118493975D01*
X113245266Y-118551188D01*
X113071467Y-118644086D01*
X113071460Y-118644090D01*
X112919116Y-118769116D01*
X112794090Y-118921460D01*
X112794086Y-118921467D01*
X112701188Y-119095266D01*
X112643975Y-119283870D01*
X112624659Y-119480000D01*
X107535600Y-119480000D01*
X107535600Y-117054269D01*
X107799500Y-117054269D01*
X107802353Y-117084699D01*
X107802353Y-117084701D01*
X107847206Y-117212880D01*
X107847207Y-117212882D01*
X107927850Y-117322150D01*
X108037118Y-117402793D01*
X108079845Y-117417744D01*
X108165299Y-117447646D01*
X108195730Y-117450500D01*
X108195734Y-117450500D01*
X108804270Y-117450500D01*
X108834699Y-117447646D01*
X108834701Y-117447646D01*
X108898790Y-117425219D01*
X108962882Y-117402793D01*
X109072150Y-117322150D01*
X109152793Y-117212882D01*
X109179650Y-117136129D01*
X109197646Y-117084701D01*
X109197646Y-117084699D01*
X109200500Y-117054269D01*
X109200500Y-117000000D01*
X110000001Y-117000000D01*
X110000001Y-117049986D01*
X110010494Y-117152697D01*
X110065641Y-117319119D01*
X110065643Y-117319124D01*
X110157684Y-117468345D01*
X110281654Y-117592315D01*
X110430875Y-117684356D01*
X110430880Y-117684358D01*
X110597302Y-117739505D01*
X110597309Y-117739506D01*
X110700019Y-117749999D01*
X110749999Y-117749998D01*
X110750000Y-117749998D01*
X110750000Y-117000000D01*
X111250000Y-117000000D01*
X111250000Y-117749999D01*
X111299972Y-117749999D01*
X111299986Y-117749998D01*
X111402697Y-117739505D01*
X111569119Y-117684358D01*
X111569124Y-117684356D01*
X111718345Y-117592315D01*
X111842315Y-117468345D01*
X111934356Y-117319124D01*
X111934358Y-117319119D01*
X111989505Y-117152697D01*
X111989506Y-117152690D01*
X111999999Y-117049986D01*
X112000000Y-117049973D01*
X112000000Y-117000000D01*
X111250000Y-117000000D01*
X110750000Y-117000000D01*
X110000001Y-117000000D01*
X109200500Y-117000000D01*
X109200500Y-116940000D01*
X112624659Y-116940000D01*
X112643975Y-117136129D01*
X112643976Y-117136132D01*
X112699486Y-117319124D01*
X112701188Y-117324733D01*
X112794086Y-117498532D01*
X112794090Y-117498539D01*
X112919116Y-117650883D01*
X113071460Y-117775909D01*
X113071467Y-117775913D01*
X113245266Y-117868811D01*
X113245269Y-117868811D01*
X113245273Y-117868814D01*
X113433868Y-117926024D01*
X113630000Y-117945341D01*
X113826132Y-117926024D01*
X114014727Y-117868814D01*
X114188538Y-117775910D01*
X114340883Y-117650883D01*
X114465910Y-117498538D01*
X114558814Y-117324727D01*
X114616024Y-117136132D01*
X114635341Y-116940000D01*
X114616024Y-116743868D01*
X114558814Y-116555273D01*
X114558811Y-116555269D01*
X114558811Y-116555266D01*
X114465913Y-116381467D01*
X114465909Y-116381460D01*
X114340883Y-116229116D01*
X114188539Y-116104090D01*
X114188532Y-116104086D01*
X114014733Y-116011188D01*
X114014727Y-116011186D01*
X113826132Y-115953976D01*
X113826129Y-115953975D01*
X113630000Y-115934659D01*
X113433870Y-115953975D01*
X113245266Y-116011188D01*
X113071467Y-116104086D01*
X113071460Y-116104090D01*
X112919116Y-116229116D01*
X112794090Y-116381460D01*
X112794086Y-116381467D01*
X112701188Y-116555266D01*
X112643975Y-116743870D01*
X112624659Y-116940000D01*
X109200500Y-116940000D01*
X109200500Y-116500000D01*
X110000000Y-116500000D01*
X110750000Y-116500000D01*
X110750000Y-115750000D01*
X111250000Y-115750000D01*
X111250000Y-116500000D01*
X111999999Y-116500000D01*
X111999999Y-116450028D01*
X111999998Y-116450013D01*
X111989505Y-116347302D01*
X111934358Y-116180880D01*
X111934356Y-116180875D01*
X111842315Y-116031654D01*
X111718345Y-115907684D01*
X111569124Y-115815643D01*
X111569119Y-115815641D01*
X111402697Y-115760494D01*
X111402690Y-115760493D01*
X111299986Y-115750000D01*
X111250000Y-115750000D01*
X110750000Y-115750000D01*
X110749999Y-115749999D01*
X110700029Y-115750000D01*
X110700011Y-115750001D01*
X110597302Y-115760494D01*
X110430880Y-115815641D01*
X110430875Y-115815643D01*
X110281654Y-115907684D01*
X110157684Y-116031654D01*
X110065643Y-116180875D01*
X110065641Y-116180880D01*
X110010494Y-116347302D01*
X110010493Y-116347309D01*
X110000000Y-116450013D01*
X110000000Y-116500000D01*
X109200500Y-116500000D01*
X109200500Y-116445730D01*
X109197646Y-116415300D01*
X109197646Y-116415298D01*
X109163359Y-116317315D01*
X109152793Y-116287118D01*
X109074729Y-116181344D01*
X109050759Y-116115715D01*
X109050500Y-116107711D01*
X109050500Y-114773146D01*
X109070185Y-114706107D01*
X109122989Y-114660352D01*
X109162919Y-114649688D01*
X109184699Y-114647646D01*
X109184701Y-114647645D01*
X109184704Y-114647645D01*
X109257128Y-114622302D01*
X109312882Y-114602793D01*
X109422150Y-114522150D01*
X109483225Y-114439395D01*
X109538870Y-114397147D01*
X109608526Y-114391688D01*
X109670075Y-114424755D01*
X109700699Y-114474026D01*
X109715642Y-114519121D01*
X109715643Y-114519124D01*
X109807684Y-114668345D01*
X109931654Y-114792315D01*
X110080875Y-114884356D01*
X110080880Y-114884358D01*
X110247302Y-114939505D01*
X110247309Y-114939506D01*
X110350019Y-114949999D01*
X110499999Y-114949999D01*
X110500000Y-114949998D01*
X110500000Y-114000000D01*
X111000000Y-114000000D01*
X111000000Y-114949999D01*
X111149972Y-114949999D01*
X111149986Y-114949998D01*
X111252697Y-114939505D01*
X111419119Y-114884358D01*
X111419124Y-114884356D01*
X111568345Y-114792315D01*
X111692315Y-114668345D01*
X111784356Y-114519124D01*
X111784358Y-114519119D01*
X111839505Y-114352697D01*
X111839506Y-114352690D01*
X111849999Y-114249986D01*
X111850000Y-114249973D01*
X111850000Y-114000000D01*
X111000000Y-114000000D01*
X110500000Y-114000000D01*
X110500000Y-112550000D01*
X111000000Y-112550000D01*
X111000000Y-113500000D01*
X111849999Y-113500000D01*
X111849999Y-113250028D01*
X111849998Y-113250013D01*
X111839505Y-113147302D01*
X111784358Y-112980880D01*
X111784356Y-112980875D01*
X111692315Y-112831654D01*
X111568345Y-112707684D01*
X111419124Y-112615643D01*
X111419119Y-112615641D01*
X111252697Y-112560494D01*
X111252690Y-112560493D01*
X111149986Y-112550000D01*
X111000000Y-112550000D01*
X110500000Y-112550000D01*
X110500000Y-112529078D01*
X110491680Y-112513842D01*
X110496664Y-112444150D01*
X110525160Y-112399809D01*
X110915011Y-112009958D01*
X110927963Y-111998688D01*
X110934223Y-111993960D01*
X110934228Y-111993958D01*
X110965488Y-111959666D01*
X110969402Y-111955567D01*
X110982174Y-111942797D01*
X110982175Y-111942796D01*
X110985282Y-111939054D01*
X110991916Y-111930676D01*
X111009916Y-111910933D01*
X111012416Y-111904478D01*
X111025749Y-111879182D01*
X111029656Y-111873481D01*
X111035770Y-111847481D01*
X111040846Y-111831089D01*
X111050500Y-111806173D01*
X111050500Y-111799248D01*
X111053795Y-111770855D01*
X111055378Y-111764123D01*
X111055379Y-111764119D01*
X111051689Y-111737665D01*
X111050500Y-111720535D01*
X111050500Y-111574500D01*
X111070185Y-111507461D01*
X111122989Y-111461706D01*
X111174500Y-111450500D01*
X111304270Y-111450500D01*
X111334699Y-111447646D01*
X111334701Y-111447646D01*
X111414464Y-111419735D01*
X111462882Y-111402793D01*
X111482338Y-111388433D01*
X111547965Y-111364463D01*
X111616136Y-111379778D01*
X111643652Y-111400523D01*
X112268139Y-112025010D01*
X112279410Y-112037962D01*
X112284139Y-112044225D01*
X112318417Y-112075474D01*
X112322558Y-112079429D01*
X112335303Y-112092174D01*
X112339031Y-112095270D01*
X112347424Y-112101918D01*
X112350520Y-112104740D01*
X112367164Y-112119914D01*
X112367165Y-112119914D01*
X112367167Y-112119916D01*
X112373630Y-112122419D01*
X112398907Y-112135743D01*
X112404619Y-112139656D01*
X112430614Y-112145769D01*
X112447010Y-112150846D01*
X112471927Y-112160500D01*
X112478851Y-112160500D01*
X112507241Y-112163793D01*
X112513981Y-112165379D01*
X112537924Y-112162039D01*
X112540434Y-112161689D01*
X112557564Y-112160500D01*
X112583672Y-112160500D01*
X112650711Y-112180185D01*
X112696466Y-112232989D01*
X112698787Y-112239131D01*
X112698856Y-112239103D01*
X112701185Y-112244726D01*
X112794086Y-112418532D01*
X112794090Y-112418539D01*
X112919116Y-112570883D01*
X113071460Y-112695909D01*
X113071467Y-112695913D01*
X113245266Y-112788811D01*
X113245269Y-112788811D01*
X113245273Y-112788814D01*
X113433868Y-112846024D01*
X113630000Y-112865341D01*
X113826132Y-112846024D01*
X114014727Y-112788814D01*
X114188538Y-112695910D01*
X114340883Y-112570883D01*
X114465910Y-112418538D01*
X114558814Y-112244727D01*
X114616024Y-112056132D01*
X114635341Y-111860000D01*
X114616024Y-111663868D01*
X114558814Y-111475273D01*
X114558811Y-111475269D01*
X114558811Y-111475266D01*
X114465913Y-111301467D01*
X114465909Y-111301460D01*
X114340883Y-111149116D01*
X114293650Y-111110353D01*
X114254316Y-111052607D01*
X114252445Y-110982762D01*
X114288633Y-110922994D01*
X114351389Y-110892279D01*
X114372315Y-110890500D01*
X114414167Y-110890500D01*
X114481206Y-110910185D01*
X114501848Y-110926819D01*
X115163181Y-111588152D01*
X115196666Y-111649475D01*
X115199500Y-111675833D01*
X115199500Y-113574167D01*
X115179815Y-113641206D01*
X115163181Y-113661848D01*
X114763506Y-114061522D01*
X114702183Y-114095007D01*
X114632491Y-114090023D01*
X114576558Y-114048151D01*
X114562489Y-114020339D01*
X114561144Y-114020897D01*
X114558814Y-114015273D01*
X114465913Y-113841467D01*
X114465909Y-113841460D01*
X114340883Y-113689116D01*
X114188539Y-113564090D01*
X114188532Y-113564086D01*
X114014733Y-113471188D01*
X114014727Y-113471186D01*
X113826132Y-113413976D01*
X113826129Y-113413975D01*
X113630000Y-113394659D01*
X113433870Y-113413975D01*
X113245266Y-113471188D01*
X113071467Y-113564086D01*
X113071460Y-113564090D01*
X112919116Y-113689116D01*
X112794090Y-113841460D01*
X112794086Y-113841467D01*
X112701188Y-114015266D01*
X112643975Y-114203870D01*
X112624659Y-114400000D01*
X112643975Y-114596129D01*
X112647911Y-114609104D01*
X112677848Y-114707794D01*
X112701188Y-114784733D01*
X112794086Y-114958532D01*
X112794090Y-114958539D01*
X112919116Y-115110883D01*
X113071460Y-115235909D01*
X113071467Y-115235913D01*
X113245266Y-115328811D01*
X113245269Y-115328811D01*
X113245273Y-115328814D01*
X113433868Y-115386024D01*
X113630000Y-115405341D01*
X113826132Y-115386024D01*
X114014727Y-115328814D01*
X114045554Y-115312337D01*
X114188532Y-115235913D01*
X114188538Y-115235910D01*
X114340883Y-115110883D01*
X114465910Y-114958538D01*
X114558814Y-114784727D01*
X114558815Y-114784723D01*
X114561144Y-114779103D01*
X114563260Y-114779979D01*
X114595945Y-114730083D01*
X114659751Y-114701613D01*
X114676328Y-114700500D01*
X114782862Y-114700500D01*
X114799990Y-114701689D01*
X114807761Y-114702772D01*
X114807761Y-114702771D01*
X114807765Y-114702773D01*
X114854080Y-114700632D01*
X114859805Y-114700500D01*
X114877843Y-114700500D01*
X114877844Y-114700500D01*
X114877844Y-114700499D01*
X114882731Y-114700046D01*
X114893318Y-114698817D01*
X114919992Y-114697585D01*
X114926322Y-114694789D01*
X114953629Y-114686332D01*
X114960433Y-114685061D01*
X114960435Y-114685059D01*
X114960437Y-114685059D01*
X114983138Y-114671003D01*
X114998325Y-114662996D01*
X115022765Y-114652206D01*
X115027661Y-114647309D01*
X115050069Y-114629561D01*
X115055952Y-114625919D01*
X115072053Y-114604595D01*
X115083314Y-114591655D01*
X115665011Y-114009958D01*
X115677963Y-113998688D01*
X115684223Y-113993960D01*
X115684228Y-113993958D01*
X115715488Y-113959666D01*
X115719402Y-113955567D01*
X115732174Y-113942797D01*
X115732175Y-113942796D01*
X115735282Y-113939054D01*
X115741916Y-113930676D01*
X115759916Y-113910933D01*
X115762417Y-113904476D01*
X115775750Y-113879184D01*
X115775766Y-113879159D01*
X115779657Y-113873481D01*
X115785772Y-113847478D01*
X115790854Y-113831071D01*
X115800500Y-113806173D01*
X115800500Y-113799248D01*
X115803794Y-113770856D01*
X115805379Y-113764119D01*
X115801689Y-113737665D01*
X115800500Y-113720535D01*
X115800500Y-111567136D01*
X115801689Y-111550005D01*
X115802771Y-111542239D01*
X115802773Y-111542235D01*
X115800632Y-111495920D01*
X115800500Y-111490195D01*
X115800500Y-111472159D01*
X115800046Y-111467266D01*
X115798817Y-111456680D01*
X115797585Y-111430008D01*
X115794786Y-111423670D01*
X115786333Y-111396373D01*
X115785061Y-111389567D01*
X115771002Y-111366862D01*
X115762998Y-111351676D01*
X115757016Y-111338128D01*
X115752206Y-111327234D01*
X115747309Y-111322337D01*
X115729561Y-111299931D01*
X115725919Y-111294048D01*
X115704606Y-111277953D01*
X115691653Y-111266681D01*
X114849962Y-110424991D01*
X114838687Y-110412035D01*
X114833955Y-110405768D01*
X114799683Y-110374525D01*
X114795560Y-110370589D01*
X114782797Y-110357826D01*
X114782796Y-110357825D01*
X114782794Y-110357823D01*
X114779077Y-110354737D01*
X114770679Y-110348084D01*
X114750933Y-110330084D01*
X114744470Y-110327580D01*
X114719192Y-110314256D01*
X114713481Y-110310344D01*
X114713478Y-110310343D01*
X114713479Y-110310343D01*
X114687483Y-110304228D01*
X114671089Y-110299151D01*
X114646174Y-110289500D01*
X114646173Y-110289500D01*
X114639249Y-110289500D01*
X114610858Y-110286206D01*
X114604119Y-110284621D01*
X114577666Y-110288311D01*
X114560536Y-110289500D01*
X114372315Y-110289500D01*
X114305276Y-110269815D01*
X114259521Y-110217011D01*
X114249577Y-110147853D01*
X114278602Y-110084297D01*
X114293650Y-110069647D01*
X114340883Y-110030883D01*
X114465909Y-109878539D01*
X114465913Y-109878532D01*
X114558811Y-109704733D01*
X114558811Y-109704732D01*
X114558814Y-109704727D01*
X114616024Y-109516132D01*
X114635341Y-109320000D01*
X114616024Y-109123868D01*
X114558814Y-108935273D01*
X114558811Y-108935269D01*
X114558811Y-108935266D01*
X114465913Y-108761467D01*
X114465909Y-108761460D01*
X114340883Y-108609116D01*
X114188539Y-108484090D01*
X114188532Y-108484086D01*
X114014733Y-108391188D01*
X114014727Y-108391186D01*
X113826132Y-108333976D01*
X113826129Y-108333975D01*
X113630000Y-108314659D01*
X113433870Y-108333975D01*
X113245266Y-108391188D01*
X113071467Y-108484086D01*
X113071460Y-108484090D01*
X112919116Y-108609116D01*
X112794090Y-108761460D01*
X112794086Y-108761467D01*
X112701188Y-108935266D01*
X112643975Y-109123870D01*
X112624659Y-109320000D01*
X112643975Y-109516130D01*
X112667811Y-109594705D01*
X112686107Y-109655020D01*
X112697472Y-109692483D01*
X112698095Y-109762349D01*
X112660847Y-109821462D01*
X112597553Y-109851053D01*
X112528308Y-109841728D01*
X112491130Y-109816159D01*
X112138219Y-109463248D01*
X112104734Y-109401925D01*
X112101900Y-109375567D01*
X112101900Y-106780000D01*
X112624659Y-106780000D01*
X112643975Y-106976129D01*
X112701188Y-107164733D01*
X112794086Y-107338532D01*
X112794090Y-107338539D01*
X112919116Y-107490883D01*
X113071460Y-107615909D01*
X113071467Y-107615913D01*
X113245266Y-107708811D01*
X113245269Y-107708811D01*
X113245273Y-107708814D01*
X113433868Y-107766024D01*
X113630000Y-107785341D01*
X113826132Y-107766024D01*
X114014727Y-107708814D01*
X114188538Y-107615910D01*
X114240293Y-107573434D01*
X114304600Y-107546123D01*
X114373468Y-107557914D01*
X114406637Y-107581608D01*
X115663181Y-108838152D01*
X115696666Y-108899475D01*
X115699500Y-108925833D01*
X115699500Y-110047061D01*
X115698312Y-110064188D01*
X115697227Y-110071965D01*
X115699368Y-110118279D01*
X115699500Y-110124004D01*
X115699500Y-110142042D01*
X115699947Y-110146871D01*
X115701181Y-110157505D01*
X115702415Y-110184192D01*
X115702416Y-110184197D01*
X115705214Y-110190534D01*
X115713664Y-110217820D01*
X115714937Y-110224629D01*
X115714937Y-110224630D01*
X115714939Y-110224633D01*
X115729001Y-110247346D01*
X115736997Y-110262515D01*
X115747794Y-110286965D01*
X115747795Y-110286966D01*
X115747796Y-110286968D01*
X115752689Y-110291861D01*
X115770435Y-110314265D01*
X115774077Y-110320148D01*
X115774079Y-110320150D01*
X115774080Y-110320151D01*
X115774081Y-110320152D01*
X115795396Y-110336248D01*
X115808350Y-110347521D01*
X120163181Y-114702352D01*
X120196666Y-114763675D01*
X120199500Y-114790033D01*
X120199500Y-120682861D01*
X120198312Y-120699988D01*
X120197227Y-120707765D01*
X120199368Y-120754079D01*
X120199500Y-120759804D01*
X120199500Y-120777842D01*
X120199947Y-120782671D01*
X120201181Y-120793305D01*
X120202415Y-120819992D01*
X120202416Y-120819997D01*
X120205214Y-120826334D01*
X120213664Y-120853620D01*
X120214937Y-120860429D01*
X120214937Y-120860430D01*
X120214939Y-120860433D01*
X120229001Y-120883146D01*
X120236997Y-120898315D01*
X120247794Y-120922765D01*
X120247795Y-120922766D01*
X120247796Y-120922768D01*
X120252689Y-120927661D01*
X120270435Y-120950065D01*
X120274077Y-120955948D01*
X120274079Y-120955950D01*
X120274080Y-120955951D01*
X120274081Y-120955952D01*
X120295396Y-120972048D01*
X120308350Y-120983321D01*
X122740039Y-123415010D01*
X122751310Y-123427962D01*
X122756039Y-123434225D01*
X122790317Y-123465474D01*
X122794458Y-123469429D01*
X122807203Y-123482174D01*
X122810931Y-123485270D01*
X122819324Y-123491918D01*
X122823506Y-123495730D01*
X122839065Y-123509915D01*
X122839066Y-123509915D01*
X122839067Y-123509916D01*
X122845521Y-123512416D01*
X122870806Y-123525744D01*
X122876518Y-123529657D01*
X122883743Y-123531356D01*
X122902521Y-123535772D01*
X122918909Y-123540846D01*
X122943827Y-123550500D01*
X122950752Y-123550500D01*
X122979140Y-123553793D01*
X122985881Y-123555379D01*
X123012333Y-123551689D01*
X123029464Y-123550500D01*
X123825500Y-123550500D01*
X123892539Y-123570185D01*
X123938294Y-123622989D01*
X123949500Y-123674500D01*
X123949500Y-126202404D01*
X123929815Y-126269443D01*
X123877011Y-126315198D01*
X123866456Y-126319445D01*
X123787117Y-126347207D01*
X123677850Y-126427850D01*
X123597207Y-126537117D01*
X123597206Y-126537119D01*
X123552353Y-126665298D01*
X123552353Y-126665300D01*
X123549500Y-126695730D01*
X123549500Y-127304269D01*
X123552353Y-127334699D01*
X123552353Y-127334701D01*
X123597206Y-127462880D01*
X123597207Y-127462882D01*
X123677850Y-127572150D01*
X123787118Y-127652793D01*
X123816800Y-127663179D01*
X123915299Y-127697646D01*
X123945730Y-127700500D01*
X123945734Y-127700500D01*
X124554270Y-127700500D01*
X124584699Y-127697646D01*
X124584701Y-127697646D01*
X124656145Y-127672646D01*
X124712882Y-127652793D01*
X124822150Y-127572150D01*
X124902793Y-127462882D01*
X124939653Y-127357543D01*
X124947646Y-127334701D01*
X124947646Y-127334699D01*
X124950500Y-127304269D01*
X124950500Y-126695730D01*
X124947646Y-126665300D01*
X124947646Y-126665298D01*
X124902793Y-126537119D01*
X124902792Y-126537117D01*
X124881936Y-126508858D01*
X124822150Y-126427850D01*
X124712882Y-126347207D01*
X124709353Y-126345972D01*
X124633544Y-126319445D01*
X124576769Y-126278723D01*
X124551022Y-126213770D01*
X124550500Y-126202404D01*
X124550500Y-123993146D01*
X124570185Y-123926107D01*
X124622989Y-123880352D01*
X124692147Y-123870408D01*
X124755703Y-123899433D01*
X124787294Y-123941635D01*
X124824620Y-124023369D01*
X124824623Y-124023373D01*
X124918872Y-124132143D01*
X125039947Y-124209953D01*
X125039950Y-124209954D01*
X125039949Y-124209954D01*
X125178036Y-124250499D01*
X125178038Y-124250500D01*
X125178039Y-124250500D01*
X125321962Y-124250500D01*
X125321962Y-124250499D01*
X125460053Y-124209953D01*
X125581128Y-124132143D01*
X125675377Y-124023373D01*
X125735165Y-123892457D01*
X125755647Y-123750000D01*
X125735165Y-123607543D01*
X125675377Y-123476627D01*
X125581128Y-123367857D01*
X125460053Y-123290047D01*
X125460051Y-123290046D01*
X125460049Y-123290045D01*
X125460050Y-123290045D01*
X125321963Y-123249500D01*
X125321961Y-123249500D01*
X125225833Y-123249500D01*
X125158794Y-123229815D01*
X125138152Y-123213181D01*
X125009962Y-123084991D01*
X124998687Y-123072035D01*
X124993955Y-123065768D01*
X124959683Y-123034525D01*
X124955560Y-123030589D01*
X124942797Y-123017826D01*
X124942796Y-123017825D01*
X124942794Y-123017823D01*
X124939077Y-123014737D01*
X124930679Y-123008084D01*
X124910933Y-122990084D01*
X124904470Y-122987580D01*
X124879192Y-122974256D01*
X124873481Y-122970344D01*
X124873478Y-122970343D01*
X124873479Y-122970343D01*
X124847483Y-122964228D01*
X124831089Y-122959151D01*
X124806174Y-122949500D01*
X124806173Y-122949500D01*
X124799249Y-122949500D01*
X124770858Y-122946206D01*
X124764119Y-122944621D01*
X124737666Y-122948311D01*
X124720536Y-122949500D01*
X124309215Y-122949500D01*
X124287257Y-122946437D01*
X124278208Y-122945599D01*
X124278207Y-122945599D01*
X124248940Y-122948311D01*
X124241817Y-122948971D01*
X124230376Y-122949500D01*
X123175833Y-122949500D01*
X123108794Y-122929815D01*
X123088152Y-122913181D01*
X122194971Y-122020000D01*
X127864659Y-122020000D01*
X127883975Y-122216129D01*
X127941188Y-122404733D01*
X128034086Y-122578532D01*
X128034090Y-122578539D01*
X128159116Y-122730883D01*
X128311460Y-122855909D01*
X128311467Y-122855913D01*
X128485266Y-122948811D01*
X128485269Y-122948811D01*
X128485273Y-122948814D01*
X128673868Y-123006024D01*
X128870000Y-123025341D01*
X129066132Y-123006024D01*
X129254727Y-122948814D01*
X129259607Y-122946206D01*
X129350242Y-122897760D01*
X129428538Y-122855910D01*
X129580883Y-122730883D01*
X129705910Y-122578538D01*
X129798814Y-122404727D01*
X129856024Y-122216132D01*
X129875341Y-122020000D01*
X129856024Y-121823868D01*
X129798814Y-121635273D01*
X129798811Y-121635269D01*
X129798811Y-121635266D01*
X129705913Y-121461467D01*
X129705909Y-121461460D01*
X129580883Y-121309116D01*
X129428539Y-121184090D01*
X129428532Y-121184086D01*
X129254733Y-121091188D01*
X129254727Y-121091186D01*
X129066132Y-121033976D01*
X129066129Y-121033975D01*
X128870000Y-121014659D01*
X128673870Y-121033975D01*
X128485266Y-121091188D01*
X128311467Y-121184086D01*
X128311460Y-121184090D01*
X128159116Y-121309116D01*
X128034090Y-121461460D01*
X128034086Y-121461467D01*
X127941188Y-121635266D01*
X127883975Y-121823870D01*
X127864659Y-122020000D01*
X122194971Y-122020000D01*
X120836819Y-120661848D01*
X120803334Y-120600525D01*
X120800500Y-120574167D01*
X120800500Y-119480000D01*
X127864659Y-119480000D01*
X127883975Y-119676129D01*
X127891454Y-119700784D01*
X127928235Y-119822035D01*
X127941188Y-119864733D01*
X128034086Y-120038532D01*
X128034090Y-120038539D01*
X128159116Y-120190883D01*
X128311460Y-120315909D01*
X128311467Y-120315913D01*
X128485266Y-120408811D01*
X128485269Y-120408811D01*
X128485273Y-120408814D01*
X128673868Y-120466024D01*
X128870000Y-120485341D01*
X129066132Y-120466024D01*
X129254727Y-120408814D01*
X129428538Y-120315910D01*
X129580883Y-120190883D01*
X129705910Y-120038538D01*
X129773339Y-119912388D01*
X129798811Y-119864733D01*
X129798811Y-119864732D01*
X129798814Y-119864727D01*
X129856024Y-119676132D01*
X129875341Y-119480000D01*
X129856024Y-119283868D01*
X129798814Y-119095273D01*
X129798811Y-119095269D01*
X129798811Y-119095266D01*
X129705913Y-118921467D01*
X129705909Y-118921460D01*
X129580883Y-118769116D01*
X129428539Y-118644090D01*
X129428532Y-118644086D01*
X129254733Y-118551188D01*
X129254727Y-118551186D01*
X129066132Y-118493976D01*
X129066129Y-118493975D01*
X128870000Y-118474659D01*
X128673870Y-118493975D01*
X128485266Y-118551188D01*
X128311467Y-118644086D01*
X128311460Y-118644090D01*
X128159116Y-118769116D01*
X128034090Y-118921460D01*
X128034086Y-118921467D01*
X127941188Y-119095266D01*
X127883975Y-119283870D01*
X127864659Y-119480000D01*
X120800500Y-119480000D01*
X120800500Y-116940000D01*
X127864659Y-116940000D01*
X127883975Y-117136129D01*
X127883976Y-117136132D01*
X127939486Y-117319124D01*
X127941188Y-117324733D01*
X128034086Y-117498532D01*
X128034090Y-117498539D01*
X128159116Y-117650883D01*
X128311460Y-117775909D01*
X128311467Y-117775913D01*
X128485266Y-117868811D01*
X128485269Y-117868811D01*
X128485273Y-117868814D01*
X128673868Y-117926024D01*
X128870000Y-117945341D01*
X129066132Y-117926024D01*
X129254727Y-117868814D01*
X129428538Y-117775910D01*
X129580883Y-117650883D01*
X129705910Y-117498538D01*
X129798814Y-117324727D01*
X129856024Y-117136132D01*
X129875341Y-116940000D01*
X129856024Y-116743868D01*
X129798814Y-116555273D01*
X129798811Y-116555269D01*
X129798811Y-116555266D01*
X129705913Y-116381467D01*
X129705909Y-116381460D01*
X129580883Y-116229116D01*
X129428539Y-116104090D01*
X129428532Y-116104086D01*
X129254733Y-116011188D01*
X129254727Y-116011186D01*
X129066132Y-115953976D01*
X129066129Y-115953975D01*
X128870000Y-115934659D01*
X128673870Y-115953975D01*
X128485266Y-116011188D01*
X128311467Y-116104086D01*
X128311460Y-116104090D01*
X128159116Y-116229116D01*
X128034090Y-116381460D01*
X128034086Y-116381467D01*
X127941188Y-116555266D01*
X127883975Y-116743870D01*
X127864659Y-116940000D01*
X120800500Y-116940000D01*
X120800500Y-115500000D01*
X130375001Y-115500000D01*
X130375001Y-115774986D01*
X130385494Y-115877697D01*
X130440641Y-116044119D01*
X130440643Y-116044124D01*
X130532684Y-116193345D01*
X130656654Y-116317315D01*
X130805875Y-116409356D01*
X130805880Y-116409358D01*
X130972302Y-116464505D01*
X130972309Y-116464506D01*
X131075019Y-116474999D01*
X131212499Y-116474999D01*
X131212500Y-116474998D01*
X131212500Y-115500000D01*
X130375001Y-115500000D01*
X120800500Y-115500000D01*
X120800500Y-114681336D01*
X120801689Y-114664205D01*
X120802771Y-114656439D01*
X120802773Y-114656435D01*
X120800632Y-114610120D01*
X120800500Y-114604395D01*
X120800500Y-114586359D01*
X120800046Y-114581466D01*
X120798817Y-114570880D01*
X120797585Y-114544208D01*
X120794788Y-114537875D01*
X120786332Y-114510568D01*
X120785061Y-114503767D01*
X120770999Y-114481056D01*
X120762998Y-114465878D01*
X120752206Y-114441435D01*
X120747309Y-114436538D01*
X120729563Y-114414134D01*
X120725918Y-114408247D01*
X120725917Y-114408246D01*
X120714997Y-114400000D01*
X127864659Y-114400000D01*
X127883975Y-114596129D01*
X127887911Y-114609104D01*
X127917848Y-114707794D01*
X127941188Y-114784733D01*
X128034086Y-114958532D01*
X128034090Y-114958539D01*
X128159116Y-115110883D01*
X128311460Y-115235909D01*
X128311467Y-115235913D01*
X128485266Y-115328811D01*
X128485269Y-115328811D01*
X128485273Y-115328814D01*
X128673868Y-115386024D01*
X128870000Y-115405341D01*
X129066132Y-115386024D01*
X129254727Y-115328814D01*
X129285554Y-115312337D01*
X129428532Y-115235913D01*
X129428538Y-115235910D01*
X129580883Y-115110883D01*
X129671883Y-115000000D01*
X130375000Y-115000000D01*
X131212500Y-115000000D01*
X131212500Y-114025000D01*
X131075027Y-114025000D01*
X131075012Y-114025001D01*
X130972302Y-114035494D01*
X130805880Y-114090641D01*
X130805875Y-114090643D01*
X130656654Y-114182684D01*
X130532684Y-114306654D01*
X130440643Y-114455875D01*
X130440641Y-114455880D01*
X130385494Y-114622302D01*
X130385493Y-114622309D01*
X130375000Y-114725013D01*
X130375000Y-115000000D01*
X129671883Y-115000000D01*
X129705910Y-114958538D01*
X129769787Y-114839032D01*
X129798811Y-114784733D01*
X129798811Y-114784732D01*
X129798814Y-114784727D01*
X129856024Y-114596132D01*
X129875341Y-114400000D01*
X129856024Y-114203868D01*
X129798814Y-114015273D01*
X129798811Y-114015269D01*
X129798811Y-114015266D01*
X129705913Y-113841467D01*
X129705909Y-113841460D01*
X129580883Y-113689116D01*
X129428539Y-113564090D01*
X129428532Y-113564086D01*
X129254733Y-113471188D01*
X129254727Y-113471186D01*
X129066132Y-113413976D01*
X129066129Y-113413975D01*
X128870000Y-113394659D01*
X128673870Y-113413975D01*
X128485266Y-113471188D01*
X128311467Y-113564086D01*
X128311460Y-113564090D01*
X128159116Y-113689116D01*
X128034090Y-113841460D01*
X128034086Y-113841467D01*
X127941188Y-114015266D01*
X127883975Y-114203870D01*
X127864659Y-114400000D01*
X120714997Y-114400000D01*
X120704602Y-114392150D01*
X120691648Y-114380877D01*
X118170771Y-111860000D01*
X127864659Y-111860000D01*
X127883975Y-112056129D01*
X127883976Y-112056132D01*
X127939488Y-112239131D01*
X127941188Y-112244733D01*
X128034086Y-112418532D01*
X128034090Y-112418539D01*
X128159116Y-112570883D01*
X128311460Y-112695909D01*
X128311467Y-112695913D01*
X128485266Y-112788811D01*
X128485269Y-112788811D01*
X128485273Y-112788814D01*
X128673868Y-112846024D01*
X128870000Y-112865341D01*
X129066132Y-112846024D01*
X129254727Y-112788814D01*
X129428538Y-112695910D01*
X129580883Y-112570883D01*
X129705910Y-112418538D01*
X129798814Y-112244727D01*
X129856024Y-112056132D01*
X129875341Y-111860000D01*
X129856024Y-111663868D01*
X129798814Y-111475273D01*
X129798811Y-111475269D01*
X129798811Y-111475266D01*
X129705913Y-111301467D01*
X129705909Y-111301460D01*
X129580883Y-111149116D01*
X129428539Y-111024090D01*
X129428532Y-111024086D01*
X129254733Y-110931188D01*
X129254727Y-110931186D01*
X129066132Y-110873976D01*
X129066129Y-110873975D01*
X128870000Y-110854659D01*
X128673870Y-110873975D01*
X128485266Y-110931188D01*
X128311467Y-111024086D01*
X128311460Y-111024090D01*
X128159116Y-111149116D01*
X128034090Y-111301460D01*
X128034086Y-111301467D01*
X127941188Y-111475266D01*
X127883975Y-111663870D01*
X127864659Y-111860000D01*
X118170771Y-111860000D01*
X116336819Y-110026048D01*
X116303334Y-109964725D01*
X116300500Y-109938367D01*
X116300500Y-109320000D01*
X127864659Y-109320000D01*
X127883975Y-109516129D01*
X127897925Y-109562117D01*
X127926107Y-109655020D01*
X127941188Y-109704733D01*
X128034086Y-109878532D01*
X128034090Y-109878539D01*
X128159116Y-110030883D01*
X128311460Y-110155909D01*
X128311467Y-110155913D01*
X128485266Y-110248811D01*
X128485269Y-110248811D01*
X128485273Y-110248814D01*
X128673868Y-110306024D01*
X128870000Y-110325341D01*
X129066132Y-110306024D01*
X129254727Y-110248814D01*
X129299967Y-110224633D01*
X129393291Y-110174750D01*
X129428538Y-110155910D01*
X129580883Y-110030883D01*
X129705910Y-109878538D01*
X129770686Y-109757350D01*
X129798811Y-109704733D01*
X129798811Y-109704732D01*
X129798814Y-109704727D01*
X129856024Y-109516132D01*
X129875341Y-109320000D01*
X129856024Y-109123868D01*
X129798814Y-108935273D01*
X129798811Y-108935269D01*
X129798811Y-108935266D01*
X129705913Y-108761467D01*
X129705909Y-108761460D01*
X129580883Y-108609116D01*
X129428539Y-108484090D01*
X129428532Y-108484086D01*
X129254733Y-108391188D01*
X129254727Y-108391186D01*
X129066132Y-108333976D01*
X129066129Y-108333975D01*
X128870000Y-108314659D01*
X128673870Y-108333975D01*
X128485266Y-108391188D01*
X128311467Y-108484086D01*
X128311460Y-108484090D01*
X128159116Y-108609116D01*
X128034090Y-108761460D01*
X128034086Y-108761467D01*
X127941188Y-108935266D01*
X127883975Y-109123870D01*
X127864659Y-109320000D01*
X116300500Y-109320000D01*
X116300500Y-108817137D01*
X116301689Y-108800006D01*
X116302771Y-108792240D01*
X116302773Y-108792236D01*
X116300632Y-108745921D01*
X116300500Y-108740196D01*
X116300500Y-108722159D01*
X116300046Y-108717266D01*
X116298817Y-108706680D01*
X116298791Y-108706107D01*
X116297585Y-108680009D01*
X116294788Y-108673676D01*
X116286332Y-108646370D01*
X116285061Y-108639567D01*
X116271003Y-108616862D01*
X116262995Y-108601670D01*
X116252207Y-108577237D01*
X116252206Y-108577236D01*
X116252206Y-108577235D01*
X116247309Y-108572338D01*
X116229563Y-108549934D01*
X116225918Y-108544047D01*
X116225917Y-108544046D01*
X116204602Y-108527950D01*
X116191648Y-108516677D01*
X114660639Y-106985668D01*
X114627154Y-106924345D01*
X114624917Y-106885833D01*
X114626283Y-106871966D01*
X114635341Y-106780000D01*
X127864659Y-106780000D01*
X127883975Y-106976129D01*
X127941188Y-107164733D01*
X128034086Y-107338532D01*
X128034090Y-107338539D01*
X128159116Y-107490883D01*
X128311460Y-107615909D01*
X128311467Y-107615913D01*
X128485266Y-107708811D01*
X128485269Y-107708811D01*
X128485273Y-107708814D01*
X128673868Y-107766024D01*
X128870000Y-107785341D01*
X129066132Y-107766024D01*
X129254727Y-107708814D01*
X129428538Y-107615910D01*
X129580883Y-107490883D01*
X129705910Y-107338538D01*
X129798814Y-107164727D01*
X129856024Y-106976132D01*
X129875341Y-106780000D01*
X129856024Y-106583868D01*
X129798814Y-106395273D01*
X129798811Y-106395269D01*
X129798811Y-106395266D01*
X129705913Y-106221467D01*
X129705909Y-106221460D01*
X129580883Y-106069116D01*
X129428539Y-105944090D01*
X129428532Y-105944086D01*
X129254733Y-105851188D01*
X129254727Y-105851186D01*
X129066132Y-105793976D01*
X129066129Y-105793975D01*
X128870000Y-105774659D01*
X128673870Y-105793975D01*
X128485266Y-105851188D01*
X128311467Y-105944086D01*
X128311460Y-105944090D01*
X128159116Y-106069116D01*
X128034090Y-106221460D01*
X128034086Y-106221467D01*
X127941188Y-106395266D01*
X127883975Y-106583870D01*
X127864659Y-106780000D01*
X114635341Y-106780000D01*
X114616024Y-106583868D01*
X114558814Y-106395273D01*
X114558811Y-106395269D01*
X114558811Y-106395266D01*
X114465913Y-106221467D01*
X114465909Y-106221460D01*
X114340883Y-106069116D01*
X114188539Y-105944090D01*
X114188532Y-105944086D01*
X114014733Y-105851188D01*
X114014727Y-105851186D01*
X113826132Y-105793976D01*
X113826129Y-105793975D01*
X113630000Y-105774659D01*
X113433870Y-105793975D01*
X113245266Y-105851188D01*
X113071467Y-105944086D01*
X113071460Y-105944090D01*
X112919116Y-106069116D01*
X112794090Y-106221460D01*
X112794086Y-106221467D01*
X112701188Y-106395266D01*
X112643975Y-106583870D01*
X112624659Y-106780000D01*
X112101900Y-106780000D01*
X112101900Y-105618536D01*
X112103089Y-105601405D01*
X112104171Y-105593639D01*
X112104173Y-105593635D01*
X112102032Y-105547320D01*
X112101900Y-105541595D01*
X112101900Y-105523559D01*
X112101446Y-105518666D01*
X112100217Y-105508080D01*
X112098985Y-105481408D01*
X112096188Y-105475075D01*
X112087732Y-105447768D01*
X112086461Y-105440967D01*
X112072399Y-105418256D01*
X112064398Y-105403078D01*
X112053606Y-105378635D01*
X112048709Y-105373738D01*
X112030963Y-105351334D01*
X112027318Y-105345447D01*
X112027317Y-105345446D01*
X112006002Y-105329350D01*
X111993048Y-105318077D01*
X111586819Y-104911848D01*
X111553334Y-104850525D01*
X111550500Y-104824167D01*
X111550500Y-103995730D01*
X111547646Y-103965300D01*
X111547646Y-103965298D01*
X111502793Y-103837119D01*
X111502792Y-103837117D01*
X111422150Y-103727850D01*
X111312882Y-103647207D01*
X111312880Y-103647206D01*
X111184700Y-103602353D01*
X111154270Y-103599500D01*
X111154266Y-103599500D01*
X110345734Y-103599500D01*
X110345730Y-103599500D01*
X110315300Y-103602353D01*
X110315298Y-103602353D01*
X110187119Y-103647206D01*
X110187117Y-103647207D01*
X110077850Y-103727850D01*
X109997207Y-103837117D01*
X109997206Y-103837119D01*
X109952353Y-103965298D01*
X109952353Y-103965300D01*
X109949500Y-103995730D01*
X109949500Y-105004269D01*
X109952353Y-105034699D01*
X109952353Y-105034701D01*
X109997206Y-105162880D01*
X109997207Y-105162882D01*
X110077850Y-105272150D01*
X110187118Y-105352793D01*
X110200693Y-105357543D01*
X110315299Y-105397646D01*
X110345730Y-105400500D01*
X110345734Y-105400500D01*
X111154267Y-105400500D01*
X111161379Y-105399833D01*
X111229963Y-105413171D01*
X111260639Y-105435610D01*
X111464581Y-105639552D01*
X111498066Y-105700875D01*
X111500900Y-105727233D01*
X111500900Y-106790788D01*
X111481215Y-106857827D01*
X111428411Y-106903582D01*
X111359253Y-106913526D01*
X111318965Y-106900422D01*
X111312880Y-106897206D01*
X111184700Y-106852353D01*
X111154270Y-106849500D01*
X111154266Y-106849500D01*
X110345734Y-106849500D01*
X110345730Y-106849500D01*
X110315300Y-106852353D01*
X110315298Y-106852353D01*
X110187119Y-106897206D01*
X110187117Y-106897207D01*
X110077850Y-106977850D01*
X109997207Y-107087117D01*
X109997206Y-107087119D01*
X109952353Y-107215298D01*
X109952353Y-107215300D01*
X109949500Y-107245730D01*
X109949500Y-108254269D01*
X109952353Y-108284699D01*
X109952353Y-108284701D01*
X109997206Y-108412880D01*
X109997207Y-108412882D01*
X110077850Y-108522150D01*
X110187118Y-108602793D01*
X110218063Y-108613621D01*
X110315295Y-108647645D01*
X110315299Y-108647645D01*
X110315301Y-108647646D01*
X110337078Y-108649688D01*
X110401984Y-108675544D01*
X110442610Y-108732388D01*
X110449500Y-108773146D01*
X110449500Y-110107711D01*
X110429815Y-110174750D01*
X110425271Y-110181344D01*
X110347207Y-110287118D01*
X110347206Y-110287119D01*
X110302353Y-110415298D01*
X110302353Y-110415300D01*
X110299500Y-110445730D01*
X110299500Y-111054269D01*
X110302353Y-111084699D01*
X110302353Y-111084701D01*
X110347206Y-111212880D01*
X110347209Y-111212886D01*
X110425270Y-111318655D01*
X110449241Y-111384284D01*
X110449500Y-111392288D01*
X110449500Y-111574166D01*
X110429815Y-111641205D01*
X110413181Y-111661847D01*
X109260638Y-112814389D01*
X109199315Y-112847874D01*
X109161389Y-112850167D01*
X109154271Y-112849500D01*
X109154266Y-112849500D01*
X108345734Y-112849500D01*
X108345730Y-112849500D01*
X108315300Y-112852353D01*
X108315298Y-112852353D01*
X108187119Y-112897206D01*
X108187117Y-112897207D01*
X108077850Y-112977850D01*
X107997207Y-113087117D01*
X107997206Y-113087119D01*
X107952353Y-113215298D01*
X107952353Y-113215300D01*
X107949500Y-113245730D01*
X107949500Y-114254269D01*
X107952353Y-114284699D01*
X107952353Y-114284701D01*
X107995585Y-114408247D01*
X107997207Y-114412882D01*
X108077850Y-114522150D01*
X108187118Y-114602793D01*
X108218063Y-114613621D01*
X108315295Y-114647645D01*
X108315299Y-114647645D01*
X108315301Y-114647646D01*
X108337078Y-114649688D01*
X108401984Y-114675544D01*
X108442610Y-114732388D01*
X108449500Y-114773146D01*
X108449500Y-115925500D01*
X108429815Y-115992539D01*
X108377011Y-116038294D01*
X108325500Y-116049500D01*
X108195730Y-116049500D01*
X108165300Y-116052353D01*
X108165298Y-116052353D01*
X108037119Y-116097206D01*
X108037117Y-116097207D01*
X107927850Y-116177850D01*
X107847207Y-116287117D01*
X107847206Y-116287119D01*
X107802353Y-116415298D01*
X107802353Y-116415300D01*
X107799500Y-116445730D01*
X107799500Y-117054269D01*
X107535600Y-117054269D01*
X107535600Y-115552237D01*
X107536789Y-115535106D01*
X107537871Y-115527340D01*
X107537873Y-115527336D01*
X107535732Y-115481021D01*
X107535600Y-115475296D01*
X107535600Y-115457259D01*
X107535146Y-115452366D01*
X107533917Y-115441780D01*
X107532685Y-115415109D01*
X107529888Y-115408776D01*
X107521432Y-115381470D01*
X107520161Y-115374667D01*
X107506103Y-115351962D01*
X107498095Y-115336770D01*
X107487307Y-115312337D01*
X107487306Y-115312336D01*
X107487306Y-115312335D01*
X107482409Y-115307438D01*
X107464663Y-115285034D01*
X107461018Y-115279147D01*
X107461017Y-115279146D01*
X107439702Y-115263050D01*
X107426748Y-115251777D01*
X106376819Y-114201848D01*
X106343334Y-114140525D01*
X106340500Y-114114167D01*
X106340500Y-111054269D01*
X107799500Y-111054269D01*
X107802353Y-111084699D01*
X107802353Y-111084701D01*
X107844781Y-111205950D01*
X107847207Y-111212882D01*
X107927850Y-111322150D01*
X108037118Y-111402793D01*
X108079845Y-111417744D01*
X108165299Y-111447646D01*
X108195730Y-111450500D01*
X108195734Y-111450500D01*
X108804270Y-111450500D01*
X108834699Y-111447646D01*
X108834701Y-111447646D01*
X108914464Y-111419735D01*
X108962882Y-111402793D01*
X109072150Y-111322150D01*
X109152793Y-111212882D01*
X109182567Y-111127792D01*
X109197646Y-111084701D01*
X109197646Y-111084699D01*
X109200500Y-111054269D01*
X109200500Y-110445730D01*
X109197646Y-110415300D01*
X109197646Y-110415298D01*
X109158012Y-110302033D01*
X109152793Y-110287118D01*
X109081511Y-110190534D01*
X109074729Y-110181344D01*
X109050759Y-110115715D01*
X109050500Y-110107711D01*
X109050500Y-108773146D01*
X109070185Y-108706107D01*
X109122989Y-108660352D01*
X109162919Y-108649688D01*
X109184699Y-108647646D01*
X109184701Y-108647645D01*
X109184704Y-108647645D01*
X109250991Y-108624449D01*
X109312882Y-108602793D01*
X109422150Y-108522150D01*
X109502793Y-108412882D01*
X109537163Y-108314659D01*
X109547646Y-108284701D01*
X109547646Y-108284699D01*
X109550500Y-108254269D01*
X109550500Y-107245730D01*
X109547646Y-107215300D01*
X109547646Y-107215298D01*
X109502793Y-107087119D01*
X109502792Y-107087117D01*
X109500900Y-107084553D01*
X109469978Y-107042655D01*
X109446008Y-106977028D01*
X109461323Y-106908857D01*
X109511064Y-106859789D01*
X109534815Y-106850046D01*
X109655350Y-106814654D01*
X109655350Y-106814653D01*
X109655353Y-106814653D01*
X109776428Y-106736843D01*
X109870677Y-106628073D01*
X109930465Y-106497157D01*
X109950947Y-106354700D01*
X109930465Y-106212243D01*
X109870677Y-106081327D01*
X109776428Y-105972557D01*
X109655353Y-105894747D01*
X109655351Y-105894746D01*
X109655349Y-105894745D01*
X109655350Y-105894745D01*
X109517263Y-105854200D01*
X109517261Y-105854200D01*
X109373339Y-105854200D01*
X109373336Y-105854200D01*
X109235249Y-105894745D01*
X109114173Y-105972556D01*
X109019923Y-106081326D01*
X109019922Y-106081328D01*
X108960134Y-106212243D01*
X108939653Y-106354700D01*
X108939653Y-106354701D01*
X108940961Y-106363803D01*
X108931013Y-106432961D01*
X108905903Y-106469124D01*
X108584986Y-106790041D01*
X108572035Y-106801312D01*
X108565769Y-106806043D01*
X108563039Y-106809039D01*
X108556717Y-106812879D01*
X108556605Y-106812965D01*
X108556596Y-106812953D01*
X108503328Y-106845320D01*
X108471403Y-106849500D01*
X108345730Y-106849500D01*
X108315300Y-106852353D01*
X108315298Y-106852353D01*
X108187119Y-106897206D01*
X108187117Y-106897207D01*
X108077850Y-106977850D01*
X107997207Y-107087117D01*
X107997206Y-107087119D01*
X107952353Y-107215298D01*
X107952353Y-107215300D01*
X107949500Y-107245730D01*
X107949500Y-108254269D01*
X107952353Y-108284699D01*
X107952353Y-108284701D01*
X107997206Y-108412880D01*
X107997207Y-108412882D01*
X108077850Y-108522150D01*
X108187118Y-108602793D01*
X108218063Y-108613621D01*
X108315295Y-108647645D01*
X108315299Y-108647645D01*
X108315301Y-108647646D01*
X108337078Y-108649688D01*
X108401984Y-108675544D01*
X108442610Y-108732388D01*
X108449500Y-108773146D01*
X108449500Y-109925500D01*
X108429815Y-109992539D01*
X108377011Y-110038294D01*
X108325500Y-110049500D01*
X108195730Y-110049500D01*
X108165300Y-110052353D01*
X108165298Y-110052353D01*
X108037119Y-110097206D01*
X108037117Y-110097207D01*
X107927850Y-110177850D01*
X107847207Y-110287117D01*
X107847206Y-110287119D01*
X107802353Y-110415298D01*
X107802353Y-110415300D01*
X107799500Y-110445730D01*
X107799500Y-111054269D01*
X106340500Y-111054269D01*
X106340500Y-109728723D01*
X106360185Y-109661684D01*
X106412989Y-109615929D01*
X106419677Y-109613108D01*
X106532637Y-109569348D01*
X106706041Y-109461981D01*
X106853721Y-109327353D01*
X106856762Y-109324581D01*
X106856764Y-109324579D01*
X106979673Y-109161821D01*
X107070582Y-108979250D01*
X107126397Y-108783083D01*
X107145215Y-108580000D01*
X107143562Y-108562166D01*
X107126397Y-108376917D01*
X107114179Y-108333975D01*
X107070582Y-108180750D01*
X106979673Y-107998179D01*
X106856764Y-107835421D01*
X106856762Y-107835418D01*
X106706041Y-107698019D01*
X106706039Y-107698017D01*
X106532642Y-107590655D01*
X106532635Y-107590651D01*
X106437546Y-107553814D01*
X106342456Y-107516976D01*
X106141976Y-107479500D01*
X105938024Y-107479500D01*
X105737544Y-107516976D01*
X105737541Y-107516976D01*
X105737541Y-107516977D01*
X105547364Y-107590651D01*
X105547357Y-107590655D01*
X105373960Y-107698017D01*
X105373958Y-107698019D01*
X105223237Y-107835418D01*
X105100327Y-107998178D01*
X105009422Y-108180739D01*
X105009417Y-108180752D01*
X104953602Y-108376917D01*
X104934785Y-108579999D01*
X104934785Y-108580000D01*
X104953602Y-108783082D01*
X105009417Y-108979247D01*
X105009422Y-108979260D01*
X105100327Y-109161821D01*
X105223237Y-109324581D01*
X105373958Y-109461980D01*
X105373960Y-109461982D01*
X105450164Y-109509165D01*
X105547363Y-109569348D01*
X105660295Y-109613098D01*
X105715695Y-109655668D01*
X105739286Y-109721435D01*
X105739500Y-109728723D01*
X105739500Y-112515167D01*
X105719815Y-112582206D01*
X105667011Y-112627961D01*
X105597853Y-112637905D01*
X105534297Y-112608880D01*
X105527819Y-112602848D01*
X103836819Y-110911848D01*
X103803334Y-110850525D01*
X103800500Y-110824167D01*
X103800500Y-104648723D01*
X103820185Y-104581684D01*
X103872989Y-104535929D01*
X103879677Y-104533108D01*
X103992637Y-104489348D01*
X104166041Y-104381981D01*
X104316764Y-104244579D01*
X104439673Y-104081821D01*
X104530582Y-103899250D01*
X104586397Y-103703083D01*
X104605215Y-103500000D01*
X104601999Y-103465298D01*
X104586397Y-103296917D01*
X104568683Y-103234659D01*
X104530582Y-103100750D01*
X104530363Y-103100311D01*
X104454536Y-102948028D01*
X104439673Y-102918179D01*
X104316764Y-102755421D01*
X104316762Y-102755418D01*
X104166041Y-102618019D01*
X104166039Y-102618017D01*
X103992642Y-102510655D01*
X103992635Y-102510651D01*
X103897546Y-102473814D01*
X103802456Y-102436976D01*
X103601976Y-102399500D01*
X103398024Y-102399500D01*
X103197544Y-102436976D01*
X103197541Y-102436976D01*
X103197541Y-102436977D01*
X103007364Y-102510651D01*
X103007357Y-102510655D01*
X102833960Y-102618017D01*
X102833958Y-102618019D01*
X102683237Y-102755418D01*
X102560327Y-102918178D01*
X102469422Y-103100739D01*
X102469417Y-103100752D01*
X102413602Y-103296917D01*
X102394785Y-103499999D01*
X102394785Y-103500000D01*
X102413602Y-103703082D01*
X102469417Y-103899247D01*
X102469422Y-103899260D01*
X102560327Y-104081821D01*
X102683237Y-104244581D01*
X102833958Y-104381980D01*
X102833960Y-104381982D01*
X102921411Y-104436129D01*
X103007363Y-104489348D01*
X103120295Y-104533098D01*
X103175695Y-104575668D01*
X103199286Y-104641435D01*
X103199500Y-104648723D01*
X103199500Y-110932861D01*
X103198312Y-110949988D01*
X103197227Y-110957765D01*
X103199368Y-111004079D01*
X103199500Y-111009804D01*
X103199500Y-111027842D01*
X103199947Y-111032671D01*
X103201181Y-111043305D01*
X103202415Y-111069992D01*
X103202416Y-111069997D01*
X103205214Y-111076334D01*
X103213664Y-111103620D01*
X103214937Y-111110429D01*
X103214937Y-111110430D01*
X103214939Y-111110433D01*
X103229001Y-111133146D01*
X103236997Y-111148315D01*
X103247794Y-111172765D01*
X103247795Y-111172766D01*
X103247796Y-111172768D01*
X103252689Y-111177661D01*
X103270435Y-111200065D01*
X103274077Y-111205948D01*
X103274079Y-111205950D01*
X103274080Y-111205951D01*
X103274081Y-111205952D01*
X103295396Y-111222048D01*
X103308350Y-111233321D01*
X105163181Y-113088152D01*
X105196666Y-113149475D01*
X105199500Y-113175833D01*
X105199500Y-114506853D01*
X105179815Y-114573892D01*
X105127011Y-114619647D01*
X105057853Y-114629591D01*
X104994297Y-114600566D01*
X104962706Y-114558365D01*
X104944785Y-114519124D01*
X104925377Y-114476627D01*
X104831128Y-114367857D01*
X104710053Y-114290047D01*
X104710051Y-114290046D01*
X104710049Y-114290045D01*
X104710050Y-114290045D01*
X104571963Y-114249500D01*
X104571961Y-114249500D01*
X104428039Y-114249500D01*
X104428036Y-114249500D01*
X104289949Y-114290045D01*
X104168873Y-114367856D01*
X104074623Y-114476626D01*
X104074622Y-114476628D01*
X104014834Y-114607543D01*
X103996476Y-114735233D01*
X103967451Y-114798789D01*
X103908673Y-114836563D01*
X103850144Y-114837671D01*
X103849917Y-114839032D01*
X103616007Y-114800000D01*
X103383993Y-114800000D01*
X103155139Y-114838188D01*
X102935706Y-114913520D01*
X102935697Y-114913523D01*
X102731650Y-115023949D01*
X102701200Y-115047647D01*
X103367466Y-115713913D01*
X103357685Y-115715320D01*
X103226900Y-115775048D01*
X103118239Y-115869202D01*
X103040507Y-115990156D01*
X103016922Y-116070476D01*
X102348811Y-115402365D01*
X102264516Y-115531390D01*
X102171317Y-115743864D01*
X102114361Y-115968781D01*
X102095202Y-116199994D01*
X102095202Y-116200005D01*
X100500500Y-116200005D01*
X100500500Y-100624500D01*
X100520185Y-100557461D01*
X100572989Y-100511706D01*
X100624500Y-100500500D01*
X107810258Y-100500500D01*
X107877297Y-100520185D01*
G37*
%TD.AperFunction*%
%TD*%
D29*
X100000000Y-100000000D02*
X142500000Y-100000000D01*
X142500000Y-145000000D01*
X100000000Y-145000000D01*
X100000000Y-100000000D01*
M02*
