%TF.GenerationSoftware,KiCad,Pcbnew,7.0.11+dfsg-1build4*%
%TF.CreationDate,2026-09-10T16:33:41-05:00*%
%TF.ProjectId,,58585858-5858-4585-9858-585858585858,rev?*%
%TF.SameCoordinates,Original*%
%TF.FileFunction,Copper,L2,Bot*%
%TF.FilePolarity,Positive*%
%FSLAX46Y46*%
G04 Gerber Fmt 4.6, Leading zero omitted, Abs format (unit mm)*
G04 Created by KiCad (PCBNEW 7.0.11+dfsg-1build4) date 2026-09-10 16:33:41*
%MOMM*%
%LPD*%
G01*
G04 APERTURE LIST*
%TA.AperFunction,ComponentPad*%
%ADD10C,3.400000*%
%TD*%
%TA.AperFunction,ConnectorPad*%
%ADD11C,4.500000*%
%TD*%
%TA.AperFunction,Profile*%
%ADD12C,0.050000*%
%TD*%
G04 APERTURE END LIST*
D10*
%TO.P,H4,1,1*%
%TO.N,GND*%
X130450000Y-151850000D03*
D11*
X130450000Y-151850000D03*
%TD*%
D10*
%TO.P,H3,1,1*%
%TO.N,GND*%
X91050000Y-151850000D03*
D11*
X91050000Y-151850000D03*
%TD*%
D10*
%TO.P,H4,1,1*%
%TO.N,GND*%
X85450000Y-151850000D03*
D11*
X85450000Y-151850000D03*
%TD*%
D10*
%TO.P,H3,1,1*%
%TO.N,GND*%
X46050000Y-151850000D03*
D11*
X46050000Y-151850000D03*
%TD*%
D10*
%TO.P,H4,1,1*%
%TO.N,GND*%
X130450000Y-132350000D03*
D11*
X130450000Y-132350000D03*
%TD*%
D10*
%TO.P,H3,1,1*%
%TO.N,GND*%
X91050000Y-132350000D03*
D11*
X91050000Y-132350000D03*
%TD*%
D10*
%TO.P,H4,1,1*%
%TO.N,GND*%
X85450000Y-132350000D03*
D11*
X85450000Y-132350000D03*
%TD*%
D10*
%TO.P,H3,1,1*%
%TO.N,GND*%
X46050000Y-132350000D03*
D11*
X46050000Y-132350000D03*
%TD*%
D10*
%TO.P,H4,1,1*%
%TO.N,GND*%
X130450000Y-112850000D03*
D11*
X130450000Y-112850000D03*
%TD*%
D10*
%TO.P,H3,1,1*%
%TO.N,GND*%
X91050000Y-112850000D03*
D11*
X91050000Y-112850000D03*
%TD*%
D10*
%TO.P,H4,1,1*%
%TO.N,GND*%
X85450000Y-112850000D03*
D11*
X85450000Y-112850000D03*
%TD*%
D10*
%TO.P,H3,1,1*%
%TO.N,GND*%
X46050000Y-112850000D03*
D11*
X46050000Y-112850000D03*
%TD*%
D10*
%TO.P,H4,1,1*%
%TO.N,GND*%
X130450000Y-93350000D03*
D11*
X130450000Y-93350000D03*
%TD*%
D10*
%TO.P,H3,1,1*%
%TO.N,GND*%
X91050000Y-93350000D03*
D11*
X91050000Y-93350000D03*
%TD*%
D10*
%TO.P,H4,1,1*%
%TO.N,GND*%
X85450000Y-93350000D03*
D11*
X85450000Y-93350000D03*
%TD*%
D10*
%TO.P,H3,1,1*%
%TO.N,GND*%
X46050000Y-93350000D03*
D11*
X46050000Y-93350000D03*
%TD*%
D10*
%TO.P,H4,1,1*%
%TO.N,GND*%
X130450000Y-73850000D03*
D11*
X130450000Y-73850000D03*
%TD*%
D10*
%TO.P,H3,1,1*%
%TO.N,GND*%
X91050000Y-73850000D03*
D11*
X91050000Y-73850000D03*
%TD*%
D10*
%TO.P,H3,1,1*%
%TO.N,GND*%
X46050000Y-73850000D03*
D11*
X46050000Y-73850000D03*
%TD*%
D10*
%TO.P,H4,1,1*%
%TO.N,GND*%
X85450000Y-73850000D03*
D11*
X85450000Y-73850000D03*
%TD*%
%TA.AperFunction,Conductor*%
%TO.N,GND*%
G36*
X44942632Y-74869404D02*
G01*
X45125523Y-75037768D01*
X45180116Y-75073435D01*
X44289415Y-75964136D01*
X44289415Y-75964137D01*
X44484960Y-76117337D01*
X44484968Y-76117342D01*
X44769678Y-76289454D01*
X44769680Y-76289456D01*
X45073056Y-76425994D01*
X45073071Y-76426000D01*
X45333379Y-76507115D01*
X45391527Y-76545852D01*
X45419501Y-76609877D01*
X45408419Y-76678863D01*
X45361801Y-76730906D01*
X45296489Y-76749500D01*
X45254428Y-76749500D01*
X45245582Y-76749184D01*
X45223622Y-76747613D01*
X45045442Y-76734869D01*
X45027931Y-76732351D01*
X44836212Y-76690646D01*
X44819236Y-76685662D01*
X44635390Y-76617090D01*
X44619298Y-76609740D01*
X44447095Y-76515711D01*
X44432210Y-76506146D01*
X44275132Y-76388558D01*
X44261762Y-76376972D01*
X44123027Y-76238237D01*
X44111441Y-76224867D01*
X44030949Y-76117343D01*
X43993849Y-76067784D01*
X43984288Y-76052904D01*
X43890259Y-75880701D01*
X43882909Y-75864609D01*
X43851374Y-75780061D01*
X43846390Y-75710369D01*
X43879875Y-75649046D01*
X43918480Y-75627965D01*
X44826389Y-74720056D01*
X44942632Y-74869404D01*
G37*
%TD.AperFunction*%
%TA.AperFunction,Conductor*%
G36*
X86254418Y-58250816D02*
G01*
X86454561Y-58265130D01*
X86472063Y-58267647D01*
X86663797Y-58309355D01*
X86680755Y-58314334D01*
X86864609Y-58382909D01*
X86880701Y-58390259D01*
X87052904Y-58484288D01*
X87067784Y-58493849D01*
X87224867Y-58611441D01*
X87238237Y-58623027D01*
X87376972Y-58761762D01*
X87388558Y-58775132D01*
X87506146Y-58932210D01*
X87515711Y-58947095D01*
X87609740Y-59119298D01*
X87617090Y-59135390D01*
X87685662Y-59319236D01*
X87690646Y-59336212D01*
X87732351Y-59527931D01*
X87734869Y-59545442D01*
X87749184Y-59745580D01*
X87749500Y-59754427D01*
X87749500Y-71968900D01*
X87729815Y-72035939D01*
X87677011Y-72081694D01*
X87618014Y-72092674D01*
X87564136Y-72089415D01*
X86673609Y-72979942D01*
X86557368Y-72830596D01*
X86374477Y-72662232D01*
X86319882Y-72626563D01*
X87210583Y-71735862D01*
X87210583Y-71735861D01*
X87015039Y-71582662D01*
X87015031Y-71582657D01*
X86730321Y-71410545D01*
X86730319Y-71410543D01*
X86426943Y-71274005D01*
X86426928Y-71273999D01*
X86109329Y-71175032D01*
X85782076Y-71115060D01*
X85450000Y-71094974D01*
X85117923Y-71115060D01*
X84790670Y-71175032D01*
X84473071Y-71273999D01*
X84473056Y-71274005D01*
X84169680Y-71410543D01*
X84169678Y-71410545D01*
X83884968Y-71582657D01*
X83689415Y-71735862D01*
X84580117Y-72626564D01*
X84525523Y-72662232D01*
X84342632Y-72830596D01*
X84226389Y-72979942D01*
X83335862Y-72089415D01*
X83182657Y-72284968D01*
X83010545Y-72569678D01*
X83010543Y-72569680D01*
X82874005Y-72873056D01*
X82873999Y-72873071D01*
X82775032Y-73190670D01*
X82715060Y-73517923D01*
X82694974Y-73850000D01*
X82715060Y-74182076D01*
X82775032Y-74509329D01*
X82873999Y-74826928D01*
X82874005Y-74826943D01*
X83010543Y-75130319D01*
X83010545Y-75130321D01*
X83182657Y-75415031D01*
X83182662Y-75415039D01*
X83335862Y-75610583D01*
X84226389Y-74720056D01*
X84342632Y-74869404D01*
X84525523Y-75037768D01*
X84580116Y-75073435D01*
X83689415Y-75964136D01*
X83689415Y-75964137D01*
X83884960Y-76117337D01*
X83884968Y-76117342D01*
X84169678Y-76289454D01*
X84169680Y-76289456D01*
X84473056Y-76425994D01*
X84473071Y-76426000D01*
X84733379Y-76507115D01*
X84791527Y-76545852D01*
X84819501Y-76609877D01*
X84808419Y-76678863D01*
X84761801Y-76730906D01*
X84696489Y-76749500D01*
X46803511Y-76749500D01*
X46736472Y-76729815D01*
X46690717Y-76677011D01*
X46680773Y-76607853D01*
X46709798Y-76544297D01*
X46766621Y-76507115D01*
X47026928Y-76426000D01*
X47026943Y-76425994D01*
X47330319Y-76289456D01*
X47330321Y-76289454D01*
X47615030Y-76117343D01*
X47810583Y-75964137D01*
X47810583Y-75964136D01*
X46919882Y-75073435D01*
X46974477Y-75037768D01*
X47157368Y-74869404D01*
X47273610Y-74720057D01*
X48164136Y-75610583D01*
X48164137Y-75610583D01*
X48317343Y-75415030D01*
X48489454Y-75130321D01*
X48489456Y-75130319D01*
X48625994Y-74826943D01*
X48626000Y-74826928D01*
X48724967Y-74509329D01*
X48784939Y-74182076D01*
X48805025Y-73850000D01*
X48784939Y-73517923D01*
X48724967Y-73190670D01*
X48626000Y-72873071D01*
X48625994Y-72873056D01*
X48489456Y-72569680D01*
X48489454Y-72569678D01*
X48317342Y-72284968D01*
X48317337Y-72284960D01*
X48164136Y-72089415D01*
X47273609Y-72979942D01*
X47157368Y-72830596D01*
X46974477Y-72662232D01*
X46919882Y-72626563D01*
X47810583Y-71735862D01*
X47810583Y-71735861D01*
X47615039Y-71582662D01*
X47615031Y-71582657D01*
X47330321Y-71410545D01*
X47330319Y-71410543D01*
X47026943Y-71274005D01*
X47026928Y-71273999D01*
X46709329Y-71175032D01*
X46382076Y-71115060D01*
X46050000Y-71094974D01*
X45717923Y-71115060D01*
X45390670Y-71175032D01*
X45073071Y-71273999D01*
X45073056Y-71274005D01*
X44769680Y-71410543D01*
X44769678Y-71410545D01*
X44484968Y-71582657D01*
X44289415Y-71735862D01*
X45180117Y-72626564D01*
X45125523Y-72662232D01*
X44942632Y-72830596D01*
X44826389Y-72979942D01*
X43935862Y-72089415D01*
X43881986Y-72092674D01*
X43813881Y-72077073D01*
X43765021Y-72027127D01*
X43750500Y-71968900D01*
X43750500Y-67750000D01*
X51250000Y-67750000D01*
X51750000Y-69000000D01*
X53000000Y-69500000D01*
X54250000Y-69000000D01*
X54750000Y-67750000D01*
X76750000Y-67750000D01*
X77250000Y-69000000D01*
X78500000Y-69500000D01*
X79750000Y-69000000D01*
X80250000Y-67750000D01*
X79750000Y-66500000D01*
X78500000Y-66000000D01*
X77250000Y-66500000D01*
X76750000Y-67750000D01*
X54750000Y-67750000D01*
X54250000Y-66500000D01*
X53000000Y-66000000D01*
X51750000Y-66500000D01*
X51250000Y-67750000D01*
X43750500Y-67750000D01*
X43750500Y-61281187D01*
X44299500Y-61281187D01*
X44318685Y-61408462D01*
X44338604Y-61540615D01*
X44338605Y-61540617D01*
X44338606Y-61540623D01*
X44415938Y-61791326D01*
X44529767Y-62027696D01*
X44529768Y-62027697D01*
X44529770Y-62027700D01*
X44529772Y-62027704D01*
X44534249Y-62034270D01*
X44677567Y-62244479D01*
X44856014Y-62436801D01*
X44856018Y-62436804D01*
X44856019Y-62436805D01*
X45061143Y-62600386D01*
X45288357Y-62731568D01*
X45532584Y-62827420D01*
X45788370Y-62885802D01*
X45788376Y-62885802D01*
X45788379Y-62885803D01*
X45950031Y-62897917D01*
X46015412Y-62922556D01*
X46057093Y-62978631D01*
X46061931Y-63047928D01*
X46014804Y-63264566D01*
X45994390Y-63549998D01*
X45994390Y-63550001D01*
X46014804Y-63835433D01*
X46075628Y-64115037D01*
X46175635Y-64383166D01*
X46312770Y-64634309D01*
X46312775Y-64634317D01*
X46484254Y-64863387D01*
X46484270Y-64863405D01*
X46686594Y-65065729D01*
X46686612Y-65065745D01*
X46915682Y-65237224D01*
X46915690Y-65237229D01*
X47166833Y-65374364D01*
X47166832Y-65374364D01*
X47166836Y-65374365D01*
X47166839Y-65374367D01*
X47434954Y-65474369D01*
X47434960Y-65474370D01*
X47434962Y-65474371D01*
X47714566Y-65535195D01*
X47714568Y-65535195D01*
X47714572Y-65535196D01*
X47968220Y-65553337D01*
X47999999Y-65555610D01*
X48000000Y-65555610D01*
X48000001Y-65555610D01*
X48028595Y-65553564D01*
X48285428Y-65535196D01*
X48565046Y-65474369D01*
X48833161Y-65374367D01*
X49084315Y-65237226D01*
X49313395Y-65065739D01*
X49515739Y-64863395D01*
X49687226Y-64634315D01*
X49794677Y-64437534D01*
X60249500Y-64437534D01*
X60279898Y-64609937D01*
X60339775Y-64774446D01*
X60427309Y-64926057D01*
X60539836Y-65060163D01*
X60673942Y-65172690D01*
X60785716Y-65237224D01*
X60825555Y-65260225D01*
X60990062Y-65320101D01*
X61162468Y-65350500D01*
X61162472Y-65350500D01*
X70337528Y-65350500D01*
X70337532Y-65350500D01*
X70509938Y-65320101D01*
X70674445Y-65260225D01*
X70826055Y-65172692D01*
X70960163Y-65060163D01*
X71072692Y-64926055D01*
X71160225Y-64774445D01*
X71220101Y-64609938D01*
X71250500Y-64437532D01*
X71250500Y-64350000D01*
X71250500Y-64284108D01*
X71250500Y-63550001D01*
X81494390Y-63550001D01*
X81514804Y-63835433D01*
X81575628Y-64115037D01*
X81675635Y-64383166D01*
X81812770Y-64634309D01*
X81812775Y-64634317D01*
X81984254Y-64863387D01*
X81984270Y-64863405D01*
X82186594Y-65065729D01*
X82186612Y-65065745D01*
X82415682Y-65237224D01*
X82415690Y-65237229D01*
X82666833Y-65374364D01*
X82666832Y-65374364D01*
X82666836Y-65374365D01*
X82666839Y-65374367D01*
X82934954Y-65474369D01*
X82934960Y-65474370D01*
X82934962Y-65474371D01*
X83214566Y-65535195D01*
X83214568Y-65535195D01*
X83214572Y-65535196D01*
X83468220Y-65553337D01*
X83499999Y-65555610D01*
X83500000Y-65555610D01*
X83500001Y-65555610D01*
X83528595Y-65553564D01*
X83785428Y-65535196D01*
X84065046Y-65474369D01*
X84333161Y-65374367D01*
X84584315Y-65237226D01*
X84813395Y-65065739D01*
X85015739Y-64863395D01*
X85187226Y-64634315D01*
X85324367Y-64383161D01*
X85424369Y-64115046D01*
X85485196Y-63835428D01*
X85505610Y-63550000D01*
X85485196Y-63264572D01*
X85438068Y-63047927D01*
X85443052Y-62978237D01*
X85484923Y-62922303D01*
X85549968Y-62897917D01*
X85711620Y-62885803D01*
X85711622Y-62885802D01*
X85711630Y-62885802D01*
X85967416Y-62827420D01*
X86211643Y-62731568D01*
X86438857Y-62600386D01*
X86643981Y-62436805D01*
X86822433Y-62244479D01*
X86970228Y-62027704D01*
X87084063Y-61791323D01*
X87161396Y-61540615D01*
X87200500Y-61281182D01*
X87200500Y-61018818D01*
X87161396Y-60759385D01*
X87084063Y-60508677D01*
X87072121Y-60483880D01*
X86970232Y-60272303D01*
X86970231Y-60272302D01*
X86970230Y-60272301D01*
X86970228Y-60272296D01*
X86822433Y-60055521D01*
X86812441Y-60044753D01*
X86643985Y-59863198D01*
X86507590Y-59754427D01*
X86438857Y-59699614D01*
X86211643Y-59568432D01*
X85967416Y-59472580D01*
X85967411Y-59472578D01*
X85967402Y-59472576D01*
X85749818Y-59422914D01*
X85711630Y-59414198D01*
X85711629Y-59414197D01*
X85711625Y-59414197D01*
X85711620Y-59414196D01*
X85515515Y-59399500D01*
X85515494Y-59399500D01*
X85384506Y-59399500D01*
X85384484Y-59399500D01*
X85188379Y-59414196D01*
X85188374Y-59414197D01*
X84932597Y-59472576D01*
X84932578Y-59472582D01*
X84688356Y-59568432D01*
X84461143Y-59699614D01*
X84256014Y-59863198D01*
X84077567Y-60055520D01*
X83929768Y-60272302D01*
X83929767Y-60272303D01*
X83815938Y-60508673D01*
X83738606Y-60759376D01*
X83738605Y-60759381D01*
X83738604Y-60759385D01*
X83725021Y-60849500D01*
X83699500Y-61018812D01*
X83699500Y-61281189D01*
X83718684Y-61408463D01*
X83709211Y-61477687D01*
X83663816Y-61530801D01*
X83596912Y-61550941D01*
X83587223Y-61550628D01*
X83500001Y-61544390D01*
X83499999Y-61544390D01*
X83214566Y-61564804D01*
X82934962Y-61625628D01*
X82666833Y-61725635D01*
X82415690Y-61862770D01*
X82415682Y-61862775D01*
X82186612Y-62034254D01*
X82186594Y-62034270D01*
X81984270Y-62236594D01*
X81984254Y-62236612D01*
X81812775Y-62465682D01*
X81812770Y-62465690D01*
X81675635Y-62716833D01*
X81575628Y-62984962D01*
X81514804Y-63264566D01*
X81494390Y-63549998D01*
X81494390Y-63550001D01*
X71250500Y-63550001D01*
X71250500Y-61814201D01*
X71250500Y-61762468D01*
X71220101Y-61590062D01*
X71160225Y-61425555D01*
X71072692Y-61273945D01*
X71072691Y-61273943D01*
X71072690Y-61273942D01*
X70960163Y-61139836D01*
X70826057Y-61027309D01*
X70674446Y-60939775D01*
X70509937Y-60879898D01*
X70337534Y-60849500D01*
X70337532Y-60849500D01*
X70285799Y-60849500D01*
X61315892Y-60849500D01*
X61250000Y-60849500D01*
X61162468Y-60849500D01*
X61162465Y-60849500D01*
X60990062Y-60879898D01*
X60825553Y-60939775D01*
X60673942Y-61027309D01*
X60539836Y-61139836D01*
X60427309Y-61273942D01*
X60339775Y-61425553D01*
X60279898Y-61590062D01*
X60249500Y-61762465D01*
X60249500Y-64437534D01*
X49794677Y-64437534D01*
X49824367Y-64383161D01*
X49924369Y-64115046D01*
X49985196Y-63835428D01*
X50005610Y-63550000D01*
X49985196Y-63264572D01*
X49924369Y-62984954D01*
X49824367Y-62716839D01*
X49744025Y-62569705D01*
X49687229Y-62465690D01*
X49687224Y-62465682D01*
X49515745Y-62236612D01*
X49515729Y-62236594D01*
X49313405Y-62034270D01*
X49313387Y-62034254D01*
X49084317Y-61862775D01*
X49084309Y-61862770D01*
X48833166Y-61725635D01*
X48833167Y-61725635D01*
X48725915Y-61685632D01*
X48565046Y-61625631D01*
X48565043Y-61625630D01*
X48565037Y-61625628D01*
X48285433Y-61564804D01*
X48000001Y-61544390D01*
X47999999Y-61544390D01*
X47912776Y-61550628D01*
X47844503Y-61535776D01*
X47795098Y-61486371D01*
X47780246Y-61418098D01*
X47781315Y-61408462D01*
X47800499Y-61281187D01*
X47800500Y-61281182D01*
X47800500Y-61018817D01*
X47800499Y-61018812D01*
X47761396Y-60759385D01*
X47684063Y-60508677D01*
X47672121Y-60483880D01*
X47570232Y-60272303D01*
X47570231Y-60272302D01*
X47570230Y-60272301D01*
X47570228Y-60272296D01*
X47422433Y-60055521D01*
X47412441Y-60044753D01*
X47243985Y-59863198D01*
X47107590Y-59754427D01*
X47038857Y-59699614D01*
X46811643Y-59568432D01*
X46567416Y-59472580D01*
X46567411Y-59472578D01*
X46567402Y-59472576D01*
X46349818Y-59422914D01*
X46311630Y-59414198D01*
X46311629Y-59414197D01*
X46311625Y-59414197D01*
X46311620Y-59414196D01*
X46115515Y-59399500D01*
X46115494Y-59399500D01*
X45984506Y-59399500D01*
X45984484Y-59399500D01*
X45788379Y-59414196D01*
X45788374Y-59414197D01*
X45532597Y-59472576D01*
X45532578Y-59472582D01*
X45288356Y-59568432D01*
X45061143Y-59699614D01*
X44856014Y-59863198D01*
X44677567Y-60055520D01*
X44529768Y-60272302D01*
X44529767Y-60272303D01*
X44415938Y-60508673D01*
X44338606Y-60759376D01*
X44338605Y-60759381D01*
X44338604Y-60759385D01*
X44325021Y-60849500D01*
X44299500Y-61018812D01*
X44299500Y-61281187D01*
X43750500Y-61281187D01*
X43750500Y-59754427D01*
X43750816Y-59745581D01*
X43765130Y-59545443D01*
X43765131Y-59545442D01*
X43765130Y-59545436D01*
X43767646Y-59527938D01*
X43809356Y-59336199D01*
X43814333Y-59319248D01*
X43882911Y-59135385D01*
X43890259Y-59119298D01*
X43952815Y-59004734D01*
X43984291Y-58947089D01*
X43993845Y-58932221D01*
X44111448Y-58775123D01*
X44123020Y-58761769D01*
X44261769Y-58623020D01*
X44275123Y-58611448D01*
X44432221Y-58493845D01*
X44447089Y-58484291D01*
X44619298Y-58390258D01*
X44635385Y-58382911D01*
X44819248Y-58314333D01*
X44836199Y-58309356D01*
X45027938Y-58267646D01*
X45045436Y-58265130D01*
X45245582Y-58250816D01*
X45254428Y-58250500D01*
X45315892Y-58250500D01*
X86184108Y-58250500D01*
X86245572Y-58250500D01*
X86254418Y-58250816D01*
G37*
%TD.AperFunction*%
%TA.AperFunction,Conductor*%
G36*
X87578851Y-75625298D02*
G01*
X87593059Y-75628553D01*
X87641920Y-75678496D01*
X87656023Y-75746928D01*
X87648625Y-75780061D01*
X87617090Y-75864609D01*
X87609740Y-75880701D01*
X87515711Y-76052904D01*
X87506146Y-76067789D01*
X87388558Y-76224867D01*
X87376972Y-76238237D01*
X87238237Y-76376972D01*
X87224867Y-76388558D01*
X87067789Y-76506146D01*
X87052904Y-76515711D01*
X86880701Y-76609740D01*
X86864609Y-76617090D01*
X86680763Y-76685662D01*
X86663787Y-76690646D01*
X86472068Y-76732351D01*
X86454557Y-76734869D01*
X86273779Y-76747799D01*
X86254417Y-76749184D01*
X86245572Y-76749500D01*
X86203511Y-76749500D01*
X86136472Y-76729815D01*
X86090717Y-76677011D01*
X86080773Y-76607853D01*
X86109798Y-76544297D01*
X86166621Y-76507115D01*
X86426928Y-76426000D01*
X86426943Y-76425994D01*
X86730319Y-76289456D01*
X86730321Y-76289454D01*
X87015030Y-76117343D01*
X87210583Y-75964137D01*
X87210583Y-75964136D01*
X86319882Y-75073435D01*
X86374477Y-75037768D01*
X86557368Y-74869404D01*
X86673610Y-74720057D01*
X87578851Y-75625298D01*
G37*
%TD.AperFunction*%
%TD*%
%TA.AperFunction,Conductor*%
%TO.N,GND*%
G36*
X89942632Y-74869404D02*
G01*
X90125523Y-75037768D01*
X90180116Y-75073435D01*
X89289415Y-75964136D01*
X89289415Y-75964137D01*
X89484960Y-76117337D01*
X89484968Y-76117342D01*
X89769678Y-76289454D01*
X89769680Y-76289456D01*
X90073056Y-76425994D01*
X90073071Y-76426000D01*
X90333379Y-76507115D01*
X90391527Y-76545852D01*
X90419501Y-76609877D01*
X90408419Y-76678863D01*
X90361801Y-76730906D01*
X90296489Y-76749500D01*
X90254428Y-76749500D01*
X90245582Y-76749184D01*
X90223622Y-76747613D01*
X90045442Y-76734869D01*
X90027931Y-76732351D01*
X89836212Y-76690646D01*
X89819236Y-76685662D01*
X89635390Y-76617090D01*
X89619298Y-76609740D01*
X89447095Y-76515711D01*
X89432210Y-76506146D01*
X89275132Y-76388558D01*
X89261762Y-76376972D01*
X89123027Y-76238237D01*
X89111441Y-76224867D01*
X89030949Y-76117343D01*
X88993849Y-76067784D01*
X88984288Y-76052904D01*
X88890259Y-75880701D01*
X88882909Y-75864609D01*
X88851374Y-75780061D01*
X88846390Y-75710369D01*
X88879875Y-75649046D01*
X88918480Y-75627965D01*
X89826389Y-74720056D01*
X89942632Y-74869404D01*
G37*
%TD.AperFunction*%
%TA.AperFunction,Conductor*%
G36*
X131254418Y-58250816D02*
G01*
X131454561Y-58265130D01*
X131472063Y-58267647D01*
X131663797Y-58309355D01*
X131680755Y-58314334D01*
X131864609Y-58382909D01*
X131880701Y-58390259D01*
X132052904Y-58484288D01*
X132067784Y-58493849D01*
X132224867Y-58611441D01*
X132238237Y-58623027D01*
X132376972Y-58761762D01*
X132388558Y-58775132D01*
X132506146Y-58932210D01*
X132515711Y-58947095D01*
X132609740Y-59119298D01*
X132617090Y-59135390D01*
X132685662Y-59319236D01*
X132690646Y-59336212D01*
X132732351Y-59527931D01*
X132734869Y-59545442D01*
X132749184Y-59745580D01*
X132749500Y-59754427D01*
X132749500Y-71968900D01*
X132729815Y-72035939D01*
X132677011Y-72081694D01*
X132618014Y-72092674D01*
X132564136Y-72089415D01*
X131673609Y-72979942D01*
X131557368Y-72830596D01*
X131374477Y-72662232D01*
X131319882Y-72626563D01*
X132210583Y-71735862D01*
X132210583Y-71735861D01*
X132015039Y-71582662D01*
X132015031Y-71582657D01*
X131730321Y-71410545D01*
X131730319Y-71410543D01*
X131426943Y-71274005D01*
X131426928Y-71273999D01*
X131109329Y-71175032D01*
X130782076Y-71115060D01*
X130450000Y-71094974D01*
X130117923Y-71115060D01*
X129790670Y-71175032D01*
X129473071Y-71273999D01*
X129473056Y-71274005D01*
X129169680Y-71410543D01*
X129169678Y-71410545D01*
X128884968Y-71582657D01*
X128689415Y-71735862D01*
X129580117Y-72626564D01*
X129525523Y-72662232D01*
X129342632Y-72830596D01*
X129226389Y-72979942D01*
X128335862Y-72089415D01*
X128182657Y-72284968D01*
X128010545Y-72569678D01*
X128010543Y-72569680D01*
X127874005Y-72873056D01*
X127873999Y-72873071D01*
X127775032Y-73190670D01*
X127715060Y-73517923D01*
X127694974Y-73850000D01*
X127715060Y-74182076D01*
X127775032Y-74509329D01*
X127873999Y-74826928D01*
X127874005Y-74826943D01*
X128010543Y-75130319D01*
X128010545Y-75130321D01*
X128182657Y-75415031D01*
X128182662Y-75415039D01*
X128335862Y-75610583D01*
X129226389Y-74720056D01*
X129342632Y-74869404D01*
X129525523Y-75037768D01*
X129580116Y-75073435D01*
X128689415Y-75964136D01*
X128689415Y-75964137D01*
X128884960Y-76117337D01*
X128884968Y-76117342D01*
X129169678Y-76289454D01*
X129169680Y-76289456D01*
X129473056Y-76425994D01*
X129473071Y-76426000D01*
X129733379Y-76507115D01*
X129791527Y-76545852D01*
X129819501Y-76609877D01*
X129808419Y-76678863D01*
X129761801Y-76730906D01*
X129696489Y-76749500D01*
X91803511Y-76749500D01*
X91736472Y-76729815D01*
X91690717Y-76677011D01*
X91680773Y-76607853D01*
X91709798Y-76544297D01*
X91766621Y-76507115D01*
X92026928Y-76426000D01*
X92026943Y-76425994D01*
X92330319Y-76289456D01*
X92330321Y-76289454D01*
X92615030Y-76117343D01*
X92810583Y-75964137D01*
X92810583Y-75964136D01*
X91919882Y-75073435D01*
X91974477Y-75037768D01*
X92157368Y-74869404D01*
X92273610Y-74720057D01*
X93164136Y-75610583D01*
X93164137Y-75610583D01*
X93317343Y-75415030D01*
X93489454Y-75130321D01*
X93489456Y-75130319D01*
X93625994Y-74826943D01*
X93626000Y-74826928D01*
X93724967Y-74509329D01*
X93784939Y-74182076D01*
X93805025Y-73850000D01*
X93784939Y-73517923D01*
X93724967Y-73190670D01*
X93626000Y-72873071D01*
X93625994Y-72873056D01*
X93489456Y-72569680D01*
X93489454Y-72569678D01*
X93317342Y-72284968D01*
X93317337Y-72284960D01*
X93164136Y-72089415D01*
X92273609Y-72979942D01*
X92157368Y-72830596D01*
X91974477Y-72662232D01*
X91919882Y-72626563D01*
X92810583Y-71735862D01*
X92810583Y-71735861D01*
X92615039Y-71582662D01*
X92615031Y-71582657D01*
X92330321Y-71410545D01*
X92330319Y-71410543D01*
X92026943Y-71274005D01*
X92026928Y-71273999D01*
X91709329Y-71175032D01*
X91382076Y-71115060D01*
X91050000Y-71094974D01*
X90717923Y-71115060D01*
X90390670Y-71175032D01*
X90073071Y-71273999D01*
X90073056Y-71274005D01*
X89769680Y-71410543D01*
X89769678Y-71410545D01*
X89484968Y-71582657D01*
X89289415Y-71735862D01*
X90180117Y-72626564D01*
X90125523Y-72662232D01*
X89942632Y-72830596D01*
X89826389Y-72979942D01*
X88935862Y-72089415D01*
X88881986Y-72092674D01*
X88813881Y-72077073D01*
X88765021Y-72027127D01*
X88750500Y-71968900D01*
X88750500Y-67750000D01*
X96250000Y-67750000D01*
X96750000Y-69000000D01*
X98000000Y-69500000D01*
X99250000Y-69000000D01*
X99750000Y-67750000D01*
X121750000Y-67750000D01*
X122250000Y-69000000D01*
X123500000Y-69500000D01*
X124750000Y-69000000D01*
X125250000Y-67750000D01*
X124750000Y-66500000D01*
X123500000Y-66000000D01*
X122250000Y-66500000D01*
X121750000Y-67750000D01*
X99750000Y-67750000D01*
X99250000Y-66500000D01*
X98000000Y-66000000D01*
X96750000Y-66500000D01*
X96250000Y-67750000D01*
X88750500Y-67750000D01*
X88750500Y-61281187D01*
X89299500Y-61281187D01*
X89318685Y-61408462D01*
X89338604Y-61540615D01*
X89338605Y-61540617D01*
X89338606Y-61540623D01*
X89415938Y-61791326D01*
X89529767Y-62027696D01*
X89529768Y-62027697D01*
X89529770Y-62027700D01*
X89529772Y-62027704D01*
X89534249Y-62034270D01*
X89677567Y-62244479D01*
X89856014Y-62436801D01*
X89856018Y-62436804D01*
X89856019Y-62436805D01*
X90061143Y-62600386D01*
X90288357Y-62731568D01*
X90532584Y-62827420D01*
X90788370Y-62885802D01*
X90788376Y-62885802D01*
X90788379Y-62885803D01*
X90950031Y-62897917D01*
X91015412Y-62922556D01*
X91057093Y-62978631D01*
X91061931Y-63047928D01*
X91014804Y-63264566D01*
X90994390Y-63549998D01*
X90994390Y-63550001D01*
X91014804Y-63835433D01*
X91075628Y-64115037D01*
X91175635Y-64383166D01*
X91312770Y-64634309D01*
X91312775Y-64634317D01*
X91484254Y-64863387D01*
X91484270Y-64863405D01*
X91686594Y-65065729D01*
X91686612Y-65065745D01*
X91915682Y-65237224D01*
X91915690Y-65237229D01*
X92166833Y-65374364D01*
X92166832Y-65374364D01*
X92166836Y-65374365D01*
X92166839Y-65374367D01*
X92434954Y-65474369D01*
X92434960Y-65474370D01*
X92434962Y-65474371D01*
X92714566Y-65535195D01*
X92714568Y-65535195D01*
X92714572Y-65535196D01*
X92968220Y-65553337D01*
X92999999Y-65555610D01*
X93000000Y-65555610D01*
X93000001Y-65555610D01*
X93028595Y-65553564D01*
X93285428Y-65535196D01*
X93565046Y-65474369D01*
X93833161Y-65374367D01*
X94084315Y-65237226D01*
X94313395Y-65065739D01*
X94515739Y-64863395D01*
X94687226Y-64634315D01*
X94794677Y-64437534D01*
X105249500Y-64437534D01*
X105279898Y-64609937D01*
X105339775Y-64774446D01*
X105427309Y-64926057D01*
X105539836Y-65060163D01*
X105673942Y-65172690D01*
X105785716Y-65237224D01*
X105825555Y-65260225D01*
X105990062Y-65320101D01*
X106162468Y-65350500D01*
X106162472Y-65350500D01*
X115337528Y-65350500D01*
X115337532Y-65350500D01*
X115509938Y-65320101D01*
X115674445Y-65260225D01*
X115826055Y-65172692D01*
X115960163Y-65060163D01*
X116072692Y-64926055D01*
X116160225Y-64774445D01*
X116220101Y-64609938D01*
X116250500Y-64437532D01*
X116250500Y-64350000D01*
X116250500Y-64284108D01*
X116250500Y-63550001D01*
X126494390Y-63550001D01*
X126514804Y-63835433D01*
X126575628Y-64115037D01*
X126675635Y-64383166D01*
X126812770Y-64634309D01*
X126812775Y-64634317D01*
X126984254Y-64863387D01*
X126984270Y-64863405D01*
X127186594Y-65065729D01*
X127186612Y-65065745D01*
X127415682Y-65237224D01*
X127415690Y-65237229D01*
X127666833Y-65374364D01*
X127666832Y-65374364D01*
X127666836Y-65374365D01*
X127666839Y-65374367D01*
X127934954Y-65474369D01*
X127934960Y-65474370D01*
X127934962Y-65474371D01*
X128214566Y-65535195D01*
X128214568Y-65535195D01*
X128214572Y-65535196D01*
X128468220Y-65553337D01*
X128499999Y-65555610D01*
X128500000Y-65555610D01*
X128500001Y-65555610D01*
X128528595Y-65553564D01*
X128785428Y-65535196D01*
X129065046Y-65474369D01*
X129333161Y-65374367D01*
X129584315Y-65237226D01*
X129813395Y-65065739D01*
X130015739Y-64863395D01*
X130187226Y-64634315D01*
X130324367Y-64383161D01*
X130424369Y-64115046D01*
X130485196Y-63835428D01*
X130505610Y-63550000D01*
X130485196Y-63264572D01*
X130438068Y-63047927D01*
X130443052Y-62978237D01*
X130484923Y-62922303D01*
X130549968Y-62897917D01*
X130711620Y-62885803D01*
X130711622Y-62885802D01*
X130711630Y-62885802D01*
X130967416Y-62827420D01*
X131211643Y-62731568D01*
X131438857Y-62600386D01*
X131643981Y-62436805D01*
X131822433Y-62244479D01*
X131970228Y-62027704D01*
X132084063Y-61791323D01*
X132161396Y-61540615D01*
X132200500Y-61281182D01*
X132200500Y-61018818D01*
X132161396Y-60759385D01*
X132084063Y-60508677D01*
X132072121Y-60483880D01*
X131970232Y-60272303D01*
X131970231Y-60272302D01*
X131970230Y-60272301D01*
X131970228Y-60272296D01*
X131822433Y-60055521D01*
X131812441Y-60044753D01*
X131643985Y-59863198D01*
X131507590Y-59754427D01*
X131438857Y-59699614D01*
X131211643Y-59568432D01*
X130967416Y-59472580D01*
X130967411Y-59472578D01*
X130967402Y-59472576D01*
X130749818Y-59422914D01*
X130711630Y-59414198D01*
X130711629Y-59414197D01*
X130711625Y-59414197D01*
X130711620Y-59414196D01*
X130515515Y-59399500D01*
X130515494Y-59399500D01*
X130384506Y-59399500D01*
X130384484Y-59399500D01*
X130188379Y-59414196D01*
X130188374Y-59414197D01*
X129932597Y-59472576D01*
X129932578Y-59472582D01*
X129688356Y-59568432D01*
X129461143Y-59699614D01*
X129256014Y-59863198D01*
X129077567Y-60055520D01*
X128929768Y-60272302D01*
X128929767Y-60272303D01*
X128815938Y-60508673D01*
X128738606Y-60759376D01*
X128738605Y-60759381D01*
X128738604Y-60759385D01*
X128725021Y-60849500D01*
X128699500Y-61018812D01*
X128699500Y-61281189D01*
X128718684Y-61408463D01*
X128709211Y-61477687D01*
X128663816Y-61530801D01*
X128596912Y-61550941D01*
X128587223Y-61550628D01*
X128500001Y-61544390D01*
X128499999Y-61544390D01*
X128214566Y-61564804D01*
X127934962Y-61625628D01*
X127666833Y-61725635D01*
X127415690Y-61862770D01*
X127415682Y-61862775D01*
X127186612Y-62034254D01*
X127186594Y-62034270D01*
X126984270Y-62236594D01*
X126984254Y-62236612D01*
X126812775Y-62465682D01*
X126812770Y-62465690D01*
X126675635Y-62716833D01*
X126575628Y-62984962D01*
X126514804Y-63264566D01*
X126494390Y-63549998D01*
X126494390Y-63550001D01*
X116250500Y-63550001D01*
X116250500Y-61814201D01*
X116250500Y-61762468D01*
X116220101Y-61590062D01*
X116160225Y-61425555D01*
X116072692Y-61273945D01*
X116072691Y-61273943D01*
X116072690Y-61273942D01*
X115960163Y-61139836D01*
X115826057Y-61027309D01*
X115674446Y-60939775D01*
X115509937Y-60879898D01*
X115337534Y-60849500D01*
X115337532Y-60849500D01*
X115285799Y-60849500D01*
X106315892Y-60849500D01*
X106250000Y-60849500D01*
X106162468Y-60849500D01*
X106162465Y-60849500D01*
X105990062Y-60879898D01*
X105825553Y-60939775D01*
X105673942Y-61027309D01*
X105539836Y-61139836D01*
X105427309Y-61273942D01*
X105339775Y-61425553D01*
X105279898Y-61590062D01*
X105249500Y-61762465D01*
X105249500Y-64437534D01*
X94794677Y-64437534D01*
X94824367Y-64383161D01*
X94924369Y-64115046D01*
X94985196Y-63835428D01*
X95005610Y-63550000D01*
X94985196Y-63264572D01*
X94924369Y-62984954D01*
X94824367Y-62716839D01*
X94744025Y-62569705D01*
X94687229Y-62465690D01*
X94687224Y-62465682D01*
X94515745Y-62236612D01*
X94515729Y-62236594D01*
X94313405Y-62034270D01*
X94313387Y-62034254D01*
X94084317Y-61862775D01*
X94084309Y-61862770D01*
X93833166Y-61725635D01*
X93833167Y-61725635D01*
X93725915Y-61685632D01*
X93565046Y-61625631D01*
X93565043Y-61625630D01*
X93565037Y-61625628D01*
X93285433Y-61564804D01*
X93000001Y-61544390D01*
X92999999Y-61544390D01*
X92912776Y-61550628D01*
X92844503Y-61535776D01*
X92795098Y-61486371D01*
X92780246Y-61418098D01*
X92781315Y-61408462D01*
X92800499Y-61281187D01*
X92800500Y-61281182D01*
X92800500Y-61018817D01*
X92800499Y-61018812D01*
X92761396Y-60759385D01*
X92684063Y-60508677D01*
X92672121Y-60483880D01*
X92570232Y-60272303D01*
X92570231Y-60272302D01*
X92570230Y-60272301D01*
X92570228Y-60272296D01*
X92422433Y-60055521D01*
X92412441Y-60044753D01*
X92243985Y-59863198D01*
X92107590Y-59754427D01*
X92038857Y-59699614D01*
X91811643Y-59568432D01*
X91567416Y-59472580D01*
X91567411Y-59472578D01*
X91567402Y-59472576D01*
X91349818Y-59422914D01*
X91311630Y-59414198D01*
X91311629Y-59414197D01*
X91311625Y-59414197D01*
X91311620Y-59414196D01*
X91115515Y-59399500D01*
X91115494Y-59399500D01*
X90984506Y-59399500D01*
X90984484Y-59399500D01*
X90788379Y-59414196D01*
X90788374Y-59414197D01*
X90532597Y-59472576D01*
X90532578Y-59472582D01*
X90288356Y-59568432D01*
X90061143Y-59699614D01*
X89856014Y-59863198D01*
X89677567Y-60055520D01*
X89529768Y-60272302D01*
X89529767Y-60272303D01*
X89415938Y-60508673D01*
X89338606Y-60759376D01*
X89338605Y-60759381D01*
X89338604Y-60759385D01*
X89325021Y-60849500D01*
X89299500Y-61018812D01*
X89299500Y-61281187D01*
X88750500Y-61281187D01*
X88750500Y-59754427D01*
X88750816Y-59745581D01*
X88765130Y-59545443D01*
X88765131Y-59545442D01*
X88765130Y-59545436D01*
X88767646Y-59527938D01*
X88809356Y-59336199D01*
X88814333Y-59319248D01*
X88882911Y-59135385D01*
X88890259Y-59119298D01*
X88952815Y-59004734D01*
X88984291Y-58947089D01*
X88993845Y-58932221D01*
X89111448Y-58775123D01*
X89123020Y-58761769D01*
X89261769Y-58623020D01*
X89275123Y-58611448D01*
X89432221Y-58493845D01*
X89447089Y-58484291D01*
X89619298Y-58390258D01*
X89635385Y-58382911D01*
X89819248Y-58314333D01*
X89836199Y-58309356D01*
X90027938Y-58267646D01*
X90045436Y-58265130D01*
X90245582Y-58250816D01*
X90254428Y-58250500D01*
X90315892Y-58250500D01*
X131184108Y-58250500D01*
X131245572Y-58250500D01*
X131254418Y-58250816D01*
G37*
%TD.AperFunction*%
%TA.AperFunction,Conductor*%
G36*
X132578851Y-75625298D02*
G01*
X132593059Y-75628553D01*
X132641920Y-75678496D01*
X132656023Y-75746928D01*
X132648625Y-75780061D01*
X132617090Y-75864609D01*
X132609740Y-75880701D01*
X132515711Y-76052904D01*
X132506146Y-76067789D01*
X132388558Y-76224867D01*
X132376972Y-76238237D01*
X132238237Y-76376972D01*
X132224867Y-76388558D01*
X132067789Y-76506146D01*
X132052904Y-76515711D01*
X131880701Y-76609740D01*
X131864609Y-76617090D01*
X131680763Y-76685662D01*
X131663787Y-76690646D01*
X131472068Y-76732351D01*
X131454557Y-76734869D01*
X131273779Y-76747799D01*
X131254417Y-76749184D01*
X131245572Y-76749500D01*
X131203511Y-76749500D01*
X131136472Y-76729815D01*
X131090717Y-76677011D01*
X131080773Y-76607853D01*
X131109798Y-76544297D01*
X131166621Y-76507115D01*
X131426928Y-76426000D01*
X131426943Y-76425994D01*
X131730319Y-76289456D01*
X131730321Y-76289454D01*
X132015030Y-76117343D01*
X132210583Y-75964137D01*
X132210583Y-75964136D01*
X131319882Y-75073435D01*
X131374477Y-75037768D01*
X131557368Y-74869404D01*
X131673610Y-74720057D01*
X132578851Y-75625298D01*
G37*
%TD.AperFunction*%
%TD*%
%TA.AperFunction,Conductor*%
%TO.N,GND*%
G36*
X44942632Y-94369404D02*
G01*
X45125523Y-94537768D01*
X45180116Y-94573435D01*
X44289415Y-95464136D01*
X44289415Y-95464137D01*
X44484960Y-95617337D01*
X44484968Y-95617342D01*
X44769678Y-95789454D01*
X44769680Y-95789456D01*
X45073056Y-95925994D01*
X45073071Y-95926000D01*
X45333379Y-96007115D01*
X45391527Y-96045852D01*
X45419501Y-96109877D01*
X45408419Y-96178863D01*
X45361801Y-96230906D01*
X45296489Y-96249500D01*
X45254428Y-96249500D01*
X45245582Y-96249184D01*
X45223622Y-96247613D01*
X45045442Y-96234869D01*
X45027931Y-96232351D01*
X44836212Y-96190646D01*
X44819236Y-96185662D01*
X44635390Y-96117090D01*
X44619298Y-96109740D01*
X44447095Y-96015711D01*
X44432210Y-96006146D01*
X44275132Y-95888558D01*
X44261762Y-95876972D01*
X44123027Y-95738237D01*
X44111441Y-95724867D01*
X44030949Y-95617343D01*
X43993849Y-95567784D01*
X43984288Y-95552904D01*
X43890259Y-95380701D01*
X43882909Y-95364609D01*
X43851374Y-95280061D01*
X43846390Y-95210369D01*
X43879875Y-95149046D01*
X43918480Y-95127965D01*
X44826389Y-94220056D01*
X44942632Y-94369404D01*
G37*
%TD.AperFunction*%
%TA.AperFunction,Conductor*%
G36*
X86254418Y-77750816D02*
G01*
X86454561Y-77765130D01*
X86472063Y-77767647D01*
X86663797Y-77809355D01*
X86680755Y-77814334D01*
X86864609Y-77882909D01*
X86880701Y-77890259D01*
X87052904Y-77984288D01*
X87067784Y-77993849D01*
X87224867Y-78111441D01*
X87238237Y-78123027D01*
X87376972Y-78261762D01*
X87388558Y-78275132D01*
X87506146Y-78432210D01*
X87515711Y-78447095D01*
X87609740Y-78619298D01*
X87617090Y-78635390D01*
X87685662Y-78819236D01*
X87690646Y-78836212D01*
X87732351Y-79027931D01*
X87734869Y-79045442D01*
X87749184Y-79245580D01*
X87749500Y-79254427D01*
X87749500Y-91468900D01*
X87729815Y-91535939D01*
X87677011Y-91581694D01*
X87618014Y-91592674D01*
X87564136Y-91589415D01*
X86673609Y-92479942D01*
X86557368Y-92330596D01*
X86374477Y-92162232D01*
X86319882Y-92126563D01*
X87210583Y-91235862D01*
X87210583Y-91235861D01*
X87015039Y-91082662D01*
X87015031Y-91082657D01*
X86730321Y-90910545D01*
X86730319Y-90910543D01*
X86426943Y-90774005D01*
X86426928Y-90773999D01*
X86109329Y-90675032D01*
X85782076Y-90615060D01*
X85450000Y-90594974D01*
X85117923Y-90615060D01*
X84790670Y-90675032D01*
X84473071Y-90773999D01*
X84473056Y-90774005D01*
X84169680Y-90910543D01*
X84169678Y-90910545D01*
X83884968Y-91082657D01*
X83689415Y-91235862D01*
X84580117Y-92126564D01*
X84525523Y-92162232D01*
X84342632Y-92330596D01*
X84226389Y-92479942D01*
X83335862Y-91589415D01*
X83182657Y-91784968D01*
X83010545Y-92069678D01*
X83010543Y-92069680D01*
X82874005Y-92373056D01*
X82873999Y-92373071D01*
X82775032Y-92690670D01*
X82715060Y-93017923D01*
X82694974Y-93350000D01*
X82715060Y-93682076D01*
X82775032Y-94009329D01*
X82873999Y-94326928D01*
X82874005Y-94326943D01*
X83010543Y-94630319D01*
X83010545Y-94630321D01*
X83182657Y-94915031D01*
X83182662Y-94915039D01*
X83335862Y-95110583D01*
X84226389Y-94220056D01*
X84342632Y-94369404D01*
X84525523Y-94537768D01*
X84580116Y-94573435D01*
X83689415Y-95464136D01*
X83689415Y-95464137D01*
X83884960Y-95617337D01*
X83884968Y-95617342D01*
X84169678Y-95789454D01*
X84169680Y-95789456D01*
X84473056Y-95925994D01*
X84473071Y-95926000D01*
X84733379Y-96007115D01*
X84791527Y-96045852D01*
X84819501Y-96109877D01*
X84808419Y-96178863D01*
X84761801Y-96230906D01*
X84696489Y-96249500D01*
X46803511Y-96249500D01*
X46736472Y-96229815D01*
X46690717Y-96177011D01*
X46680773Y-96107853D01*
X46709798Y-96044297D01*
X46766621Y-96007115D01*
X47026928Y-95926000D01*
X47026943Y-95925994D01*
X47330319Y-95789456D01*
X47330321Y-95789454D01*
X47615030Y-95617343D01*
X47810583Y-95464137D01*
X47810583Y-95464136D01*
X46919882Y-94573435D01*
X46974477Y-94537768D01*
X47157368Y-94369404D01*
X47273610Y-94220057D01*
X48164136Y-95110583D01*
X48164137Y-95110583D01*
X48317343Y-94915030D01*
X48489454Y-94630321D01*
X48489456Y-94630319D01*
X48625994Y-94326943D01*
X48626000Y-94326928D01*
X48724967Y-94009329D01*
X48784939Y-93682076D01*
X48805025Y-93350000D01*
X48784939Y-93017923D01*
X48724967Y-92690670D01*
X48626000Y-92373071D01*
X48625994Y-92373056D01*
X48489456Y-92069680D01*
X48489454Y-92069678D01*
X48317342Y-91784968D01*
X48317337Y-91784960D01*
X48164136Y-91589415D01*
X47273609Y-92479942D01*
X47157368Y-92330596D01*
X46974477Y-92162232D01*
X46919882Y-92126563D01*
X47810583Y-91235862D01*
X47810583Y-91235861D01*
X47615039Y-91082662D01*
X47615031Y-91082657D01*
X47330321Y-90910545D01*
X47330319Y-90910543D01*
X47026943Y-90774005D01*
X47026928Y-90773999D01*
X46709329Y-90675032D01*
X46382076Y-90615060D01*
X46050000Y-90594974D01*
X45717923Y-90615060D01*
X45390670Y-90675032D01*
X45073071Y-90773999D01*
X45073056Y-90774005D01*
X44769680Y-90910543D01*
X44769678Y-90910545D01*
X44484968Y-91082657D01*
X44289415Y-91235862D01*
X45180117Y-92126564D01*
X45125523Y-92162232D01*
X44942632Y-92330596D01*
X44826389Y-92479942D01*
X43935862Y-91589415D01*
X43881986Y-91592674D01*
X43813881Y-91577073D01*
X43765021Y-91527127D01*
X43750500Y-91468900D01*
X43750500Y-87250000D01*
X51250000Y-87250000D01*
X51750000Y-88500000D01*
X53000000Y-89000000D01*
X54250000Y-88500000D01*
X54750000Y-87250000D01*
X76750000Y-87250000D01*
X77250000Y-88500000D01*
X78500000Y-89000000D01*
X79750000Y-88500000D01*
X80250000Y-87250000D01*
X79750000Y-86000000D01*
X78500000Y-85500000D01*
X77250000Y-86000000D01*
X76750000Y-87250000D01*
X54750000Y-87250000D01*
X54250000Y-86000000D01*
X53000000Y-85500000D01*
X51750000Y-86000000D01*
X51250000Y-87250000D01*
X43750500Y-87250000D01*
X43750500Y-80781187D01*
X44299500Y-80781187D01*
X44318685Y-80908462D01*
X44338604Y-81040615D01*
X44338605Y-81040617D01*
X44338606Y-81040623D01*
X44415938Y-81291326D01*
X44529767Y-81527696D01*
X44529768Y-81527697D01*
X44529770Y-81527700D01*
X44529772Y-81527704D01*
X44534249Y-81534270D01*
X44677567Y-81744479D01*
X44856014Y-81936801D01*
X44856018Y-81936804D01*
X44856019Y-81936805D01*
X45061143Y-82100386D01*
X45288357Y-82231568D01*
X45532584Y-82327420D01*
X45788370Y-82385802D01*
X45788376Y-82385802D01*
X45788379Y-82385803D01*
X45950031Y-82397917D01*
X46015412Y-82422556D01*
X46057093Y-82478631D01*
X46061931Y-82547928D01*
X46014804Y-82764566D01*
X45994390Y-83049998D01*
X45994390Y-83050001D01*
X46014804Y-83335433D01*
X46075628Y-83615037D01*
X46175635Y-83883166D01*
X46312770Y-84134309D01*
X46312775Y-84134317D01*
X46484254Y-84363387D01*
X46484270Y-84363405D01*
X46686594Y-84565729D01*
X46686612Y-84565745D01*
X46915682Y-84737224D01*
X46915690Y-84737229D01*
X47166833Y-84874364D01*
X47166832Y-84874364D01*
X47166836Y-84874365D01*
X47166839Y-84874367D01*
X47434954Y-84974369D01*
X47434960Y-84974370D01*
X47434962Y-84974371D01*
X47714566Y-85035195D01*
X47714568Y-85035195D01*
X47714572Y-85035196D01*
X47968220Y-85053337D01*
X47999999Y-85055610D01*
X48000000Y-85055610D01*
X48000001Y-85055610D01*
X48028595Y-85053564D01*
X48285428Y-85035196D01*
X48565046Y-84974369D01*
X48833161Y-84874367D01*
X49084315Y-84737226D01*
X49313395Y-84565739D01*
X49515739Y-84363395D01*
X49687226Y-84134315D01*
X49794677Y-83937534D01*
X60249500Y-83937534D01*
X60279898Y-84109937D01*
X60339775Y-84274446D01*
X60427309Y-84426057D01*
X60539836Y-84560163D01*
X60673942Y-84672690D01*
X60785716Y-84737224D01*
X60825555Y-84760225D01*
X60990062Y-84820101D01*
X61162468Y-84850500D01*
X61162472Y-84850500D01*
X70337528Y-84850500D01*
X70337532Y-84850500D01*
X70509938Y-84820101D01*
X70674445Y-84760225D01*
X70826055Y-84672692D01*
X70960163Y-84560163D01*
X71072692Y-84426055D01*
X71160225Y-84274445D01*
X71220101Y-84109938D01*
X71250500Y-83937532D01*
X71250500Y-83850000D01*
X71250500Y-83784108D01*
X71250500Y-83050001D01*
X81494390Y-83050001D01*
X81514804Y-83335433D01*
X81575628Y-83615037D01*
X81675635Y-83883166D01*
X81812770Y-84134309D01*
X81812775Y-84134317D01*
X81984254Y-84363387D01*
X81984270Y-84363405D01*
X82186594Y-84565729D01*
X82186612Y-84565745D01*
X82415682Y-84737224D01*
X82415690Y-84737229D01*
X82666833Y-84874364D01*
X82666832Y-84874364D01*
X82666836Y-84874365D01*
X82666839Y-84874367D01*
X82934954Y-84974369D01*
X82934960Y-84974370D01*
X82934962Y-84974371D01*
X83214566Y-85035195D01*
X83214568Y-85035195D01*
X83214572Y-85035196D01*
X83468220Y-85053337D01*
X83499999Y-85055610D01*
X83500000Y-85055610D01*
X83500001Y-85055610D01*
X83528595Y-85053564D01*
X83785428Y-85035196D01*
X84065046Y-84974369D01*
X84333161Y-84874367D01*
X84584315Y-84737226D01*
X84813395Y-84565739D01*
X85015739Y-84363395D01*
X85187226Y-84134315D01*
X85324367Y-83883161D01*
X85424369Y-83615046D01*
X85485196Y-83335428D01*
X85505610Y-83050000D01*
X85485196Y-82764572D01*
X85438068Y-82547927D01*
X85443052Y-82478237D01*
X85484923Y-82422303D01*
X85549968Y-82397917D01*
X85711620Y-82385803D01*
X85711622Y-82385802D01*
X85711630Y-82385802D01*
X85967416Y-82327420D01*
X86211643Y-82231568D01*
X86438857Y-82100386D01*
X86643981Y-81936805D01*
X86822433Y-81744479D01*
X86970228Y-81527704D01*
X87084063Y-81291323D01*
X87161396Y-81040615D01*
X87200500Y-80781182D01*
X87200500Y-80518818D01*
X87161396Y-80259385D01*
X87084063Y-80008677D01*
X87072121Y-79983880D01*
X86970232Y-79772303D01*
X86970231Y-79772302D01*
X86970230Y-79772301D01*
X86970228Y-79772296D01*
X86822433Y-79555521D01*
X86812441Y-79544753D01*
X86643985Y-79363198D01*
X86507590Y-79254427D01*
X86438857Y-79199614D01*
X86211643Y-79068432D01*
X85967416Y-78972580D01*
X85967411Y-78972578D01*
X85967402Y-78972576D01*
X85749818Y-78922914D01*
X85711630Y-78914198D01*
X85711629Y-78914197D01*
X85711625Y-78914197D01*
X85711620Y-78914196D01*
X85515515Y-78899500D01*
X85515494Y-78899500D01*
X85384506Y-78899500D01*
X85384484Y-78899500D01*
X85188379Y-78914196D01*
X85188374Y-78914197D01*
X84932597Y-78972576D01*
X84932578Y-78972582D01*
X84688356Y-79068432D01*
X84461143Y-79199614D01*
X84256014Y-79363198D01*
X84077567Y-79555520D01*
X83929768Y-79772302D01*
X83929767Y-79772303D01*
X83815938Y-80008673D01*
X83738606Y-80259376D01*
X83738605Y-80259381D01*
X83738604Y-80259385D01*
X83725021Y-80349500D01*
X83699500Y-80518812D01*
X83699500Y-80781189D01*
X83718684Y-80908463D01*
X83709211Y-80977687D01*
X83663816Y-81030801D01*
X83596912Y-81050941D01*
X83587223Y-81050628D01*
X83500001Y-81044390D01*
X83499999Y-81044390D01*
X83214566Y-81064804D01*
X82934962Y-81125628D01*
X82666833Y-81225635D01*
X82415690Y-81362770D01*
X82415682Y-81362775D01*
X82186612Y-81534254D01*
X82186594Y-81534270D01*
X81984270Y-81736594D01*
X81984254Y-81736612D01*
X81812775Y-81965682D01*
X81812770Y-81965690D01*
X81675635Y-82216833D01*
X81575628Y-82484962D01*
X81514804Y-82764566D01*
X81494390Y-83049998D01*
X81494390Y-83050001D01*
X71250500Y-83050001D01*
X71250500Y-81314201D01*
X71250500Y-81262468D01*
X71220101Y-81090062D01*
X71160225Y-80925555D01*
X71072692Y-80773945D01*
X71072691Y-80773943D01*
X71072690Y-80773942D01*
X70960163Y-80639836D01*
X70826057Y-80527309D01*
X70674446Y-80439775D01*
X70509937Y-80379898D01*
X70337534Y-80349500D01*
X70337532Y-80349500D01*
X70285799Y-80349500D01*
X61315892Y-80349500D01*
X61250000Y-80349500D01*
X61162468Y-80349500D01*
X61162465Y-80349500D01*
X60990062Y-80379898D01*
X60825553Y-80439775D01*
X60673942Y-80527309D01*
X60539836Y-80639836D01*
X60427309Y-80773942D01*
X60339775Y-80925553D01*
X60279898Y-81090062D01*
X60249500Y-81262465D01*
X60249500Y-83937534D01*
X49794677Y-83937534D01*
X49824367Y-83883161D01*
X49924369Y-83615046D01*
X49985196Y-83335428D01*
X50005610Y-83050000D01*
X49985196Y-82764572D01*
X49924369Y-82484954D01*
X49824367Y-82216839D01*
X49744025Y-82069705D01*
X49687229Y-81965690D01*
X49687224Y-81965682D01*
X49515745Y-81736612D01*
X49515729Y-81736594D01*
X49313405Y-81534270D01*
X49313387Y-81534254D01*
X49084317Y-81362775D01*
X49084309Y-81362770D01*
X48833166Y-81225635D01*
X48833167Y-81225635D01*
X48725915Y-81185632D01*
X48565046Y-81125631D01*
X48565043Y-81125630D01*
X48565037Y-81125628D01*
X48285433Y-81064804D01*
X48000001Y-81044390D01*
X47999999Y-81044390D01*
X47912776Y-81050628D01*
X47844503Y-81035776D01*
X47795098Y-80986371D01*
X47780246Y-80918098D01*
X47781315Y-80908462D01*
X47800499Y-80781187D01*
X47800500Y-80781182D01*
X47800500Y-80518817D01*
X47800499Y-80518812D01*
X47761396Y-80259385D01*
X47684063Y-80008677D01*
X47672121Y-79983880D01*
X47570232Y-79772303D01*
X47570231Y-79772302D01*
X47570230Y-79772301D01*
X47570228Y-79772296D01*
X47422433Y-79555521D01*
X47412441Y-79544753D01*
X47243985Y-79363198D01*
X47107590Y-79254427D01*
X47038857Y-79199614D01*
X46811643Y-79068432D01*
X46567416Y-78972580D01*
X46567411Y-78972578D01*
X46567402Y-78972576D01*
X46349818Y-78922914D01*
X46311630Y-78914198D01*
X46311629Y-78914197D01*
X46311625Y-78914197D01*
X46311620Y-78914196D01*
X46115515Y-78899500D01*
X46115494Y-78899500D01*
X45984506Y-78899500D01*
X45984484Y-78899500D01*
X45788379Y-78914196D01*
X45788374Y-78914197D01*
X45532597Y-78972576D01*
X45532578Y-78972582D01*
X45288356Y-79068432D01*
X45061143Y-79199614D01*
X44856014Y-79363198D01*
X44677567Y-79555520D01*
X44529768Y-79772302D01*
X44529767Y-79772303D01*
X44415938Y-80008673D01*
X44338606Y-80259376D01*
X44338605Y-80259381D01*
X44338604Y-80259385D01*
X44325021Y-80349500D01*
X44299500Y-80518812D01*
X44299500Y-80781187D01*
X43750500Y-80781187D01*
X43750500Y-79254427D01*
X43750816Y-79245581D01*
X43765130Y-79045443D01*
X43765131Y-79045442D01*
X43765130Y-79045436D01*
X43767646Y-79027938D01*
X43809356Y-78836199D01*
X43814333Y-78819248D01*
X43882911Y-78635385D01*
X43890259Y-78619298D01*
X43952815Y-78504734D01*
X43984291Y-78447089D01*
X43993845Y-78432221D01*
X44111448Y-78275123D01*
X44123020Y-78261769D01*
X44261769Y-78123020D01*
X44275123Y-78111448D01*
X44432221Y-77993845D01*
X44447089Y-77984291D01*
X44619298Y-77890258D01*
X44635385Y-77882911D01*
X44819248Y-77814333D01*
X44836199Y-77809356D01*
X45027938Y-77767646D01*
X45045436Y-77765130D01*
X45245582Y-77750816D01*
X45254428Y-77750500D01*
X45315892Y-77750500D01*
X86184108Y-77750500D01*
X86245572Y-77750500D01*
X86254418Y-77750816D01*
G37*
%TD.AperFunction*%
%TA.AperFunction,Conductor*%
G36*
X87578851Y-95125298D02*
G01*
X87593059Y-95128553D01*
X87641920Y-95178496D01*
X87656023Y-95246928D01*
X87648625Y-95280061D01*
X87617090Y-95364609D01*
X87609740Y-95380701D01*
X87515711Y-95552904D01*
X87506146Y-95567789D01*
X87388558Y-95724867D01*
X87376972Y-95738237D01*
X87238237Y-95876972D01*
X87224867Y-95888558D01*
X87067789Y-96006146D01*
X87052904Y-96015711D01*
X86880701Y-96109740D01*
X86864609Y-96117090D01*
X86680763Y-96185662D01*
X86663787Y-96190646D01*
X86472068Y-96232351D01*
X86454557Y-96234869D01*
X86273779Y-96247799D01*
X86254417Y-96249184D01*
X86245572Y-96249500D01*
X86203511Y-96249500D01*
X86136472Y-96229815D01*
X86090717Y-96177011D01*
X86080773Y-96107853D01*
X86109798Y-96044297D01*
X86166621Y-96007115D01*
X86426928Y-95926000D01*
X86426943Y-95925994D01*
X86730319Y-95789456D01*
X86730321Y-95789454D01*
X87015030Y-95617343D01*
X87210583Y-95464137D01*
X87210583Y-95464136D01*
X86319882Y-94573435D01*
X86374477Y-94537768D01*
X86557368Y-94369404D01*
X86673610Y-94220057D01*
X87578851Y-95125298D01*
G37*
%TD.AperFunction*%
%TD*%
%TA.AperFunction,Conductor*%
%TO.N,GND*%
G36*
X89942632Y-94369404D02*
G01*
X90125523Y-94537768D01*
X90180116Y-94573435D01*
X89289415Y-95464136D01*
X89289415Y-95464137D01*
X89484960Y-95617337D01*
X89484968Y-95617342D01*
X89769678Y-95789454D01*
X89769680Y-95789456D01*
X90073056Y-95925994D01*
X90073071Y-95926000D01*
X90333379Y-96007115D01*
X90391527Y-96045852D01*
X90419501Y-96109877D01*
X90408419Y-96178863D01*
X90361801Y-96230906D01*
X90296489Y-96249500D01*
X90254428Y-96249500D01*
X90245582Y-96249184D01*
X90223622Y-96247613D01*
X90045442Y-96234869D01*
X90027931Y-96232351D01*
X89836212Y-96190646D01*
X89819236Y-96185662D01*
X89635390Y-96117090D01*
X89619298Y-96109740D01*
X89447095Y-96015711D01*
X89432210Y-96006146D01*
X89275132Y-95888558D01*
X89261762Y-95876972D01*
X89123027Y-95738237D01*
X89111441Y-95724867D01*
X89030949Y-95617343D01*
X88993849Y-95567784D01*
X88984288Y-95552904D01*
X88890259Y-95380701D01*
X88882909Y-95364609D01*
X88851374Y-95280061D01*
X88846390Y-95210369D01*
X88879875Y-95149046D01*
X88918480Y-95127965D01*
X89826389Y-94220056D01*
X89942632Y-94369404D01*
G37*
%TD.AperFunction*%
%TA.AperFunction,Conductor*%
G36*
X131254418Y-77750816D02*
G01*
X131454561Y-77765130D01*
X131472063Y-77767647D01*
X131663797Y-77809355D01*
X131680755Y-77814334D01*
X131864609Y-77882909D01*
X131880701Y-77890259D01*
X132052904Y-77984288D01*
X132067784Y-77993849D01*
X132224867Y-78111441D01*
X132238237Y-78123027D01*
X132376972Y-78261762D01*
X132388558Y-78275132D01*
X132506146Y-78432210D01*
X132515711Y-78447095D01*
X132609740Y-78619298D01*
X132617090Y-78635390D01*
X132685662Y-78819236D01*
X132690646Y-78836212D01*
X132732351Y-79027931D01*
X132734869Y-79045442D01*
X132749184Y-79245580D01*
X132749500Y-79254427D01*
X132749500Y-91468900D01*
X132729815Y-91535939D01*
X132677011Y-91581694D01*
X132618014Y-91592674D01*
X132564136Y-91589415D01*
X131673609Y-92479942D01*
X131557368Y-92330596D01*
X131374477Y-92162232D01*
X131319882Y-92126563D01*
X132210583Y-91235862D01*
X132210583Y-91235861D01*
X132015039Y-91082662D01*
X132015031Y-91082657D01*
X131730321Y-90910545D01*
X131730319Y-90910543D01*
X131426943Y-90774005D01*
X131426928Y-90773999D01*
X131109329Y-90675032D01*
X130782076Y-90615060D01*
X130450000Y-90594974D01*
X130117923Y-90615060D01*
X129790670Y-90675032D01*
X129473071Y-90773999D01*
X129473056Y-90774005D01*
X129169680Y-90910543D01*
X129169678Y-90910545D01*
X128884968Y-91082657D01*
X128689415Y-91235862D01*
X129580117Y-92126564D01*
X129525523Y-92162232D01*
X129342632Y-92330596D01*
X129226389Y-92479942D01*
X128335862Y-91589415D01*
X128182657Y-91784968D01*
X128010545Y-92069678D01*
X128010543Y-92069680D01*
X127874005Y-92373056D01*
X127873999Y-92373071D01*
X127775032Y-92690670D01*
X127715060Y-93017923D01*
X127694974Y-93350000D01*
X127715060Y-93682076D01*
X127775032Y-94009329D01*
X127873999Y-94326928D01*
X127874005Y-94326943D01*
X128010543Y-94630319D01*
X128010545Y-94630321D01*
X128182657Y-94915031D01*
X128182662Y-94915039D01*
X128335862Y-95110583D01*
X129226389Y-94220056D01*
X129342632Y-94369404D01*
X129525523Y-94537768D01*
X129580116Y-94573435D01*
X128689415Y-95464136D01*
X128689415Y-95464137D01*
X128884960Y-95617337D01*
X128884968Y-95617342D01*
X129169678Y-95789454D01*
X129169680Y-95789456D01*
X129473056Y-95925994D01*
X129473071Y-95926000D01*
X129733379Y-96007115D01*
X129791527Y-96045852D01*
X129819501Y-96109877D01*
X129808419Y-96178863D01*
X129761801Y-96230906D01*
X129696489Y-96249500D01*
X91803511Y-96249500D01*
X91736472Y-96229815D01*
X91690717Y-96177011D01*
X91680773Y-96107853D01*
X91709798Y-96044297D01*
X91766621Y-96007115D01*
X92026928Y-95926000D01*
X92026943Y-95925994D01*
X92330319Y-95789456D01*
X92330321Y-95789454D01*
X92615030Y-95617343D01*
X92810583Y-95464137D01*
X92810583Y-95464136D01*
X91919882Y-94573435D01*
X91974477Y-94537768D01*
X92157368Y-94369404D01*
X92273610Y-94220057D01*
X93164136Y-95110583D01*
X93164137Y-95110583D01*
X93317343Y-94915030D01*
X93489454Y-94630321D01*
X93489456Y-94630319D01*
X93625994Y-94326943D01*
X93626000Y-94326928D01*
X93724967Y-94009329D01*
X93784939Y-93682076D01*
X93805025Y-93350000D01*
X93784939Y-93017923D01*
X93724967Y-92690670D01*
X93626000Y-92373071D01*
X93625994Y-92373056D01*
X93489456Y-92069680D01*
X93489454Y-92069678D01*
X93317342Y-91784968D01*
X93317337Y-91784960D01*
X93164136Y-91589415D01*
X92273609Y-92479942D01*
X92157368Y-92330596D01*
X91974477Y-92162232D01*
X91919882Y-92126563D01*
X92810583Y-91235862D01*
X92810583Y-91235861D01*
X92615039Y-91082662D01*
X92615031Y-91082657D01*
X92330321Y-90910545D01*
X92330319Y-90910543D01*
X92026943Y-90774005D01*
X92026928Y-90773999D01*
X91709329Y-90675032D01*
X91382076Y-90615060D01*
X91050000Y-90594974D01*
X90717923Y-90615060D01*
X90390670Y-90675032D01*
X90073071Y-90773999D01*
X90073056Y-90774005D01*
X89769680Y-90910543D01*
X89769678Y-90910545D01*
X89484968Y-91082657D01*
X89289415Y-91235862D01*
X90180117Y-92126564D01*
X90125523Y-92162232D01*
X89942632Y-92330596D01*
X89826389Y-92479942D01*
X88935862Y-91589415D01*
X88881986Y-91592674D01*
X88813881Y-91577073D01*
X88765021Y-91527127D01*
X88750500Y-91468900D01*
X88750500Y-87250000D01*
X96250000Y-87250000D01*
X96750000Y-88500000D01*
X98000000Y-89000000D01*
X99250000Y-88500000D01*
X99750000Y-87250000D01*
X121750000Y-87250000D01*
X122250000Y-88500000D01*
X123500000Y-89000000D01*
X124750000Y-88500000D01*
X125250000Y-87250000D01*
X124750000Y-86000000D01*
X123500000Y-85500000D01*
X122250000Y-86000000D01*
X121750000Y-87250000D01*
X99750000Y-87250000D01*
X99250000Y-86000000D01*
X98000000Y-85500000D01*
X96750000Y-86000000D01*
X96250000Y-87250000D01*
X88750500Y-87250000D01*
X88750500Y-80781187D01*
X89299500Y-80781187D01*
X89318685Y-80908462D01*
X89338604Y-81040615D01*
X89338605Y-81040617D01*
X89338606Y-81040623D01*
X89415938Y-81291326D01*
X89529767Y-81527696D01*
X89529768Y-81527697D01*
X89529770Y-81527700D01*
X89529772Y-81527704D01*
X89534249Y-81534270D01*
X89677567Y-81744479D01*
X89856014Y-81936801D01*
X89856018Y-81936804D01*
X89856019Y-81936805D01*
X90061143Y-82100386D01*
X90288357Y-82231568D01*
X90532584Y-82327420D01*
X90788370Y-82385802D01*
X90788376Y-82385802D01*
X90788379Y-82385803D01*
X90950031Y-82397917D01*
X91015412Y-82422556D01*
X91057093Y-82478631D01*
X91061931Y-82547928D01*
X91014804Y-82764566D01*
X90994390Y-83049998D01*
X90994390Y-83050001D01*
X91014804Y-83335433D01*
X91075628Y-83615037D01*
X91175635Y-83883166D01*
X91312770Y-84134309D01*
X91312775Y-84134317D01*
X91484254Y-84363387D01*
X91484270Y-84363405D01*
X91686594Y-84565729D01*
X91686612Y-84565745D01*
X91915682Y-84737224D01*
X91915690Y-84737229D01*
X92166833Y-84874364D01*
X92166832Y-84874364D01*
X92166836Y-84874365D01*
X92166839Y-84874367D01*
X92434954Y-84974369D01*
X92434960Y-84974370D01*
X92434962Y-84974371D01*
X92714566Y-85035195D01*
X92714568Y-85035195D01*
X92714572Y-85035196D01*
X92968220Y-85053337D01*
X92999999Y-85055610D01*
X93000000Y-85055610D01*
X93000001Y-85055610D01*
X93028595Y-85053564D01*
X93285428Y-85035196D01*
X93565046Y-84974369D01*
X93833161Y-84874367D01*
X94084315Y-84737226D01*
X94313395Y-84565739D01*
X94515739Y-84363395D01*
X94687226Y-84134315D01*
X94794677Y-83937534D01*
X105249500Y-83937534D01*
X105279898Y-84109937D01*
X105339775Y-84274446D01*
X105427309Y-84426057D01*
X105539836Y-84560163D01*
X105673942Y-84672690D01*
X105785716Y-84737224D01*
X105825555Y-84760225D01*
X105990062Y-84820101D01*
X106162468Y-84850500D01*
X106162472Y-84850500D01*
X115337528Y-84850500D01*
X115337532Y-84850500D01*
X115509938Y-84820101D01*
X115674445Y-84760225D01*
X115826055Y-84672692D01*
X115960163Y-84560163D01*
X116072692Y-84426055D01*
X116160225Y-84274445D01*
X116220101Y-84109938D01*
X116250500Y-83937532D01*
X116250500Y-83850000D01*
X116250500Y-83784108D01*
X116250500Y-83050001D01*
X126494390Y-83050001D01*
X126514804Y-83335433D01*
X126575628Y-83615037D01*
X126675635Y-83883166D01*
X126812770Y-84134309D01*
X126812775Y-84134317D01*
X126984254Y-84363387D01*
X126984270Y-84363405D01*
X127186594Y-84565729D01*
X127186612Y-84565745D01*
X127415682Y-84737224D01*
X127415690Y-84737229D01*
X127666833Y-84874364D01*
X127666832Y-84874364D01*
X127666836Y-84874365D01*
X127666839Y-84874367D01*
X127934954Y-84974369D01*
X127934960Y-84974370D01*
X127934962Y-84974371D01*
X128214566Y-85035195D01*
X128214568Y-85035195D01*
X128214572Y-85035196D01*
X128468220Y-85053337D01*
X128499999Y-85055610D01*
X128500000Y-85055610D01*
X128500001Y-85055610D01*
X128528595Y-85053564D01*
X128785428Y-85035196D01*
X129065046Y-84974369D01*
X129333161Y-84874367D01*
X129584315Y-84737226D01*
X129813395Y-84565739D01*
X130015739Y-84363395D01*
X130187226Y-84134315D01*
X130324367Y-83883161D01*
X130424369Y-83615046D01*
X130485196Y-83335428D01*
X130505610Y-83050000D01*
X130485196Y-82764572D01*
X130438068Y-82547927D01*
X130443052Y-82478237D01*
X130484923Y-82422303D01*
X130549968Y-82397917D01*
X130711620Y-82385803D01*
X130711622Y-82385802D01*
X130711630Y-82385802D01*
X130967416Y-82327420D01*
X131211643Y-82231568D01*
X131438857Y-82100386D01*
X131643981Y-81936805D01*
X131822433Y-81744479D01*
X131970228Y-81527704D01*
X132084063Y-81291323D01*
X132161396Y-81040615D01*
X132200500Y-80781182D01*
X132200500Y-80518818D01*
X132161396Y-80259385D01*
X132084063Y-80008677D01*
X132072121Y-79983880D01*
X131970232Y-79772303D01*
X131970231Y-79772302D01*
X131970230Y-79772301D01*
X131970228Y-79772296D01*
X131822433Y-79555521D01*
X131812441Y-79544753D01*
X131643985Y-79363198D01*
X131507590Y-79254427D01*
X131438857Y-79199614D01*
X131211643Y-79068432D01*
X130967416Y-78972580D01*
X130967411Y-78972578D01*
X130967402Y-78972576D01*
X130749818Y-78922914D01*
X130711630Y-78914198D01*
X130711629Y-78914197D01*
X130711625Y-78914197D01*
X130711620Y-78914196D01*
X130515515Y-78899500D01*
X130515494Y-78899500D01*
X130384506Y-78899500D01*
X130384484Y-78899500D01*
X130188379Y-78914196D01*
X130188374Y-78914197D01*
X129932597Y-78972576D01*
X129932578Y-78972582D01*
X129688356Y-79068432D01*
X129461143Y-79199614D01*
X129256014Y-79363198D01*
X129077567Y-79555520D01*
X128929768Y-79772302D01*
X128929767Y-79772303D01*
X128815938Y-80008673D01*
X128738606Y-80259376D01*
X128738605Y-80259381D01*
X128738604Y-80259385D01*
X128725021Y-80349500D01*
X128699500Y-80518812D01*
X128699500Y-80781189D01*
X128718684Y-80908463D01*
X128709211Y-80977687D01*
X128663816Y-81030801D01*
X128596912Y-81050941D01*
X128587223Y-81050628D01*
X128500001Y-81044390D01*
X128499999Y-81044390D01*
X128214566Y-81064804D01*
X127934962Y-81125628D01*
X127666833Y-81225635D01*
X127415690Y-81362770D01*
X127415682Y-81362775D01*
X127186612Y-81534254D01*
X127186594Y-81534270D01*
X126984270Y-81736594D01*
X126984254Y-81736612D01*
X126812775Y-81965682D01*
X126812770Y-81965690D01*
X126675635Y-82216833D01*
X126575628Y-82484962D01*
X126514804Y-82764566D01*
X126494390Y-83049998D01*
X126494390Y-83050001D01*
X116250500Y-83050001D01*
X116250500Y-81314201D01*
X116250500Y-81262468D01*
X116220101Y-81090062D01*
X116160225Y-80925555D01*
X116072692Y-80773945D01*
X116072691Y-80773943D01*
X116072690Y-80773942D01*
X115960163Y-80639836D01*
X115826057Y-80527309D01*
X115674446Y-80439775D01*
X115509937Y-80379898D01*
X115337534Y-80349500D01*
X115337532Y-80349500D01*
X115285799Y-80349500D01*
X106315892Y-80349500D01*
X106250000Y-80349500D01*
X106162468Y-80349500D01*
X106162465Y-80349500D01*
X105990062Y-80379898D01*
X105825553Y-80439775D01*
X105673942Y-80527309D01*
X105539836Y-80639836D01*
X105427309Y-80773942D01*
X105339775Y-80925553D01*
X105279898Y-81090062D01*
X105249500Y-81262465D01*
X105249500Y-83937534D01*
X94794677Y-83937534D01*
X94824367Y-83883161D01*
X94924369Y-83615046D01*
X94985196Y-83335428D01*
X95005610Y-83050000D01*
X94985196Y-82764572D01*
X94924369Y-82484954D01*
X94824367Y-82216839D01*
X94744025Y-82069705D01*
X94687229Y-81965690D01*
X94687224Y-81965682D01*
X94515745Y-81736612D01*
X94515729Y-81736594D01*
X94313405Y-81534270D01*
X94313387Y-81534254D01*
X94084317Y-81362775D01*
X94084309Y-81362770D01*
X93833166Y-81225635D01*
X93833167Y-81225635D01*
X93725915Y-81185632D01*
X93565046Y-81125631D01*
X93565043Y-81125630D01*
X93565037Y-81125628D01*
X93285433Y-81064804D01*
X93000001Y-81044390D01*
X92999999Y-81044390D01*
X92912776Y-81050628D01*
X92844503Y-81035776D01*
X92795098Y-80986371D01*
X92780246Y-80918098D01*
X92781315Y-80908462D01*
X92800499Y-80781187D01*
X92800500Y-80781182D01*
X92800500Y-80518817D01*
X92800499Y-80518812D01*
X92761396Y-80259385D01*
X92684063Y-80008677D01*
X92672121Y-79983880D01*
X92570232Y-79772303D01*
X92570231Y-79772302D01*
X92570230Y-79772301D01*
X92570228Y-79772296D01*
X92422433Y-79555521D01*
X92412441Y-79544753D01*
X92243985Y-79363198D01*
X92107590Y-79254427D01*
X92038857Y-79199614D01*
X91811643Y-79068432D01*
X91567416Y-78972580D01*
X91567411Y-78972578D01*
X91567402Y-78972576D01*
X91349818Y-78922914D01*
X91311630Y-78914198D01*
X91311629Y-78914197D01*
X91311625Y-78914197D01*
X91311620Y-78914196D01*
X91115515Y-78899500D01*
X91115494Y-78899500D01*
X90984506Y-78899500D01*
X90984484Y-78899500D01*
X90788379Y-78914196D01*
X90788374Y-78914197D01*
X90532597Y-78972576D01*
X90532578Y-78972582D01*
X90288356Y-79068432D01*
X90061143Y-79199614D01*
X89856014Y-79363198D01*
X89677567Y-79555520D01*
X89529768Y-79772302D01*
X89529767Y-79772303D01*
X89415938Y-80008673D01*
X89338606Y-80259376D01*
X89338605Y-80259381D01*
X89338604Y-80259385D01*
X89325021Y-80349500D01*
X89299500Y-80518812D01*
X89299500Y-80781187D01*
X88750500Y-80781187D01*
X88750500Y-79254427D01*
X88750816Y-79245581D01*
X88765130Y-79045443D01*
X88765131Y-79045442D01*
X88765130Y-79045436D01*
X88767646Y-79027938D01*
X88809356Y-78836199D01*
X88814333Y-78819248D01*
X88882911Y-78635385D01*
X88890259Y-78619298D01*
X88952815Y-78504734D01*
X88984291Y-78447089D01*
X88993845Y-78432221D01*
X89111448Y-78275123D01*
X89123020Y-78261769D01*
X89261769Y-78123020D01*
X89275123Y-78111448D01*
X89432221Y-77993845D01*
X89447089Y-77984291D01*
X89619298Y-77890258D01*
X89635385Y-77882911D01*
X89819248Y-77814333D01*
X89836199Y-77809356D01*
X90027938Y-77767646D01*
X90045436Y-77765130D01*
X90245582Y-77750816D01*
X90254428Y-77750500D01*
X90315892Y-77750500D01*
X131184108Y-77750500D01*
X131245572Y-77750500D01*
X131254418Y-77750816D01*
G37*
%TD.AperFunction*%
%TA.AperFunction,Conductor*%
G36*
X132578851Y-95125298D02*
G01*
X132593059Y-95128553D01*
X132641920Y-95178496D01*
X132656023Y-95246928D01*
X132648625Y-95280061D01*
X132617090Y-95364609D01*
X132609740Y-95380701D01*
X132515711Y-95552904D01*
X132506146Y-95567789D01*
X132388558Y-95724867D01*
X132376972Y-95738237D01*
X132238237Y-95876972D01*
X132224867Y-95888558D01*
X132067789Y-96006146D01*
X132052904Y-96015711D01*
X131880701Y-96109740D01*
X131864609Y-96117090D01*
X131680763Y-96185662D01*
X131663787Y-96190646D01*
X131472068Y-96232351D01*
X131454557Y-96234869D01*
X131273779Y-96247799D01*
X131254417Y-96249184D01*
X131245572Y-96249500D01*
X131203511Y-96249500D01*
X131136472Y-96229815D01*
X131090717Y-96177011D01*
X131080773Y-96107853D01*
X131109798Y-96044297D01*
X131166621Y-96007115D01*
X131426928Y-95926000D01*
X131426943Y-95925994D01*
X131730319Y-95789456D01*
X131730321Y-95789454D01*
X132015030Y-95617343D01*
X132210583Y-95464137D01*
X132210583Y-95464136D01*
X131319882Y-94573435D01*
X131374477Y-94537768D01*
X131557368Y-94369404D01*
X131673610Y-94220057D01*
X132578851Y-95125298D01*
G37*
%TD.AperFunction*%
%TD*%
%TA.AperFunction,Conductor*%
%TO.N,GND*%
G36*
X44942632Y-113869404D02*
G01*
X45125523Y-114037768D01*
X45180116Y-114073435D01*
X44289415Y-114964136D01*
X44289415Y-114964137D01*
X44484960Y-115117337D01*
X44484968Y-115117342D01*
X44769678Y-115289454D01*
X44769680Y-115289456D01*
X45073056Y-115425994D01*
X45073071Y-115426000D01*
X45333379Y-115507115D01*
X45391527Y-115545852D01*
X45419501Y-115609877D01*
X45408419Y-115678863D01*
X45361801Y-115730906D01*
X45296489Y-115749500D01*
X45254428Y-115749500D01*
X45245582Y-115749184D01*
X45223622Y-115747613D01*
X45045442Y-115734869D01*
X45027931Y-115732351D01*
X44836212Y-115690646D01*
X44819236Y-115685662D01*
X44635390Y-115617090D01*
X44619298Y-115609740D01*
X44447095Y-115515711D01*
X44432210Y-115506146D01*
X44275132Y-115388558D01*
X44261762Y-115376972D01*
X44123027Y-115238237D01*
X44111441Y-115224867D01*
X44030949Y-115117343D01*
X43993849Y-115067784D01*
X43984288Y-115052904D01*
X43890259Y-114880701D01*
X43882909Y-114864609D01*
X43851374Y-114780061D01*
X43846390Y-114710369D01*
X43879875Y-114649046D01*
X43918480Y-114627965D01*
X44826389Y-113720056D01*
X44942632Y-113869404D01*
G37*
%TD.AperFunction*%
%TA.AperFunction,Conductor*%
G36*
X86254418Y-97250816D02*
G01*
X86454561Y-97265130D01*
X86472063Y-97267647D01*
X86663797Y-97309355D01*
X86680755Y-97314334D01*
X86864609Y-97382909D01*
X86880701Y-97390259D01*
X87052904Y-97484288D01*
X87067784Y-97493849D01*
X87224867Y-97611441D01*
X87238237Y-97623027D01*
X87376972Y-97761762D01*
X87388558Y-97775132D01*
X87506146Y-97932210D01*
X87515711Y-97947095D01*
X87609740Y-98119298D01*
X87617090Y-98135390D01*
X87685662Y-98319236D01*
X87690646Y-98336212D01*
X87732351Y-98527931D01*
X87734869Y-98545442D01*
X87749184Y-98745580D01*
X87749500Y-98754427D01*
X87749500Y-110968900D01*
X87729815Y-111035939D01*
X87677011Y-111081694D01*
X87618014Y-111092674D01*
X87564136Y-111089415D01*
X86673609Y-111979942D01*
X86557368Y-111830596D01*
X86374477Y-111662232D01*
X86319882Y-111626563D01*
X87210583Y-110735862D01*
X87210583Y-110735861D01*
X87015039Y-110582662D01*
X87015031Y-110582657D01*
X86730321Y-110410545D01*
X86730319Y-110410543D01*
X86426943Y-110274005D01*
X86426928Y-110273999D01*
X86109329Y-110175032D01*
X85782076Y-110115060D01*
X85450000Y-110094974D01*
X85117923Y-110115060D01*
X84790670Y-110175032D01*
X84473071Y-110273999D01*
X84473056Y-110274005D01*
X84169680Y-110410543D01*
X84169678Y-110410545D01*
X83884968Y-110582657D01*
X83689415Y-110735862D01*
X84580117Y-111626564D01*
X84525523Y-111662232D01*
X84342632Y-111830596D01*
X84226389Y-111979942D01*
X83335862Y-111089415D01*
X83182657Y-111284968D01*
X83010545Y-111569678D01*
X83010543Y-111569680D01*
X82874005Y-111873056D01*
X82873999Y-111873071D01*
X82775032Y-112190670D01*
X82715060Y-112517923D01*
X82694974Y-112850000D01*
X82715060Y-113182076D01*
X82775032Y-113509329D01*
X82873999Y-113826928D01*
X82874005Y-113826943D01*
X83010543Y-114130319D01*
X83010545Y-114130321D01*
X83182657Y-114415031D01*
X83182662Y-114415039D01*
X83335862Y-114610583D01*
X84226389Y-113720056D01*
X84342632Y-113869404D01*
X84525523Y-114037768D01*
X84580116Y-114073435D01*
X83689415Y-114964136D01*
X83689415Y-114964137D01*
X83884960Y-115117337D01*
X83884968Y-115117342D01*
X84169678Y-115289454D01*
X84169680Y-115289456D01*
X84473056Y-115425994D01*
X84473071Y-115426000D01*
X84733379Y-115507115D01*
X84791527Y-115545852D01*
X84819501Y-115609877D01*
X84808419Y-115678863D01*
X84761801Y-115730906D01*
X84696489Y-115749500D01*
X46803511Y-115749500D01*
X46736472Y-115729815D01*
X46690717Y-115677011D01*
X46680773Y-115607853D01*
X46709798Y-115544297D01*
X46766621Y-115507115D01*
X47026928Y-115426000D01*
X47026943Y-115425994D01*
X47330319Y-115289456D01*
X47330321Y-115289454D01*
X47615030Y-115117343D01*
X47810583Y-114964137D01*
X47810583Y-114964136D01*
X46919882Y-114073435D01*
X46974477Y-114037768D01*
X47157368Y-113869404D01*
X47273610Y-113720057D01*
X48164136Y-114610583D01*
X48164137Y-114610583D01*
X48317343Y-114415030D01*
X48489454Y-114130321D01*
X48489456Y-114130319D01*
X48625994Y-113826943D01*
X48626000Y-113826928D01*
X48724967Y-113509329D01*
X48784939Y-113182076D01*
X48805025Y-112850000D01*
X48784939Y-112517923D01*
X48724967Y-112190670D01*
X48626000Y-111873071D01*
X48625994Y-111873056D01*
X48489456Y-111569680D01*
X48489454Y-111569678D01*
X48317342Y-111284968D01*
X48317337Y-111284960D01*
X48164136Y-111089415D01*
X47273609Y-111979942D01*
X47157368Y-111830596D01*
X46974477Y-111662232D01*
X46919882Y-111626563D01*
X47810583Y-110735862D01*
X47810583Y-110735861D01*
X47615039Y-110582662D01*
X47615031Y-110582657D01*
X47330321Y-110410545D01*
X47330319Y-110410543D01*
X47026943Y-110274005D01*
X47026928Y-110273999D01*
X46709329Y-110175032D01*
X46382076Y-110115060D01*
X46050000Y-110094974D01*
X45717923Y-110115060D01*
X45390670Y-110175032D01*
X45073071Y-110273999D01*
X45073056Y-110274005D01*
X44769680Y-110410543D01*
X44769678Y-110410545D01*
X44484968Y-110582657D01*
X44289415Y-110735862D01*
X45180117Y-111626564D01*
X45125523Y-111662232D01*
X44942632Y-111830596D01*
X44826389Y-111979942D01*
X43935862Y-111089415D01*
X43881986Y-111092674D01*
X43813881Y-111077073D01*
X43765021Y-111027127D01*
X43750500Y-110968900D01*
X43750500Y-106750000D01*
X51250000Y-106750000D01*
X51750000Y-108000000D01*
X53000000Y-108500000D01*
X54250000Y-108000000D01*
X54750000Y-106750000D01*
X76750000Y-106750000D01*
X77250000Y-108000000D01*
X78500000Y-108500000D01*
X79750000Y-108000000D01*
X80250000Y-106750000D01*
X79750000Y-105500000D01*
X78500000Y-105000000D01*
X77250000Y-105500000D01*
X76750000Y-106750000D01*
X54750000Y-106750000D01*
X54250000Y-105500000D01*
X53000000Y-105000000D01*
X51750000Y-105500000D01*
X51250000Y-106750000D01*
X43750500Y-106750000D01*
X43750500Y-100281187D01*
X44299500Y-100281187D01*
X44318685Y-100408462D01*
X44338604Y-100540615D01*
X44338605Y-100540617D01*
X44338606Y-100540623D01*
X44415938Y-100791326D01*
X44529767Y-101027696D01*
X44529768Y-101027697D01*
X44529770Y-101027700D01*
X44529772Y-101027704D01*
X44534249Y-101034270D01*
X44677567Y-101244479D01*
X44856014Y-101436801D01*
X44856018Y-101436804D01*
X44856019Y-101436805D01*
X45061143Y-101600386D01*
X45288357Y-101731568D01*
X45532584Y-101827420D01*
X45788370Y-101885802D01*
X45788376Y-101885802D01*
X45788379Y-101885803D01*
X45950031Y-101897917D01*
X46015412Y-101922556D01*
X46057093Y-101978631D01*
X46061931Y-102047928D01*
X46014804Y-102264566D01*
X45994390Y-102549998D01*
X45994390Y-102550001D01*
X46014804Y-102835433D01*
X46075628Y-103115037D01*
X46175635Y-103383166D01*
X46312770Y-103634309D01*
X46312775Y-103634317D01*
X46484254Y-103863387D01*
X46484270Y-103863405D01*
X46686594Y-104065729D01*
X46686612Y-104065745D01*
X46915682Y-104237224D01*
X46915690Y-104237229D01*
X47166833Y-104374364D01*
X47166832Y-104374364D01*
X47166836Y-104374365D01*
X47166839Y-104374367D01*
X47434954Y-104474369D01*
X47434960Y-104474370D01*
X47434962Y-104474371D01*
X47714566Y-104535195D01*
X47714568Y-104535195D01*
X47714572Y-104535196D01*
X47968220Y-104553337D01*
X47999999Y-104555610D01*
X48000000Y-104555610D01*
X48000001Y-104555610D01*
X48028595Y-104553564D01*
X48285428Y-104535196D01*
X48565046Y-104474369D01*
X48833161Y-104374367D01*
X49084315Y-104237226D01*
X49313395Y-104065739D01*
X49515739Y-103863395D01*
X49687226Y-103634315D01*
X49794677Y-103437534D01*
X60249500Y-103437534D01*
X60279898Y-103609937D01*
X60339775Y-103774446D01*
X60427309Y-103926057D01*
X60539836Y-104060163D01*
X60673942Y-104172690D01*
X60785716Y-104237224D01*
X60825555Y-104260225D01*
X60990062Y-104320101D01*
X61162468Y-104350500D01*
X61162472Y-104350500D01*
X70337528Y-104350500D01*
X70337532Y-104350500D01*
X70509938Y-104320101D01*
X70674445Y-104260225D01*
X70826055Y-104172692D01*
X70960163Y-104060163D01*
X71072692Y-103926055D01*
X71160225Y-103774445D01*
X71220101Y-103609938D01*
X71250500Y-103437532D01*
X71250500Y-103350000D01*
X71250500Y-103284108D01*
X71250500Y-102550001D01*
X81494390Y-102550001D01*
X81514804Y-102835433D01*
X81575628Y-103115037D01*
X81675635Y-103383166D01*
X81812770Y-103634309D01*
X81812775Y-103634317D01*
X81984254Y-103863387D01*
X81984270Y-103863405D01*
X82186594Y-104065729D01*
X82186612Y-104065745D01*
X82415682Y-104237224D01*
X82415690Y-104237229D01*
X82666833Y-104374364D01*
X82666832Y-104374364D01*
X82666836Y-104374365D01*
X82666839Y-104374367D01*
X82934954Y-104474369D01*
X82934960Y-104474370D01*
X82934962Y-104474371D01*
X83214566Y-104535195D01*
X83214568Y-104535195D01*
X83214572Y-104535196D01*
X83468220Y-104553337D01*
X83499999Y-104555610D01*
X83500000Y-104555610D01*
X83500001Y-104555610D01*
X83528595Y-104553564D01*
X83785428Y-104535196D01*
X84065046Y-104474369D01*
X84333161Y-104374367D01*
X84584315Y-104237226D01*
X84813395Y-104065739D01*
X85015739Y-103863395D01*
X85187226Y-103634315D01*
X85324367Y-103383161D01*
X85424369Y-103115046D01*
X85485196Y-102835428D01*
X85505610Y-102550000D01*
X85485196Y-102264572D01*
X85438068Y-102047927D01*
X85443052Y-101978237D01*
X85484923Y-101922303D01*
X85549968Y-101897917D01*
X85711620Y-101885803D01*
X85711622Y-101885802D01*
X85711630Y-101885802D01*
X85967416Y-101827420D01*
X86211643Y-101731568D01*
X86438857Y-101600386D01*
X86643981Y-101436805D01*
X86822433Y-101244479D01*
X86970228Y-101027704D01*
X87084063Y-100791323D01*
X87161396Y-100540615D01*
X87200500Y-100281182D01*
X87200500Y-100018818D01*
X87161396Y-99759385D01*
X87084063Y-99508677D01*
X87072121Y-99483880D01*
X86970232Y-99272303D01*
X86970231Y-99272302D01*
X86970230Y-99272301D01*
X86970228Y-99272296D01*
X86822433Y-99055521D01*
X86812441Y-99044753D01*
X86643985Y-98863198D01*
X86507590Y-98754427D01*
X86438857Y-98699614D01*
X86211643Y-98568432D01*
X85967416Y-98472580D01*
X85967411Y-98472578D01*
X85967402Y-98472576D01*
X85749818Y-98422914D01*
X85711630Y-98414198D01*
X85711629Y-98414197D01*
X85711625Y-98414197D01*
X85711620Y-98414196D01*
X85515515Y-98399500D01*
X85515494Y-98399500D01*
X85384506Y-98399500D01*
X85384484Y-98399500D01*
X85188379Y-98414196D01*
X85188374Y-98414197D01*
X84932597Y-98472576D01*
X84932578Y-98472582D01*
X84688356Y-98568432D01*
X84461143Y-98699614D01*
X84256014Y-98863198D01*
X84077567Y-99055520D01*
X83929768Y-99272302D01*
X83929767Y-99272303D01*
X83815938Y-99508673D01*
X83738606Y-99759376D01*
X83738605Y-99759381D01*
X83738604Y-99759385D01*
X83725021Y-99849500D01*
X83699500Y-100018812D01*
X83699500Y-100281189D01*
X83718684Y-100408463D01*
X83709211Y-100477687D01*
X83663816Y-100530801D01*
X83596912Y-100550941D01*
X83587223Y-100550628D01*
X83500001Y-100544390D01*
X83499999Y-100544390D01*
X83214566Y-100564804D01*
X82934962Y-100625628D01*
X82666833Y-100725635D01*
X82415690Y-100862770D01*
X82415682Y-100862775D01*
X82186612Y-101034254D01*
X82186594Y-101034270D01*
X81984270Y-101236594D01*
X81984254Y-101236612D01*
X81812775Y-101465682D01*
X81812770Y-101465690D01*
X81675635Y-101716833D01*
X81575628Y-101984962D01*
X81514804Y-102264566D01*
X81494390Y-102549998D01*
X81494390Y-102550001D01*
X71250500Y-102550001D01*
X71250500Y-100814201D01*
X71250500Y-100762468D01*
X71220101Y-100590062D01*
X71160225Y-100425555D01*
X71072692Y-100273945D01*
X71072691Y-100273943D01*
X71072690Y-100273942D01*
X70960163Y-100139836D01*
X70826057Y-100027309D01*
X70674446Y-99939775D01*
X70509937Y-99879898D01*
X70337534Y-99849500D01*
X70337532Y-99849500D01*
X70285799Y-99849500D01*
X61315892Y-99849500D01*
X61250000Y-99849500D01*
X61162468Y-99849500D01*
X61162465Y-99849500D01*
X60990062Y-99879898D01*
X60825553Y-99939775D01*
X60673942Y-100027309D01*
X60539836Y-100139836D01*
X60427309Y-100273942D01*
X60339775Y-100425553D01*
X60279898Y-100590062D01*
X60249500Y-100762465D01*
X60249500Y-103437534D01*
X49794677Y-103437534D01*
X49824367Y-103383161D01*
X49924369Y-103115046D01*
X49985196Y-102835428D01*
X50005610Y-102550000D01*
X49985196Y-102264572D01*
X49924369Y-101984954D01*
X49824367Y-101716839D01*
X49744025Y-101569705D01*
X49687229Y-101465690D01*
X49687224Y-101465682D01*
X49515745Y-101236612D01*
X49515729Y-101236594D01*
X49313405Y-101034270D01*
X49313387Y-101034254D01*
X49084317Y-100862775D01*
X49084309Y-100862770D01*
X48833166Y-100725635D01*
X48833167Y-100725635D01*
X48725915Y-100685632D01*
X48565046Y-100625631D01*
X48565043Y-100625630D01*
X48565037Y-100625628D01*
X48285433Y-100564804D01*
X48000001Y-100544390D01*
X47999999Y-100544390D01*
X47912776Y-100550628D01*
X47844503Y-100535776D01*
X47795098Y-100486371D01*
X47780246Y-100418098D01*
X47781315Y-100408462D01*
X47800499Y-100281187D01*
X47800500Y-100281182D01*
X47800500Y-100018817D01*
X47800499Y-100018812D01*
X47761396Y-99759385D01*
X47684063Y-99508677D01*
X47672121Y-99483880D01*
X47570232Y-99272303D01*
X47570231Y-99272302D01*
X47570230Y-99272301D01*
X47570228Y-99272296D01*
X47422433Y-99055521D01*
X47412441Y-99044753D01*
X47243985Y-98863198D01*
X47107590Y-98754427D01*
X47038857Y-98699614D01*
X46811643Y-98568432D01*
X46567416Y-98472580D01*
X46567411Y-98472578D01*
X46567402Y-98472576D01*
X46349818Y-98422914D01*
X46311630Y-98414198D01*
X46311629Y-98414197D01*
X46311625Y-98414197D01*
X46311620Y-98414196D01*
X46115515Y-98399500D01*
X46115494Y-98399500D01*
X45984506Y-98399500D01*
X45984484Y-98399500D01*
X45788379Y-98414196D01*
X45788374Y-98414197D01*
X45532597Y-98472576D01*
X45532578Y-98472582D01*
X45288356Y-98568432D01*
X45061143Y-98699614D01*
X44856014Y-98863198D01*
X44677567Y-99055520D01*
X44529768Y-99272302D01*
X44529767Y-99272303D01*
X44415938Y-99508673D01*
X44338606Y-99759376D01*
X44338605Y-99759381D01*
X44338604Y-99759385D01*
X44325021Y-99849500D01*
X44299500Y-100018812D01*
X44299500Y-100281187D01*
X43750500Y-100281187D01*
X43750500Y-98754427D01*
X43750816Y-98745581D01*
X43765130Y-98545443D01*
X43765131Y-98545442D01*
X43765130Y-98545436D01*
X43767646Y-98527938D01*
X43809356Y-98336199D01*
X43814333Y-98319248D01*
X43882911Y-98135385D01*
X43890259Y-98119298D01*
X43952815Y-98004734D01*
X43984291Y-97947089D01*
X43993845Y-97932221D01*
X44111448Y-97775123D01*
X44123020Y-97761769D01*
X44261769Y-97623020D01*
X44275123Y-97611448D01*
X44432221Y-97493845D01*
X44447089Y-97484291D01*
X44619298Y-97390258D01*
X44635385Y-97382911D01*
X44819248Y-97314333D01*
X44836199Y-97309356D01*
X45027938Y-97267646D01*
X45045436Y-97265130D01*
X45245582Y-97250816D01*
X45254428Y-97250500D01*
X45315892Y-97250500D01*
X86184108Y-97250500D01*
X86245572Y-97250500D01*
X86254418Y-97250816D01*
G37*
%TD.AperFunction*%
%TA.AperFunction,Conductor*%
G36*
X87578851Y-114625298D02*
G01*
X87593059Y-114628553D01*
X87641920Y-114678496D01*
X87656023Y-114746928D01*
X87648625Y-114780061D01*
X87617090Y-114864609D01*
X87609740Y-114880701D01*
X87515711Y-115052904D01*
X87506146Y-115067789D01*
X87388558Y-115224867D01*
X87376972Y-115238237D01*
X87238237Y-115376972D01*
X87224867Y-115388558D01*
X87067789Y-115506146D01*
X87052904Y-115515711D01*
X86880701Y-115609740D01*
X86864609Y-115617090D01*
X86680763Y-115685662D01*
X86663787Y-115690646D01*
X86472068Y-115732351D01*
X86454557Y-115734869D01*
X86273779Y-115747799D01*
X86254417Y-115749184D01*
X86245572Y-115749500D01*
X86203511Y-115749500D01*
X86136472Y-115729815D01*
X86090717Y-115677011D01*
X86080773Y-115607853D01*
X86109798Y-115544297D01*
X86166621Y-115507115D01*
X86426928Y-115426000D01*
X86426943Y-115425994D01*
X86730319Y-115289456D01*
X86730321Y-115289454D01*
X87015030Y-115117343D01*
X87210583Y-114964137D01*
X87210583Y-114964136D01*
X86319882Y-114073435D01*
X86374477Y-114037768D01*
X86557368Y-113869404D01*
X86673610Y-113720057D01*
X87578851Y-114625298D01*
G37*
%TD.AperFunction*%
%TD*%
%TA.AperFunction,Conductor*%
%TO.N,GND*%
G36*
X89942632Y-113869404D02*
G01*
X90125523Y-114037768D01*
X90180116Y-114073435D01*
X89289415Y-114964136D01*
X89289415Y-114964137D01*
X89484960Y-115117337D01*
X89484968Y-115117342D01*
X89769678Y-115289454D01*
X89769680Y-115289456D01*
X90073056Y-115425994D01*
X90073071Y-115426000D01*
X90333379Y-115507115D01*
X90391527Y-115545852D01*
X90419501Y-115609877D01*
X90408419Y-115678863D01*
X90361801Y-115730906D01*
X90296489Y-115749500D01*
X90254428Y-115749500D01*
X90245582Y-115749184D01*
X90223622Y-115747613D01*
X90045442Y-115734869D01*
X90027931Y-115732351D01*
X89836212Y-115690646D01*
X89819236Y-115685662D01*
X89635390Y-115617090D01*
X89619298Y-115609740D01*
X89447095Y-115515711D01*
X89432210Y-115506146D01*
X89275132Y-115388558D01*
X89261762Y-115376972D01*
X89123027Y-115238237D01*
X89111441Y-115224867D01*
X89030949Y-115117343D01*
X88993849Y-115067784D01*
X88984288Y-115052904D01*
X88890259Y-114880701D01*
X88882909Y-114864609D01*
X88851374Y-114780061D01*
X88846390Y-114710369D01*
X88879875Y-114649046D01*
X88918480Y-114627965D01*
X89826389Y-113720056D01*
X89942632Y-113869404D01*
G37*
%TD.AperFunction*%
%TA.AperFunction,Conductor*%
G36*
X131254418Y-97250816D02*
G01*
X131454561Y-97265130D01*
X131472063Y-97267647D01*
X131663797Y-97309355D01*
X131680755Y-97314334D01*
X131864609Y-97382909D01*
X131880701Y-97390259D01*
X132052904Y-97484288D01*
X132067784Y-97493849D01*
X132224867Y-97611441D01*
X132238237Y-97623027D01*
X132376972Y-97761762D01*
X132388558Y-97775132D01*
X132506146Y-97932210D01*
X132515711Y-97947095D01*
X132609740Y-98119298D01*
X132617090Y-98135390D01*
X132685662Y-98319236D01*
X132690646Y-98336212D01*
X132732351Y-98527931D01*
X132734869Y-98545442D01*
X132749184Y-98745580D01*
X132749500Y-98754427D01*
X132749500Y-110968900D01*
X132729815Y-111035939D01*
X132677011Y-111081694D01*
X132618014Y-111092674D01*
X132564136Y-111089415D01*
X131673609Y-111979942D01*
X131557368Y-111830596D01*
X131374477Y-111662232D01*
X131319882Y-111626563D01*
X132210583Y-110735862D01*
X132210583Y-110735861D01*
X132015039Y-110582662D01*
X132015031Y-110582657D01*
X131730321Y-110410545D01*
X131730319Y-110410543D01*
X131426943Y-110274005D01*
X131426928Y-110273999D01*
X131109329Y-110175032D01*
X130782076Y-110115060D01*
X130450000Y-110094974D01*
X130117923Y-110115060D01*
X129790670Y-110175032D01*
X129473071Y-110273999D01*
X129473056Y-110274005D01*
X129169680Y-110410543D01*
X129169678Y-110410545D01*
X128884968Y-110582657D01*
X128689415Y-110735862D01*
X129580117Y-111626564D01*
X129525523Y-111662232D01*
X129342632Y-111830596D01*
X129226389Y-111979942D01*
X128335862Y-111089415D01*
X128182657Y-111284968D01*
X128010545Y-111569678D01*
X128010543Y-111569680D01*
X127874005Y-111873056D01*
X127873999Y-111873071D01*
X127775032Y-112190670D01*
X127715060Y-112517923D01*
X127694974Y-112850000D01*
X127715060Y-113182076D01*
X127775032Y-113509329D01*
X127873999Y-113826928D01*
X127874005Y-113826943D01*
X128010543Y-114130319D01*
X128010545Y-114130321D01*
X128182657Y-114415031D01*
X128182662Y-114415039D01*
X128335862Y-114610583D01*
X129226389Y-113720056D01*
X129342632Y-113869404D01*
X129525523Y-114037768D01*
X129580116Y-114073435D01*
X128689415Y-114964136D01*
X128689415Y-114964137D01*
X128884960Y-115117337D01*
X128884968Y-115117342D01*
X129169678Y-115289454D01*
X129169680Y-115289456D01*
X129473056Y-115425994D01*
X129473071Y-115426000D01*
X129733379Y-115507115D01*
X129791527Y-115545852D01*
X129819501Y-115609877D01*
X129808419Y-115678863D01*
X129761801Y-115730906D01*
X129696489Y-115749500D01*
X91803511Y-115749500D01*
X91736472Y-115729815D01*
X91690717Y-115677011D01*
X91680773Y-115607853D01*
X91709798Y-115544297D01*
X91766621Y-115507115D01*
X92026928Y-115426000D01*
X92026943Y-115425994D01*
X92330319Y-115289456D01*
X92330321Y-115289454D01*
X92615030Y-115117343D01*
X92810583Y-114964137D01*
X92810583Y-114964136D01*
X91919882Y-114073435D01*
X91974477Y-114037768D01*
X92157368Y-113869404D01*
X92273610Y-113720057D01*
X93164136Y-114610583D01*
X93164137Y-114610583D01*
X93317343Y-114415030D01*
X93489454Y-114130321D01*
X93489456Y-114130319D01*
X93625994Y-113826943D01*
X93626000Y-113826928D01*
X93724967Y-113509329D01*
X93784939Y-113182076D01*
X93805025Y-112850000D01*
X93784939Y-112517923D01*
X93724967Y-112190670D01*
X93626000Y-111873071D01*
X93625994Y-111873056D01*
X93489456Y-111569680D01*
X93489454Y-111569678D01*
X93317342Y-111284968D01*
X93317337Y-111284960D01*
X93164136Y-111089415D01*
X92273609Y-111979942D01*
X92157368Y-111830596D01*
X91974477Y-111662232D01*
X91919882Y-111626563D01*
X92810583Y-110735862D01*
X92810583Y-110735861D01*
X92615039Y-110582662D01*
X92615031Y-110582657D01*
X92330321Y-110410545D01*
X92330319Y-110410543D01*
X92026943Y-110274005D01*
X92026928Y-110273999D01*
X91709329Y-110175032D01*
X91382076Y-110115060D01*
X91050000Y-110094974D01*
X90717923Y-110115060D01*
X90390670Y-110175032D01*
X90073071Y-110273999D01*
X90073056Y-110274005D01*
X89769680Y-110410543D01*
X89769678Y-110410545D01*
X89484968Y-110582657D01*
X89289415Y-110735862D01*
X90180117Y-111626564D01*
X90125523Y-111662232D01*
X89942632Y-111830596D01*
X89826389Y-111979942D01*
X88935862Y-111089415D01*
X88881986Y-111092674D01*
X88813881Y-111077073D01*
X88765021Y-111027127D01*
X88750500Y-110968900D01*
X88750500Y-106750000D01*
X96250000Y-106750000D01*
X96750000Y-108000000D01*
X98000000Y-108500000D01*
X99250000Y-108000000D01*
X99750000Y-106750000D01*
X121750000Y-106750000D01*
X122250000Y-108000000D01*
X123500000Y-108500000D01*
X124750000Y-108000000D01*
X125250000Y-106750000D01*
X124750000Y-105500000D01*
X123500000Y-105000000D01*
X122250000Y-105500000D01*
X121750000Y-106750000D01*
X99750000Y-106750000D01*
X99250000Y-105500000D01*
X98000000Y-105000000D01*
X96750000Y-105500000D01*
X96250000Y-106750000D01*
X88750500Y-106750000D01*
X88750500Y-100281187D01*
X89299500Y-100281187D01*
X89318685Y-100408462D01*
X89338604Y-100540615D01*
X89338605Y-100540617D01*
X89338606Y-100540623D01*
X89415938Y-100791326D01*
X89529767Y-101027696D01*
X89529768Y-101027697D01*
X89529770Y-101027700D01*
X89529772Y-101027704D01*
X89534249Y-101034270D01*
X89677567Y-101244479D01*
X89856014Y-101436801D01*
X89856018Y-101436804D01*
X89856019Y-101436805D01*
X90061143Y-101600386D01*
X90288357Y-101731568D01*
X90532584Y-101827420D01*
X90788370Y-101885802D01*
X90788376Y-101885802D01*
X90788379Y-101885803D01*
X90950031Y-101897917D01*
X91015412Y-101922556D01*
X91057093Y-101978631D01*
X91061931Y-102047928D01*
X91014804Y-102264566D01*
X90994390Y-102549998D01*
X90994390Y-102550001D01*
X91014804Y-102835433D01*
X91075628Y-103115037D01*
X91175635Y-103383166D01*
X91312770Y-103634309D01*
X91312775Y-103634317D01*
X91484254Y-103863387D01*
X91484270Y-103863405D01*
X91686594Y-104065729D01*
X91686612Y-104065745D01*
X91915682Y-104237224D01*
X91915690Y-104237229D01*
X92166833Y-104374364D01*
X92166832Y-104374364D01*
X92166836Y-104374365D01*
X92166839Y-104374367D01*
X92434954Y-104474369D01*
X92434960Y-104474370D01*
X92434962Y-104474371D01*
X92714566Y-104535195D01*
X92714568Y-104535195D01*
X92714572Y-104535196D01*
X92968220Y-104553337D01*
X92999999Y-104555610D01*
X93000000Y-104555610D01*
X93000001Y-104555610D01*
X93028595Y-104553564D01*
X93285428Y-104535196D01*
X93565046Y-104474369D01*
X93833161Y-104374367D01*
X94084315Y-104237226D01*
X94313395Y-104065739D01*
X94515739Y-103863395D01*
X94687226Y-103634315D01*
X94794677Y-103437534D01*
X105249500Y-103437534D01*
X105279898Y-103609937D01*
X105339775Y-103774446D01*
X105427309Y-103926057D01*
X105539836Y-104060163D01*
X105673942Y-104172690D01*
X105785716Y-104237224D01*
X105825555Y-104260225D01*
X105990062Y-104320101D01*
X106162468Y-104350500D01*
X106162472Y-104350500D01*
X115337528Y-104350500D01*
X115337532Y-104350500D01*
X115509938Y-104320101D01*
X115674445Y-104260225D01*
X115826055Y-104172692D01*
X115960163Y-104060163D01*
X116072692Y-103926055D01*
X116160225Y-103774445D01*
X116220101Y-103609938D01*
X116250500Y-103437532D01*
X116250500Y-103350000D01*
X116250500Y-103284108D01*
X116250500Y-102550001D01*
X126494390Y-102550001D01*
X126514804Y-102835433D01*
X126575628Y-103115037D01*
X126675635Y-103383166D01*
X126812770Y-103634309D01*
X126812775Y-103634317D01*
X126984254Y-103863387D01*
X126984270Y-103863405D01*
X127186594Y-104065729D01*
X127186612Y-104065745D01*
X127415682Y-104237224D01*
X127415690Y-104237229D01*
X127666833Y-104374364D01*
X127666832Y-104374364D01*
X127666836Y-104374365D01*
X127666839Y-104374367D01*
X127934954Y-104474369D01*
X127934960Y-104474370D01*
X127934962Y-104474371D01*
X128214566Y-104535195D01*
X128214568Y-104535195D01*
X128214572Y-104535196D01*
X128468220Y-104553337D01*
X128499999Y-104555610D01*
X128500000Y-104555610D01*
X128500001Y-104555610D01*
X128528595Y-104553564D01*
X128785428Y-104535196D01*
X129065046Y-104474369D01*
X129333161Y-104374367D01*
X129584315Y-104237226D01*
X129813395Y-104065739D01*
X130015739Y-103863395D01*
X130187226Y-103634315D01*
X130324367Y-103383161D01*
X130424369Y-103115046D01*
X130485196Y-102835428D01*
X130505610Y-102550000D01*
X130485196Y-102264572D01*
X130438068Y-102047927D01*
X130443052Y-101978237D01*
X130484923Y-101922303D01*
X130549968Y-101897917D01*
X130711620Y-101885803D01*
X130711622Y-101885802D01*
X130711630Y-101885802D01*
X130967416Y-101827420D01*
X131211643Y-101731568D01*
X131438857Y-101600386D01*
X131643981Y-101436805D01*
X131822433Y-101244479D01*
X131970228Y-101027704D01*
X132084063Y-100791323D01*
X132161396Y-100540615D01*
X132200500Y-100281182D01*
X132200500Y-100018818D01*
X132161396Y-99759385D01*
X132084063Y-99508677D01*
X132072121Y-99483880D01*
X131970232Y-99272303D01*
X131970231Y-99272302D01*
X131970230Y-99272301D01*
X131970228Y-99272296D01*
X131822433Y-99055521D01*
X131812441Y-99044753D01*
X131643985Y-98863198D01*
X131507590Y-98754427D01*
X131438857Y-98699614D01*
X131211643Y-98568432D01*
X130967416Y-98472580D01*
X130967411Y-98472578D01*
X130967402Y-98472576D01*
X130749818Y-98422914D01*
X130711630Y-98414198D01*
X130711629Y-98414197D01*
X130711625Y-98414197D01*
X130711620Y-98414196D01*
X130515515Y-98399500D01*
X130515494Y-98399500D01*
X130384506Y-98399500D01*
X130384484Y-98399500D01*
X130188379Y-98414196D01*
X130188374Y-98414197D01*
X129932597Y-98472576D01*
X129932578Y-98472582D01*
X129688356Y-98568432D01*
X129461143Y-98699614D01*
X129256014Y-98863198D01*
X129077567Y-99055520D01*
X128929768Y-99272302D01*
X128929767Y-99272303D01*
X128815938Y-99508673D01*
X128738606Y-99759376D01*
X128738605Y-99759381D01*
X128738604Y-99759385D01*
X128725021Y-99849500D01*
X128699500Y-100018812D01*
X128699500Y-100281189D01*
X128718684Y-100408463D01*
X128709211Y-100477687D01*
X128663816Y-100530801D01*
X128596912Y-100550941D01*
X128587223Y-100550628D01*
X128500001Y-100544390D01*
X128499999Y-100544390D01*
X128214566Y-100564804D01*
X127934962Y-100625628D01*
X127666833Y-100725635D01*
X127415690Y-100862770D01*
X127415682Y-100862775D01*
X127186612Y-101034254D01*
X127186594Y-101034270D01*
X126984270Y-101236594D01*
X126984254Y-101236612D01*
X126812775Y-101465682D01*
X126812770Y-101465690D01*
X126675635Y-101716833D01*
X126575628Y-101984962D01*
X126514804Y-102264566D01*
X126494390Y-102549998D01*
X126494390Y-102550001D01*
X116250500Y-102550001D01*
X116250500Y-100814201D01*
X116250500Y-100762468D01*
X116220101Y-100590062D01*
X116160225Y-100425555D01*
X116072692Y-100273945D01*
X116072691Y-100273943D01*
X116072690Y-100273942D01*
X115960163Y-100139836D01*
X115826057Y-100027309D01*
X115674446Y-99939775D01*
X115509937Y-99879898D01*
X115337534Y-99849500D01*
X115337532Y-99849500D01*
X115285799Y-99849500D01*
X106315892Y-99849500D01*
X106250000Y-99849500D01*
X106162468Y-99849500D01*
X106162465Y-99849500D01*
X105990062Y-99879898D01*
X105825553Y-99939775D01*
X105673942Y-100027309D01*
X105539836Y-100139836D01*
X105427309Y-100273942D01*
X105339775Y-100425553D01*
X105279898Y-100590062D01*
X105249500Y-100762465D01*
X105249500Y-103437534D01*
X94794677Y-103437534D01*
X94824367Y-103383161D01*
X94924369Y-103115046D01*
X94985196Y-102835428D01*
X95005610Y-102550000D01*
X94985196Y-102264572D01*
X94924369Y-101984954D01*
X94824367Y-101716839D01*
X94744025Y-101569705D01*
X94687229Y-101465690D01*
X94687224Y-101465682D01*
X94515745Y-101236612D01*
X94515729Y-101236594D01*
X94313405Y-101034270D01*
X94313387Y-101034254D01*
X94084317Y-100862775D01*
X94084309Y-100862770D01*
X93833166Y-100725635D01*
X93833167Y-100725635D01*
X93725915Y-100685632D01*
X93565046Y-100625631D01*
X93565043Y-100625630D01*
X93565037Y-100625628D01*
X93285433Y-100564804D01*
X93000001Y-100544390D01*
X92999999Y-100544390D01*
X92912776Y-100550628D01*
X92844503Y-100535776D01*
X92795098Y-100486371D01*
X92780246Y-100418098D01*
X92781315Y-100408462D01*
X92800499Y-100281187D01*
X92800500Y-100281182D01*
X92800500Y-100018817D01*
X92800499Y-100018812D01*
X92761396Y-99759385D01*
X92684063Y-99508677D01*
X92672121Y-99483880D01*
X92570232Y-99272303D01*
X92570231Y-99272302D01*
X92570230Y-99272301D01*
X92570228Y-99272296D01*
X92422433Y-99055521D01*
X92412441Y-99044753D01*
X92243985Y-98863198D01*
X92107590Y-98754427D01*
X92038857Y-98699614D01*
X91811643Y-98568432D01*
X91567416Y-98472580D01*
X91567411Y-98472578D01*
X91567402Y-98472576D01*
X91349818Y-98422914D01*
X91311630Y-98414198D01*
X91311629Y-98414197D01*
X91311625Y-98414197D01*
X91311620Y-98414196D01*
X91115515Y-98399500D01*
X91115494Y-98399500D01*
X90984506Y-98399500D01*
X90984484Y-98399500D01*
X90788379Y-98414196D01*
X90788374Y-98414197D01*
X90532597Y-98472576D01*
X90532578Y-98472582D01*
X90288356Y-98568432D01*
X90061143Y-98699614D01*
X89856014Y-98863198D01*
X89677567Y-99055520D01*
X89529768Y-99272302D01*
X89529767Y-99272303D01*
X89415938Y-99508673D01*
X89338606Y-99759376D01*
X89338605Y-99759381D01*
X89338604Y-99759385D01*
X89325021Y-99849500D01*
X89299500Y-100018812D01*
X89299500Y-100281187D01*
X88750500Y-100281187D01*
X88750500Y-98754427D01*
X88750816Y-98745581D01*
X88765130Y-98545443D01*
X88765131Y-98545442D01*
X88765130Y-98545436D01*
X88767646Y-98527938D01*
X88809356Y-98336199D01*
X88814333Y-98319248D01*
X88882911Y-98135385D01*
X88890259Y-98119298D01*
X88952815Y-98004734D01*
X88984291Y-97947089D01*
X88993845Y-97932221D01*
X89111448Y-97775123D01*
X89123020Y-97761769D01*
X89261769Y-97623020D01*
X89275123Y-97611448D01*
X89432221Y-97493845D01*
X89447089Y-97484291D01*
X89619298Y-97390258D01*
X89635385Y-97382911D01*
X89819248Y-97314333D01*
X89836199Y-97309356D01*
X90027938Y-97267646D01*
X90045436Y-97265130D01*
X90245582Y-97250816D01*
X90254428Y-97250500D01*
X90315892Y-97250500D01*
X131184108Y-97250500D01*
X131245572Y-97250500D01*
X131254418Y-97250816D01*
G37*
%TD.AperFunction*%
%TA.AperFunction,Conductor*%
G36*
X132578851Y-114625298D02*
G01*
X132593059Y-114628553D01*
X132641920Y-114678496D01*
X132656023Y-114746928D01*
X132648625Y-114780061D01*
X132617090Y-114864609D01*
X132609740Y-114880701D01*
X132515711Y-115052904D01*
X132506146Y-115067789D01*
X132388558Y-115224867D01*
X132376972Y-115238237D01*
X132238237Y-115376972D01*
X132224867Y-115388558D01*
X132067789Y-115506146D01*
X132052904Y-115515711D01*
X131880701Y-115609740D01*
X131864609Y-115617090D01*
X131680763Y-115685662D01*
X131663787Y-115690646D01*
X131472068Y-115732351D01*
X131454557Y-115734869D01*
X131273779Y-115747799D01*
X131254417Y-115749184D01*
X131245572Y-115749500D01*
X131203511Y-115749500D01*
X131136472Y-115729815D01*
X131090717Y-115677011D01*
X131080773Y-115607853D01*
X131109798Y-115544297D01*
X131166621Y-115507115D01*
X131426928Y-115426000D01*
X131426943Y-115425994D01*
X131730319Y-115289456D01*
X131730321Y-115289454D01*
X132015030Y-115117343D01*
X132210583Y-114964137D01*
X132210583Y-114964136D01*
X131319882Y-114073435D01*
X131374477Y-114037768D01*
X131557368Y-113869404D01*
X131673610Y-113720057D01*
X132578851Y-114625298D01*
G37*
%TD.AperFunction*%
%TD*%
%TA.AperFunction,Conductor*%
%TO.N,GND*%
G36*
X44942632Y-133369404D02*
G01*
X45125523Y-133537768D01*
X45180116Y-133573435D01*
X44289415Y-134464136D01*
X44289415Y-134464137D01*
X44484960Y-134617337D01*
X44484968Y-134617342D01*
X44769678Y-134789454D01*
X44769680Y-134789456D01*
X45073056Y-134925994D01*
X45073071Y-134926000D01*
X45333379Y-135007115D01*
X45391527Y-135045852D01*
X45419501Y-135109877D01*
X45408419Y-135178863D01*
X45361801Y-135230906D01*
X45296489Y-135249500D01*
X45254428Y-135249500D01*
X45245582Y-135249184D01*
X45223622Y-135247613D01*
X45045442Y-135234869D01*
X45027931Y-135232351D01*
X44836212Y-135190646D01*
X44819236Y-135185662D01*
X44635390Y-135117090D01*
X44619298Y-135109740D01*
X44447095Y-135015711D01*
X44432210Y-135006146D01*
X44275132Y-134888558D01*
X44261762Y-134876972D01*
X44123027Y-134738237D01*
X44111441Y-134724867D01*
X44030949Y-134617343D01*
X43993849Y-134567784D01*
X43984288Y-134552904D01*
X43890259Y-134380701D01*
X43882909Y-134364609D01*
X43851374Y-134280061D01*
X43846390Y-134210369D01*
X43879875Y-134149046D01*
X43918480Y-134127965D01*
X44826389Y-133220056D01*
X44942632Y-133369404D01*
G37*
%TD.AperFunction*%
%TA.AperFunction,Conductor*%
G36*
X86254418Y-116750816D02*
G01*
X86454561Y-116765130D01*
X86472063Y-116767647D01*
X86663797Y-116809355D01*
X86680755Y-116814334D01*
X86864609Y-116882909D01*
X86880701Y-116890259D01*
X87052904Y-116984288D01*
X87067784Y-116993849D01*
X87224867Y-117111441D01*
X87238237Y-117123027D01*
X87376972Y-117261762D01*
X87388558Y-117275132D01*
X87506146Y-117432210D01*
X87515711Y-117447095D01*
X87609740Y-117619298D01*
X87617090Y-117635390D01*
X87685662Y-117819236D01*
X87690646Y-117836212D01*
X87732351Y-118027931D01*
X87734869Y-118045442D01*
X87749184Y-118245580D01*
X87749500Y-118254427D01*
X87749500Y-130468900D01*
X87729815Y-130535939D01*
X87677011Y-130581694D01*
X87618014Y-130592674D01*
X87564136Y-130589415D01*
X86673609Y-131479942D01*
X86557368Y-131330596D01*
X86374477Y-131162232D01*
X86319882Y-131126563D01*
X87210583Y-130235862D01*
X87210583Y-130235861D01*
X87015039Y-130082662D01*
X87015031Y-130082657D01*
X86730321Y-129910545D01*
X86730319Y-129910543D01*
X86426943Y-129774005D01*
X86426928Y-129773999D01*
X86109329Y-129675032D01*
X85782076Y-129615060D01*
X85450000Y-129594974D01*
X85117923Y-129615060D01*
X84790670Y-129675032D01*
X84473071Y-129773999D01*
X84473056Y-129774005D01*
X84169680Y-129910543D01*
X84169678Y-129910545D01*
X83884968Y-130082657D01*
X83689415Y-130235862D01*
X84580117Y-131126564D01*
X84525523Y-131162232D01*
X84342632Y-131330596D01*
X84226389Y-131479942D01*
X83335862Y-130589415D01*
X83182657Y-130784968D01*
X83010545Y-131069678D01*
X83010543Y-131069680D01*
X82874005Y-131373056D01*
X82873999Y-131373071D01*
X82775032Y-131690670D01*
X82715060Y-132017923D01*
X82694974Y-132350000D01*
X82715060Y-132682076D01*
X82775032Y-133009329D01*
X82873999Y-133326928D01*
X82874005Y-133326943D01*
X83010543Y-133630319D01*
X83010545Y-133630321D01*
X83182657Y-133915031D01*
X83182662Y-133915039D01*
X83335862Y-134110583D01*
X84226389Y-133220056D01*
X84342632Y-133369404D01*
X84525523Y-133537768D01*
X84580116Y-133573435D01*
X83689415Y-134464136D01*
X83689415Y-134464137D01*
X83884960Y-134617337D01*
X83884968Y-134617342D01*
X84169678Y-134789454D01*
X84169680Y-134789456D01*
X84473056Y-134925994D01*
X84473071Y-134926000D01*
X84733379Y-135007115D01*
X84791527Y-135045852D01*
X84819501Y-135109877D01*
X84808419Y-135178863D01*
X84761801Y-135230906D01*
X84696489Y-135249500D01*
X46803511Y-135249500D01*
X46736472Y-135229815D01*
X46690717Y-135177011D01*
X46680773Y-135107853D01*
X46709798Y-135044297D01*
X46766621Y-135007115D01*
X47026928Y-134926000D01*
X47026943Y-134925994D01*
X47330319Y-134789456D01*
X47330321Y-134789454D01*
X47615030Y-134617343D01*
X47810583Y-134464137D01*
X47810583Y-134464136D01*
X46919882Y-133573435D01*
X46974477Y-133537768D01*
X47157368Y-133369404D01*
X47273610Y-133220057D01*
X48164136Y-134110583D01*
X48164137Y-134110583D01*
X48317343Y-133915030D01*
X48489454Y-133630321D01*
X48489456Y-133630319D01*
X48625994Y-133326943D01*
X48626000Y-133326928D01*
X48724967Y-133009329D01*
X48784939Y-132682076D01*
X48805025Y-132350000D01*
X48784939Y-132017923D01*
X48724967Y-131690670D01*
X48626000Y-131373071D01*
X48625994Y-131373056D01*
X48489456Y-131069680D01*
X48489454Y-131069678D01*
X48317342Y-130784968D01*
X48317337Y-130784960D01*
X48164136Y-130589415D01*
X47273609Y-131479942D01*
X47157368Y-131330596D01*
X46974477Y-131162232D01*
X46919882Y-131126563D01*
X47810583Y-130235862D01*
X47810583Y-130235861D01*
X47615039Y-130082662D01*
X47615031Y-130082657D01*
X47330321Y-129910545D01*
X47330319Y-129910543D01*
X47026943Y-129774005D01*
X47026928Y-129773999D01*
X46709329Y-129675032D01*
X46382076Y-129615060D01*
X46050000Y-129594974D01*
X45717923Y-129615060D01*
X45390670Y-129675032D01*
X45073071Y-129773999D01*
X45073056Y-129774005D01*
X44769680Y-129910543D01*
X44769678Y-129910545D01*
X44484968Y-130082657D01*
X44289415Y-130235862D01*
X45180117Y-131126564D01*
X45125523Y-131162232D01*
X44942632Y-131330596D01*
X44826389Y-131479942D01*
X43935862Y-130589415D01*
X43881986Y-130592674D01*
X43813881Y-130577073D01*
X43765021Y-130527127D01*
X43750500Y-130468900D01*
X43750500Y-126250000D01*
X51250000Y-126250000D01*
X51750000Y-127500000D01*
X53000000Y-128000000D01*
X54250000Y-127500000D01*
X54750000Y-126250000D01*
X76750000Y-126250000D01*
X77250000Y-127500000D01*
X78500000Y-128000000D01*
X79750000Y-127500000D01*
X80250000Y-126250000D01*
X79750000Y-125000000D01*
X78500000Y-124500000D01*
X77250000Y-125000000D01*
X76750000Y-126250000D01*
X54750000Y-126250000D01*
X54250000Y-125000000D01*
X53000000Y-124500000D01*
X51750000Y-125000000D01*
X51250000Y-126250000D01*
X43750500Y-126250000D01*
X43750500Y-119781187D01*
X44299500Y-119781187D01*
X44318685Y-119908462D01*
X44338604Y-120040615D01*
X44338605Y-120040617D01*
X44338606Y-120040623D01*
X44415938Y-120291326D01*
X44529767Y-120527696D01*
X44529768Y-120527697D01*
X44529770Y-120527700D01*
X44529772Y-120527704D01*
X44534249Y-120534270D01*
X44677567Y-120744479D01*
X44856014Y-120936801D01*
X44856018Y-120936804D01*
X44856019Y-120936805D01*
X45061143Y-121100386D01*
X45288357Y-121231568D01*
X45532584Y-121327420D01*
X45788370Y-121385802D01*
X45788376Y-121385802D01*
X45788379Y-121385803D01*
X45950031Y-121397917D01*
X46015412Y-121422556D01*
X46057093Y-121478631D01*
X46061931Y-121547928D01*
X46014804Y-121764566D01*
X45994390Y-122049998D01*
X45994390Y-122050001D01*
X46014804Y-122335433D01*
X46075628Y-122615037D01*
X46175635Y-122883166D01*
X46312770Y-123134309D01*
X46312775Y-123134317D01*
X46484254Y-123363387D01*
X46484270Y-123363405D01*
X46686594Y-123565729D01*
X46686612Y-123565745D01*
X46915682Y-123737224D01*
X46915690Y-123737229D01*
X47166833Y-123874364D01*
X47166832Y-123874364D01*
X47166836Y-123874365D01*
X47166839Y-123874367D01*
X47434954Y-123974369D01*
X47434960Y-123974370D01*
X47434962Y-123974371D01*
X47714566Y-124035195D01*
X47714568Y-124035195D01*
X47714572Y-124035196D01*
X47968220Y-124053337D01*
X47999999Y-124055610D01*
X48000000Y-124055610D01*
X48000001Y-124055610D01*
X48028595Y-124053564D01*
X48285428Y-124035196D01*
X48565046Y-123974369D01*
X48833161Y-123874367D01*
X49084315Y-123737226D01*
X49313395Y-123565739D01*
X49515739Y-123363395D01*
X49687226Y-123134315D01*
X49794677Y-122937534D01*
X60249500Y-122937534D01*
X60279898Y-123109937D01*
X60339775Y-123274446D01*
X60427309Y-123426057D01*
X60539836Y-123560163D01*
X60673942Y-123672690D01*
X60785716Y-123737224D01*
X60825555Y-123760225D01*
X60990062Y-123820101D01*
X61162468Y-123850500D01*
X61162472Y-123850500D01*
X70337528Y-123850500D01*
X70337532Y-123850500D01*
X70509938Y-123820101D01*
X70674445Y-123760225D01*
X70826055Y-123672692D01*
X70960163Y-123560163D01*
X71072692Y-123426055D01*
X71160225Y-123274445D01*
X71220101Y-123109938D01*
X71250500Y-122937532D01*
X71250500Y-122850000D01*
X71250500Y-122784108D01*
X71250500Y-122050001D01*
X81494390Y-122050001D01*
X81514804Y-122335433D01*
X81575628Y-122615037D01*
X81675635Y-122883166D01*
X81812770Y-123134309D01*
X81812775Y-123134317D01*
X81984254Y-123363387D01*
X81984270Y-123363405D01*
X82186594Y-123565729D01*
X82186612Y-123565745D01*
X82415682Y-123737224D01*
X82415690Y-123737229D01*
X82666833Y-123874364D01*
X82666832Y-123874364D01*
X82666836Y-123874365D01*
X82666839Y-123874367D01*
X82934954Y-123974369D01*
X82934960Y-123974370D01*
X82934962Y-123974371D01*
X83214566Y-124035195D01*
X83214568Y-124035195D01*
X83214572Y-124035196D01*
X83468220Y-124053337D01*
X83499999Y-124055610D01*
X83500000Y-124055610D01*
X83500001Y-124055610D01*
X83528595Y-124053564D01*
X83785428Y-124035196D01*
X84065046Y-123974369D01*
X84333161Y-123874367D01*
X84584315Y-123737226D01*
X84813395Y-123565739D01*
X85015739Y-123363395D01*
X85187226Y-123134315D01*
X85324367Y-122883161D01*
X85424369Y-122615046D01*
X85485196Y-122335428D01*
X85505610Y-122050000D01*
X85485196Y-121764572D01*
X85438068Y-121547927D01*
X85443052Y-121478237D01*
X85484923Y-121422303D01*
X85549968Y-121397917D01*
X85711620Y-121385803D01*
X85711622Y-121385802D01*
X85711630Y-121385802D01*
X85967416Y-121327420D01*
X86211643Y-121231568D01*
X86438857Y-121100386D01*
X86643981Y-120936805D01*
X86822433Y-120744479D01*
X86970228Y-120527704D01*
X87084063Y-120291323D01*
X87161396Y-120040615D01*
X87200500Y-119781182D01*
X87200500Y-119518818D01*
X87161396Y-119259385D01*
X87084063Y-119008677D01*
X87072121Y-118983880D01*
X86970232Y-118772303D01*
X86970231Y-118772302D01*
X86970230Y-118772301D01*
X86970228Y-118772296D01*
X86822433Y-118555521D01*
X86812441Y-118544753D01*
X86643985Y-118363198D01*
X86507590Y-118254427D01*
X86438857Y-118199614D01*
X86211643Y-118068432D01*
X85967416Y-117972580D01*
X85967411Y-117972578D01*
X85967402Y-117972576D01*
X85749818Y-117922914D01*
X85711630Y-117914198D01*
X85711629Y-117914197D01*
X85711625Y-117914197D01*
X85711620Y-117914196D01*
X85515515Y-117899500D01*
X85515494Y-117899500D01*
X85384506Y-117899500D01*
X85384484Y-117899500D01*
X85188379Y-117914196D01*
X85188374Y-117914197D01*
X84932597Y-117972576D01*
X84932578Y-117972582D01*
X84688356Y-118068432D01*
X84461143Y-118199614D01*
X84256014Y-118363198D01*
X84077567Y-118555520D01*
X83929768Y-118772302D01*
X83929767Y-118772303D01*
X83815938Y-119008673D01*
X83738606Y-119259376D01*
X83738605Y-119259381D01*
X83738604Y-119259385D01*
X83725021Y-119349500D01*
X83699500Y-119518812D01*
X83699500Y-119781189D01*
X83718684Y-119908463D01*
X83709211Y-119977687D01*
X83663816Y-120030801D01*
X83596912Y-120050941D01*
X83587223Y-120050628D01*
X83500001Y-120044390D01*
X83499999Y-120044390D01*
X83214566Y-120064804D01*
X82934962Y-120125628D01*
X82666833Y-120225635D01*
X82415690Y-120362770D01*
X82415682Y-120362775D01*
X82186612Y-120534254D01*
X82186594Y-120534270D01*
X81984270Y-120736594D01*
X81984254Y-120736612D01*
X81812775Y-120965682D01*
X81812770Y-120965690D01*
X81675635Y-121216833D01*
X81575628Y-121484962D01*
X81514804Y-121764566D01*
X81494390Y-122049998D01*
X81494390Y-122050001D01*
X71250500Y-122050001D01*
X71250500Y-120314201D01*
X71250500Y-120262468D01*
X71220101Y-120090062D01*
X71160225Y-119925555D01*
X71072692Y-119773945D01*
X71072691Y-119773943D01*
X71072690Y-119773942D01*
X70960163Y-119639836D01*
X70826057Y-119527309D01*
X70674446Y-119439775D01*
X70509937Y-119379898D01*
X70337534Y-119349500D01*
X70337532Y-119349500D01*
X70285799Y-119349500D01*
X61315892Y-119349500D01*
X61250000Y-119349500D01*
X61162468Y-119349500D01*
X61162465Y-119349500D01*
X60990062Y-119379898D01*
X60825553Y-119439775D01*
X60673942Y-119527309D01*
X60539836Y-119639836D01*
X60427309Y-119773942D01*
X60339775Y-119925553D01*
X60279898Y-120090062D01*
X60249500Y-120262465D01*
X60249500Y-122937534D01*
X49794677Y-122937534D01*
X49824367Y-122883161D01*
X49924369Y-122615046D01*
X49985196Y-122335428D01*
X50005610Y-122050000D01*
X49985196Y-121764572D01*
X49924369Y-121484954D01*
X49824367Y-121216839D01*
X49744025Y-121069705D01*
X49687229Y-120965690D01*
X49687224Y-120965682D01*
X49515745Y-120736612D01*
X49515729Y-120736594D01*
X49313405Y-120534270D01*
X49313387Y-120534254D01*
X49084317Y-120362775D01*
X49084309Y-120362770D01*
X48833166Y-120225635D01*
X48833167Y-120225635D01*
X48725915Y-120185632D01*
X48565046Y-120125631D01*
X48565043Y-120125630D01*
X48565037Y-120125628D01*
X48285433Y-120064804D01*
X48000001Y-120044390D01*
X47999999Y-120044390D01*
X47912776Y-120050628D01*
X47844503Y-120035776D01*
X47795098Y-119986371D01*
X47780246Y-119918098D01*
X47781315Y-119908462D01*
X47800499Y-119781187D01*
X47800500Y-119781182D01*
X47800500Y-119518817D01*
X47800499Y-119518812D01*
X47761396Y-119259385D01*
X47684063Y-119008677D01*
X47672121Y-118983880D01*
X47570232Y-118772303D01*
X47570231Y-118772302D01*
X47570230Y-118772301D01*
X47570228Y-118772296D01*
X47422433Y-118555521D01*
X47412441Y-118544753D01*
X47243985Y-118363198D01*
X47107590Y-118254427D01*
X47038857Y-118199614D01*
X46811643Y-118068432D01*
X46567416Y-117972580D01*
X46567411Y-117972578D01*
X46567402Y-117972576D01*
X46349818Y-117922914D01*
X46311630Y-117914198D01*
X46311629Y-117914197D01*
X46311625Y-117914197D01*
X46311620Y-117914196D01*
X46115515Y-117899500D01*
X46115494Y-117899500D01*
X45984506Y-117899500D01*
X45984484Y-117899500D01*
X45788379Y-117914196D01*
X45788374Y-117914197D01*
X45532597Y-117972576D01*
X45532578Y-117972582D01*
X45288356Y-118068432D01*
X45061143Y-118199614D01*
X44856014Y-118363198D01*
X44677567Y-118555520D01*
X44529768Y-118772302D01*
X44529767Y-118772303D01*
X44415938Y-119008673D01*
X44338606Y-119259376D01*
X44338605Y-119259381D01*
X44338604Y-119259385D01*
X44325021Y-119349500D01*
X44299500Y-119518812D01*
X44299500Y-119781187D01*
X43750500Y-119781187D01*
X43750500Y-118254427D01*
X43750816Y-118245581D01*
X43765130Y-118045443D01*
X43765131Y-118045442D01*
X43765130Y-118045436D01*
X43767646Y-118027938D01*
X43809356Y-117836199D01*
X43814333Y-117819248D01*
X43882911Y-117635385D01*
X43890259Y-117619298D01*
X43952815Y-117504734D01*
X43984291Y-117447089D01*
X43993845Y-117432221D01*
X44111448Y-117275123D01*
X44123020Y-117261769D01*
X44261769Y-117123020D01*
X44275123Y-117111448D01*
X44432221Y-116993845D01*
X44447089Y-116984291D01*
X44619298Y-116890258D01*
X44635385Y-116882911D01*
X44819248Y-116814333D01*
X44836199Y-116809356D01*
X45027938Y-116767646D01*
X45045436Y-116765130D01*
X45245582Y-116750816D01*
X45254428Y-116750500D01*
X45315892Y-116750500D01*
X86184108Y-116750500D01*
X86245572Y-116750500D01*
X86254418Y-116750816D01*
G37*
%TD.AperFunction*%
%TA.AperFunction,Conductor*%
G36*
X87578851Y-134125298D02*
G01*
X87593059Y-134128553D01*
X87641920Y-134178496D01*
X87656023Y-134246928D01*
X87648625Y-134280061D01*
X87617090Y-134364609D01*
X87609740Y-134380701D01*
X87515711Y-134552904D01*
X87506146Y-134567789D01*
X87388558Y-134724867D01*
X87376972Y-134738237D01*
X87238237Y-134876972D01*
X87224867Y-134888558D01*
X87067789Y-135006146D01*
X87052904Y-135015711D01*
X86880701Y-135109740D01*
X86864609Y-135117090D01*
X86680763Y-135185662D01*
X86663787Y-135190646D01*
X86472068Y-135232351D01*
X86454557Y-135234869D01*
X86273779Y-135247799D01*
X86254417Y-135249184D01*
X86245572Y-135249500D01*
X86203511Y-135249500D01*
X86136472Y-135229815D01*
X86090717Y-135177011D01*
X86080773Y-135107853D01*
X86109798Y-135044297D01*
X86166621Y-135007115D01*
X86426928Y-134926000D01*
X86426943Y-134925994D01*
X86730319Y-134789456D01*
X86730321Y-134789454D01*
X87015030Y-134617343D01*
X87210583Y-134464137D01*
X87210583Y-134464136D01*
X86319882Y-133573435D01*
X86374477Y-133537768D01*
X86557368Y-133369404D01*
X86673610Y-133220057D01*
X87578851Y-134125298D01*
G37*
%TD.AperFunction*%
%TD*%
%TA.AperFunction,Conductor*%
%TO.N,GND*%
G36*
X89942632Y-133369404D02*
G01*
X90125523Y-133537768D01*
X90180116Y-133573435D01*
X89289415Y-134464136D01*
X89289415Y-134464137D01*
X89484960Y-134617337D01*
X89484968Y-134617342D01*
X89769678Y-134789454D01*
X89769680Y-134789456D01*
X90073056Y-134925994D01*
X90073071Y-134926000D01*
X90333379Y-135007115D01*
X90391527Y-135045852D01*
X90419501Y-135109877D01*
X90408419Y-135178863D01*
X90361801Y-135230906D01*
X90296489Y-135249500D01*
X90254428Y-135249500D01*
X90245582Y-135249184D01*
X90223622Y-135247613D01*
X90045442Y-135234869D01*
X90027931Y-135232351D01*
X89836212Y-135190646D01*
X89819236Y-135185662D01*
X89635390Y-135117090D01*
X89619298Y-135109740D01*
X89447095Y-135015711D01*
X89432210Y-135006146D01*
X89275132Y-134888558D01*
X89261762Y-134876972D01*
X89123027Y-134738237D01*
X89111441Y-134724867D01*
X89030949Y-134617343D01*
X88993849Y-134567784D01*
X88984288Y-134552904D01*
X88890259Y-134380701D01*
X88882909Y-134364609D01*
X88851374Y-134280061D01*
X88846390Y-134210369D01*
X88879875Y-134149046D01*
X88918480Y-134127965D01*
X89826389Y-133220056D01*
X89942632Y-133369404D01*
G37*
%TD.AperFunction*%
%TA.AperFunction,Conductor*%
G36*
X131254418Y-116750816D02*
G01*
X131454561Y-116765130D01*
X131472063Y-116767647D01*
X131663797Y-116809355D01*
X131680755Y-116814334D01*
X131864609Y-116882909D01*
X131880701Y-116890259D01*
X132052904Y-116984288D01*
X132067784Y-116993849D01*
X132224867Y-117111441D01*
X132238237Y-117123027D01*
X132376972Y-117261762D01*
X132388558Y-117275132D01*
X132506146Y-117432210D01*
X132515711Y-117447095D01*
X132609740Y-117619298D01*
X132617090Y-117635390D01*
X132685662Y-117819236D01*
X132690646Y-117836212D01*
X132732351Y-118027931D01*
X132734869Y-118045442D01*
X132749184Y-118245580D01*
X132749500Y-118254427D01*
X132749500Y-130468900D01*
X132729815Y-130535939D01*
X132677011Y-130581694D01*
X132618014Y-130592674D01*
X132564136Y-130589415D01*
X131673609Y-131479942D01*
X131557368Y-131330596D01*
X131374477Y-131162232D01*
X131319882Y-131126563D01*
X132210583Y-130235862D01*
X132210583Y-130235861D01*
X132015039Y-130082662D01*
X132015031Y-130082657D01*
X131730321Y-129910545D01*
X131730319Y-129910543D01*
X131426943Y-129774005D01*
X131426928Y-129773999D01*
X131109329Y-129675032D01*
X130782076Y-129615060D01*
X130450000Y-129594974D01*
X130117923Y-129615060D01*
X129790670Y-129675032D01*
X129473071Y-129773999D01*
X129473056Y-129774005D01*
X129169680Y-129910543D01*
X129169678Y-129910545D01*
X128884968Y-130082657D01*
X128689415Y-130235862D01*
X129580117Y-131126564D01*
X129525523Y-131162232D01*
X129342632Y-131330596D01*
X129226389Y-131479942D01*
X128335862Y-130589415D01*
X128182657Y-130784968D01*
X128010545Y-131069678D01*
X128010543Y-131069680D01*
X127874005Y-131373056D01*
X127873999Y-131373071D01*
X127775032Y-131690670D01*
X127715060Y-132017923D01*
X127694974Y-132350000D01*
X127715060Y-132682076D01*
X127775032Y-133009329D01*
X127873999Y-133326928D01*
X127874005Y-133326943D01*
X128010543Y-133630319D01*
X128010545Y-133630321D01*
X128182657Y-133915031D01*
X128182662Y-133915039D01*
X128335862Y-134110583D01*
X129226389Y-133220056D01*
X129342632Y-133369404D01*
X129525523Y-133537768D01*
X129580116Y-133573435D01*
X128689415Y-134464136D01*
X128689415Y-134464137D01*
X128884960Y-134617337D01*
X128884968Y-134617342D01*
X129169678Y-134789454D01*
X129169680Y-134789456D01*
X129473056Y-134925994D01*
X129473071Y-134926000D01*
X129733379Y-135007115D01*
X129791527Y-135045852D01*
X129819501Y-135109877D01*
X129808419Y-135178863D01*
X129761801Y-135230906D01*
X129696489Y-135249500D01*
X91803511Y-135249500D01*
X91736472Y-135229815D01*
X91690717Y-135177011D01*
X91680773Y-135107853D01*
X91709798Y-135044297D01*
X91766621Y-135007115D01*
X92026928Y-134926000D01*
X92026943Y-134925994D01*
X92330319Y-134789456D01*
X92330321Y-134789454D01*
X92615030Y-134617343D01*
X92810583Y-134464137D01*
X92810583Y-134464136D01*
X91919882Y-133573435D01*
X91974477Y-133537768D01*
X92157368Y-133369404D01*
X92273610Y-133220057D01*
X93164136Y-134110583D01*
X93164137Y-134110583D01*
X93317343Y-133915030D01*
X93489454Y-133630321D01*
X93489456Y-133630319D01*
X93625994Y-133326943D01*
X93626000Y-133326928D01*
X93724967Y-133009329D01*
X93784939Y-132682076D01*
X93805025Y-132350000D01*
X93784939Y-132017923D01*
X93724967Y-131690670D01*
X93626000Y-131373071D01*
X93625994Y-131373056D01*
X93489456Y-131069680D01*
X93489454Y-131069678D01*
X93317342Y-130784968D01*
X93317337Y-130784960D01*
X93164136Y-130589415D01*
X92273609Y-131479942D01*
X92157368Y-131330596D01*
X91974477Y-131162232D01*
X91919882Y-131126563D01*
X92810583Y-130235862D01*
X92810583Y-130235861D01*
X92615039Y-130082662D01*
X92615031Y-130082657D01*
X92330321Y-129910545D01*
X92330319Y-129910543D01*
X92026943Y-129774005D01*
X92026928Y-129773999D01*
X91709329Y-129675032D01*
X91382076Y-129615060D01*
X91050000Y-129594974D01*
X90717923Y-129615060D01*
X90390670Y-129675032D01*
X90073071Y-129773999D01*
X90073056Y-129774005D01*
X89769680Y-129910543D01*
X89769678Y-129910545D01*
X89484968Y-130082657D01*
X89289415Y-130235862D01*
X90180117Y-131126564D01*
X90125523Y-131162232D01*
X89942632Y-131330596D01*
X89826389Y-131479942D01*
X88935862Y-130589415D01*
X88881986Y-130592674D01*
X88813881Y-130577073D01*
X88765021Y-130527127D01*
X88750500Y-130468900D01*
X88750500Y-126250000D01*
X96250000Y-126250000D01*
X96750000Y-127500000D01*
X98000000Y-128000000D01*
X99250000Y-127500000D01*
X99750000Y-126250000D01*
X121750000Y-126250000D01*
X122250000Y-127500000D01*
X123500000Y-128000000D01*
X124750000Y-127500000D01*
X125250000Y-126250000D01*
X124750000Y-125000000D01*
X123500000Y-124500000D01*
X122250000Y-125000000D01*
X121750000Y-126250000D01*
X99750000Y-126250000D01*
X99250000Y-125000000D01*
X98000000Y-124500000D01*
X96750000Y-125000000D01*
X96250000Y-126250000D01*
X88750500Y-126250000D01*
X88750500Y-119781187D01*
X89299500Y-119781187D01*
X89318685Y-119908462D01*
X89338604Y-120040615D01*
X89338605Y-120040617D01*
X89338606Y-120040623D01*
X89415938Y-120291326D01*
X89529767Y-120527696D01*
X89529768Y-120527697D01*
X89529770Y-120527700D01*
X89529772Y-120527704D01*
X89534249Y-120534270D01*
X89677567Y-120744479D01*
X89856014Y-120936801D01*
X89856018Y-120936804D01*
X89856019Y-120936805D01*
X90061143Y-121100386D01*
X90288357Y-121231568D01*
X90532584Y-121327420D01*
X90788370Y-121385802D01*
X90788376Y-121385802D01*
X90788379Y-121385803D01*
X90950031Y-121397917D01*
X91015412Y-121422556D01*
X91057093Y-121478631D01*
X91061931Y-121547928D01*
X91014804Y-121764566D01*
X90994390Y-122049998D01*
X90994390Y-122050001D01*
X91014804Y-122335433D01*
X91075628Y-122615037D01*
X91175635Y-122883166D01*
X91312770Y-123134309D01*
X91312775Y-123134317D01*
X91484254Y-123363387D01*
X91484270Y-123363405D01*
X91686594Y-123565729D01*
X91686612Y-123565745D01*
X91915682Y-123737224D01*
X91915690Y-123737229D01*
X92166833Y-123874364D01*
X92166832Y-123874364D01*
X92166836Y-123874365D01*
X92166839Y-123874367D01*
X92434954Y-123974369D01*
X92434960Y-123974370D01*
X92434962Y-123974371D01*
X92714566Y-124035195D01*
X92714568Y-124035195D01*
X92714572Y-124035196D01*
X92968220Y-124053337D01*
X92999999Y-124055610D01*
X93000000Y-124055610D01*
X93000001Y-124055610D01*
X93028595Y-124053564D01*
X93285428Y-124035196D01*
X93565046Y-123974369D01*
X93833161Y-123874367D01*
X94084315Y-123737226D01*
X94313395Y-123565739D01*
X94515739Y-123363395D01*
X94687226Y-123134315D01*
X94794677Y-122937534D01*
X105249500Y-122937534D01*
X105279898Y-123109937D01*
X105339775Y-123274446D01*
X105427309Y-123426057D01*
X105539836Y-123560163D01*
X105673942Y-123672690D01*
X105785716Y-123737224D01*
X105825555Y-123760225D01*
X105990062Y-123820101D01*
X106162468Y-123850500D01*
X106162472Y-123850500D01*
X115337528Y-123850500D01*
X115337532Y-123850500D01*
X115509938Y-123820101D01*
X115674445Y-123760225D01*
X115826055Y-123672692D01*
X115960163Y-123560163D01*
X116072692Y-123426055D01*
X116160225Y-123274445D01*
X116220101Y-123109938D01*
X116250500Y-122937532D01*
X116250500Y-122850000D01*
X116250500Y-122784108D01*
X116250500Y-122050001D01*
X126494390Y-122050001D01*
X126514804Y-122335433D01*
X126575628Y-122615037D01*
X126675635Y-122883166D01*
X126812770Y-123134309D01*
X126812775Y-123134317D01*
X126984254Y-123363387D01*
X126984270Y-123363405D01*
X127186594Y-123565729D01*
X127186612Y-123565745D01*
X127415682Y-123737224D01*
X127415690Y-123737229D01*
X127666833Y-123874364D01*
X127666832Y-123874364D01*
X127666836Y-123874365D01*
X127666839Y-123874367D01*
X127934954Y-123974369D01*
X127934960Y-123974370D01*
X127934962Y-123974371D01*
X128214566Y-124035195D01*
X128214568Y-124035195D01*
X128214572Y-124035196D01*
X128468220Y-124053337D01*
X128499999Y-124055610D01*
X128500000Y-124055610D01*
X128500001Y-124055610D01*
X128528595Y-124053564D01*
X128785428Y-124035196D01*
X129065046Y-123974369D01*
X129333161Y-123874367D01*
X129584315Y-123737226D01*
X129813395Y-123565739D01*
X130015739Y-123363395D01*
X130187226Y-123134315D01*
X130324367Y-122883161D01*
X130424369Y-122615046D01*
X130485196Y-122335428D01*
X130505610Y-122050000D01*
X130485196Y-121764572D01*
X130438068Y-121547927D01*
X130443052Y-121478237D01*
X130484923Y-121422303D01*
X130549968Y-121397917D01*
X130711620Y-121385803D01*
X130711622Y-121385802D01*
X130711630Y-121385802D01*
X130967416Y-121327420D01*
X131211643Y-121231568D01*
X131438857Y-121100386D01*
X131643981Y-120936805D01*
X131822433Y-120744479D01*
X131970228Y-120527704D01*
X132084063Y-120291323D01*
X132161396Y-120040615D01*
X132200500Y-119781182D01*
X132200500Y-119518818D01*
X132161396Y-119259385D01*
X132084063Y-119008677D01*
X132072121Y-118983880D01*
X131970232Y-118772303D01*
X131970231Y-118772302D01*
X131970230Y-118772301D01*
X131970228Y-118772296D01*
X131822433Y-118555521D01*
X131812441Y-118544753D01*
X131643985Y-118363198D01*
X131507590Y-118254427D01*
X131438857Y-118199614D01*
X131211643Y-118068432D01*
X130967416Y-117972580D01*
X130967411Y-117972578D01*
X130967402Y-117972576D01*
X130749818Y-117922914D01*
X130711630Y-117914198D01*
X130711629Y-117914197D01*
X130711625Y-117914197D01*
X130711620Y-117914196D01*
X130515515Y-117899500D01*
X130515494Y-117899500D01*
X130384506Y-117899500D01*
X130384484Y-117899500D01*
X130188379Y-117914196D01*
X130188374Y-117914197D01*
X129932597Y-117972576D01*
X129932578Y-117972582D01*
X129688356Y-118068432D01*
X129461143Y-118199614D01*
X129256014Y-118363198D01*
X129077567Y-118555520D01*
X128929768Y-118772302D01*
X128929767Y-118772303D01*
X128815938Y-119008673D01*
X128738606Y-119259376D01*
X128738605Y-119259381D01*
X128738604Y-119259385D01*
X128725021Y-119349500D01*
X128699500Y-119518812D01*
X128699500Y-119781189D01*
X128718684Y-119908463D01*
X128709211Y-119977687D01*
X128663816Y-120030801D01*
X128596912Y-120050941D01*
X128587223Y-120050628D01*
X128500001Y-120044390D01*
X128499999Y-120044390D01*
X128214566Y-120064804D01*
X127934962Y-120125628D01*
X127666833Y-120225635D01*
X127415690Y-120362770D01*
X127415682Y-120362775D01*
X127186612Y-120534254D01*
X127186594Y-120534270D01*
X126984270Y-120736594D01*
X126984254Y-120736612D01*
X126812775Y-120965682D01*
X126812770Y-120965690D01*
X126675635Y-121216833D01*
X126575628Y-121484962D01*
X126514804Y-121764566D01*
X126494390Y-122049998D01*
X126494390Y-122050001D01*
X116250500Y-122050001D01*
X116250500Y-120314201D01*
X116250500Y-120262468D01*
X116220101Y-120090062D01*
X116160225Y-119925555D01*
X116072692Y-119773945D01*
X116072691Y-119773943D01*
X116072690Y-119773942D01*
X115960163Y-119639836D01*
X115826057Y-119527309D01*
X115674446Y-119439775D01*
X115509937Y-119379898D01*
X115337534Y-119349500D01*
X115337532Y-119349500D01*
X115285799Y-119349500D01*
X106315892Y-119349500D01*
X106250000Y-119349500D01*
X106162468Y-119349500D01*
X106162465Y-119349500D01*
X105990062Y-119379898D01*
X105825553Y-119439775D01*
X105673942Y-119527309D01*
X105539836Y-119639836D01*
X105427309Y-119773942D01*
X105339775Y-119925553D01*
X105279898Y-120090062D01*
X105249500Y-120262465D01*
X105249500Y-122937534D01*
X94794677Y-122937534D01*
X94824367Y-122883161D01*
X94924369Y-122615046D01*
X94985196Y-122335428D01*
X95005610Y-122050000D01*
X94985196Y-121764572D01*
X94924369Y-121484954D01*
X94824367Y-121216839D01*
X94744025Y-121069705D01*
X94687229Y-120965690D01*
X94687224Y-120965682D01*
X94515745Y-120736612D01*
X94515729Y-120736594D01*
X94313405Y-120534270D01*
X94313387Y-120534254D01*
X94084317Y-120362775D01*
X94084309Y-120362770D01*
X93833166Y-120225635D01*
X93833167Y-120225635D01*
X93725915Y-120185632D01*
X93565046Y-120125631D01*
X93565043Y-120125630D01*
X93565037Y-120125628D01*
X93285433Y-120064804D01*
X93000001Y-120044390D01*
X92999999Y-120044390D01*
X92912776Y-120050628D01*
X92844503Y-120035776D01*
X92795098Y-119986371D01*
X92780246Y-119918098D01*
X92781315Y-119908462D01*
X92800499Y-119781187D01*
X92800500Y-119781182D01*
X92800500Y-119518817D01*
X92800499Y-119518812D01*
X92761396Y-119259385D01*
X92684063Y-119008677D01*
X92672121Y-118983880D01*
X92570232Y-118772303D01*
X92570231Y-118772302D01*
X92570230Y-118772301D01*
X92570228Y-118772296D01*
X92422433Y-118555521D01*
X92412441Y-118544753D01*
X92243985Y-118363198D01*
X92107590Y-118254427D01*
X92038857Y-118199614D01*
X91811643Y-118068432D01*
X91567416Y-117972580D01*
X91567411Y-117972578D01*
X91567402Y-117972576D01*
X91349818Y-117922914D01*
X91311630Y-117914198D01*
X91311629Y-117914197D01*
X91311625Y-117914197D01*
X91311620Y-117914196D01*
X91115515Y-117899500D01*
X91115494Y-117899500D01*
X90984506Y-117899500D01*
X90984484Y-117899500D01*
X90788379Y-117914196D01*
X90788374Y-117914197D01*
X90532597Y-117972576D01*
X90532578Y-117972582D01*
X90288356Y-118068432D01*
X90061143Y-118199614D01*
X89856014Y-118363198D01*
X89677567Y-118555520D01*
X89529768Y-118772302D01*
X89529767Y-118772303D01*
X89415938Y-119008673D01*
X89338606Y-119259376D01*
X89338605Y-119259381D01*
X89338604Y-119259385D01*
X89325021Y-119349500D01*
X89299500Y-119518812D01*
X89299500Y-119781187D01*
X88750500Y-119781187D01*
X88750500Y-118254427D01*
X88750816Y-118245581D01*
X88765130Y-118045443D01*
X88765131Y-118045442D01*
X88765130Y-118045436D01*
X88767646Y-118027938D01*
X88809356Y-117836199D01*
X88814333Y-117819248D01*
X88882911Y-117635385D01*
X88890259Y-117619298D01*
X88952815Y-117504734D01*
X88984291Y-117447089D01*
X88993845Y-117432221D01*
X89111448Y-117275123D01*
X89123020Y-117261769D01*
X89261769Y-117123020D01*
X89275123Y-117111448D01*
X89432221Y-116993845D01*
X89447089Y-116984291D01*
X89619298Y-116890258D01*
X89635385Y-116882911D01*
X89819248Y-116814333D01*
X89836199Y-116809356D01*
X90027938Y-116767646D01*
X90045436Y-116765130D01*
X90245582Y-116750816D01*
X90254428Y-116750500D01*
X90315892Y-116750500D01*
X131184108Y-116750500D01*
X131245572Y-116750500D01*
X131254418Y-116750816D01*
G37*
%TD.AperFunction*%
%TA.AperFunction,Conductor*%
G36*
X132578851Y-134125298D02*
G01*
X132593059Y-134128553D01*
X132641920Y-134178496D01*
X132656023Y-134246928D01*
X132648625Y-134280061D01*
X132617090Y-134364609D01*
X132609740Y-134380701D01*
X132515711Y-134552904D01*
X132506146Y-134567789D01*
X132388558Y-134724867D01*
X132376972Y-134738237D01*
X132238237Y-134876972D01*
X132224867Y-134888558D01*
X132067789Y-135006146D01*
X132052904Y-135015711D01*
X131880701Y-135109740D01*
X131864609Y-135117090D01*
X131680763Y-135185662D01*
X131663787Y-135190646D01*
X131472068Y-135232351D01*
X131454557Y-135234869D01*
X131273779Y-135247799D01*
X131254417Y-135249184D01*
X131245572Y-135249500D01*
X131203511Y-135249500D01*
X131136472Y-135229815D01*
X131090717Y-135177011D01*
X131080773Y-135107853D01*
X131109798Y-135044297D01*
X131166621Y-135007115D01*
X131426928Y-134926000D01*
X131426943Y-134925994D01*
X131730319Y-134789456D01*
X131730321Y-134789454D01*
X132015030Y-134617343D01*
X132210583Y-134464137D01*
X132210583Y-134464136D01*
X131319882Y-133573435D01*
X131374477Y-133537768D01*
X131557368Y-133369404D01*
X131673610Y-133220057D01*
X132578851Y-134125298D01*
G37*
%TD.AperFunction*%
%TD*%
%TA.AperFunction,Conductor*%
%TO.N,GND*%
G36*
X44942632Y-152869404D02*
G01*
X45125523Y-153037768D01*
X45180116Y-153073435D01*
X44289415Y-153964136D01*
X44289415Y-153964137D01*
X44484960Y-154117337D01*
X44484968Y-154117342D01*
X44769678Y-154289454D01*
X44769680Y-154289456D01*
X45073056Y-154425994D01*
X45073071Y-154426000D01*
X45333379Y-154507115D01*
X45391527Y-154545852D01*
X45419501Y-154609877D01*
X45408419Y-154678863D01*
X45361801Y-154730906D01*
X45296489Y-154749500D01*
X45254428Y-154749500D01*
X45245582Y-154749184D01*
X45223622Y-154747613D01*
X45045442Y-154734869D01*
X45027931Y-154732351D01*
X44836212Y-154690646D01*
X44819236Y-154685662D01*
X44635390Y-154617090D01*
X44619298Y-154609740D01*
X44447095Y-154515711D01*
X44432210Y-154506146D01*
X44275132Y-154388558D01*
X44261762Y-154376972D01*
X44123027Y-154238237D01*
X44111441Y-154224867D01*
X44030949Y-154117343D01*
X43993849Y-154067784D01*
X43984288Y-154052904D01*
X43890259Y-153880701D01*
X43882909Y-153864609D01*
X43851374Y-153780061D01*
X43846390Y-153710369D01*
X43879875Y-153649046D01*
X43918480Y-153627965D01*
X44826389Y-152720056D01*
X44942632Y-152869404D01*
G37*
%TD.AperFunction*%
%TA.AperFunction,Conductor*%
G36*
X86254418Y-136250816D02*
G01*
X86454561Y-136265130D01*
X86472063Y-136267647D01*
X86663797Y-136309355D01*
X86680755Y-136314334D01*
X86864609Y-136382909D01*
X86880701Y-136390259D01*
X87052904Y-136484288D01*
X87067784Y-136493849D01*
X87224867Y-136611441D01*
X87238237Y-136623027D01*
X87376972Y-136761762D01*
X87388558Y-136775132D01*
X87506146Y-136932210D01*
X87515711Y-136947095D01*
X87609740Y-137119298D01*
X87617090Y-137135390D01*
X87685662Y-137319236D01*
X87690646Y-137336212D01*
X87732351Y-137527931D01*
X87734869Y-137545442D01*
X87749184Y-137745580D01*
X87749500Y-137754427D01*
X87749500Y-149968900D01*
X87729815Y-150035939D01*
X87677011Y-150081694D01*
X87618014Y-150092674D01*
X87564136Y-150089415D01*
X86673609Y-150979942D01*
X86557368Y-150830596D01*
X86374477Y-150662232D01*
X86319882Y-150626563D01*
X87210583Y-149735862D01*
X87210583Y-149735861D01*
X87015039Y-149582662D01*
X87015031Y-149582657D01*
X86730321Y-149410545D01*
X86730319Y-149410543D01*
X86426943Y-149274005D01*
X86426928Y-149273999D01*
X86109329Y-149175032D01*
X85782076Y-149115060D01*
X85450000Y-149094974D01*
X85117923Y-149115060D01*
X84790670Y-149175032D01*
X84473071Y-149273999D01*
X84473056Y-149274005D01*
X84169680Y-149410543D01*
X84169678Y-149410545D01*
X83884968Y-149582657D01*
X83689415Y-149735862D01*
X84580117Y-150626564D01*
X84525523Y-150662232D01*
X84342632Y-150830596D01*
X84226389Y-150979942D01*
X83335862Y-150089415D01*
X83182657Y-150284968D01*
X83010545Y-150569678D01*
X83010543Y-150569680D01*
X82874005Y-150873056D01*
X82873999Y-150873071D01*
X82775032Y-151190670D01*
X82715060Y-151517923D01*
X82694974Y-151850000D01*
X82715060Y-152182076D01*
X82775032Y-152509329D01*
X82873999Y-152826928D01*
X82874005Y-152826943D01*
X83010543Y-153130319D01*
X83010545Y-153130321D01*
X83182657Y-153415031D01*
X83182662Y-153415039D01*
X83335862Y-153610583D01*
X84226389Y-152720056D01*
X84342632Y-152869404D01*
X84525523Y-153037768D01*
X84580116Y-153073435D01*
X83689415Y-153964136D01*
X83689415Y-153964137D01*
X83884960Y-154117337D01*
X83884968Y-154117342D01*
X84169678Y-154289454D01*
X84169680Y-154289456D01*
X84473056Y-154425994D01*
X84473071Y-154426000D01*
X84733379Y-154507115D01*
X84791527Y-154545852D01*
X84819501Y-154609877D01*
X84808419Y-154678863D01*
X84761801Y-154730906D01*
X84696489Y-154749500D01*
X46803511Y-154749500D01*
X46736472Y-154729815D01*
X46690717Y-154677011D01*
X46680773Y-154607853D01*
X46709798Y-154544297D01*
X46766621Y-154507115D01*
X47026928Y-154426000D01*
X47026943Y-154425994D01*
X47330319Y-154289456D01*
X47330321Y-154289454D01*
X47615030Y-154117343D01*
X47810583Y-153964137D01*
X47810583Y-153964136D01*
X46919882Y-153073435D01*
X46974477Y-153037768D01*
X47157368Y-152869404D01*
X47273610Y-152720057D01*
X48164136Y-153610583D01*
X48164137Y-153610583D01*
X48317343Y-153415030D01*
X48489454Y-153130321D01*
X48489456Y-153130319D01*
X48625994Y-152826943D01*
X48626000Y-152826928D01*
X48724967Y-152509329D01*
X48784939Y-152182076D01*
X48805025Y-151850000D01*
X48784939Y-151517923D01*
X48724967Y-151190670D01*
X48626000Y-150873071D01*
X48625994Y-150873056D01*
X48489456Y-150569680D01*
X48489454Y-150569678D01*
X48317342Y-150284968D01*
X48317337Y-150284960D01*
X48164136Y-150089415D01*
X47273609Y-150979942D01*
X47157368Y-150830596D01*
X46974477Y-150662232D01*
X46919882Y-150626563D01*
X47810583Y-149735862D01*
X47810583Y-149735861D01*
X47615039Y-149582662D01*
X47615031Y-149582657D01*
X47330321Y-149410545D01*
X47330319Y-149410543D01*
X47026943Y-149274005D01*
X47026928Y-149273999D01*
X46709329Y-149175032D01*
X46382076Y-149115060D01*
X46050000Y-149094974D01*
X45717923Y-149115060D01*
X45390670Y-149175032D01*
X45073071Y-149273999D01*
X45073056Y-149274005D01*
X44769680Y-149410543D01*
X44769678Y-149410545D01*
X44484968Y-149582657D01*
X44289415Y-149735862D01*
X45180117Y-150626564D01*
X45125523Y-150662232D01*
X44942632Y-150830596D01*
X44826389Y-150979942D01*
X43935862Y-150089415D01*
X43881986Y-150092674D01*
X43813881Y-150077073D01*
X43765021Y-150027127D01*
X43750500Y-149968900D01*
X43750500Y-145750000D01*
X51250000Y-145750000D01*
X51750000Y-147000000D01*
X53000000Y-147500000D01*
X54250000Y-147000000D01*
X54750000Y-145750000D01*
X76750000Y-145750000D01*
X77250000Y-147000000D01*
X78500000Y-147500000D01*
X79750000Y-147000000D01*
X80250000Y-145750000D01*
X79750000Y-144500000D01*
X78500000Y-144000000D01*
X77250000Y-144500000D01*
X76750000Y-145750000D01*
X54750000Y-145750000D01*
X54250000Y-144500000D01*
X53000000Y-144000000D01*
X51750000Y-144500000D01*
X51250000Y-145750000D01*
X43750500Y-145750000D01*
X43750500Y-139281187D01*
X44299500Y-139281187D01*
X44318685Y-139408462D01*
X44338604Y-139540615D01*
X44338605Y-139540617D01*
X44338606Y-139540623D01*
X44415938Y-139791326D01*
X44529767Y-140027696D01*
X44529768Y-140027697D01*
X44529770Y-140027700D01*
X44529772Y-140027704D01*
X44534249Y-140034270D01*
X44677567Y-140244479D01*
X44856014Y-140436801D01*
X44856018Y-140436804D01*
X44856019Y-140436805D01*
X45061143Y-140600386D01*
X45288357Y-140731568D01*
X45532584Y-140827420D01*
X45788370Y-140885802D01*
X45788376Y-140885802D01*
X45788379Y-140885803D01*
X45950031Y-140897917D01*
X46015412Y-140922556D01*
X46057093Y-140978631D01*
X46061931Y-141047928D01*
X46014804Y-141264566D01*
X45994390Y-141549998D01*
X45994390Y-141550001D01*
X46014804Y-141835433D01*
X46075628Y-142115037D01*
X46175635Y-142383166D01*
X46312770Y-142634309D01*
X46312775Y-142634317D01*
X46484254Y-142863387D01*
X46484270Y-142863405D01*
X46686594Y-143065729D01*
X46686612Y-143065745D01*
X46915682Y-143237224D01*
X46915690Y-143237229D01*
X47166833Y-143374364D01*
X47166832Y-143374364D01*
X47166836Y-143374365D01*
X47166839Y-143374367D01*
X47434954Y-143474369D01*
X47434960Y-143474370D01*
X47434962Y-143474371D01*
X47714566Y-143535195D01*
X47714568Y-143535195D01*
X47714572Y-143535196D01*
X47968220Y-143553337D01*
X47999999Y-143555610D01*
X48000000Y-143555610D01*
X48000001Y-143555610D01*
X48028595Y-143553564D01*
X48285428Y-143535196D01*
X48565046Y-143474369D01*
X48833161Y-143374367D01*
X49084315Y-143237226D01*
X49313395Y-143065739D01*
X49515739Y-142863395D01*
X49687226Y-142634315D01*
X49794677Y-142437534D01*
X60249500Y-142437534D01*
X60279898Y-142609937D01*
X60339775Y-142774446D01*
X60427309Y-142926057D01*
X60539836Y-143060163D01*
X60673942Y-143172690D01*
X60785716Y-143237224D01*
X60825555Y-143260225D01*
X60990062Y-143320101D01*
X61162468Y-143350500D01*
X61162472Y-143350500D01*
X70337528Y-143350500D01*
X70337532Y-143350500D01*
X70509938Y-143320101D01*
X70674445Y-143260225D01*
X70826055Y-143172692D01*
X70960163Y-143060163D01*
X71072692Y-142926055D01*
X71160225Y-142774445D01*
X71220101Y-142609938D01*
X71250500Y-142437532D01*
X71250500Y-142350000D01*
X71250500Y-142284108D01*
X71250500Y-141550001D01*
X81494390Y-141550001D01*
X81514804Y-141835433D01*
X81575628Y-142115037D01*
X81675635Y-142383166D01*
X81812770Y-142634309D01*
X81812775Y-142634317D01*
X81984254Y-142863387D01*
X81984270Y-142863405D01*
X82186594Y-143065729D01*
X82186612Y-143065745D01*
X82415682Y-143237224D01*
X82415690Y-143237229D01*
X82666833Y-143374364D01*
X82666832Y-143374364D01*
X82666836Y-143374365D01*
X82666839Y-143374367D01*
X82934954Y-143474369D01*
X82934960Y-143474370D01*
X82934962Y-143474371D01*
X83214566Y-143535195D01*
X83214568Y-143535195D01*
X83214572Y-143535196D01*
X83468220Y-143553337D01*
X83499999Y-143555610D01*
X83500000Y-143555610D01*
X83500001Y-143555610D01*
X83528595Y-143553564D01*
X83785428Y-143535196D01*
X84065046Y-143474369D01*
X84333161Y-143374367D01*
X84584315Y-143237226D01*
X84813395Y-143065739D01*
X85015739Y-142863395D01*
X85187226Y-142634315D01*
X85324367Y-142383161D01*
X85424369Y-142115046D01*
X85485196Y-141835428D01*
X85505610Y-141550000D01*
X85485196Y-141264572D01*
X85438068Y-141047927D01*
X85443052Y-140978237D01*
X85484923Y-140922303D01*
X85549968Y-140897917D01*
X85711620Y-140885803D01*
X85711622Y-140885802D01*
X85711630Y-140885802D01*
X85967416Y-140827420D01*
X86211643Y-140731568D01*
X86438857Y-140600386D01*
X86643981Y-140436805D01*
X86822433Y-140244479D01*
X86970228Y-140027704D01*
X87084063Y-139791323D01*
X87161396Y-139540615D01*
X87200500Y-139281182D01*
X87200500Y-139018818D01*
X87161396Y-138759385D01*
X87084063Y-138508677D01*
X87072121Y-138483880D01*
X86970232Y-138272303D01*
X86970231Y-138272302D01*
X86970230Y-138272301D01*
X86970228Y-138272296D01*
X86822433Y-138055521D01*
X86812441Y-138044753D01*
X86643985Y-137863198D01*
X86507590Y-137754427D01*
X86438857Y-137699614D01*
X86211643Y-137568432D01*
X85967416Y-137472580D01*
X85967411Y-137472578D01*
X85967402Y-137472576D01*
X85749818Y-137422914D01*
X85711630Y-137414198D01*
X85711629Y-137414197D01*
X85711625Y-137414197D01*
X85711620Y-137414196D01*
X85515515Y-137399500D01*
X85515494Y-137399500D01*
X85384506Y-137399500D01*
X85384484Y-137399500D01*
X85188379Y-137414196D01*
X85188374Y-137414197D01*
X84932597Y-137472576D01*
X84932578Y-137472582D01*
X84688356Y-137568432D01*
X84461143Y-137699614D01*
X84256014Y-137863198D01*
X84077567Y-138055520D01*
X83929768Y-138272302D01*
X83929767Y-138272303D01*
X83815938Y-138508673D01*
X83738606Y-138759376D01*
X83738605Y-138759381D01*
X83738604Y-138759385D01*
X83725021Y-138849500D01*
X83699500Y-139018812D01*
X83699500Y-139281189D01*
X83718684Y-139408463D01*
X83709211Y-139477687D01*
X83663816Y-139530801D01*
X83596912Y-139550941D01*
X83587223Y-139550628D01*
X83500001Y-139544390D01*
X83499999Y-139544390D01*
X83214566Y-139564804D01*
X82934962Y-139625628D01*
X82666833Y-139725635D01*
X82415690Y-139862770D01*
X82415682Y-139862775D01*
X82186612Y-140034254D01*
X82186594Y-140034270D01*
X81984270Y-140236594D01*
X81984254Y-140236612D01*
X81812775Y-140465682D01*
X81812770Y-140465690D01*
X81675635Y-140716833D01*
X81575628Y-140984962D01*
X81514804Y-141264566D01*
X81494390Y-141549998D01*
X81494390Y-141550001D01*
X71250500Y-141550001D01*
X71250500Y-139814201D01*
X71250500Y-139762468D01*
X71220101Y-139590062D01*
X71160225Y-139425555D01*
X71072692Y-139273945D01*
X71072691Y-139273943D01*
X71072690Y-139273942D01*
X70960163Y-139139836D01*
X70826057Y-139027309D01*
X70674446Y-138939775D01*
X70509937Y-138879898D01*
X70337534Y-138849500D01*
X70337532Y-138849500D01*
X70285799Y-138849500D01*
X61315892Y-138849500D01*
X61250000Y-138849500D01*
X61162468Y-138849500D01*
X61162465Y-138849500D01*
X60990062Y-138879898D01*
X60825553Y-138939775D01*
X60673942Y-139027309D01*
X60539836Y-139139836D01*
X60427309Y-139273942D01*
X60339775Y-139425553D01*
X60279898Y-139590062D01*
X60249500Y-139762465D01*
X60249500Y-142437534D01*
X49794677Y-142437534D01*
X49824367Y-142383161D01*
X49924369Y-142115046D01*
X49985196Y-141835428D01*
X50005610Y-141550000D01*
X49985196Y-141264572D01*
X49924369Y-140984954D01*
X49824367Y-140716839D01*
X49744025Y-140569705D01*
X49687229Y-140465690D01*
X49687224Y-140465682D01*
X49515745Y-140236612D01*
X49515729Y-140236594D01*
X49313405Y-140034270D01*
X49313387Y-140034254D01*
X49084317Y-139862775D01*
X49084309Y-139862770D01*
X48833166Y-139725635D01*
X48833167Y-139725635D01*
X48725915Y-139685632D01*
X48565046Y-139625631D01*
X48565043Y-139625630D01*
X48565037Y-139625628D01*
X48285433Y-139564804D01*
X48000001Y-139544390D01*
X47999999Y-139544390D01*
X47912776Y-139550628D01*
X47844503Y-139535776D01*
X47795098Y-139486371D01*
X47780246Y-139418098D01*
X47781315Y-139408462D01*
X47800499Y-139281187D01*
X47800500Y-139281182D01*
X47800500Y-139018817D01*
X47800499Y-139018812D01*
X47761396Y-138759385D01*
X47684063Y-138508677D01*
X47672121Y-138483880D01*
X47570232Y-138272303D01*
X47570231Y-138272302D01*
X47570230Y-138272301D01*
X47570228Y-138272296D01*
X47422433Y-138055521D01*
X47412441Y-138044753D01*
X47243985Y-137863198D01*
X47107590Y-137754427D01*
X47038857Y-137699614D01*
X46811643Y-137568432D01*
X46567416Y-137472580D01*
X46567411Y-137472578D01*
X46567402Y-137472576D01*
X46349818Y-137422914D01*
X46311630Y-137414198D01*
X46311629Y-137414197D01*
X46311625Y-137414197D01*
X46311620Y-137414196D01*
X46115515Y-137399500D01*
X46115494Y-137399500D01*
X45984506Y-137399500D01*
X45984484Y-137399500D01*
X45788379Y-137414196D01*
X45788374Y-137414197D01*
X45532597Y-137472576D01*
X45532578Y-137472582D01*
X45288356Y-137568432D01*
X45061143Y-137699614D01*
X44856014Y-137863198D01*
X44677567Y-138055520D01*
X44529768Y-138272302D01*
X44529767Y-138272303D01*
X44415938Y-138508673D01*
X44338606Y-138759376D01*
X44338605Y-138759381D01*
X44338604Y-138759385D01*
X44325021Y-138849500D01*
X44299500Y-139018812D01*
X44299500Y-139281187D01*
X43750500Y-139281187D01*
X43750500Y-137754427D01*
X43750816Y-137745581D01*
X43765130Y-137545443D01*
X43765131Y-137545442D01*
X43765130Y-137545436D01*
X43767646Y-137527938D01*
X43809356Y-137336199D01*
X43814333Y-137319248D01*
X43882911Y-137135385D01*
X43890259Y-137119298D01*
X43952815Y-137004734D01*
X43984291Y-136947089D01*
X43993845Y-136932221D01*
X44111448Y-136775123D01*
X44123020Y-136761769D01*
X44261769Y-136623020D01*
X44275123Y-136611448D01*
X44432221Y-136493845D01*
X44447089Y-136484291D01*
X44619298Y-136390258D01*
X44635385Y-136382911D01*
X44819248Y-136314333D01*
X44836199Y-136309356D01*
X45027938Y-136267646D01*
X45045436Y-136265130D01*
X45245582Y-136250816D01*
X45254428Y-136250500D01*
X45315892Y-136250500D01*
X86184108Y-136250500D01*
X86245572Y-136250500D01*
X86254418Y-136250816D01*
G37*
%TD.AperFunction*%
%TA.AperFunction,Conductor*%
G36*
X87578851Y-153625298D02*
G01*
X87593059Y-153628553D01*
X87641920Y-153678496D01*
X87656023Y-153746928D01*
X87648625Y-153780061D01*
X87617090Y-153864609D01*
X87609740Y-153880701D01*
X87515711Y-154052904D01*
X87506146Y-154067789D01*
X87388558Y-154224867D01*
X87376972Y-154238237D01*
X87238237Y-154376972D01*
X87224867Y-154388558D01*
X87067789Y-154506146D01*
X87052904Y-154515711D01*
X86880701Y-154609740D01*
X86864609Y-154617090D01*
X86680763Y-154685662D01*
X86663787Y-154690646D01*
X86472068Y-154732351D01*
X86454557Y-154734869D01*
X86273779Y-154747799D01*
X86254417Y-154749184D01*
X86245572Y-154749500D01*
X86203511Y-154749500D01*
X86136472Y-154729815D01*
X86090717Y-154677011D01*
X86080773Y-154607853D01*
X86109798Y-154544297D01*
X86166621Y-154507115D01*
X86426928Y-154426000D01*
X86426943Y-154425994D01*
X86730319Y-154289456D01*
X86730321Y-154289454D01*
X87015030Y-154117343D01*
X87210583Y-153964137D01*
X87210583Y-153964136D01*
X86319882Y-153073435D01*
X86374477Y-153037768D01*
X86557368Y-152869404D01*
X86673610Y-152720057D01*
X87578851Y-153625298D01*
G37*
%TD.AperFunction*%
%TD*%
%TA.AperFunction,Conductor*%
%TO.N,GND*%
G36*
X89942632Y-152869404D02*
G01*
X90125523Y-153037768D01*
X90180116Y-153073435D01*
X89289415Y-153964136D01*
X89289415Y-153964137D01*
X89484960Y-154117337D01*
X89484968Y-154117342D01*
X89769678Y-154289454D01*
X89769680Y-154289456D01*
X90073056Y-154425994D01*
X90073071Y-154426000D01*
X90333379Y-154507115D01*
X90391527Y-154545852D01*
X90419501Y-154609877D01*
X90408419Y-154678863D01*
X90361801Y-154730906D01*
X90296489Y-154749500D01*
X90254428Y-154749500D01*
X90245582Y-154749184D01*
X90223622Y-154747613D01*
X90045442Y-154734869D01*
X90027931Y-154732351D01*
X89836212Y-154690646D01*
X89819236Y-154685662D01*
X89635390Y-154617090D01*
X89619298Y-154609740D01*
X89447095Y-154515711D01*
X89432210Y-154506146D01*
X89275132Y-154388558D01*
X89261762Y-154376972D01*
X89123027Y-154238237D01*
X89111441Y-154224867D01*
X89030949Y-154117343D01*
X88993849Y-154067784D01*
X88984288Y-154052904D01*
X88890259Y-153880701D01*
X88882909Y-153864609D01*
X88851374Y-153780061D01*
X88846390Y-153710369D01*
X88879875Y-153649046D01*
X88918480Y-153627965D01*
X89826389Y-152720056D01*
X89942632Y-152869404D01*
G37*
%TD.AperFunction*%
%TA.AperFunction,Conductor*%
G36*
X131254418Y-136250816D02*
G01*
X131454561Y-136265130D01*
X131472063Y-136267647D01*
X131663797Y-136309355D01*
X131680755Y-136314334D01*
X131864609Y-136382909D01*
X131880701Y-136390259D01*
X132052904Y-136484288D01*
X132067784Y-136493849D01*
X132224867Y-136611441D01*
X132238237Y-136623027D01*
X132376972Y-136761762D01*
X132388558Y-136775132D01*
X132506146Y-136932210D01*
X132515711Y-136947095D01*
X132609740Y-137119298D01*
X132617090Y-137135390D01*
X132685662Y-137319236D01*
X132690646Y-137336212D01*
X132732351Y-137527931D01*
X132734869Y-137545442D01*
X132749184Y-137745580D01*
X132749500Y-137754427D01*
X132749500Y-149968900D01*
X132729815Y-150035939D01*
X132677011Y-150081694D01*
X132618014Y-150092674D01*
X132564136Y-150089415D01*
X131673609Y-150979942D01*
X131557368Y-150830596D01*
X131374477Y-150662232D01*
X131319882Y-150626563D01*
X132210583Y-149735862D01*
X132210583Y-149735861D01*
X132015039Y-149582662D01*
X132015031Y-149582657D01*
X131730321Y-149410545D01*
X131730319Y-149410543D01*
X131426943Y-149274005D01*
X131426928Y-149273999D01*
X131109329Y-149175032D01*
X130782076Y-149115060D01*
X130450000Y-149094974D01*
X130117923Y-149115060D01*
X129790670Y-149175032D01*
X129473071Y-149273999D01*
X129473056Y-149274005D01*
X129169680Y-149410543D01*
X129169678Y-149410545D01*
X128884968Y-149582657D01*
X128689415Y-149735862D01*
X129580117Y-150626564D01*
X129525523Y-150662232D01*
X129342632Y-150830596D01*
X129226389Y-150979942D01*
X128335862Y-150089415D01*
X128182657Y-150284968D01*
X128010545Y-150569678D01*
X128010543Y-150569680D01*
X127874005Y-150873056D01*
X127873999Y-150873071D01*
X127775032Y-151190670D01*
X127715060Y-151517923D01*
X127694974Y-151850000D01*
X127715060Y-152182076D01*
X127775032Y-152509329D01*
X127873999Y-152826928D01*
X127874005Y-152826943D01*
X128010543Y-153130319D01*
X128010545Y-153130321D01*
X128182657Y-153415031D01*
X128182662Y-153415039D01*
X128335862Y-153610583D01*
X129226389Y-152720056D01*
X129342632Y-152869404D01*
X129525523Y-153037768D01*
X129580116Y-153073435D01*
X128689415Y-153964136D01*
X128689415Y-153964137D01*
X128884960Y-154117337D01*
X128884968Y-154117342D01*
X129169678Y-154289454D01*
X129169680Y-154289456D01*
X129473056Y-154425994D01*
X129473071Y-154426000D01*
X129733379Y-154507115D01*
X129791527Y-154545852D01*
X129819501Y-154609877D01*
X129808419Y-154678863D01*
X129761801Y-154730906D01*
X129696489Y-154749500D01*
X91803511Y-154749500D01*
X91736472Y-154729815D01*
X91690717Y-154677011D01*
X91680773Y-154607853D01*
X91709798Y-154544297D01*
X91766621Y-154507115D01*
X92026928Y-154426000D01*
X92026943Y-154425994D01*
X92330319Y-154289456D01*
X92330321Y-154289454D01*
X92615030Y-154117343D01*
X92810583Y-153964137D01*
X92810583Y-153964136D01*
X91919882Y-153073435D01*
X91974477Y-153037768D01*
X92157368Y-152869404D01*
X92273610Y-152720057D01*
X93164136Y-153610583D01*
X93164137Y-153610583D01*
X93317343Y-153415030D01*
X93489454Y-153130321D01*
X93489456Y-153130319D01*
X93625994Y-152826943D01*
X93626000Y-152826928D01*
X93724967Y-152509329D01*
X93784939Y-152182076D01*
X93805025Y-151850000D01*
X93784939Y-151517923D01*
X93724967Y-151190670D01*
X93626000Y-150873071D01*
X93625994Y-150873056D01*
X93489456Y-150569680D01*
X93489454Y-150569678D01*
X93317342Y-150284968D01*
X93317337Y-150284960D01*
X93164136Y-150089415D01*
X92273609Y-150979942D01*
X92157368Y-150830596D01*
X91974477Y-150662232D01*
X91919882Y-150626563D01*
X92810583Y-149735862D01*
X92810583Y-149735861D01*
X92615039Y-149582662D01*
X92615031Y-149582657D01*
X92330321Y-149410545D01*
X92330319Y-149410543D01*
X92026943Y-149274005D01*
X92026928Y-149273999D01*
X91709329Y-149175032D01*
X91382076Y-149115060D01*
X91050000Y-149094974D01*
X90717923Y-149115060D01*
X90390670Y-149175032D01*
X90073071Y-149273999D01*
X90073056Y-149274005D01*
X89769680Y-149410543D01*
X89769678Y-149410545D01*
X89484968Y-149582657D01*
X89289415Y-149735862D01*
X90180117Y-150626564D01*
X90125523Y-150662232D01*
X89942632Y-150830596D01*
X89826389Y-150979942D01*
X88935862Y-150089415D01*
X88881986Y-150092674D01*
X88813881Y-150077073D01*
X88765021Y-150027127D01*
X88750500Y-149968900D01*
X88750500Y-145750000D01*
X96250000Y-145750000D01*
X96750000Y-147000000D01*
X98000000Y-147500000D01*
X99250000Y-147000000D01*
X99750000Y-145750000D01*
X121750000Y-145750000D01*
X122250000Y-147000000D01*
X123500000Y-147500000D01*
X124750000Y-147000000D01*
X125250000Y-145750000D01*
X124750000Y-144500000D01*
X123500000Y-144000000D01*
X122250000Y-144500000D01*
X121750000Y-145750000D01*
X99750000Y-145750000D01*
X99250000Y-144500000D01*
X98000000Y-144000000D01*
X96750000Y-144500000D01*
X96250000Y-145750000D01*
X88750500Y-145750000D01*
X88750500Y-139281187D01*
X89299500Y-139281187D01*
X89318685Y-139408462D01*
X89338604Y-139540615D01*
X89338605Y-139540617D01*
X89338606Y-139540623D01*
X89415938Y-139791326D01*
X89529767Y-140027696D01*
X89529768Y-140027697D01*
X89529770Y-140027700D01*
X89529772Y-140027704D01*
X89534249Y-140034270D01*
X89677567Y-140244479D01*
X89856014Y-140436801D01*
X89856018Y-140436804D01*
X89856019Y-140436805D01*
X90061143Y-140600386D01*
X90288357Y-140731568D01*
X90532584Y-140827420D01*
X90788370Y-140885802D01*
X90788376Y-140885802D01*
X90788379Y-140885803D01*
X90950031Y-140897917D01*
X91015412Y-140922556D01*
X91057093Y-140978631D01*
X91061931Y-141047928D01*
X91014804Y-141264566D01*
X90994390Y-141549998D01*
X90994390Y-141550001D01*
X91014804Y-141835433D01*
X91075628Y-142115037D01*
X91175635Y-142383166D01*
X91312770Y-142634309D01*
X91312775Y-142634317D01*
X91484254Y-142863387D01*
X91484270Y-142863405D01*
X91686594Y-143065729D01*
X91686612Y-143065745D01*
X91915682Y-143237224D01*
X91915690Y-143237229D01*
X92166833Y-143374364D01*
X92166832Y-143374364D01*
X92166836Y-143374365D01*
X92166839Y-143374367D01*
X92434954Y-143474369D01*
X92434960Y-143474370D01*
X92434962Y-143474371D01*
X92714566Y-143535195D01*
X92714568Y-143535195D01*
X92714572Y-143535196D01*
X92968220Y-143553337D01*
X92999999Y-143555610D01*
X93000000Y-143555610D01*
X93000001Y-143555610D01*
X93028595Y-143553564D01*
X93285428Y-143535196D01*
X93565046Y-143474369D01*
X93833161Y-143374367D01*
X94084315Y-143237226D01*
X94313395Y-143065739D01*
X94515739Y-142863395D01*
X94687226Y-142634315D01*
X94794677Y-142437534D01*
X105249500Y-142437534D01*
X105279898Y-142609937D01*
X105339775Y-142774446D01*
X105427309Y-142926057D01*
X105539836Y-143060163D01*
X105673942Y-143172690D01*
X105785716Y-143237224D01*
X105825555Y-143260225D01*
X105990062Y-143320101D01*
X106162468Y-143350500D01*
X106162472Y-143350500D01*
X115337528Y-143350500D01*
X115337532Y-143350500D01*
X115509938Y-143320101D01*
X115674445Y-143260225D01*
X115826055Y-143172692D01*
X115960163Y-143060163D01*
X116072692Y-142926055D01*
X116160225Y-142774445D01*
X116220101Y-142609938D01*
X116250500Y-142437532D01*
X116250500Y-142350000D01*
X116250500Y-142284108D01*
X116250500Y-141550001D01*
X126494390Y-141550001D01*
X126514804Y-141835433D01*
X126575628Y-142115037D01*
X126675635Y-142383166D01*
X126812770Y-142634309D01*
X126812775Y-142634317D01*
X126984254Y-142863387D01*
X126984270Y-142863405D01*
X127186594Y-143065729D01*
X127186612Y-143065745D01*
X127415682Y-143237224D01*
X127415690Y-143237229D01*
X127666833Y-143374364D01*
X127666832Y-143374364D01*
X127666836Y-143374365D01*
X127666839Y-143374367D01*
X127934954Y-143474369D01*
X127934960Y-143474370D01*
X127934962Y-143474371D01*
X128214566Y-143535195D01*
X128214568Y-143535195D01*
X128214572Y-143535196D01*
X128468220Y-143553337D01*
X128499999Y-143555610D01*
X128500000Y-143555610D01*
X128500001Y-143555610D01*
X128528595Y-143553564D01*
X128785428Y-143535196D01*
X129065046Y-143474369D01*
X129333161Y-143374367D01*
X129584315Y-143237226D01*
X129813395Y-143065739D01*
X130015739Y-142863395D01*
X130187226Y-142634315D01*
X130324367Y-142383161D01*
X130424369Y-142115046D01*
X130485196Y-141835428D01*
X130505610Y-141550000D01*
X130485196Y-141264572D01*
X130438068Y-141047927D01*
X130443052Y-140978237D01*
X130484923Y-140922303D01*
X130549968Y-140897917D01*
X130711620Y-140885803D01*
X130711622Y-140885802D01*
X130711630Y-140885802D01*
X130967416Y-140827420D01*
X131211643Y-140731568D01*
X131438857Y-140600386D01*
X131643981Y-140436805D01*
X131822433Y-140244479D01*
X131970228Y-140027704D01*
X132084063Y-139791323D01*
X132161396Y-139540615D01*
X132200500Y-139281182D01*
X132200500Y-139018818D01*
X132161396Y-138759385D01*
X132084063Y-138508677D01*
X132072121Y-138483880D01*
X131970232Y-138272303D01*
X131970231Y-138272302D01*
X131970230Y-138272301D01*
X131970228Y-138272296D01*
X131822433Y-138055521D01*
X131812441Y-138044753D01*
X131643985Y-137863198D01*
X131507590Y-137754427D01*
X131438857Y-137699614D01*
X131211643Y-137568432D01*
X130967416Y-137472580D01*
X130967411Y-137472578D01*
X130967402Y-137472576D01*
X130749818Y-137422914D01*
X130711630Y-137414198D01*
X130711629Y-137414197D01*
X130711625Y-137414197D01*
X130711620Y-137414196D01*
X130515515Y-137399500D01*
X130515494Y-137399500D01*
X130384506Y-137399500D01*
X130384484Y-137399500D01*
X130188379Y-137414196D01*
X130188374Y-137414197D01*
X129932597Y-137472576D01*
X129932578Y-137472582D01*
X129688356Y-137568432D01*
X129461143Y-137699614D01*
X129256014Y-137863198D01*
X129077567Y-138055520D01*
X128929768Y-138272302D01*
X128929767Y-138272303D01*
X128815938Y-138508673D01*
X128738606Y-138759376D01*
X128738605Y-138759381D01*
X128738604Y-138759385D01*
X128725021Y-138849500D01*
X128699500Y-139018812D01*
X128699500Y-139281189D01*
X128718684Y-139408463D01*
X128709211Y-139477687D01*
X128663816Y-139530801D01*
X128596912Y-139550941D01*
X128587223Y-139550628D01*
X128500001Y-139544390D01*
X128499999Y-139544390D01*
X128214566Y-139564804D01*
X127934962Y-139625628D01*
X127666833Y-139725635D01*
X127415690Y-139862770D01*
X127415682Y-139862775D01*
X127186612Y-140034254D01*
X127186594Y-140034270D01*
X126984270Y-140236594D01*
X126984254Y-140236612D01*
X126812775Y-140465682D01*
X126812770Y-140465690D01*
X126675635Y-140716833D01*
X126575628Y-140984962D01*
X126514804Y-141264566D01*
X126494390Y-141549998D01*
X126494390Y-141550001D01*
X116250500Y-141550001D01*
X116250500Y-139814201D01*
X116250500Y-139762468D01*
X116220101Y-139590062D01*
X116160225Y-139425555D01*
X116072692Y-139273945D01*
X116072691Y-139273943D01*
X116072690Y-139273942D01*
X115960163Y-139139836D01*
X115826057Y-139027309D01*
X115674446Y-138939775D01*
X115509937Y-138879898D01*
X115337534Y-138849500D01*
X115337532Y-138849500D01*
X115285799Y-138849500D01*
X106315892Y-138849500D01*
X106250000Y-138849500D01*
X106162468Y-138849500D01*
X106162465Y-138849500D01*
X105990062Y-138879898D01*
X105825553Y-138939775D01*
X105673942Y-139027309D01*
X105539836Y-139139836D01*
X105427309Y-139273942D01*
X105339775Y-139425553D01*
X105279898Y-139590062D01*
X105249500Y-139762465D01*
X105249500Y-142437534D01*
X94794677Y-142437534D01*
X94824367Y-142383161D01*
X94924369Y-142115046D01*
X94985196Y-141835428D01*
X95005610Y-141550000D01*
X94985196Y-141264572D01*
X94924369Y-140984954D01*
X94824367Y-140716839D01*
X94744025Y-140569705D01*
X94687229Y-140465690D01*
X94687224Y-140465682D01*
X94515745Y-140236612D01*
X94515729Y-140236594D01*
X94313405Y-140034270D01*
X94313387Y-140034254D01*
X94084317Y-139862775D01*
X94084309Y-139862770D01*
X93833166Y-139725635D01*
X93833167Y-139725635D01*
X93725915Y-139685632D01*
X93565046Y-139625631D01*
X93565043Y-139625630D01*
X93565037Y-139625628D01*
X93285433Y-139564804D01*
X93000001Y-139544390D01*
X92999999Y-139544390D01*
X92912776Y-139550628D01*
X92844503Y-139535776D01*
X92795098Y-139486371D01*
X92780246Y-139418098D01*
X92781315Y-139408462D01*
X92800499Y-139281187D01*
X92800500Y-139281182D01*
X92800500Y-139018817D01*
X92800499Y-139018812D01*
X92761396Y-138759385D01*
X92684063Y-138508677D01*
X92672121Y-138483880D01*
X92570232Y-138272303D01*
X92570231Y-138272302D01*
X92570230Y-138272301D01*
X92570228Y-138272296D01*
X92422433Y-138055521D01*
X92412441Y-138044753D01*
X92243985Y-137863198D01*
X92107590Y-137754427D01*
X92038857Y-137699614D01*
X91811643Y-137568432D01*
X91567416Y-137472580D01*
X91567411Y-137472578D01*
X91567402Y-137472576D01*
X91349818Y-137422914D01*
X91311630Y-137414198D01*
X91311629Y-137414197D01*
X91311625Y-137414197D01*
X91311620Y-137414196D01*
X91115515Y-137399500D01*
X91115494Y-137399500D01*
X90984506Y-137399500D01*
X90984484Y-137399500D01*
X90788379Y-137414196D01*
X90788374Y-137414197D01*
X90532597Y-137472576D01*
X90532578Y-137472582D01*
X90288356Y-137568432D01*
X90061143Y-137699614D01*
X89856014Y-137863198D01*
X89677567Y-138055520D01*
X89529768Y-138272302D01*
X89529767Y-138272303D01*
X89415938Y-138508673D01*
X89338606Y-138759376D01*
X89338605Y-138759381D01*
X89338604Y-138759385D01*
X89325021Y-138849500D01*
X89299500Y-139018812D01*
X89299500Y-139281187D01*
X88750500Y-139281187D01*
X88750500Y-137754427D01*
X88750816Y-137745581D01*
X88765130Y-137545443D01*
X88765131Y-137545442D01*
X88765130Y-137545436D01*
X88767646Y-137527938D01*
X88809356Y-137336199D01*
X88814333Y-137319248D01*
X88882911Y-137135385D01*
X88890259Y-137119298D01*
X88952815Y-137004734D01*
X88984291Y-136947089D01*
X88993845Y-136932221D01*
X89111448Y-136775123D01*
X89123020Y-136761769D01*
X89261769Y-136623020D01*
X89275123Y-136611448D01*
X89432221Y-136493845D01*
X89447089Y-136484291D01*
X89619298Y-136390258D01*
X89635385Y-136382911D01*
X89819248Y-136314333D01*
X89836199Y-136309356D01*
X90027938Y-136267646D01*
X90045436Y-136265130D01*
X90245582Y-136250816D01*
X90254428Y-136250500D01*
X90315892Y-136250500D01*
X131184108Y-136250500D01*
X131245572Y-136250500D01*
X131254418Y-136250816D01*
G37*
%TD.AperFunction*%
%TA.AperFunction,Conductor*%
G36*
X132578851Y-153625298D02*
G01*
X132593059Y-153628553D01*
X132641920Y-153678496D01*
X132656023Y-153746928D01*
X132648625Y-153780061D01*
X132617090Y-153864609D01*
X132609740Y-153880701D01*
X132515711Y-154052904D01*
X132506146Y-154067789D01*
X132388558Y-154224867D01*
X132376972Y-154238237D01*
X132238237Y-154376972D01*
X132224867Y-154388558D01*
X132067789Y-154506146D01*
X132052904Y-154515711D01*
X131880701Y-154609740D01*
X131864609Y-154617090D01*
X131680763Y-154685662D01*
X131663787Y-154690646D01*
X131472068Y-154732351D01*
X131454557Y-154734869D01*
X131273779Y-154747799D01*
X131254417Y-154749184D01*
X131245572Y-154749500D01*
X131203511Y-154749500D01*
X131136472Y-154729815D01*
X131090717Y-154677011D01*
X131080773Y-154607853D01*
X131109798Y-154544297D01*
X131166621Y-154507115D01*
X131426928Y-154426000D01*
X131426943Y-154425994D01*
X131730319Y-154289456D01*
X131730321Y-154289454D01*
X132015030Y-154117343D01*
X132210583Y-153964137D01*
X132210583Y-153964136D01*
X131319882Y-153073435D01*
X131374477Y-153037768D01*
X131557368Y-152869404D01*
X131673610Y-152720057D01*
X132578851Y-153625298D01*
G37*
%TD.AperFunction*%
%TD*%
D12*
X133250000Y-137750000D02*
X133250000Y-153250000D01*
X89250001Y-135750000D02*
G75*
G03*
X89249999Y-135750000I-1J0D01*
G01*
X89249999Y-135750000D02*
G75*
G03*
X89250001Y-135750000I1J0D01*
G01*
X131250000Y-155250000D02*
G75*
G03*
X133250000Y-153250000I0J2000000D01*
G01*
X88250000Y-137750000D02*
X88250000Y-153250000D01*
X90250000Y-135750000D02*
G75*
G03*
X88250000Y-137750000I0J-2000000D01*
G01*
X133250000Y-137750000D02*
G75*
G03*
X131250000Y-135750000I-2000000J0D01*
G01*
X106250000Y-139350000D02*
G75*
G03*
X105750000Y-139850000I0J-500000D01*
G01*
X105750000Y-139850000D02*
X105750000Y-142350000D01*
X94500000Y-141550000D02*
G75*
G03*
X91500000Y-141550000I-1500000J0D01*
G01*
X91500000Y-141550000D02*
G75*
G03*
X94500000Y-141550000I1500000J0D01*
G01*
X88250000Y-153250000D02*
G75*
G03*
X90250000Y-155250000I2000000J0D01*
G01*
X115750000Y-139850000D02*
G75*
G03*
X115250000Y-139350000I-500000J0D01*
G01*
X106250000Y-142850000D02*
X115250000Y-142850000D01*
X115250000Y-142850000D02*
G75*
G03*
X115750000Y-142350000I0J500000D01*
G01*
X130000000Y-141550000D02*
G75*
G03*
X127000000Y-141550000I-1500000J0D01*
G01*
X127000000Y-141550000D02*
G75*
G03*
X130000000Y-141550000I1500000J0D01*
G01*
X90250000Y-155250000D02*
X131250000Y-155250000D01*
X106250000Y-139350000D02*
X115250000Y-139350000D01*
X115750000Y-139850000D02*
X115750000Y-142350000D01*
X90250000Y-135750000D02*
X131250000Y-135750000D01*
X105750000Y-142350000D02*
G75*
G03*
X106250000Y-142850000I500000J0D01*
G01*
X88250000Y-137750000D02*
X88250000Y-153250000D01*
X44250001Y-135750000D02*
G75*
G03*
X44249999Y-135750000I-1J0D01*
G01*
X44249999Y-135750000D02*
G75*
G03*
X44250001Y-135750000I1J0D01*
G01*
X86250000Y-155250000D02*
G75*
G03*
X88250000Y-153250000I0J2000000D01*
G01*
X43250000Y-137750000D02*
X43250000Y-153250000D01*
X45250000Y-135750000D02*
G75*
G03*
X43250000Y-137750000I0J-2000000D01*
G01*
X88250000Y-137750000D02*
G75*
G03*
X86250000Y-135750000I-2000000J0D01*
G01*
X61250000Y-139350000D02*
G75*
G03*
X60750000Y-139850000I0J-500000D01*
G01*
X60750000Y-139850000D02*
X60750000Y-142350000D01*
X49500000Y-141550000D02*
G75*
G03*
X46500000Y-141550000I-1500000J0D01*
G01*
X46500000Y-141550000D02*
G75*
G03*
X49500000Y-141550000I1500000J0D01*
G01*
X43250000Y-153250000D02*
G75*
G03*
X45250000Y-155250000I2000000J0D01*
G01*
X70750000Y-139850000D02*
G75*
G03*
X70250000Y-139350000I-500000J0D01*
G01*
X61250000Y-142850000D02*
X70250000Y-142850000D01*
X70250000Y-142850000D02*
G75*
G03*
X70750000Y-142350000I0J500000D01*
G01*
X85000000Y-141550000D02*
G75*
G03*
X82000000Y-141550000I-1500000J0D01*
G01*
X82000000Y-141550000D02*
G75*
G03*
X85000000Y-141550000I1500000J0D01*
G01*
X45250000Y-155250000D02*
X86250000Y-155250000D01*
X61250000Y-139350000D02*
X70250000Y-139350000D01*
X70750000Y-139850000D02*
X70750000Y-142350000D01*
X45250000Y-135750000D02*
X86250000Y-135750000D01*
X60750000Y-142350000D02*
G75*
G03*
X61250000Y-142850000I500000J0D01*
G01*
X133250000Y-118250000D02*
X133250000Y-133750000D01*
X89250001Y-116250000D02*
G75*
G03*
X89249999Y-116250000I-1J0D01*
G01*
X89249999Y-116250000D02*
G75*
G03*
X89250001Y-116250000I1J0D01*
G01*
X131250000Y-135750000D02*
G75*
G03*
X133250000Y-133750000I0J2000000D01*
G01*
X88250000Y-118250000D02*
X88250000Y-133750000D01*
X90250000Y-116250000D02*
G75*
G03*
X88250000Y-118250000I0J-2000000D01*
G01*
X133250000Y-118250000D02*
G75*
G03*
X131250000Y-116250000I-2000000J0D01*
G01*
X106250000Y-119850000D02*
G75*
G03*
X105750000Y-120350000I0J-500000D01*
G01*
X105750000Y-120350000D02*
X105750000Y-122850000D01*
X94500000Y-122050000D02*
G75*
G03*
X91500000Y-122050000I-1500000J0D01*
G01*
X91500000Y-122050000D02*
G75*
G03*
X94500000Y-122050000I1500000J0D01*
G01*
X88250000Y-133750000D02*
G75*
G03*
X90250000Y-135750000I2000000J0D01*
G01*
X115750000Y-120350000D02*
G75*
G03*
X115250000Y-119850000I-500000J0D01*
G01*
X106250000Y-123350000D02*
X115250000Y-123350000D01*
X115250000Y-123350000D02*
G75*
G03*
X115750000Y-122850000I0J500000D01*
G01*
X130000000Y-122050000D02*
G75*
G03*
X127000000Y-122050000I-1500000J0D01*
G01*
X127000000Y-122050000D02*
G75*
G03*
X130000000Y-122050000I1500000J0D01*
G01*
X90250000Y-135750000D02*
X131250000Y-135750000D01*
X106250000Y-119850000D02*
X115250000Y-119850000D01*
X115750000Y-120350000D02*
X115750000Y-122850000D01*
X90250000Y-116250000D02*
X131250000Y-116250000D01*
X105750000Y-122850000D02*
G75*
G03*
X106250000Y-123350000I500000J0D01*
G01*
X88250000Y-118250000D02*
X88250000Y-133750000D01*
X44250001Y-116250000D02*
G75*
G03*
X44249999Y-116250000I-1J0D01*
G01*
X44249999Y-116250000D02*
G75*
G03*
X44250001Y-116250000I1J0D01*
G01*
X86250000Y-135750000D02*
G75*
G03*
X88250000Y-133750000I0J2000000D01*
G01*
X43250000Y-118250000D02*
X43250000Y-133750000D01*
X45250000Y-116250000D02*
G75*
G03*
X43250000Y-118250000I0J-2000000D01*
G01*
X88250000Y-118250000D02*
G75*
G03*
X86250000Y-116250000I-2000000J0D01*
G01*
X61250000Y-119850000D02*
G75*
G03*
X60750000Y-120350000I0J-500000D01*
G01*
X60750000Y-120350000D02*
X60750000Y-122850000D01*
X49500000Y-122050000D02*
G75*
G03*
X46500000Y-122050000I-1500000J0D01*
G01*
X46500000Y-122050000D02*
G75*
G03*
X49500000Y-122050000I1500000J0D01*
G01*
X43250000Y-133750000D02*
G75*
G03*
X45250000Y-135750000I2000000J0D01*
G01*
X70750000Y-120350000D02*
G75*
G03*
X70250000Y-119850000I-500000J0D01*
G01*
X61250000Y-123350000D02*
X70250000Y-123350000D01*
X70250000Y-123350000D02*
G75*
G03*
X70750000Y-122850000I0J500000D01*
G01*
X85000000Y-122050000D02*
G75*
G03*
X82000000Y-122050000I-1500000J0D01*
G01*
X82000000Y-122050000D02*
G75*
G03*
X85000000Y-122050000I1500000J0D01*
G01*
X45250000Y-135750000D02*
X86250000Y-135750000D01*
X61250000Y-119850000D02*
X70250000Y-119850000D01*
X70750000Y-120350000D02*
X70750000Y-122850000D01*
X45250000Y-116250000D02*
X86250000Y-116250000D01*
X60750000Y-122850000D02*
G75*
G03*
X61250000Y-123350000I500000J0D01*
G01*
X133250000Y-98750000D02*
X133250000Y-114250000D01*
X89250001Y-96750000D02*
G75*
G03*
X89249999Y-96750000I-1J0D01*
G01*
X89249999Y-96750000D02*
G75*
G03*
X89250001Y-96750000I1J0D01*
G01*
X131250000Y-116250000D02*
G75*
G03*
X133250000Y-114250000I0J2000000D01*
G01*
X88250000Y-98750000D02*
X88250000Y-114250000D01*
X90250000Y-96750000D02*
G75*
G03*
X88250000Y-98750000I0J-2000000D01*
G01*
X133250000Y-98750000D02*
G75*
G03*
X131250000Y-96750000I-2000000J0D01*
G01*
X106250000Y-100350000D02*
G75*
G03*
X105750000Y-100850000I0J-500000D01*
G01*
X105750000Y-100850000D02*
X105750000Y-103350000D01*
X94500000Y-102550000D02*
G75*
G03*
X91500000Y-102550000I-1500000J0D01*
G01*
X91500000Y-102550000D02*
G75*
G03*
X94500000Y-102550000I1500000J0D01*
G01*
X88250000Y-114250000D02*
G75*
G03*
X90250000Y-116250000I2000000J0D01*
G01*
X115750000Y-100850000D02*
G75*
G03*
X115250000Y-100350000I-500000J0D01*
G01*
X106250000Y-103850000D02*
X115250000Y-103850000D01*
X115250000Y-103850000D02*
G75*
G03*
X115750000Y-103350000I0J500000D01*
G01*
X130000000Y-102550000D02*
G75*
G03*
X127000000Y-102550000I-1500000J0D01*
G01*
X127000000Y-102550000D02*
G75*
G03*
X130000000Y-102550000I1500000J0D01*
G01*
X90250000Y-116250000D02*
X131250000Y-116250000D01*
X106250000Y-100350000D02*
X115250000Y-100350000D01*
X115750000Y-100850000D02*
X115750000Y-103350000D01*
X90250000Y-96750000D02*
X131250000Y-96750000D01*
X105750000Y-103350000D02*
G75*
G03*
X106250000Y-103850000I500000J0D01*
G01*
X88250000Y-98750000D02*
X88250000Y-114250000D01*
X44250001Y-96750000D02*
G75*
G03*
X44249999Y-96750000I-1J0D01*
G01*
X44249999Y-96750000D02*
G75*
G03*
X44250001Y-96750000I1J0D01*
G01*
X86250000Y-116250000D02*
G75*
G03*
X88250000Y-114250000I0J2000000D01*
G01*
X43250000Y-98750000D02*
X43250000Y-114250000D01*
X45250000Y-96750000D02*
G75*
G03*
X43250000Y-98750000I0J-2000000D01*
G01*
X88250000Y-98750000D02*
G75*
G03*
X86250000Y-96750000I-2000000J0D01*
G01*
X61250000Y-100350000D02*
G75*
G03*
X60750000Y-100850000I0J-500000D01*
G01*
X60750000Y-100850000D02*
X60750000Y-103350000D01*
X49500000Y-102550000D02*
G75*
G03*
X46500000Y-102550000I-1500000J0D01*
G01*
X46500000Y-102550000D02*
G75*
G03*
X49500000Y-102550000I1500000J0D01*
G01*
X43250000Y-114250000D02*
G75*
G03*
X45250000Y-116250000I2000000J0D01*
G01*
X70750000Y-100850000D02*
G75*
G03*
X70250000Y-100350000I-500000J0D01*
G01*
X61250000Y-103850000D02*
X70250000Y-103850000D01*
X70250000Y-103850000D02*
G75*
G03*
X70750000Y-103350000I0J500000D01*
G01*
X85000000Y-102550000D02*
G75*
G03*
X82000000Y-102550000I-1500000J0D01*
G01*
X82000000Y-102550000D02*
G75*
G03*
X85000000Y-102550000I1500000J0D01*
G01*
X45250000Y-116250000D02*
X86250000Y-116250000D01*
X61250000Y-100350000D02*
X70250000Y-100350000D01*
X70750000Y-100850000D02*
X70750000Y-103350000D01*
X45250000Y-96750000D02*
X86250000Y-96750000D01*
X60750000Y-103350000D02*
G75*
G03*
X61250000Y-103850000I500000J0D01*
G01*
X133250000Y-79250000D02*
X133250000Y-94750000D01*
X89250001Y-77250000D02*
G75*
G03*
X89249999Y-77250000I-1J0D01*
G01*
X89249999Y-77250000D02*
G75*
G03*
X89250001Y-77250000I1J0D01*
G01*
X131250000Y-96750000D02*
G75*
G03*
X133250000Y-94750000I0J2000000D01*
G01*
X88250000Y-79250000D02*
X88250000Y-94750000D01*
X90250000Y-77250000D02*
G75*
G03*
X88250000Y-79250000I0J-2000000D01*
G01*
X133250000Y-79250000D02*
G75*
G03*
X131250000Y-77250000I-2000000J0D01*
G01*
X106250000Y-80850000D02*
G75*
G03*
X105750000Y-81350000I0J-500000D01*
G01*
X105750000Y-81350000D02*
X105750000Y-83850000D01*
X94500000Y-83050000D02*
G75*
G03*
X91500000Y-83050000I-1500000J0D01*
G01*
X91500000Y-83050000D02*
G75*
G03*
X94500000Y-83050000I1500000J0D01*
G01*
X88250000Y-94750000D02*
G75*
G03*
X90250000Y-96750000I2000000J0D01*
G01*
X115750000Y-81350000D02*
G75*
G03*
X115250000Y-80850000I-500000J0D01*
G01*
X106250000Y-84350000D02*
X115250000Y-84350000D01*
X115250000Y-84350000D02*
G75*
G03*
X115750000Y-83850000I0J500000D01*
G01*
X130000000Y-83050000D02*
G75*
G03*
X127000000Y-83050000I-1500000J0D01*
G01*
X127000000Y-83050000D02*
G75*
G03*
X130000000Y-83050000I1500000J0D01*
G01*
X90250000Y-96750000D02*
X131250000Y-96750000D01*
X106250000Y-80850000D02*
X115250000Y-80850000D01*
X115750000Y-81350000D02*
X115750000Y-83850000D01*
X90250000Y-77250000D02*
X131250000Y-77250000D01*
X105750000Y-83850000D02*
G75*
G03*
X106250000Y-84350000I500000J0D01*
G01*
X88250000Y-79250000D02*
X88250000Y-94750000D01*
X44250001Y-77250000D02*
G75*
G03*
X44249999Y-77250000I-1J0D01*
G01*
X44249999Y-77250000D02*
G75*
G03*
X44250001Y-77250000I1J0D01*
G01*
X86250000Y-96750000D02*
G75*
G03*
X88250000Y-94750000I0J2000000D01*
G01*
X43250000Y-79250000D02*
X43250000Y-94750000D01*
X45250000Y-77250000D02*
G75*
G03*
X43250000Y-79250000I0J-2000000D01*
G01*
X88250000Y-79250000D02*
G75*
G03*
X86250000Y-77250000I-2000000J0D01*
G01*
X61250000Y-80850000D02*
G75*
G03*
X60750000Y-81350000I0J-500000D01*
G01*
X60750000Y-81350000D02*
X60750000Y-83850000D01*
X49500000Y-83050000D02*
G75*
G03*
X46500000Y-83050000I-1500000J0D01*
G01*
X46500000Y-83050000D02*
G75*
G03*
X49500000Y-83050000I1500000J0D01*
G01*
X43250000Y-94750000D02*
G75*
G03*
X45250000Y-96750000I2000000J0D01*
G01*
X70750000Y-81350000D02*
G75*
G03*
X70250000Y-80850000I-500000J0D01*
G01*
X61250000Y-84350000D02*
X70250000Y-84350000D01*
X70250000Y-84350000D02*
G75*
G03*
X70750000Y-83850000I0J500000D01*
G01*
X85000000Y-83050000D02*
G75*
G03*
X82000000Y-83050000I-1500000J0D01*
G01*
X82000000Y-83050000D02*
G75*
G03*
X85000000Y-83050000I1500000J0D01*
G01*
X45250000Y-96750000D02*
X86250000Y-96750000D01*
X61250000Y-80850000D02*
X70250000Y-80850000D01*
X70750000Y-81350000D02*
X70750000Y-83850000D01*
X45250000Y-77250000D02*
X86250000Y-77250000D01*
X60750000Y-83850000D02*
G75*
G03*
X61250000Y-84350000I500000J0D01*
G01*
X133250000Y-59750000D02*
X133250000Y-75250000D01*
X89250001Y-57750000D02*
G75*
G03*
X89249999Y-57750000I-1J0D01*
G01*
X89249999Y-57750000D02*
G75*
G03*
X89250001Y-57750000I1J0D01*
G01*
X131250000Y-77250000D02*
G75*
G03*
X133250000Y-75250000I0J2000000D01*
G01*
X88250000Y-59750000D02*
X88250000Y-75250000D01*
X90250000Y-57750000D02*
G75*
G03*
X88250000Y-59750000I0J-2000000D01*
G01*
X133250000Y-59750000D02*
G75*
G03*
X131250000Y-57750000I-2000000J0D01*
G01*
X106250000Y-61350000D02*
G75*
G03*
X105750000Y-61850000I0J-500000D01*
G01*
X105750000Y-61850000D02*
X105750000Y-64350000D01*
X94500000Y-63550000D02*
G75*
G03*
X91500000Y-63550000I-1500000J0D01*
G01*
X91500000Y-63550000D02*
G75*
G03*
X94500000Y-63550000I1500000J0D01*
G01*
X88250000Y-75250000D02*
G75*
G03*
X90250000Y-77250000I2000000J0D01*
G01*
X115750000Y-61850000D02*
G75*
G03*
X115250000Y-61350000I-500000J0D01*
G01*
X106250000Y-64850000D02*
X115250000Y-64850000D01*
X115250000Y-64850000D02*
G75*
G03*
X115750000Y-64350000I0J500000D01*
G01*
X130000000Y-63550000D02*
G75*
G03*
X127000000Y-63550000I-1500000J0D01*
G01*
X127000000Y-63550000D02*
G75*
G03*
X130000000Y-63550000I1500000J0D01*
G01*
X90250000Y-77250000D02*
X131250000Y-77250000D01*
X106250000Y-61350000D02*
X115250000Y-61350000D01*
X115750000Y-61850000D02*
X115750000Y-64350000D01*
X90250000Y-57750000D02*
X131250000Y-57750000D01*
X105750000Y-64350000D02*
G75*
G03*
X106250000Y-64850000I500000J0D01*
G01*
X88250000Y-59750000D02*
X88250000Y-75250000D01*
X70750000Y-61850000D02*
G75*
G03*
X70250000Y-61350000I-500000J0D01*
G01*
X60750000Y-61850000D02*
X60750000Y-64350000D01*
X44250001Y-57750000D02*
G75*
G03*
X44249999Y-57750000I-1J0D01*
G01*
X44249999Y-57750000D02*
G75*
G03*
X44250001Y-57750000I1J0D01*
G01*
X61250000Y-61350000D02*
G75*
G03*
X60750000Y-61850000I0J-500000D01*
G01*
X86250000Y-77250000D02*
G75*
G03*
X88250000Y-75250000I0J2000000D01*
G01*
X88250000Y-59750000D02*
G75*
G03*
X86250000Y-57750000I-2000000J0D01*
G01*
X43250000Y-75250000D02*
G75*
G03*
X45250000Y-77250000I2000000J0D01*
G01*
X49500000Y-63550000D02*
G75*
G03*
X46500000Y-63550000I-1500000J0D01*
G01*
X46500000Y-63550000D02*
G75*
G03*
X49500000Y-63550000I1500000J0D01*
G01*
X85000000Y-63550000D02*
G75*
G03*
X82000000Y-63550000I-1500000J0D01*
G01*
X82000000Y-63550000D02*
G75*
G03*
X85000000Y-63550000I1500000J0D01*
G01*
X70250000Y-64850000D02*
G75*
G03*
X70750000Y-64350000I0J500000D01*
G01*
X45250000Y-77250000D02*
X86250000Y-77250000D01*
X61250000Y-61350000D02*
X70250000Y-61350000D01*
X45250000Y-57750000D02*
X86250000Y-57750000D01*
X70750000Y-61850000D02*
X70750000Y-64350000D01*
X60750000Y-64350000D02*
G75*
G03*
X61250000Y-64850000I500000J0D01*
G01*
X45250000Y-57750000D02*
G75*
G03*
X43250000Y-59750000I0J-2000000D01*
G01*
X61250000Y-64850000D02*
X70250000Y-64850000D01*
X43250000Y-59750000D02*
X43250000Y-75250000D01*
M02*
