%TF.GenerationSoftware,KiCad,Pcbnew,7.0.11+dfsg-1build4*%
%TF.CreationDate,2026-09-10T16:33:41-05:00*%
%TF.ProjectId,,58585858-5858-4585-9858-585858585858,rev?*%
%TF.SameCoordinates,Original*%
%TF.FileFunction,Copper,L1,Top*%
%TF.FilePolarity,Positive*%
%FSLAX46Y46*%
G04 Gerber Fmt 4.6, Leading zero omitted, Abs format (unit mm)*
G04 Created by KiCad (PCBNEW 7.0.11+dfsg-1build4) date 2026-09-10 16:33:41*
%MOMM*%
%LPD*%
G01*
G04 APERTURE LIST*
%TA.AperFunction,ComponentPad*%
%ADD10C,3.400000*%
%TD*%
%TA.AperFunction,Profile*%
%ADD11C,0.050000*%
%TD*%
G04 APERTURE END LIST*
D10*
%TO.P,H4,1,1*%
%TO.N,GND*%
X130450000Y-151850000D03*
%TD*%
%TO.P,H3,1,1*%
%TO.N,GND*%
X91050000Y-151850000D03*
%TD*%
%TO.P,H4,1,1*%
%TO.N,GND*%
X85450000Y-151850000D03*
%TD*%
%TO.P,H3,1,1*%
%TO.N,GND*%
X46050000Y-151850000D03*
%TD*%
%TO.P,H4,1,1*%
%TO.N,GND*%
X130450000Y-132350000D03*
%TD*%
%TO.P,H3,1,1*%
%TO.N,GND*%
X91050000Y-132350000D03*
%TD*%
%TO.P,H4,1,1*%
%TO.N,GND*%
X85450000Y-132350000D03*
%TD*%
%TO.P,H3,1,1*%
%TO.N,GND*%
X46050000Y-132350000D03*
%TD*%
%TO.P,H4,1,1*%
%TO.N,GND*%
X130450000Y-112850000D03*
%TD*%
%TO.P,H3,1,1*%
%TO.N,GND*%
X91050000Y-112850000D03*
%TD*%
%TO.P,H4,1,1*%
%TO.N,GND*%
X85450000Y-112850000D03*
%TD*%
%TO.P,H3,1,1*%
%TO.N,GND*%
X46050000Y-112850000D03*
%TD*%
%TO.P,H4,1,1*%
%TO.N,GND*%
X130450000Y-93350000D03*
%TD*%
%TO.P,H3,1,1*%
%TO.N,GND*%
X91050000Y-93350000D03*
%TD*%
%TO.P,H4,1,1*%
%TO.N,GND*%
X85450000Y-93350000D03*
%TD*%
%TO.P,H3,1,1*%
%TO.N,GND*%
X46050000Y-93350000D03*
%TD*%
%TO.P,H4,1,1*%
%TO.N,GND*%
X130450000Y-73850000D03*
%TD*%
%TO.P,H3,1,1*%
%TO.N,GND*%
X91050000Y-73850000D03*
%TD*%
%TO.P,H3,1,1*%
%TO.N,GND*%
X46050000Y-73850000D03*
%TD*%
%TO.P,H4,1,1*%
%TO.N,GND*%
X85450000Y-73850000D03*
%TD*%
%TA.AperFunction,Conductor*%
%TO.N,GND*%
G36*
X86254418Y-58250816D02*
G01*
X86454561Y-58265130D01*
X86472063Y-58267647D01*
X86663797Y-58309355D01*
X86680755Y-58314334D01*
X86864609Y-58382909D01*
X86880701Y-58390259D01*
X87052904Y-58484288D01*
X87067784Y-58493849D01*
X87224867Y-58611441D01*
X87238237Y-58623027D01*
X87376972Y-58761762D01*
X87388558Y-58775132D01*
X87506146Y-58932210D01*
X87515711Y-58947095D01*
X87609740Y-59119298D01*
X87617090Y-59135390D01*
X87685662Y-59319236D01*
X87690646Y-59336212D01*
X87732351Y-59527931D01*
X87734869Y-59545442D01*
X87749184Y-59745580D01*
X87749500Y-59754427D01*
X87749500Y-73028839D01*
X87729815Y-73095878D01*
X87677011Y-73141633D01*
X87607853Y-73151577D01*
X87544297Y-73122552D01*
X87508081Y-73068697D01*
X87486899Y-73006297D01*
X87486895Y-73006287D01*
X87359346Y-72747643D01*
X87199124Y-72507854D01*
X87174161Y-72479390D01*
X87174160Y-72479390D01*
X86673609Y-72979941D01*
X86557368Y-72830596D01*
X86374477Y-72662232D01*
X86319882Y-72626563D01*
X86820608Y-72125838D01*
X86820608Y-72125835D01*
X86792152Y-72100881D01*
X86792146Y-72100876D01*
X86552356Y-71940653D01*
X86293712Y-71813104D01*
X86293702Y-71813100D01*
X86020635Y-71720407D01*
X86020615Y-71720402D01*
X85737784Y-71664144D01*
X85737757Y-71664140D01*
X85450007Y-71645280D01*
X85449993Y-71645280D01*
X85162242Y-71664140D01*
X85162215Y-71664144D01*
X84879384Y-71720402D01*
X84879364Y-71720407D01*
X84606297Y-71813100D01*
X84606287Y-71813104D01*
X84347643Y-71940653D01*
X84107851Y-72100878D01*
X84079390Y-72125837D01*
X84580117Y-72626564D01*
X84525523Y-72662232D01*
X84342632Y-72830596D01*
X84226389Y-72979942D01*
X83725837Y-72479390D01*
X83700878Y-72507851D01*
X83540653Y-72747643D01*
X83413104Y-73006287D01*
X83413100Y-73006297D01*
X83320407Y-73279364D01*
X83320402Y-73279384D01*
X83264144Y-73562215D01*
X83264140Y-73562242D01*
X83245280Y-73849992D01*
X83245280Y-73850007D01*
X83264140Y-74137757D01*
X83264144Y-74137784D01*
X83320402Y-74420615D01*
X83320407Y-74420635D01*
X83413100Y-74693702D01*
X83413104Y-74693712D01*
X83540653Y-74952356D01*
X83700876Y-75192146D01*
X83700881Y-75192152D01*
X83725835Y-75220608D01*
X83725838Y-75220608D01*
X84226389Y-74720056D01*
X84342632Y-74869404D01*
X84525523Y-75037768D01*
X84580115Y-75073435D01*
X84079390Y-75574160D01*
X84079390Y-75574161D01*
X84107854Y-75599124D01*
X84347643Y-75759346D01*
X84606287Y-75886895D01*
X84606297Y-75886899D01*
X84879364Y-75979592D01*
X84879384Y-75979597D01*
X85162215Y-76035855D01*
X85162242Y-76035859D01*
X85449993Y-76054720D01*
X85450007Y-76054720D01*
X85737757Y-76035859D01*
X85737784Y-76035855D01*
X86020615Y-75979597D01*
X86020635Y-75979592D01*
X86293702Y-75886899D01*
X86293712Y-75886895D01*
X86552356Y-75759346D01*
X86792141Y-75599126D01*
X86792147Y-75599121D01*
X86820608Y-75574162D01*
X86820608Y-75574161D01*
X86319882Y-75073435D01*
X86374477Y-75037768D01*
X86557368Y-74869404D01*
X86673610Y-74720057D01*
X87174161Y-75220608D01*
X87174162Y-75220608D01*
X87199121Y-75192147D01*
X87199126Y-75192141D01*
X87359346Y-74952356D01*
X87486894Y-74693714D01*
X87508080Y-74631302D01*
X87548269Y-74574148D01*
X87612978Y-74547794D01*
X87681663Y-74560608D01*
X87732516Y-74608521D01*
X87749500Y-74671160D01*
X87749500Y-75245572D01*
X87749184Y-75254419D01*
X87734869Y-75454557D01*
X87732351Y-75472068D01*
X87690646Y-75663787D01*
X87685662Y-75680763D01*
X87617090Y-75864609D01*
X87609740Y-75880701D01*
X87515711Y-76052904D01*
X87506146Y-76067789D01*
X87388558Y-76224867D01*
X87376972Y-76238237D01*
X87238237Y-76376972D01*
X87224867Y-76388558D01*
X87067789Y-76506146D01*
X87052904Y-76515711D01*
X86880701Y-76609740D01*
X86864609Y-76617090D01*
X86680763Y-76685662D01*
X86663787Y-76690646D01*
X86472068Y-76732351D01*
X86454557Y-76734869D01*
X86273779Y-76747799D01*
X86254417Y-76749184D01*
X86245572Y-76749500D01*
X45254428Y-76749500D01*
X45245582Y-76749184D01*
X45223622Y-76747613D01*
X45045442Y-76734869D01*
X45027931Y-76732351D01*
X44836212Y-76690646D01*
X44819236Y-76685662D01*
X44635390Y-76617090D01*
X44619298Y-76609740D01*
X44447095Y-76515711D01*
X44432210Y-76506146D01*
X44275132Y-76388558D01*
X44261762Y-76376972D01*
X44123027Y-76238237D01*
X44111441Y-76224867D01*
X43993849Y-76067784D01*
X43984288Y-76052904D01*
X43890259Y-75880701D01*
X43882909Y-75864609D01*
X43814334Y-75680755D01*
X43809355Y-75663797D01*
X43767647Y-75472063D01*
X43765130Y-75454556D01*
X43750816Y-75254418D01*
X43750500Y-75245572D01*
X43750500Y-74671160D01*
X43770185Y-74604121D01*
X43822989Y-74558366D01*
X43892147Y-74548422D01*
X43955703Y-74577447D01*
X43991920Y-74631302D01*
X44013105Y-74693714D01*
X44140653Y-74952356D01*
X44300876Y-75192146D01*
X44300881Y-75192152D01*
X44325835Y-75220608D01*
X44325838Y-75220608D01*
X44826389Y-74720056D01*
X44942632Y-74869404D01*
X45125523Y-75037768D01*
X45180115Y-75073435D01*
X44679390Y-75574160D01*
X44679390Y-75574161D01*
X44707854Y-75599124D01*
X44947643Y-75759346D01*
X45206287Y-75886895D01*
X45206297Y-75886899D01*
X45479364Y-75979592D01*
X45479384Y-75979597D01*
X45762215Y-76035855D01*
X45762242Y-76035859D01*
X46049993Y-76054720D01*
X46050007Y-76054720D01*
X46337757Y-76035859D01*
X46337784Y-76035855D01*
X46620615Y-75979597D01*
X46620635Y-75979592D01*
X46893702Y-75886899D01*
X46893712Y-75886895D01*
X47152356Y-75759346D01*
X47392141Y-75599126D01*
X47392147Y-75599121D01*
X47420608Y-75574162D01*
X47420608Y-75574161D01*
X46919882Y-75073435D01*
X46974477Y-75037768D01*
X47157368Y-74869404D01*
X47273610Y-74720057D01*
X47774161Y-75220608D01*
X47774162Y-75220608D01*
X47799121Y-75192147D01*
X47799126Y-75192141D01*
X47959346Y-74952356D01*
X48086895Y-74693712D01*
X48086899Y-74693702D01*
X48179592Y-74420635D01*
X48179597Y-74420615D01*
X48235855Y-74137784D01*
X48235859Y-74137757D01*
X48254720Y-73850007D01*
X48254720Y-73849992D01*
X48235859Y-73562242D01*
X48235855Y-73562215D01*
X48179597Y-73279384D01*
X48179592Y-73279364D01*
X48086899Y-73006297D01*
X48086895Y-73006287D01*
X47959346Y-72747643D01*
X47799124Y-72507854D01*
X47774161Y-72479390D01*
X47774160Y-72479390D01*
X47273609Y-72979941D01*
X47157368Y-72830596D01*
X46974477Y-72662232D01*
X46919882Y-72626563D01*
X47420608Y-72125838D01*
X47420608Y-72125835D01*
X47392152Y-72100881D01*
X47392146Y-72100876D01*
X47152356Y-71940653D01*
X46893712Y-71813104D01*
X46893702Y-71813100D01*
X46620635Y-71720407D01*
X46620615Y-71720402D01*
X46337784Y-71664144D01*
X46337757Y-71664140D01*
X46050007Y-71645280D01*
X46049993Y-71645280D01*
X45762242Y-71664140D01*
X45762215Y-71664144D01*
X45479384Y-71720402D01*
X45479364Y-71720407D01*
X45206297Y-71813100D01*
X45206287Y-71813104D01*
X44947643Y-71940653D01*
X44707851Y-72100878D01*
X44679390Y-72125837D01*
X45180117Y-72626564D01*
X45125523Y-72662232D01*
X44942632Y-72830596D01*
X44826389Y-72979942D01*
X44325837Y-72479390D01*
X44300878Y-72507851D01*
X44140653Y-72747643D01*
X44013104Y-73006287D01*
X44013100Y-73006297D01*
X43991919Y-73068697D01*
X43951731Y-73125852D01*
X43887022Y-73152205D01*
X43818337Y-73139391D01*
X43767484Y-73091477D01*
X43750500Y-73028839D01*
X43750500Y-67750000D01*
X51250000Y-67750000D01*
X51750000Y-69000000D01*
X53000000Y-69500000D01*
X54250000Y-69000000D01*
X54750000Y-67750000D01*
X76750000Y-67750000D01*
X77250000Y-69000000D01*
X78500000Y-69500000D01*
X79750000Y-69000000D01*
X80250000Y-67750000D01*
X79750000Y-66500000D01*
X78500000Y-66000000D01*
X77250000Y-66500000D01*
X76750000Y-67750000D01*
X54750000Y-67750000D01*
X54250000Y-66500000D01*
X53000000Y-66000000D01*
X51750000Y-66500000D01*
X51250000Y-67750000D01*
X43750500Y-67750000D01*
X43750500Y-61281187D01*
X44299500Y-61281187D01*
X44318685Y-61408462D01*
X44338604Y-61540615D01*
X44338605Y-61540617D01*
X44338606Y-61540623D01*
X44415938Y-61791326D01*
X44529767Y-62027696D01*
X44529768Y-62027697D01*
X44529770Y-62027700D01*
X44529772Y-62027704D01*
X44534249Y-62034270D01*
X44677567Y-62244479D01*
X44856014Y-62436801D01*
X44856018Y-62436804D01*
X44856019Y-62436805D01*
X45061143Y-62600386D01*
X45288357Y-62731568D01*
X45532584Y-62827420D01*
X45788370Y-62885802D01*
X45788376Y-62885802D01*
X45788379Y-62885803D01*
X45950031Y-62897917D01*
X46015412Y-62922556D01*
X46057093Y-62978631D01*
X46061931Y-63047928D01*
X46014804Y-63264566D01*
X45994390Y-63549998D01*
X45994390Y-63550001D01*
X46014804Y-63835433D01*
X46075628Y-64115037D01*
X46175635Y-64383166D01*
X46312770Y-64634309D01*
X46312775Y-64634317D01*
X46484254Y-64863387D01*
X46484270Y-64863405D01*
X46686594Y-65065729D01*
X46686612Y-65065745D01*
X46915682Y-65237224D01*
X46915690Y-65237229D01*
X47166833Y-65374364D01*
X47166832Y-65374364D01*
X47166836Y-65374365D01*
X47166839Y-65374367D01*
X47434954Y-65474369D01*
X47434960Y-65474370D01*
X47434962Y-65474371D01*
X47714566Y-65535195D01*
X47714568Y-65535195D01*
X47714572Y-65535196D01*
X47968220Y-65553337D01*
X47999999Y-65555610D01*
X48000000Y-65555610D01*
X48000001Y-65555610D01*
X48028595Y-65553564D01*
X48285428Y-65535196D01*
X48565046Y-65474369D01*
X48833161Y-65374367D01*
X49084315Y-65237226D01*
X49313395Y-65065739D01*
X49515739Y-64863395D01*
X49687226Y-64634315D01*
X49794677Y-64437534D01*
X60249500Y-64437534D01*
X60279898Y-64609937D01*
X60339775Y-64774446D01*
X60427309Y-64926057D01*
X60539836Y-65060163D01*
X60673942Y-65172690D01*
X60785716Y-65237224D01*
X60825555Y-65260225D01*
X60990062Y-65320101D01*
X61162468Y-65350500D01*
X61162472Y-65350500D01*
X70337528Y-65350500D01*
X70337532Y-65350500D01*
X70509938Y-65320101D01*
X70674445Y-65260225D01*
X70826055Y-65172692D01*
X70960163Y-65060163D01*
X71072692Y-64926055D01*
X71160225Y-64774445D01*
X71220101Y-64609938D01*
X71250500Y-64437532D01*
X71250500Y-64350000D01*
X71250500Y-64284108D01*
X71250500Y-63550001D01*
X81494390Y-63550001D01*
X81514804Y-63835433D01*
X81575628Y-64115037D01*
X81675635Y-64383166D01*
X81812770Y-64634309D01*
X81812775Y-64634317D01*
X81984254Y-64863387D01*
X81984270Y-64863405D01*
X82186594Y-65065729D01*
X82186612Y-65065745D01*
X82415682Y-65237224D01*
X82415690Y-65237229D01*
X82666833Y-65374364D01*
X82666832Y-65374364D01*
X82666836Y-65374365D01*
X82666839Y-65374367D01*
X82934954Y-65474369D01*
X82934960Y-65474370D01*
X82934962Y-65474371D01*
X83214566Y-65535195D01*
X83214568Y-65535195D01*
X83214572Y-65535196D01*
X83468220Y-65553337D01*
X83499999Y-65555610D01*
X83500000Y-65555610D01*
X83500001Y-65555610D01*
X83528595Y-65553564D01*
X83785428Y-65535196D01*
X84065046Y-65474369D01*
X84333161Y-65374367D01*
X84584315Y-65237226D01*
X84813395Y-65065739D01*
X85015739Y-64863395D01*
X85187226Y-64634315D01*
X85324367Y-64383161D01*
X85424369Y-64115046D01*
X85485196Y-63835428D01*
X85505610Y-63550000D01*
X85485196Y-63264572D01*
X85438068Y-63047927D01*
X85443052Y-62978237D01*
X85484923Y-62922303D01*
X85549968Y-62897917D01*
X85711620Y-62885803D01*
X85711622Y-62885802D01*
X85711630Y-62885802D01*
X85967416Y-62827420D01*
X86211643Y-62731568D01*
X86438857Y-62600386D01*
X86643981Y-62436805D01*
X86822433Y-62244479D01*
X86970228Y-62027704D01*
X87084063Y-61791323D01*
X87161396Y-61540615D01*
X87200500Y-61281182D01*
X87200500Y-61018818D01*
X87161396Y-60759385D01*
X87084063Y-60508677D01*
X87072121Y-60483880D01*
X86970232Y-60272303D01*
X86970231Y-60272302D01*
X86970230Y-60272301D01*
X86970228Y-60272296D01*
X86822433Y-60055521D01*
X86812441Y-60044753D01*
X86643985Y-59863198D01*
X86507590Y-59754427D01*
X86438857Y-59699614D01*
X86211643Y-59568432D01*
X85967416Y-59472580D01*
X85967411Y-59472578D01*
X85967402Y-59472576D01*
X85749818Y-59422914D01*
X85711630Y-59414198D01*
X85711629Y-59414197D01*
X85711625Y-59414197D01*
X85711620Y-59414196D01*
X85515515Y-59399500D01*
X85515494Y-59399500D01*
X85384506Y-59399500D01*
X85384484Y-59399500D01*
X85188379Y-59414196D01*
X85188374Y-59414197D01*
X84932597Y-59472576D01*
X84932578Y-59472582D01*
X84688356Y-59568432D01*
X84461143Y-59699614D01*
X84256014Y-59863198D01*
X84077567Y-60055520D01*
X83929768Y-60272302D01*
X83929767Y-60272303D01*
X83815938Y-60508673D01*
X83738606Y-60759376D01*
X83738605Y-60759381D01*
X83738604Y-60759385D01*
X83725021Y-60849500D01*
X83699500Y-61018812D01*
X83699500Y-61281189D01*
X83718684Y-61408463D01*
X83709211Y-61477687D01*
X83663816Y-61530801D01*
X83596912Y-61550941D01*
X83587223Y-61550628D01*
X83500001Y-61544390D01*
X83499999Y-61544390D01*
X83214566Y-61564804D01*
X82934962Y-61625628D01*
X82666833Y-61725635D01*
X82415690Y-61862770D01*
X82415682Y-61862775D01*
X82186612Y-62034254D01*
X82186594Y-62034270D01*
X81984270Y-62236594D01*
X81984254Y-62236612D01*
X81812775Y-62465682D01*
X81812770Y-62465690D01*
X81675635Y-62716833D01*
X81575628Y-62984962D01*
X81514804Y-63264566D01*
X81494390Y-63549998D01*
X81494390Y-63550001D01*
X71250500Y-63550001D01*
X71250500Y-61814201D01*
X71250500Y-61762468D01*
X71220101Y-61590062D01*
X71160225Y-61425555D01*
X71072692Y-61273945D01*
X71072691Y-61273943D01*
X71072690Y-61273942D01*
X70960163Y-61139836D01*
X70826057Y-61027309D01*
X70674446Y-60939775D01*
X70509937Y-60879898D01*
X70337534Y-60849500D01*
X70337532Y-60849500D01*
X70285799Y-60849500D01*
X61315892Y-60849500D01*
X61250000Y-60849500D01*
X61162468Y-60849500D01*
X61162465Y-60849500D01*
X60990062Y-60879898D01*
X60825553Y-60939775D01*
X60673942Y-61027309D01*
X60539836Y-61139836D01*
X60427309Y-61273942D01*
X60339775Y-61425553D01*
X60279898Y-61590062D01*
X60249500Y-61762465D01*
X60249500Y-64437534D01*
X49794677Y-64437534D01*
X49824367Y-64383161D01*
X49924369Y-64115046D01*
X49985196Y-63835428D01*
X50005610Y-63550000D01*
X49985196Y-63264572D01*
X49924369Y-62984954D01*
X49824367Y-62716839D01*
X49744025Y-62569705D01*
X49687229Y-62465690D01*
X49687224Y-62465682D01*
X49515745Y-62236612D01*
X49515729Y-62236594D01*
X49313405Y-62034270D01*
X49313387Y-62034254D01*
X49084317Y-61862775D01*
X49084309Y-61862770D01*
X48833166Y-61725635D01*
X48833167Y-61725635D01*
X48725915Y-61685632D01*
X48565046Y-61625631D01*
X48565043Y-61625630D01*
X48565037Y-61625628D01*
X48285433Y-61564804D01*
X48000001Y-61544390D01*
X47999999Y-61544390D01*
X47912776Y-61550628D01*
X47844503Y-61535776D01*
X47795098Y-61486371D01*
X47780246Y-61418098D01*
X47781315Y-61408462D01*
X47800499Y-61281187D01*
X47800500Y-61281182D01*
X47800500Y-61018817D01*
X47800499Y-61018812D01*
X47761396Y-60759385D01*
X47684063Y-60508677D01*
X47672121Y-60483880D01*
X47570232Y-60272303D01*
X47570231Y-60272302D01*
X47570230Y-60272301D01*
X47570228Y-60272296D01*
X47422433Y-60055521D01*
X47412441Y-60044753D01*
X47243985Y-59863198D01*
X47107590Y-59754427D01*
X47038857Y-59699614D01*
X46811643Y-59568432D01*
X46567416Y-59472580D01*
X46567411Y-59472578D01*
X46567402Y-59472576D01*
X46349818Y-59422914D01*
X46311630Y-59414198D01*
X46311629Y-59414197D01*
X46311625Y-59414197D01*
X46311620Y-59414196D01*
X46115515Y-59399500D01*
X46115494Y-59399500D01*
X45984506Y-59399500D01*
X45984484Y-59399500D01*
X45788379Y-59414196D01*
X45788374Y-59414197D01*
X45532597Y-59472576D01*
X45532578Y-59472582D01*
X45288356Y-59568432D01*
X45061143Y-59699614D01*
X44856014Y-59863198D01*
X44677567Y-60055520D01*
X44529768Y-60272302D01*
X44529767Y-60272303D01*
X44415938Y-60508673D01*
X44338606Y-60759376D01*
X44338605Y-60759381D01*
X44338604Y-60759385D01*
X44325021Y-60849500D01*
X44299500Y-61018812D01*
X44299500Y-61281187D01*
X43750500Y-61281187D01*
X43750500Y-59754427D01*
X43750816Y-59745581D01*
X43765130Y-59545443D01*
X43765131Y-59545442D01*
X43765130Y-59545436D01*
X43767646Y-59527938D01*
X43809356Y-59336199D01*
X43814333Y-59319248D01*
X43882911Y-59135385D01*
X43890259Y-59119298D01*
X43952815Y-59004734D01*
X43984291Y-58947089D01*
X43993845Y-58932221D01*
X44111448Y-58775123D01*
X44123020Y-58761769D01*
X44261769Y-58623020D01*
X44275123Y-58611448D01*
X44432221Y-58493845D01*
X44447089Y-58484291D01*
X44619298Y-58390258D01*
X44635385Y-58382911D01*
X44819248Y-58314333D01*
X44836199Y-58309356D01*
X45027938Y-58267646D01*
X45045436Y-58265130D01*
X45245582Y-58250816D01*
X45254428Y-58250500D01*
X45315892Y-58250500D01*
X86184108Y-58250500D01*
X86245572Y-58250500D01*
X86254418Y-58250816D01*
G37*
%TD.AperFunction*%
%TD*%
%TA.AperFunction,Conductor*%
%TO.N,GND*%
G36*
X131254418Y-58250816D02*
G01*
X131454561Y-58265130D01*
X131472063Y-58267647D01*
X131663797Y-58309355D01*
X131680755Y-58314334D01*
X131864609Y-58382909D01*
X131880701Y-58390259D01*
X132052904Y-58484288D01*
X132067784Y-58493849D01*
X132224867Y-58611441D01*
X132238237Y-58623027D01*
X132376972Y-58761762D01*
X132388558Y-58775132D01*
X132506146Y-58932210D01*
X132515711Y-58947095D01*
X132609740Y-59119298D01*
X132617090Y-59135390D01*
X132685662Y-59319236D01*
X132690646Y-59336212D01*
X132732351Y-59527931D01*
X132734869Y-59545442D01*
X132749184Y-59745580D01*
X132749500Y-59754427D01*
X132749500Y-73028839D01*
X132729815Y-73095878D01*
X132677011Y-73141633D01*
X132607853Y-73151577D01*
X132544297Y-73122552D01*
X132508081Y-73068697D01*
X132486899Y-73006297D01*
X132486895Y-73006287D01*
X132359346Y-72747643D01*
X132199124Y-72507854D01*
X132174161Y-72479390D01*
X132174160Y-72479390D01*
X131673609Y-72979941D01*
X131557368Y-72830596D01*
X131374477Y-72662232D01*
X131319882Y-72626563D01*
X131820608Y-72125838D01*
X131820608Y-72125835D01*
X131792152Y-72100881D01*
X131792146Y-72100876D01*
X131552356Y-71940653D01*
X131293712Y-71813104D01*
X131293702Y-71813100D01*
X131020635Y-71720407D01*
X131020615Y-71720402D01*
X130737784Y-71664144D01*
X130737757Y-71664140D01*
X130450007Y-71645280D01*
X130449993Y-71645280D01*
X130162242Y-71664140D01*
X130162215Y-71664144D01*
X129879384Y-71720402D01*
X129879364Y-71720407D01*
X129606297Y-71813100D01*
X129606287Y-71813104D01*
X129347643Y-71940653D01*
X129107851Y-72100878D01*
X129079390Y-72125837D01*
X129580117Y-72626564D01*
X129525523Y-72662232D01*
X129342632Y-72830596D01*
X129226389Y-72979942D01*
X128725837Y-72479390D01*
X128700878Y-72507851D01*
X128540653Y-72747643D01*
X128413104Y-73006287D01*
X128413100Y-73006297D01*
X128320407Y-73279364D01*
X128320402Y-73279384D01*
X128264144Y-73562215D01*
X128264140Y-73562242D01*
X128245280Y-73849992D01*
X128245280Y-73850007D01*
X128264140Y-74137757D01*
X128264144Y-74137784D01*
X128320402Y-74420615D01*
X128320407Y-74420635D01*
X128413100Y-74693702D01*
X128413104Y-74693712D01*
X128540653Y-74952356D01*
X128700876Y-75192146D01*
X128700881Y-75192152D01*
X128725835Y-75220608D01*
X128725838Y-75220608D01*
X129226389Y-74720056D01*
X129342632Y-74869404D01*
X129525523Y-75037768D01*
X129580115Y-75073435D01*
X129079390Y-75574160D01*
X129079390Y-75574161D01*
X129107854Y-75599124D01*
X129347643Y-75759346D01*
X129606287Y-75886895D01*
X129606297Y-75886899D01*
X129879364Y-75979592D01*
X129879384Y-75979597D01*
X130162215Y-76035855D01*
X130162242Y-76035859D01*
X130449993Y-76054720D01*
X130450007Y-76054720D01*
X130737757Y-76035859D01*
X130737784Y-76035855D01*
X131020615Y-75979597D01*
X131020635Y-75979592D01*
X131293702Y-75886899D01*
X131293712Y-75886895D01*
X131552356Y-75759346D01*
X131792141Y-75599126D01*
X131792147Y-75599121D01*
X131820608Y-75574162D01*
X131820608Y-75574161D01*
X131319882Y-75073435D01*
X131374477Y-75037768D01*
X131557368Y-74869404D01*
X131673610Y-74720057D01*
X132174161Y-75220608D01*
X132174162Y-75220608D01*
X132199121Y-75192147D01*
X132199126Y-75192141D01*
X132359346Y-74952356D01*
X132486894Y-74693714D01*
X132508080Y-74631302D01*
X132548269Y-74574148D01*
X132612978Y-74547794D01*
X132681663Y-74560608D01*
X132732516Y-74608521D01*
X132749500Y-74671160D01*
X132749500Y-75245572D01*
X132749184Y-75254419D01*
X132734869Y-75454557D01*
X132732351Y-75472068D01*
X132690646Y-75663787D01*
X132685662Y-75680763D01*
X132617090Y-75864609D01*
X132609740Y-75880701D01*
X132515711Y-76052904D01*
X132506146Y-76067789D01*
X132388558Y-76224867D01*
X132376972Y-76238237D01*
X132238237Y-76376972D01*
X132224867Y-76388558D01*
X132067789Y-76506146D01*
X132052904Y-76515711D01*
X131880701Y-76609740D01*
X131864609Y-76617090D01*
X131680763Y-76685662D01*
X131663787Y-76690646D01*
X131472068Y-76732351D01*
X131454557Y-76734869D01*
X131273779Y-76747799D01*
X131254417Y-76749184D01*
X131245572Y-76749500D01*
X90254428Y-76749500D01*
X90245582Y-76749184D01*
X90223622Y-76747613D01*
X90045442Y-76734869D01*
X90027931Y-76732351D01*
X89836212Y-76690646D01*
X89819236Y-76685662D01*
X89635390Y-76617090D01*
X89619298Y-76609740D01*
X89447095Y-76515711D01*
X89432210Y-76506146D01*
X89275132Y-76388558D01*
X89261762Y-76376972D01*
X89123027Y-76238237D01*
X89111441Y-76224867D01*
X88993849Y-76067784D01*
X88984288Y-76052904D01*
X88890259Y-75880701D01*
X88882909Y-75864609D01*
X88814334Y-75680755D01*
X88809355Y-75663797D01*
X88767647Y-75472063D01*
X88765130Y-75454556D01*
X88750816Y-75254418D01*
X88750500Y-75245572D01*
X88750500Y-74671160D01*
X88770185Y-74604121D01*
X88822989Y-74558366D01*
X88892147Y-74548422D01*
X88955703Y-74577447D01*
X88991920Y-74631302D01*
X89013105Y-74693714D01*
X89140653Y-74952356D01*
X89300876Y-75192146D01*
X89300881Y-75192152D01*
X89325835Y-75220608D01*
X89325838Y-75220608D01*
X89826389Y-74720056D01*
X89942632Y-74869404D01*
X90125523Y-75037768D01*
X90180115Y-75073435D01*
X89679390Y-75574160D01*
X89679390Y-75574161D01*
X89707854Y-75599124D01*
X89947643Y-75759346D01*
X90206287Y-75886895D01*
X90206297Y-75886899D01*
X90479364Y-75979592D01*
X90479384Y-75979597D01*
X90762215Y-76035855D01*
X90762242Y-76035859D01*
X91049993Y-76054720D01*
X91050007Y-76054720D01*
X91337757Y-76035859D01*
X91337784Y-76035855D01*
X91620615Y-75979597D01*
X91620635Y-75979592D01*
X91893702Y-75886899D01*
X91893712Y-75886895D01*
X92152356Y-75759346D01*
X92392141Y-75599126D01*
X92392147Y-75599121D01*
X92420608Y-75574162D01*
X92420608Y-75574161D01*
X91919882Y-75073435D01*
X91974477Y-75037768D01*
X92157368Y-74869404D01*
X92273610Y-74720057D01*
X92774161Y-75220608D01*
X92774162Y-75220608D01*
X92799121Y-75192147D01*
X92799126Y-75192141D01*
X92959346Y-74952356D01*
X93086895Y-74693712D01*
X93086899Y-74693702D01*
X93179592Y-74420635D01*
X93179597Y-74420615D01*
X93235855Y-74137784D01*
X93235859Y-74137757D01*
X93254720Y-73850007D01*
X93254720Y-73849992D01*
X93235859Y-73562242D01*
X93235855Y-73562215D01*
X93179597Y-73279384D01*
X93179592Y-73279364D01*
X93086899Y-73006297D01*
X93086895Y-73006287D01*
X92959346Y-72747643D01*
X92799124Y-72507854D01*
X92774161Y-72479390D01*
X92774160Y-72479390D01*
X92273609Y-72979941D01*
X92157368Y-72830596D01*
X91974477Y-72662232D01*
X91919882Y-72626563D01*
X92420608Y-72125838D01*
X92420608Y-72125835D01*
X92392152Y-72100881D01*
X92392146Y-72100876D01*
X92152356Y-71940653D01*
X91893712Y-71813104D01*
X91893702Y-71813100D01*
X91620635Y-71720407D01*
X91620615Y-71720402D01*
X91337784Y-71664144D01*
X91337757Y-71664140D01*
X91050007Y-71645280D01*
X91049993Y-71645280D01*
X90762242Y-71664140D01*
X90762215Y-71664144D01*
X90479384Y-71720402D01*
X90479364Y-71720407D01*
X90206297Y-71813100D01*
X90206287Y-71813104D01*
X89947643Y-71940653D01*
X89707851Y-72100878D01*
X89679390Y-72125837D01*
X90180117Y-72626564D01*
X90125523Y-72662232D01*
X89942632Y-72830596D01*
X89826389Y-72979942D01*
X89325837Y-72479390D01*
X89300878Y-72507851D01*
X89140653Y-72747643D01*
X89013104Y-73006287D01*
X89013100Y-73006297D01*
X88991919Y-73068697D01*
X88951731Y-73125852D01*
X88887022Y-73152205D01*
X88818337Y-73139391D01*
X88767484Y-73091477D01*
X88750500Y-73028839D01*
X88750500Y-67750000D01*
X96250000Y-67750000D01*
X96750000Y-69000000D01*
X98000000Y-69500000D01*
X99250000Y-69000000D01*
X99750000Y-67750000D01*
X121750000Y-67750000D01*
X122250000Y-69000000D01*
X123500000Y-69500000D01*
X124750000Y-69000000D01*
X125250000Y-67750000D01*
X124750000Y-66500000D01*
X123500000Y-66000000D01*
X122250000Y-66500000D01*
X121750000Y-67750000D01*
X99750000Y-67750000D01*
X99250000Y-66500000D01*
X98000000Y-66000000D01*
X96750000Y-66500000D01*
X96250000Y-67750000D01*
X88750500Y-67750000D01*
X88750500Y-61281187D01*
X89299500Y-61281187D01*
X89318685Y-61408462D01*
X89338604Y-61540615D01*
X89338605Y-61540617D01*
X89338606Y-61540623D01*
X89415938Y-61791326D01*
X89529767Y-62027696D01*
X89529768Y-62027697D01*
X89529770Y-62027700D01*
X89529772Y-62027704D01*
X89534249Y-62034270D01*
X89677567Y-62244479D01*
X89856014Y-62436801D01*
X89856018Y-62436804D01*
X89856019Y-62436805D01*
X90061143Y-62600386D01*
X90288357Y-62731568D01*
X90532584Y-62827420D01*
X90788370Y-62885802D01*
X90788376Y-62885802D01*
X90788379Y-62885803D01*
X90950031Y-62897917D01*
X91015412Y-62922556D01*
X91057093Y-62978631D01*
X91061931Y-63047928D01*
X91014804Y-63264566D01*
X90994390Y-63549998D01*
X90994390Y-63550001D01*
X91014804Y-63835433D01*
X91075628Y-64115037D01*
X91175635Y-64383166D01*
X91312770Y-64634309D01*
X91312775Y-64634317D01*
X91484254Y-64863387D01*
X91484270Y-64863405D01*
X91686594Y-65065729D01*
X91686612Y-65065745D01*
X91915682Y-65237224D01*
X91915690Y-65237229D01*
X92166833Y-65374364D01*
X92166832Y-65374364D01*
X92166836Y-65374365D01*
X92166839Y-65374367D01*
X92434954Y-65474369D01*
X92434960Y-65474370D01*
X92434962Y-65474371D01*
X92714566Y-65535195D01*
X92714568Y-65535195D01*
X92714572Y-65535196D01*
X92968220Y-65553337D01*
X92999999Y-65555610D01*
X93000000Y-65555610D01*
X93000001Y-65555610D01*
X93028595Y-65553564D01*
X93285428Y-65535196D01*
X93565046Y-65474369D01*
X93833161Y-65374367D01*
X94084315Y-65237226D01*
X94313395Y-65065739D01*
X94515739Y-64863395D01*
X94687226Y-64634315D01*
X94794677Y-64437534D01*
X105249500Y-64437534D01*
X105279898Y-64609937D01*
X105339775Y-64774446D01*
X105427309Y-64926057D01*
X105539836Y-65060163D01*
X105673942Y-65172690D01*
X105785716Y-65237224D01*
X105825555Y-65260225D01*
X105990062Y-65320101D01*
X106162468Y-65350500D01*
X106162472Y-65350500D01*
X115337528Y-65350500D01*
X115337532Y-65350500D01*
X115509938Y-65320101D01*
X115674445Y-65260225D01*
X115826055Y-65172692D01*
X115960163Y-65060163D01*
X116072692Y-64926055D01*
X116160225Y-64774445D01*
X116220101Y-64609938D01*
X116250500Y-64437532D01*
X116250500Y-64350000D01*
X116250500Y-64284108D01*
X116250500Y-63550001D01*
X126494390Y-63550001D01*
X126514804Y-63835433D01*
X126575628Y-64115037D01*
X126675635Y-64383166D01*
X126812770Y-64634309D01*
X126812775Y-64634317D01*
X126984254Y-64863387D01*
X126984270Y-64863405D01*
X127186594Y-65065729D01*
X127186612Y-65065745D01*
X127415682Y-65237224D01*
X127415690Y-65237229D01*
X127666833Y-65374364D01*
X127666832Y-65374364D01*
X127666836Y-65374365D01*
X127666839Y-65374367D01*
X127934954Y-65474369D01*
X127934960Y-65474370D01*
X127934962Y-65474371D01*
X128214566Y-65535195D01*
X128214568Y-65535195D01*
X128214572Y-65535196D01*
X128468220Y-65553337D01*
X128499999Y-65555610D01*
X128500000Y-65555610D01*
X128500001Y-65555610D01*
X128528595Y-65553564D01*
X128785428Y-65535196D01*
X129065046Y-65474369D01*
X129333161Y-65374367D01*
X129584315Y-65237226D01*
X129813395Y-65065739D01*
X130015739Y-64863395D01*
X130187226Y-64634315D01*
X130324367Y-64383161D01*
X130424369Y-64115046D01*
X130485196Y-63835428D01*
X130505610Y-63550000D01*
X130485196Y-63264572D01*
X130438068Y-63047927D01*
X130443052Y-62978237D01*
X130484923Y-62922303D01*
X130549968Y-62897917D01*
X130711620Y-62885803D01*
X130711622Y-62885802D01*
X130711630Y-62885802D01*
X130967416Y-62827420D01*
X131211643Y-62731568D01*
X131438857Y-62600386D01*
X131643981Y-62436805D01*
X131822433Y-62244479D01*
X131970228Y-62027704D01*
X132084063Y-61791323D01*
X132161396Y-61540615D01*
X132200500Y-61281182D01*
X132200500Y-61018818D01*
X132161396Y-60759385D01*
X132084063Y-60508677D01*
X132072121Y-60483880D01*
X131970232Y-60272303D01*
X131970231Y-60272302D01*
X131970230Y-60272301D01*
X131970228Y-60272296D01*
X131822433Y-60055521D01*
X131812441Y-60044753D01*
X131643985Y-59863198D01*
X131507590Y-59754427D01*
X131438857Y-59699614D01*
X131211643Y-59568432D01*
X130967416Y-59472580D01*
X130967411Y-59472578D01*
X130967402Y-59472576D01*
X130749818Y-59422914D01*
X130711630Y-59414198D01*
X130711629Y-59414197D01*
X130711625Y-59414197D01*
X130711620Y-59414196D01*
X130515515Y-59399500D01*
X130515494Y-59399500D01*
X130384506Y-59399500D01*
X130384484Y-59399500D01*
X130188379Y-59414196D01*
X130188374Y-59414197D01*
X129932597Y-59472576D01*
X129932578Y-59472582D01*
X129688356Y-59568432D01*
X129461143Y-59699614D01*
X129256014Y-59863198D01*
X129077567Y-60055520D01*
X128929768Y-60272302D01*
X128929767Y-60272303D01*
X128815938Y-60508673D01*
X128738606Y-60759376D01*
X128738605Y-60759381D01*
X128738604Y-60759385D01*
X128725021Y-60849500D01*
X128699500Y-61018812D01*
X128699500Y-61281189D01*
X128718684Y-61408463D01*
X128709211Y-61477687D01*
X128663816Y-61530801D01*
X128596912Y-61550941D01*
X128587223Y-61550628D01*
X128500001Y-61544390D01*
X128499999Y-61544390D01*
X128214566Y-61564804D01*
X127934962Y-61625628D01*
X127666833Y-61725635D01*
X127415690Y-61862770D01*
X127415682Y-61862775D01*
X127186612Y-62034254D01*
X127186594Y-62034270D01*
X126984270Y-62236594D01*
X126984254Y-62236612D01*
X126812775Y-62465682D01*
X126812770Y-62465690D01*
X126675635Y-62716833D01*
X126575628Y-62984962D01*
X126514804Y-63264566D01*
X126494390Y-63549998D01*
X126494390Y-63550001D01*
X116250500Y-63550001D01*
X116250500Y-61814201D01*
X116250500Y-61762468D01*
X116220101Y-61590062D01*
X116160225Y-61425555D01*
X116072692Y-61273945D01*
X116072691Y-61273943D01*
X116072690Y-61273942D01*
X115960163Y-61139836D01*
X115826057Y-61027309D01*
X115674446Y-60939775D01*
X115509937Y-60879898D01*
X115337534Y-60849500D01*
X115337532Y-60849500D01*
X115285799Y-60849500D01*
X106315892Y-60849500D01*
X106250000Y-60849500D01*
X106162468Y-60849500D01*
X106162465Y-60849500D01*
X105990062Y-60879898D01*
X105825553Y-60939775D01*
X105673942Y-61027309D01*
X105539836Y-61139836D01*
X105427309Y-61273942D01*
X105339775Y-61425553D01*
X105279898Y-61590062D01*
X105249500Y-61762465D01*
X105249500Y-64437534D01*
X94794677Y-64437534D01*
X94824367Y-64383161D01*
X94924369Y-64115046D01*
X94985196Y-63835428D01*
X95005610Y-63550000D01*
X94985196Y-63264572D01*
X94924369Y-62984954D01*
X94824367Y-62716839D01*
X94744025Y-62569705D01*
X94687229Y-62465690D01*
X94687224Y-62465682D01*
X94515745Y-62236612D01*
X94515729Y-62236594D01*
X94313405Y-62034270D01*
X94313387Y-62034254D01*
X94084317Y-61862775D01*
X94084309Y-61862770D01*
X93833166Y-61725635D01*
X93833167Y-61725635D01*
X93725915Y-61685632D01*
X93565046Y-61625631D01*
X93565043Y-61625630D01*
X93565037Y-61625628D01*
X93285433Y-61564804D01*
X93000001Y-61544390D01*
X92999999Y-61544390D01*
X92912776Y-61550628D01*
X92844503Y-61535776D01*
X92795098Y-61486371D01*
X92780246Y-61418098D01*
X92781315Y-61408462D01*
X92800499Y-61281187D01*
X92800500Y-61281182D01*
X92800500Y-61018817D01*
X92800499Y-61018812D01*
X92761396Y-60759385D01*
X92684063Y-60508677D01*
X92672121Y-60483880D01*
X92570232Y-60272303D01*
X92570231Y-60272302D01*
X92570230Y-60272301D01*
X92570228Y-60272296D01*
X92422433Y-60055521D01*
X92412441Y-60044753D01*
X92243985Y-59863198D01*
X92107590Y-59754427D01*
X92038857Y-59699614D01*
X91811643Y-59568432D01*
X91567416Y-59472580D01*
X91567411Y-59472578D01*
X91567402Y-59472576D01*
X91349818Y-59422914D01*
X91311630Y-59414198D01*
X91311629Y-59414197D01*
X91311625Y-59414197D01*
X91311620Y-59414196D01*
X91115515Y-59399500D01*
X91115494Y-59399500D01*
X90984506Y-59399500D01*
X90984484Y-59399500D01*
X90788379Y-59414196D01*
X90788374Y-59414197D01*
X90532597Y-59472576D01*
X90532578Y-59472582D01*
X90288356Y-59568432D01*
X90061143Y-59699614D01*
X89856014Y-59863198D01*
X89677567Y-60055520D01*
X89529768Y-60272302D01*
X89529767Y-60272303D01*
X89415938Y-60508673D01*
X89338606Y-60759376D01*
X89338605Y-60759381D01*
X89338604Y-60759385D01*
X89325021Y-60849500D01*
X89299500Y-61018812D01*
X89299500Y-61281187D01*
X88750500Y-61281187D01*
X88750500Y-59754427D01*
X88750816Y-59745581D01*
X88765130Y-59545443D01*
X88765131Y-59545442D01*
X88765130Y-59545436D01*
X88767646Y-59527938D01*
X88809356Y-59336199D01*
X88814333Y-59319248D01*
X88882911Y-59135385D01*
X88890259Y-59119298D01*
X88952815Y-59004734D01*
X88984291Y-58947089D01*
X88993845Y-58932221D01*
X89111448Y-58775123D01*
X89123020Y-58761769D01*
X89261769Y-58623020D01*
X89275123Y-58611448D01*
X89432221Y-58493845D01*
X89447089Y-58484291D01*
X89619298Y-58390258D01*
X89635385Y-58382911D01*
X89819248Y-58314333D01*
X89836199Y-58309356D01*
X90027938Y-58267646D01*
X90045436Y-58265130D01*
X90245582Y-58250816D01*
X90254428Y-58250500D01*
X90315892Y-58250500D01*
X131184108Y-58250500D01*
X131245572Y-58250500D01*
X131254418Y-58250816D01*
G37*
%TD.AperFunction*%
%TD*%
%TA.AperFunction,Conductor*%
%TO.N,GND*%
G36*
X86254418Y-77750816D02*
G01*
X86454561Y-77765130D01*
X86472063Y-77767647D01*
X86663797Y-77809355D01*
X86680755Y-77814334D01*
X86864609Y-77882909D01*
X86880701Y-77890259D01*
X87052904Y-77984288D01*
X87067784Y-77993849D01*
X87224867Y-78111441D01*
X87238237Y-78123027D01*
X87376972Y-78261762D01*
X87388558Y-78275132D01*
X87506146Y-78432210D01*
X87515711Y-78447095D01*
X87609740Y-78619298D01*
X87617090Y-78635390D01*
X87685662Y-78819236D01*
X87690646Y-78836212D01*
X87732351Y-79027931D01*
X87734869Y-79045442D01*
X87749184Y-79245580D01*
X87749500Y-79254427D01*
X87749500Y-92528839D01*
X87729815Y-92595878D01*
X87677011Y-92641633D01*
X87607853Y-92651577D01*
X87544297Y-92622552D01*
X87508081Y-92568697D01*
X87486899Y-92506297D01*
X87486895Y-92506287D01*
X87359346Y-92247643D01*
X87199124Y-92007854D01*
X87174161Y-91979390D01*
X87174160Y-91979390D01*
X86673609Y-92479941D01*
X86557368Y-92330596D01*
X86374477Y-92162232D01*
X86319882Y-92126563D01*
X86820608Y-91625838D01*
X86820608Y-91625835D01*
X86792152Y-91600881D01*
X86792146Y-91600876D01*
X86552356Y-91440653D01*
X86293712Y-91313104D01*
X86293702Y-91313100D01*
X86020635Y-91220407D01*
X86020615Y-91220402D01*
X85737784Y-91164144D01*
X85737757Y-91164140D01*
X85450007Y-91145280D01*
X85449993Y-91145280D01*
X85162242Y-91164140D01*
X85162215Y-91164144D01*
X84879384Y-91220402D01*
X84879364Y-91220407D01*
X84606297Y-91313100D01*
X84606287Y-91313104D01*
X84347643Y-91440653D01*
X84107851Y-91600878D01*
X84079390Y-91625837D01*
X84580117Y-92126564D01*
X84525523Y-92162232D01*
X84342632Y-92330596D01*
X84226389Y-92479942D01*
X83725837Y-91979390D01*
X83700878Y-92007851D01*
X83540653Y-92247643D01*
X83413104Y-92506287D01*
X83413100Y-92506297D01*
X83320407Y-92779364D01*
X83320402Y-92779384D01*
X83264144Y-93062215D01*
X83264140Y-93062242D01*
X83245280Y-93349992D01*
X83245280Y-93350007D01*
X83264140Y-93637757D01*
X83264144Y-93637784D01*
X83320402Y-93920615D01*
X83320407Y-93920635D01*
X83413100Y-94193702D01*
X83413104Y-94193712D01*
X83540653Y-94452356D01*
X83700876Y-94692146D01*
X83700881Y-94692152D01*
X83725835Y-94720608D01*
X83725838Y-94720608D01*
X84226389Y-94220056D01*
X84342632Y-94369404D01*
X84525523Y-94537768D01*
X84580115Y-94573435D01*
X84079390Y-95074160D01*
X84079390Y-95074161D01*
X84107854Y-95099124D01*
X84347643Y-95259346D01*
X84606287Y-95386895D01*
X84606297Y-95386899D01*
X84879364Y-95479592D01*
X84879384Y-95479597D01*
X85162215Y-95535855D01*
X85162242Y-95535859D01*
X85449993Y-95554720D01*
X85450007Y-95554720D01*
X85737757Y-95535859D01*
X85737784Y-95535855D01*
X86020615Y-95479597D01*
X86020635Y-95479592D01*
X86293702Y-95386899D01*
X86293712Y-95386895D01*
X86552356Y-95259346D01*
X86792141Y-95099126D01*
X86792147Y-95099121D01*
X86820608Y-95074162D01*
X86820608Y-95074161D01*
X86319882Y-94573435D01*
X86374477Y-94537768D01*
X86557368Y-94369404D01*
X86673610Y-94220057D01*
X87174161Y-94720608D01*
X87174162Y-94720608D01*
X87199121Y-94692147D01*
X87199126Y-94692141D01*
X87359346Y-94452356D01*
X87486894Y-94193714D01*
X87508080Y-94131302D01*
X87548269Y-94074148D01*
X87612978Y-94047794D01*
X87681663Y-94060608D01*
X87732516Y-94108521D01*
X87749500Y-94171160D01*
X87749500Y-94745572D01*
X87749184Y-94754419D01*
X87734869Y-94954557D01*
X87732351Y-94972068D01*
X87690646Y-95163787D01*
X87685662Y-95180763D01*
X87617090Y-95364609D01*
X87609740Y-95380701D01*
X87515711Y-95552904D01*
X87506146Y-95567789D01*
X87388558Y-95724867D01*
X87376972Y-95738237D01*
X87238237Y-95876972D01*
X87224867Y-95888558D01*
X87067789Y-96006146D01*
X87052904Y-96015711D01*
X86880701Y-96109740D01*
X86864609Y-96117090D01*
X86680763Y-96185662D01*
X86663787Y-96190646D01*
X86472068Y-96232351D01*
X86454557Y-96234869D01*
X86273779Y-96247799D01*
X86254417Y-96249184D01*
X86245572Y-96249500D01*
X45254428Y-96249500D01*
X45245582Y-96249184D01*
X45223622Y-96247613D01*
X45045442Y-96234869D01*
X45027931Y-96232351D01*
X44836212Y-96190646D01*
X44819236Y-96185662D01*
X44635390Y-96117090D01*
X44619298Y-96109740D01*
X44447095Y-96015711D01*
X44432210Y-96006146D01*
X44275132Y-95888558D01*
X44261762Y-95876972D01*
X44123027Y-95738237D01*
X44111441Y-95724867D01*
X43993849Y-95567784D01*
X43984288Y-95552904D01*
X43890259Y-95380701D01*
X43882909Y-95364609D01*
X43814334Y-95180755D01*
X43809355Y-95163797D01*
X43767647Y-94972063D01*
X43765130Y-94954556D01*
X43750816Y-94754418D01*
X43750500Y-94745572D01*
X43750500Y-94171160D01*
X43770185Y-94104121D01*
X43822989Y-94058366D01*
X43892147Y-94048422D01*
X43955703Y-94077447D01*
X43991920Y-94131302D01*
X44013105Y-94193714D01*
X44140653Y-94452356D01*
X44300876Y-94692146D01*
X44300881Y-94692152D01*
X44325835Y-94720608D01*
X44325838Y-94720608D01*
X44826389Y-94220056D01*
X44942632Y-94369404D01*
X45125523Y-94537768D01*
X45180115Y-94573435D01*
X44679390Y-95074160D01*
X44679390Y-95074161D01*
X44707854Y-95099124D01*
X44947643Y-95259346D01*
X45206287Y-95386895D01*
X45206297Y-95386899D01*
X45479364Y-95479592D01*
X45479384Y-95479597D01*
X45762215Y-95535855D01*
X45762242Y-95535859D01*
X46049993Y-95554720D01*
X46050007Y-95554720D01*
X46337757Y-95535859D01*
X46337784Y-95535855D01*
X46620615Y-95479597D01*
X46620635Y-95479592D01*
X46893702Y-95386899D01*
X46893712Y-95386895D01*
X47152356Y-95259346D01*
X47392141Y-95099126D01*
X47392147Y-95099121D01*
X47420608Y-95074162D01*
X47420608Y-95074161D01*
X46919882Y-94573435D01*
X46974477Y-94537768D01*
X47157368Y-94369404D01*
X47273610Y-94220057D01*
X47774161Y-94720608D01*
X47774162Y-94720608D01*
X47799121Y-94692147D01*
X47799126Y-94692141D01*
X47959346Y-94452356D01*
X48086895Y-94193712D01*
X48086899Y-94193702D01*
X48179592Y-93920635D01*
X48179597Y-93920615D01*
X48235855Y-93637784D01*
X48235859Y-93637757D01*
X48254720Y-93350007D01*
X48254720Y-93349992D01*
X48235859Y-93062242D01*
X48235855Y-93062215D01*
X48179597Y-92779384D01*
X48179592Y-92779364D01*
X48086899Y-92506297D01*
X48086895Y-92506287D01*
X47959346Y-92247643D01*
X47799124Y-92007854D01*
X47774161Y-91979390D01*
X47774160Y-91979390D01*
X47273609Y-92479941D01*
X47157368Y-92330596D01*
X46974477Y-92162232D01*
X46919882Y-92126563D01*
X47420608Y-91625838D01*
X47420608Y-91625835D01*
X47392152Y-91600881D01*
X47392146Y-91600876D01*
X47152356Y-91440653D01*
X46893712Y-91313104D01*
X46893702Y-91313100D01*
X46620635Y-91220407D01*
X46620615Y-91220402D01*
X46337784Y-91164144D01*
X46337757Y-91164140D01*
X46050007Y-91145280D01*
X46049993Y-91145280D01*
X45762242Y-91164140D01*
X45762215Y-91164144D01*
X45479384Y-91220402D01*
X45479364Y-91220407D01*
X45206297Y-91313100D01*
X45206287Y-91313104D01*
X44947643Y-91440653D01*
X44707851Y-91600878D01*
X44679390Y-91625837D01*
X45180117Y-92126564D01*
X45125523Y-92162232D01*
X44942632Y-92330596D01*
X44826389Y-92479942D01*
X44325837Y-91979390D01*
X44300878Y-92007851D01*
X44140653Y-92247643D01*
X44013104Y-92506287D01*
X44013100Y-92506297D01*
X43991919Y-92568697D01*
X43951731Y-92625852D01*
X43887022Y-92652205D01*
X43818337Y-92639391D01*
X43767484Y-92591477D01*
X43750500Y-92528839D01*
X43750500Y-87250000D01*
X51250000Y-87250000D01*
X51750000Y-88500000D01*
X53000000Y-89000000D01*
X54250000Y-88500000D01*
X54750000Y-87250000D01*
X76750000Y-87250000D01*
X77250000Y-88500000D01*
X78500000Y-89000000D01*
X79750000Y-88500000D01*
X80250000Y-87250000D01*
X79750000Y-86000000D01*
X78500000Y-85500000D01*
X77250000Y-86000000D01*
X76750000Y-87250000D01*
X54750000Y-87250000D01*
X54250000Y-86000000D01*
X53000000Y-85500000D01*
X51750000Y-86000000D01*
X51250000Y-87250000D01*
X43750500Y-87250000D01*
X43750500Y-80781187D01*
X44299500Y-80781187D01*
X44318685Y-80908462D01*
X44338604Y-81040615D01*
X44338605Y-81040617D01*
X44338606Y-81040623D01*
X44415938Y-81291326D01*
X44529767Y-81527696D01*
X44529768Y-81527697D01*
X44529770Y-81527700D01*
X44529772Y-81527704D01*
X44534249Y-81534270D01*
X44677567Y-81744479D01*
X44856014Y-81936801D01*
X44856018Y-81936804D01*
X44856019Y-81936805D01*
X45061143Y-82100386D01*
X45288357Y-82231568D01*
X45532584Y-82327420D01*
X45788370Y-82385802D01*
X45788376Y-82385802D01*
X45788379Y-82385803D01*
X45950031Y-82397917D01*
X46015412Y-82422556D01*
X46057093Y-82478631D01*
X46061931Y-82547928D01*
X46014804Y-82764566D01*
X45994390Y-83049998D01*
X45994390Y-83050001D01*
X46014804Y-83335433D01*
X46075628Y-83615037D01*
X46175635Y-83883166D01*
X46312770Y-84134309D01*
X46312775Y-84134317D01*
X46484254Y-84363387D01*
X46484270Y-84363405D01*
X46686594Y-84565729D01*
X46686612Y-84565745D01*
X46915682Y-84737224D01*
X46915690Y-84737229D01*
X47166833Y-84874364D01*
X47166832Y-84874364D01*
X47166836Y-84874365D01*
X47166839Y-84874367D01*
X47434954Y-84974369D01*
X47434960Y-84974370D01*
X47434962Y-84974371D01*
X47714566Y-85035195D01*
X47714568Y-85035195D01*
X47714572Y-85035196D01*
X47968220Y-85053337D01*
X47999999Y-85055610D01*
X48000000Y-85055610D01*
X48000001Y-85055610D01*
X48028595Y-85053564D01*
X48285428Y-85035196D01*
X48565046Y-84974369D01*
X48833161Y-84874367D01*
X49084315Y-84737226D01*
X49313395Y-84565739D01*
X49515739Y-84363395D01*
X49687226Y-84134315D01*
X49794677Y-83937534D01*
X60249500Y-83937534D01*
X60279898Y-84109937D01*
X60339775Y-84274446D01*
X60427309Y-84426057D01*
X60539836Y-84560163D01*
X60673942Y-84672690D01*
X60785716Y-84737224D01*
X60825555Y-84760225D01*
X60990062Y-84820101D01*
X61162468Y-84850500D01*
X61162472Y-84850500D01*
X70337528Y-84850500D01*
X70337532Y-84850500D01*
X70509938Y-84820101D01*
X70674445Y-84760225D01*
X70826055Y-84672692D01*
X70960163Y-84560163D01*
X71072692Y-84426055D01*
X71160225Y-84274445D01*
X71220101Y-84109938D01*
X71250500Y-83937532D01*
X71250500Y-83850000D01*
X71250500Y-83784108D01*
X71250500Y-83050001D01*
X81494390Y-83050001D01*
X81514804Y-83335433D01*
X81575628Y-83615037D01*
X81675635Y-83883166D01*
X81812770Y-84134309D01*
X81812775Y-84134317D01*
X81984254Y-84363387D01*
X81984270Y-84363405D01*
X82186594Y-84565729D01*
X82186612Y-84565745D01*
X82415682Y-84737224D01*
X82415690Y-84737229D01*
X82666833Y-84874364D01*
X82666832Y-84874364D01*
X82666836Y-84874365D01*
X82666839Y-84874367D01*
X82934954Y-84974369D01*
X82934960Y-84974370D01*
X82934962Y-84974371D01*
X83214566Y-85035195D01*
X83214568Y-85035195D01*
X83214572Y-85035196D01*
X83468220Y-85053337D01*
X83499999Y-85055610D01*
X83500000Y-85055610D01*
X83500001Y-85055610D01*
X83528595Y-85053564D01*
X83785428Y-85035196D01*
X84065046Y-84974369D01*
X84333161Y-84874367D01*
X84584315Y-84737226D01*
X84813395Y-84565739D01*
X85015739Y-84363395D01*
X85187226Y-84134315D01*
X85324367Y-83883161D01*
X85424369Y-83615046D01*
X85485196Y-83335428D01*
X85505610Y-83050000D01*
X85485196Y-82764572D01*
X85438068Y-82547927D01*
X85443052Y-82478237D01*
X85484923Y-82422303D01*
X85549968Y-82397917D01*
X85711620Y-82385803D01*
X85711622Y-82385802D01*
X85711630Y-82385802D01*
X85967416Y-82327420D01*
X86211643Y-82231568D01*
X86438857Y-82100386D01*
X86643981Y-81936805D01*
X86822433Y-81744479D01*
X86970228Y-81527704D01*
X87084063Y-81291323D01*
X87161396Y-81040615D01*
X87200500Y-80781182D01*
X87200500Y-80518818D01*
X87161396Y-80259385D01*
X87084063Y-80008677D01*
X87072121Y-79983880D01*
X86970232Y-79772303D01*
X86970231Y-79772302D01*
X86970230Y-79772301D01*
X86970228Y-79772296D01*
X86822433Y-79555521D01*
X86812441Y-79544753D01*
X86643985Y-79363198D01*
X86507590Y-79254427D01*
X86438857Y-79199614D01*
X86211643Y-79068432D01*
X85967416Y-78972580D01*
X85967411Y-78972578D01*
X85967402Y-78972576D01*
X85749818Y-78922914D01*
X85711630Y-78914198D01*
X85711629Y-78914197D01*
X85711625Y-78914197D01*
X85711620Y-78914196D01*
X85515515Y-78899500D01*
X85515494Y-78899500D01*
X85384506Y-78899500D01*
X85384484Y-78899500D01*
X85188379Y-78914196D01*
X85188374Y-78914197D01*
X84932597Y-78972576D01*
X84932578Y-78972582D01*
X84688356Y-79068432D01*
X84461143Y-79199614D01*
X84256014Y-79363198D01*
X84077567Y-79555520D01*
X83929768Y-79772302D01*
X83929767Y-79772303D01*
X83815938Y-80008673D01*
X83738606Y-80259376D01*
X83738605Y-80259381D01*
X83738604Y-80259385D01*
X83725021Y-80349500D01*
X83699500Y-80518812D01*
X83699500Y-80781189D01*
X83718684Y-80908463D01*
X83709211Y-80977687D01*
X83663816Y-81030801D01*
X83596912Y-81050941D01*
X83587223Y-81050628D01*
X83500001Y-81044390D01*
X83499999Y-81044390D01*
X83214566Y-81064804D01*
X82934962Y-81125628D01*
X82666833Y-81225635D01*
X82415690Y-81362770D01*
X82415682Y-81362775D01*
X82186612Y-81534254D01*
X82186594Y-81534270D01*
X81984270Y-81736594D01*
X81984254Y-81736612D01*
X81812775Y-81965682D01*
X81812770Y-81965690D01*
X81675635Y-82216833D01*
X81575628Y-82484962D01*
X81514804Y-82764566D01*
X81494390Y-83049998D01*
X81494390Y-83050001D01*
X71250500Y-83050001D01*
X71250500Y-81314201D01*
X71250500Y-81262468D01*
X71220101Y-81090062D01*
X71160225Y-80925555D01*
X71072692Y-80773945D01*
X71072691Y-80773943D01*
X71072690Y-80773942D01*
X70960163Y-80639836D01*
X70826057Y-80527309D01*
X70674446Y-80439775D01*
X70509937Y-80379898D01*
X70337534Y-80349500D01*
X70337532Y-80349500D01*
X70285799Y-80349500D01*
X61315892Y-80349500D01*
X61250000Y-80349500D01*
X61162468Y-80349500D01*
X61162465Y-80349500D01*
X60990062Y-80379898D01*
X60825553Y-80439775D01*
X60673942Y-80527309D01*
X60539836Y-80639836D01*
X60427309Y-80773942D01*
X60339775Y-80925553D01*
X60279898Y-81090062D01*
X60249500Y-81262465D01*
X60249500Y-83937534D01*
X49794677Y-83937534D01*
X49824367Y-83883161D01*
X49924369Y-83615046D01*
X49985196Y-83335428D01*
X50005610Y-83050000D01*
X49985196Y-82764572D01*
X49924369Y-82484954D01*
X49824367Y-82216839D01*
X49744025Y-82069705D01*
X49687229Y-81965690D01*
X49687224Y-81965682D01*
X49515745Y-81736612D01*
X49515729Y-81736594D01*
X49313405Y-81534270D01*
X49313387Y-81534254D01*
X49084317Y-81362775D01*
X49084309Y-81362770D01*
X48833166Y-81225635D01*
X48833167Y-81225635D01*
X48725915Y-81185632D01*
X48565046Y-81125631D01*
X48565043Y-81125630D01*
X48565037Y-81125628D01*
X48285433Y-81064804D01*
X48000001Y-81044390D01*
X47999999Y-81044390D01*
X47912776Y-81050628D01*
X47844503Y-81035776D01*
X47795098Y-80986371D01*
X47780246Y-80918098D01*
X47781315Y-80908462D01*
X47800499Y-80781187D01*
X47800500Y-80781182D01*
X47800500Y-80518817D01*
X47800499Y-80518812D01*
X47761396Y-80259385D01*
X47684063Y-80008677D01*
X47672121Y-79983880D01*
X47570232Y-79772303D01*
X47570231Y-79772302D01*
X47570230Y-79772301D01*
X47570228Y-79772296D01*
X47422433Y-79555521D01*
X47412441Y-79544753D01*
X47243985Y-79363198D01*
X47107590Y-79254427D01*
X47038857Y-79199614D01*
X46811643Y-79068432D01*
X46567416Y-78972580D01*
X46567411Y-78972578D01*
X46567402Y-78972576D01*
X46349818Y-78922914D01*
X46311630Y-78914198D01*
X46311629Y-78914197D01*
X46311625Y-78914197D01*
X46311620Y-78914196D01*
X46115515Y-78899500D01*
X46115494Y-78899500D01*
X45984506Y-78899500D01*
X45984484Y-78899500D01*
X45788379Y-78914196D01*
X45788374Y-78914197D01*
X45532597Y-78972576D01*
X45532578Y-78972582D01*
X45288356Y-79068432D01*
X45061143Y-79199614D01*
X44856014Y-79363198D01*
X44677567Y-79555520D01*
X44529768Y-79772302D01*
X44529767Y-79772303D01*
X44415938Y-80008673D01*
X44338606Y-80259376D01*
X44338605Y-80259381D01*
X44338604Y-80259385D01*
X44325021Y-80349500D01*
X44299500Y-80518812D01*
X44299500Y-80781187D01*
X43750500Y-80781187D01*
X43750500Y-79254427D01*
X43750816Y-79245581D01*
X43765130Y-79045443D01*
X43765131Y-79045442D01*
X43765130Y-79045436D01*
X43767646Y-79027938D01*
X43809356Y-78836199D01*
X43814333Y-78819248D01*
X43882911Y-78635385D01*
X43890259Y-78619298D01*
X43952815Y-78504734D01*
X43984291Y-78447089D01*
X43993845Y-78432221D01*
X44111448Y-78275123D01*
X44123020Y-78261769D01*
X44261769Y-78123020D01*
X44275123Y-78111448D01*
X44432221Y-77993845D01*
X44447089Y-77984291D01*
X44619298Y-77890258D01*
X44635385Y-77882911D01*
X44819248Y-77814333D01*
X44836199Y-77809356D01*
X45027938Y-77767646D01*
X45045436Y-77765130D01*
X45245582Y-77750816D01*
X45254428Y-77750500D01*
X45315892Y-77750500D01*
X86184108Y-77750500D01*
X86245572Y-77750500D01*
X86254418Y-77750816D01*
G37*
%TD.AperFunction*%
%TD*%
%TA.AperFunction,Conductor*%
%TO.N,GND*%
G36*
X131254418Y-77750816D02*
G01*
X131454561Y-77765130D01*
X131472063Y-77767647D01*
X131663797Y-77809355D01*
X131680755Y-77814334D01*
X131864609Y-77882909D01*
X131880701Y-77890259D01*
X132052904Y-77984288D01*
X132067784Y-77993849D01*
X132224867Y-78111441D01*
X132238237Y-78123027D01*
X132376972Y-78261762D01*
X132388558Y-78275132D01*
X132506146Y-78432210D01*
X132515711Y-78447095D01*
X132609740Y-78619298D01*
X132617090Y-78635390D01*
X132685662Y-78819236D01*
X132690646Y-78836212D01*
X132732351Y-79027931D01*
X132734869Y-79045442D01*
X132749184Y-79245580D01*
X132749500Y-79254427D01*
X132749500Y-92528839D01*
X132729815Y-92595878D01*
X132677011Y-92641633D01*
X132607853Y-92651577D01*
X132544297Y-92622552D01*
X132508081Y-92568697D01*
X132486899Y-92506297D01*
X132486895Y-92506287D01*
X132359346Y-92247643D01*
X132199124Y-92007854D01*
X132174161Y-91979390D01*
X132174160Y-91979390D01*
X131673609Y-92479941D01*
X131557368Y-92330596D01*
X131374477Y-92162232D01*
X131319882Y-92126563D01*
X131820608Y-91625838D01*
X131820608Y-91625835D01*
X131792152Y-91600881D01*
X131792146Y-91600876D01*
X131552356Y-91440653D01*
X131293712Y-91313104D01*
X131293702Y-91313100D01*
X131020635Y-91220407D01*
X131020615Y-91220402D01*
X130737784Y-91164144D01*
X130737757Y-91164140D01*
X130450007Y-91145280D01*
X130449993Y-91145280D01*
X130162242Y-91164140D01*
X130162215Y-91164144D01*
X129879384Y-91220402D01*
X129879364Y-91220407D01*
X129606297Y-91313100D01*
X129606287Y-91313104D01*
X129347643Y-91440653D01*
X129107851Y-91600878D01*
X129079390Y-91625837D01*
X129580117Y-92126564D01*
X129525523Y-92162232D01*
X129342632Y-92330596D01*
X129226389Y-92479942D01*
X128725837Y-91979390D01*
X128700878Y-92007851D01*
X128540653Y-92247643D01*
X128413104Y-92506287D01*
X128413100Y-92506297D01*
X128320407Y-92779364D01*
X128320402Y-92779384D01*
X128264144Y-93062215D01*
X128264140Y-93062242D01*
X128245280Y-93349992D01*
X128245280Y-93350007D01*
X128264140Y-93637757D01*
X128264144Y-93637784D01*
X128320402Y-93920615D01*
X128320407Y-93920635D01*
X128413100Y-94193702D01*
X128413104Y-94193712D01*
X128540653Y-94452356D01*
X128700876Y-94692146D01*
X128700881Y-94692152D01*
X128725835Y-94720608D01*
X128725838Y-94720608D01*
X129226389Y-94220056D01*
X129342632Y-94369404D01*
X129525523Y-94537768D01*
X129580115Y-94573435D01*
X129079390Y-95074160D01*
X129079390Y-95074161D01*
X129107854Y-95099124D01*
X129347643Y-95259346D01*
X129606287Y-95386895D01*
X129606297Y-95386899D01*
X129879364Y-95479592D01*
X129879384Y-95479597D01*
X130162215Y-95535855D01*
X130162242Y-95535859D01*
X130449993Y-95554720D01*
X130450007Y-95554720D01*
X130737757Y-95535859D01*
X130737784Y-95535855D01*
X131020615Y-95479597D01*
X131020635Y-95479592D01*
X131293702Y-95386899D01*
X131293712Y-95386895D01*
X131552356Y-95259346D01*
X131792141Y-95099126D01*
X131792147Y-95099121D01*
X131820608Y-95074162D01*
X131820608Y-95074161D01*
X131319882Y-94573435D01*
X131374477Y-94537768D01*
X131557368Y-94369404D01*
X131673610Y-94220057D01*
X132174161Y-94720608D01*
X132174162Y-94720608D01*
X132199121Y-94692147D01*
X132199126Y-94692141D01*
X132359346Y-94452356D01*
X132486894Y-94193714D01*
X132508080Y-94131302D01*
X132548269Y-94074148D01*
X132612978Y-94047794D01*
X132681663Y-94060608D01*
X132732516Y-94108521D01*
X132749500Y-94171160D01*
X132749500Y-94745572D01*
X132749184Y-94754419D01*
X132734869Y-94954557D01*
X132732351Y-94972068D01*
X132690646Y-95163787D01*
X132685662Y-95180763D01*
X132617090Y-95364609D01*
X132609740Y-95380701D01*
X132515711Y-95552904D01*
X132506146Y-95567789D01*
X132388558Y-95724867D01*
X132376972Y-95738237D01*
X132238237Y-95876972D01*
X132224867Y-95888558D01*
X132067789Y-96006146D01*
X132052904Y-96015711D01*
X131880701Y-96109740D01*
X131864609Y-96117090D01*
X131680763Y-96185662D01*
X131663787Y-96190646D01*
X131472068Y-96232351D01*
X131454557Y-96234869D01*
X131273779Y-96247799D01*
X131254417Y-96249184D01*
X131245572Y-96249500D01*
X90254428Y-96249500D01*
X90245582Y-96249184D01*
X90223622Y-96247613D01*
X90045442Y-96234869D01*
X90027931Y-96232351D01*
X89836212Y-96190646D01*
X89819236Y-96185662D01*
X89635390Y-96117090D01*
X89619298Y-96109740D01*
X89447095Y-96015711D01*
X89432210Y-96006146D01*
X89275132Y-95888558D01*
X89261762Y-95876972D01*
X89123027Y-95738237D01*
X89111441Y-95724867D01*
X88993849Y-95567784D01*
X88984288Y-95552904D01*
X88890259Y-95380701D01*
X88882909Y-95364609D01*
X88814334Y-95180755D01*
X88809355Y-95163797D01*
X88767647Y-94972063D01*
X88765130Y-94954556D01*
X88750816Y-94754418D01*
X88750500Y-94745572D01*
X88750500Y-94171160D01*
X88770185Y-94104121D01*
X88822989Y-94058366D01*
X88892147Y-94048422D01*
X88955703Y-94077447D01*
X88991920Y-94131302D01*
X89013105Y-94193714D01*
X89140653Y-94452356D01*
X89300876Y-94692146D01*
X89300881Y-94692152D01*
X89325835Y-94720608D01*
X89325838Y-94720608D01*
X89826389Y-94220056D01*
X89942632Y-94369404D01*
X90125523Y-94537768D01*
X90180115Y-94573435D01*
X89679390Y-95074160D01*
X89679390Y-95074161D01*
X89707854Y-95099124D01*
X89947643Y-95259346D01*
X90206287Y-95386895D01*
X90206297Y-95386899D01*
X90479364Y-95479592D01*
X90479384Y-95479597D01*
X90762215Y-95535855D01*
X90762242Y-95535859D01*
X91049993Y-95554720D01*
X91050007Y-95554720D01*
X91337757Y-95535859D01*
X91337784Y-95535855D01*
X91620615Y-95479597D01*
X91620635Y-95479592D01*
X91893702Y-95386899D01*
X91893712Y-95386895D01*
X92152356Y-95259346D01*
X92392141Y-95099126D01*
X92392147Y-95099121D01*
X92420608Y-95074162D01*
X92420608Y-95074161D01*
X91919882Y-94573435D01*
X91974477Y-94537768D01*
X92157368Y-94369404D01*
X92273610Y-94220057D01*
X92774161Y-94720608D01*
X92774162Y-94720608D01*
X92799121Y-94692147D01*
X92799126Y-94692141D01*
X92959346Y-94452356D01*
X93086895Y-94193712D01*
X93086899Y-94193702D01*
X93179592Y-93920635D01*
X93179597Y-93920615D01*
X93235855Y-93637784D01*
X93235859Y-93637757D01*
X93254720Y-93350007D01*
X93254720Y-93349992D01*
X93235859Y-93062242D01*
X93235855Y-93062215D01*
X93179597Y-92779384D01*
X93179592Y-92779364D01*
X93086899Y-92506297D01*
X93086895Y-92506287D01*
X92959346Y-92247643D01*
X92799124Y-92007854D01*
X92774161Y-91979390D01*
X92774160Y-91979390D01*
X92273609Y-92479941D01*
X92157368Y-92330596D01*
X91974477Y-92162232D01*
X91919882Y-92126563D01*
X92420608Y-91625838D01*
X92420608Y-91625835D01*
X92392152Y-91600881D01*
X92392146Y-91600876D01*
X92152356Y-91440653D01*
X91893712Y-91313104D01*
X91893702Y-91313100D01*
X91620635Y-91220407D01*
X91620615Y-91220402D01*
X91337784Y-91164144D01*
X91337757Y-91164140D01*
X91050007Y-91145280D01*
X91049993Y-91145280D01*
X90762242Y-91164140D01*
X90762215Y-91164144D01*
X90479384Y-91220402D01*
X90479364Y-91220407D01*
X90206297Y-91313100D01*
X90206287Y-91313104D01*
X89947643Y-91440653D01*
X89707851Y-91600878D01*
X89679390Y-91625837D01*
X90180117Y-92126564D01*
X90125523Y-92162232D01*
X89942632Y-92330596D01*
X89826389Y-92479942D01*
X89325837Y-91979390D01*
X89300878Y-92007851D01*
X89140653Y-92247643D01*
X89013104Y-92506287D01*
X89013100Y-92506297D01*
X88991919Y-92568697D01*
X88951731Y-92625852D01*
X88887022Y-92652205D01*
X88818337Y-92639391D01*
X88767484Y-92591477D01*
X88750500Y-92528839D01*
X88750500Y-87250000D01*
X96250000Y-87250000D01*
X96750000Y-88500000D01*
X98000000Y-89000000D01*
X99250000Y-88500000D01*
X99750000Y-87250000D01*
X121750000Y-87250000D01*
X122250000Y-88500000D01*
X123500000Y-89000000D01*
X124750000Y-88500000D01*
X125250000Y-87250000D01*
X124750000Y-86000000D01*
X123500000Y-85500000D01*
X122250000Y-86000000D01*
X121750000Y-87250000D01*
X99750000Y-87250000D01*
X99250000Y-86000000D01*
X98000000Y-85500000D01*
X96750000Y-86000000D01*
X96250000Y-87250000D01*
X88750500Y-87250000D01*
X88750500Y-80781187D01*
X89299500Y-80781187D01*
X89318685Y-80908462D01*
X89338604Y-81040615D01*
X89338605Y-81040617D01*
X89338606Y-81040623D01*
X89415938Y-81291326D01*
X89529767Y-81527696D01*
X89529768Y-81527697D01*
X89529770Y-81527700D01*
X89529772Y-81527704D01*
X89534249Y-81534270D01*
X89677567Y-81744479D01*
X89856014Y-81936801D01*
X89856018Y-81936804D01*
X89856019Y-81936805D01*
X90061143Y-82100386D01*
X90288357Y-82231568D01*
X90532584Y-82327420D01*
X90788370Y-82385802D01*
X90788376Y-82385802D01*
X90788379Y-82385803D01*
X90950031Y-82397917D01*
X91015412Y-82422556D01*
X91057093Y-82478631D01*
X91061931Y-82547928D01*
X91014804Y-82764566D01*
X90994390Y-83049998D01*
X90994390Y-83050001D01*
X91014804Y-83335433D01*
X91075628Y-83615037D01*
X91175635Y-83883166D01*
X91312770Y-84134309D01*
X91312775Y-84134317D01*
X91484254Y-84363387D01*
X91484270Y-84363405D01*
X91686594Y-84565729D01*
X91686612Y-84565745D01*
X91915682Y-84737224D01*
X91915690Y-84737229D01*
X92166833Y-84874364D01*
X92166832Y-84874364D01*
X92166836Y-84874365D01*
X92166839Y-84874367D01*
X92434954Y-84974369D01*
X92434960Y-84974370D01*
X92434962Y-84974371D01*
X92714566Y-85035195D01*
X92714568Y-85035195D01*
X92714572Y-85035196D01*
X92968220Y-85053337D01*
X92999999Y-85055610D01*
X93000000Y-85055610D01*
X93000001Y-85055610D01*
X93028595Y-85053564D01*
X93285428Y-85035196D01*
X93565046Y-84974369D01*
X93833161Y-84874367D01*
X94084315Y-84737226D01*
X94313395Y-84565739D01*
X94515739Y-84363395D01*
X94687226Y-84134315D01*
X94794677Y-83937534D01*
X105249500Y-83937534D01*
X105279898Y-84109937D01*
X105339775Y-84274446D01*
X105427309Y-84426057D01*
X105539836Y-84560163D01*
X105673942Y-84672690D01*
X105785716Y-84737224D01*
X105825555Y-84760225D01*
X105990062Y-84820101D01*
X106162468Y-84850500D01*
X106162472Y-84850500D01*
X115337528Y-84850500D01*
X115337532Y-84850500D01*
X115509938Y-84820101D01*
X115674445Y-84760225D01*
X115826055Y-84672692D01*
X115960163Y-84560163D01*
X116072692Y-84426055D01*
X116160225Y-84274445D01*
X116220101Y-84109938D01*
X116250500Y-83937532D01*
X116250500Y-83850000D01*
X116250500Y-83784108D01*
X116250500Y-83050001D01*
X126494390Y-83050001D01*
X126514804Y-83335433D01*
X126575628Y-83615037D01*
X126675635Y-83883166D01*
X126812770Y-84134309D01*
X126812775Y-84134317D01*
X126984254Y-84363387D01*
X126984270Y-84363405D01*
X127186594Y-84565729D01*
X127186612Y-84565745D01*
X127415682Y-84737224D01*
X127415690Y-84737229D01*
X127666833Y-84874364D01*
X127666832Y-84874364D01*
X127666836Y-84874365D01*
X127666839Y-84874367D01*
X127934954Y-84974369D01*
X127934960Y-84974370D01*
X127934962Y-84974371D01*
X128214566Y-85035195D01*
X128214568Y-85035195D01*
X128214572Y-85035196D01*
X128468220Y-85053337D01*
X128499999Y-85055610D01*
X128500000Y-85055610D01*
X128500001Y-85055610D01*
X128528595Y-85053564D01*
X128785428Y-85035196D01*
X129065046Y-84974369D01*
X129333161Y-84874367D01*
X129584315Y-84737226D01*
X129813395Y-84565739D01*
X130015739Y-84363395D01*
X130187226Y-84134315D01*
X130324367Y-83883161D01*
X130424369Y-83615046D01*
X130485196Y-83335428D01*
X130505610Y-83050000D01*
X130485196Y-82764572D01*
X130438068Y-82547927D01*
X130443052Y-82478237D01*
X130484923Y-82422303D01*
X130549968Y-82397917D01*
X130711620Y-82385803D01*
X130711622Y-82385802D01*
X130711630Y-82385802D01*
X130967416Y-82327420D01*
X131211643Y-82231568D01*
X131438857Y-82100386D01*
X131643981Y-81936805D01*
X131822433Y-81744479D01*
X131970228Y-81527704D01*
X132084063Y-81291323D01*
X132161396Y-81040615D01*
X132200500Y-80781182D01*
X132200500Y-80518818D01*
X132161396Y-80259385D01*
X132084063Y-80008677D01*
X132072121Y-79983880D01*
X131970232Y-79772303D01*
X131970231Y-79772302D01*
X131970230Y-79772301D01*
X131970228Y-79772296D01*
X131822433Y-79555521D01*
X131812441Y-79544753D01*
X131643985Y-79363198D01*
X131507590Y-79254427D01*
X131438857Y-79199614D01*
X131211643Y-79068432D01*
X130967416Y-78972580D01*
X130967411Y-78972578D01*
X130967402Y-78972576D01*
X130749818Y-78922914D01*
X130711630Y-78914198D01*
X130711629Y-78914197D01*
X130711625Y-78914197D01*
X130711620Y-78914196D01*
X130515515Y-78899500D01*
X130515494Y-78899500D01*
X130384506Y-78899500D01*
X130384484Y-78899500D01*
X130188379Y-78914196D01*
X130188374Y-78914197D01*
X129932597Y-78972576D01*
X129932578Y-78972582D01*
X129688356Y-79068432D01*
X129461143Y-79199614D01*
X129256014Y-79363198D01*
X129077567Y-79555520D01*
X128929768Y-79772302D01*
X128929767Y-79772303D01*
X128815938Y-80008673D01*
X128738606Y-80259376D01*
X128738605Y-80259381D01*
X128738604Y-80259385D01*
X128725021Y-80349500D01*
X128699500Y-80518812D01*
X128699500Y-80781189D01*
X128718684Y-80908463D01*
X128709211Y-80977687D01*
X128663816Y-81030801D01*
X128596912Y-81050941D01*
X128587223Y-81050628D01*
X128500001Y-81044390D01*
X128499999Y-81044390D01*
X128214566Y-81064804D01*
X127934962Y-81125628D01*
X127666833Y-81225635D01*
X127415690Y-81362770D01*
X127415682Y-81362775D01*
X127186612Y-81534254D01*
X127186594Y-81534270D01*
X126984270Y-81736594D01*
X126984254Y-81736612D01*
X126812775Y-81965682D01*
X126812770Y-81965690D01*
X126675635Y-82216833D01*
X126575628Y-82484962D01*
X126514804Y-82764566D01*
X126494390Y-83049998D01*
X126494390Y-83050001D01*
X116250500Y-83050001D01*
X116250500Y-81314201D01*
X116250500Y-81262468D01*
X116220101Y-81090062D01*
X116160225Y-80925555D01*
X116072692Y-80773945D01*
X116072691Y-80773943D01*
X116072690Y-80773942D01*
X115960163Y-80639836D01*
X115826057Y-80527309D01*
X115674446Y-80439775D01*
X115509937Y-80379898D01*
X115337534Y-80349500D01*
X115337532Y-80349500D01*
X115285799Y-80349500D01*
X106315892Y-80349500D01*
X106250000Y-80349500D01*
X106162468Y-80349500D01*
X106162465Y-80349500D01*
X105990062Y-80379898D01*
X105825553Y-80439775D01*
X105673942Y-80527309D01*
X105539836Y-80639836D01*
X105427309Y-80773942D01*
X105339775Y-80925553D01*
X105279898Y-81090062D01*
X105249500Y-81262465D01*
X105249500Y-83937534D01*
X94794677Y-83937534D01*
X94824367Y-83883161D01*
X94924369Y-83615046D01*
X94985196Y-83335428D01*
X95005610Y-83050000D01*
X94985196Y-82764572D01*
X94924369Y-82484954D01*
X94824367Y-82216839D01*
X94744025Y-82069705D01*
X94687229Y-81965690D01*
X94687224Y-81965682D01*
X94515745Y-81736612D01*
X94515729Y-81736594D01*
X94313405Y-81534270D01*
X94313387Y-81534254D01*
X94084317Y-81362775D01*
X94084309Y-81362770D01*
X93833166Y-81225635D01*
X93833167Y-81225635D01*
X93725915Y-81185632D01*
X93565046Y-81125631D01*
X93565043Y-81125630D01*
X93565037Y-81125628D01*
X93285433Y-81064804D01*
X93000001Y-81044390D01*
X92999999Y-81044390D01*
X92912776Y-81050628D01*
X92844503Y-81035776D01*
X92795098Y-80986371D01*
X92780246Y-80918098D01*
X92781315Y-80908462D01*
X92800499Y-80781187D01*
X92800500Y-80781182D01*
X92800500Y-80518817D01*
X92800499Y-80518812D01*
X92761396Y-80259385D01*
X92684063Y-80008677D01*
X92672121Y-79983880D01*
X92570232Y-79772303D01*
X92570231Y-79772302D01*
X92570230Y-79772301D01*
X92570228Y-79772296D01*
X92422433Y-79555521D01*
X92412441Y-79544753D01*
X92243985Y-79363198D01*
X92107590Y-79254427D01*
X92038857Y-79199614D01*
X91811643Y-79068432D01*
X91567416Y-78972580D01*
X91567411Y-78972578D01*
X91567402Y-78972576D01*
X91349818Y-78922914D01*
X91311630Y-78914198D01*
X91311629Y-78914197D01*
X91311625Y-78914197D01*
X91311620Y-78914196D01*
X91115515Y-78899500D01*
X91115494Y-78899500D01*
X90984506Y-78899500D01*
X90984484Y-78899500D01*
X90788379Y-78914196D01*
X90788374Y-78914197D01*
X90532597Y-78972576D01*
X90532578Y-78972582D01*
X90288356Y-79068432D01*
X90061143Y-79199614D01*
X89856014Y-79363198D01*
X89677567Y-79555520D01*
X89529768Y-79772302D01*
X89529767Y-79772303D01*
X89415938Y-80008673D01*
X89338606Y-80259376D01*
X89338605Y-80259381D01*
X89338604Y-80259385D01*
X89325021Y-80349500D01*
X89299500Y-80518812D01*
X89299500Y-80781187D01*
X88750500Y-80781187D01*
X88750500Y-79254427D01*
X88750816Y-79245581D01*
X88765130Y-79045443D01*
X88765131Y-79045442D01*
X88765130Y-79045436D01*
X88767646Y-79027938D01*
X88809356Y-78836199D01*
X88814333Y-78819248D01*
X88882911Y-78635385D01*
X88890259Y-78619298D01*
X88952815Y-78504734D01*
X88984291Y-78447089D01*
X88993845Y-78432221D01*
X89111448Y-78275123D01*
X89123020Y-78261769D01*
X89261769Y-78123020D01*
X89275123Y-78111448D01*
X89432221Y-77993845D01*
X89447089Y-77984291D01*
X89619298Y-77890258D01*
X89635385Y-77882911D01*
X89819248Y-77814333D01*
X89836199Y-77809356D01*
X90027938Y-77767646D01*
X90045436Y-77765130D01*
X90245582Y-77750816D01*
X90254428Y-77750500D01*
X90315892Y-77750500D01*
X131184108Y-77750500D01*
X131245572Y-77750500D01*
X131254418Y-77750816D01*
G37*
%TD.AperFunction*%
%TD*%
%TA.AperFunction,Conductor*%
%TO.N,GND*%
G36*
X86254418Y-97250816D02*
G01*
X86454561Y-97265130D01*
X86472063Y-97267647D01*
X86663797Y-97309355D01*
X86680755Y-97314334D01*
X86864609Y-97382909D01*
X86880701Y-97390259D01*
X87052904Y-97484288D01*
X87067784Y-97493849D01*
X87224867Y-97611441D01*
X87238237Y-97623027D01*
X87376972Y-97761762D01*
X87388558Y-97775132D01*
X87506146Y-97932210D01*
X87515711Y-97947095D01*
X87609740Y-98119298D01*
X87617090Y-98135390D01*
X87685662Y-98319236D01*
X87690646Y-98336212D01*
X87732351Y-98527931D01*
X87734869Y-98545442D01*
X87749184Y-98745580D01*
X87749500Y-98754427D01*
X87749500Y-112028839D01*
X87729815Y-112095878D01*
X87677011Y-112141633D01*
X87607853Y-112151577D01*
X87544297Y-112122552D01*
X87508081Y-112068697D01*
X87486899Y-112006297D01*
X87486895Y-112006287D01*
X87359346Y-111747643D01*
X87199124Y-111507854D01*
X87174161Y-111479390D01*
X87174160Y-111479390D01*
X86673609Y-111979941D01*
X86557368Y-111830596D01*
X86374477Y-111662232D01*
X86319882Y-111626563D01*
X86820608Y-111125838D01*
X86820608Y-111125835D01*
X86792152Y-111100881D01*
X86792146Y-111100876D01*
X86552356Y-110940653D01*
X86293712Y-110813104D01*
X86293702Y-110813100D01*
X86020635Y-110720407D01*
X86020615Y-110720402D01*
X85737784Y-110664144D01*
X85737757Y-110664140D01*
X85450007Y-110645280D01*
X85449993Y-110645280D01*
X85162242Y-110664140D01*
X85162215Y-110664144D01*
X84879384Y-110720402D01*
X84879364Y-110720407D01*
X84606297Y-110813100D01*
X84606287Y-110813104D01*
X84347643Y-110940653D01*
X84107851Y-111100878D01*
X84079390Y-111125837D01*
X84580117Y-111626564D01*
X84525523Y-111662232D01*
X84342632Y-111830596D01*
X84226389Y-111979942D01*
X83725837Y-111479390D01*
X83700878Y-111507851D01*
X83540653Y-111747643D01*
X83413104Y-112006287D01*
X83413100Y-112006297D01*
X83320407Y-112279364D01*
X83320402Y-112279384D01*
X83264144Y-112562215D01*
X83264140Y-112562242D01*
X83245280Y-112849992D01*
X83245280Y-112850007D01*
X83264140Y-113137757D01*
X83264144Y-113137784D01*
X83320402Y-113420615D01*
X83320407Y-113420635D01*
X83413100Y-113693702D01*
X83413104Y-113693712D01*
X83540653Y-113952356D01*
X83700876Y-114192146D01*
X83700881Y-114192152D01*
X83725835Y-114220608D01*
X83725838Y-114220608D01*
X84226389Y-113720056D01*
X84342632Y-113869404D01*
X84525523Y-114037768D01*
X84580115Y-114073435D01*
X84079390Y-114574160D01*
X84079390Y-114574161D01*
X84107854Y-114599124D01*
X84347643Y-114759346D01*
X84606287Y-114886895D01*
X84606297Y-114886899D01*
X84879364Y-114979592D01*
X84879384Y-114979597D01*
X85162215Y-115035855D01*
X85162242Y-115035859D01*
X85449993Y-115054720D01*
X85450007Y-115054720D01*
X85737757Y-115035859D01*
X85737784Y-115035855D01*
X86020615Y-114979597D01*
X86020635Y-114979592D01*
X86293702Y-114886899D01*
X86293712Y-114886895D01*
X86552356Y-114759346D01*
X86792141Y-114599126D01*
X86792147Y-114599121D01*
X86820608Y-114574162D01*
X86820608Y-114574161D01*
X86319882Y-114073435D01*
X86374477Y-114037768D01*
X86557368Y-113869404D01*
X86673610Y-113720057D01*
X87174161Y-114220608D01*
X87174162Y-114220608D01*
X87199121Y-114192147D01*
X87199126Y-114192141D01*
X87359346Y-113952356D01*
X87486894Y-113693714D01*
X87508080Y-113631302D01*
X87548269Y-113574148D01*
X87612978Y-113547794D01*
X87681663Y-113560608D01*
X87732516Y-113608521D01*
X87749500Y-113671160D01*
X87749500Y-114245572D01*
X87749184Y-114254419D01*
X87734869Y-114454557D01*
X87732351Y-114472068D01*
X87690646Y-114663787D01*
X87685662Y-114680763D01*
X87617090Y-114864609D01*
X87609740Y-114880701D01*
X87515711Y-115052904D01*
X87506146Y-115067789D01*
X87388558Y-115224867D01*
X87376972Y-115238237D01*
X87238237Y-115376972D01*
X87224867Y-115388558D01*
X87067789Y-115506146D01*
X87052904Y-115515711D01*
X86880701Y-115609740D01*
X86864609Y-115617090D01*
X86680763Y-115685662D01*
X86663787Y-115690646D01*
X86472068Y-115732351D01*
X86454557Y-115734869D01*
X86273779Y-115747799D01*
X86254417Y-115749184D01*
X86245572Y-115749500D01*
X45254428Y-115749500D01*
X45245582Y-115749184D01*
X45223622Y-115747613D01*
X45045442Y-115734869D01*
X45027931Y-115732351D01*
X44836212Y-115690646D01*
X44819236Y-115685662D01*
X44635390Y-115617090D01*
X44619298Y-115609740D01*
X44447095Y-115515711D01*
X44432210Y-115506146D01*
X44275132Y-115388558D01*
X44261762Y-115376972D01*
X44123027Y-115238237D01*
X44111441Y-115224867D01*
X43993849Y-115067784D01*
X43984288Y-115052904D01*
X43890259Y-114880701D01*
X43882909Y-114864609D01*
X43814334Y-114680755D01*
X43809355Y-114663797D01*
X43767647Y-114472063D01*
X43765130Y-114454556D01*
X43750816Y-114254418D01*
X43750500Y-114245572D01*
X43750500Y-113671160D01*
X43770185Y-113604121D01*
X43822989Y-113558366D01*
X43892147Y-113548422D01*
X43955703Y-113577447D01*
X43991920Y-113631302D01*
X44013105Y-113693714D01*
X44140653Y-113952356D01*
X44300876Y-114192146D01*
X44300881Y-114192152D01*
X44325835Y-114220608D01*
X44325838Y-114220608D01*
X44826389Y-113720056D01*
X44942632Y-113869404D01*
X45125523Y-114037768D01*
X45180115Y-114073435D01*
X44679390Y-114574160D01*
X44679390Y-114574161D01*
X44707854Y-114599124D01*
X44947643Y-114759346D01*
X45206287Y-114886895D01*
X45206297Y-114886899D01*
X45479364Y-114979592D01*
X45479384Y-114979597D01*
X45762215Y-115035855D01*
X45762242Y-115035859D01*
X46049993Y-115054720D01*
X46050007Y-115054720D01*
X46337757Y-115035859D01*
X46337784Y-115035855D01*
X46620615Y-114979597D01*
X46620635Y-114979592D01*
X46893702Y-114886899D01*
X46893712Y-114886895D01*
X47152356Y-114759346D01*
X47392141Y-114599126D01*
X47392147Y-114599121D01*
X47420608Y-114574162D01*
X47420608Y-114574161D01*
X46919882Y-114073435D01*
X46974477Y-114037768D01*
X47157368Y-113869404D01*
X47273610Y-113720057D01*
X47774161Y-114220608D01*
X47774162Y-114220608D01*
X47799121Y-114192147D01*
X47799126Y-114192141D01*
X47959346Y-113952356D01*
X48086895Y-113693712D01*
X48086899Y-113693702D01*
X48179592Y-113420635D01*
X48179597Y-113420615D01*
X48235855Y-113137784D01*
X48235859Y-113137757D01*
X48254720Y-112850007D01*
X48254720Y-112849992D01*
X48235859Y-112562242D01*
X48235855Y-112562215D01*
X48179597Y-112279384D01*
X48179592Y-112279364D01*
X48086899Y-112006297D01*
X48086895Y-112006287D01*
X47959346Y-111747643D01*
X47799124Y-111507854D01*
X47774161Y-111479390D01*
X47774160Y-111479390D01*
X47273609Y-111979941D01*
X47157368Y-111830596D01*
X46974477Y-111662232D01*
X46919882Y-111626563D01*
X47420608Y-111125838D01*
X47420608Y-111125835D01*
X47392152Y-111100881D01*
X47392146Y-111100876D01*
X47152356Y-110940653D01*
X46893712Y-110813104D01*
X46893702Y-110813100D01*
X46620635Y-110720407D01*
X46620615Y-110720402D01*
X46337784Y-110664144D01*
X46337757Y-110664140D01*
X46050007Y-110645280D01*
X46049993Y-110645280D01*
X45762242Y-110664140D01*
X45762215Y-110664144D01*
X45479384Y-110720402D01*
X45479364Y-110720407D01*
X45206297Y-110813100D01*
X45206287Y-110813104D01*
X44947643Y-110940653D01*
X44707851Y-111100878D01*
X44679390Y-111125837D01*
X45180117Y-111626564D01*
X45125523Y-111662232D01*
X44942632Y-111830596D01*
X44826389Y-111979942D01*
X44325837Y-111479390D01*
X44300878Y-111507851D01*
X44140653Y-111747643D01*
X44013104Y-112006287D01*
X44013100Y-112006297D01*
X43991919Y-112068697D01*
X43951731Y-112125852D01*
X43887022Y-112152205D01*
X43818337Y-112139391D01*
X43767484Y-112091477D01*
X43750500Y-112028839D01*
X43750500Y-106750000D01*
X51250000Y-106750000D01*
X51750000Y-108000000D01*
X53000000Y-108500000D01*
X54250000Y-108000000D01*
X54750000Y-106750000D01*
X76750000Y-106750000D01*
X77250000Y-108000000D01*
X78500000Y-108500000D01*
X79750000Y-108000000D01*
X80250000Y-106750000D01*
X79750000Y-105500000D01*
X78500000Y-105000000D01*
X77250000Y-105500000D01*
X76750000Y-106750000D01*
X54750000Y-106750000D01*
X54250000Y-105500000D01*
X53000000Y-105000000D01*
X51750000Y-105500000D01*
X51250000Y-106750000D01*
X43750500Y-106750000D01*
X43750500Y-100281187D01*
X44299500Y-100281187D01*
X44318685Y-100408462D01*
X44338604Y-100540615D01*
X44338605Y-100540617D01*
X44338606Y-100540623D01*
X44415938Y-100791326D01*
X44529767Y-101027696D01*
X44529768Y-101027697D01*
X44529770Y-101027700D01*
X44529772Y-101027704D01*
X44534249Y-101034270D01*
X44677567Y-101244479D01*
X44856014Y-101436801D01*
X44856018Y-101436804D01*
X44856019Y-101436805D01*
X45061143Y-101600386D01*
X45288357Y-101731568D01*
X45532584Y-101827420D01*
X45788370Y-101885802D01*
X45788376Y-101885802D01*
X45788379Y-101885803D01*
X45950031Y-101897917D01*
X46015412Y-101922556D01*
X46057093Y-101978631D01*
X46061931Y-102047928D01*
X46014804Y-102264566D01*
X45994390Y-102549998D01*
X45994390Y-102550001D01*
X46014804Y-102835433D01*
X46075628Y-103115037D01*
X46175635Y-103383166D01*
X46312770Y-103634309D01*
X46312775Y-103634317D01*
X46484254Y-103863387D01*
X46484270Y-103863405D01*
X46686594Y-104065729D01*
X46686612Y-104065745D01*
X46915682Y-104237224D01*
X46915690Y-104237229D01*
X47166833Y-104374364D01*
X47166832Y-104374364D01*
X47166836Y-104374365D01*
X47166839Y-104374367D01*
X47434954Y-104474369D01*
X47434960Y-104474370D01*
X47434962Y-104474371D01*
X47714566Y-104535195D01*
X47714568Y-104535195D01*
X47714572Y-104535196D01*
X47968220Y-104553337D01*
X47999999Y-104555610D01*
X48000000Y-104555610D01*
X48000001Y-104555610D01*
X48028595Y-104553564D01*
X48285428Y-104535196D01*
X48565046Y-104474369D01*
X48833161Y-104374367D01*
X49084315Y-104237226D01*
X49313395Y-104065739D01*
X49515739Y-103863395D01*
X49687226Y-103634315D01*
X49794677Y-103437534D01*
X60249500Y-103437534D01*
X60279898Y-103609937D01*
X60339775Y-103774446D01*
X60427309Y-103926057D01*
X60539836Y-104060163D01*
X60673942Y-104172690D01*
X60785716Y-104237224D01*
X60825555Y-104260225D01*
X60990062Y-104320101D01*
X61162468Y-104350500D01*
X61162472Y-104350500D01*
X70337528Y-104350500D01*
X70337532Y-104350500D01*
X70509938Y-104320101D01*
X70674445Y-104260225D01*
X70826055Y-104172692D01*
X70960163Y-104060163D01*
X71072692Y-103926055D01*
X71160225Y-103774445D01*
X71220101Y-103609938D01*
X71250500Y-103437532D01*
X71250500Y-103350000D01*
X71250500Y-103284108D01*
X71250500Y-102550001D01*
X81494390Y-102550001D01*
X81514804Y-102835433D01*
X81575628Y-103115037D01*
X81675635Y-103383166D01*
X81812770Y-103634309D01*
X81812775Y-103634317D01*
X81984254Y-103863387D01*
X81984270Y-103863405D01*
X82186594Y-104065729D01*
X82186612Y-104065745D01*
X82415682Y-104237224D01*
X82415690Y-104237229D01*
X82666833Y-104374364D01*
X82666832Y-104374364D01*
X82666836Y-104374365D01*
X82666839Y-104374367D01*
X82934954Y-104474369D01*
X82934960Y-104474370D01*
X82934962Y-104474371D01*
X83214566Y-104535195D01*
X83214568Y-104535195D01*
X83214572Y-104535196D01*
X83468220Y-104553337D01*
X83499999Y-104555610D01*
X83500000Y-104555610D01*
X83500001Y-104555610D01*
X83528595Y-104553564D01*
X83785428Y-104535196D01*
X84065046Y-104474369D01*
X84333161Y-104374367D01*
X84584315Y-104237226D01*
X84813395Y-104065739D01*
X85015739Y-103863395D01*
X85187226Y-103634315D01*
X85324367Y-103383161D01*
X85424369Y-103115046D01*
X85485196Y-102835428D01*
X85505610Y-102550000D01*
X85485196Y-102264572D01*
X85438068Y-102047927D01*
X85443052Y-101978237D01*
X85484923Y-101922303D01*
X85549968Y-101897917D01*
X85711620Y-101885803D01*
X85711622Y-101885802D01*
X85711630Y-101885802D01*
X85967416Y-101827420D01*
X86211643Y-101731568D01*
X86438857Y-101600386D01*
X86643981Y-101436805D01*
X86822433Y-101244479D01*
X86970228Y-101027704D01*
X87084063Y-100791323D01*
X87161396Y-100540615D01*
X87200500Y-100281182D01*
X87200500Y-100018818D01*
X87161396Y-99759385D01*
X87084063Y-99508677D01*
X87072121Y-99483880D01*
X86970232Y-99272303D01*
X86970231Y-99272302D01*
X86970230Y-99272301D01*
X86970228Y-99272296D01*
X86822433Y-99055521D01*
X86812441Y-99044753D01*
X86643985Y-98863198D01*
X86507590Y-98754427D01*
X86438857Y-98699614D01*
X86211643Y-98568432D01*
X85967416Y-98472580D01*
X85967411Y-98472578D01*
X85967402Y-98472576D01*
X85749818Y-98422914D01*
X85711630Y-98414198D01*
X85711629Y-98414197D01*
X85711625Y-98414197D01*
X85711620Y-98414196D01*
X85515515Y-98399500D01*
X85515494Y-98399500D01*
X85384506Y-98399500D01*
X85384484Y-98399500D01*
X85188379Y-98414196D01*
X85188374Y-98414197D01*
X84932597Y-98472576D01*
X84932578Y-98472582D01*
X84688356Y-98568432D01*
X84461143Y-98699614D01*
X84256014Y-98863198D01*
X84077567Y-99055520D01*
X83929768Y-99272302D01*
X83929767Y-99272303D01*
X83815938Y-99508673D01*
X83738606Y-99759376D01*
X83738605Y-99759381D01*
X83738604Y-99759385D01*
X83725021Y-99849500D01*
X83699500Y-100018812D01*
X83699500Y-100281189D01*
X83718684Y-100408463D01*
X83709211Y-100477687D01*
X83663816Y-100530801D01*
X83596912Y-100550941D01*
X83587223Y-100550628D01*
X83500001Y-100544390D01*
X83499999Y-100544390D01*
X83214566Y-100564804D01*
X82934962Y-100625628D01*
X82666833Y-100725635D01*
X82415690Y-100862770D01*
X82415682Y-100862775D01*
X82186612Y-101034254D01*
X82186594Y-101034270D01*
X81984270Y-101236594D01*
X81984254Y-101236612D01*
X81812775Y-101465682D01*
X81812770Y-101465690D01*
X81675635Y-101716833D01*
X81575628Y-101984962D01*
X81514804Y-102264566D01*
X81494390Y-102549998D01*
X81494390Y-102550001D01*
X71250500Y-102550001D01*
X71250500Y-100814201D01*
X71250500Y-100762468D01*
X71220101Y-100590062D01*
X71160225Y-100425555D01*
X71072692Y-100273945D01*
X71072691Y-100273943D01*
X71072690Y-100273942D01*
X70960163Y-100139836D01*
X70826057Y-100027309D01*
X70674446Y-99939775D01*
X70509937Y-99879898D01*
X70337534Y-99849500D01*
X70337532Y-99849500D01*
X70285799Y-99849500D01*
X61315892Y-99849500D01*
X61250000Y-99849500D01*
X61162468Y-99849500D01*
X61162465Y-99849500D01*
X60990062Y-99879898D01*
X60825553Y-99939775D01*
X60673942Y-100027309D01*
X60539836Y-100139836D01*
X60427309Y-100273942D01*
X60339775Y-100425553D01*
X60279898Y-100590062D01*
X60249500Y-100762465D01*
X60249500Y-103437534D01*
X49794677Y-103437534D01*
X49824367Y-103383161D01*
X49924369Y-103115046D01*
X49985196Y-102835428D01*
X50005610Y-102550000D01*
X49985196Y-102264572D01*
X49924369Y-101984954D01*
X49824367Y-101716839D01*
X49744025Y-101569705D01*
X49687229Y-101465690D01*
X49687224Y-101465682D01*
X49515745Y-101236612D01*
X49515729Y-101236594D01*
X49313405Y-101034270D01*
X49313387Y-101034254D01*
X49084317Y-100862775D01*
X49084309Y-100862770D01*
X48833166Y-100725635D01*
X48833167Y-100725635D01*
X48725915Y-100685632D01*
X48565046Y-100625631D01*
X48565043Y-100625630D01*
X48565037Y-100625628D01*
X48285433Y-100564804D01*
X48000001Y-100544390D01*
X47999999Y-100544390D01*
X47912776Y-100550628D01*
X47844503Y-100535776D01*
X47795098Y-100486371D01*
X47780246Y-100418098D01*
X47781315Y-100408462D01*
X47800499Y-100281187D01*
X47800500Y-100281182D01*
X47800500Y-100018817D01*
X47800499Y-100018812D01*
X47761396Y-99759385D01*
X47684063Y-99508677D01*
X47672121Y-99483880D01*
X47570232Y-99272303D01*
X47570231Y-99272302D01*
X47570230Y-99272301D01*
X47570228Y-99272296D01*
X47422433Y-99055521D01*
X47412441Y-99044753D01*
X47243985Y-98863198D01*
X47107590Y-98754427D01*
X47038857Y-98699614D01*
X46811643Y-98568432D01*
X46567416Y-98472580D01*
X46567411Y-98472578D01*
X46567402Y-98472576D01*
X46349818Y-98422914D01*
X46311630Y-98414198D01*
X46311629Y-98414197D01*
X46311625Y-98414197D01*
X46311620Y-98414196D01*
X46115515Y-98399500D01*
X46115494Y-98399500D01*
X45984506Y-98399500D01*
X45984484Y-98399500D01*
X45788379Y-98414196D01*
X45788374Y-98414197D01*
X45532597Y-98472576D01*
X45532578Y-98472582D01*
X45288356Y-98568432D01*
X45061143Y-98699614D01*
X44856014Y-98863198D01*
X44677567Y-99055520D01*
X44529768Y-99272302D01*
X44529767Y-99272303D01*
X44415938Y-99508673D01*
X44338606Y-99759376D01*
X44338605Y-99759381D01*
X44338604Y-99759385D01*
X44325021Y-99849500D01*
X44299500Y-100018812D01*
X44299500Y-100281187D01*
X43750500Y-100281187D01*
X43750500Y-98754427D01*
X43750816Y-98745581D01*
X43765130Y-98545443D01*
X43765131Y-98545442D01*
X43765130Y-98545436D01*
X43767646Y-98527938D01*
X43809356Y-98336199D01*
X43814333Y-98319248D01*
X43882911Y-98135385D01*
X43890259Y-98119298D01*
X43952815Y-98004734D01*
X43984291Y-97947089D01*
X43993845Y-97932221D01*
X44111448Y-97775123D01*
X44123020Y-97761769D01*
X44261769Y-97623020D01*
X44275123Y-97611448D01*
X44432221Y-97493845D01*
X44447089Y-97484291D01*
X44619298Y-97390258D01*
X44635385Y-97382911D01*
X44819248Y-97314333D01*
X44836199Y-97309356D01*
X45027938Y-97267646D01*
X45045436Y-97265130D01*
X45245582Y-97250816D01*
X45254428Y-97250500D01*
X45315892Y-97250500D01*
X86184108Y-97250500D01*
X86245572Y-97250500D01*
X86254418Y-97250816D01*
G37*
%TD.AperFunction*%
%TD*%
%TA.AperFunction,Conductor*%
%TO.N,GND*%
G36*
X131254418Y-97250816D02*
G01*
X131454561Y-97265130D01*
X131472063Y-97267647D01*
X131663797Y-97309355D01*
X131680755Y-97314334D01*
X131864609Y-97382909D01*
X131880701Y-97390259D01*
X132052904Y-97484288D01*
X132067784Y-97493849D01*
X132224867Y-97611441D01*
X132238237Y-97623027D01*
X132376972Y-97761762D01*
X132388558Y-97775132D01*
X132506146Y-97932210D01*
X132515711Y-97947095D01*
X132609740Y-98119298D01*
X132617090Y-98135390D01*
X132685662Y-98319236D01*
X132690646Y-98336212D01*
X132732351Y-98527931D01*
X132734869Y-98545442D01*
X132749184Y-98745580D01*
X132749500Y-98754427D01*
X132749500Y-112028839D01*
X132729815Y-112095878D01*
X132677011Y-112141633D01*
X132607853Y-112151577D01*
X132544297Y-112122552D01*
X132508081Y-112068697D01*
X132486899Y-112006297D01*
X132486895Y-112006287D01*
X132359346Y-111747643D01*
X132199124Y-111507854D01*
X132174161Y-111479390D01*
X132174160Y-111479390D01*
X131673609Y-111979941D01*
X131557368Y-111830596D01*
X131374477Y-111662232D01*
X131319882Y-111626563D01*
X131820608Y-111125838D01*
X131820608Y-111125835D01*
X131792152Y-111100881D01*
X131792146Y-111100876D01*
X131552356Y-110940653D01*
X131293712Y-110813104D01*
X131293702Y-110813100D01*
X131020635Y-110720407D01*
X131020615Y-110720402D01*
X130737784Y-110664144D01*
X130737757Y-110664140D01*
X130450007Y-110645280D01*
X130449993Y-110645280D01*
X130162242Y-110664140D01*
X130162215Y-110664144D01*
X129879384Y-110720402D01*
X129879364Y-110720407D01*
X129606297Y-110813100D01*
X129606287Y-110813104D01*
X129347643Y-110940653D01*
X129107851Y-111100878D01*
X129079390Y-111125837D01*
X129580117Y-111626564D01*
X129525523Y-111662232D01*
X129342632Y-111830596D01*
X129226389Y-111979942D01*
X128725837Y-111479390D01*
X128700878Y-111507851D01*
X128540653Y-111747643D01*
X128413104Y-112006287D01*
X128413100Y-112006297D01*
X128320407Y-112279364D01*
X128320402Y-112279384D01*
X128264144Y-112562215D01*
X128264140Y-112562242D01*
X128245280Y-112849992D01*
X128245280Y-112850007D01*
X128264140Y-113137757D01*
X128264144Y-113137784D01*
X128320402Y-113420615D01*
X128320407Y-113420635D01*
X128413100Y-113693702D01*
X128413104Y-113693712D01*
X128540653Y-113952356D01*
X128700876Y-114192146D01*
X128700881Y-114192152D01*
X128725835Y-114220608D01*
X128725838Y-114220608D01*
X129226389Y-113720056D01*
X129342632Y-113869404D01*
X129525523Y-114037768D01*
X129580115Y-114073435D01*
X129079390Y-114574160D01*
X129079390Y-114574161D01*
X129107854Y-114599124D01*
X129347643Y-114759346D01*
X129606287Y-114886895D01*
X129606297Y-114886899D01*
X129879364Y-114979592D01*
X129879384Y-114979597D01*
X130162215Y-115035855D01*
X130162242Y-115035859D01*
X130449993Y-115054720D01*
X130450007Y-115054720D01*
X130737757Y-115035859D01*
X130737784Y-115035855D01*
X131020615Y-114979597D01*
X131020635Y-114979592D01*
X131293702Y-114886899D01*
X131293712Y-114886895D01*
X131552356Y-114759346D01*
X131792141Y-114599126D01*
X131792147Y-114599121D01*
X131820608Y-114574162D01*
X131820608Y-114574161D01*
X131319882Y-114073435D01*
X131374477Y-114037768D01*
X131557368Y-113869404D01*
X131673610Y-113720057D01*
X132174161Y-114220608D01*
X132174162Y-114220608D01*
X132199121Y-114192147D01*
X132199126Y-114192141D01*
X132359346Y-113952356D01*
X132486894Y-113693714D01*
X132508080Y-113631302D01*
X132548269Y-113574148D01*
X132612978Y-113547794D01*
X132681663Y-113560608D01*
X132732516Y-113608521D01*
X132749500Y-113671160D01*
X132749500Y-114245572D01*
X132749184Y-114254419D01*
X132734869Y-114454557D01*
X132732351Y-114472068D01*
X132690646Y-114663787D01*
X132685662Y-114680763D01*
X132617090Y-114864609D01*
X132609740Y-114880701D01*
X132515711Y-115052904D01*
X132506146Y-115067789D01*
X132388558Y-115224867D01*
X132376972Y-115238237D01*
X132238237Y-115376972D01*
X132224867Y-115388558D01*
X132067789Y-115506146D01*
X132052904Y-115515711D01*
X131880701Y-115609740D01*
X131864609Y-115617090D01*
X131680763Y-115685662D01*
X131663787Y-115690646D01*
X131472068Y-115732351D01*
X131454557Y-115734869D01*
X131273779Y-115747799D01*
X131254417Y-115749184D01*
X131245572Y-115749500D01*
X90254428Y-115749500D01*
X90245582Y-115749184D01*
X90223622Y-115747613D01*
X90045442Y-115734869D01*
X90027931Y-115732351D01*
X89836212Y-115690646D01*
X89819236Y-115685662D01*
X89635390Y-115617090D01*
X89619298Y-115609740D01*
X89447095Y-115515711D01*
X89432210Y-115506146D01*
X89275132Y-115388558D01*
X89261762Y-115376972D01*
X89123027Y-115238237D01*
X89111441Y-115224867D01*
X88993849Y-115067784D01*
X88984288Y-115052904D01*
X88890259Y-114880701D01*
X88882909Y-114864609D01*
X88814334Y-114680755D01*
X88809355Y-114663797D01*
X88767647Y-114472063D01*
X88765130Y-114454556D01*
X88750816Y-114254418D01*
X88750500Y-114245572D01*
X88750500Y-113671160D01*
X88770185Y-113604121D01*
X88822989Y-113558366D01*
X88892147Y-113548422D01*
X88955703Y-113577447D01*
X88991920Y-113631302D01*
X89013105Y-113693714D01*
X89140653Y-113952356D01*
X89300876Y-114192146D01*
X89300881Y-114192152D01*
X89325835Y-114220608D01*
X89325838Y-114220608D01*
X89826389Y-113720056D01*
X89942632Y-113869404D01*
X90125523Y-114037768D01*
X90180115Y-114073435D01*
X89679390Y-114574160D01*
X89679390Y-114574161D01*
X89707854Y-114599124D01*
X89947643Y-114759346D01*
X90206287Y-114886895D01*
X90206297Y-114886899D01*
X90479364Y-114979592D01*
X90479384Y-114979597D01*
X90762215Y-115035855D01*
X90762242Y-115035859D01*
X91049993Y-115054720D01*
X91050007Y-115054720D01*
X91337757Y-115035859D01*
X91337784Y-115035855D01*
X91620615Y-114979597D01*
X91620635Y-114979592D01*
X91893702Y-114886899D01*
X91893712Y-114886895D01*
X92152356Y-114759346D01*
X92392141Y-114599126D01*
X92392147Y-114599121D01*
X92420608Y-114574162D01*
X92420608Y-114574161D01*
X91919882Y-114073435D01*
X91974477Y-114037768D01*
X92157368Y-113869404D01*
X92273610Y-113720057D01*
X92774161Y-114220608D01*
X92774162Y-114220608D01*
X92799121Y-114192147D01*
X92799126Y-114192141D01*
X92959346Y-113952356D01*
X93086895Y-113693712D01*
X93086899Y-113693702D01*
X93179592Y-113420635D01*
X93179597Y-113420615D01*
X93235855Y-113137784D01*
X93235859Y-113137757D01*
X93254720Y-112850007D01*
X93254720Y-112849992D01*
X93235859Y-112562242D01*
X93235855Y-112562215D01*
X93179597Y-112279384D01*
X93179592Y-112279364D01*
X93086899Y-112006297D01*
X93086895Y-112006287D01*
X92959346Y-111747643D01*
X92799124Y-111507854D01*
X92774161Y-111479390D01*
X92774160Y-111479390D01*
X92273609Y-111979941D01*
X92157368Y-111830596D01*
X91974477Y-111662232D01*
X91919882Y-111626563D01*
X92420608Y-111125838D01*
X92420608Y-111125835D01*
X92392152Y-111100881D01*
X92392146Y-111100876D01*
X92152356Y-110940653D01*
X91893712Y-110813104D01*
X91893702Y-110813100D01*
X91620635Y-110720407D01*
X91620615Y-110720402D01*
X91337784Y-110664144D01*
X91337757Y-110664140D01*
X91050007Y-110645280D01*
X91049993Y-110645280D01*
X90762242Y-110664140D01*
X90762215Y-110664144D01*
X90479384Y-110720402D01*
X90479364Y-110720407D01*
X90206297Y-110813100D01*
X90206287Y-110813104D01*
X89947643Y-110940653D01*
X89707851Y-111100878D01*
X89679390Y-111125837D01*
X90180117Y-111626564D01*
X90125523Y-111662232D01*
X89942632Y-111830596D01*
X89826389Y-111979942D01*
X89325837Y-111479390D01*
X89300878Y-111507851D01*
X89140653Y-111747643D01*
X89013104Y-112006287D01*
X89013100Y-112006297D01*
X88991919Y-112068697D01*
X88951731Y-112125852D01*
X88887022Y-112152205D01*
X88818337Y-112139391D01*
X88767484Y-112091477D01*
X88750500Y-112028839D01*
X88750500Y-106750000D01*
X96250000Y-106750000D01*
X96750000Y-108000000D01*
X98000000Y-108500000D01*
X99250000Y-108000000D01*
X99750000Y-106750000D01*
X121750000Y-106750000D01*
X122250000Y-108000000D01*
X123500000Y-108500000D01*
X124750000Y-108000000D01*
X125250000Y-106750000D01*
X124750000Y-105500000D01*
X123500000Y-105000000D01*
X122250000Y-105500000D01*
X121750000Y-106750000D01*
X99750000Y-106750000D01*
X99250000Y-105500000D01*
X98000000Y-105000000D01*
X96750000Y-105500000D01*
X96250000Y-106750000D01*
X88750500Y-106750000D01*
X88750500Y-100281187D01*
X89299500Y-100281187D01*
X89318685Y-100408462D01*
X89338604Y-100540615D01*
X89338605Y-100540617D01*
X89338606Y-100540623D01*
X89415938Y-100791326D01*
X89529767Y-101027696D01*
X89529768Y-101027697D01*
X89529770Y-101027700D01*
X89529772Y-101027704D01*
X89534249Y-101034270D01*
X89677567Y-101244479D01*
X89856014Y-101436801D01*
X89856018Y-101436804D01*
X89856019Y-101436805D01*
X90061143Y-101600386D01*
X90288357Y-101731568D01*
X90532584Y-101827420D01*
X90788370Y-101885802D01*
X90788376Y-101885802D01*
X90788379Y-101885803D01*
X90950031Y-101897917D01*
X91015412Y-101922556D01*
X91057093Y-101978631D01*
X91061931Y-102047928D01*
X91014804Y-102264566D01*
X90994390Y-102549998D01*
X90994390Y-102550001D01*
X91014804Y-102835433D01*
X91075628Y-103115037D01*
X91175635Y-103383166D01*
X91312770Y-103634309D01*
X91312775Y-103634317D01*
X91484254Y-103863387D01*
X91484270Y-103863405D01*
X91686594Y-104065729D01*
X91686612Y-104065745D01*
X91915682Y-104237224D01*
X91915690Y-104237229D01*
X92166833Y-104374364D01*
X92166832Y-104374364D01*
X92166836Y-104374365D01*
X92166839Y-104374367D01*
X92434954Y-104474369D01*
X92434960Y-104474370D01*
X92434962Y-104474371D01*
X92714566Y-104535195D01*
X92714568Y-104535195D01*
X92714572Y-104535196D01*
X92968220Y-104553337D01*
X92999999Y-104555610D01*
X93000000Y-104555610D01*
X93000001Y-104555610D01*
X93028595Y-104553564D01*
X93285428Y-104535196D01*
X93565046Y-104474369D01*
X93833161Y-104374367D01*
X94084315Y-104237226D01*
X94313395Y-104065739D01*
X94515739Y-103863395D01*
X94687226Y-103634315D01*
X94794677Y-103437534D01*
X105249500Y-103437534D01*
X105279898Y-103609937D01*
X105339775Y-103774446D01*
X105427309Y-103926057D01*
X105539836Y-104060163D01*
X105673942Y-104172690D01*
X105785716Y-104237224D01*
X105825555Y-104260225D01*
X105990062Y-104320101D01*
X106162468Y-104350500D01*
X106162472Y-104350500D01*
X115337528Y-104350500D01*
X115337532Y-104350500D01*
X115509938Y-104320101D01*
X115674445Y-104260225D01*
X115826055Y-104172692D01*
X115960163Y-104060163D01*
X116072692Y-103926055D01*
X116160225Y-103774445D01*
X116220101Y-103609938D01*
X116250500Y-103437532D01*
X116250500Y-103350000D01*
X116250500Y-103284108D01*
X116250500Y-102550001D01*
X126494390Y-102550001D01*
X126514804Y-102835433D01*
X126575628Y-103115037D01*
X126675635Y-103383166D01*
X126812770Y-103634309D01*
X126812775Y-103634317D01*
X126984254Y-103863387D01*
X126984270Y-103863405D01*
X127186594Y-104065729D01*
X127186612Y-104065745D01*
X127415682Y-104237224D01*
X127415690Y-104237229D01*
X127666833Y-104374364D01*
X127666832Y-104374364D01*
X127666836Y-104374365D01*
X127666839Y-104374367D01*
X127934954Y-104474369D01*
X127934960Y-104474370D01*
X127934962Y-104474371D01*
X128214566Y-104535195D01*
X128214568Y-104535195D01*
X128214572Y-104535196D01*
X128468220Y-104553337D01*
X128499999Y-104555610D01*
X128500000Y-104555610D01*
X128500001Y-104555610D01*
X128528595Y-104553564D01*
X128785428Y-104535196D01*
X129065046Y-104474369D01*
X129333161Y-104374367D01*
X129584315Y-104237226D01*
X129813395Y-104065739D01*
X130015739Y-103863395D01*
X130187226Y-103634315D01*
X130324367Y-103383161D01*
X130424369Y-103115046D01*
X130485196Y-102835428D01*
X130505610Y-102550000D01*
X130485196Y-102264572D01*
X130438068Y-102047927D01*
X130443052Y-101978237D01*
X130484923Y-101922303D01*
X130549968Y-101897917D01*
X130711620Y-101885803D01*
X130711622Y-101885802D01*
X130711630Y-101885802D01*
X130967416Y-101827420D01*
X131211643Y-101731568D01*
X131438857Y-101600386D01*
X131643981Y-101436805D01*
X131822433Y-101244479D01*
X131970228Y-101027704D01*
X132084063Y-100791323D01*
X132161396Y-100540615D01*
X132200500Y-100281182D01*
X132200500Y-100018818D01*
X132161396Y-99759385D01*
X132084063Y-99508677D01*
X132072121Y-99483880D01*
X131970232Y-99272303D01*
X131970231Y-99272302D01*
X131970230Y-99272301D01*
X131970228Y-99272296D01*
X131822433Y-99055521D01*
X131812441Y-99044753D01*
X131643985Y-98863198D01*
X131507590Y-98754427D01*
X131438857Y-98699614D01*
X131211643Y-98568432D01*
X130967416Y-98472580D01*
X130967411Y-98472578D01*
X130967402Y-98472576D01*
X130749818Y-98422914D01*
X130711630Y-98414198D01*
X130711629Y-98414197D01*
X130711625Y-98414197D01*
X130711620Y-98414196D01*
X130515515Y-98399500D01*
X130515494Y-98399500D01*
X130384506Y-98399500D01*
X130384484Y-98399500D01*
X130188379Y-98414196D01*
X130188374Y-98414197D01*
X129932597Y-98472576D01*
X129932578Y-98472582D01*
X129688356Y-98568432D01*
X129461143Y-98699614D01*
X129256014Y-98863198D01*
X129077567Y-99055520D01*
X128929768Y-99272302D01*
X128929767Y-99272303D01*
X128815938Y-99508673D01*
X128738606Y-99759376D01*
X128738605Y-99759381D01*
X128738604Y-99759385D01*
X128725021Y-99849500D01*
X128699500Y-100018812D01*
X128699500Y-100281189D01*
X128718684Y-100408463D01*
X128709211Y-100477687D01*
X128663816Y-100530801D01*
X128596912Y-100550941D01*
X128587223Y-100550628D01*
X128500001Y-100544390D01*
X128499999Y-100544390D01*
X128214566Y-100564804D01*
X127934962Y-100625628D01*
X127666833Y-100725635D01*
X127415690Y-100862770D01*
X127415682Y-100862775D01*
X127186612Y-101034254D01*
X127186594Y-101034270D01*
X126984270Y-101236594D01*
X126984254Y-101236612D01*
X126812775Y-101465682D01*
X126812770Y-101465690D01*
X126675635Y-101716833D01*
X126575628Y-101984962D01*
X126514804Y-102264566D01*
X126494390Y-102549998D01*
X126494390Y-102550001D01*
X116250500Y-102550001D01*
X116250500Y-100814201D01*
X116250500Y-100762468D01*
X116220101Y-100590062D01*
X116160225Y-100425555D01*
X116072692Y-100273945D01*
X116072691Y-100273943D01*
X116072690Y-100273942D01*
X115960163Y-100139836D01*
X115826057Y-100027309D01*
X115674446Y-99939775D01*
X115509937Y-99879898D01*
X115337534Y-99849500D01*
X115337532Y-99849500D01*
X115285799Y-99849500D01*
X106315892Y-99849500D01*
X106250000Y-99849500D01*
X106162468Y-99849500D01*
X106162465Y-99849500D01*
X105990062Y-99879898D01*
X105825553Y-99939775D01*
X105673942Y-100027309D01*
X105539836Y-100139836D01*
X105427309Y-100273942D01*
X105339775Y-100425553D01*
X105279898Y-100590062D01*
X105249500Y-100762465D01*
X105249500Y-103437534D01*
X94794677Y-103437534D01*
X94824367Y-103383161D01*
X94924369Y-103115046D01*
X94985196Y-102835428D01*
X95005610Y-102550000D01*
X94985196Y-102264572D01*
X94924369Y-101984954D01*
X94824367Y-101716839D01*
X94744025Y-101569705D01*
X94687229Y-101465690D01*
X94687224Y-101465682D01*
X94515745Y-101236612D01*
X94515729Y-101236594D01*
X94313405Y-101034270D01*
X94313387Y-101034254D01*
X94084317Y-100862775D01*
X94084309Y-100862770D01*
X93833166Y-100725635D01*
X93833167Y-100725635D01*
X93725915Y-100685632D01*
X93565046Y-100625631D01*
X93565043Y-100625630D01*
X93565037Y-100625628D01*
X93285433Y-100564804D01*
X93000001Y-100544390D01*
X92999999Y-100544390D01*
X92912776Y-100550628D01*
X92844503Y-100535776D01*
X92795098Y-100486371D01*
X92780246Y-100418098D01*
X92781315Y-100408462D01*
X92800499Y-100281187D01*
X92800500Y-100281182D01*
X92800500Y-100018817D01*
X92800499Y-100018812D01*
X92761396Y-99759385D01*
X92684063Y-99508677D01*
X92672121Y-99483880D01*
X92570232Y-99272303D01*
X92570231Y-99272302D01*
X92570230Y-99272301D01*
X92570228Y-99272296D01*
X92422433Y-99055521D01*
X92412441Y-99044753D01*
X92243985Y-98863198D01*
X92107590Y-98754427D01*
X92038857Y-98699614D01*
X91811643Y-98568432D01*
X91567416Y-98472580D01*
X91567411Y-98472578D01*
X91567402Y-98472576D01*
X91349818Y-98422914D01*
X91311630Y-98414198D01*
X91311629Y-98414197D01*
X91311625Y-98414197D01*
X91311620Y-98414196D01*
X91115515Y-98399500D01*
X91115494Y-98399500D01*
X90984506Y-98399500D01*
X90984484Y-98399500D01*
X90788379Y-98414196D01*
X90788374Y-98414197D01*
X90532597Y-98472576D01*
X90532578Y-98472582D01*
X90288356Y-98568432D01*
X90061143Y-98699614D01*
X89856014Y-98863198D01*
X89677567Y-99055520D01*
X89529768Y-99272302D01*
X89529767Y-99272303D01*
X89415938Y-99508673D01*
X89338606Y-99759376D01*
X89338605Y-99759381D01*
X89338604Y-99759385D01*
X89325021Y-99849500D01*
X89299500Y-100018812D01*
X89299500Y-100281187D01*
X88750500Y-100281187D01*
X88750500Y-98754427D01*
X88750816Y-98745581D01*
X88765130Y-98545443D01*
X88765131Y-98545442D01*
X88765130Y-98545436D01*
X88767646Y-98527938D01*
X88809356Y-98336199D01*
X88814333Y-98319248D01*
X88882911Y-98135385D01*
X88890259Y-98119298D01*
X88952815Y-98004734D01*
X88984291Y-97947089D01*
X88993845Y-97932221D01*
X89111448Y-97775123D01*
X89123020Y-97761769D01*
X89261769Y-97623020D01*
X89275123Y-97611448D01*
X89432221Y-97493845D01*
X89447089Y-97484291D01*
X89619298Y-97390258D01*
X89635385Y-97382911D01*
X89819248Y-97314333D01*
X89836199Y-97309356D01*
X90027938Y-97267646D01*
X90045436Y-97265130D01*
X90245582Y-97250816D01*
X90254428Y-97250500D01*
X90315892Y-97250500D01*
X131184108Y-97250500D01*
X131245572Y-97250500D01*
X131254418Y-97250816D01*
G37*
%TD.AperFunction*%
%TD*%
%TA.AperFunction,Conductor*%
%TO.N,GND*%
G36*
X86254418Y-116750816D02*
G01*
X86454561Y-116765130D01*
X86472063Y-116767647D01*
X86663797Y-116809355D01*
X86680755Y-116814334D01*
X86864609Y-116882909D01*
X86880701Y-116890259D01*
X87052904Y-116984288D01*
X87067784Y-116993849D01*
X87224867Y-117111441D01*
X87238237Y-117123027D01*
X87376972Y-117261762D01*
X87388558Y-117275132D01*
X87506146Y-117432210D01*
X87515711Y-117447095D01*
X87609740Y-117619298D01*
X87617090Y-117635390D01*
X87685662Y-117819236D01*
X87690646Y-117836212D01*
X87732351Y-118027931D01*
X87734869Y-118045442D01*
X87749184Y-118245580D01*
X87749500Y-118254427D01*
X87749500Y-131528839D01*
X87729815Y-131595878D01*
X87677011Y-131641633D01*
X87607853Y-131651577D01*
X87544297Y-131622552D01*
X87508081Y-131568697D01*
X87486899Y-131506297D01*
X87486895Y-131506287D01*
X87359346Y-131247643D01*
X87199124Y-131007854D01*
X87174161Y-130979390D01*
X87174160Y-130979390D01*
X86673609Y-131479941D01*
X86557368Y-131330596D01*
X86374477Y-131162232D01*
X86319882Y-131126563D01*
X86820608Y-130625838D01*
X86820608Y-130625835D01*
X86792152Y-130600881D01*
X86792146Y-130600876D01*
X86552356Y-130440653D01*
X86293712Y-130313104D01*
X86293702Y-130313100D01*
X86020635Y-130220407D01*
X86020615Y-130220402D01*
X85737784Y-130164144D01*
X85737757Y-130164140D01*
X85450007Y-130145280D01*
X85449993Y-130145280D01*
X85162242Y-130164140D01*
X85162215Y-130164144D01*
X84879384Y-130220402D01*
X84879364Y-130220407D01*
X84606297Y-130313100D01*
X84606287Y-130313104D01*
X84347643Y-130440653D01*
X84107851Y-130600878D01*
X84079390Y-130625837D01*
X84580117Y-131126564D01*
X84525523Y-131162232D01*
X84342632Y-131330596D01*
X84226389Y-131479942D01*
X83725837Y-130979390D01*
X83700878Y-131007851D01*
X83540653Y-131247643D01*
X83413104Y-131506287D01*
X83413100Y-131506297D01*
X83320407Y-131779364D01*
X83320402Y-131779384D01*
X83264144Y-132062215D01*
X83264140Y-132062242D01*
X83245280Y-132349992D01*
X83245280Y-132350007D01*
X83264140Y-132637757D01*
X83264144Y-132637784D01*
X83320402Y-132920615D01*
X83320407Y-132920635D01*
X83413100Y-133193702D01*
X83413104Y-133193712D01*
X83540653Y-133452356D01*
X83700876Y-133692146D01*
X83700881Y-133692152D01*
X83725835Y-133720608D01*
X83725838Y-133720608D01*
X84226389Y-133220056D01*
X84342632Y-133369404D01*
X84525523Y-133537768D01*
X84580115Y-133573435D01*
X84079390Y-134074160D01*
X84079390Y-134074161D01*
X84107854Y-134099124D01*
X84347643Y-134259346D01*
X84606287Y-134386895D01*
X84606297Y-134386899D01*
X84879364Y-134479592D01*
X84879384Y-134479597D01*
X85162215Y-134535855D01*
X85162242Y-134535859D01*
X85449993Y-134554720D01*
X85450007Y-134554720D01*
X85737757Y-134535859D01*
X85737784Y-134535855D01*
X86020615Y-134479597D01*
X86020635Y-134479592D01*
X86293702Y-134386899D01*
X86293712Y-134386895D01*
X86552356Y-134259346D01*
X86792141Y-134099126D01*
X86792147Y-134099121D01*
X86820608Y-134074162D01*
X86820608Y-134074161D01*
X86319882Y-133573435D01*
X86374477Y-133537768D01*
X86557368Y-133369404D01*
X86673610Y-133220057D01*
X87174161Y-133720608D01*
X87174162Y-133720608D01*
X87199121Y-133692147D01*
X87199126Y-133692141D01*
X87359346Y-133452356D01*
X87486894Y-133193714D01*
X87508080Y-133131302D01*
X87548269Y-133074148D01*
X87612978Y-133047794D01*
X87681663Y-133060608D01*
X87732516Y-133108521D01*
X87749500Y-133171160D01*
X87749500Y-133745572D01*
X87749184Y-133754419D01*
X87734869Y-133954557D01*
X87732351Y-133972068D01*
X87690646Y-134163787D01*
X87685662Y-134180763D01*
X87617090Y-134364609D01*
X87609740Y-134380701D01*
X87515711Y-134552904D01*
X87506146Y-134567789D01*
X87388558Y-134724867D01*
X87376972Y-134738237D01*
X87238237Y-134876972D01*
X87224867Y-134888558D01*
X87067789Y-135006146D01*
X87052904Y-135015711D01*
X86880701Y-135109740D01*
X86864609Y-135117090D01*
X86680763Y-135185662D01*
X86663787Y-135190646D01*
X86472068Y-135232351D01*
X86454557Y-135234869D01*
X86273779Y-135247799D01*
X86254417Y-135249184D01*
X86245572Y-135249500D01*
X45254428Y-135249500D01*
X45245582Y-135249184D01*
X45223622Y-135247613D01*
X45045442Y-135234869D01*
X45027931Y-135232351D01*
X44836212Y-135190646D01*
X44819236Y-135185662D01*
X44635390Y-135117090D01*
X44619298Y-135109740D01*
X44447095Y-135015711D01*
X44432210Y-135006146D01*
X44275132Y-134888558D01*
X44261762Y-134876972D01*
X44123027Y-134738237D01*
X44111441Y-134724867D01*
X43993849Y-134567784D01*
X43984288Y-134552904D01*
X43890259Y-134380701D01*
X43882909Y-134364609D01*
X43814334Y-134180755D01*
X43809355Y-134163797D01*
X43767647Y-133972063D01*
X43765130Y-133954556D01*
X43750816Y-133754418D01*
X43750500Y-133745572D01*
X43750500Y-133171160D01*
X43770185Y-133104121D01*
X43822989Y-133058366D01*
X43892147Y-133048422D01*
X43955703Y-133077447D01*
X43991920Y-133131302D01*
X44013105Y-133193714D01*
X44140653Y-133452356D01*
X44300876Y-133692146D01*
X44300881Y-133692152D01*
X44325835Y-133720608D01*
X44325838Y-133720608D01*
X44826389Y-133220056D01*
X44942632Y-133369404D01*
X45125523Y-133537768D01*
X45180115Y-133573435D01*
X44679390Y-134074160D01*
X44679390Y-134074161D01*
X44707854Y-134099124D01*
X44947643Y-134259346D01*
X45206287Y-134386895D01*
X45206297Y-134386899D01*
X45479364Y-134479592D01*
X45479384Y-134479597D01*
X45762215Y-134535855D01*
X45762242Y-134535859D01*
X46049993Y-134554720D01*
X46050007Y-134554720D01*
X46337757Y-134535859D01*
X46337784Y-134535855D01*
X46620615Y-134479597D01*
X46620635Y-134479592D01*
X46893702Y-134386899D01*
X46893712Y-134386895D01*
X47152356Y-134259346D01*
X47392141Y-134099126D01*
X47392147Y-134099121D01*
X47420608Y-134074162D01*
X47420608Y-134074161D01*
X46919882Y-133573435D01*
X46974477Y-133537768D01*
X47157368Y-133369404D01*
X47273610Y-133220057D01*
X47774161Y-133720608D01*
X47774162Y-133720608D01*
X47799121Y-133692147D01*
X47799126Y-133692141D01*
X47959346Y-133452356D01*
X48086895Y-133193712D01*
X48086899Y-133193702D01*
X48179592Y-132920635D01*
X48179597Y-132920615D01*
X48235855Y-132637784D01*
X48235859Y-132637757D01*
X48254720Y-132350007D01*
X48254720Y-132349992D01*
X48235859Y-132062242D01*
X48235855Y-132062215D01*
X48179597Y-131779384D01*
X48179592Y-131779364D01*
X48086899Y-131506297D01*
X48086895Y-131506287D01*
X47959346Y-131247643D01*
X47799124Y-131007854D01*
X47774161Y-130979390D01*
X47774160Y-130979390D01*
X47273609Y-131479941D01*
X47157368Y-131330596D01*
X46974477Y-131162232D01*
X46919882Y-131126563D01*
X47420608Y-130625838D01*
X47420608Y-130625835D01*
X47392152Y-130600881D01*
X47392146Y-130600876D01*
X47152356Y-130440653D01*
X46893712Y-130313104D01*
X46893702Y-130313100D01*
X46620635Y-130220407D01*
X46620615Y-130220402D01*
X46337784Y-130164144D01*
X46337757Y-130164140D01*
X46050007Y-130145280D01*
X46049993Y-130145280D01*
X45762242Y-130164140D01*
X45762215Y-130164144D01*
X45479384Y-130220402D01*
X45479364Y-130220407D01*
X45206297Y-130313100D01*
X45206287Y-130313104D01*
X44947643Y-130440653D01*
X44707851Y-130600878D01*
X44679390Y-130625837D01*
X45180117Y-131126564D01*
X45125523Y-131162232D01*
X44942632Y-131330596D01*
X44826389Y-131479942D01*
X44325837Y-130979390D01*
X44300878Y-131007851D01*
X44140653Y-131247643D01*
X44013104Y-131506287D01*
X44013100Y-131506297D01*
X43991919Y-131568697D01*
X43951731Y-131625852D01*
X43887022Y-131652205D01*
X43818337Y-131639391D01*
X43767484Y-131591477D01*
X43750500Y-131528839D01*
X43750500Y-126250000D01*
X51250000Y-126250000D01*
X51750000Y-127500000D01*
X53000000Y-128000000D01*
X54250000Y-127500000D01*
X54750000Y-126250000D01*
X76750000Y-126250000D01*
X77250000Y-127500000D01*
X78500000Y-128000000D01*
X79750000Y-127500000D01*
X80250000Y-126250000D01*
X79750000Y-125000000D01*
X78500000Y-124500000D01*
X77250000Y-125000000D01*
X76750000Y-126250000D01*
X54750000Y-126250000D01*
X54250000Y-125000000D01*
X53000000Y-124500000D01*
X51750000Y-125000000D01*
X51250000Y-126250000D01*
X43750500Y-126250000D01*
X43750500Y-119781187D01*
X44299500Y-119781187D01*
X44318685Y-119908462D01*
X44338604Y-120040615D01*
X44338605Y-120040617D01*
X44338606Y-120040623D01*
X44415938Y-120291326D01*
X44529767Y-120527696D01*
X44529768Y-120527697D01*
X44529770Y-120527700D01*
X44529772Y-120527704D01*
X44534249Y-120534270D01*
X44677567Y-120744479D01*
X44856014Y-120936801D01*
X44856018Y-120936804D01*
X44856019Y-120936805D01*
X45061143Y-121100386D01*
X45288357Y-121231568D01*
X45532584Y-121327420D01*
X45788370Y-121385802D01*
X45788376Y-121385802D01*
X45788379Y-121385803D01*
X45950031Y-121397917D01*
X46015412Y-121422556D01*
X46057093Y-121478631D01*
X46061931Y-121547928D01*
X46014804Y-121764566D01*
X45994390Y-122049998D01*
X45994390Y-122050001D01*
X46014804Y-122335433D01*
X46075628Y-122615037D01*
X46175635Y-122883166D01*
X46312770Y-123134309D01*
X46312775Y-123134317D01*
X46484254Y-123363387D01*
X46484270Y-123363405D01*
X46686594Y-123565729D01*
X46686612Y-123565745D01*
X46915682Y-123737224D01*
X46915690Y-123737229D01*
X47166833Y-123874364D01*
X47166832Y-123874364D01*
X47166836Y-123874365D01*
X47166839Y-123874367D01*
X47434954Y-123974369D01*
X47434960Y-123974370D01*
X47434962Y-123974371D01*
X47714566Y-124035195D01*
X47714568Y-124035195D01*
X47714572Y-124035196D01*
X47968220Y-124053337D01*
X47999999Y-124055610D01*
X48000000Y-124055610D01*
X48000001Y-124055610D01*
X48028595Y-124053564D01*
X48285428Y-124035196D01*
X48565046Y-123974369D01*
X48833161Y-123874367D01*
X49084315Y-123737226D01*
X49313395Y-123565739D01*
X49515739Y-123363395D01*
X49687226Y-123134315D01*
X49794677Y-122937534D01*
X60249500Y-122937534D01*
X60279898Y-123109937D01*
X60339775Y-123274446D01*
X60427309Y-123426057D01*
X60539836Y-123560163D01*
X60673942Y-123672690D01*
X60785716Y-123737224D01*
X60825555Y-123760225D01*
X60990062Y-123820101D01*
X61162468Y-123850500D01*
X61162472Y-123850500D01*
X70337528Y-123850500D01*
X70337532Y-123850500D01*
X70509938Y-123820101D01*
X70674445Y-123760225D01*
X70826055Y-123672692D01*
X70960163Y-123560163D01*
X71072692Y-123426055D01*
X71160225Y-123274445D01*
X71220101Y-123109938D01*
X71250500Y-122937532D01*
X71250500Y-122850000D01*
X71250500Y-122784108D01*
X71250500Y-122050001D01*
X81494390Y-122050001D01*
X81514804Y-122335433D01*
X81575628Y-122615037D01*
X81675635Y-122883166D01*
X81812770Y-123134309D01*
X81812775Y-123134317D01*
X81984254Y-123363387D01*
X81984270Y-123363405D01*
X82186594Y-123565729D01*
X82186612Y-123565745D01*
X82415682Y-123737224D01*
X82415690Y-123737229D01*
X82666833Y-123874364D01*
X82666832Y-123874364D01*
X82666836Y-123874365D01*
X82666839Y-123874367D01*
X82934954Y-123974369D01*
X82934960Y-123974370D01*
X82934962Y-123974371D01*
X83214566Y-124035195D01*
X83214568Y-124035195D01*
X83214572Y-124035196D01*
X83468220Y-124053337D01*
X83499999Y-124055610D01*
X83500000Y-124055610D01*
X83500001Y-124055610D01*
X83528595Y-124053564D01*
X83785428Y-124035196D01*
X84065046Y-123974369D01*
X84333161Y-123874367D01*
X84584315Y-123737226D01*
X84813395Y-123565739D01*
X85015739Y-123363395D01*
X85187226Y-123134315D01*
X85324367Y-122883161D01*
X85424369Y-122615046D01*
X85485196Y-122335428D01*
X85505610Y-122050000D01*
X85485196Y-121764572D01*
X85438068Y-121547927D01*
X85443052Y-121478237D01*
X85484923Y-121422303D01*
X85549968Y-121397917D01*
X85711620Y-121385803D01*
X85711622Y-121385802D01*
X85711630Y-121385802D01*
X85967416Y-121327420D01*
X86211643Y-121231568D01*
X86438857Y-121100386D01*
X86643981Y-120936805D01*
X86822433Y-120744479D01*
X86970228Y-120527704D01*
X87084063Y-120291323D01*
X87161396Y-120040615D01*
X87200500Y-119781182D01*
X87200500Y-119518818D01*
X87161396Y-119259385D01*
X87084063Y-119008677D01*
X87072121Y-118983880D01*
X86970232Y-118772303D01*
X86970231Y-118772302D01*
X86970230Y-118772301D01*
X86970228Y-118772296D01*
X86822433Y-118555521D01*
X86812441Y-118544753D01*
X86643985Y-118363198D01*
X86507590Y-118254427D01*
X86438857Y-118199614D01*
X86211643Y-118068432D01*
X85967416Y-117972580D01*
X85967411Y-117972578D01*
X85967402Y-117972576D01*
X85749818Y-117922914D01*
X85711630Y-117914198D01*
X85711629Y-117914197D01*
X85711625Y-117914197D01*
X85711620Y-117914196D01*
X85515515Y-117899500D01*
X85515494Y-117899500D01*
X85384506Y-117899500D01*
X85384484Y-117899500D01*
X85188379Y-117914196D01*
X85188374Y-117914197D01*
X84932597Y-117972576D01*
X84932578Y-117972582D01*
X84688356Y-118068432D01*
X84461143Y-118199614D01*
X84256014Y-118363198D01*
X84077567Y-118555520D01*
X83929768Y-118772302D01*
X83929767Y-118772303D01*
X83815938Y-119008673D01*
X83738606Y-119259376D01*
X83738605Y-119259381D01*
X83738604Y-119259385D01*
X83725021Y-119349500D01*
X83699500Y-119518812D01*
X83699500Y-119781189D01*
X83718684Y-119908463D01*
X83709211Y-119977687D01*
X83663816Y-120030801D01*
X83596912Y-120050941D01*
X83587223Y-120050628D01*
X83500001Y-120044390D01*
X83499999Y-120044390D01*
X83214566Y-120064804D01*
X82934962Y-120125628D01*
X82666833Y-120225635D01*
X82415690Y-120362770D01*
X82415682Y-120362775D01*
X82186612Y-120534254D01*
X82186594Y-120534270D01*
X81984270Y-120736594D01*
X81984254Y-120736612D01*
X81812775Y-120965682D01*
X81812770Y-120965690D01*
X81675635Y-121216833D01*
X81575628Y-121484962D01*
X81514804Y-121764566D01*
X81494390Y-122049998D01*
X81494390Y-122050001D01*
X71250500Y-122050001D01*
X71250500Y-120314201D01*
X71250500Y-120262468D01*
X71220101Y-120090062D01*
X71160225Y-119925555D01*
X71072692Y-119773945D01*
X71072691Y-119773943D01*
X71072690Y-119773942D01*
X70960163Y-119639836D01*
X70826057Y-119527309D01*
X70674446Y-119439775D01*
X70509937Y-119379898D01*
X70337534Y-119349500D01*
X70337532Y-119349500D01*
X70285799Y-119349500D01*
X61315892Y-119349500D01*
X61250000Y-119349500D01*
X61162468Y-119349500D01*
X61162465Y-119349500D01*
X60990062Y-119379898D01*
X60825553Y-119439775D01*
X60673942Y-119527309D01*
X60539836Y-119639836D01*
X60427309Y-119773942D01*
X60339775Y-119925553D01*
X60279898Y-120090062D01*
X60249500Y-120262465D01*
X60249500Y-122937534D01*
X49794677Y-122937534D01*
X49824367Y-122883161D01*
X49924369Y-122615046D01*
X49985196Y-122335428D01*
X50005610Y-122050000D01*
X49985196Y-121764572D01*
X49924369Y-121484954D01*
X49824367Y-121216839D01*
X49744025Y-121069705D01*
X49687229Y-120965690D01*
X49687224Y-120965682D01*
X49515745Y-120736612D01*
X49515729Y-120736594D01*
X49313405Y-120534270D01*
X49313387Y-120534254D01*
X49084317Y-120362775D01*
X49084309Y-120362770D01*
X48833166Y-120225635D01*
X48833167Y-120225635D01*
X48725915Y-120185632D01*
X48565046Y-120125631D01*
X48565043Y-120125630D01*
X48565037Y-120125628D01*
X48285433Y-120064804D01*
X48000001Y-120044390D01*
X47999999Y-120044390D01*
X47912776Y-120050628D01*
X47844503Y-120035776D01*
X47795098Y-119986371D01*
X47780246Y-119918098D01*
X47781315Y-119908462D01*
X47800499Y-119781187D01*
X47800500Y-119781182D01*
X47800500Y-119518817D01*
X47800499Y-119518812D01*
X47761396Y-119259385D01*
X47684063Y-119008677D01*
X47672121Y-118983880D01*
X47570232Y-118772303D01*
X47570231Y-118772302D01*
X47570230Y-118772301D01*
X47570228Y-118772296D01*
X47422433Y-118555521D01*
X47412441Y-118544753D01*
X47243985Y-118363198D01*
X47107590Y-118254427D01*
X47038857Y-118199614D01*
X46811643Y-118068432D01*
X46567416Y-117972580D01*
X46567411Y-117972578D01*
X46567402Y-117972576D01*
X46349818Y-117922914D01*
X46311630Y-117914198D01*
X46311629Y-117914197D01*
X46311625Y-117914197D01*
X46311620Y-117914196D01*
X46115515Y-117899500D01*
X46115494Y-117899500D01*
X45984506Y-117899500D01*
X45984484Y-117899500D01*
X45788379Y-117914196D01*
X45788374Y-117914197D01*
X45532597Y-117972576D01*
X45532578Y-117972582D01*
X45288356Y-118068432D01*
X45061143Y-118199614D01*
X44856014Y-118363198D01*
X44677567Y-118555520D01*
X44529768Y-118772302D01*
X44529767Y-118772303D01*
X44415938Y-119008673D01*
X44338606Y-119259376D01*
X44338605Y-119259381D01*
X44338604Y-119259385D01*
X44325021Y-119349500D01*
X44299500Y-119518812D01*
X44299500Y-119781187D01*
X43750500Y-119781187D01*
X43750500Y-118254427D01*
X43750816Y-118245581D01*
X43765130Y-118045443D01*
X43765131Y-118045442D01*
X43765130Y-118045436D01*
X43767646Y-118027938D01*
X43809356Y-117836199D01*
X43814333Y-117819248D01*
X43882911Y-117635385D01*
X43890259Y-117619298D01*
X43952815Y-117504734D01*
X43984291Y-117447089D01*
X43993845Y-117432221D01*
X44111448Y-117275123D01*
X44123020Y-117261769D01*
X44261769Y-117123020D01*
X44275123Y-117111448D01*
X44432221Y-116993845D01*
X44447089Y-116984291D01*
X44619298Y-116890258D01*
X44635385Y-116882911D01*
X44819248Y-116814333D01*
X44836199Y-116809356D01*
X45027938Y-116767646D01*
X45045436Y-116765130D01*
X45245582Y-116750816D01*
X45254428Y-116750500D01*
X45315892Y-116750500D01*
X86184108Y-116750500D01*
X86245572Y-116750500D01*
X86254418Y-116750816D01*
G37*
%TD.AperFunction*%
%TD*%
%TA.AperFunction,Conductor*%
%TO.N,GND*%
G36*
X131254418Y-116750816D02*
G01*
X131454561Y-116765130D01*
X131472063Y-116767647D01*
X131663797Y-116809355D01*
X131680755Y-116814334D01*
X131864609Y-116882909D01*
X131880701Y-116890259D01*
X132052904Y-116984288D01*
X132067784Y-116993849D01*
X132224867Y-117111441D01*
X132238237Y-117123027D01*
X132376972Y-117261762D01*
X132388558Y-117275132D01*
X132506146Y-117432210D01*
X132515711Y-117447095D01*
X132609740Y-117619298D01*
X132617090Y-117635390D01*
X132685662Y-117819236D01*
X132690646Y-117836212D01*
X132732351Y-118027931D01*
X132734869Y-118045442D01*
X132749184Y-118245580D01*
X132749500Y-118254427D01*
X132749500Y-131528839D01*
X132729815Y-131595878D01*
X132677011Y-131641633D01*
X132607853Y-131651577D01*
X132544297Y-131622552D01*
X132508081Y-131568697D01*
X132486899Y-131506297D01*
X132486895Y-131506287D01*
X132359346Y-131247643D01*
X132199124Y-131007854D01*
X132174161Y-130979390D01*
X132174160Y-130979390D01*
X131673609Y-131479941D01*
X131557368Y-131330596D01*
X131374477Y-131162232D01*
X131319882Y-131126563D01*
X131820608Y-130625838D01*
X131820608Y-130625835D01*
X131792152Y-130600881D01*
X131792146Y-130600876D01*
X131552356Y-130440653D01*
X131293712Y-130313104D01*
X131293702Y-130313100D01*
X131020635Y-130220407D01*
X131020615Y-130220402D01*
X130737784Y-130164144D01*
X130737757Y-130164140D01*
X130450007Y-130145280D01*
X130449993Y-130145280D01*
X130162242Y-130164140D01*
X130162215Y-130164144D01*
X129879384Y-130220402D01*
X129879364Y-130220407D01*
X129606297Y-130313100D01*
X129606287Y-130313104D01*
X129347643Y-130440653D01*
X129107851Y-130600878D01*
X129079390Y-130625837D01*
X129580117Y-131126564D01*
X129525523Y-131162232D01*
X129342632Y-131330596D01*
X129226389Y-131479942D01*
X128725837Y-130979390D01*
X128700878Y-131007851D01*
X128540653Y-131247643D01*
X128413104Y-131506287D01*
X128413100Y-131506297D01*
X128320407Y-131779364D01*
X128320402Y-131779384D01*
X128264144Y-132062215D01*
X128264140Y-132062242D01*
X128245280Y-132349992D01*
X128245280Y-132350007D01*
X128264140Y-132637757D01*
X128264144Y-132637784D01*
X128320402Y-132920615D01*
X128320407Y-132920635D01*
X128413100Y-133193702D01*
X128413104Y-133193712D01*
X128540653Y-133452356D01*
X128700876Y-133692146D01*
X128700881Y-133692152D01*
X128725835Y-133720608D01*
X128725838Y-133720608D01*
X129226389Y-133220056D01*
X129342632Y-133369404D01*
X129525523Y-133537768D01*
X129580115Y-133573435D01*
X129079390Y-134074160D01*
X129079390Y-134074161D01*
X129107854Y-134099124D01*
X129347643Y-134259346D01*
X129606287Y-134386895D01*
X129606297Y-134386899D01*
X129879364Y-134479592D01*
X129879384Y-134479597D01*
X130162215Y-134535855D01*
X130162242Y-134535859D01*
X130449993Y-134554720D01*
X130450007Y-134554720D01*
X130737757Y-134535859D01*
X130737784Y-134535855D01*
X131020615Y-134479597D01*
X131020635Y-134479592D01*
X131293702Y-134386899D01*
X131293712Y-134386895D01*
X131552356Y-134259346D01*
X131792141Y-134099126D01*
X131792147Y-134099121D01*
X131820608Y-134074162D01*
X131820608Y-134074161D01*
X131319882Y-133573435D01*
X131374477Y-133537768D01*
X131557368Y-133369404D01*
X131673610Y-133220057D01*
X132174161Y-133720608D01*
X132174162Y-133720608D01*
X132199121Y-133692147D01*
X132199126Y-133692141D01*
X132359346Y-133452356D01*
X132486894Y-133193714D01*
X132508080Y-133131302D01*
X132548269Y-133074148D01*
X132612978Y-133047794D01*
X132681663Y-133060608D01*
X132732516Y-133108521D01*
X132749500Y-133171160D01*
X132749500Y-133745572D01*
X132749184Y-133754419D01*
X132734869Y-133954557D01*
X132732351Y-133972068D01*
X132690646Y-134163787D01*
X132685662Y-134180763D01*
X132617090Y-134364609D01*
X132609740Y-134380701D01*
X132515711Y-134552904D01*
X132506146Y-134567789D01*
X132388558Y-134724867D01*
X132376972Y-134738237D01*
X132238237Y-134876972D01*
X132224867Y-134888558D01*
X132067789Y-135006146D01*
X132052904Y-135015711D01*
X131880701Y-135109740D01*
X131864609Y-135117090D01*
X131680763Y-135185662D01*
X131663787Y-135190646D01*
X131472068Y-135232351D01*
X131454557Y-135234869D01*
X131273779Y-135247799D01*
X131254417Y-135249184D01*
X131245572Y-135249500D01*
X90254428Y-135249500D01*
X90245582Y-135249184D01*
X90223622Y-135247613D01*
X90045442Y-135234869D01*
X90027931Y-135232351D01*
X89836212Y-135190646D01*
X89819236Y-135185662D01*
X89635390Y-135117090D01*
X89619298Y-135109740D01*
X89447095Y-135015711D01*
X89432210Y-135006146D01*
X89275132Y-134888558D01*
X89261762Y-134876972D01*
X89123027Y-134738237D01*
X89111441Y-134724867D01*
X88993849Y-134567784D01*
X88984288Y-134552904D01*
X88890259Y-134380701D01*
X88882909Y-134364609D01*
X88814334Y-134180755D01*
X88809355Y-134163797D01*
X88767647Y-133972063D01*
X88765130Y-133954556D01*
X88750816Y-133754418D01*
X88750500Y-133745572D01*
X88750500Y-133171160D01*
X88770185Y-133104121D01*
X88822989Y-133058366D01*
X88892147Y-133048422D01*
X88955703Y-133077447D01*
X88991920Y-133131302D01*
X89013105Y-133193714D01*
X89140653Y-133452356D01*
X89300876Y-133692146D01*
X89300881Y-133692152D01*
X89325835Y-133720608D01*
X89325838Y-133720608D01*
X89826389Y-133220056D01*
X89942632Y-133369404D01*
X90125523Y-133537768D01*
X90180115Y-133573435D01*
X89679390Y-134074160D01*
X89679390Y-134074161D01*
X89707854Y-134099124D01*
X89947643Y-134259346D01*
X90206287Y-134386895D01*
X90206297Y-134386899D01*
X90479364Y-134479592D01*
X90479384Y-134479597D01*
X90762215Y-134535855D01*
X90762242Y-134535859D01*
X91049993Y-134554720D01*
X91050007Y-134554720D01*
X91337757Y-134535859D01*
X91337784Y-134535855D01*
X91620615Y-134479597D01*
X91620635Y-134479592D01*
X91893702Y-134386899D01*
X91893712Y-134386895D01*
X92152356Y-134259346D01*
X92392141Y-134099126D01*
X92392147Y-134099121D01*
X92420608Y-134074162D01*
X92420608Y-134074161D01*
X91919882Y-133573435D01*
X91974477Y-133537768D01*
X92157368Y-133369404D01*
X92273610Y-133220057D01*
X92774161Y-133720608D01*
X92774162Y-133720608D01*
X92799121Y-133692147D01*
X92799126Y-133692141D01*
X92959346Y-133452356D01*
X93086895Y-133193712D01*
X93086899Y-133193702D01*
X93179592Y-132920635D01*
X93179597Y-132920615D01*
X93235855Y-132637784D01*
X93235859Y-132637757D01*
X93254720Y-132350007D01*
X93254720Y-132349992D01*
X93235859Y-132062242D01*
X93235855Y-132062215D01*
X93179597Y-131779384D01*
X93179592Y-131779364D01*
X93086899Y-131506297D01*
X93086895Y-131506287D01*
X92959346Y-131247643D01*
X92799124Y-131007854D01*
X92774161Y-130979390D01*
X92774160Y-130979390D01*
X92273609Y-131479941D01*
X92157368Y-131330596D01*
X91974477Y-131162232D01*
X91919882Y-131126563D01*
X92420608Y-130625838D01*
X92420608Y-130625835D01*
X92392152Y-130600881D01*
X92392146Y-130600876D01*
X92152356Y-130440653D01*
X91893712Y-130313104D01*
X91893702Y-130313100D01*
X91620635Y-130220407D01*
X91620615Y-130220402D01*
X91337784Y-130164144D01*
X91337757Y-130164140D01*
X91050007Y-130145280D01*
X91049993Y-130145280D01*
X90762242Y-130164140D01*
X90762215Y-130164144D01*
X90479384Y-130220402D01*
X90479364Y-130220407D01*
X90206297Y-130313100D01*
X90206287Y-130313104D01*
X89947643Y-130440653D01*
X89707851Y-130600878D01*
X89679390Y-130625837D01*
X90180117Y-131126564D01*
X90125523Y-131162232D01*
X89942632Y-131330596D01*
X89826389Y-131479942D01*
X89325837Y-130979390D01*
X89300878Y-131007851D01*
X89140653Y-131247643D01*
X89013104Y-131506287D01*
X89013100Y-131506297D01*
X88991919Y-131568697D01*
X88951731Y-131625852D01*
X88887022Y-131652205D01*
X88818337Y-131639391D01*
X88767484Y-131591477D01*
X88750500Y-131528839D01*
X88750500Y-126250000D01*
X96250000Y-126250000D01*
X96750000Y-127500000D01*
X98000000Y-128000000D01*
X99250000Y-127500000D01*
X99750000Y-126250000D01*
X121750000Y-126250000D01*
X122250000Y-127500000D01*
X123500000Y-128000000D01*
X124750000Y-127500000D01*
X125250000Y-126250000D01*
X124750000Y-125000000D01*
X123500000Y-124500000D01*
X122250000Y-125000000D01*
X121750000Y-126250000D01*
X99750000Y-126250000D01*
X99250000Y-125000000D01*
X98000000Y-124500000D01*
X96750000Y-125000000D01*
X96250000Y-126250000D01*
X88750500Y-126250000D01*
X88750500Y-119781187D01*
X89299500Y-119781187D01*
X89318685Y-119908462D01*
X89338604Y-120040615D01*
X89338605Y-120040617D01*
X89338606Y-120040623D01*
X89415938Y-120291326D01*
X89529767Y-120527696D01*
X89529768Y-120527697D01*
X89529770Y-120527700D01*
X89529772Y-120527704D01*
X89534249Y-120534270D01*
X89677567Y-120744479D01*
X89856014Y-120936801D01*
X89856018Y-120936804D01*
X89856019Y-120936805D01*
X90061143Y-121100386D01*
X90288357Y-121231568D01*
X90532584Y-121327420D01*
X90788370Y-121385802D01*
X90788376Y-121385802D01*
X90788379Y-121385803D01*
X90950031Y-121397917D01*
X91015412Y-121422556D01*
X91057093Y-121478631D01*
X91061931Y-121547928D01*
X91014804Y-121764566D01*
X90994390Y-122049998D01*
X90994390Y-122050001D01*
X91014804Y-122335433D01*
X91075628Y-122615037D01*
X91175635Y-122883166D01*
X91312770Y-123134309D01*
X91312775Y-123134317D01*
X91484254Y-123363387D01*
X91484270Y-123363405D01*
X91686594Y-123565729D01*
X91686612Y-123565745D01*
X91915682Y-123737224D01*
X91915690Y-123737229D01*
X92166833Y-123874364D01*
X92166832Y-123874364D01*
X92166836Y-123874365D01*
X92166839Y-123874367D01*
X92434954Y-123974369D01*
X92434960Y-123974370D01*
X92434962Y-123974371D01*
X92714566Y-124035195D01*
X92714568Y-124035195D01*
X92714572Y-124035196D01*
X92968220Y-124053337D01*
X92999999Y-124055610D01*
X93000000Y-124055610D01*
X93000001Y-124055610D01*
X93028595Y-124053564D01*
X93285428Y-124035196D01*
X93565046Y-123974369D01*
X93833161Y-123874367D01*
X94084315Y-123737226D01*
X94313395Y-123565739D01*
X94515739Y-123363395D01*
X94687226Y-123134315D01*
X94794677Y-122937534D01*
X105249500Y-122937534D01*
X105279898Y-123109937D01*
X105339775Y-123274446D01*
X105427309Y-123426057D01*
X105539836Y-123560163D01*
X105673942Y-123672690D01*
X105785716Y-123737224D01*
X105825555Y-123760225D01*
X105990062Y-123820101D01*
X106162468Y-123850500D01*
X106162472Y-123850500D01*
X115337528Y-123850500D01*
X115337532Y-123850500D01*
X115509938Y-123820101D01*
X115674445Y-123760225D01*
X115826055Y-123672692D01*
X115960163Y-123560163D01*
X116072692Y-123426055D01*
X116160225Y-123274445D01*
X116220101Y-123109938D01*
X116250500Y-122937532D01*
X116250500Y-122850000D01*
X116250500Y-122784108D01*
X116250500Y-122050001D01*
X126494390Y-122050001D01*
X126514804Y-122335433D01*
X126575628Y-122615037D01*
X126675635Y-122883166D01*
X126812770Y-123134309D01*
X126812775Y-123134317D01*
X126984254Y-123363387D01*
X126984270Y-123363405D01*
X127186594Y-123565729D01*
X127186612Y-123565745D01*
X127415682Y-123737224D01*
X127415690Y-123737229D01*
X127666833Y-123874364D01*
X127666832Y-123874364D01*
X127666836Y-123874365D01*
X127666839Y-123874367D01*
X127934954Y-123974369D01*
X127934960Y-123974370D01*
X127934962Y-123974371D01*
X128214566Y-124035195D01*
X128214568Y-124035195D01*
X128214572Y-124035196D01*
X128468220Y-124053337D01*
X128499999Y-124055610D01*
X128500000Y-124055610D01*
X128500001Y-124055610D01*
X128528595Y-124053564D01*
X128785428Y-124035196D01*
X129065046Y-123974369D01*
X129333161Y-123874367D01*
X129584315Y-123737226D01*
X129813395Y-123565739D01*
X130015739Y-123363395D01*
X130187226Y-123134315D01*
X130324367Y-122883161D01*
X130424369Y-122615046D01*
X130485196Y-122335428D01*
X130505610Y-122050000D01*
X130485196Y-121764572D01*
X130438068Y-121547927D01*
X130443052Y-121478237D01*
X130484923Y-121422303D01*
X130549968Y-121397917D01*
X130711620Y-121385803D01*
X130711622Y-121385802D01*
X130711630Y-121385802D01*
X130967416Y-121327420D01*
X131211643Y-121231568D01*
X131438857Y-121100386D01*
X131643981Y-120936805D01*
X131822433Y-120744479D01*
X131970228Y-120527704D01*
X132084063Y-120291323D01*
X132161396Y-120040615D01*
X132200500Y-119781182D01*
X132200500Y-119518818D01*
X132161396Y-119259385D01*
X132084063Y-119008677D01*
X132072121Y-118983880D01*
X131970232Y-118772303D01*
X131970231Y-118772302D01*
X131970230Y-118772301D01*
X131970228Y-118772296D01*
X131822433Y-118555521D01*
X131812441Y-118544753D01*
X131643985Y-118363198D01*
X131507590Y-118254427D01*
X131438857Y-118199614D01*
X131211643Y-118068432D01*
X130967416Y-117972580D01*
X130967411Y-117972578D01*
X130967402Y-117972576D01*
X130749818Y-117922914D01*
X130711630Y-117914198D01*
X130711629Y-117914197D01*
X130711625Y-117914197D01*
X130711620Y-117914196D01*
X130515515Y-117899500D01*
X130515494Y-117899500D01*
X130384506Y-117899500D01*
X130384484Y-117899500D01*
X130188379Y-117914196D01*
X130188374Y-117914197D01*
X129932597Y-117972576D01*
X129932578Y-117972582D01*
X129688356Y-118068432D01*
X129461143Y-118199614D01*
X129256014Y-118363198D01*
X129077567Y-118555520D01*
X128929768Y-118772302D01*
X128929767Y-118772303D01*
X128815938Y-119008673D01*
X128738606Y-119259376D01*
X128738605Y-119259381D01*
X128738604Y-119259385D01*
X128725021Y-119349500D01*
X128699500Y-119518812D01*
X128699500Y-119781189D01*
X128718684Y-119908463D01*
X128709211Y-119977687D01*
X128663816Y-120030801D01*
X128596912Y-120050941D01*
X128587223Y-120050628D01*
X128500001Y-120044390D01*
X128499999Y-120044390D01*
X128214566Y-120064804D01*
X127934962Y-120125628D01*
X127666833Y-120225635D01*
X127415690Y-120362770D01*
X127415682Y-120362775D01*
X127186612Y-120534254D01*
X127186594Y-120534270D01*
X126984270Y-120736594D01*
X126984254Y-120736612D01*
X126812775Y-120965682D01*
X126812770Y-120965690D01*
X126675635Y-121216833D01*
X126575628Y-121484962D01*
X126514804Y-121764566D01*
X126494390Y-122049998D01*
X126494390Y-122050001D01*
X116250500Y-122050001D01*
X116250500Y-120314201D01*
X116250500Y-120262468D01*
X116220101Y-120090062D01*
X116160225Y-119925555D01*
X116072692Y-119773945D01*
X116072691Y-119773943D01*
X116072690Y-119773942D01*
X115960163Y-119639836D01*
X115826057Y-119527309D01*
X115674446Y-119439775D01*
X115509937Y-119379898D01*
X115337534Y-119349500D01*
X115337532Y-119349500D01*
X115285799Y-119349500D01*
X106315892Y-119349500D01*
X106250000Y-119349500D01*
X106162468Y-119349500D01*
X106162465Y-119349500D01*
X105990062Y-119379898D01*
X105825553Y-119439775D01*
X105673942Y-119527309D01*
X105539836Y-119639836D01*
X105427309Y-119773942D01*
X105339775Y-119925553D01*
X105279898Y-120090062D01*
X105249500Y-120262465D01*
X105249500Y-122937534D01*
X94794677Y-122937534D01*
X94824367Y-122883161D01*
X94924369Y-122615046D01*
X94985196Y-122335428D01*
X95005610Y-122050000D01*
X94985196Y-121764572D01*
X94924369Y-121484954D01*
X94824367Y-121216839D01*
X94744025Y-121069705D01*
X94687229Y-120965690D01*
X94687224Y-120965682D01*
X94515745Y-120736612D01*
X94515729Y-120736594D01*
X94313405Y-120534270D01*
X94313387Y-120534254D01*
X94084317Y-120362775D01*
X94084309Y-120362770D01*
X93833166Y-120225635D01*
X93833167Y-120225635D01*
X93725915Y-120185632D01*
X93565046Y-120125631D01*
X93565043Y-120125630D01*
X93565037Y-120125628D01*
X93285433Y-120064804D01*
X93000001Y-120044390D01*
X92999999Y-120044390D01*
X92912776Y-120050628D01*
X92844503Y-120035776D01*
X92795098Y-119986371D01*
X92780246Y-119918098D01*
X92781315Y-119908462D01*
X92800499Y-119781187D01*
X92800500Y-119781182D01*
X92800500Y-119518817D01*
X92800499Y-119518812D01*
X92761396Y-119259385D01*
X92684063Y-119008677D01*
X92672121Y-118983880D01*
X92570232Y-118772303D01*
X92570231Y-118772302D01*
X92570230Y-118772301D01*
X92570228Y-118772296D01*
X92422433Y-118555521D01*
X92412441Y-118544753D01*
X92243985Y-118363198D01*
X92107590Y-118254427D01*
X92038857Y-118199614D01*
X91811643Y-118068432D01*
X91567416Y-117972580D01*
X91567411Y-117972578D01*
X91567402Y-117972576D01*
X91349818Y-117922914D01*
X91311630Y-117914198D01*
X91311629Y-117914197D01*
X91311625Y-117914197D01*
X91311620Y-117914196D01*
X91115515Y-117899500D01*
X91115494Y-117899500D01*
X90984506Y-117899500D01*
X90984484Y-117899500D01*
X90788379Y-117914196D01*
X90788374Y-117914197D01*
X90532597Y-117972576D01*
X90532578Y-117972582D01*
X90288356Y-118068432D01*
X90061143Y-118199614D01*
X89856014Y-118363198D01*
X89677567Y-118555520D01*
X89529768Y-118772302D01*
X89529767Y-118772303D01*
X89415938Y-119008673D01*
X89338606Y-119259376D01*
X89338605Y-119259381D01*
X89338604Y-119259385D01*
X89325021Y-119349500D01*
X89299500Y-119518812D01*
X89299500Y-119781187D01*
X88750500Y-119781187D01*
X88750500Y-118254427D01*
X88750816Y-118245581D01*
X88765130Y-118045443D01*
X88765131Y-118045442D01*
X88765130Y-118045436D01*
X88767646Y-118027938D01*
X88809356Y-117836199D01*
X88814333Y-117819248D01*
X88882911Y-117635385D01*
X88890259Y-117619298D01*
X88952815Y-117504734D01*
X88984291Y-117447089D01*
X88993845Y-117432221D01*
X89111448Y-117275123D01*
X89123020Y-117261769D01*
X89261769Y-117123020D01*
X89275123Y-117111448D01*
X89432221Y-116993845D01*
X89447089Y-116984291D01*
X89619298Y-116890258D01*
X89635385Y-116882911D01*
X89819248Y-116814333D01*
X89836199Y-116809356D01*
X90027938Y-116767646D01*
X90045436Y-116765130D01*
X90245582Y-116750816D01*
X90254428Y-116750500D01*
X90315892Y-116750500D01*
X131184108Y-116750500D01*
X131245572Y-116750500D01*
X131254418Y-116750816D01*
G37*
%TD.AperFunction*%
%TD*%
%TA.AperFunction,Conductor*%
%TO.N,GND*%
G36*
X86254418Y-136250816D02*
G01*
X86454561Y-136265130D01*
X86472063Y-136267647D01*
X86663797Y-136309355D01*
X86680755Y-136314334D01*
X86864609Y-136382909D01*
X86880701Y-136390259D01*
X87052904Y-136484288D01*
X87067784Y-136493849D01*
X87224867Y-136611441D01*
X87238237Y-136623027D01*
X87376972Y-136761762D01*
X87388558Y-136775132D01*
X87506146Y-136932210D01*
X87515711Y-136947095D01*
X87609740Y-137119298D01*
X87617090Y-137135390D01*
X87685662Y-137319236D01*
X87690646Y-137336212D01*
X87732351Y-137527931D01*
X87734869Y-137545442D01*
X87749184Y-137745580D01*
X87749500Y-137754427D01*
X87749500Y-151028839D01*
X87729815Y-151095878D01*
X87677011Y-151141633D01*
X87607853Y-151151577D01*
X87544297Y-151122552D01*
X87508081Y-151068697D01*
X87486899Y-151006297D01*
X87486895Y-151006287D01*
X87359346Y-150747643D01*
X87199124Y-150507854D01*
X87174161Y-150479390D01*
X87174160Y-150479390D01*
X86673609Y-150979941D01*
X86557368Y-150830596D01*
X86374477Y-150662232D01*
X86319882Y-150626563D01*
X86820608Y-150125838D01*
X86820608Y-150125835D01*
X86792152Y-150100881D01*
X86792146Y-150100876D01*
X86552356Y-149940653D01*
X86293712Y-149813104D01*
X86293702Y-149813100D01*
X86020635Y-149720407D01*
X86020615Y-149720402D01*
X85737784Y-149664144D01*
X85737757Y-149664140D01*
X85450007Y-149645280D01*
X85449993Y-149645280D01*
X85162242Y-149664140D01*
X85162215Y-149664144D01*
X84879384Y-149720402D01*
X84879364Y-149720407D01*
X84606297Y-149813100D01*
X84606287Y-149813104D01*
X84347643Y-149940653D01*
X84107851Y-150100878D01*
X84079390Y-150125837D01*
X84580117Y-150626564D01*
X84525523Y-150662232D01*
X84342632Y-150830596D01*
X84226389Y-150979942D01*
X83725837Y-150479390D01*
X83700878Y-150507851D01*
X83540653Y-150747643D01*
X83413104Y-151006287D01*
X83413100Y-151006297D01*
X83320407Y-151279364D01*
X83320402Y-151279384D01*
X83264144Y-151562215D01*
X83264140Y-151562242D01*
X83245280Y-151849992D01*
X83245280Y-151850007D01*
X83264140Y-152137757D01*
X83264144Y-152137784D01*
X83320402Y-152420615D01*
X83320407Y-152420635D01*
X83413100Y-152693702D01*
X83413104Y-152693712D01*
X83540653Y-152952356D01*
X83700876Y-153192146D01*
X83700881Y-153192152D01*
X83725835Y-153220608D01*
X83725838Y-153220608D01*
X84226389Y-152720056D01*
X84342632Y-152869404D01*
X84525523Y-153037768D01*
X84580115Y-153073435D01*
X84079390Y-153574160D01*
X84079390Y-153574161D01*
X84107854Y-153599124D01*
X84347643Y-153759346D01*
X84606287Y-153886895D01*
X84606297Y-153886899D01*
X84879364Y-153979592D01*
X84879384Y-153979597D01*
X85162215Y-154035855D01*
X85162242Y-154035859D01*
X85449993Y-154054720D01*
X85450007Y-154054720D01*
X85737757Y-154035859D01*
X85737784Y-154035855D01*
X86020615Y-153979597D01*
X86020635Y-153979592D01*
X86293702Y-153886899D01*
X86293712Y-153886895D01*
X86552356Y-153759346D01*
X86792141Y-153599126D01*
X86792147Y-153599121D01*
X86820608Y-153574162D01*
X86820608Y-153574161D01*
X86319882Y-153073435D01*
X86374477Y-153037768D01*
X86557368Y-152869404D01*
X86673610Y-152720057D01*
X87174161Y-153220608D01*
X87174162Y-153220608D01*
X87199121Y-153192147D01*
X87199126Y-153192141D01*
X87359346Y-152952356D01*
X87486894Y-152693714D01*
X87508080Y-152631302D01*
X87548269Y-152574148D01*
X87612978Y-152547794D01*
X87681663Y-152560608D01*
X87732516Y-152608521D01*
X87749500Y-152671160D01*
X87749500Y-153245572D01*
X87749184Y-153254419D01*
X87734869Y-153454557D01*
X87732351Y-153472068D01*
X87690646Y-153663787D01*
X87685662Y-153680763D01*
X87617090Y-153864609D01*
X87609740Y-153880701D01*
X87515711Y-154052904D01*
X87506146Y-154067789D01*
X87388558Y-154224867D01*
X87376972Y-154238237D01*
X87238237Y-154376972D01*
X87224867Y-154388558D01*
X87067789Y-154506146D01*
X87052904Y-154515711D01*
X86880701Y-154609740D01*
X86864609Y-154617090D01*
X86680763Y-154685662D01*
X86663787Y-154690646D01*
X86472068Y-154732351D01*
X86454557Y-154734869D01*
X86273779Y-154747799D01*
X86254417Y-154749184D01*
X86245572Y-154749500D01*
X45254428Y-154749500D01*
X45245582Y-154749184D01*
X45223622Y-154747613D01*
X45045442Y-154734869D01*
X45027931Y-154732351D01*
X44836212Y-154690646D01*
X44819236Y-154685662D01*
X44635390Y-154617090D01*
X44619298Y-154609740D01*
X44447095Y-154515711D01*
X44432210Y-154506146D01*
X44275132Y-154388558D01*
X44261762Y-154376972D01*
X44123027Y-154238237D01*
X44111441Y-154224867D01*
X43993849Y-154067784D01*
X43984288Y-154052904D01*
X43890259Y-153880701D01*
X43882909Y-153864609D01*
X43814334Y-153680755D01*
X43809355Y-153663797D01*
X43767647Y-153472063D01*
X43765130Y-153454556D01*
X43750816Y-153254418D01*
X43750500Y-153245572D01*
X43750500Y-152671160D01*
X43770185Y-152604121D01*
X43822989Y-152558366D01*
X43892147Y-152548422D01*
X43955703Y-152577447D01*
X43991920Y-152631302D01*
X44013105Y-152693714D01*
X44140653Y-152952356D01*
X44300876Y-153192146D01*
X44300881Y-153192152D01*
X44325835Y-153220608D01*
X44325838Y-153220608D01*
X44826389Y-152720056D01*
X44942632Y-152869404D01*
X45125523Y-153037768D01*
X45180115Y-153073435D01*
X44679390Y-153574160D01*
X44679390Y-153574161D01*
X44707854Y-153599124D01*
X44947643Y-153759346D01*
X45206287Y-153886895D01*
X45206297Y-153886899D01*
X45479364Y-153979592D01*
X45479384Y-153979597D01*
X45762215Y-154035855D01*
X45762242Y-154035859D01*
X46049993Y-154054720D01*
X46050007Y-154054720D01*
X46337757Y-154035859D01*
X46337784Y-154035855D01*
X46620615Y-153979597D01*
X46620635Y-153979592D01*
X46893702Y-153886899D01*
X46893712Y-153886895D01*
X47152356Y-153759346D01*
X47392141Y-153599126D01*
X47392147Y-153599121D01*
X47420608Y-153574162D01*
X47420608Y-153574161D01*
X46919882Y-153073435D01*
X46974477Y-153037768D01*
X47157368Y-152869404D01*
X47273610Y-152720057D01*
X47774161Y-153220608D01*
X47774162Y-153220608D01*
X47799121Y-153192147D01*
X47799126Y-153192141D01*
X47959346Y-152952356D01*
X48086895Y-152693712D01*
X48086899Y-152693702D01*
X48179592Y-152420635D01*
X48179597Y-152420615D01*
X48235855Y-152137784D01*
X48235859Y-152137757D01*
X48254720Y-151850007D01*
X48254720Y-151849992D01*
X48235859Y-151562242D01*
X48235855Y-151562215D01*
X48179597Y-151279384D01*
X48179592Y-151279364D01*
X48086899Y-151006297D01*
X48086895Y-151006287D01*
X47959346Y-150747643D01*
X47799124Y-150507854D01*
X47774161Y-150479390D01*
X47774160Y-150479390D01*
X47273609Y-150979941D01*
X47157368Y-150830596D01*
X46974477Y-150662232D01*
X46919882Y-150626563D01*
X47420608Y-150125838D01*
X47420608Y-150125835D01*
X47392152Y-150100881D01*
X47392146Y-150100876D01*
X47152356Y-149940653D01*
X46893712Y-149813104D01*
X46893702Y-149813100D01*
X46620635Y-149720407D01*
X46620615Y-149720402D01*
X46337784Y-149664144D01*
X46337757Y-149664140D01*
X46050007Y-149645280D01*
X46049993Y-149645280D01*
X45762242Y-149664140D01*
X45762215Y-149664144D01*
X45479384Y-149720402D01*
X45479364Y-149720407D01*
X45206297Y-149813100D01*
X45206287Y-149813104D01*
X44947643Y-149940653D01*
X44707851Y-150100878D01*
X44679390Y-150125837D01*
X45180117Y-150626564D01*
X45125523Y-150662232D01*
X44942632Y-150830596D01*
X44826389Y-150979942D01*
X44325837Y-150479390D01*
X44300878Y-150507851D01*
X44140653Y-150747643D01*
X44013104Y-151006287D01*
X44013100Y-151006297D01*
X43991919Y-151068697D01*
X43951731Y-151125852D01*
X43887022Y-151152205D01*
X43818337Y-151139391D01*
X43767484Y-151091477D01*
X43750500Y-151028839D01*
X43750500Y-145750000D01*
X51250000Y-145750000D01*
X51750000Y-147000000D01*
X53000000Y-147500000D01*
X54250000Y-147000000D01*
X54750000Y-145750000D01*
X76750000Y-145750000D01*
X77250000Y-147000000D01*
X78500000Y-147500000D01*
X79750000Y-147000000D01*
X80250000Y-145750000D01*
X79750000Y-144500000D01*
X78500000Y-144000000D01*
X77250000Y-144500000D01*
X76750000Y-145750000D01*
X54750000Y-145750000D01*
X54250000Y-144500000D01*
X53000000Y-144000000D01*
X51750000Y-144500000D01*
X51250000Y-145750000D01*
X43750500Y-145750000D01*
X43750500Y-139281187D01*
X44299500Y-139281187D01*
X44318685Y-139408462D01*
X44338604Y-139540615D01*
X44338605Y-139540617D01*
X44338606Y-139540623D01*
X44415938Y-139791326D01*
X44529767Y-140027696D01*
X44529768Y-140027697D01*
X44529770Y-140027700D01*
X44529772Y-140027704D01*
X44534249Y-140034270D01*
X44677567Y-140244479D01*
X44856014Y-140436801D01*
X44856018Y-140436804D01*
X44856019Y-140436805D01*
X45061143Y-140600386D01*
X45288357Y-140731568D01*
X45532584Y-140827420D01*
X45788370Y-140885802D01*
X45788376Y-140885802D01*
X45788379Y-140885803D01*
X45950031Y-140897917D01*
X46015412Y-140922556D01*
X46057093Y-140978631D01*
X46061931Y-141047928D01*
X46014804Y-141264566D01*
X45994390Y-141549998D01*
X45994390Y-141550001D01*
X46014804Y-141835433D01*
X46075628Y-142115037D01*
X46175635Y-142383166D01*
X46312770Y-142634309D01*
X46312775Y-142634317D01*
X46484254Y-142863387D01*
X46484270Y-142863405D01*
X46686594Y-143065729D01*
X46686612Y-143065745D01*
X46915682Y-143237224D01*
X46915690Y-143237229D01*
X47166833Y-143374364D01*
X47166832Y-143374364D01*
X47166836Y-143374365D01*
X47166839Y-143374367D01*
X47434954Y-143474369D01*
X47434960Y-143474370D01*
X47434962Y-143474371D01*
X47714566Y-143535195D01*
X47714568Y-143535195D01*
X47714572Y-143535196D01*
X47968220Y-143553337D01*
X47999999Y-143555610D01*
X48000000Y-143555610D01*
X48000001Y-143555610D01*
X48028595Y-143553564D01*
X48285428Y-143535196D01*
X48565046Y-143474369D01*
X48833161Y-143374367D01*
X49084315Y-143237226D01*
X49313395Y-143065739D01*
X49515739Y-142863395D01*
X49687226Y-142634315D01*
X49794677Y-142437534D01*
X60249500Y-142437534D01*
X60279898Y-142609937D01*
X60339775Y-142774446D01*
X60427309Y-142926057D01*
X60539836Y-143060163D01*
X60673942Y-143172690D01*
X60785716Y-143237224D01*
X60825555Y-143260225D01*
X60990062Y-143320101D01*
X61162468Y-143350500D01*
X61162472Y-143350500D01*
X70337528Y-143350500D01*
X70337532Y-143350500D01*
X70509938Y-143320101D01*
X70674445Y-143260225D01*
X70826055Y-143172692D01*
X70960163Y-143060163D01*
X71072692Y-142926055D01*
X71160225Y-142774445D01*
X71220101Y-142609938D01*
X71250500Y-142437532D01*
X71250500Y-142350000D01*
X71250500Y-142284108D01*
X71250500Y-141550001D01*
X81494390Y-141550001D01*
X81514804Y-141835433D01*
X81575628Y-142115037D01*
X81675635Y-142383166D01*
X81812770Y-142634309D01*
X81812775Y-142634317D01*
X81984254Y-142863387D01*
X81984270Y-142863405D01*
X82186594Y-143065729D01*
X82186612Y-143065745D01*
X82415682Y-143237224D01*
X82415690Y-143237229D01*
X82666833Y-143374364D01*
X82666832Y-143374364D01*
X82666836Y-143374365D01*
X82666839Y-143374367D01*
X82934954Y-143474369D01*
X82934960Y-143474370D01*
X82934962Y-143474371D01*
X83214566Y-143535195D01*
X83214568Y-143535195D01*
X83214572Y-143535196D01*
X83468220Y-143553337D01*
X83499999Y-143555610D01*
X83500000Y-143555610D01*
X83500001Y-143555610D01*
X83528595Y-143553564D01*
X83785428Y-143535196D01*
X84065046Y-143474369D01*
X84333161Y-143374367D01*
X84584315Y-143237226D01*
X84813395Y-143065739D01*
X85015739Y-142863395D01*
X85187226Y-142634315D01*
X85324367Y-142383161D01*
X85424369Y-142115046D01*
X85485196Y-141835428D01*
X85505610Y-141550000D01*
X85485196Y-141264572D01*
X85438068Y-141047927D01*
X85443052Y-140978237D01*
X85484923Y-140922303D01*
X85549968Y-140897917D01*
X85711620Y-140885803D01*
X85711622Y-140885802D01*
X85711630Y-140885802D01*
X85967416Y-140827420D01*
X86211643Y-140731568D01*
X86438857Y-140600386D01*
X86643981Y-140436805D01*
X86822433Y-140244479D01*
X86970228Y-140027704D01*
X87084063Y-139791323D01*
X87161396Y-139540615D01*
X87200500Y-139281182D01*
X87200500Y-139018818D01*
X87161396Y-138759385D01*
X87084063Y-138508677D01*
X87072121Y-138483880D01*
X86970232Y-138272303D01*
X86970231Y-138272302D01*
X86970230Y-138272301D01*
X86970228Y-138272296D01*
X86822433Y-138055521D01*
X86812441Y-138044753D01*
X86643985Y-137863198D01*
X86507590Y-137754427D01*
X86438857Y-137699614D01*
X86211643Y-137568432D01*
X85967416Y-137472580D01*
X85967411Y-137472578D01*
X85967402Y-137472576D01*
X85749818Y-137422914D01*
X85711630Y-137414198D01*
X85711629Y-137414197D01*
X85711625Y-137414197D01*
X85711620Y-137414196D01*
X85515515Y-137399500D01*
X85515494Y-137399500D01*
X85384506Y-137399500D01*
X85384484Y-137399500D01*
X85188379Y-137414196D01*
X85188374Y-137414197D01*
X84932597Y-137472576D01*
X84932578Y-137472582D01*
X84688356Y-137568432D01*
X84461143Y-137699614D01*
X84256014Y-137863198D01*
X84077567Y-138055520D01*
X83929768Y-138272302D01*
X83929767Y-138272303D01*
X83815938Y-138508673D01*
X83738606Y-138759376D01*
X83738605Y-138759381D01*
X83738604Y-138759385D01*
X83725021Y-138849500D01*
X83699500Y-139018812D01*
X83699500Y-139281189D01*
X83718684Y-139408463D01*
X83709211Y-139477687D01*
X83663816Y-139530801D01*
X83596912Y-139550941D01*
X83587223Y-139550628D01*
X83500001Y-139544390D01*
X83499999Y-139544390D01*
X83214566Y-139564804D01*
X82934962Y-139625628D01*
X82666833Y-139725635D01*
X82415690Y-139862770D01*
X82415682Y-139862775D01*
X82186612Y-140034254D01*
X82186594Y-140034270D01*
X81984270Y-140236594D01*
X81984254Y-140236612D01*
X81812775Y-140465682D01*
X81812770Y-140465690D01*
X81675635Y-140716833D01*
X81575628Y-140984962D01*
X81514804Y-141264566D01*
X81494390Y-141549998D01*
X81494390Y-141550001D01*
X71250500Y-141550001D01*
X71250500Y-139814201D01*
X71250500Y-139762468D01*
X71220101Y-139590062D01*
X71160225Y-139425555D01*
X71072692Y-139273945D01*
X71072691Y-139273943D01*
X71072690Y-139273942D01*
X70960163Y-139139836D01*
X70826057Y-139027309D01*
X70674446Y-138939775D01*
X70509937Y-138879898D01*
X70337534Y-138849500D01*
X70337532Y-138849500D01*
X70285799Y-138849500D01*
X61315892Y-138849500D01*
X61250000Y-138849500D01*
X61162468Y-138849500D01*
X61162465Y-138849500D01*
X60990062Y-138879898D01*
X60825553Y-138939775D01*
X60673942Y-139027309D01*
X60539836Y-139139836D01*
X60427309Y-139273942D01*
X60339775Y-139425553D01*
X60279898Y-139590062D01*
X60249500Y-139762465D01*
X60249500Y-142437534D01*
X49794677Y-142437534D01*
X49824367Y-142383161D01*
X49924369Y-142115046D01*
X49985196Y-141835428D01*
X50005610Y-141550000D01*
X49985196Y-141264572D01*
X49924369Y-140984954D01*
X49824367Y-140716839D01*
X49744025Y-140569705D01*
X49687229Y-140465690D01*
X49687224Y-140465682D01*
X49515745Y-140236612D01*
X49515729Y-140236594D01*
X49313405Y-140034270D01*
X49313387Y-140034254D01*
X49084317Y-139862775D01*
X49084309Y-139862770D01*
X48833166Y-139725635D01*
X48833167Y-139725635D01*
X48725915Y-139685632D01*
X48565046Y-139625631D01*
X48565043Y-139625630D01*
X48565037Y-139625628D01*
X48285433Y-139564804D01*
X48000001Y-139544390D01*
X47999999Y-139544390D01*
X47912776Y-139550628D01*
X47844503Y-139535776D01*
X47795098Y-139486371D01*
X47780246Y-139418098D01*
X47781315Y-139408462D01*
X47800499Y-139281187D01*
X47800500Y-139281182D01*
X47800500Y-139018817D01*
X47800499Y-139018812D01*
X47761396Y-138759385D01*
X47684063Y-138508677D01*
X47672121Y-138483880D01*
X47570232Y-138272303D01*
X47570231Y-138272302D01*
X47570230Y-138272301D01*
X47570228Y-138272296D01*
X47422433Y-138055521D01*
X47412441Y-138044753D01*
X47243985Y-137863198D01*
X47107590Y-137754427D01*
X47038857Y-137699614D01*
X46811643Y-137568432D01*
X46567416Y-137472580D01*
X46567411Y-137472578D01*
X46567402Y-137472576D01*
X46349818Y-137422914D01*
X46311630Y-137414198D01*
X46311629Y-137414197D01*
X46311625Y-137414197D01*
X46311620Y-137414196D01*
X46115515Y-137399500D01*
X46115494Y-137399500D01*
X45984506Y-137399500D01*
X45984484Y-137399500D01*
X45788379Y-137414196D01*
X45788374Y-137414197D01*
X45532597Y-137472576D01*
X45532578Y-137472582D01*
X45288356Y-137568432D01*
X45061143Y-137699614D01*
X44856014Y-137863198D01*
X44677567Y-138055520D01*
X44529768Y-138272302D01*
X44529767Y-138272303D01*
X44415938Y-138508673D01*
X44338606Y-138759376D01*
X44338605Y-138759381D01*
X44338604Y-138759385D01*
X44325021Y-138849500D01*
X44299500Y-139018812D01*
X44299500Y-139281187D01*
X43750500Y-139281187D01*
X43750500Y-137754427D01*
X43750816Y-137745581D01*
X43765130Y-137545443D01*
X43765131Y-137545442D01*
X43765130Y-137545436D01*
X43767646Y-137527938D01*
X43809356Y-137336199D01*
X43814333Y-137319248D01*
X43882911Y-137135385D01*
X43890259Y-137119298D01*
X43952815Y-137004734D01*
X43984291Y-136947089D01*
X43993845Y-136932221D01*
X44111448Y-136775123D01*
X44123020Y-136761769D01*
X44261769Y-136623020D01*
X44275123Y-136611448D01*
X44432221Y-136493845D01*
X44447089Y-136484291D01*
X44619298Y-136390258D01*
X44635385Y-136382911D01*
X44819248Y-136314333D01*
X44836199Y-136309356D01*
X45027938Y-136267646D01*
X45045436Y-136265130D01*
X45245582Y-136250816D01*
X45254428Y-136250500D01*
X45315892Y-136250500D01*
X86184108Y-136250500D01*
X86245572Y-136250500D01*
X86254418Y-136250816D01*
G37*
%TD.AperFunction*%
%TD*%
%TA.AperFunction,Conductor*%
%TO.N,GND*%
G36*
X131254418Y-136250816D02*
G01*
X131454561Y-136265130D01*
X131472063Y-136267647D01*
X131663797Y-136309355D01*
X131680755Y-136314334D01*
X131864609Y-136382909D01*
X131880701Y-136390259D01*
X132052904Y-136484288D01*
X132067784Y-136493849D01*
X132224867Y-136611441D01*
X132238237Y-136623027D01*
X132376972Y-136761762D01*
X132388558Y-136775132D01*
X132506146Y-136932210D01*
X132515711Y-136947095D01*
X132609740Y-137119298D01*
X132617090Y-137135390D01*
X132685662Y-137319236D01*
X132690646Y-137336212D01*
X132732351Y-137527931D01*
X132734869Y-137545442D01*
X132749184Y-137745580D01*
X132749500Y-137754427D01*
X132749500Y-151028839D01*
X132729815Y-151095878D01*
X132677011Y-151141633D01*
X132607853Y-151151577D01*
X132544297Y-151122552D01*
X132508081Y-151068697D01*
X132486899Y-151006297D01*
X132486895Y-151006287D01*
X132359346Y-150747643D01*
X132199124Y-150507854D01*
X132174161Y-150479390D01*
X132174160Y-150479390D01*
X131673609Y-150979941D01*
X131557368Y-150830596D01*
X131374477Y-150662232D01*
X131319882Y-150626563D01*
X131820608Y-150125838D01*
X131820608Y-150125835D01*
X131792152Y-150100881D01*
X131792146Y-150100876D01*
X131552356Y-149940653D01*
X131293712Y-149813104D01*
X131293702Y-149813100D01*
X131020635Y-149720407D01*
X131020615Y-149720402D01*
X130737784Y-149664144D01*
X130737757Y-149664140D01*
X130450007Y-149645280D01*
X130449993Y-149645280D01*
X130162242Y-149664140D01*
X130162215Y-149664144D01*
X129879384Y-149720402D01*
X129879364Y-149720407D01*
X129606297Y-149813100D01*
X129606287Y-149813104D01*
X129347643Y-149940653D01*
X129107851Y-150100878D01*
X129079390Y-150125837D01*
X129580117Y-150626564D01*
X129525523Y-150662232D01*
X129342632Y-150830596D01*
X129226389Y-150979942D01*
X128725837Y-150479390D01*
X128700878Y-150507851D01*
X128540653Y-150747643D01*
X128413104Y-151006287D01*
X128413100Y-151006297D01*
X128320407Y-151279364D01*
X128320402Y-151279384D01*
X128264144Y-151562215D01*
X128264140Y-151562242D01*
X128245280Y-151849992D01*
X128245280Y-151850007D01*
X128264140Y-152137757D01*
X128264144Y-152137784D01*
X128320402Y-152420615D01*
X128320407Y-152420635D01*
X128413100Y-152693702D01*
X128413104Y-152693712D01*
X128540653Y-152952356D01*
X128700876Y-153192146D01*
X128700881Y-153192152D01*
X128725835Y-153220608D01*
X128725838Y-153220608D01*
X129226389Y-152720056D01*
X129342632Y-152869404D01*
X129525523Y-153037768D01*
X129580115Y-153073435D01*
X129079390Y-153574160D01*
X129079390Y-153574161D01*
X129107854Y-153599124D01*
X129347643Y-153759346D01*
X129606287Y-153886895D01*
X129606297Y-153886899D01*
X129879364Y-153979592D01*
X129879384Y-153979597D01*
X130162215Y-154035855D01*
X130162242Y-154035859D01*
X130449993Y-154054720D01*
X130450007Y-154054720D01*
X130737757Y-154035859D01*
X130737784Y-154035855D01*
X131020615Y-153979597D01*
X131020635Y-153979592D01*
X131293702Y-153886899D01*
X131293712Y-153886895D01*
X131552356Y-153759346D01*
X131792141Y-153599126D01*
X131792147Y-153599121D01*
X131820608Y-153574162D01*
X131820608Y-153574161D01*
X131319882Y-153073435D01*
X131374477Y-153037768D01*
X131557368Y-152869404D01*
X131673610Y-152720057D01*
X132174161Y-153220608D01*
X132174162Y-153220608D01*
X132199121Y-153192147D01*
X132199126Y-153192141D01*
X132359346Y-152952356D01*
X132486894Y-152693714D01*
X132508080Y-152631302D01*
X132548269Y-152574148D01*
X132612978Y-152547794D01*
X132681663Y-152560608D01*
X132732516Y-152608521D01*
X132749500Y-152671160D01*
X132749500Y-153245572D01*
X132749184Y-153254419D01*
X132734869Y-153454557D01*
X132732351Y-153472068D01*
X132690646Y-153663787D01*
X132685662Y-153680763D01*
X132617090Y-153864609D01*
X132609740Y-153880701D01*
X132515711Y-154052904D01*
X132506146Y-154067789D01*
X132388558Y-154224867D01*
X132376972Y-154238237D01*
X132238237Y-154376972D01*
X132224867Y-154388558D01*
X132067789Y-154506146D01*
X132052904Y-154515711D01*
X131880701Y-154609740D01*
X131864609Y-154617090D01*
X131680763Y-154685662D01*
X131663787Y-154690646D01*
X131472068Y-154732351D01*
X131454557Y-154734869D01*
X131273779Y-154747799D01*
X131254417Y-154749184D01*
X131245572Y-154749500D01*
X90254428Y-154749500D01*
X90245582Y-154749184D01*
X90223622Y-154747613D01*
X90045442Y-154734869D01*
X90027931Y-154732351D01*
X89836212Y-154690646D01*
X89819236Y-154685662D01*
X89635390Y-154617090D01*
X89619298Y-154609740D01*
X89447095Y-154515711D01*
X89432210Y-154506146D01*
X89275132Y-154388558D01*
X89261762Y-154376972D01*
X89123027Y-154238237D01*
X89111441Y-154224867D01*
X88993849Y-154067784D01*
X88984288Y-154052904D01*
X88890259Y-153880701D01*
X88882909Y-153864609D01*
X88814334Y-153680755D01*
X88809355Y-153663797D01*
X88767647Y-153472063D01*
X88765130Y-153454556D01*
X88750816Y-153254418D01*
X88750500Y-153245572D01*
X88750500Y-152671160D01*
X88770185Y-152604121D01*
X88822989Y-152558366D01*
X88892147Y-152548422D01*
X88955703Y-152577447D01*
X88991920Y-152631302D01*
X89013105Y-152693714D01*
X89140653Y-152952356D01*
X89300876Y-153192146D01*
X89300881Y-153192152D01*
X89325835Y-153220608D01*
X89325838Y-153220608D01*
X89826389Y-152720056D01*
X89942632Y-152869404D01*
X90125523Y-153037768D01*
X90180115Y-153073435D01*
X89679390Y-153574160D01*
X89679390Y-153574161D01*
X89707854Y-153599124D01*
X89947643Y-153759346D01*
X90206287Y-153886895D01*
X90206297Y-153886899D01*
X90479364Y-153979592D01*
X90479384Y-153979597D01*
X90762215Y-154035855D01*
X90762242Y-154035859D01*
X91049993Y-154054720D01*
X91050007Y-154054720D01*
X91337757Y-154035859D01*
X91337784Y-154035855D01*
X91620615Y-153979597D01*
X91620635Y-153979592D01*
X91893702Y-153886899D01*
X91893712Y-153886895D01*
X92152356Y-153759346D01*
X92392141Y-153599126D01*
X92392147Y-153599121D01*
X92420608Y-153574162D01*
X92420608Y-153574161D01*
X91919882Y-153073435D01*
X91974477Y-153037768D01*
X92157368Y-152869404D01*
X92273610Y-152720057D01*
X92774161Y-153220608D01*
X92774162Y-153220608D01*
X92799121Y-153192147D01*
X92799126Y-153192141D01*
X92959346Y-152952356D01*
X93086895Y-152693712D01*
X93086899Y-152693702D01*
X93179592Y-152420635D01*
X93179597Y-152420615D01*
X93235855Y-152137784D01*
X93235859Y-152137757D01*
X93254720Y-151850007D01*
X93254720Y-151849992D01*
X93235859Y-151562242D01*
X93235855Y-151562215D01*
X93179597Y-151279384D01*
X93179592Y-151279364D01*
X93086899Y-151006297D01*
X93086895Y-151006287D01*
X92959346Y-150747643D01*
X92799124Y-150507854D01*
X92774161Y-150479390D01*
X92774160Y-150479390D01*
X92273609Y-150979941D01*
X92157368Y-150830596D01*
X91974477Y-150662232D01*
X91919882Y-150626563D01*
X92420608Y-150125838D01*
X92420608Y-150125835D01*
X92392152Y-150100881D01*
X92392146Y-150100876D01*
X92152356Y-149940653D01*
X91893712Y-149813104D01*
X91893702Y-149813100D01*
X91620635Y-149720407D01*
X91620615Y-149720402D01*
X91337784Y-149664144D01*
X91337757Y-149664140D01*
X91050007Y-149645280D01*
X91049993Y-149645280D01*
X90762242Y-149664140D01*
X90762215Y-149664144D01*
X90479384Y-149720402D01*
X90479364Y-149720407D01*
X90206297Y-149813100D01*
X90206287Y-149813104D01*
X89947643Y-149940653D01*
X89707851Y-150100878D01*
X89679390Y-150125837D01*
X90180117Y-150626564D01*
X90125523Y-150662232D01*
X89942632Y-150830596D01*
X89826389Y-150979942D01*
X89325837Y-150479390D01*
X89300878Y-150507851D01*
X89140653Y-150747643D01*
X89013104Y-151006287D01*
X89013100Y-151006297D01*
X88991919Y-151068697D01*
X88951731Y-151125852D01*
X88887022Y-151152205D01*
X88818337Y-151139391D01*
X88767484Y-151091477D01*
X88750500Y-151028839D01*
X88750500Y-145750000D01*
X96250000Y-145750000D01*
X96750000Y-147000000D01*
X98000000Y-147500000D01*
X99250000Y-147000000D01*
X99750000Y-145750000D01*
X121750000Y-145750000D01*
X122250000Y-147000000D01*
X123500000Y-147500000D01*
X124750000Y-147000000D01*
X125250000Y-145750000D01*
X124750000Y-144500000D01*
X123500000Y-144000000D01*
X122250000Y-144500000D01*
X121750000Y-145750000D01*
X99750000Y-145750000D01*
X99250000Y-144500000D01*
X98000000Y-144000000D01*
X96750000Y-144500000D01*
X96250000Y-145750000D01*
X88750500Y-145750000D01*
X88750500Y-139281187D01*
X89299500Y-139281187D01*
X89318685Y-139408462D01*
X89338604Y-139540615D01*
X89338605Y-139540617D01*
X89338606Y-139540623D01*
X89415938Y-139791326D01*
X89529767Y-140027696D01*
X89529768Y-140027697D01*
X89529770Y-140027700D01*
X89529772Y-140027704D01*
X89534249Y-140034270D01*
X89677567Y-140244479D01*
X89856014Y-140436801D01*
X89856018Y-140436804D01*
X89856019Y-140436805D01*
X90061143Y-140600386D01*
X90288357Y-140731568D01*
X90532584Y-140827420D01*
X90788370Y-140885802D01*
X90788376Y-140885802D01*
X90788379Y-140885803D01*
X90950031Y-140897917D01*
X91015412Y-140922556D01*
X91057093Y-140978631D01*
X91061931Y-141047928D01*
X91014804Y-141264566D01*
X90994390Y-141549998D01*
X90994390Y-141550001D01*
X91014804Y-141835433D01*
X91075628Y-142115037D01*
X91175635Y-142383166D01*
X91312770Y-142634309D01*
X91312775Y-142634317D01*
X91484254Y-142863387D01*
X91484270Y-142863405D01*
X91686594Y-143065729D01*
X91686612Y-143065745D01*
X91915682Y-143237224D01*
X91915690Y-143237229D01*
X92166833Y-143374364D01*
X92166832Y-143374364D01*
X92166836Y-143374365D01*
X92166839Y-143374367D01*
X92434954Y-143474369D01*
X92434960Y-143474370D01*
X92434962Y-143474371D01*
X92714566Y-143535195D01*
X92714568Y-143535195D01*
X92714572Y-143535196D01*
X92968220Y-143553337D01*
X92999999Y-143555610D01*
X93000000Y-143555610D01*
X93000001Y-143555610D01*
X93028595Y-143553564D01*
X93285428Y-143535196D01*
X93565046Y-143474369D01*
X93833161Y-143374367D01*
X94084315Y-143237226D01*
X94313395Y-143065739D01*
X94515739Y-142863395D01*
X94687226Y-142634315D01*
X94794677Y-142437534D01*
X105249500Y-142437534D01*
X105279898Y-142609937D01*
X105339775Y-142774446D01*
X105427309Y-142926057D01*
X105539836Y-143060163D01*
X105673942Y-143172690D01*
X105785716Y-143237224D01*
X105825555Y-143260225D01*
X105990062Y-143320101D01*
X106162468Y-143350500D01*
X106162472Y-143350500D01*
X115337528Y-143350500D01*
X115337532Y-143350500D01*
X115509938Y-143320101D01*
X115674445Y-143260225D01*
X115826055Y-143172692D01*
X115960163Y-143060163D01*
X116072692Y-142926055D01*
X116160225Y-142774445D01*
X116220101Y-142609938D01*
X116250500Y-142437532D01*
X116250500Y-142350000D01*
X116250500Y-142284108D01*
X116250500Y-141550001D01*
X126494390Y-141550001D01*
X126514804Y-141835433D01*
X126575628Y-142115037D01*
X126675635Y-142383166D01*
X126812770Y-142634309D01*
X126812775Y-142634317D01*
X126984254Y-142863387D01*
X126984270Y-142863405D01*
X127186594Y-143065729D01*
X127186612Y-143065745D01*
X127415682Y-143237224D01*
X127415690Y-143237229D01*
X127666833Y-143374364D01*
X127666832Y-143374364D01*
X127666836Y-143374365D01*
X127666839Y-143374367D01*
X127934954Y-143474369D01*
X127934960Y-143474370D01*
X127934962Y-143474371D01*
X128214566Y-143535195D01*
X128214568Y-143535195D01*
X128214572Y-143535196D01*
X128468220Y-143553337D01*
X128499999Y-143555610D01*
X128500000Y-143555610D01*
X128500001Y-143555610D01*
X128528595Y-143553564D01*
X128785428Y-143535196D01*
X129065046Y-143474369D01*
X129333161Y-143374367D01*
X129584315Y-143237226D01*
X129813395Y-143065739D01*
X130015739Y-142863395D01*
X130187226Y-142634315D01*
X130324367Y-142383161D01*
X130424369Y-142115046D01*
X130485196Y-141835428D01*
X130505610Y-141550000D01*
X130485196Y-141264572D01*
X130438068Y-141047927D01*
X130443052Y-140978237D01*
X130484923Y-140922303D01*
X130549968Y-140897917D01*
X130711620Y-140885803D01*
X130711622Y-140885802D01*
X130711630Y-140885802D01*
X130967416Y-140827420D01*
X131211643Y-140731568D01*
X131438857Y-140600386D01*
X131643981Y-140436805D01*
X131822433Y-140244479D01*
X131970228Y-140027704D01*
X132084063Y-139791323D01*
X132161396Y-139540615D01*
X132200500Y-139281182D01*
X132200500Y-139018818D01*
X132161396Y-138759385D01*
X132084063Y-138508677D01*
X132072121Y-138483880D01*
X131970232Y-138272303D01*
X131970231Y-138272302D01*
X131970230Y-138272301D01*
X131970228Y-138272296D01*
X131822433Y-138055521D01*
X131812441Y-138044753D01*
X131643985Y-137863198D01*
X131507590Y-137754427D01*
X131438857Y-137699614D01*
X131211643Y-137568432D01*
X130967416Y-137472580D01*
X130967411Y-137472578D01*
X130967402Y-137472576D01*
X130749818Y-137422914D01*
X130711630Y-137414198D01*
X130711629Y-137414197D01*
X130711625Y-137414197D01*
X130711620Y-137414196D01*
X130515515Y-137399500D01*
X130515494Y-137399500D01*
X130384506Y-137399500D01*
X130384484Y-137399500D01*
X130188379Y-137414196D01*
X130188374Y-137414197D01*
X129932597Y-137472576D01*
X129932578Y-137472582D01*
X129688356Y-137568432D01*
X129461143Y-137699614D01*
X129256014Y-137863198D01*
X129077567Y-138055520D01*
X128929768Y-138272302D01*
X128929767Y-138272303D01*
X128815938Y-138508673D01*
X128738606Y-138759376D01*
X128738605Y-138759381D01*
X128738604Y-138759385D01*
X128725021Y-138849500D01*
X128699500Y-139018812D01*
X128699500Y-139281189D01*
X128718684Y-139408463D01*
X128709211Y-139477687D01*
X128663816Y-139530801D01*
X128596912Y-139550941D01*
X128587223Y-139550628D01*
X128500001Y-139544390D01*
X128499999Y-139544390D01*
X128214566Y-139564804D01*
X127934962Y-139625628D01*
X127666833Y-139725635D01*
X127415690Y-139862770D01*
X127415682Y-139862775D01*
X127186612Y-140034254D01*
X127186594Y-140034270D01*
X126984270Y-140236594D01*
X126984254Y-140236612D01*
X126812775Y-140465682D01*
X126812770Y-140465690D01*
X126675635Y-140716833D01*
X126575628Y-140984962D01*
X126514804Y-141264566D01*
X126494390Y-141549998D01*
X126494390Y-141550001D01*
X116250500Y-141550001D01*
X116250500Y-139814201D01*
X116250500Y-139762468D01*
X116220101Y-139590062D01*
X116160225Y-139425555D01*
X116072692Y-139273945D01*
X116072691Y-139273943D01*
X116072690Y-139273942D01*
X115960163Y-139139836D01*
X115826057Y-139027309D01*
X115674446Y-138939775D01*
X115509937Y-138879898D01*
X115337534Y-138849500D01*
X115337532Y-138849500D01*
X115285799Y-138849500D01*
X106315892Y-138849500D01*
X106250000Y-138849500D01*
X106162468Y-138849500D01*
X106162465Y-138849500D01*
X105990062Y-138879898D01*
X105825553Y-138939775D01*
X105673942Y-139027309D01*
X105539836Y-139139836D01*
X105427309Y-139273942D01*
X105339775Y-139425553D01*
X105279898Y-139590062D01*
X105249500Y-139762465D01*
X105249500Y-142437534D01*
X94794677Y-142437534D01*
X94824367Y-142383161D01*
X94924369Y-142115046D01*
X94985196Y-141835428D01*
X95005610Y-141550000D01*
X94985196Y-141264572D01*
X94924369Y-140984954D01*
X94824367Y-140716839D01*
X94744025Y-140569705D01*
X94687229Y-140465690D01*
X94687224Y-140465682D01*
X94515745Y-140236612D01*
X94515729Y-140236594D01*
X94313405Y-140034270D01*
X94313387Y-140034254D01*
X94084317Y-139862775D01*
X94084309Y-139862770D01*
X93833166Y-139725635D01*
X93833167Y-139725635D01*
X93725915Y-139685632D01*
X93565046Y-139625631D01*
X93565043Y-139625630D01*
X93565037Y-139625628D01*
X93285433Y-139564804D01*
X93000001Y-139544390D01*
X92999999Y-139544390D01*
X92912776Y-139550628D01*
X92844503Y-139535776D01*
X92795098Y-139486371D01*
X92780246Y-139418098D01*
X92781315Y-139408462D01*
X92800499Y-139281187D01*
X92800500Y-139281182D01*
X92800500Y-139018817D01*
X92800499Y-139018812D01*
X92761396Y-138759385D01*
X92684063Y-138508677D01*
X92672121Y-138483880D01*
X92570232Y-138272303D01*
X92570231Y-138272302D01*
X92570230Y-138272301D01*
X92570228Y-138272296D01*
X92422433Y-138055521D01*
X92412441Y-138044753D01*
X92243985Y-137863198D01*
X92107590Y-137754427D01*
X92038857Y-137699614D01*
X91811643Y-137568432D01*
X91567416Y-137472580D01*
X91567411Y-137472578D01*
X91567402Y-137472576D01*
X91349818Y-137422914D01*
X91311630Y-137414198D01*
X91311629Y-137414197D01*
X91311625Y-137414197D01*
X91311620Y-137414196D01*
X91115515Y-137399500D01*
X91115494Y-137399500D01*
X90984506Y-137399500D01*
X90984484Y-137399500D01*
X90788379Y-137414196D01*
X90788374Y-137414197D01*
X90532597Y-137472576D01*
X90532578Y-137472582D01*
X90288356Y-137568432D01*
X90061143Y-137699614D01*
X89856014Y-137863198D01*
X89677567Y-138055520D01*
X89529768Y-138272302D01*
X89529767Y-138272303D01*
X89415938Y-138508673D01*
X89338606Y-138759376D01*
X89338605Y-138759381D01*
X89338604Y-138759385D01*
X89325021Y-138849500D01*
X89299500Y-139018812D01*
X89299500Y-139281187D01*
X88750500Y-139281187D01*
X88750500Y-137754427D01*
X88750816Y-137745581D01*
X88765130Y-137545443D01*
X88765131Y-137545442D01*
X88765130Y-137545436D01*
X88767646Y-137527938D01*
X88809356Y-137336199D01*
X88814333Y-137319248D01*
X88882911Y-137135385D01*
X88890259Y-137119298D01*
X88952815Y-137004734D01*
X88984291Y-136947089D01*
X88993845Y-136932221D01*
X89111448Y-136775123D01*
X89123020Y-136761769D01*
X89261769Y-136623020D01*
X89275123Y-136611448D01*
X89432221Y-136493845D01*
X89447089Y-136484291D01*
X89619298Y-136390258D01*
X89635385Y-136382911D01*
X89819248Y-136314333D01*
X89836199Y-136309356D01*
X90027938Y-136267646D01*
X90045436Y-136265130D01*
X90245582Y-136250816D01*
X90254428Y-136250500D01*
X90315892Y-136250500D01*
X131184108Y-136250500D01*
X131245572Y-136250500D01*
X131254418Y-136250816D01*
G37*
%TD.AperFunction*%
%TD*%
D11*
X133250000Y-137750000D02*
X133250000Y-153250000D01*
X89250001Y-135750000D02*
G75*
G03*
X89249999Y-135750000I-1J0D01*
G01*
X89249999Y-135750000D02*
G75*
G03*
X89250001Y-135750000I1J0D01*
G01*
X131250000Y-155250000D02*
G75*
G03*
X133250000Y-153250000I0J2000000D01*
G01*
X88250000Y-137750000D02*
X88250000Y-153250000D01*
X90250000Y-135750000D02*
G75*
G03*
X88250000Y-137750000I0J-2000000D01*
G01*
X133250000Y-137750000D02*
G75*
G03*
X131250000Y-135750000I-2000000J0D01*
G01*
X106250000Y-139350000D02*
G75*
G03*
X105750000Y-139850000I0J-500000D01*
G01*
X105750000Y-139850000D02*
X105750000Y-142350000D01*
X94500000Y-141550000D02*
G75*
G03*
X91500000Y-141550000I-1500000J0D01*
G01*
X91500000Y-141550000D02*
G75*
G03*
X94500000Y-141550000I1500000J0D01*
G01*
X88250000Y-153250000D02*
G75*
G03*
X90250000Y-155250000I2000000J0D01*
G01*
X115750000Y-139850000D02*
G75*
G03*
X115250000Y-139350000I-500000J0D01*
G01*
X106250000Y-142850000D02*
X115250000Y-142850000D01*
X115250000Y-142850000D02*
G75*
G03*
X115750000Y-142350000I0J500000D01*
G01*
X130000000Y-141550000D02*
G75*
G03*
X127000000Y-141550000I-1500000J0D01*
G01*
X127000000Y-141550000D02*
G75*
G03*
X130000000Y-141550000I1500000J0D01*
G01*
X90250000Y-155250000D02*
X131250000Y-155250000D01*
X106250000Y-139350000D02*
X115250000Y-139350000D01*
X115750000Y-139850000D02*
X115750000Y-142350000D01*
X90250000Y-135750000D02*
X131250000Y-135750000D01*
X105750000Y-142350000D02*
G75*
G03*
X106250000Y-142850000I500000J0D01*
G01*
X88250000Y-137750000D02*
X88250000Y-153250000D01*
X44250001Y-135750000D02*
G75*
G03*
X44249999Y-135750000I-1J0D01*
G01*
X44249999Y-135750000D02*
G75*
G03*
X44250001Y-135750000I1J0D01*
G01*
X86250000Y-155250000D02*
G75*
G03*
X88250000Y-153250000I0J2000000D01*
G01*
X43250000Y-137750000D02*
X43250000Y-153250000D01*
X45250000Y-135750000D02*
G75*
G03*
X43250000Y-137750000I0J-2000000D01*
G01*
X88250000Y-137750000D02*
G75*
G03*
X86250000Y-135750000I-2000000J0D01*
G01*
X61250000Y-139350000D02*
G75*
G03*
X60750000Y-139850000I0J-500000D01*
G01*
X60750000Y-139850000D02*
X60750000Y-142350000D01*
X49500000Y-141550000D02*
G75*
G03*
X46500000Y-141550000I-1500000J0D01*
G01*
X46500000Y-141550000D02*
G75*
G03*
X49500000Y-141550000I1500000J0D01*
G01*
X43250000Y-153250000D02*
G75*
G03*
X45250000Y-155250000I2000000J0D01*
G01*
X70750000Y-139850000D02*
G75*
G03*
X70250000Y-139350000I-500000J0D01*
G01*
X61250000Y-142850000D02*
X70250000Y-142850000D01*
X70250000Y-142850000D02*
G75*
G03*
X70750000Y-142350000I0J500000D01*
G01*
X85000000Y-141550000D02*
G75*
G03*
X82000000Y-141550000I-1500000J0D01*
G01*
X82000000Y-141550000D02*
G75*
G03*
X85000000Y-141550000I1500000J0D01*
G01*
X45250000Y-155250000D02*
X86250000Y-155250000D01*
X61250000Y-139350000D02*
X70250000Y-139350000D01*
X70750000Y-139850000D02*
X70750000Y-142350000D01*
X45250000Y-135750000D02*
X86250000Y-135750000D01*
X60750000Y-142350000D02*
G75*
G03*
X61250000Y-142850000I500000J0D01*
G01*
X133250000Y-118250000D02*
X133250000Y-133750000D01*
X89250001Y-116250000D02*
G75*
G03*
X89249999Y-116250000I-1J0D01*
G01*
X89249999Y-116250000D02*
G75*
G03*
X89250001Y-116250000I1J0D01*
G01*
X131250000Y-135750000D02*
G75*
G03*
X133250000Y-133750000I0J2000000D01*
G01*
X88250000Y-118250000D02*
X88250000Y-133750000D01*
X90250000Y-116250000D02*
G75*
G03*
X88250000Y-118250000I0J-2000000D01*
G01*
X133250000Y-118250000D02*
G75*
G03*
X131250000Y-116250000I-2000000J0D01*
G01*
X106250000Y-119850000D02*
G75*
G03*
X105750000Y-120350000I0J-500000D01*
G01*
X105750000Y-120350000D02*
X105750000Y-122850000D01*
X94500000Y-122050000D02*
G75*
G03*
X91500000Y-122050000I-1500000J0D01*
G01*
X91500000Y-122050000D02*
G75*
G03*
X94500000Y-122050000I1500000J0D01*
G01*
X88250000Y-133750000D02*
G75*
G03*
X90250000Y-135750000I2000000J0D01*
G01*
X115750000Y-120350000D02*
G75*
G03*
X115250000Y-119850000I-500000J0D01*
G01*
X106250000Y-123350000D02*
X115250000Y-123350000D01*
X115250000Y-123350000D02*
G75*
G03*
X115750000Y-122850000I0J500000D01*
G01*
X130000000Y-122050000D02*
G75*
G03*
X127000000Y-122050000I-1500000J0D01*
G01*
X127000000Y-122050000D02*
G75*
G03*
X130000000Y-122050000I1500000J0D01*
G01*
X90250000Y-135750000D02*
X131250000Y-135750000D01*
X106250000Y-119850000D02*
X115250000Y-119850000D01*
X115750000Y-120350000D02*
X115750000Y-122850000D01*
X90250000Y-116250000D02*
X131250000Y-116250000D01*
X105750000Y-122850000D02*
G75*
G03*
X106250000Y-123350000I500000J0D01*
G01*
X88250000Y-118250000D02*
X88250000Y-133750000D01*
X44250001Y-116250000D02*
G75*
G03*
X44249999Y-116250000I-1J0D01*
G01*
X44249999Y-116250000D02*
G75*
G03*
X44250001Y-116250000I1J0D01*
G01*
X86250000Y-135750000D02*
G75*
G03*
X88250000Y-133750000I0J2000000D01*
G01*
X43250000Y-118250000D02*
X43250000Y-133750000D01*
X45250000Y-116250000D02*
G75*
G03*
X43250000Y-118250000I0J-2000000D01*
G01*
X88250000Y-118250000D02*
G75*
G03*
X86250000Y-116250000I-2000000J0D01*
G01*
X61250000Y-119850000D02*
G75*
G03*
X60750000Y-120350000I0J-500000D01*
G01*
X60750000Y-120350000D02*
X60750000Y-122850000D01*
X49500000Y-122050000D02*
G75*
G03*
X46500000Y-122050000I-1500000J0D01*
G01*
X46500000Y-122050000D02*
G75*
G03*
X49500000Y-122050000I1500000J0D01*
G01*
X43250000Y-133750000D02*
G75*
G03*
X45250000Y-135750000I2000000J0D01*
G01*
X70750000Y-120350000D02*
G75*
G03*
X70250000Y-119850000I-500000J0D01*
G01*
X61250000Y-123350000D02*
X70250000Y-123350000D01*
X70250000Y-123350000D02*
G75*
G03*
X70750000Y-122850000I0J500000D01*
G01*
X85000000Y-122050000D02*
G75*
G03*
X82000000Y-122050000I-1500000J0D01*
G01*
X82000000Y-122050000D02*
G75*
G03*
X85000000Y-122050000I1500000J0D01*
G01*
X45250000Y-135750000D02*
X86250000Y-135750000D01*
X61250000Y-119850000D02*
X70250000Y-119850000D01*
X70750000Y-120350000D02*
X70750000Y-122850000D01*
X45250000Y-116250000D02*
X86250000Y-116250000D01*
X60750000Y-122850000D02*
G75*
G03*
X61250000Y-123350000I500000J0D01*
G01*
X133250000Y-98750000D02*
X133250000Y-114250000D01*
X89250001Y-96750000D02*
G75*
G03*
X89249999Y-96750000I-1J0D01*
G01*
X89249999Y-96750000D02*
G75*
G03*
X89250001Y-96750000I1J0D01*
G01*
X131250000Y-116250000D02*
G75*
G03*
X133250000Y-114250000I0J2000000D01*
G01*
X88250000Y-98750000D02*
X88250000Y-114250000D01*
X90250000Y-96750000D02*
G75*
G03*
X88250000Y-98750000I0J-2000000D01*
G01*
X133250000Y-98750000D02*
G75*
G03*
X131250000Y-96750000I-2000000J0D01*
G01*
X106250000Y-100350000D02*
G75*
G03*
X105750000Y-100850000I0J-500000D01*
G01*
X105750000Y-100850000D02*
X105750000Y-103350000D01*
X94500000Y-102550000D02*
G75*
G03*
X91500000Y-102550000I-1500000J0D01*
G01*
X91500000Y-102550000D02*
G75*
G03*
X94500000Y-102550000I1500000J0D01*
G01*
X88250000Y-114250000D02*
G75*
G03*
X90250000Y-116250000I2000000J0D01*
G01*
X115750000Y-100850000D02*
G75*
G03*
X115250000Y-100350000I-500000J0D01*
G01*
X106250000Y-103850000D02*
X115250000Y-103850000D01*
X115250000Y-103850000D02*
G75*
G03*
X115750000Y-103350000I0J500000D01*
G01*
X130000000Y-102550000D02*
G75*
G03*
X127000000Y-102550000I-1500000J0D01*
G01*
X127000000Y-102550000D02*
G75*
G03*
X130000000Y-102550000I1500000J0D01*
G01*
X90250000Y-116250000D02*
X131250000Y-116250000D01*
X106250000Y-100350000D02*
X115250000Y-100350000D01*
X115750000Y-100850000D02*
X115750000Y-103350000D01*
X90250000Y-96750000D02*
X131250000Y-96750000D01*
X105750000Y-103350000D02*
G75*
G03*
X106250000Y-103850000I500000J0D01*
G01*
X88250000Y-98750000D02*
X88250000Y-114250000D01*
X44250001Y-96750000D02*
G75*
G03*
X44249999Y-96750000I-1J0D01*
G01*
X44249999Y-96750000D02*
G75*
G03*
X44250001Y-96750000I1J0D01*
G01*
X86250000Y-116250000D02*
G75*
G03*
X88250000Y-114250000I0J2000000D01*
G01*
X43250000Y-98750000D02*
X43250000Y-114250000D01*
X45250000Y-96750000D02*
G75*
G03*
X43250000Y-98750000I0J-2000000D01*
G01*
X88250000Y-98750000D02*
G75*
G03*
X86250000Y-96750000I-2000000J0D01*
G01*
X61250000Y-100350000D02*
G75*
G03*
X60750000Y-100850000I0J-500000D01*
G01*
X60750000Y-100850000D02*
X60750000Y-103350000D01*
X49500000Y-102550000D02*
G75*
G03*
X46500000Y-102550000I-1500000J0D01*
G01*
X46500000Y-102550000D02*
G75*
G03*
X49500000Y-102550000I1500000J0D01*
G01*
X43250000Y-114250000D02*
G75*
G03*
X45250000Y-116250000I2000000J0D01*
G01*
X70750000Y-100850000D02*
G75*
G03*
X70250000Y-100350000I-500000J0D01*
G01*
X61250000Y-103850000D02*
X70250000Y-103850000D01*
X70250000Y-103850000D02*
G75*
G03*
X70750000Y-103350000I0J500000D01*
G01*
X85000000Y-102550000D02*
G75*
G03*
X82000000Y-102550000I-1500000J0D01*
G01*
X82000000Y-102550000D02*
G75*
G03*
X85000000Y-102550000I1500000J0D01*
G01*
X45250000Y-116250000D02*
X86250000Y-116250000D01*
X61250000Y-100350000D02*
X70250000Y-100350000D01*
X70750000Y-100850000D02*
X70750000Y-103350000D01*
X45250000Y-96750000D02*
X86250000Y-96750000D01*
X60750000Y-103350000D02*
G75*
G03*
X61250000Y-103850000I500000J0D01*
G01*
X133250000Y-79250000D02*
X133250000Y-94750000D01*
X89250001Y-77250000D02*
G75*
G03*
X89249999Y-77250000I-1J0D01*
G01*
X89249999Y-77250000D02*
G75*
G03*
X89250001Y-77250000I1J0D01*
G01*
X131250000Y-96750000D02*
G75*
G03*
X133250000Y-94750000I0J2000000D01*
G01*
X88250000Y-79250000D02*
X88250000Y-94750000D01*
X90250000Y-77250000D02*
G75*
G03*
X88250000Y-79250000I0J-2000000D01*
G01*
X133250000Y-79250000D02*
G75*
G03*
X131250000Y-77250000I-2000000J0D01*
G01*
X106250000Y-80850000D02*
G75*
G03*
X105750000Y-81350000I0J-500000D01*
G01*
X105750000Y-81350000D02*
X105750000Y-83850000D01*
X94500000Y-83050000D02*
G75*
G03*
X91500000Y-83050000I-1500000J0D01*
G01*
X91500000Y-83050000D02*
G75*
G03*
X94500000Y-83050000I1500000J0D01*
G01*
X88250000Y-94750000D02*
G75*
G03*
X90250000Y-96750000I2000000J0D01*
G01*
X115750000Y-81350000D02*
G75*
G03*
X115250000Y-80850000I-500000J0D01*
G01*
X106250000Y-84350000D02*
X115250000Y-84350000D01*
X115250000Y-84350000D02*
G75*
G03*
X115750000Y-83850000I0J500000D01*
G01*
X130000000Y-83050000D02*
G75*
G03*
X127000000Y-83050000I-1500000J0D01*
G01*
X127000000Y-83050000D02*
G75*
G03*
X130000000Y-83050000I1500000J0D01*
G01*
X90250000Y-96750000D02*
X131250000Y-96750000D01*
X106250000Y-80850000D02*
X115250000Y-80850000D01*
X115750000Y-81350000D02*
X115750000Y-83850000D01*
X90250000Y-77250000D02*
X131250000Y-77250000D01*
X105750000Y-83850000D02*
G75*
G03*
X106250000Y-84350000I500000J0D01*
G01*
X88250000Y-79250000D02*
X88250000Y-94750000D01*
X44250001Y-77250000D02*
G75*
G03*
X44249999Y-77250000I-1J0D01*
G01*
X44249999Y-77250000D02*
G75*
G03*
X44250001Y-77250000I1J0D01*
G01*
X86250000Y-96750000D02*
G75*
G03*
X88250000Y-94750000I0J2000000D01*
G01*
X43250000Y-79250000D02*
X43250000Y-94750000D01*
X45250000Y-77250000D02*
G75*
G03*
X43250000Y-79250000I0J-2000000D01*
G01*
X88250000Y-79250000D02*
G75*
G03*
X86250000Y-77250000I-2000000J0D01*
G01*
X61250000Y-80850000D02*
G75*
G03*
X60750000Y-81350000I0J-500000D01*
G01*
X60750000Y-81350000D02*
X60750000Y-83850000D01*
X49500000Y-83050000D02*
G75*
G03*
X46500000Y-83050000I-1500000J0D01*
G01*
X46500000Y-83050000D02*
G75*
G03*
X49500000Y-83050000I1500000J0D01*
G01*
X43250000Y-94750000D02*
G75*
G03*
X45250000Y-96750000I2000000J0D01*
G01*
X70750000Y-81350000D02*
G75*
G03*
X70250000Y-80850000I-500000J0D01*
G01*
X61250000Y-84350000D02*
X70250000Y-84350000D01*
X70250000Y-84350000D02*
G75*
G03*
X70750000Y-83850000I0J500000D01*
G01*
X85000000Y-83050000D02*
G75*
G03*
X82000000Y-83050000I-1500000J0D01*
G01*
X82000000Y-83050000D02*
G75*
G03*
X85000000Y-83050000I1500000J0D01*
G01*
X45250000Y-96750000D02*
X86250000Y-96750000D01*
X61250000Y-80850000D02*
X70250000Y-80850000D01*
X70750000Y-81350000D02*
X70750000Y-83850000D01*
X45250000Y-77250000D02*
X86250000Y-77250000D01*
X60750000Y-83850000D02*
G75*
G03*
X61250000Y-84350000I500000J0D01*
G01*
X133250000Y-59750000D02*
X133250000Y-75250000D01*
X89250001Y-57750000D02*
G75*
G03*
X89249999Y-57750000I-1J0D01*
G01*
X89249999Y-57750000D02*
G75*
G03*
X89250001Y-57750000I1J0D01*
G01*
X131250000Y-77250000D02*
G75*
G03*
X133250000Y-75250000I0J2000000D01*
G01*
X88250000Y-59750000D02*
X88250000Y-75250000D01*
X90250000Y-57750000D02*
G75*
G03*
X88250000Y-59750000I0J-2000000D01*
G01*
X133250000Y-59750000D02*
G75*
G03*
X131250000Y-57750000I-2000000J0D01*
G01*
X106250000Y-61350000D02*
G75*
G03*
X105750000Y-61850000I0J-500000D01*
G01*
X105750000Y-61850000D02*
X105750000Y-64350000D01*
X94500000Y-63550000D02*
G75*
G03*
X91500000Y-63550000I-1500000J0D01*
G01*
X91500000Y-63550000D02*
G75*
G03*
X94500000Y-63550000I1500000J0D01*
G01*
X88250000Y-75250000D02*
G75*
G03*
X90250000Y-77250000I2000000J0D01*
G01*
X115750000Y-61850000D02*
G75*
G03*
X115250000Y-61350000I-500000J0D01*
G01*
X106250000Y-64850000D02*
X115250000Y-64850000D01*
X115250000Y-64850000D02*
G75*
G03*
X115750000Y-64350000I0J500000D01*
G01*
X130000000Y-63550000D02*
G75*
G03*
X127000000Y-63550000I-1500000J0D01*
G01*
X127000000Y-63550000D02*
G75*
G03*
X130000000Y-63550000I1500000J0D01*
G01*
X90250000Y-77250000D02*
X131250000Y-77250000D01*
X106250000Y-61350000D02*
X115250000Y-61350000D01*
X115750000Y-61850000D02*
X115750000Y-64350000D01*
X90250000Y-57750000D02*
X131250000Y-57750000D01*
X105750000Y-64350000D02*
G75*
G03*
X106250000Y-64850000I500000J0D01*
G01*
X88250000Y-59750000D02*
X88250000Y-75250000D01*
X70750000Y-61850000D02*
G75*
G03*
X70250000Y-61350000I-500000J0D01*
G01*
X60750000Y-61850000D02*
X60750000Y-64350000D01*
X44250001Y-57750000D02*
G75*
G03*
X44249999Y-57750000I-1J0D01*
G01*
X44249999Y-57750000D02*
G75*
G03*
X44250001Y-57750000I1J0D01*
G01*
X61250000Y-61350000D02*
G75*
G03*
X60750000Y-61850000I0J-500000D01*
G01*
X86250000Y-77250000D02*
G75*
G03*
X88250000Y-75250000I0J2000000D01*
G01*
X88250000Y-59750000D02*
G75*
G03*
X86250000Y-57750000I-2000000J0D01*
G01*
X43250000Y-75250000D02*
G75*
G03*
X45250000Y-77250000I2000000J0D01*
G01*
X49500000Y-63550000D02*
G75*
G03*
X46500000Y-63550000I-1500000J0D01*
G01*
X46500000Y-63550000D02*
G75*
G03*
X49500000Y-63550000I1500000J0D01*
G01*
X85000000Y-63550000D02*
G75*
G03*
X82000000Y-63550000I-1500000J0D01*
G01*
X82000000Y-63550000D02*
G75*
G03*
X85000000Y-63550000I1500000J0D01*
G01*
X70250000Y-64850000D02*
G75*
G03*
X70750000Y-64350000I0J500000D01*
G01*
X45250000Y-77250000D02*
X86250000Y-77250000D01*
X61250000Y-61350000D02*
X70250000Y-61350000D01*
X45250000Y-57750000D02*
X86250000Y-57750000D01*
X70750000Y-61850000D02*
X70750000Y-64350000D01*
X60750000Y-64350000D02*
G75*
G03*
X61250000Y-64850000I500000J0D01*
G01*
X45250000Y-57750000D02*
G75*
G03*
X43250000Y-59750000I0J-2000000D01*
G01*
X61250000Y-64850000D02*
X70250000Y-64850000D01*
X43250000Y-59750000D02*
X43250000Y-75250000D01*
M02*
