M48
; DRILL file {KiCad 7.0.11+dfsg-1build4} date jue 10 sep 2026 16:33:37
; FORMAT={-:-/ absolute / metric / decimal}
; #@! TF.CreationDate,2026-09-10T16:33:37-05:00
; #@! TF.GenerationSoftware,Kicad,Pcbnew,7.0.11+dfsg-1build4
; #@! TF.FileFunction,NonPlated,1,2,NPTH
FMAT,2
METRIC
; #@! TA.AperFunction,NonPlated,NPTH,ComponentDrill
T1C0.500
; #@! TA.AperFunction,NonPlated,NPTH,ComponentDrill
T2C3.000
%
G90
G05
T1
X52.0Y-67.75
X52.0Y-87.25
X52.0Y-106.75
X52.0Y-126.25
X52.0Y-145.75
X52.293Y-67.043
X52.293Y-68.457
X52.293Y-86.543
X52.293Y-87.957
X52.293Y-106.043
X52.293Y-107.457
X52.293Y-125.543
X52.293Y-126.957
X52.293Y-145.043
X52.293Y-146.457
X53.0Y-66.75
X53.0Y-67.75
X53.0Y-68.75
X53.0Y-86.25
X53.0Y-87.25
X53.0Y-88.25
X53.0Y-105.75
X53.0Y-106.75
X53.0Y-107.75
X53.0Y-125.25
X53.0Y-126.25
X53.0Y-127.25
X53.0Y-144.75
X53.0Y-145.75
X53.0Y-146.75
X53.707Y-67.043
X53.707Y-68.457
X53.707Y-86.543
X53.707Y-87.957
X53.707Y-106.043
X53.707Y-107.457
X53.707Y-125.543
X53.707Y-126.957
X53.707Y-145.043
X53.707Y-146.457
X54.0Y-67.75
X54.0Y-87.25
X54.0Y-106.75
X54.0Y-126.25
X54.0Y-145.75
X77.5Y-67.75
X77.5Y-87.25
X77.5Y-106.75
X77.5Y-126.25
X77.5Y-145.75
X77.793Y-67.043
X77.793Y-68.457
X77.793Y-86.543
X77.793Y-87.957
X77.793Y-106.043
X77.793Y-107.457
X77.793Y-125.543
X77.793Y-126.957
X77.793Y-145.043
X77.793Y-146.457
X78.5Y-66.75
X78.5Y-67.75
X78.5Y-68.75
X78.5Y-86.25
X78.5Y-87.25
X78.5Y-88.25
X78.5Y-105.75
X78.5Y-106.75
X78.5Y-107.75
X78.5Y-125.25
X78.5Y-126.25
X78.5Y-127.25
X78.5Y-144.75
X78.5Y-145.75
X78.5Y-146.75
X79.207Y-67.043
X79.207Y-68.457
X79.207Y-86.543
X79.207Y-87.957
X79.207Y-106.043
X79.207Y-107.457
X79.207Y-125.543
X79.207Y-126.957
X79.207Y-145.043
X79.207Y-146.457
X79.5Y-67.75
X79.5Y-87.25
X79.5Y-106.75
X79.5Y-126.25
X79.5Y-145.75
X97.0Y-67.75
X97.0Y-87.25
X97.0Y-106.75
X97.0Y-126.25
X97.0Y-145.75
X97.293Y-67.043
X97.293Y-68.457
X97.293Y-86.543
X97.293Y-87.957
X97.293Y-106.043
X97.293Y-107.457
X97.293Y-125.543
X97.293Y-126.957
X97.293Y-145.043
X97.293Y-146.457
X98.0Y-66.75
X98.0Y-67.75
X98.0Y-68.75
X98.0Y-86.25
X98.0Y-87.25
X98.0Y-88.25
X98.0Y-105.75
X98.0Y-106.75
X98.0Y-107.75
X98.0Y-125.25
X98.0Y-126.25
X98.0Y-127.25
X98.0Y-144.75
X98.0Y-145.75
X98.0Y-146.75
X98.707Y-67.043
X98.707Y-68.457
X98.707Y-86.543
X98.707Y-87.957
X98.707Y-106.043
X98.707Y-107.457
X98.707Y-125.543
X98.707Y-126.957
X98.707Y-145.043
X98.707Y-146.457
X99.0Y-67.75
X99.0Y-87.25
X99.0Y-106.75
X99.0Y-126.25
X99.0Y-145.75
X122.5Y-67.75
X122.5Y-87.25
X122.5Y-106.75
X122.5Y-126.25
X122.5Y-145.75
X122.793Y-67.043
X122.793Y-68.457
X122.793Y-86.543
X122.793Y-87.957
X122.793Y-106.043
X122.793Y-107.457
X122.793Y-125.543
X122.793Y-126.957
X122.793Y-145.043
X122.793Y-146.457
X123.5Y-66.75
X123.5Y-67.75
X123.5Y-68.75
X123.5Y-86.25
X123.5Y-87.25
X123.5Y-88.25
X123.5Y-105.75
X123.5Y-106.75
X123.5Y-107.75
X123.5Y-125.25
X123.5Y-126.25
X123.5Y-127.25
X123.5Y-144.75
X123.5Y-145.75
X123.5Y-146.75
X124.207Y-67.043
X124.207Y-68.457
X124.207Y-86.543
X124.207Y-87.957
X124.207Y-106.043
X124.207Y-107.457
X124.207Y-125.543
X124.207Y-126.957
X124.207Y-145.043
X124.207Y-146.457
X124.5Y-67.75
X124.5Y-87.25
X124.5Y-106.75
X124.5Y-126.25
X124.5Y-145.75
T2
X46.05Y-61.15
X46.05Y-80.65
X46.05Y-100.15
X46.05Y-119.65
X46.05Y-139.15
X85.45Y-61.15
X85.45Y-80.65
X85.45Y-100.15
X85.45Y-119.65
X85.45Y-139.15
X91.05Y-61.15
X91.05Y-80.65
X91.05Y-100.15
X91.05Y-119.65
X91.05Y-139.15
X130.45Y-61.15
X130.45Y-80.65
X130.45Y-100.15
X130.45Y-119.65
X130.45Y-139.15
M30
