M48
; DRILL file {KiCad 7.0.11+dfsg-1build4} date jue 10 sep 2026 16:33:37
; FORMAT={-:-/ absolute / metric / decimal}
; #@! TF.CreationDate,2026-09-10T16:33:37-05:00
; #@! TF.GenerationSoftware,Kicad,Pcbnew,7.0.11+dfsg-1build4
; #@! TF.FileFunction,Plated,1,2,PTH
FMAT,2
METRIC
; #@! TA.AperFunction,Plated,PTH,ComponentDrill
T1C3.000
%
G90
G05
T1
X46.05Y-73.85
X46.05Y-93.35
X46.05Y-112.85
X46.05Y-132.35
X46.05Y-151.85
X85.45Y-73.85
X85.45Y-93.35
X85.45Y-112.85
X85.45Y-132.35
X85.45Y-151.85
X91.05Y-73.85
X91.05Y-93.35
X91.05Y-112.85
X91.05Y-132.35
X91.05Y-151.85
X130.45Y-73.85
X130.45Y-93.35
X130.45Y-112.85
X130.45Y-132.35
X130.45Y-151.85
M30
