%TF.GenerationSoftware,KiCad,Pcbnew,7.0.11+dfsg-1build4*%
%TF.CreationDate,2026-09-02T22:04:06-05:00*%
%TF.ProjectId,,58585858-5858-4585-9858-585858585858,rev?*%
%TF.SameCoordinates,Original*%
%TF.FileFunction,Soldermask,Bot*%
%TF.FilePolarity,Negative*%
%FSLAX46Y46*%
G04 Gerber Fmt 4.6, Leading zero omitted, Abs format (unit mm)*
G04 Created by KiCad (PCBNEW 7.0.11+dfsg-1build4) date 2026-09-02 22:04:06*
%MOMM*%
%LPD*%
G01*
G04 APERTURE LIST*
%ADD10C,1.000000*%
%ADD11O,1.200000X2.200000*%
%ADD12C,1.800000*%
%ADD13O,2.200000X1.200000*%
%ADD14R,1.600000X1.600000*%
%ADD15O,1.600000X1.600000*%
%TA.AperFunction,Profile*%
%ADD16C,0.050000*%
%TD*%
G04 APERTURE END LIST*
D10*
%TO.C,J1*%
X140250000Y-131500000D03*
X140250000Y-125500000D03*
D11*
X137950000Y-129000000D03*
X142550000Y-131000000D03*
X142550000Y-124050000D03*
%TD*%
D12*
%TO.C,RV1*%
X139250000Y-104700000D03*
X141790000Y-97080000D03*
X139250000Y-92000000D03*
%TD*%
%TO.C,RV2*%
X106250000Y-104700000D03*
X108790000Y-97080000D03*
X106250000Y-92000000D03*
%TD*%
D10*
%TO.C,J2*%
X107050000Y-130800000D03*
D11*
X105250000Y-127300000D03*
D13*
X107050000Y-124600000D03*
D11*
X108850000Y-127300000D03*
%TD*%
D14*
%TO.C,U2*%
X116380000Y-90200000D03*
D15*
X116380000Y-92740000D03*
X116380000Y-95280000D03*
X116380000Y-97820000D03*
X116380000Y-100360000D03*
X116380000Y-102900000D03*
X116380000Y-105440000D03*
X116380000Y-107980000D03*
X116380000Y-110520000D03*
X131620000Y-110520000D03*
X131620000Y-107980000D03*
X131620000Y-105440000D03*
X131620000Y-102900000D03*
X131620000Y-100360000D03*
X131620000Y-97820000D03*
X131620000Y-95280000D03*
X131620000Y-92740000D03*
X131620000Y-90200000D03*
%TD*%
D10*
%TO.C,J1*%
X97750000Y-131500000D03*
X97750000Y-125500000D03*
D11*
X95450000Y-129000000D03*
X100050000Y-131000000D03*
X100050000Y-124050000D03*
%TD*%
D12*
%TO.C,RV1*%
X96750000Y-104700000D03*
X99290000Y-97080000D03*
X96750000Y-92000000D03*
%TD*%
%TO.C,RV2*%
X63750000Y-104700000D03*
X66290000Y-97080000D03*
X63750000Y-92000000D03*
%TD*%
D10*
%TO.C,J2*%
X64550000Y-130800000D03*
D11*
X62750000Y-127300000D03*
D13*
X64550000Y-124600000D03*
D11*
X66350000Y-127300000D03*
%TD*%
D14*
%TO.C,U2*%
X73880000Y-90200000D03*
D15*
X73880000Y-92740000D03*
X73880000Y-95280000D03*
X73880000Y-97820000D03*
X73880000Y-100360000D03*
X73880000Y-102900000D03*
X73880000Y-105440000D03*
X73880000Y-107980000D03*
X73880000Y-110520000D03*
X89120000Y-110520000D03*
X89120000Y-107980000D03*
X89120000Y-105440000D03*
X89120000Y-102900000D03*
X89120000Y-100360000D03*
X89120000Y-97820000D03*
X89120000Y-95280000D03*
X89120000Y-92740000D03*
X89120000Y-90200000D03*
%TD*%
D10*
%TO.C,J1*%
X140250000Y-86500000D03*
X140250000Y-80500000D03*
D11*
X137950000Y-84000000D03*
X142550000Y-86000000D03*
X142550000Y-79050000D03*
%TD*%
D12*
%TO.C,RV1*%
X139250000Y-59700000D03*
X141790000Y-52080000D03*
X139250000Y-47000000D03*
%TD*%
%TO.C,RV2*%
X106250000Y-59700000D03*
X108790000Y-52080000D03*
X106250000Y-47000000D03*
%TD*%
D10*
%TO.C,J2*%
X107050000Y-85800000D03*
D11*
X105250000Y-82300000D03*
D13*
X107050000Y-79600000D03*
D11*
X108850000Y-82300000D03*
%TD*%
D14*
%TO.C,U2*%
X116380000Y-45200000D03*
D15*
X116380000Y-47740000D03*
X116380000Y-50280000D03*
X116380000Y-52820000D03*
X116380000Y-55360000D03*
X116380000Y-57900000D03*
X116380000Y-60440000D03*
X116380000Y-62980000D03*
X116380000Y-65520000D03*
X131620000Y-65520000D03*
X131620000Y-62980000D03*
X131620000Y-60440000D03*
X131620000Y-57900000D03*
X131620000Y-55360000D03*
X131620000Y-52820000D03*
X131620000Y-50280000D03*
X131620000Y-47740000D03*
X131620000Y-45200000D03*
%TD*%
D10*
%TO.C,J1*%
X97750000Y-86500000D03*
X97750000Y-80500000D03*
D11*
X95450000Y-84000000D03*
X100050000Y-86000000D03*
X100050000Y-79050000D03*
%TD*%
D12*
%TO.C,RV1*%
X96750000Y-59700000D03*
X99290000Y-52080000D03*
X96750000Y-47000000D03*
%TD*%
%TO.C,RV2*%
X63750000Y-59700000D03*
X66290000Y-52080000D03*
X63750000Y-47000000D03*
%TD*%
D14*
%TO.C,U2*%
X73880000Y-45200000D03*
D15*
X73880000Y-47740000D03*
X73880000Y-50280000D03*
X73880000Y-52820000D03*
X73880000Y-55360000D03*
X73880000Y-57900000D03*
X73880000Y-60440000D03*
X73880000Y-62980000D03*
X73880000Y-65520000D03*
X89120000Y-65520000D03*
X89120000Y-62980000D03*
X89120000Y-60440000D03*
X89120000Y-57900000D03*
X89120000Y-55360000D03*
X89120000Y-52820000D03*
X89120000Y-50280000D03*
X89120000Y-47740000D03*
X89120000Y-45200000D03*
%TD*%
D10*
%TO.C,J2*%
X64550000Y-85800000D03*
D11*
X62750000Y-82300000D03*
D13*
X64550000Y-79600000D03*
D11*
X66350000Y-82300000D03*
%TD*%
G36*
X102693039Y-43519685D02*
G01*
X102738794Y-43572489D01*
X102750000Y-43624000D01*
X102750000Y-44876000D01*
X102730315Y-44943039D01*
X102677511Y-44988794D01*
X102626000Y-45000000D01*
X101374000Y-45000000D01*
X101306961Y-44980315D01*
X101261206Y-44927511D01*
X101250000Y-44876000D01*
X101250000Y-43624000D01*
X101269685Y-43556961D01*
X101322489Y-43511206D01*
X101374000Y-43500000D01*
X102626000Y-43500000D01*
X102693039Y-43519685D01*
G37*
G36*
X61693039Y-43519685D02*
G01*
X61738794Y-43572489D01*
X61750000Y-43624000D01*
X61750000Y-77126000D01*
X61730315Y-77193039D01*
X61677511Y-77238794D01*
X61626000Y-77250000D01*
X60374000Y-77250000D01*
X60306961Y-77230315D01*
X60261206Y-77177511D01*
X60250000Y-77126000D01*
X60250000Y-43624000D01*
X60269685Y-43556961D01*
X60322489Y-43511206D01*
X60374000Y-43500000D01*
X61626000Y-43500000D01*
X61693039Y-43519685D01*
G37*
G36*
X104193039Y-43519685D02*
G01*
X104238794Y-43572489D01*
X104250000Y-43624000D01*
X104250000Y-77126000D01*
X104230315Y-77193039D01*
X104177511Y-77238794D01*
X104126000Y-77250000D01*
X102874000Y-77250000D01*
X102806961Y-77230315D01*
X102761206Y-77177511D01*
X102750000Y-77126000D01*
X102750000Y-43624000D01*
X102769685Y-43556961D01*
X102822489Y-43511206D01*
X102874000Y-43500000D01*
X104126000Y-43500000D01*
X104193039Y-43519685D01*
G37*
G36*
X145193039Y-43519685D02*
G01*
X145238794Y-43572489D01*
X145250000Y-43624000D01*
X145250000Y-44876000D01*
X145230315Y-44943039D01*
X145177511Y-44988794D01*
X145126000Y-45000000D01*
X143874000Y-45000000D01*
X143806961Y-44980315D01*
X143761206Y-44927511D01*
X143750000Y-44876000D01*
X143750000Y-43624000D01*
X143769685Y-43556961D01*
X143822489Y-43511206D01*
X143874000Y-43500000D01*
X145126000Y-43500000D01*
X145193039Y-43519685D01*
G37*
G36*
X61693039Y-88519685D02*
G01*
X61738794Y-88572489D01*
X61750000Y-88624000D01*
X61750000Y-122126000D01*
X61730315Y-122193039D01*
X61677511Y-122238794D01*
X61626000Y-122250000D01*
X60374000Y-122250000D01*
X60306961Y-122230315D01*
X60261206Y-122177511D01*
X60250000Y-122126000D01*
X60250000Y-88624000D01*
X60269685Y-88556961D01*
X60322489Y-88511206D01*
X60374000Y-88500000D01*
X61626000Y-88500000D01*
X61693039Y-88519685D01*
G37*
G36*
X102693039Y-88519685D02*
G01*
X102738794Y-88572489D01*
X102750000Y-88624000D01*
X102750000Y-89876000D01*
X102730315Y-89943039D01*
X102677511Y-89988794D01*
X102626000Y-90000000D01*
X101374000Y-90000000D01*
X101306961Y-89980315D01*
X101261206Y-89927511D01*
X101250000Y-89876000D01*
X101250000Y-88624000D01*
X101269685Y-88556961D01*
X101322489Y-88511206D01*
X101374000Y-88500000D01*
X102626000Y-88500000D01*
X102693039Y-88519685D01*
G37*
G36*
X104193039Y-88519685D02*
G01*
X104238794Y-88572489D01*
X104250000Y-88624000D01*
X104250000Y-122126000D01*
X104230315Y-122193039D01*
X104177511Y-122238794D01*
X104126000Y-122250000D01*
X102874000Y-122250000D01*
X102806961Y-122230315D01*
X102761206Y-122177511D01*
X102750000Y-122126000D01*
X102750000Y-88624000D01*
X102769685Y-88556961D01*
X102822489Y-88511206D01*
X102874000Y-88500000D01*
X104126000Y-88500000D01*
X104193039Y-88519685D01*
G37*
G36*
X145193039Y-88519685D02*
G01*
X145238794Y-88572489D01*
X145250000Y-88624000D01*
X145250000Y-89876000D01*
X145230315Y-89943039D01*
X145177511Y-89988794D01*
X145126000Y-90000000D01*
X143874000Y-90000000D01*
X143806961Y-89980315D01*
X143761206Y-89927511D01*
X143750000Y-89876000D01*
X143750000Y-88624000D01*
X143769685Y-88556961D01*
X143822489Y-88511206D01*
X143874000Y-88500000D01*
X145126000Y-88500000D01*
X145193039Y-88519685D01*
G37*
D16*
X102750000Y-88500000D02*
X145250000Y-88500000D01*
X145250000Y-133500000D01*
X102750000Y-133500000D01*
X102750000Y-88500000D01*
X60250000Y-88500000D02*
X102750000Y-88500000D01*
X102750000Y-133500000D01*
X60250000Y-133500000D01*
X60250000Y-88500000D01*
X102750000Y-43500000D02*
X145250000Y-43500000D01*
X145250000Y-88500000D01*
X102750000Y-88500000D01*
X102750000Y-43500000D01*
X60250000Y-43500000D02*
X102750000Y-43500000D01*
X102750000Y-88500000D01*
X60250000Y-88500000D01*
X60250000Y-43500000D01*
M02*
