%TF.GenerationSoftware,KiCad,Pcbnew,7.0.11+dfsg-1build4*%
%TF.CreationDate,2026-09-02T22:04:06-05:00*%
%TF.ProjectId,,58585858-5858-4585-9858-585858585858,rev?*%
%TF.SameCoordinates,Original*%
%TF.FileFunction,Paste,Bot*%
%TF.FilePolarity,Positive*%
%FSLAX46Y46*%
G04 Gerber Fmt 4.6, Leading zero omitted, Abs format (unit mm)*
G04 Created by KiCad (PCBNEW 7.0.11+dfsg-1build4) date 2026-09-02 22:04:06*
%MOMM*%
%LPD*%
G01*
G04 APERTURE LIST*
%TA.AperFunction,Profile*%
%ADD10C,0.050000*%
%TD*%
G04 APERTURE END LIST*
G36*
X102693039Y-43519685D02*
G01*
X102738794Y-43572489D01*
X102750000Y-43624000D01*
X102750000Y-44876000D01*
X102730315Y-44943039D01*
X102677511Y-44988794D01*
X102626000Y-45000000D01*
X101374000Y-45000000D01*
X101306961Y-44980315D01*
X101261206Y-44927511D01*
X101250000Y-44876000D01*
X101250000Y-43624000D01*
X101269685Y-43556961D01*
X101322489Y-43511206D01*
X101374000Y-43500000D01*
X102626000Y-43500000D01*
X102693039Y-43519685D01*
G37*
G36*
X61693039Y-43519685D02*
G01*
X61738794Y-43572489D01*
X61750000Y-43624000D01*
X61750000Y-77126000D01*
X61730315Y-77193039D01*
X61677511Y-77238794D01*
X61626000Y-77250000D01*
X60374000Y-77250000D01*
X60306961Y-77230315D01*
X60261206Y-77177511D01*
X60250000Y-77126000D01*
X60250000Y-43624000D01*
X60269685Y-43556961D01*
X60322489Y-43511206D01*
X60374000Y-43500000D01*
X61626000Y-43500000D01*
X61693039Y-43519685D01*
G37*
G36*
X104193039Y-43519685D02*
G01*
X104238794Y-43572489D01*
X104250000Y-43624000D01*
X104250000Y-77126000D01*
X104230315Y-77193039D01*
X104177511Y-77238794D01*
X104126000Y-77250000D01*
X102874000Y-77250000D01*
X102806961Y-77230315D01*
X102761206Y-77177511D01*
X102750000Y-77126000D01*
X102750000Y-43624000D01*
X102769685Y-43556961D01*
X102822489Y-43511206D01*
X102874000Y-43500000D01*
X104126000Y-43500000D01*
X104193039Y-43519685D01*
G37*
G36*
X145193039Y-43519685D02*
G01*
X145238794Y-43572489D01*
X145250000Y-43624000D01*
X145250000Y-44876000D01*
X145230315Y-44943039D01*
X145177511Y-44988794D01*
X145126000Y-45000000D01*
X143874000Y-45000000D01*
X143806961Y-44980315D01*
X143761206Y-44927511D01*
X143750000Y-44876000D01*
X143750000Y-43624000D01*
X143769685Y-43556961D01*
X143822489Y-43511206D01*
X143874000Y-43500000D01*
X145126000Y-43500000D01*
X145193039Y-43519685D01*
G37*
G36*
X61693039Y-88519685D02*
G01*
X61738794Y-88572489D01*
X61750000Y-88624000D01*
X61750000Y-122126000D01*
X61730315Y-122193039D01*
X61677511Y-122238794D01*
X61626000Y-122250000D01*
X60374000Y-122250000D01*
X60306961Y-122230315D01*
X60261206Y-122177511D01*
X60250000Y-122126000D01*
X60250000Y-88624000D01*
X60269685Y-88556961D01*
X60322489Y-88511206D01*
X60374000Y-88500000D01*
X61626000Y-88500000D01*
X61693039Y-88519685D01*
G37*
G36*
X102693039Y-88519685D02*
G01*
X102738794Y-88572489D01*
X102750000Y-88624000D01*
X102750000Y-89876000D01*
X102730315Y-89943039D01*
X102677511Y-89988794D01*
X102626000Y-90000000D01*
X101374000Y-90000000D01*
X101306961Y-89980315D01*
X101261206Y-89927511D01*
X101250000Y-89876000D01*
X101250000Y-88624000D01*
X101269685Y-88556961D01*
X101322489Y-88511206D01*
X101374000Y-88500000D01*
X102626000Y-88500000D01*
X102693039Y-88519685D01*
G37*
G36*
X104193039Y-88519685D02*
G01*
X104238794Y-88572489D01*
X104250000Y-88624000D01*
X104250000Y-122126000D01*
X104230315Y-122193039D01*
X104177511Y-122238794D01*
X104126000Y-122250000D01*
X102874000Y-122250000D01*
X102806961Y-122230315D01*
X102761206Y-122177511D01*
X102750000Y-122126000D01*
X102750000Y-88624000D01*
X102769685Y-88556961D01*
X102822489Y-88511206D01*
X102874000Y-88500000D01*
X104126000Y-88500000D01*
X104193039Y-88519685D01*
G37*
G36*
X145193039Y-88519685D02*
G01*
X145238794Y-88572489D01*
X145250000Y-88624000D01*
X145250000Y-89876000D01*
X145230315Y-89943039D01*
X145177511Y-89988794D01*
X145126000Y-90000000D01*
X143874000Y-90000000D01*
X143806961Y-89980315D01*
X143761206Y-89927511D01*
X143750000Y-89876000D01*
X143750000Y-88624000D01*
X143769685Y-88556961D01*
X143822489Y-88511206D01*
X143874000Y-88500000D01*
X145126000Y-88500000D01*
X145193039Y-88519685D01*
G37*
D10*
X102750000Y-88500000D02*
X145250000Y-88500000D01*
X145250000Y-133500000D01*
X102750000Y-133500000D01*
X102750000Y-88500000D01*
X60250000Y-88500000D02*
X102750000Y-88500000D01*
X102750000Y-133500000D01*
X60250000Y-133500000D01*
X60250000Y-88500000D01*
X102750000Y-43500000D02*
X145250000Y-43500000D01*
X145250000Y-88500000D01*
X102750000Y-88500000D01*
X102750000Y-43500000D01*
X60250000Y-43500000D02*
X102750000Y-43500000D01*
X102750000Y-88500000D01*
X60250000Y-88500000D01*
X60250000Y-43500000D01*
M02*
