%TF.GenerationSoftware,KiCad,Pcbnew,7.0.11+dfsg-1build4*%
%TF.CreationDate,2026-09-02T22:04:06-05:00*%
%TF.ProjectId,,58585858-5858-4585-9858-585858585858,rev?*%
%TF.SameCoordinates,Original*%
%TF.FileFunction,Legend,Bot*%
%TF.FilePolarity,Positive*%
%FSLAX46Y46*%
G04 Gerber Fmt 4.6, Leading zero omitted, Abs format (unit mm)*
G04 Created by KiCad (PCBNEW 7.0.11+dfsg-1build4) date 2026-09-02 22:04:06*
%MOMM*%
%LPD*%
G01*
G04 APERTURE LIST*
%ADD10C,0.160000*%
%TA.AperFunction,Profile*%
%ADD11C,0.050000*%
%TD*%
G04 APERTURE END LIST*
D10*
X124173308Y-130594822D02*
X124573308Y-130023394D01*
X124859022Y-130594822D02*
X124859022Y-129394822D01*
X124859022Y-129394822D02*
X124401879Y-129394822D01*
X124401879Y-129394822D02*
X124287594Y-129451965D01*
X124287594Y-129451965D02*
X124230451Y-129509108D01*
X124230451Y-129509108D02*
X124173308Y-129623394D01*
X124173308Y-129623394D02*
X124173308Y-129794822D01*
X124173308Y-129794822D02*
X124230451Y-129909108D01*
X124230451Y-129909108D02*
X124287594Y-129966251D01*
X124287594Y-129966251D02*
X124401879Y-130023394D01*
X124401879Y-130023394D02*
X124859022Y-130023394D01*
X123659022Y-130594822D02*
X123659022Y-129394822D01*
X122459022Y-129451965D02*
X122573308Y-129394822D01*
X122573308Y-129394822D02*
X122744736Y-129394822D01*
X122744736Y-129394822D02*
X122916165Y-129451965D01*
X122916165Y-129451965D02*
X123030450Y-129566251D01*
X123030450Y-129566251D02*
X123087593Y-129680537D01*
X123087593Y-129680537D02*
X123144736Y-129909108D01*
X123144736Y-129909108D02*
X123144736Y-130080537D01*
X123144736Y-130080537D02*
X123087593Y-130309108D01*
X123087593Y-130309108D02*
X123030450Y-130423394D01*
X123030450Y-130423394D02*
X122916165Y-130537680D01*
X122916165Y-130537680D02*
X122744736Y-130594822D01*
X122744736Y-130594822D02*
X122630450Y-130594822D01*
X122630450Y-130594822D02*
X122459022Y-130537680D01*
X122459022Y-130537680D02*
X122401879Y-130480537D01*
X122401879Y-130480537D02*
X122401879Y-130080537D01*
X122401879Y-130080537D02*
X122630450Y-130080537D01*
X121887593Y-130594822D02*
X121887593Y-129394822D01*
X121887593Y-129394822D02*
X121201879Y-130594822D01*
X121201879Y-130594822D02*
X121201879Y-129394822D01*
X120630450Y-129966251D02*
X120230450Y-129966251D01*
X120059022Y-130594822D02*
X120630450Y-130594822D01*
X120630450Y-130594822D02*
X120630450Y-129394822D01*
X120630450Y-129394822D02*
X120059022Y-129394822D01*
X119659022Y-129394822D02*
X118859022Y-130594822D01*
X118859022Y-129394822D02*
X119659022Y-130594822D01*
X118173308Y-129394822D02*
X117944736Y-129394822D01*
X117944736Y-129394822D02*
X117830451Y-129451965D01*
X117830451Y-129451965D02*
X117716165Y-129566251D01*
X117716165Y-129566251D02*
X117659022Y-129794822D01*
X117659022Y-129794822D02*
X117659022Y-130194822D01*
X117659022Y-130194822D02*
X117716165Y-130423394D01*
X117716165Y-130423394D02*
X117830451Y-130537680D01*
X117830451Y-130537680D02*
X117944736Y-130594822D01*
X117944736Y-130594822D02*
X118173308Y-130594822D01*
X118173308Y-130594822D02*
X118287594Y-130537680D01*
X118287594Y-130537680D02*
X118401879Y-130423394D01*
X118401879Y-130423394D02*
X118459022Y-130194822D01*
X118459022Y-130194822D02*
X118459022Y-129794822D01*
X118459022Y-129794822D02*
X118401879Y-129566251D01*
X118401879Y-129566251D02*
X118287594Y-129451965D01*
X118287594Y-129451965D02*
X118173308Y-129394822D01*
X114011403Y-123641680D02*
X113978070Y-123608346D01*
X113978070Y-123608346D02*
X113911403Y-123575013D01*
X113911403Y-123575013D02*
X113744737Y-123575013D01*
X113744737Y-123575013D02*
X113678070Y-123608346D01*
X113678070Y-123608346D02*
X113644737Y-123641680D01*
X113644737Y-123641680D02*
X113611403Y-123708346D01*
X113611403Y-123708346D02*
X113611403Y-123775013D01*
X113611403Y-123775013D02*
X113644737Y-123875013D01*
X113644737Y-123875013D02*
X114044737Y-124275013D01*
X114044737Y-124275013D02*
X113611403Y-124275013D01*
X113311403Y-124208346D02*
X113278070Y-124241680D01*
X113278070Y-124241680D02*
X113311403Y-124275013D01*
X113311403Y-124275013D02*
X113344736Y-124241680D01*
X113344736Y-124241680D02*
X113311403Y-124208346D01*
X113311403Y-124208346D02*
X113311403Y-124275013D01*
X112644737Y-123575013D02*
X112978070Y-123575013D01*
X112978070Y-123575013D02*
X113011403Y-123908346D01*
X113011403Y-123908346D02*
X112978070Y-123875013D01*
X112978070Y-123875013D02*
X112911403Y-123841680D01*
X112911403Y-123841680D02*
X112744737Y-123841680D01*
X112744737Y-123841680D02*
X112678070Y-123875013D01*
X112678070Y-123875013D02*
X112644737Y-123908346D01*
X112644737Y-123908346D02*
X112611403Y-123975013D01*
X112611403Y-123975013D02*
X112611403Y-124141680D01*
X112611403Y-124141680D02*
X112644737Y-124208346D01*
X112644737Y-124208346D02*
X112678070Y-124241680D01*
X112678070Y-124241680D02*
X112744737Y-124275013D01*
X112744737Y-124275013D02*
X112911403Y-124275013D01*
X112911403Y-124275013D02*
X112978070Y-124241680D01*
X112978070Y-124241680D02*
X113011403Y-124208346D01*
X111778070Y-124275013D02*
X111778070Y-123808346D01*
X111778070Y-123875013D02*
X111744737Y-123841680D01*
X111744737Y-123841680D02*
X111678070Y-123808346D01*
X111678070Y-123808346D02*
X111578070Y-123808346D01*
X111578070Y-123808346D02*
X111511403Y-123841680D01*
X111511403Y-123841680D02*
X111478070Y-123908346D01*
X111478070Y-123908346D02*
X111478070Y-124275013D01*
X111478070Y-123908346D02*
X111444737Y-123841680D01*
X111444737Y-123841680D02*
X111378070Y-123808346D01*
X111378070Y-123808346D02*
X111278070Y-123808346D01*
X111278070Y-123808346D02*
X111211403Y-123841680D01*
X111211403Y-123841680D02*
X111178070Y-123908346D01*
X111178070Y-123908346D02*
X111178070Y-124275013D01*
X110844737Y-124275013D02*
X110844737Y-123808346D01*
X110844737Y-123875013D02*
X110811404Y-123841680D01*
X110811404Y-123841680D02*
X110744737Y-123808346D01*
X110744737Y-123808346D02*
X110644737Y-123808346D01*
X110644737Y-123808346D02*
X110578070Y-123841680D01*
X110578070Y-123841680D02*
X110544737Y-123908346D01*
X110544737Y-123908346D02*
X110544737Y-124275013D01*
X110544737Y-123908346D02*
X110511404Y-123841680D01*
X110511404Y-123841680D02*
X110444737Y-123808346D01*
X110444737Y-123808346D02*
X110344737Y-123808346D01*
X110344737Y-123808346D02*
X110278070Y-123841680D01*
X110278070Y-123841680D02*
X110244737Y-123908346D01*
X110244737Y-123908346D02*
X110244737Y-124275013D01*
X114078070Y-124702013D02*
X113678070Y-124702013D01*
X113878070Y-125402013D02*
X113878070Y-124702013D01*
X113444737Y-125335346D02*
X113411404Y-125368680D01*
X113411404Y-125368680D02*
X113444737Y-125402013D01*
X113444737Y-125402013D02*
X113478070Y-125368680D01*
X113478070Y-125368680D02*
X113444737Y-125335346D01*
X113444737Y-125335346D02*
X113444737Y-125402013D01*
X113444737Y-124968680D02*
X113411404Y-125002013D01*
X113411404Y-125002013D02*
X113444737Y-125035346D01*
X113444737Y-125035346D02*
X113478070Y-125002013D01*
X113478070Y-125002013D02*
X113444737Y-124968680D01*
X113444737Y-124968680D02*
X113444737Y-125035346D01*
X113144737Y-125368680D02*
X113044737Y-125402013D01*
X113044737Y-125402013D02*
X112878071Y-125402013D01*
X112878071Y-125402013D02*
X112811404Y-125368680D01*
X112811404Y-125368680D02*
X112778071Y-125335346D01*
X112778071Y-125335346D02*
X112744737Y-125268680D01*
X112744737Y-125268680D02*
X112744737Y-125202013D01*
X112744737Y-125202013D02*
X112778071Y-125135346D01*
X112778071Y-125135346D02*
X112811404Y-125102013D01*
X112811404Y-125102013D02*
X112878071Y-125068680D01*
X112878071Y-125068680D02*
X113011404Y-125035346D01*
X113011404Y-125035346D02*
X113078071Y-125002013D01*
X113078071Y-125002013D02*
X113111404Y-124968680D01*
X113111404Y-124968680D02*
X113144737Y-124902013D01*
X113144737Y-124902013D02*
X113144737Y-124835346D01*
X113144737Y-124835346D02*
X113111404Y-124768680D01*
X113111404Y-124768680D02*
X113078071Y-124735346D01*
X113078071Y-124735346D02*
X113011404Y-124702013D01*
X113011404Y-124702013D02*
X112844737Y-124702013D01*
X112844737Y-124702013D02*
X112744737Y-124735346D01*
X112444737Y-125402013D02*
X112444737Y-124702013D01*
X112444737Y-124702013D02*
X112178070Y-124702013D01*
X112178070Y-124702013D02*
X112111404Y-124735346D01*
X112111404Y-124735346D02*
X112078070Y-124768680D01*
X112078070Y-124768680D02*
X112044737Y-124835346D01*
X112044737Y-124835346D02*
X112044737Y-124935346D01*
X112044737Y-124935346D02*
X112078070Y-125002013D01*
X112078070Y-125002013D02*
X112111404Y-125035346D01*
X112111404Y-125035346D02*
X112178070Y-125068680D01*
X112178070Y-125068680D02*
X112444737Y-125068680D01*
X111744737Y-125402013D02*
X111744737Y-124702013D01*
X111344737Y-125402013D02*
X111644737Y-125002013D01*
X111344737Y-124702013D02*
X111744737Y-125102013D01*
X113578070Y-126529013D02*
X113811403Y-126195680D01*
X113978070Y-126529013D02*
X113978070Y-125829013D01*
X113978070Y-125829013D02*
X113711403Y-125829013D01*
X113711403Y-125829013D02*
X113644737Y-125862346D01*
X113644737Y-125862346D02*
X113611403Y-125895680D01*
X113611403Y-125895680D02*
X113578070Y-125962346D01*
X113578070Y-125962346D02*
X113578070Y-126062346D01*
X113578070Y-126062346D02*
X113611403Y-126129013D01*
X113611403Y-126129013D02*
X113644737Y-126162346D01*
X113644737Y-126162346D02*
X113711403Y-126195680D01*
X113711403Y-126195680D02*
X113978070Y-126195680D01*
X113278070Y-126462346D02*
X113244737Y-126495680D01*
X113244737Y-126495680D02*
X113278070Y-126529013D01*
X113278070Y-126529013D02*
X113311403Y-126495680D01*
X113311403Y-126495680D02*
X113278070Y-126462346D01*
X113278070Y-126462346D02*
X113278070Y-126529013D01*
X113278070Y-126095680D02*
X113244737Y-126129013D01*
X113244737Y-126129013D02*
X113278070Y-126162346D01*
X113278070Y-126162346D02*
X113311403Y-126129013D01*
X113311403Y-126129013D02*
X113278070Y-126095680D01*
X113278070Y-126095680D02*
X113278070Y-126162346D01*
X112944737Y-126529013D02*
X112944737Y-125829013D01*
X112944737Y-125829013D02*
X112678070Y-125829013D01*
X112678070Y-125829013D02*
X112611404Y-125862346D01*
X112611404Y-125862346D02*
X112578070Y-125895680D01*
X112578070Y-125895680D02*
X112544737Y-125962346D01*
X112544737Y-125962346D02*
X112544737Y-126062346D01*
X112544737Y-126062346D02*
X112578070Y-126129013D01*
X112578070Y-126129013D02*
X112611404Y-126162346D01*
X112611404Y-126162346D02*
X112678070Y-126195680D01*
X112678070Y-126195680D02*
X112944737Y-126195680D01*
X112344737Y-125829013D02*
X111944737Y-125829013D01*
X112144737Y-126529013D02*
X112144737Y-125829013D01*
X111811404Y-125829013D02*
X111411404Y-125829013D01*
X111611404Y-126529013D02*
X111611404Y-125829013D01*
X114011403Y-127622680D02*
X113911403Y-127656013D01*
X113911403Y-127656013D02*
X113744737Y-127656013D01*
X113744737Y-127656013D02*
X113678070Y-127622680D01*
X113678070Y-127622680D02*
X113644737Y-127589346D01*
X113644737Y-127589346D02*
X113611403Y-127522680D01*
X113611403Y-127522680D02*
X113611403Y-127456013D01*
X113611403Y-127456013D02*
X113644737Y-127389346D01*
X113644737Y-127389346D02*
X113678070Y-127356013D01*
X113678070Y-127356013D02*
X113744737Y-127322680D01*
X113744737Y-127322680D02*
X113878070Y-127289346D01*
X113878070Y-127289346D02*
X113944737Y-127256013D01*
X113944737Y-127256013D02*
X113978070Y-127222680D01*
X113978070Y-127222680D02*
X114011403Y-127156013D01*
X114011403Y-127156013D02*
X114011403Y-127089346D01*
X114011403Y-127089346D02*
X113978070Y-127022680D01*
X113978070Y-127022680D02*
X113944737Y-126989346D01*
X113944737Y-126989346D02*
X113878070Y-126956013D01*
X113878070Y-126956013D02*
X113711403Y-126956013D01*
X113711403Y-126956013D02*
X113611403Y-126989346D01*
X113311403Y-127589346D02*
X113278070Y-127622680D01*
X113278070Y-127622680D02*
X113311403Y-127656013D01*
X113311403Y-127656013D02*
X113344736Y-127622680D01*
X113344736Y-127622680D02*
X113311403Y-127589346D01*
X113311403Y-127589346D02*
X113311403Y-127656013D01*
X113311403Y-127222680D02*
X113278070Y-127256013D01*
X113278070Y-127256013D02*
X113311403Y-127289346D01*
X113311403Y-127289346D02*
X113344736Y-127256013D01*
X113344736Y-127256013D02*
X113311403Y-127222680D01*
X113311403Y-127222680D02*
X113311403Y-127289346D01*
X113011403Y-127622680D02*
X112911403Y-127656013D01*
X112911403Y-127656013D02*
X112744737Y-127656013D01*
X112744737Y-127656013D02*
X112678070Y-127622680D01*
X112678070Y-127622680D02*
X112644737Y-127589346D01*
X112644737Y-127589346D02*
X112611403Y-127522680D01*
X112611403Y-127522680D02*
X112611403Y-127456013D01*
X112611403Y-127456013D02*
X112644737Y-127389346D01*
X112644737Y-127389346D02*
X112678070Y-127356013D01*
X112678070Y-127356013D02*
X112744737Y-127322680D01*
X112744737Y-127322680D02*
X112878070Y-127289346D01*
X112878070Y-127289346D02*
X112944737Y-127256013D01*
X112944737Y-127256013D02*
X112978070Y-127222680D01*
X112978070Y-127222680D02*
X113011403Y-127156013D01*
X113011403Y-127156013D02*
X113011403Y-127089346D01*
X113011403Y-127089346D02*
X112978070Y-127022680D01*
X112978070Y-127022680D02*
X112944737Y-126989346D01*
X112944737Y-126989346D02*
X112878070Y-126956013D01*
X112878070Y-126956013D02*
X112711403Y-126956013D01*
X112711403Y-126956013D02*
X112611403Y-126989346D01*
X112311403Y-127656013D02*
X112311403Y-126956013D01*
X112311403Y-126956013D02*
X112044736Y-126956013D01*
X112044736Y-126956013D02*
X111978070Y-126989346D01*
X111978070Y-126989346D02*
X111944736Y-127022680D01*
X111944736Y-127022680D02*
X111911403Y-127089346D01*
X111911403Y-127089346D02*
X111911403Y-127189346D01*
X111911403Y-127189346D02*
X111944736Y-127256013D01*
X111944736Y-127256013D02*
X111978070Y-127289346D01*
X111978070Y-127289346D02*
X112044736Y-127322680D01*
X112044736Y-127322680D02*
X112311403Y-127322680D01*
X111611403Y-127656013D02*
X111611403Y-126956013D01*
X111211403Y-127656013D02*
X111511403Y-127256013D01*
X111211403Y-126956013D02*
X111611403Y-127356013D01*
X135794737Y-123575013D02*
X135361403Y-123575013D01*
X135361403Y-123575013D02*
X135594737Y-123841680D01*
X135594737Y-123841680D02*
X135494737Y-123841680D01*
X135494737Y-123841680D02*
X135428070Y-123875013D01*
X135428070Y-123875013D02*
X135394737Y-123908346D01*
X135394737Y-123908346D02*
X135361403Y-123975013D01*
X135361403Y-123975013D02*
X135361403Y-124141680D01*
X135361403Y-124141680D02*
X135394737Y-124208346D01*
X135394737Y-124208346D02*
X135428070Y-124241680D01*
X135428070Y-124241680D02*
X135494737Y-124275013D01*
X135494737Y-124275013D02*
X135694737Y-124275013D01*
X135694737Y-124275013D02*
X135761403Y-124241680D01*
X135761403Y-124241680D02*
X135794737Y-124208346D01*
X135061403Y-124208346D02*
X135028070Y-124241680D01*
X135028070Y-124241680D02*
X135061403Y-124275013D01*
X135061403Y-124275013D02*
X135094736Y-124241680D01*
X135094736Y-124241680D02*
X135061403Y-124208346D01*
X135061403Y-124208346D02*
X135061403Y-124275013D01*
X134394737Y-123575013D02*
X134728070Y-123575013D01*
X134728070Y-123575013D02*
X134761403Y-123908346D01*
X134761403Y-123908346D02*
X134728070Y-123875013D01*
X134728070Y-123875013D02*
X134661403Y-123841680D01*
X134661403Y-123841680D02*
X134494737Y-123841680D01*
X134494737Y-123841680D02*
X134428070Y-123875013D01*
X134428070Y-123875013D02*
X134394737Y-123908346D01*
X134394737Y-123908346D02*
X134361403Y-123975013D01*
X134361403Y-123975013D02*
X134361403Y-124141680D01*
X134361403Y-124141680D02*
X134394737Y-124208346D01*
X134394737Y-124208346D02*
X134428070Y-124241680D01*
X134428070Y-124241680D02*
X134494737Y-124275013D01*
X134494737Y-124275013D02*
X134661403Y-124275013D01*
X134661403Y-124275013D02*
X134728070Y-124241680D01*
X134728070Y-124241680D02*
X134761403Y-124208346D01*
X133528070Y-124275013D02*
X133528070Y-123808346D01*
X133528070Y-123875013D02*
X133494737Y-123841680D01*
X133494737Y-123841680D02*
X133428070Y-123808346D01*
X133428070Y-123808346D02*
X133328070Y-123808346D01*
X133328070Y-123808346D02*
X133261403Y-123841680D01*
X133261403Y-123841680D02*
X133228070Y-123908346D01*
X133228070Y-123908346D02*
X133228070Y-124275013D01*
X133228070Y-123908346D02*
X133194737Y-123841680D01*
X133194737Y-123841680D02*
X133128070Y-123808346D01*
X133128070Y-123808346D02*
X133028070Y-123808346D01*
X133028070Y-123808346D02*
X132961403Y-123841680D01*
X132961403Y-123841680D02*
X132928070Y-123908346D01*
X132928070Y-123908346D02*
X132928070Y-124275013D01*
X132594737Y-124275013D02*
X132594737Y-123808346D01*
X132594737Y-123875013D02*
X132561404Y-123841680D01*
X132561404Y-123841680D02*
X132494737Y-123808346D01*
X132494737Y-123808346D02*
X132394737Y-123808346D01*
X132394737Y-123808346D02*
X132328070Y-123841680D01*
X132328070Y-123841680D02*
X132294737Y-123908346D01*
X132294737Y-123908346D02*
X132294737Y-124275013D01*
X132294737Y-123908346D02*
X132261404Y-123841680D01*
X132261404Y-123841680D02*
X132194737Y-123808346D01*
X132194737Y-123808346D02*
X132094737Y-123808346D01*
X132094737Y-123808346D02*
X132028070Y-123841680D01*
X132028070Y-123841680D02*
X131994737Y-123908346D01*
X131994737Y-123908346D02*
X131994737Y-124275013D01*
X135828070Y-124702013D02*
X135428070Y-124702013D01*
X135628070Y-125402013D02*
X135628070Y-124702013D01*
X135194737Y-125335346D02*
X135161404Y-125368680D01*
X135161404Y-125368680D02*
X135194737Y-125402013D01*
X135194737Y-125402013D02*
X135228070Y-125368680D01*
X135228070Y-125368680D02*
X135194737Y-125335346D01*
X135194737Y-125335346D02*
X135194737Y-125402013D01*
X135194737Y-124968680D02*
X135161404Y-125002013D01*
X135161404Y-125002013D02*
X135194737Y-125035346D01*
X135194737Y-125035346D02*
X135228070Y-125002013D01*
X135228070Y-125002013D02*
X135194737Y-124968680D01*
X135194737Y-124968680D02*
X135194737Y-125035346D01*
X134861404Y-125402013D02*
X134861404Y-124702013D01*
X134861404Y-124702013D02*
X134594737Y-124702013D01*
X134594737Y-124702013D02*
X134528071Y-124735346D01*
X134528071Y-124735346D02*
X134494737Y-124768680D01*
X134494737Y-124768680D02*
X134461404Y-124835346D01*
X134461404Y-124835346D02*
X134461404Y-124935346D01*
X134461404Y-124935346D02*
X134494737Y-125002013D01*
X134494737Y-125002013D02*
X134528071Y-125035346D01*
X134528071Y-125035346D02*
X134594737Y-125068680D01*
X134594737Y-125068680D02*
X134861404Y-125068680D01*
X134261404Y-124702013D02*
X133861404Y-124702013D01*
X134061404Y-125402013D02*
X134061404Y-124702013D01*
X133728071Y-124702013D02*
X133328071Y-124702013D01*
X133528071Y-125402013D02*
X133528071Y-124702013D01*
X135328070Y-126529013D02*
X135561403Y-126195680D01*
X135728070Y-126529013D02*
X135728070Y-125829013D01*
X135728070Y-125829013D02*
X135461403Y-125829013D01*
X135461403Y-125829013D02*
X135394737Y-125862346D01*
X135394737Y-125862346D02*
X135361403Y-125895680D01*
X135361403Y-125895680D02*
X135328070Y-125962346D01*
X135328070Y-125962346D02*
X135328070Y-126062346D01*
X135328070Y-126062346D02*
X135361403Y-126129013D01*
X135361403Y-126129013D02*
X135394737Y-126162346D01*
X135394737Y-126162346D02*
X135461403Y-126195680D01*
X135461403Y-126195680D02*
X135728070Y-126195680D01*
X135028070Y-126462346D02*
X134994737Y-126495680D01*
X134994737Y-126495680D02*
X135028070Y-126529013D01*
X135028070Y-126529013D02*
X135061403Y-126495680D01*
X135061403Y-126495680D02*
X135028070Y-126462346D01*
X135028070Y-126462346D02*
X135028070Y-126529013D01*
X135028070Y-126095680D02*
X134994737Y-126129013D01*
X134994737Y-126129013D02*
X135028070Y-126162346D01*
X135028070Y-126162346D02*
X135061403Y-126129013D01*
X135061403Y-126129013D02*
X135028070Y-126095680D01*
X135028070Y-126095680D02*
X135028070Y-126162346D01*
X134694737Y-126529013D02*
X134694737Y-125829013D01*
X134694737Y-125829013D02*
X134461404Y-126329013D01*
X134461404Y-126329013D02*
X134228070Y-125829013D01*
X134228070Y-125829013D02*
X134228070Y-126529013D01*
X133894737Y-126529013D02*
X133894737Y-125829013D01*
X133161404Y-126462346D02*
X133194737Y-126495680D01*
X133194737Y-126495680D02*
X133294737Y-126529013D01*
X133294737Y-126529013D02*
X133361404Y-126529013D01*
X133361404Y-126529013D02*
X133461404Y-126495680D01*
X133461404Y-126495680D02*
X133528071Y-126429013D01*
X133528071Y-126429013D02*
X133561404Y-126362346D01*
X133561404Y-126362346D02*
X133594737Y-126229013D01*
X133594737Y-126229013D02*
X133594737Y-126129013D01*
X133594737Y-126129013D02*
X133561404Y-125995680D01*
X133561404Y-125995680D02*
X133528071Y-125929013D01*
X133528071Y-125929013D02*
X133461404Y-125862346D01*
X133461404Y-125862346D02*
X133361404Y-125829013D01*
X133361404Y-125829013D02*
X133294737Y-125829013D01*
X133294737Y-125829013D02*
X133194737Y-125862346D01*
X133194737Y-125862346D02*
X133161404Y-125895680D01*
X135761403Y-127622680D02*
X135661403Y-127656013D01*
X135661403Y-127656013D02*
X135494737Y-127656013D01*
X135494737Y-127656013D02*
X135428070Y-127622680D01*
X135428070Y-127622680D02*
X135394737Y-127589346D01*
X135394737Y-127589346D02*
X135361403Y-127522680D01*
X135361403Y-127522680D02*
X135361403Y-127456013D01*
X135361403Y-127456013D02*
X135394737Y-127389346D01*
X135394737Y-127389346D02*
X135428070Y-127356013D01*
X135428070Y-127356013D02*
X135494737Y-127322680D01*
X135494737Y-127322680D02*
X135628070Y-127289346D01*
X135628070Y-127289346D02*
X135694737Y-127256013D01*
X135694737Y-127256013D02*
X135728070Y-127222680D01*
X135728070Y-127222680D02*
X135761403Y-127156013D01*
X135761403Y-127156013D02*
X135761403Y-127089346D01*
X135761403Y-127089346D02*
X135728070Y-127022680D01*
X135728070Y-127022680D02*
X135694737Y-126989346D01*
X135694737Y-126989346D02*
X135628070Y-126956013D01*
X135628070Y-126956013D02*
X135461403Y-126956013D01*
X135461403Y-126956013D02*
X135361403Y-126989346D01*
X135061403Y-127589346D02*
X135028070Y-127622680D01*
X135028070Y-127622680D02*
X135061403Y-127656013D01*
X135061403Y-127656013D02*
X135094736Y-127622680D01*
X135094736Y-127622680D02*
X135061403Y-127589346D01*
X135061403Y-127589346D02*
X135061403Y-127656013D01*
X135061403Y-127222680D02*
X135028070Y-127256013D01*
X135028070Y-127256013D02*
X135061403Y-127289346D01*
X135061403Y-127289346D02*
X135094736Y-127256013D01*
X135094736Y-127256013D02*
X135061403Y-127222680D01*
X135061403Y-127222680D02*
X135061403Y-127289346D01*
X134728070Y-127656013D02*
X134728070Y-126956013D01*
X134728070Y-126956013D02*
X134494737Y-127456013D01*
X134494737Y-127456013D02*
X134261403Y-126956013D01*
X134261403Y-126956013D02*
X134261403Y-127656013D01*
X133928070Y-127656013D02*
X133928070Y-126956013D01*
X133194737Y-127589346D02*
X133228070Y-127622680D01*
X133228070Y-127622680D02*
X133328070Y-127656013D01*
X133328070Y-127656013D02*
X133394737Y-127656013D01*
X133394737Y-127656013D02*
X133494737Y-127622680D01*
X133494737Y-127622680D02*
X133561404Y-127556013D01*
X133561404Y-127556013D02*
X133594737Y-127489346D01*
X133594737Y-127489346D02*
X133628070Y-127356013D01*
X133628070Y-127356013D02*
X133628070Y-127256013D01*
X133628070Y-127256013D02*
X133594737Y-127122680D01*
X133594737Y-127122680D02*
X133561404Y-127056013D01*
X133561404Y-127056013D02*
X133494737Y-126989346D01*
X133494737Y-126989346D02*
X133394737Y-126956013D01*
X133394737Y-126956013D02*
X133328070Y-126956013D01*
X133328070Y-126956013D02*
X133228070Y-126989346D01*
X133228070Y-126989346D02*
X133194737Y-127022680D01*
X129228070Y-132406013D02*
X129228070Y-131706013D01*
X128928070Y-132372680D02*
X128828070Y-132406013D01*
X128828070Y-132406013D02*
X128661404Y-132406013D01*
X128661404Y-132406013D02*
X128594737Y-132372680D01*
X128594737Y-132372680D02*
X128561404Y-132339346D01*
X128561404Y-132339346D02*
X128528070Y-132272680D01*
X128528070Y-132272680D02*
X128528070Y-132206013D01*
X128528070Y-132206013D02*
X128561404Y-132139346D01*
X128561404Y-132139346D02*
X128594737Y-132106013D01*
X128594737Y-132106013D02*
X128661404Y-132072680D01*
X128661404Y-132072680D02*
X128794737Y-132039346D01*
X128794737Y-132039346D02*
X128861404Y-132006013D01*
X128861404Y-132006013D02*
X128894737Y-131972680D01*
X128894737Y-131972680D02*
X128928070Y-131906013D01*
X128928070Y-131906013D02*
X128928070Y-131839346D01*
X128928070Y-131839346D02*
X128894737Y-131772680D01*
X128894737Y-131772680D02*
X128861404Y-131739346D01*
X128861404Y-131739346D02*
X128794737Y-131706013D01*
X128794737Y-131706013D02*
X128628070Y-131706013D01*
X128628070Y-131706013D02*
X128528070Y-131739346D01*
X128094737Y-131706013D02*
X127961403Y-131706013D01*
X127961403Y-131706013D02*
X127894737Y-131739346D01*
X127894737Y-131739346D02*
X127828070Y-131806013D01*
X127828070Y-131806013D02*
X127794737Y-131939346D01*
X127794737Y-131939346D02*
X127794737Y-132172680D01*
X127794737Y-132172680D02*
X127828070Y-132306013D01*
X127828070Y-132306013D02*
X127894737Y-132372680D01*
X127894737Y-132372680D02*
X127961403Y-132406013D01*
X127961403Y-132406013D02*
X128094737Y-132406013D01*
X128094737Y-132406013D02*
X128161403Y-132372680D01*
X128161403Y-132372680D02*
X128228070Y-132306013D01*
X128228070Y-132306013D02*
X128261403Y-132172680D01*
X128261403Y-132172680D02*
X128261403Y-131939346D01*
X128261403Y-131939346D02*
X128228070Y-131806013D01*
X128228070Y-131806013D02*
X128161403Y-131739346D01*
X128161403Y-131739346D02*
X128094737Y-131706013D01*
X127161404Y-132406013D02*
X127494737Y-132406013D01*
X127494737Y-132406013D02*
X127494737Y-131706013D01*
X126961403Y-132206013D02*
X126628070Y-132206013D01*
X127028070Y-132406013D02*
X126794737Y-131706013D01*
X126794737Y-131706013D02*
X126561403Y-132406013D01*
X126428070Y-131706013D02*
X126028070Y-131706013D01*
X126228070Y-132406013D02*
X126228070Y-131706013D01*
X125794737Y-132039346D02*
X125561404Y-132039346D01*
X125461404Y-132406013D02*
X125794737Y-132406013D01*
X125794737Y-132406013D02*
X125794737Y-131706013D01*
X125794737Y-131706013D02*
X125461404Y-131706013D01*
X125161404Y-132406013D02*
X125161404Y-131706013D01*
X125161404Y-131706013D02*
X124994737Y-131706013D01*
X124994737Y-131706013D02*
X124894737Y-131739346D01*
X124894737Y-131739346D02*
X124828071Y-131806013D01*
X124828071Y-131806013D02*
X124794737Y-131872680D01*
X124794737Y-131872680D02*
X124761404Y-132006013D01*
X124761404Y-132006013D02*
X124761404Y-132106013D01*
X124761404Y-132106013D02*
X124794737Y-132239346D01*
X124794737Y-132239346D02*
X124828071Y-132306013D01*
X124828071Y-132306013D02*
X124894737Y-132372680D01*
X124894737Y-132372680D02*
X124994737Y-132406013D01*
X124994737Y-132406013D02*
X125161404Y-132406013D01*
X123928071Y-132406013D02*
X123928071Y-131706013D01*
X123928071Y-132039346D02*
X123528071Y-132039346D01*
X123528071Y-132406013D02*
X123528071Y-131706013D01*
X123228071Y-132206013D02*
X122894738Y-132206013D01*
X123294738Y-132406013D02*
X123061405Y-131706013D01*
X123061405Y-131706013D02*
X122828071Y-132406013D01*
X122594738Y-132406013D02*
X122594738Y-131706013D01*
X122594738Y-131706013D02*
X122361405Y-132206013D01*
X122361405Y-132206013D02*
X122128071Y-131706013D01*
X122128071Y-131706013D02*
X122128071Y-132406013D01*
X120861405Y-132406013D02*
X121094738Y-132072680D01*
X121261405Y-132406013D02*
X121261405Y-131706013D01*
X121261405Y-131706013D02*
X120994738Y-131706013D01*
X120994738Y-131706013D02*
X120928072Y-131739346D01*
X120928072Y-131739346D02*
X120894738Y-131772680D01*
X120894738Y-131772680D02*
X120861405Y-131839346D01*
X120861405Y-131839346D02*
X120861405Y-131939346D01*
X120861405Y-131939346D02*
X120894738Y-132006013D01*
X120894738Y-132006013D02*
X120928072Y-132039346D01*
X120928072Y-132039346D02*
X120994738Y-132072680D01*
X120994738Y-132072680D02*
X121261405Y-132072680D01*
X120594738Y-132206013D02*
X120261405Y-132206013D01*
X120661405Y-132406013D02*
X120428072Y-131706013D01*
X120428072Y-131706013D02*
X120194738Y-132406013D01*
X119961405Y-132406013D02*
X119961405Y-131706013D01*
X119961405Y-131706013D02*
X119794738Y-131706013D01*
X119794738Y-131706013D02*
X119694738Y-131739346D01*
X119694738Y-131739346D02*
X119628072Y-131806013D01*
X119628072Y-131806013D02*
X119594738Y-131872680D01*
X119594738Y-131872680D02*
X119561405Y-132006013D01*
X119561405Y-132006013D02*
X119561405Y-132106013D01*
X119561405Y-132106013D02*
X119594738Y-132239346D01*
X119594738Y-132239346D02*
X119628072Y-132306013D01*
X119628072Y-132306013D02*
X119694738Y-132372680D01*
X119694738Y-132372680D02*
X119794738Y-132406013D01*
X119794738Y-132406013D02*
X119961405Y-132406013D01*
X119261405Y-132406013D02*
X119261405Y-131706013D01*
X118794739Y-131706013D02*
X118661405Y-131706013D01*
X118661405Y-131706013D02*
X118594739Y-131739346D01*
X118594739Y-131739346D02*
X118528072Y-131806013D01*
X118528072Y-131806013D02*
X118494739Y-131939346D01*
X118494739Y-131939346D02*
X118494739Y-132172680D01*
X118494739Y-132172680D02*
X118528072Y-132306013D01*
X118528072Y-132306013D02*
X118594739Y-132372680D01*
X118594739Y-132372680D02*
X118661405Y-132406013D01*
X118661405Y-132406013D02*
X118794739Y-132406013D01*
X118794739Y-132406013D02*
X118861405Y-132372680D01*
X118861405Y-132372680D02*
X118928072Y-132306013D01*
X118928072Y-132306013D02*
X118961405Y-132172680D01*
X118961405Y-132172680D02*
X118961405Y-131939346D01*
X118961405Y-131939346D02*
X118928072Y-131806013D01*
X118928072Y-131806013D02*
X118861405Y-131739346D01*
X118861405Y-131739346D02*
X118794739Y-131706013D01*
X117661406Y-132406013D02*
X117661406Y-131706013D01*
X117328073Y-132406013D02*
X117328073Y-131706013D01*
X117328073Y-131706013D02*
X116928073Y-132406013D01*
X116928073Y-132406013D02*
X116928073Y-131706013D01*
X116694740Y-131706013D02*
X116294740Y-131706013D01*
X116494740Y-132406013D02*
X116494740Y-131706013D01*
X116061407Y-132039346D02*
X115828074Y-132039346D01*
X115728074Y-132406013D02*
X116061407Y-132406013D01*
X116061407Y-132406013D02*
X116061407Y-131706013D01*
X116061407Y-131706013D02*
X115728074Y-131706013D01*
X115028074Y-132406013D02*
X115261407Y-132072680D01*
X115428074Y-132406013D02*
X115428074Y-131706013D01*
X115428074Y-131706013D02*
X115161407Y-131706013D01*
X115161407Y-131706013D02*
X115094741Y-131739346D01*
X115094741Y-131739346D02*
X115061407Y-131772680D01*
X115061407Y-131772680D02*
X115028074Y-131839346D01*
X115028074Y-131839346D02*
X115028074Y-131939346D01*
X115028074Y-131939346D02*
X115061407Y-132006013D01*
X115061407Y-132006013D02*
X115094741Y-132039346D01*
X115094741Y-132039346D02*
X115161407Y-132072680D01*
X115161407Y-132072680D02*
X115428074Y-132072680D01*
X114494741Y-132039346D02*
X114728074Y-132039346D01*
X114728074Y-132406013D02*
X114728074Y-131706013D01*
X114728074Y-131706013D02*
X114394741Y-131706013D01*
X114161407Y-132206013D02*
X113828074Y-132206013D01*
X114228074Y-132406013D02*
X113994741Y-131706013D01*
X113994741Y-131706013D02*
X113761407Y-132406013D01*
X113128074Y-132339346D02*
X113161407Y-132372680D01*
X113161407Y-132372680D02*
X113261407Y-132406013D01*
X113261407Y-132406013D02*
X113328074Y-132406013D01*
X113328074Y-132406013D02*
X113428074Y-132372680D01*
X113428074Y-132372680D02*
X113494741Y-132306013D01*
X113494741Y-132306013D02*
X113528074Y-132239346D01*
X113528074Y-132239346D02*
X113561407Y-132106013D01*
X113561407Y-132106013D02*
X113561407Y-132006013D01*
X113561407Y-132006013D02*
X113528074Y-131872680D01*
X113528074Y-131872680D02*
X113494741Y-131806013D01*
X113494741Y-131806013D02*
X113428074Y-131739346D01*
X113428074Y-131739346D02*
X113328074Y-131706013D01*
X113328074Y-131706013D02*
X113261407Y-131706013D01*
X113261407Y-131706013D02*
X113161407Y-131739346D01*
X113161407Y-131739346D02*
X113128074Y-131772680D01*
X112828074Y-132039346D02*
X112594741Y-132039346D01*
X112494741Y-132406013D02*
X112828074Y-132406013D01*
X112828074Y-132406013D02*
X112828074Y-131706013D01*
X112828074Y-131706013D02*
X112494741Y-131706013D01*
X142728070Y-89906013D02*
X142728070Y-89206013D01*
X142728070Y-89206013D02*
X142494737Y-89706013D01*
X142494737Y-89706013D02*
X142261403Y-89206013D01*
X142261403Y-89206013D02*
X142261403Y-89906013D01*
X141928070Y-89906013D02*
X141928070Y-89206013D01*
X141194737Y-89839346D02*
X141228070Y-89872680D01*
X141228070Y-89872680D02*
X141328070Y-89906013D01*
X141328070Y-89906013D02*
X141394737Y-89906013D01*
X141394737Y-89906013D02*
X141494737Y-89872680D01*
X141494737Y-89872680D02*
X141561404Y-89806013D01*
X141561404Y-89806013D02*
X141594737Y-89739346D01*
X141594737Y-89739346D02*
X141628070Y-89606013D01*
X141628070Y-89606013D02*
X141628070Y-89506013D01*
X141628070Y-89506013D02*
X141594737Y-89372680D01*
X141594737Y-89372680D02*
X141561404Y-89306013D01*
X141561404Y-89306013D02*
X141494737Y-89239346D01*
X141494737Y-89239346D02*
X141394737Y-89206013D01*
X141394737Y-89206013D02*
X141328070Y-89206013D01*
X141328070Y-89206013D02*
X141228070Y-89239346D01*
X141228070Y-89239346D02*
X141194737Y-89272680D01*
X140461404Y-89206013D02*
X140228071Y-89906013D01*
X140228071Y-89906013D02*
X139994737Y-89206013D01*
X139628071Y-89206013D02*
X139494737Y-89206013D01*
X139494737Y-89206013D02*
X139428071Y-89239346D01*
X139428071Y-89239346D02*
X139361404Y-89306013D01*
X139361404Y-89306013D02*
X139328071Y-89439346D01*
X139328071Y-89439346D02*
X139328071Y-89672680D01*
X139328071Y-89672680D02*
X139361404Y-89806013D01*
X139361404Y-89806013D02*
X139428071Y-89872680D01*
X139428071Y-89872680D02*
X139494737Y-89906013D01*
X139494737Y-89906013D02*
X139628071Y-89906013D01*
X139628071Y-89906013D02*
X139694737Y-89872680D01*
X139694737Y-89872680D02*
X139761404Y-89806013D01*
X139761404Y-89806013D02*
X139794737Y-89672680D01*
X139794737Y-89672680D02*
X139794737Y-89439346D01*
X139794737Y-89439346D02*
X139761404Y-89306013D01*
X139761404Y-89306013D02*
X139694737Y-89239346D01*
X139694737Y-89239346D02*
X139628071Y-89206013D01*
X138694738Y-89906013D02*
X139028071Y-89906013D01*
X139028071Y-89906013D02*
X139028071Y-89206013D01*
X109511403Y-89872680D02*
X109411403Y-89906013D01*
X109411403Y-89906013D02*
X109244737Y-89906013D01*
X109244737Y-89906013D02*
X109178070Y-89872680D01*
X109178070Y-89872680D02*
X109144737Y-89839346D01*
X109144737Y-89839346D02*
X109111403Y-89772680D01*
X109111403Y-89772680D02*
X109111403Y-89706013D01*
X109111403Y-89706013D02*
X109144737Y-89639346D01*
X109144737Y-89639346D02*
X109178070Y-89606013D01*
X109178070Y-89606013D02*
X109244737Y-89572680D01*
X109244737Y-89572680D02*
X109378070Y-89539346D01*
X109378070Y-89539346D02*
X109444737Y-89506013D01*
X109444737Y-89506013D02*
X109478070Y-89472680D01*
X109478070Y-89472680D02*
X109511403Y-89406013D01*
X109511403Y-89406013D02*
X109511403Y-89339346D01*
X109511403Y-89339346D02*
X109478070Y-89272680D01*
X109478070Y-89272680D02*
X109444737Y-89239346D01*
X109444737Y-89239346D02*
X109378070Y-89206013D01*
X109378070Y-89206013D02*
X109211403Y-89206013D01*
X109211403Y-89206013D02*
X109111403Y-89239346D01*
X108811403Y-89906013D02*
X108811403Y-89206013D01*
X108811403Y-89206013D02*
X108544736Y-89206013D01*
X108544736Y-89206013D02*
X108478070Y-89239346D01*
X108478070Y-89239346D02*
X108444736Y-89272680D01*
X108444736Y-89272680D02*
X108411403Y-89339346D01*
X108411403Y-89339346D02*
X108411403Y-89439346D01*
X108411403Y-89439346D02*
X108444736Y-89506013D01*
X108444736Y-89506013D02*
X108478070Y-89539346D01*
X108478070Y-89539346D02*
X108544736Y-89572680D01*
X108544736Y-89572680D02*
X108811403Y-89572680D01*
X108111403Y-89906013D02*
X108111403Y-89206013D01*
X107711403Y-89906013D02*
X108011403Y-89506013D01*
X107711403Y-89206013D02*
X108111403Y-89606013D01*
X106978070Y-89206013D02*
X106744737Y-89906013D01*
X106744737Y-89906013D02*
X106511403Y-89206013D01*
X106144737Y-89206013D02*
X106011403Y-89206013D01*
X106011403Y-89206013D02*
X105944737Y-89239346D01*
X105944737Y-89239346D02*
X105878070Y-89306013D01*
X105878070Y-89306013D02*
X105844737Y-89439346D01*
X105844737Y-89439346D02*
X105844737Y-89672680D01*
X105844737Y-89672680D02*
X105878070Y-89806013D01*
X105878070Y-89806013D02*
X105944737Y-89872680D01*
X105944737Y-89872680D02*
X106011403Y-89906013D01*
X106011403Y-89906013D02*
X106144737Y-89906013D01*
X106144737Y-89906013D02*
X106211403Y-89872680D01*
X106211403Y-89872680D02*
X106278070Y-89806013D01*
X106278070Y-89806013D02*
X106311403Y-89672680D01*
X106311403Y-89672680D02*
X106311403Y-89439346D01*
X106311403Y-89439346D02*
X106278070Y-89306013D01*
X106278070Y-89306013D02*
X106211403Y-89239346D01*
X106211403Y-89239346D02*
X106144737Y-89206013D01*
X105211404Y-89906013D02*
X105544737Y-89906013D01*
X105544737Y-89906013D02*
X105544737Y-89206013D01*
X81673308Y-130594822D02*
X82073308Y-130023394D01*
X82359022Y-130594822D02*
X82359022Y-129394822D01*
X82359022Y-129394822D02*
X81901879Y-129394822D01*
X81901879Y-129394822D02*
X81787594Y-129451965D01*
X81787594Y-129451965D02*
X81730451Y-129509108D01*
X81730451Y-129509108D02*
X81673308Y-129623394D01*
X81673308Y-129623394D02*
X81673308Y-129794822D01*
X81673308Y-129794822D02*
X81730451Y-129909108D01*
X81730451Y-129909108D02*
X81787594Y-129966251D01*
X81787594Y-129966251D02*
X81901879Y-130023394D01*
X81901879Y-130023394D02*
X82359022Y-130023394D01*
X81159022Y-130594822D02*
X81159022Y-129394822D01*
X79959022Y-129451965D02*
X80073308Y-129394822D01*
X80073308Y-129394822D02*
X80244736Y-129394822D01*
X80244736Y-129394822D02*
X80416165Y-129451965D01*
X80416165Y-129451965D02*
X80530450Y-129566251D01*
X80530450Y-129566251D02*
X80587593Y-129680537D01*
X80587593Y-129680537D02*
X80644736Y-129909108D01*
X80644736Y-129909108D02*
X80644736Y-130080537D01*
X80644736Y-130080537D02*
X80587593Y-130309108D01*
X80587593Y-130309108D02*
X80530450Y-130423394D01*
X80530450Y-130423394D02*
X80416165Y-130537680D01*
X80416165Y-130537680D02*
X80244736Y-130594822D01*
X80244736Y-130594822D02*
X80130450Y-130594822D01*
X80130450Y-130594822D02*
X79959022Y-130537680D01*
X79959022Y-130537680D02*
X79901879Y-130480537D01*
X79901879Y-130480537D02*
X79901879Y-130080537D01*
X79901879Y-130080537D02*
X80130450Y-130080537D01*
X79387593Y-130594822D02*
X79387593Y-129394822D01*
X79387593Y-129394822D02*
X78701879Y-130594822D01*
X78701879Y-130594822D02*
X78701879Y-129394822D01*
X78130450Y-129966251D02*
X77730450Y-129966251D01*
X77559022Y-130594822D02*
X78130450Y-130594822D01*
X78130450Y-130594822D02*
X78130450Y-129394822D01*
X78130450Y-129394822D02*
X77559022Y-129394822D01*
X77159022Y-129394822D02*
X76359022Y-130594822D01*
X76359022Y-129394822D02*
X77159022Y-130594822D01*
X75673308Y-129394822D02*
X75444736Y-129394822D01*
X75444736Y-129394822D02*
X75330451Y-129451965D01*
X75330451Y-129451965D02*
X75216165Y-129566251D01*
X75216165Y-129566251D02*
X75159022Y-129794822D01*
X75159022Y-129794822D02*
X75159022Y-130194822D01*
X75159022Y-130194822D02*
X75216165Y-130423394D01*
X75216165Y-130423394D02*
X75330451Y-130537680D01*
X75330451Y-130537680D02*
X75444736Y-130594822D01*
X75444736Y-130594822D02*
X75673308Y-130594822D01*
X75673308Y-130594822D02*
X75787594Y-130537680D01*
X75787594Y-130537680D02*
X75901879Y-130423394D01*
X75901879Y-130423394D02*
X75959022Y-130194822D01*
X75959022Y-130194822D02*
X75959022Y-129794822D01*
X75959022Y-129794822D02*
X75901879Y-129566251D01*
X75901879Y-129566251D02*
X75787594Y-129451965D01*
X75787594Y-129451965D02*
X75673308Y-129394822D01*
X71511403Y-123641680D02*
X71478070Y-123608346D01*
X71478070Y-123608346D02*
X71411403Y-123575013D01*
X71411403Y-123575013D02*
X71244737Y-123575013D01*
X71244737Y-123575013D02*
X71178070Y-123608346D01*
X71178070Y-123608346D02*
X71144737Y-123641680D01*
X71144737Y-123641680D02*
X71111403Y-123708346D01*
X71111403Y-123708346D02*
X71111403Y-123775013D01*
X71111403Y-123775013D02*
X71144737Y-123875013D01*
X71144737Y-123875013D02*
X71544737Y-124275013D01*
X71544737Y-124275013D02*
X71111403Y-124275013D01*
X70811403Y-124208346D02*
X70778070Y-124241680D01*
X70778070Y-124241680D02*
X70811403Y-124275013D01*
X70811403Y-124275013D02*
X70844736Y-124241680D01*
X70844736Y-124241680D02*
X70811403Y-124208346D01*
X70811403Y-124208346D02*
X70811403Y-124275013D01*
X70144737Y-123575013D02*
X70478070Y-123575013D01*
X70478070Y-123575013D02*
X70511403Y-123908346D01*
X70511403Y-123908346D02*
X70478070Y-123875013D01*
X70478070Y-123875013D02*
X70411403Y-123841680D01*
X70411403Y-123841680D02*
X70244737Y-123841680D01*
X70244737Y-123841680D02*
X70178070Y-123875013D01*
X70178070Y-123875013D02*
X70144737Y-123908346D01*
X70144737Y-123908346D02*
X70111403Y-123975013D01*
X70111403Y-123975013D02*
X70111403Y-124141680D01*
X70111403Y-124141680D02*
X70144737Y-124208346D01*
X70144737Y-124208346D02*
X70178070Y-124241680D01*
X70178070Y-124241680D02*
X70244737Y-124275013D01*
X70244737Y-124275013D02*
X70411403Y-124275013D01*
X70411403Y-124275013D02*
X70478070Y-124241680D01*
X70478070Y-124241680D02*
X70511403Y-124208346D01*
X69278070Y-124275013D02*
X69278070Y-123808346D01*
X69278070Y-123875013D02*
X69244737Y-123841680D01*
X69244737Y-123841680D02*
X69178070Y-123808346D01*
X69178070Y-123808346D02*
X69078070Y-123808346D01*
X69078070Y-123808346D02*
X69011403Y-123841680D01*
X69011403Y-123841680D02*
X68978070Y-123908346D01*
X68978070Y-123908346D02*
X68978070Y-124275013D01*
X68978070Y-123908346D02*
X68944737Y-123841680D01*
X68944737Y-123841680D02*
X68878070Y-123808346D01*
X68878070Y-123808346D02*
X68778070Y-123808346D01*
X68778070Y-123808346D02*
X68711403Y-123841680D01*
X68711403Y-123841680D02*
X68678070Y-123908346D01*
X68678070Y-123908346D02*
X68678070Y-124275013D01*
X68344737Y-124275013D02*
X68344737Y-123808346D01*
X68344737Y-123875013D02*
X68311404Y-123841680D01*
X68311404Y-123841680D02*
X68244737Y-123808346D01*
X68244737Y-123808346D02*
X68144737Y-123808346D01*
X68144737Y-123808346D02*
X68078070Y-123841680D01*
X68078070Y-123841680D02*
X68044737Y-123908346D01*
X68044737Y-123908346D02*
X68044737Y-124275013D01*
X68044737Y-123908346D02*
X68011404Y-123841680D01*
X68011404Y-123841680D02*
X67944737Y-123808346D01*
X67944737Y-123808346D02*
X67844737Y-123808346D01*
X67844737Y-123808346D02*
X67778070Y-123841680D01*
X67778070Y-123841680D02*
X67744737Y-123908346D01*
X67744737Y-123908346D02*
X67744737Y-124275013D01*
X71578070Y-124702013D02*
X71178070Y-124702013D01*
X71378070Y-125402013D02*
X71378070Y-124702013D01*
X70944737Y-125335346D02*
X70911404Y-125368680D01*
X70911404Y-125368680D02*
X70944737Y-125402013D01*
X70944737Y-125402013D02*
X70978070Y-125368680D01*
X70978070Y-125368680D02*
X70944737Y-125335346D01*
X70944737Y-125335346D02*
X70944737Y-125402013D01*
X70944737Y-124968680D02*
X70911404Y-125002013D01*
X70911404Y-125002013D02*
X70944737Y-125035346D01*
X70944737Y-125035346D02*
X70978070Y-125002013D01*
X70978070Y-125002013D02*
X70944737Y-124968680D01*
X70944737Y-124968680D02*
X70944737Y-125035346D01*
X70644737Y-125368680D02*
X70544737Y-125402013D01*
X70544737Y-125402013D02*
X70378071Y-125402013D01*
X70378071Y-125402013D02*
X70311404Y-125368680D01*
X70311404Y-125368680D02*
X70278071Y-125335346D01*
X70278071Y-125335346D02*
X70244737Y-125268680D01*
X70244737Y-125268680D02*
X70244737Y-125202013D01*
X70244737Y-125202013D02*
X70278071Y-125135346D01*
X70278071Y-125135346D02*
X70311404Y-125102013D01*
X70311404Y-125102013D02*
X70378071Y-125068680D01*
X70378071Y-125068680D02*
X70511404Y-125035346D01*
X70511404Y-125035346D02*
X70578071Y-125002013D01*
X70578071Y-125002013D02*
X70611404Y-124968680D01*
X70611404Y-124968680D02*
X70644737Y-124902013D01*
X70644737Y-124902013D02*
X70644737Y-124835346D01*
X70644737Y-124835346D02*
X70611404Y-124768680D01*
X70611404Y-124768680D02*
X70578071Y-124735346D01*
X70578071Y-124735346D02*
X70511404Y-124702013D01*
X70511404Y-124702013D02*
X70344737Y-124702013D01*
X70344737Y-124702013D02*
X70244737Y-124735346D01*
X69944737Y-125402013D02*
X69944737Y-124702013D01*
X69944737Y-124702013D02*
X69678070Y-124702013D01*
X69678070Y-124702013D02*
X69611404Y-124735346D01*
X69611404Y-124735346D02*
X69578070Y-124768680D01*
X69578070Y-124768680D02*
X69544737Y-124835346D01*
X69544737Y-124835346D02*
X69544737Y-124935346D01*
X69544737Y-124935346D02*
X69578070Y-125002013D01*
X69578070Y-125002013D02*
X69611404Y-125035346D01*
X69611404Y-125035346D02*
X69678070Y-125068680D01*
X69678070Y-125068680D02*
X69944737Y-125068680D01*
X69244737Y-125402013D02*
X69244737Y-124702013D01*
X68844737Y-125402013D02*
X69144737Y-125002013D01*
X68844737Y-124702013D02*
X69244737Y-125102013D01*
X71078070Y-126529013D02*
X71311403Y-126195680D01*
X71478070Y-126529013D02*
X71478070Y-125829013D01*
X71478070Y-125829013D02*
X71211403Y-125829013D01*
X71211403Y-125829013D02*
X71144737Y-125862346D01*
X71144737Y-125862346D02*
X71111403Y-125895680D01*
X71111403Y-125895680D02*
X71078070Y-125962346D01*
X71078070Y-125962346D02*
X71078070Y-126062346D01*
X71078070Y-126062346D02*
X71111403Y-126129013D01*
X71111403Y-126129013D02*
X71144737Y-126162346D01*
X71144737Y-126162346D02*
X71211403Y-126195680D01*
X71211403Y-126195680D02*
X71478070Y-126195680D01*
X70778070Y-126462346D02*
X70744737Y-126495680D01*
X70744737Y-126495680D02*
X70778070Y-126529013D01*
X70778070Y-126529013D02*
X70811403Y-126495680D01*
X70811403Y-126495680D02*
X70778070Y-126462346D01*
X70778070Y-126462346D02*
X70778070Y-126529013D01*
X70778070Y-126095680D02*
X70744737Y-126129013D01*
X70744737Y-126129013D02*
X70778070Y-126162346D01*
X70778070Y-126162346D02*
X70811403Y-126129013D01*
X70811403Y-126129013D02*
X70778070Y-126095680D01*
X70778070Y-126095680D02*
X70778070Y-126162346D01*
X70444737Y-126529013D02*
X70444737Y-125829013D01*
X70444737Y-125829013D02*
X70178070Y-125829013D01*
X70178070Y-125829013D02*
X70111404Y-125862346D01*
X70111404Y-125862346D02*
X70078070Y-125895680D01*
X70078070Y-125895680D02*
X70044737Y-125962346D01*
X70044737Y-125962346D02*
X70044737Y-126062346D01*
X70044737Y-126062346D02*
X70078070Y-126129013D01*
X70078070Y-126129013D02*
X70111404Y-126162346D01*
X70111404Y-126162346D02*
X70178070Y-126195680D01*
X70178070Y-126195680D02*
X70444737Y-126195680D01*
X69844737Y-125829013D02*
X69444737Y-125829013D01*
X69644737Y-126529013D02*
X69644737Y-125829013D01*
X69311404Y-125829013D02*
X68911404Y-125829013D01*
X69111404Y-126529013D02*
X69111404Y-125829013D01*
X71511403Y-127622680D02*
X71411403Y-127656013D01*
X71411403Y-127656013D02*
X71244737Y-127656013D01*
X71244737Y-127656013D02*
X71178070Y-127622680D01*
X71178070Y-127622680D02*
X71144737Y-127589346D01*
X71144737Y-127589346D02*
X71111403Y-127522680D01*
X71111403Y-127522680D02*
X71111403Y-127456013D01*
X71111403Y-127456013D02*
X71144737Y-127389346D01*
X71144737Y-127389346D02*
X71178070Y-127356013D01*
X71178070Y-127356013D02*
X71244737Y-127322680D01*
X71244737Y-127322680D02*
X71378070Y-127289346D01*
X71378070Y-127289346D02*
X71444737Y-127256013D01*
X71444737Y-127256013D02*
X71478070Y-127222680D01*
X71478070Y-127222680D02*
X71511403Y-127156013D01*
X71511403Y-127156013D02*
X71511403Y-127089346D01*
X71511403Y-127089346D02*
X71478070Y-127022680D01*
X71478070Y-127022680D02*
X71444737Y-126989346D01*
X71444737Y-126989346D02*
X71378070Y-126956013D01*
X71378070Y-126956013D02*
X71211403Y-126956013D01*
X71211403Y-126956013D02*
X71111403Y-126989346D01*
X70811403Y-127589346D02*
X70778070Y-127622680D01*
X70778070Y-127622680D02*
X70811403Y-127656013D01*
X70811403Y-127656013D02*
X70844736Y-127622680D01*
X70844736Y-127622680D02*
X70811403Y-127589346D01*
X70811403Y-127589346D02*
X70811403Y-127656013D01*
X70811403Y-127222680D02*
X70778070Y-127256013D01*
X70778070Y-127256013D02*
X70811403Y-127289346D01*
X70811403Y-127289346D02*
X70844736Y-127256013D01*
X70844736Y-127256013D02*
X70811403Y-127222680D01*
X70811403Y-127222680D02*
X70811403Y-127289346D01*
X70511403Y-127622680D02*
X70411403Y-127656013D01*
X70411403Y-127656013D02*
X70244737Y-127656013D01*
X70244737Y-127656013D02*
X70178070Y-127622680D01*
X70178070Y-127622680D02*
X70144737Y-127589346D01*
X70144737Y-127589346D02*
X70111403Y-127522680D01*
X70111403Y-127522680D02*
X70111403Y-127456013D01*
X70111403Y-127456013D02*
X70144737Y-127389346D01*
X70144737Y-127389346D02*
X70178070Y-127356013D01*
X70178070Y-127356013D02*
X70244737Y-127322680D01*
X70244737Y-127322680D02*
X70378070Y-127289346D01*
X70378070Y-127289346D02*
X70444737Y-127256013D01*
X70444737Y-127256013D02*
X70478070Y-127222680D01*
X70478070Y-127222680D02*
X70511403Y-127156013D01*
X70511403Y-127156013D02*
X70511403Y-127089346D01*
X70511403Y-127089346D02*
X70478070Y-127022680D01*
X70478070Y-127022680D02*
X70444737Y-126989346D01*
X70444737Y-126989346D02*
X70378070Y-126956013D01*
X70378070Y-126956013D02*
X70211403Y-126956013D01*
X70211403Y-126956013D02*
X70111403Y-126989346D01*
X69811403Y-127656013D02*
X69811403Y-126956013D01*
X69811403Y-126956013D02*
X69544736Y-126956013D01*
X69544736Y-126956013D02*
X69478070Y-126989346D01*
X69478070Y-126989346D02*
X69444736Y-127022680D01*
X69444736Y-127022680D02*
X69411403Y-127089346D01*
X69411403Y-127089346D02*
X69411403Y-127189346D01*
X69411403Y-127189346D02*
X69444736Y-127256013D01*
X69444736Y-127256013D02*
X69478070Y-127289346D01*
X69478070Y-127289346D02*
X69544736Y-127322680D01*
X69544736Y-127322680D02*
X69811403Y-127322680D01*
X69111403Y-127656013D02*
X69111403Y-126956013D01*
X68711403Y-127656013D02*
X69011403Y-127256013D01*
X68711403Y-126956013D02*
X69111403Y-127356013D01*
X93294737Y-123575013D02*
X92861403Y-123575013D01*
X92861403Y-123575013D02*
X93094737Y-123841680D01*
X93094737Y-123841680D02*
X92994737Y-123841680D01*
X92994737Y-123841680D02*
X92928070Y-123875013D01*
X92928070Y-123875013D02*
X92894737Y-123908346D01*
X92894737Y-123908346D02*
X92861403Y-123975013D01*
X92861403Y-123975013D02*
X92861403Y-124141680D01*
X92861403Y-124141680D02*
X92894737Y-124208346D01*
X92894737Y-124208346D02*
X92928070Y-124241680D01*
X92928070Y-124241680D02*
X92994737Y-124275013D01*
X92994737Y-124275013D02*
X93194737Y-124275013D01*
X93194737Y-124275013D02*
X93261403Y-124241680D01*
X93261403Y-124241680D02*
X93294737Y-124208346D01*
X92561403Y-124208346D02*
X92528070Y-124241680D01*
X92528070Y-124241680D02*
X92561403Y-124275013D01*
X92561403Y-124275013D02*
X92594736Y-124241680D01*
X92594736Y-124241680D02*
X92561403Y-124208346D01*
X92561403Y-124208346D02*
X92561403Y-124275013D01*
X91894737Y-123575013D02*
X92228070Y-123575013D01*
X92228070Y-123575013D02*
X92261403Y-123908346D01*
X92261403Y-123908346D02*
X92228070Y-123875013D01*
X92228070Y-123875013D02*
X92161403Y-123841680D01*
X92161403Y-123841680D02*
X91994737Y-123841680D01*
X91994737Y-123841680D02*
X91928070Y-123875013D01*
X91928070Y-123875013D02*
X91894737Y-123908346D01*
X91894737Y-123908346D02*
X91861403Y-123975013D01*
X91861403Y-123975013D02*
X91861403Y-124141680D01*
X91861403Y-124141680D02*
X91894737Y-124208346D01*
X91894737Y-124208346D02*
X91928070Y-124241680D01*
X91928070Y-124241680D02*
X91994737Y-124275013D01*
X91994737Y-124275013D02*
X92161403Y-124275013D01*
X92161403Y-124275013D02*
X92228070Y-124241680D01*
X92228070Y-124241680D02*
X92261403Y-124208346D01*
X91028070Y-124275013D02*
X91028070Y-123808346D01*
X91028070Y-123875013D02*
X90994737Y-123841680D01*
X90994737Y-123841680D02*
X90928070Y-123808346D01*
X90928070Y-123808346D02*
X90828070Y-123808346D01*
X90828070Y-123808346D02*
X90761403Y-123841680D01*
X90761403Y-123841680D02*
X90728070Y-123908346D01*
X90728070Y-123908346D02*
X90728070Y-124275013D01*
X90728070Y-123908346D02*
X90694737Y-123841680D01*
X90694737Y-123841680D02*
X90628070Y-123808346D01*
X90628070Y-123808346D02*
X90528070Y-123808346D01*
X90528070Y-123808346D02*
X90461403Y-123841680D01*
X90461403Y-123841680D02*
X90428070Y-123908346D01*
X90428070Y-123908346D02*
X90428070Y-124275013D01*
X90094737Y-124275013D02*
X90094737Y-123808346D01*
X90094737Y-123875013D02*
X90061404Y-123841680D01*
X90061404Y-123841680D02*
X89994737Y-123808346D01*
X89994737Y-123808346D02*
X89894737Y-123808346D01*
X89894737Y-123808346D02*
X89828070Y-123841680D01*
X89828070Y-123841680D02*
X89794737Y-123908346D01*
X89794737Y-123908346D02*
X89794737Y-124275013D01*
X89794737Y-123908346D02*
X89761404Y-123841680D01*
X89761404Y-123841680D02*
X89694737Y-123808346D01*
X89694737Y-123808346D02*
X89594737Y-123808346D01*
X89594737Y-123808346D02*
X89528070Y-123841680D01*
X89528070Y-123841680D02*
X89494737Y-123908346D01*
X89494737Y-123908346D02*
X89494737Y-124275013D01*
X93328070Y-124702013D02*
X92928070Y-124702013D01*
X93128070Y-125402013D02*
X93128070Y-124702013D01*
X92694737Y-125335346D02*
X92661404Y-125368680D01*
X92661404Y-125368680D02*
X92694737Y-125402013D01*
X92694737Y-125402013D02*
X92728070Y-125368680D01*
X92728070Y-125368680D02*
X92694737Y-125335346D01*
X92694737Y-125335346D02*
X92694737Y-125402013D01*
X92694737Y-124968680D02*
X92661404Y-125002013D01*
X92661404Y-125002013D02*
X92694737Y-125035346D01*
X92694737Y-125035346D02*
X92728070Y-125002013D01*
X92728070Y-125002013D02*
X92694737Y-124968680D01*
X92694737Y-124968680D02*
X92694737Y-125035346D01*
X92361404Y-125402013D02*
X92361404Y-124702013D01*
X92361404Y-124702013D02*
X92094737Y-124702013D01*
X92094737Y-124702013D02*
X92028071Y-124735346D01*
X92028071Y-124735346D02*
X91994737Y-124768680D01*
X91994737Y-124768680D02*
X91961404Y-124835346D01*
X91961404Y-124835346D02*
X91961404Y-124935346D01*
X91961404Y-124935346D02*
X91994737Y-125002013D01*
X91994737Y-125002013D02*
X92028071Y-125035346D01*
X92028071Y-125035346D02*
X92094737Y-125068680D01*
X92094737Y-125068680D02*
X92361404Y-125068680D01*
X91761404Y-124702013D02*
X91361404Y-124702013D01*
X91561404Y-125402013D02*
X91561404Y-124702013D01*
X91228071Y-124702013D02*
X90828071Y-124702013D01*
X91028071Y-125402013D02*
X91028071Y-124702013D01*
X92828070Y-126529013D02*
X93061403Y-126195680D01*
X93228070Y-126529013D02*
X93228070Y-125829013D01*
X93228070Y-125829013D02*
X92961403Y-125829013D01*
X92961403Y-125829013D02*
X92894737Y-125862346D01*
X92894737Y-125862346D02*
X92861403Y-125895680D01*
X92861403Y-125895680D02*
X92828070Y-125962346D01*
X92828070Y-125962346D02*
X92828070Y-126062346D01*
X92828070Y-126062346D02*
X92861403Y-126129013D01*
X92861403Y-126129013D02*
X92894737Y-126162346D01*
X92894737Y-126162346D02*
X92961403Y-126195680D01*
X92961403Y-126195680D02*
X93228070Y-126195680D01*
X92528070Y-126462346D02*
X92494737Y-126495680D01*
X92494737Y-126495680D02*
X92528070Y-126529013D01*
X92528070Y-126529013D02*
X92561403Y-126495680D01*
X92561403Y-126495680D02*
X92528070Y-126462346D01*
X92528070Y-126462346D02*
X92528070Y-126529013D01*
X92528070Y-126095680D02*
X92494737Y-126129013D01*
X92494737Y-126129013D02*
X92528070Y-126162346D01*
X92528070Y-126162346D02*
X92561403Y-126129013D01*
X92561403Y-126129013D02*
X92528070Y-126095680D01*
X92528070Y-126095680D02*
X92528070Y-126162346D01*
X92194737Y-126529013D02*
X92194737Y-125829013D01*
X92194737Y-125829013D02*
X91961404Y-126329013D01*
X91961404Y-126329013D02*
X91728070Y-125829013D01*
X91728070Y-125829013D02*
X91728070Y-126529013D01*
X91394737Y-126529013D02*
X91394737Y-125829013D01*
X90661404Y-126462346D02*
X90694737Y-126495680D01*
X90694737Y-126495680D02*
X90794737Y-126529013D01*
X90794737Y-126529013D02*
X90861404Y-126529013D01*
X90861404Y-126529013D02*
X90961404Y-126495680D01*
X90961404Y-126495680D02*
X91028071Y-126429013D01*
X91028071Y-126429013D02*
X91061404Y-126362346D01*
X91061404Y-126362346D02*
X91094737Y-126229013D01*
X91094737Y-126229013D02*
X91094737Y-126129013D01*
X91094737Y-126129013D02*
X91061404Y-125995680D01*
X91061404Y-125995680D02*
X91028071Y-125929013D01*
X91028071Y-125929013D02*
X90961404Y-125862346D01*
X90961404Y-125862346D02*
X90861404Y-125829013D01*
X90861404Y-125829013D02*
X90794737Y-125829013D01*
X90794737Y-125829013D02*
X90694737Y-125862346D01*
X90694737Y-125862346D02*
X90661404Y-125895680D01*
X93261403Y-127622680D02*
X93161403Y-127656013D01*
X93161403Y-127656013D02*
X92994737Y-127656013D01*
X92994737Y-127656013D02*
X92928070Y-127622680D01*
X92928070Y-127622680D02*
X92894737Y-127589346D01*
X92894737Y-127589346D02*
X92861403Y-127522680D01*
X92861403Y-127522680D02*
X92861403Y-127456013D01*
X92861403Y-127456013D02*
X92894737Y-127389346D01*
X92894737Y-127389346D02*
X92928070Y-127356013D01*
X92928070Y-127356013D02*
X92994737Y-127322680D01*
X92994737Y-127322680D02*
X93128070Y-127289346D01*
X93128070Y-127289346D02*
X93194737Y-127256013D01*
X93194737Y-127256013D02*
X93228070Y-127222680D01*
X93228070Y-127222680D02*
X93261403Y-127156013D01*
X93261403Y-127156013D02*
X93261403Y-127089346D01*
X93261403Y-127089346D02*
X93228070Y-127022680D01*
X93228070Y-127022680D02*
X93194737Y-126989346D01*
X93194737Y-126989346D02*
X93128070Y-126956013D01*
X93128070Y-126956013D02*
X92961403Y-126956013D01*
X92961403Y-126956013D02*
X92861403Y-126989346D01*
X92561403Y-127589346D02*
X92528070Y-127622680D01*
X92528070Y-127622680D02*
X92561403Y-127656013D01*
X92561403Y-127656013D02*
X92594736Y-127622680D01*
X92594736Y-127622680D02*
X92561403Y-127589346D01*
X92561403Y-127589346D02*
X92561403Y-127656013D01*
X92561403Y-127222680D02*
X92528070Y-127256013D01*
X92528070Y-127256013D02*
X92561403Y-127289346D01*
X92561403Y-127289346D02*
X92594736Y-127256013D01*
X92594736Y-127256013D02*
X92561403Y-127222680D01*
X92561403Y-127222680D02*
X92561403Y-127289346D01*
X92228070Y-127656013D02*
X92228070Y-126956013D01*
X92228070Y-126956013D02*
X91994737Y-127456013D01*
X91994737Y-127456013D02*
X91761403Y-126956013D01*
X91761403Y-126956013D02*
X91761403Y-127656013D01*
X91428070Y-127656013D02*
X91428070Y-126956013D01*
X90694737Y-127589346D02*
X90728070Y-127622680D01*
X90728070Y-127622680D02*
X90828070Y-127656013D01*
X90828070Y-127656013D02*
X90894737Y-127656013D01*
X90894737Y-127656013D02*
X90994737Y-127622680D01*
X90994737Y-127622680D02*
X91061404Y-127556013D01*
X91061404Y-127556013D02*
X91094737Y-127489346D01*
X91094737Y-127489346D02*
X91128070Y-127356013D01*
X91128070Y-127356013D02*
X91128070Y-127256013D01*
X91128070Y-127256013D02*
X91094737Y-127122680D01*
X91094737Y-127122680D02*
X91061404Y-127056013D01*
X91061404Y-127056013D02*
X90994737Y-126989346D01*
X90994737Y-126989346D02*
X90894737Y-126956013D01*
X90894737Y-126956013D02*
X90828070Y-126956013D01*
X90828070Y-126956013D02*
X90728070Y-126989346D01*
X90728070Y-126989346D02*
X90694737Y-127022680D01*
X86728070Y-132406013D02*
X86728070Y-131706013D01*
X86428070Y-132372680D02*
X86328070Y-132406013D01*
X86328070Y-132406013D02*
X86161404Y-132406013D01*
X86161404Y-132406013D02*
X86094737Y-132372680D01*
X86094737Y-132372680D02*
X86061404Y-132339346D01*
X86061404Y-132339346D02*
X86028070Y-132272680D01*
X86028070Y-132272680D02*
X86028070Y-132206013D01*
X86028070Y-132206013D02*
X86061404Y-132139346D01*
X86061404Y-132139346D02*
X86094737Y-132106013D01*
X86094737Y-132106013D02*
X86161404Y-132072680D01*
X86161404Y-132072680D02*
X86294737Y-132039346D01*
X86294737Y-132039346D02*
X86361404Y-132006013D01*
X86361404Y-132006013D02*
X86394737Y-131972680D01*
X86394737Y-131972680D02*
X86428070Y-131906013D01*
X86428070Y-131906013D02*
X86428070Y-131839346D01*
X86428070Y-131839346D02*
X86394737Y-131772680D01*
X86394737Y-131772680D02*
X86361404Y-131739346D01*
X86361404Y-131739346D02*
X86294737Y-131706013D01*
X86294737Y-131706013D02*
X86128070Y-131706013D01*
X86128070Y-131706013D02*
X86028070Y-131739346D01*
X85594737Y-131706013D02*
X85461403Y-131706013D01*
X85461403Y-131706013D02*
X85394737Y-131739346D01*
X85394737Y-131739346D02*
X85328070Y-131806013D01*
X85328070Y-131806013D02*
X85294737Y-131939346D01*
X85294737Y-131939346D02*
X85294737Y-132172680D01*
X85294737Y-132172680D02*
X85328070Y-132306013D01*
X85328070Y-132306013D02*
X85394737Y-132372680D01*
X85394737Y-132372680D02*
X85461403Y-132406013D01*
X85461403Y-132406013D02*
X85594737Y-132406013D01*
X85594737Y-132406013D02*
X85661403Y-132372680D01*
X85661403Y-132372680D02*
X85728070Y-132306013D01*
X85728070Y-132306013D02*
X85761403Y-132172680D01*
X85761403Y-132172680D02*
X85761403Y-131939346D01*
X85761403Y-131939346D02*
X85728070Y-131806013D01*
X85728070Y-131806013D02*
X85661403Y-131739346D01*
X85661403Y-131739346D02*
X85594737Y-131706013D01*
X84661404Y-132406013D02*
X84994737Y-132406013D01*
X84994737Y-132406013D02*
X84994737Y-131706013D01*
X84461403Y-132206013D02*
X84128070Y-132206013D01*
X84528070Y-132406013D02*
X84294737Y-131706013D01*
X84294737Y-131706013D02*
X84061403Y-132406013D01*
X83928070Y-131706013D02*
X83528070Y-131706013D01*
X83728070Y-132406013D02*
X83728070Y-131706013D01*
X83294737Y-132039346D02*
X83061404Y-132039346D01*
X82961404Y-132406013D02*
X83294737Y-132406013D01*
X83294737Y-132406013D02*
X83294737Y-131706013D01*
X83294737Y-131706013D02*
X82961404Y-131706013D01*
X82661404Y-132406013D02*
X82661404Y-131706013D01*
X82661404Y-131706013D02*
X82494737Y-131706013D01*
X82494737Y-131706013D02*
X82394737Y-131739346D01*
X82394737Y-131739346D02*
X82328071Y-131806013D01*
X82328071Y-131806013D02*
X82294737Y-131872680D01*
X82294737Y-131872680D02*
X82261404Y-132006013D01*
X82261404Y-132006013D02*
X82261404Y-132106013D01*
X82261404Y-132106013D02*
X82294737Y-132239346D01*
X82294737Y-132239346D02*
X82328071Y-132306013D01*
X82328071Y-132306013D02*
X82394737Y-132372680D01*
X82394737Y-132372680D02*
X82494737Y-132406013D01*
X82494737Y-132406013D02*
X82661404Y-132406013D01*
X81428071Y-132406013D02*
X81428071Y-131706013D01*
X81428071Y-132039346D02*
X81028071Y-132039346D01*
X81028071Y-132406013D02*
X81028071Y-131706013D01*
X80728071Y-132206013D02*
X80394738Y-132206013D01*
X80794738Y-132406013D02*
X80561405Y-131706013D01*
X80561405Y-131706013D02*
X80328071Y-132406013D01*
X80094738Y-132406013D02*
X80094738Y-131706013D01*
X80094738Y-131706013D02*
X79861405Y-132206013D01*
X79861405Y-132206013D02*
X79628071Y-131706013D01*
X79628071Y-131706013D02*
X79628071Y-132406013D01*
X78361405Y-132406013D02*
X78594738Y-132072680D01*
X78761405Y-132406013D02*
X78761405Y-131706013D01*
X78761405Y-131706013D02*
X78494738Y-131706013D01*
X78494738Y-131706013D02*
X78428072Y-131739346D01*
X78428072Y-131739346D02*
X78394738Y-131772680D01*
X78394738Y-131772680D02*
X78361405Y-131839346D01*
X78361405Y-131839346D02*
X78361405Y-131939346D01*
X78361405Y-131939346D02*
X78394738Y-132006013D01*
X78394738Y-132006013D02*
X78428072Y-132039346D01*
X78428072Y-132039346D02*
X78494738Y-132072680D01*
X78494738Y-132072680D02*
X78761405Y-132072680D01*
X78094738Y-132206013D02*
X77761405Y-132206013D01*
X78161405Y-132406013D02*
X77928072Y-131706013D01*
X77928072Y-131706013D02*
X77694738Y-132406013D01*
X77461405Y-132406013D02*
X77461405Y-131706013D01*
X77461405Y-131706013D02*
X77294738Y-131706013D01*
X77294738Y-131706013D02*
X77194738Y-131739346D01*
X77194738Y-131739346D02*
X77128072Y-131806013D01*
X77128072Y-131806013D02*
X77094738Y-131872680D01*
X77094738Y-131872680D02*
X77061405Y-132006013D01*
X77061405Y-132006013D02*
X77061405Y-132106013D01*
X77061405Y-132106013D02*
X77094738Y-132239346D01*
X77094738Y-132239346D02*
X77128072Y-132306013D01*
X77128072Y-132306013D02*
X77194738Y-132372680D01*
X77194738Y-132372680D02*
X77294738Y-132406013D01*
X77294738Y-132406013D02*
X77461405Y-132406013D01*
X76761405Y-132406013D02*
X76761405Y-131706013D01*
X76294739Y-131706013D02*
X76161405Y-131706013D01*
X76161405Y-131706013D02*
X76094739Y-131739346D01*
X76094739Y-131739346D02*
X76028072Y-131806013D01*
X76028072Y-131806013D02*
X75994739Y-131939346D01*
X75994739Y-131939346D02*
X75994739Y-132172680D01*
X75994739Y-132172680D02*
X76028072Y-132306013D01*
X76028072Y-132306013D02*
X76094739Y-132372680D01*
X76094739Y-132372680D02*
X76161405Y-132406013D01*
X76161405Y-132406013D02*
X76294739Y-132406013D01*
X76294739Y-132406013D02*
X76361405Y-132372680D01*
X76361405Y-132372680D02*
X76428072Y-132306013D01*
X76428072Y-132306013D02*
X76461405Y-132172680D01*
X76461405Y-132172680D02*
X76461405Y-131939346D01*
X76461405Y-131939346D02*
X76428072Y-131806013D01*
X76428072Y-131806013D02*
X76361405Y-131739346D01*
X76361405Y-131739346D02*
X76294739Y-131706013D01*
X75161406Y-132406013D02*
X75161406Y-131706013D01*
X74828073Y-132406013D02*
X74828073Y-131706013D01*
X74828073Y-131706013D02*
X74428073Y-132406013D01*
X74428073Y-132406013D02*
X74428073Y-131706013D01*
X74194740Y-131706013D02*
X73794740Y-131706013D01*
X73994740Y-132406013D02*
X73994740Y-131706013D01*
X73561407Y-132039346D02*
X73328074Y-132039346D01*
X73228074Y-132406013D02*
X73561407Y-132406013D01*
X73561407Y-132406013D02*
X73561407Y-131706013D01*
X73561407Y-131706013D02*
X73228074Y-131706013D01*
X72528074Y-132406013D02*
X72761407Y-132072680D01*
X72928074Y-132406013D02*
X72928074Y-131706013D01*
X72928074Y-131706013D02*
X72661407Y-131706013D01*
X72661407Y-131706013D02*
X72594741Y-131739346D01*
X72594741Y-131739346D02*
X72561407Y-131772680D01*
X72561407Y-131772680D02*
X72528074Y-131839346D01*
X72528074Y-131839346D02*
X72528074Y-131939346D01*
X72528074Y-131939346D02*
X72561407Y-132006013D01*
X72561407Y-132006013D02*
X72594741Y-132039346D01*
X72594741Y-132039346D02*
X72661407Y-132072680D01*
X72661407Y-132072680D02*
X72928074Y-132072680D01*
X71994741Y-132039346D02*
X72228074Y-132039346D01*
X72228074Y-132406013D02*
X72228074Y-131706013D01*
X72228074Y-131706013D02*
X71894741Y-131706013D01*
X71661407Y-132206013D02*
X71328074Y-132206013D01*
X71728074Y-132406013D02*
X71494741Y-131706013D01*
X71494741Y-131706013D02*
X71261407Y-132406013D01*
X70628074Y-132339346D02*
X70661407Y-132372680D01*
X70661407Y-132372680D02*
X70761407Y-132406013D01*
X70761407Y-132406013D02*
X70828074Y-132406013D01*
X70828074Y-132406013D02*
X70928074Y-132372680D01*
X70928074Y-132372680D02*
X70994741Y-132306013D01*
X70994741Y-132306013D02*
X71028074Y-132239346D01*
X71028074Y-132239346D02*
X71061407Y-132106013D01*
X71061407Y-132106013D02*
X71061407Y-132006013D01*
X71061407Y-132006013D02*
X71028074Y-131872680D01*
X71028074Y-131872680D02*
X70994741Y-131806013D01*
X70994741Y-131806013D02*
X70928074Y-131739346D01*
X70928074Y-131739346D02*
X70828074Y-131706013D01*
X70828074Y-131706013D02*
X70761407Y-131706013D01*
X70761407Y-131706013D02*
X70661407Y-131739346D01*
X70661407Y-131739346D02*
X70628074Y-131772680D01*
X70328074Y-132039346D02*
X70094741Y-132039346D01*
X69994741Y-132406013D02*
X70328074Y-132406013D01*
X70328074Y-132406013D02*
X70328074Y-131706013D01*
X70328074Y-131706013D02*
X69994741Y-131706013D01*
X100228070Y-89906013D02*
X100228070Y-89206013D01*
X100228070Y-89206013D02*
X99994737Y-89706013D01*
X99994737Y-89706013D02*
X99761403Y-89206013D01*
X99761403Y-89206013D02*
X99761403Y-89906013D01*
X99428070Y-89906013D02*
X99428070Y-89206013D01*
X98694737Y-89839346D02*
X98728070Y-89872680D01*
X98728070Y-89872680D02*
X98828070Y-89906013D01*
X98828070Y-89906013D02*
X98894737Y-89906013D01*
X98894737Y-89906013D02*
X98994737Y-89872680D01*
X98994737Y-89872680D02*
X99061404Y-89806013D01*
X99061404Y-89806013D02*
X99094737Y-89739346D01*
X99094737Y-89739346D02*
X99128070Y-89606013D01*
X99128070Y-89606013D02*
X99128070Y-89506013D01*
X99128070Y-89506013D02*
X99094737Y-89372680D01*
X99094737Y-89372680D02*
X99061404Y-89306013D01*
X99061404Y-89306013D02*
X98994737Y-89239346D01*
X98994737Y-89239346D02*
X98894737Y-89206013D01*
X98894737Y-89206013D02*
X98828070Y-89206013D01*
X98828070Y-89206013D02*
X98728070Y-89239346D01*
X98728070Y-89239346D02*
X98694737Y-89272680D01*
X97961404Y-89206013D02*
X97728071Y-89906013D01*
X97728071Y-89906013D02*
X97494737Y-89206013D01*
X97128071Y-89206013D02*
X96994737Y-89206013D01*
X96994737Y-89206013D02*
X96928071Y-89239346D01*
X96928071Y-89239346D02*
X96861404Y-89306013D01*
X96861404Y-89306013D02*
X96828071Y-89439346D01*
X96828071Y-89439346D02*
X96828071Y-89672680D01*
X96828071Y-89672680D02*
X96861404Y-89806013D01*
X96861404Y-89806013D02*
X96928071Y-89872680D01*
X96928071Y-89872680D02*
X96994737Y-89906013D01*
X96994737Y-89906013D02*
X97128071Y-89906013D01*
X97128071Y-89906013D02*
X97194737Y-89872680D01*
X97194737Y-89872680D02*
X97261404Y-89806013D01*
X97261404Y-89806013D02*
X97294737Y-89672680D01*
X97294737Y-89672680D02*
X97294737Y-89439346D01*
X97294737Y-89439346D02*
X97261404Y-89306013D01*
X97261404Y-89306013D02*
X97194737Y-89239346D01*
X97194737Y-89239346D02*
X97128071Y-89206013D01*
X96194738Y-89906013D02*
X96528071Y-89906013D01*
X96528071Y-89906013D02*
X96528071Y-89206013D01*
X67011403Y-89872680D02*
X66911403Y-89906013D01*
X66911403Y-89906013D02*
X66744737Y-89906013D01*
X66744737Y-89906013D02*
X66678070Y-89872680D01*
X66678070Y-89872680D02*
X66644737Y-89839346D01*
X66644737Y-89839346D02*
X66611403Y-89772680D01*
X66611403Y-89772680D02*
X66611403Y-89706013D01*
X66611403Y-89706013D02*
X66644737Y-89639346D01*
X66644737Y-89639346D02*
X66678070Y-89606013D01*
X66678070Y-89606013D02*
X66744737Y-89572680D01*
X66744737Y-89572680D02*
X66878070Y-89539346D01*
X66878070Y-89539346D02*
X66944737Y-89506013D01*
X66944737Y-89506013D02*
X66978070Y-89472680D01*
X66978070Y-89472680D02*
X67011403Y-89406013D01*
X67011403Y-89406013D02*
X67011403Y-89339346D01*
X67011403Y-89339346D02*
X66978070Y-89272680D01*
X66978070Y-89272680D02*
X66944737Y-89239346D01*
X66944737Y-89239346D02*
X66878070Y-89206013D01*
X66878070Y-89206013D02*
X66711403Y-89206013D01*
X66711403Y-89206013D02*
X66611403Y-89239346D01*
X66311403Y-89906013D02*
X66311403Y-89206013D01*
X66311403Y-89206013D02*
X66044736Y-89206013D01*
X66044736Y-89206013D02*
X65978070Y-89239346D01*
X65978070Y-89239346D02*
X65944736Y-89272680D01*
X65944736Y-89272680D02*
X65911403Y-89339346D01*
X65911403Y-89339346D02*
X65911403Y-89439346D01*
X65911403Y-89439346D02*
X65944736Y-89506013D01*
X65944736Y-89506013D02*
X65978070Y-89539346D01*
X65978070Y-89539346D02*
X66044736Y-89572680D01*
X66044736Y-89572680D02*
X66311403Y-89572680D01*
X65611403Y-89906013D02*
X65611403Y-89206013D01*
X65211403Y-89906013D02*
X65511403Y-89506013D01*
X65211403Y-89206013D02*
X65611403Y-89606013D01*
X64478070Y-89206013D02*
X64244737Y-89906013D01*
X64244737Y-89906013D02*
X64011403Y-89206013D01*
X63644737Y-89206013D02*
X63511403Y-89206013D01*
X63511403Y-89206013D02*
X63444737Y-89239346D01*
X63444737Y-89239346D02*
X63378070Y-89306013D01*
X63378070Y-89306013D02*
X63344737Y-89439346D01*
X63344737Y-89439346D02*
X63344737Y-89672680D01*
X63344737Y-89672680D02*
X63378070Y-89806013D01*
X63378070Y-89806013D02*
X63444737Y-89872680D01*
X63444737Y-89872680D02*
X63511403Y-89906013D01*
X63511403Y-89906013D02*
X63644737Y-89906013D01*
X63644737Y-89906013D02*
X63711403Y-89872680D01*
X63711403Y-89872680D02*
X63778070Y-89806013D01*
X63778070Y-89806013D02*
X63811403Y-89672680D01*
X63811403Y-89672680D02*
X63811403Y-89439346D01*
X63811403Y-89439346D02*
X63778070Y-89306013D01*
X63778070Y-89306013D02*
X63711403Y-89239346D01*
X63711403Y-89239346D02*
X63644737Y-89206013D01*
X62711404Y-89906013D02*
X63044737Y-89906013D01*
X63044737Y-89906013D02*
X63044737Y-89206013D01*
X124173308Y-85594822D02*
X124573308Y-85023394D01*
X124859022Y-85594822D02*
X124859022Y-84394822D01*
X124859022Y-84394822D02*
X124401879Y-84394822D01*
X124401879Y-84394822D02*
X124287594Y-84451965D01*
X124287594Y-84451965D02*
X124230451Y-84509108D01*
X124230451Y-84509108D02*
X124173308Y-84623394D01*
X124173308Y-84623394D02*
X124173308Y-84794822D01*
X124173308Y-84794822D02*
X124230451Y-84909108D01*
X124230451Y-84909108D02*
X124287594Y-84966251D01*
X124287594Y-84966251D02*
X124401879Y-85023394D01*
X124401879Y-85023394D02*
X124859022Y-85023394D01*
X123659022Y-85594822D02*
X123659022Y-84394822D01*
X122459022Y-84451965D02*
X122573308Y-84394822D01*
X122573308Y-84394822D02*
X122744736Y-84394822D01*
X122744736Y-84394822D02*
X122916165Y-84451965D01*
X122916165Y-84451965D02*
X123030450Y-84566251D01*
X123030450Y-84566251D02*
X123087593Y-84680537D01*
X123087593Y-84680537D02*
X123144736Y-84909108D01*
X123144736Y-84909108D02*
X123144736Y-85080537D01*
X123144736Y-85080537D02*
X123087593Y-85309108D01*
X123087593Y-85309108D02*
X123030450Y-85423394D01*
X123030450Y-85423394D02*
X122916165Y-85537680D01*
X122916165Y-85537680D02*
X122744736Y-85594822D01*
X122744736Y-85594822D02*
X122630450Y-85594822D01*
X122630450Y-85594822D02*
X122459022Y-85537680D01*
X122459022Y-85537680D02*
X122401879Y-85480537D01*
X122401879Y-85480537D02*
X122401879Y-85080537D01*
X122401879Y-85080537D02*
X122630450Y-85080537D01*
X121887593Y-85594822D02*
X121887593Y-84394822D01*
X121887593Y-84394822D02*
X121201879Y-85594822D01*
X121201879Y-85594822D02*
X121201879Y-84394822D01*
X120630450Y-84966251D02*
X120230450Y-84966251D01*
X120059022Y-85594822D02*
X120630450Y-85594822D01*
X120630450Y-85594822D02*
X120630450Y-84394822D01*
X120630450Y-84394822D02*
X120059022Y-84394822D01*
X119659022Y-84394822D02*
X118859022Y-85594822D01*
X118859022Y-84394822D02*
X119659022Y-85594822D01*
X118173308Y-84394822D02*
X117944736Y-84394822D01*
X117944736Y-84394822D02*
X117830451Y-84451965D01*
X117830451Y-84451965D02*
X117716165Y-84566251D01*
X117716165Y-84566251D02*
X117659022Y-84794822D01*
X117659022Y-84794822D02*
X117659022Y-85194822D01*
X117659022Y-85194822D02*
X117716165Y-85423394D01*
X117716165Y-85423394D02*
X117830451Y-85537680D01*
X117830451Y-85537680D02*
X117944736Y-85594822D01*
X117944736Y-85594822D02*
X118173308Y-85594822D01*
X118173308Y-85594822D02*
X118287594Y-85537680D01*
X118287594Y-85537680D02*
X118401879Y-85423394D01*
X118401879Y-85423394D02*
X118459022Y-85194822D01*
X118459022Y-85194822D02*
X118459022Y-84794822D01*
X118459022Y-84794822D02*
X118401879Y-84566251D01*
X118401879Y-84566251D02*
X118287594Y-84451965D01*
X118287594Y-84451965D02*
X118173308Y-84394822D01*
X114011403Y-78641680D02*
X113978070Y-78608346D01*
X113978070Y-78608346D02*
X113911403Y-78575013D01*
X113911403Y-78575013D02*
X113744737Y-78575013D01*
X113744737Y-78575013D02*
X113678070Y-78608346D01*
X113678070Y-78608346D02*
X113644737Y-78641680D01*
X113644737Y-78641680D02*
X113611403Y-78708346D01*
X113611403Y-78708346D02*
X113611403Y-78775013D01*
X113611403Y-78775013D02*
X113644737Y-78875013D01*
X113644737Y-78875013D02*
X114044737Y-79275013D01*
X114044737Y-79275013D02*
X113611403Y-79275013D01*
X113311403Y-79208346D02*
X113278070Y-79241680D01*
X113278070Y-79241680D02*
X113311403Y-79275013D01*
X113311403Y-79275013D02*
X113344736Y-79241680D01*
X113344736Y-79241680D02*
X113311403Y-79208346D01*
X113311403Y-79208346D02*
X113311403Y-79275013D01*
X112644737Y-78575013D02*
X112978070Y-78575013D01*
X112978070Y-78575013D02*
X113011403Y-78908346D01*
X113011403Y-78908346D02*
X112978070Y-78875013D01*
X112978070Y-78875013D02*
X112911403Y-78841680D01*
X112911403Y-78841680D02*
X112744737Y-78841680D01*
X112744737Y-78841680D02*
X112678070Y-78875013D01*
X112678070Y-78875013D02*
X112644737Y-78908346D01*
X112644737Y-78908346D02*
X112611403Y-78975013D01*
X112611403Y-78975013D02*
X112611403Y-79141680D01*
X112611403Y-79141680D02*
X112644737Y-79208346D01*
X112644737Y-79208346D02*
X112678070Y-79241680D01*
X112678070Y-79241680D02*
X112744737Y-79275013D01*
X112744737Y-79275013D02*
X112911403Y-79275013D01*
X112911403Y-79275013D02*
X112978070Y-79241680D01*
X112978070Y-79241680D02*
X113011403Y-79208346D01*
X111778070Y-79275013D02*
X111778070Y-78808346D01*
X111778070Y-78875013D02*
X111744737Y-78841680D01*
X111744737Y-78841680D02*
X111678070Y-78808346D01*
X111678070Y-78808346D02*
X111578070Y-78808346D01*
X111578070Y-78808346D02*
X111511403Y-78841680D01*
X111511403Y-78841680D02*
X111478070Y-78908346D01*
X111478070Y-78908346D02*
X111478070Y-79275013D01*
X111478070Y-78908346D02*
X111444737Y-78841680D01*
X111444737Y-78841680D02*
X111378070Y-78808346D01*
X111378070Y-78808346D02*
X111278070Y-78808346D01*
X111278070Y-78808346D02*
X111211403Y-78841680D01*
X111211403Y-78841680D02*
X111178070Y-78908346D01*
X111178070Y-78908346D02*
X111178070Y-79275013D01*
X110844737Y-79275013D02*
X110844737Y-78808346D01*
X110844737Y-78875013D02*
X110811404Y-78841680D01*
X110811404Y-78841680D02*
X110744737Y-78808346D01*
X110744737Y-78808346D02*
X110644737Y-78808346D01*
X110644737Y-78808346D02*
X110578070Y-78841680D01*
X110578070Y-78841680D02*
X110544737Y-78908346D01*
X110544737Y-78908346D02*
X110544737Y-79275013D01*
X110544737Y-78908346D02*
X110511404Y-78841680D01*
X110511404Y-78841680D02*
X110444737Y-78808346D01*
X110444737Y-78808346D02*
X110344737Y-78808346D01*
X110344737Y-78808346D02*
X110278070Y-78841680D01*
X110278070Y-78841680D02*
X110244737Y-78908346D01*
X110244737Y-78908346D02*
X110244737Y-79275013D01*
X114078070Y-79702013D02*
X113678070Y-79702013D01*
X113878070Y-80402013D02*
X113878070Y-79702013D01*
X113444737Y-80335346D02*
X113411404Y-80368680D01*
X113411404Y-80368680D02*
X113444737Y-80402013D01*
X113444737Y-80402013D02*
X113478070Y-80368680D01*
X113478070Y-80368680D02*
X113444737Y-80335346D01*
X113444737Y-80335346D02*
X113444737Y-80402013D01*
X113444737Y-79968680D02*
X113411404Y-80002013D01*
X113411404Y-80002013D02*
X113444737Y-80035346D01*
X113444737Y-80035346D02*
X113478070Y-80002013D01*
X113478070Y-80002013D02*
X113444737Y-79968680D01*
X113444737Y-79968680D02*
X113444737Y-80035346D01*
X113144737Y-80368680D02*
X113044737Y-80402013D01*
X113044737Y-80402013D02*
X112878071Y-80402013D01*
X112878071Y-80402013D02*
X112811404Y-80368680D01*
X112811404Y-80368680D02*
X112778071Y-80335346D01*
X112778071Y-80335346D02*
X112744737Y-80268680D01*
X112744737Y-80268680D02*
X112744737Y-80202013D01*
X112744737Y-80202013D02*
X112778071Y-80135346D01*
X112778071Y-80135346D02*
X112811404Y-80102013D01*
X112811404Y-80102013D02*
X112878071Y-80068680D01*
X112878071Y-80068680D02*
X113011404Y-80035346D01*
X113011404Y-80035346D02*
X113078071Y-80002013D01*
X113078071Y-80002013D02*
X113111404Y-79968680D01*
X113111404Y-79968680D02*
X113144737Y-79902013D01*
X113144737Y-79902013D02*
X113144737Y-79835346D01*
X113144737Y-79835346D02*
X113111404Y-79768680D01*
X113111404Y-79768680D02*
X113078071Y-79735346D01*
X113078071Y-79735346D02*
X113011404Y-79702013D01*
X113011404Y-79702013D02*
X112844737Y-79702013D01*
X112844737Y-79702013D02*
X112744737Y-79735346D01*
X112444737Y-80402013D02*
X112444737Y-79702013D01*
X112444737Y-79702013D02*
X112178070Y-79702013D01*
X112178070Y-79702013D02*
X112111404Y-79735346D01*
X112111404Y-79735346D02*
X112078070Y-79768680D01*
X112078070Y-79768680D02*
X112044737Y-79835346D01*
X112044737Y-79835346D02*
X112044737Y-79935346D01*
X112044737Y-79935346D02*
X112078070Y-80002013D01*
X112078070Y-80002013D02*
X112111404Y-80035346D01*
X112111404Y-80035346D02*
X112178070Y-80068680D01*
X112178070Y-80068680D02*
X112444737Y-80068680D01*
X111744737Y-80402013D02*
X111744737Y-79702013D01*
X111344737Y-80402013D02*
X111644737Y-80002013D01*
X111344737Y-79702013D02*
X111744737Y-80102013D01*
X113578070Y-81529013D02*
X113811403Y-81195680D01*
X113978070Y-81529013D02*
X113978070Y-80829013D01*
X113978070Y-80829013D02*
X113711403Y-80829013D01*
X113711403Y-80829013D02*
X113644737Y-80862346D01*
X113644737Y-80862346D02*
X113611403Y-80895680D01*
X113611403Y-80895680D02*
X113578070Y-80962346D01*
X113578070Y-80962346D02*
X113578070Y-81062346D01*
X113578070Y-81062346D02*
X113611403Y-81129013D01*
X113611403Y-81129013D02*
X113644737Y-81162346D01*
X113644737Y-81162346D02*
X113711403Y-81195680D01*
X113711403Y-81195680D02*
X113978070Y-81195680D01*
X113278070Y-81462346D02*
X113244737Y-81495680D01*
X113244737Y-81495680D02*
X113278070Y-81529013D01*
X113278070Y-81529013D02*
X113311403Y-81495680D01*
X113311403Y-81495680D02*
X113278070Y-81462346D01*
X113278070Y-81462346D02*
X113278070Y-81529013D01*
X113278070Y-81095680D02*
X113244737Y-81129013D01*
X113244737Y-81129013D02*
X113278070Y-81162346D01*
X113278070Y-81162346D02*
X113311403Y-81129013D01*
X113311403Y-81129013D02*
X113278070Y-81095680D01*
X113278070Y-81095680D02*
X113278070Y-81162346D01*
X112944737Y-81529013D02*
X112944737Y-80829013D01*
X112944737Y-80829013D02*
X112678070Y-80829013D01*
X112678070Y-80829013D02*
X112611404Y-80862346D01*
X112611404Y-80862346D02*
X112578070Y-80895680D01*
X112578070Y-80895680D02*
X112544737Y-80962346D01*
X112544737Y-80962346D02*
X112544737Y-81062346D01*
X112544737Y-81062346D02*
X112578070Y-81129013D01*
X112578070Y-81129013D02*
X112611404Y-81162346D01*
X112611404Y-81162346D02*
X112678070Y-81195680D01*
X112678070Y-81195680D02*
X112944737Y-81195680D01*
X112344737Y-80829013D02*
X111944737Y-80829013D01*
X112144737Y-81529013D02*
X112144737Y-80829013D01*
X111811404Y-80829013D02*
X111411404Y-80829013D01*
X111611404Y-81529013D02*
X111611404Y-80829013D01*
X114011403Y-82622680D02*
X113911403Y-82656013D01*
X113911403Y-82656013D02*
X113744737Y-82656013D01*
X113744737Y-82656013D02*
X113678070Y-82622680D01*
X113678070Y-82622680D02*
X113644737Y-82589346D01*
X113644737Y-82589346D02*
X113611403Y-82522680D01*
X113611403Y-82522680D02*
X113611403Y-82456013D01*
X113611403Y-82456013D02*
X113644737Y-82389346D01*
X113644737Y-82389346D02*
X113678070Y-82356013D01*
X113678070Y-82356013D02*
X113744737Y-82322680D01*
X113744737Y-82322680D02*
X113878070Y-82289346D01*
X113878070Y-82289346D02*
X113944737Y-82256013D01*
X113944737Y-82256013D02*
X113978070Y-82222680D01*
X113978070Y-82222680D02*
X114011403Y-82156013D01*
X114011403Y-82156013D02*
X114011403Y-82089346D01*
X114011403Y-82089346D02*
X113978070Y-82022680D01*
X113978070Y-82022680D02*
X113944737Y-81989346D01*
X113944737Y-81989346D02*
X113878070Y-81956013D01*
X113878070Y-81956013D02*
X113711403Y-81956013D01*
X113711403Y-81956013D02*
X113611403Y-81989346D01*
X113311403Y-82589346D02*
X113278070Y-82622680D01*
X113278070Y-82622680D02*
X113311403Y-82656013D01*
X113311403Y-82656013D02*
X113344736Y-82622680D01*
X113344736Y-82622680D02*
X113311403Y-82589346D01*
X113311403Y-82589346D02*
X113311403Y-82656013D01*
X113311403Y-82222680D02*
X113278070Y-82256013D01*
X113278070Y-82256013D02*
X113311403Y-82289346D01*
X113311403Y-82289346D02*
X113344736Y-82256013D01*
X113344736Y-82256013D02*
X113311403Y-82222680D01*
X113311403Y-82222680D02*
X113311403Y-82289346D01*
X113011403Y-82622680D02*
X112911403Y-82656013D01*
X112911403Y-82656013D02*
X112744737Y-82656013D01*
X112744737Y-82656013D02*
X112678070Y-82622680D01*
X112678070Y-82622680D02*
X112644737Y-82589346D01*
X112644737Y-82589346D02*
X112611403Y-82522680D01*
X112611403Y-82522680D02*
X112611403Y-82456013D01*
X112611403Y-82456013D02*
X112644737Y-82389346D01*
X112644737Y-82389346D02*
X112678070Y-82356013D01*
X112678070Y-82356013D02*
X112744737Y-82322680D01*
X112744737Y-82322680D02*
X112878070Y-82289346D01*
X112878070Y-82289346D02*
X112944737Y-82256013D01*
X112944737Y-82256013D02*
X112978070Y-82222680D01*
X112978070Y-82222680D02*
X113011403Y-82156013D01*
X113011403Y-82156013D02*
X113011403Y-82089346D01*
X113011403Y-82089346D02*
X112978070Y-82022680D01*
X112978070Y-82022680D02*
X112944737Y-81989346D01*
X112944737Y-81989346D02*
X112878070Y-81956013D01*
X112878070Y-81956013D02*
X112711403Y-81956013D01*
X112711403Y-81956013D02*
X112611403Y-81989346D01*
X112311403Y-82656013D02*
X112311403Y-81956013D01*
X112311403Y-81956013D02*
X112044736Y-81956013D01*
X112044736Y-81956013D02*
X111978070Y-81989346D01*
X111978070Y-81989346D02*
X111944736Y-82022680D01*
X111944736Y-82022680D02*
X111911403Y-82089346D01*
X111911403Y-82089346D02*
X111911403Y-82189346D01*
X111911403Y-82189346D02*
X111944736Y-82256013D01*
X111944736Y-82256013D02*
X111978070Y-82289346D01*
X111978070Y-82289346D02*
X112044736Y-82322680D01*
X112044736Y-82322680D02*
X112311403Y-82322680D01*
X111611403Y-82656013D02*
X111611403Y-81956013D01*
X111211403Y-82656013D02*
X111511403Y-82256013D01*
X111211403Y-81956013D02*
X111611403Y-82356013D01*
X135794737Y-78575013D02*
X135361403Y-78575013D01*
X135361403Y-78575013D02*
X135594737Y-78841680D01*
X135594737Y-78841680D02*
X135494737Y-78841680D01*
X135494737Y-78841680D02*
X135428070Y-78875013D01*
X135428070Y-78875013D02*
X135394737Y-78908346D01*
X135394737Y-78908346D02*
X135361403Y-78975013D01*
X135361403Y-78975013D02*
X135361403Y-79141680D01*
X135361403Y-79141680D02*
X135394737Y-79208346D01*
X135394737Y-79208346D02*
X135428070Y-79241680D01*
X135428070Y-79241680D02*
X135494737Y-79275013D01*
X135494737Y-79275013D02*
X135694737Y-79275013D01*
X135694737Y-79275013D02*
X135761403Y-79241680D01*
X135761403Y-79241680D02*
X135794737Y-79208346D01*
X135061403Y-79208346D02*
X135028070Y-79241680D01*
X135028070Y-79241680D02*
X135061403Y-79275013D01*
X135061403Y-79275013D02*
X135094736Y-79241680D01*
X135094736Y-79241680D02*
X135061403Y-79208346D01*
X135061403Y-79208346D02*
X135061403Y-79275013D01*
X134394737Y-78575013D02*
X134728070Y-78575013D01*
X134728070Y-78575013D02*
X134761403Y-78908346D01*
X134761403Y-78908346D02*
X134728070Y-78875013D01*
X134728070Y-78875013D02*
X134661403Y-78841680D01*
X134661403Y-78841680D02*
X134494737Y-78841680D01*
X134494737Y-78841680D02*
X134428070Y-78875013D01*
X134428070Y-78875013D02*
X134394737Y-78908346D01*
X134394737Y-78908346D02*
X134361403Y-78975013D01*
X134361403Y-78975013D02*
X134361403Y-79141680D01*
X134361403Y-79141680D02*
X134394737Y-79208346D01*
X134394737Y-79208346D02*
X134428070Y-79241680D01*
X134428070Y-79241680D02*
X134494737Y-79275013D01*
X134494737Y-79275013D02*
X134661403Y-79275013D01*
X134661403Y-79275013D02*
X134728070Y-79241680D01*
X134728070Y-79241680D02*
X134761403Y-79208346D01*
X133528070Y-79275013D02*
X133528070Y-78808346D01*
X133528070Y-78875013D02*
X133494737Y-78841680D01*
X133494737Y-78841680D02*
X133428070Y-78808346D01*
X133428070Y-78808346D02*
X133328070Y-78808346D01*
X133328070Y-78808346D02*
X133261403Y-78841680D01*
X133261403Y-78841680D02*
X133228070Y-78908346D01*
X133228070Y-78908346D02*
X133228070Y-79275013D01*
X133228070Y-78908346D02*
X133194737Y-78841680D01*
X133194737Y-78841680D02*
X133128070Y-78808346D01*
X133128070Y-78808346D02*
X133028070Y-78808346D01*
X133028070Y-78808346D02*
X132961403Y-78841680D01*
X132961403Y-78841680D02*
X132928070Y-78908346D01*
X132928070Y-78908346D02*
X132928070Y-79275013D01*
X132594737Y-79275013D02*
X132594737Y-78808346D01*
X132594737Y-78875013D02*
X132561404Y-78841680D01*
X132561404Y-78841680D02*
X132494737Y-78808346D01*
X132494737Y-78808346D02*
X132394737Y-78808346D01*
X132394737Y-78808346D02*
X132328070Y-78841680D01*
X132328070Y-78841680D02*
X132294737Y-78908346D01*
X132294737Y-78908346D02*
X132294737Y-79275013D01*
X132294737Y-78908346D02*
X132261404Y-78841680D01*
X132261404Y-78841680D02*
X132194737Y-78808346D01*
X132194737Y-78808346D02*
X132094737Y-78808346D01*
X132094737Y-78808346D02*
X132028070Y-78841680D01*
X132028070Y-78841680D02*
X131994737Y-78908346D01*
X131994737Y-78908346D02*
X131994737Y-79275013D01*
X135828070Y-79702013D02*
X135428070Y-79702013D01*
X135628070Y-80402013D02*
X135628070Y-79702013D01*
X135194737Y-80335346D02*
X135161404Y-80368680D01*
X135161404Y-80368680D02*
X135194737Y-80402013D01*
X135194737Y-80402013D02*
X135228070Y-80368680D01*
X135228070Y-80368680D02*
X135194737Y-80335346D01*
X135194737Y-80335346D02*
X135194737Y-80402013D01*
X135194737Y-79968680D02*
X135161404Y-80002013D01*
X135161404Y-80002013D02*
X135194737Y-80035346D01*
X135194737Y-80035346D02*
X135228070Y-80002013D01*
X135228070Y-80002013D02*
X135194737Y-79968680D01*
X135194737Y-79968680D02*
X135194737Y-80035346D01*
X134861404Y-80402013D02*
X134861404Y-79702013D01*
X134861404Y-79702013D02*
X134594737Y-79702013D01*
X134594737Y-79702013D02*
X134528071Y-79735346D01*
X134528071Y-79735346D02*
X134494737Y-79768680D01*
X134494737Y-79768680D02*
X134461404Y-79835346D01*
X134461404Y-79835346D02*
X134461404Y-79935346D01*
X134461404Y-79935346D02*
X134494737Y-80002013D01*
X134494737Y-80002013D02*
X134528071Y-80035346D01*
X134528071Y-80035346D02*
X134594737Y-80068680D01*
X134594737Y-80068680D02*
X134861404Y-80068680D01*
X134261404Y-79702013D02*
X133861404Y-79702013D01*
X134061404Y-80402013D02*
X134061404Y-79702013D01*
X133728071Y-79702013D02*
X133328071Y-79702013D01*
X133528071Y-80402013D02*
X133528071Y-79702013D01*
X135328070Y-81529013D02*
X135561403Y-81195680D01*
X135728070Y-81529013D02*
X135728070Y-80829013D01*
X135728070Y-80829013D02*
X135461403Y-80829013D01*
X135461403Y-80829013D02*
X135394737Y-80862346D01*
X135394737Y-80862346D02*
X135361403Y-80895680D01*
X135361403Y-80895680D02*
X135328070Y-80962346D01*
X135328070Y-80962346D02*
X135328070Y-81062346D01*
X135328070Y-81062346D02*
X135361403Y-81129013D01*
X135361403Y-81129013D02*
X135394737Y-81162346D01*
X135394737Y-81162346D02*
X135461403Y-81195680D01*
X135461403Y-81195680D02*
X135728070Y-81195680D01*
X135028070Y-81462346D02*
X134994737Y-81495680D01*
X134994737Y-81495680D02*
X135028070Y-81529013D01*
X135028070Y-81529013D02*
X135061403Y-81495680D01*
X135061403Y-81495680D02*
X135028070Y-81462346D01*
X135028070Y-81462346D02*
X135028070Y-81529013D01*
X135028070Y-81095680D02*
X134994737Y-81129013D01*
X134994737Y-81129013D02*
X135028070Y-81162346D01*
X135028070Y-81162346D02*
X135061403Y-81129013D01*
X135061403Y-81129013D02*
X135028070Y-81095680D01*
X135028070Y-81095680D02*
X135028070Y-81162346D01*
X134694737Y-81529013D02*
X134694737Y-80829013D01*
X134694737Y-80829013D02*
X134461404Y-81329013D01*
X134461404Y-81329013D02*
X134228070Y-80829013D01*
X134228070Y-80829013D02*
X134228070Y-81529013D01*
X133894737Y-81529013D02*
X133894737Y-80829013D01*
X133161404Y-81462346D02*
X133194737Y-81495680D01*
X133194737Y-81495680D02*
X133294737Y-81529013D01*
X133294737Y-81529013D02*
X133361404Y-81529013D01*
X133361404Y-81529013D02*
X133461404Y-81495680D01*
X133461404Y-81495680D02*
X133528071Y-81429013D01*
X133528071Y-81429013D02*
X133561404Y-81362346D01*
X133561404Y-81362346D02*
X133594737Y-81229013D01*
X133594737Y-81229013D02*
X133594737Y-81129013D01*
X133594737Y-81129013D02*
X133561404Y-80995680D01*
X133561404Y-80995680D02*
X133528071Y-80929013D01*
X133528071Y-80929013D02*
X133461404Y-80862346D01*
X133461404Y-80862346D02*
X133361404Y-80829013D01*
X133361404Y-80829013D02*
X133294737Y-80829013D01*
X133294737Y-80829013D02*
X133194737Y-80862346D01*
X133194737Y-80862346D02*
X133161404Y-80895680D01*
X135761403Y-82622680D02*
X135661403Y-82656013D01*
X135661403Y-82656013D02*
X135494737Y-82656013D01*
X135494737Y-82656013D02*
X135428070Y-82622680D01*
X135428070Y-82622680D02*
X135394737Y-82589346D01*
X135394737Y-82589346D02*
X135361403Y-82522680D01*
X135361403Y-82522680D02*
X135361403Y-82456013D01*
X135361403Y-82456013D02*
X135394737Y-82389346D01*
X135394737Y-82389346D02*
X135428070Y-82356013D01*
X135428070Y-82356013D02*
X135494737Y-82322680D01*
X135494737Y-82322680D02*
X135628070Y-82289346D01*
X135628070Y-82289346D02*
X135694737Y-82256013D01*
X135694737Y-82256013D02*
X135728070Y-82222680D01*
X135728070Y-82222680D02*
X135761403Y-82156013D01*
X135761403Y-82156013D02*
X135761403Y-82089346D01*
X135761403Y-82089346D02*
X135728070Y-82022680D01*
X135728070Y-82022680D02*
X135694737Y-81989346D01*
X135694737Y-81989346D02*
X135628070Y-81956013D01*
X135628070Y-81956013D02*
X135461403Y-81956013D01*
X135461403Y-81956013D02*
X135361403Y-81989346D01*
X135061403Y-82589346D02*
X135028070Y-82622680D01*
X135028070Y-82622680D02*
X135061403Y-82656013D01*
X135061403Y-82656013D02*
X135094736Y-82622680D01*
X135094736Y-82622680D02*
X135061403Y-82589346D01*
X135061403Y-82589346D02*
X135061403Y-82656013D01*
X135061403Y-82222680D02*
X135028070Y-82256013D01*
X135028070Y-82256013D02*
X135061403Y-82289346D01*
X135061403Y-82289346D02*
X135094736Y-82256013D01*
X135094736Y-82256013D02*
X135061403Y-82222680D01*
X135061403Y-82222680D02*
X135061403Y-82289346D01*
X134728070Y-82656013D02*
X134728070Y-81956013D01*
X134728070Y-81956013D02*
X134494737Y-82456013D01*
X134494737Y-82456013D02*
X134261403Y-81956013D01*
X134261403Y-81956013D02*
X134261403Y-82656013D01*
X133928070Y-82656013D02*
X133928070Y-81956013D01*
X133194737Y-82589346D02*
X133228070Y-82622680D01*
X133228070Y-82622680D02*
X133328070Y-82656013D01*
X133328070Y-82656013D02*
X133394737Y-82656013D01*
X133394737Y-82656013D02*
X133494737Y-82622680D01*
X133494737Y-82622680D02*
X133561404Y-82556013D01*
X133561404Y-82556013D02*
X133594737Y-82489346D01*
X133594737Y-82489346D02*
X133628070Y-82356013D01*
X133628070Y-82356013D02*
X133628070Y-82256013D01*
X133628070Y-82256013D02*
X133594737Y-82122680D01*
X133594737Y-82122680D02*
X133561404Y-82056013D01*
X133561404Y-82056013D02*
X133494737Y-81989346D01*
X133494737Y-81989346D02*
X133394737Y-81956013D01*
X133394737Y-81956013D02*
X133328070Y-81956013D01*
X133328070Y-81956013D02*
X133228070Y-81989346D01*
X133228070Y-81989346D02*
X133194737Y-82022680D01*
X129228070Y-87406013D02*
X129228070Y-86706013D01*
X128928070Y-87372680D02*
X128828070Y-87406013D01*
X128828070Y-87406013D02*
X128661404Y-87406013D01*
X128661404Y-87406013D02*
X128594737Y-87372680D01*
X128594737Y-87372680D02*
X128561404Y-87339346D01*
X128561404Y-87339346D02*
X128528070Y-87272680D01*
X128528070Y-87272680D02*
X128528070Y-87206013D01*
X128528070Y-87206013D02*
X128561404Y-87139346D01*
X128561404Y-87139346D02*
X128594737Y-87106013D01*
X128594737Y-87106013D02*
X128661404Y-87072680D01*
X128661404Y-87072680D02*
X128794737Y-87039346D01*
X128794737Y-87039346D02*
X128861404Y-87006013D01*
X128861404Y-87006013D02*
X128894737Y-86972680D01*
X128894737Y-86972680D02*
X128928070Y-86906013D01*
X128928070Y-86906013D02*
X128928070Y-86839346D01*
X128928070Y-86839346D02*
X128894737Y-86772680D01*
X128894737Y-86772680D02*
X128861404Y-86739346D01*
X128861404Y-86739346D02*
X128794737Y-86706013D01*
X128794737Y-86706013D02*
X128628070Y-86706013D01*
X128628070Y-86706013D02*
X128528070Y-86739346D01*
X128094737Y-86706013D02*
X127961403Y-86706013D01*
X127961403Y-86706013D02*
X127894737Y-86739346D01*
X127894737Y-86739346D02*
X127828070Y-86806013D01*
X127828070Y-86806013D02*
X127794737Y-86939346D01*
X127794737Y-86939346D02*
X127794737Y-87172680D01*
X127794737Y-87172680D02*
X127828070Y-87306013D01*
X127828070Y-87306013D02*
X127894737Y-87372680D01*
X127894737Y-87372680D02*
X127961403Y-87406013D01*
X127961403Y-87406013D02*
X128094737Y-87406013D01*
X128094737Y-87406013D02*
X128161403Y-87372680D01*
X128161403Y-87372680D02*
X128228070Y-87306013D01*
X128228070Y-87306013D02*
X128261403Y-87172680D01*
X128261403Y-87172680D02*
X128261403Y-86939346D01*
X128261403Y-86939346D02*
X128228070Y-86806013D01*
X128228070Y-86806013D02*
X128161403Y-86739346D01*
X128161403Y-86739346D02*
X128094737Y-86706013D01*
X127161404Y-87406013D02*
X127494737Y-87406013D01*
X127494737Y-87406013D02*
X127494737Y-86706013D01*
X126961403Y-87206013D02*
X126628070Y-87206013D01*
X127028070Y-87406013D02*
X126794737Y-86706013D01*
X126794737Y-86706013D02*
X126561403Y-87406013D01*
X126428070Y-86706013D02*
X126028070Y-86706013D01*
X126228070Y-87406013D02*
X126228070Y-86706013D01*
X125794737Y-87039346D02*
X125561404Y-87039346D01*
X125461404Y-87406013D02*
X125794737Y-87406013D01*
X125794737Y-87406013D02*
X125794737Y-86706013D01*
X125794737Y-86706013D02*
X125461404Y-86706013D01*
X125161404Y-87406013D02*
X125161404Y-86706013D01*
X125161404Y-86706013D02*
X124994737Y-86706013D01*
X124994737Y-86706013D02*
X124894737Y-86739346D01*
X124894737Y-86739346D02*
X124828071Y-86806013D01*
X124828071Y-86806013D02*
X124794737Y-86872680D01*
X124794737Y-86872680D02*
X124761404Y-87006013D01*
X124761404Y-87006013D02*
X124761404Y-87106013D01*
X124761404Y-87106013D02*
X124794737Y-87239346D01*
X124794737Y-87239346D02*
X124828071Y-87306013D01*
X124828071Y-87306013D02*
X124894737Y-87372680D01*
X124894737Y-87372680D02*
X124994737Y-87406013D01*
X124994737Y-87406013D02*
X125161404Y-87406013D01*
X123928071Y-87406013D02*
X123928071Y-86706013D01*
X123928071Y-87039346D02*
X123528071Y-87039346D01*
X123528071Y-87406013D02*
X123528071Y-86706013D01*
X123228071Y-87206013D02*
X122894738Y-87206013D01*
X123294738Y-87406013D02*
X123061405Y-86706013D01*
X123061405Y-86706013D02*
X122828071Y-87406013D01*
X122594738Y-87406013D02*
X122594738Y-86706013D01*
X122594738Y-86706013D02*
X122361405Y-87206013D01*
X122361405Y-87206013D02*
X122128071Y-86706013D01*
X122128071Y-86706013D02*
X122128071Y-87406013D01*
X120861405Y-87406013D02*
X121094738Y-87072680D01*
X121261405Y-87406013D02*
X121261405Y-86706013D01*
X121261405Y-86706013D02*
X120994738Y-86706013D01*
X120994738Y-86706013D02*
X120928072Y-86739346D01*
X120928072Y-86739346D02*
X120894738Y-86772680D01*
X120894738Y-86772680D02*
X120861405Y-86839346D01*
X120861405Y-86839346D02*
X120861405Y-86939346D01*
X120861405Y-86939346D02*
X120894738Y-87006013D01*
X120894738Y-87006013D02*
X120928072Y-87039346D01*
X120928072Y-87039346D02*
X120994738Y-87072680D01*
X120994738Y-87072680D02*
X121261405Y-87072680D01*
X120594738Y-87206013D02*
X120261405Y-87206013D01*
X120661405Y-87406013D02*
X120428072Y-86706013D01*
X120428072Y-86706013D02*
X120194738Y-87406013D01*
X119961405Y-87406013D02*
X119961405Y-86706013D01*
X119961405Y-86706013D02*
X119794738Y-86706013D01*
X119794738Y-86706013D02*
X119694738Y-86739346D01*
X119694738Y-86739346D02*
X119628072Y-86806013D01*
X119628072Y-86806013D02*
X119594738Y-86872680D01*
X119594738Y-86872680D02*
X119561405Y-87006013D01*
X119561405Y-87006013D02*
X119561405Y-87106013D01*
X119561405Y-87106013D02*
X119594738Y-87239346D01*
X119594738Y-87239346D02*
X119628072Y-87306013D01*
X119628072Y-87306013D02*
X119694738Y-87372680D01*
X119694738Y-87372680D02*
X119794738Y-87406013D01*
X119794738Y-87406013D02*
X119961405Y-87406013D01*
X119261405Y-87406013D02*
X119261405Y-86706013D01*
X118794739Y-86706013D02*
X118661405Y-86706013D01*
X118661405Y-86706013D02*
X118594739Y-86739346D01*
X118594739Y-86739346D02*
X118528072Y-86806013D01*
X118528072Y-86806013D02*
X118494739Y-86939346D01*
X118494739Y-86939346D02*
X118494739Y-87172680D01*
X118494739Y-87172680D02*
X118528072Y-87306013D01*
X118528072Y-87306013D02*
X118594739Y-87372680D01*
X118594739Y-87372680D02*
X118661405Y-87406013D01*
X118661405Y-87406013D02*
X118794739Y-87406013D01*
X118794739Y-87406013D02*
X118861405Y-87372680D01*
X118861405Y-87372680D02*
X118928072Y-87306013D01*
X118928072Y-87306013D02*
X118961405Y-87172680D01*
X118961405Y-87172680D02*
X118961405Y-86939346D01*
X118961405Y-86939346D02*
X118928072Y-86806013D01*
X118928072Y-86806013D02*
X118861405Y-86739346D01*
X118861405Y-86739346D02*
X118794739Y-86706013D01*
X117661406Y-87406013D02*
X117661406Y-86706013D01*
X117328073Y-87406013D02*
X117328073Y-86706013D01*
X117328073Y-86706013D02*
X116928073Y-87406013D01*
X116928073Y-87406013D02*
X116928073Y-86706013D01*
X116694740Y-86706013D02*
X116294740Y-86706013D01*
X116494740Y-87406013D02*
X116494740Y-86706013D01*
X116061407Y-87039346D02*
X115828074Y-87039346D01*
X115728074Y-87406013D02*
X116061407Y-87406013D01*
X116061407Y-87406013D02*
X116061407Y-86706013D01*
X116061407Y-86706013D02*
X115728074Y-86706013D01*
X115028074Y-87406013D02*
X115261407Y-87072680D01*
X115428074Y-87406013D02*
X115428074Y-86706013D01*
X115428074Y-86706013D02*
X115161407Y-86706013D01*
X115161407Y-86706013D02*
X115094741Y-86739346D01*
X115094741Y-86739346D02*
X115061407Y-86772680D01*
X115061407Y-86772680D02*
X115028074Y-86839346D01*
X115028074Y-86839346D02*
X115028074Y-86939346D01*
X115028074Y-86939346D02*
X115061407Y-87006013D01*
X115061407Y-87006013D02*
X115094741Y-87039346D01*
X115094741Y-87039346D02*
X115161407Y-87072680D01*
X115161407Y-87072680D02*
X115428074Y-87072680D01*
X114494741Y-87039346D02*
X114728074Y-87039346D01*
X114728074Y-87406013D02*
X114728074Y-86706013D01*
X114728074Y-86706013D02*
X114394741Y-86706013D01*
X114161407Y-87206013D02*
X113828074Y-87206013D01*
X114228074Y-87406013D02*
X113994741Y-86706013D01*
X113994741Y-86706013D02*
X113761407Y-87406013D01*
X113128074Y-87339346D02*
X113161407Y-87372680D01*
X113161407Y-87372680D02*
X113261407Y-87406013D01*
X113261407Y-87406013D02*
X113328074Y-87406013D01*
X113328074Y-87406013D02*
X113428074Y-87372680D01*
X113428074Y-87372680D02*
X113494741Y-87306013D01*
X113494741Y-87306013D02*
X113528074Y-87239346D01*
X113528074Y-87239346D02*
X113561407Y-87106013D01*
X113561407Y-87106013D02*
X113561407Y-87006013D01*
X113561407Y-87006013D02*
X113528074Y-86872680D01*
X113528074Y-86872680D02*
X113494741Y-86806013D01*
X113494741Y-86806013D02*
X113428074Y-86739346D01*
X113428074Y-86739346D02*
X113328074Y-86706013D01*
X113328074Y-86706013D02*
X113261407Y-86706013D01*
X113261407Y-86706013D02*
X113161407Y-86739346D01*
X113161407Y-86739346D02*
X113128074Y-86772680D01*
X112828074Y-87039346D02*
X112594741Y-87039346D01*
X112494741Y-87406013D02*
X112828074Y-87406013D01*
X112828074Y-87406013D02*
X112828074Y-86706013D01*
X112828074Y-86706013D02*
X112494741Y-86706013D01*
X142728070Y-44906013D02*
X142728070Y-44206013D01*
X142728070Y-44206013D02*
X142494737Y-44706013D01*
X142494737Y-44706013D02*
X142261403Y-44206013D01*
X142261403Y-44206013D02*
X142261403Y-44906013D01*
X141928070Y-44906013D02*
X141928070Y-44206013D01*
X141194737Y-44839346D02*
X141228070Y-44872680D01*
X141228070Y-44872680D02*
X141328070Y-44906013D01*
X141328070Y-44906013D02*
X141394737Y-44906013D01*
X141394737Y-44906013D02*
X141494737Y-44872680D01*
X141494737Y-44872680D02*
X141561404Y-44806013D01*
X141561404Y-44806013D02*
X141594737Y-44739346D01*
X141594737Y-44739346D02*
X141628070Y-44606013D01*
X141628070Y-44606013D02*
X141628070Y-44506013D01*
X141628070Y-44506013D02*
X141594737Y-44372680D01*
X141594737Y-44372680D02*
X141561404Y-44306013D01*
X141561404Y-44306013D02*
X141494737Y-44239346D01*
X141494737Y-44239346D02*
X141394737Y-44206013D01*
X141394737Y-44206013D02*
X141328070Y-44206013D01*
X141328070Y-44206013D02*
X141228070Y-44239346D01*
X141228070Y-44239346D02*
X141194737Y-44272680D01*
X140461404Y-44206013D02*
X140228071Y-44906013D01*
X140228071Y-44906013D02*
X139994737Y-44206013D01*
X139628071Y-44206013D02*
X139494737Y-44206013D01*
X139494737Y-44206013D02*
X139428071Y-44239346D01*
X139428071Y-44239346D02*
X139361404Y-44306013D01*
X139361404Y-44306013D02*
X139328071Y-44439346D01*
X139328071Y-44439346D02*
X139328071Y-44672680D01*
X139328071Y-44672680D02*
X139361404Y-44806013D01*
X139361404Y-44806013D02*
X139428071Y-44872680D01*
X139428071Y-44872680D02*
X139494737Y-44906013D01*
X139494737Y-44906013D02*
X139628071Y-44906013D01*
X139628071Y-44906013D02*
X139694737Y-44872680D01*
X139694737Y-44872680D02*
X139761404Y-44806013D01*
X139761404Y-44806013D02*
X139794737Y-44672680D01*
X139794737Y-44672680D02*
X139794737Y-44439346D01*
X139794737Y-44439346D02*
X139761404Y-44306013D01*
X139761404Y-44306013D02*
X139694737Y-44239346D01*
X139694737Y-44239346D02*
X139628071Y-44206013D01*
X138694738Y-44906013D02*
X139028071Y-44906013D01*
X139028071Y-44906013D02*
X139028071Y-44206013D01*
X109511403Y-44872680D02*
X109411403Y-44906013D01*
X109411403Y-44906013D02*
X109244737Y-44906013D01*
X109244737Y-44906013D02*
X109178070Y-44872680D01*
X109178070Y-44872680D02*
X109144737Y-44839346D01*
X109144737Y-44839346D02*
X109111403Y-44772680D01*
X109111403Y-44772680D02*
X109111403Y-44706013D01*
X109111403Y-44706013D02*
X109144737Y-44639346D01*
X109144737Y-44639346D02*
X109178070Y-44606013D01*
X109178070Y-44606013D02*
X109244737Y-44572680D01*
X109244737Y-44572680D02*
X109378070Y-44539346D01*
X109378070Y-44539346D02*
X109444737Y-44506013D01*
X109444737Y-44506013D02*
X109478070Y-44472680D01*
X109478070Y-44472680D02*
X109511403Y-44406013D01*
X109511403Y-44406013D02*
X109511403Y-44339346D01*
X109511403Y-44339346D02*
X109478070Y-44272680D01*
X109478070Y-44272680D02*
X109444737Y-44239346D01*
X109444737Y-44239346D02*
X109378070Y-44206013D01*
X109378070Y-44206013D02*
X109211403Y-44206013D01*
X109211403Y-44206013D02*
X109111403Y-44239346D01*
X108811403Y-44906013D02*
X108811403Y-44206013D01*
X108811403Y-44206013D02*
X108544736Y-44206013D01*
X108544736Y-44206013D02*
X108478070Y-44239346D01*
X108478070Y-44239346D02*
X108444736Y-44272680D01*
X108444736Y-44272680D02*
X108411403Y-44339346D01*
X108411403Y-44339346D02*
X108411403Y-44439346D01*
X108411403Y-44439346D02*
X108444736Y-44506013D01*
X108444736Y-44506013D02*
X108478070Y-44539346D01*
X108478070Y-44539346D02*
X108544736Y-44572680D01*
X108544736Y-44572680D02*
X108811403Y-44572680D01*
X108111403Y-44906013D02*
X108111403Y-44206013D01*
X107711403Y-44906013D02*
X108011403Y-44506013D01*
X107711403Y-44206013D02*
X108111403Y-44606013D01*
X106978070Y-44206013D02*
X106744737Y-44906013D01*
X106744737Y-44906013D02*
X106511403Y-44206013D01*
X106144737Y-44206013D02*
X106011403Y-44206013D01*
X106011403Y-44206013D02*
X105944737Y-44239346D01*
X105944737Y-44239346D02*
X105878070Y-44306013D01*
X105878070Y-44306013D02*
X105844737Y-44439346D01*
X105844737Y-44439346D02*
X105844737Y-44672680D01*
X105844737Y-44672680D02*
X105878070Y-44806013D01*
X105878070Y-44806013D02*
X105944737Y-44872680D01*
X105944737Y-44872680D02*
X106011403Y-44906013D01*
X106011403Y-44906013D02*
X106144737Y-44906013D01*
X106144737Y-44906013D02*
X106211403Y-44872680D01*
X106211403Y-44872680D02*
X106278070Y-44806013D01*
X106278070Y-44806013D02*
X106311403Y-44672680D01*
X106311403Y-44672680D02*
X106311403Y-44439346D01*
X106311403Y-44439346D02*
X106278070Y-44306013D01*
X106278070Y-44306013D02*
X106211403Y-44239346D01*
X106211403Y-44239346D02*
X106144737Y-44206013D01*
X105211404Y-44906013D02*
X105544737Y-44906013D01*
X105544737Y-44906013D02*
X105544737Y-44206013D01*
X100228070Y-44906013D02*
X100228070Y-44206013D01*
X100228070Y-44206013D02*
X99994737Y-44706013D01*
X99994737Y-44706013D02*
X99761403Y-44206013D01*
X99761403Y-44206013D02*
X99761403Y-44906013D01*
X99428070Y-44906013D02*
X99428070Y-44206013D01*
X98694737Y-44839346D02*
X98728070Y-44872680D01*
X98728070Y-44872680D02*
X98828070Y-44906013D01*
X98828070Y-44906013D02*
X98894737Y-44906013D01*
X98894737Y-44906013D02*
X98994737Y-44872680D01*
X98994737Y-44872680D02*
X99061404Y-44806013D01*
X99061404Y-44806013D02*
X99094737Y-44739346D01*
X99094737Y-44739346D02*
X99128070Y-44606013D01*
X99128070Y-44606013D02*
X99128070Y-44506013D01*
X99128070Y-44506013D02*
X99094737Y-44372680D01*
X99094737Y-44372680D02*
X99061404Y-44306013D01*
X99061404Y-44306013D02*
X98994737Y-44239346D01*
X98994737Y-44239346D02*
X98894737Y-44206013D01*
X98894737Y-44206013D02*
X98828070Y-44206013D01*
X98828070Y-44206013D02*
X98728070Y-44239346D01*
X98728070Y-44239346D02*
X98694737Y-44272680D01*
X97961404Y-44206013D02*
X97728071Y-44906013D01*
X97728071Y-44906013D02*
X97494737Y-44206013D01*
X97128071Y-44206013D02*
X96994737Y-44206013D01*
X96994737Y-44206013D02*
X96928071Y-44239346D01*
X96928071Y-44239346D02*
X96861404Y-44306013D01*
X96861404Y-44306013D02*
X96828071Y-44439346D01*
X96828071Y-44439346D02*
X96828071Y-44672680D01*
X96828071Y-44672680D02*
X96861404Y-44806013D01*
X96861404Y-44806013D02*
X96928071Y-44872680D01*
X96928071Y-44872680D02*
X96994737Y-44906013D01*
X96994737Y-44906013D02*
X97128071Y-44906013D01*
X97128071Y-44906013D02*
X97194737Y-44872680D01*
X97194737Y-44872680D02*
X97261404Y-44806013D01*
X97261404Y-44806013D02*
X97294737Y-44672680D01*
X97294737Y-44672680D02*
X97294737Y-44439346D01*
X97294737Y-44439346D02*
X97261404Y-44306013D01*
X97261404Y-44306013D02*
X97194737Y-44239346D01*
X97194737Y-44239346D02*
X97128071Y-44206013D01*
X96194738Y-44906013D02*
X96528071Y-44906013D01*
X96528071Y-44906013D02*
X96528071Y-44206013D01*
X67011403Y-44872680D02*
X66911403Y-44906013D01*
X66911403Y-44906013D02*
X66744737Y-44906013D01*
X66744737Y-44906013D02*
X66678070Y-44872680D01*
X66678070Y-44872680D02*
X66644737Y-44839346D01*
X66644737Y-44839346D02*
X66611403Y-44772680D01*
X66611403Y-44772680D02*
X66611403Y-44706013D01*
X66611403Y-44706013D02*
X66644737Y-44639346D01*
X66644737Y-44639346D02*
X66678070Y-44606013D01*
X66678070Y-44606013D02*
X66744737Y-44572680D01*
X66744737Y-44572680D02*
X66878070Y-44539346D01*
X66878070Y-44539346D02*
X66944737Y-44506013D01*
X66944737Y-44506013D02*
X66978070Y-44472680D01*
X66978070Y-44472680D02*
X67011403Y-44406013D01*
X67011403Y-44406013D02*
X67011403Y-44339346D01*
X67011403Y-44339346D02*
X66978070Y-44272680D01*
X66978070Y-44272680D02*
X66944737Y-44239346D01*
X66944737Y-44239346D02*
X66878070Y-44206013D01*
X66878070Y-44206013D02*
X66711403Y-44206013D01*
X66711403Y-44206013D02*
X66611403Y-44239346D01*
X66311403Y-44906013D02*
X66311403Y-44206013D01*
X66311403Y-44206013D02*
X66044736Y-44206013D01*
X66044736Y-44206013D02*
X65978070Y-44239346D01*
X65978070Y-44239346D02*
X65944736Y-44272680D01*
X65944736Y-44272680D02*
X65911403Y-44339346D01*
X65911403Y-44339346D02*
X65911403Y-44439346D01*
X65911403Y-44439346D02*
X65944736Y-44506013D01*
X65944736Y-44506013D02*
X65978070Y-44539346D01*
X65978070Y-44539346D02*
X66044736Y-44572680D01*
X66044736Y-44572680D02*
X66311403Y-44572680D01*
X65611403Y-44906013D02*
X65611403Y-44206013D01*
X65211403Y-44906013D02*
X65511403Y-44506013D01*
X65211403Y-44206013D02*
X65611403Y-44606013D01*
X64478070Y-44206013D02*
X64244737Y-44906013D01*
X64244737Y-44906013D02*
X64011403Y-44206013D01*
X63644737Y-44206013D02*
X63511403Y-44206013D01*
X63511403Y-44206013D02*
X63444737Y-44239346D01*
X63444737Y-44239346D02*
X63378070Y-44306013D01*
X63378070Y-44306013D02*
X63344737Y-44439346D01*
X63344737Y-44439346D02*
X63344737Y-44672680D01*
X63344737Y-44672680D02*
X63378070Y-44806013D01*
X63378070Y-44806013D02*
X63444737Y-44872680D01*
X63444737Y-44872680D02*
X63511403Y-44906013D01*
X63511403Y-44906013D02*
X63644737Y-44906013D01*
X63644737Y-44906013D02*
X63711403Y-44872680D01*
X63711403Y-44872680D02*
X63778070Y-44806013D01*
X63778070Y-44806013D02*
X63811403Y-44672680D01*
X63811403Y-44672680D02*
X63811403Y-44439346D01*
X63811403Y-44439346D02*
X63778070Y-44306013D01*
X63778070Y-44306013D02*
X63711403Y-44239346D01*
X63711403Y-44239346D02*
X63644737Y-44206013D01*
X62711404Y-44906013D02*
X63044737Y-44906013D01*
X63044737Y-44906013D02*
X63044737Y-44206013D01*
X86728070Y-87406013D02*
X86728070Y-86706013D01*
X86428070Y-87372680D02*
X86328070Y-87406013D01*
X86328070Y-87406013D02*
X86161404Y-87406013D01*
X86161404Y-87406013D02*
X86094737Y-87372680D01*
X86094737Y-87372680D02*
X86061404Y-87339346D01*
X86061404Y-87339346D02*
X86028070Y-87272680D01*
X86028070Y-87272680D02*
X86028070Y-87206013D01*
X86028070Y-87206013D02*
X86061404Y-87139346D01*
X86061404Y-87139346D02*
X86094737Y-87106013D01*
X86094737Y-87106013D02*
X86161404Y-87072680D01*
X86161404Y-87072680D02*
X86294737Y-87039346D01*
X86294737Y-87039346D02*
X86361404Y-87006013D01*
X86361404Y-87006013D02*
X86394737Y-86972680D01*
X86394737Y-86972680D02*
X86428070Y-86906013D01*
X86428070Y-86906013D02*
X86428070Y-86839346D01*
X86428070Y-86839346D02*
X86394737Y-86772680D01*
X86394737Y-86772680D02*
X86361404Y-86739346D01*
X86361404Y-86739346D02*
X86294737Y-86706013D01*
X86294737Y-86706013D02*
X86128070Y-86706013D01*
X86128070Y-86706013D02*
X86028070Y-86739346D01*
X85594737Y-86706013D02*
X85461403Y-86706013D01*
X85461403Y-86706013D02*
X85394737Y-86739346D01*
X85394737Y-86739346D02*
X85328070Y-86806013D01*
X85328070Y-86806013D02*
X85294737Y-86939346D01*
X85294737Y-86939346D02*
X85294737Y-87172680D01*
X85294737Y-87172680D02*
X85328070Y-87306013D01*
X85328070Y-87306013D02*
X85394737Y-87372680D01*
X85394737Y-87372680D02*
X85461403Y-87406013D01*
X85461403Y-87406013D02*
X85594737Y-87406013D01*
X85594737Y-87406013D02*
X85661403Y-87372680D01*
X85661403Y-87372680D02*
X85728070Y-87306013D01*
X85728070Y-87306013D02*
X85761403Y-87172680D01*
X85761403Y-87172680D02*
X85761403Y-86939346D01*
X85761403Y-86939346D02*
X85728070Y-86806013D01*
X85728070Y-86806013D02*
X85661403Y-86739346D01*
X85661403Y-86739346D02*
X85594737Y-86706013D01*
X84661404Y-87406013D02*
X84994737Y-87406013D01*
X84994737Y-87406013D02*
X84994737Y-86706013D01*
X84461403Y-87206013D02*
X84128070Y-87206013D01*
X84528070Y-87406013D02*
X84294737Y-86706013D01*
X84294737Y-86706013D02*
X84061403Y-87406013D01*
X83928070Y-86706013D02*
X83528070Y-86706013D01*
X83728070Y-87406013D02*
X83728070Y-86706013D01*
X83294737Y-87039346D02*
X83061404Y-87039346D01*
X82961404Y-87406013D02*
X83294737Y-87406013D01*
X83294737Y-87406013D02*
X83294737Y-86706013D01*
X83294737Y-86706013D02*
X82961404Y-86706013D01*
X82661404Y-87406013D02*
X82661404Y-86706013D01*
X82661404Y-86706013D02*
X82494737Y-86706013D01*
X82494737Y-86706013D02*
X82394737Y-86739346D01*
X82394737Y-86739346D02*
X82328071Y-86806013D01*
X82328071Y-86806013D02*
X82294737Y-86872680D01*
X82294737Y-86872680D02*
X82261404Y-87006013D01*
X82261404Y-87006013D02*
X82261404Y-87106013D01*
X82261404Y-87106013D02*
X82294737Y-87239346D01*
X82294737Y-87239346D02*
X82328071Y-87306013D01*
X82328071Y-87306013D02*
X82394737Y-87372680D01*
X82394737Y-87372680D02*
X82494737Y-87406013D01*
X82494737Y-87406013D02*
X82661404Y-87406013D01*
X81428071Y-87406013D02*
X81428071Y-86706013D01*
X81428071Y-87039346D02*
X81028071Y-87039346D01*
X81028071Y-87406013D02*
X81028071Y-86706013D01*
X80728071Y-87206013D02*
X80394738Y-87206013D01*
X80794738Y-87406013D02*
X80561405Y-86706013D01*
X80561405Y-86706013D02*
X80328071Y-87406013D01*
X80094738Y-87406013D02*
X80094738Y-86706013D01*
X80094738Y-86706013D02*
X79861405Y-87206013D01*
X79861405Y-87206013D02*
X79628071Y-86706013D01*
X79628071Y-86706013D02*
X79628071Y-87406013D01*
X78361405Y-87406013D02*
X78594738Y-87072680D01*
X78761405Y-87406013D02*
X78761405Y-86706013D01*
X78761405Y-86706013D02*
X78494738Y-86706013D01*
X78494738Y-86706013D02*
X78428072Y-86739346D01*
X78428072Y-86739346D02*
X78394738Y-86772680D01*
X78394738Y-86772680D02*
X78361405Y-86839346D01*
X78361405Y-86839346D02*
X78361405Y-86939346D01*
X78361405Y-86939346D02*
X78394738Y-87006013D01*
X78394738Y-87006013D02*
X78428072Y-87039346D01*
X78428072Y-87039346D02*
X78494738Y-87072680D01*
X78494738Y-87072680D02*
X78761405Y-87072680D01*
X78094738Y-87206013D02*
X77761405Y-87206013D01*
X78161405Y-87406013D02*
X77928072Y-86706013D01*
X77928072Y-86706013D02*
X77694738Y-87406013D01*
X77461405Y-87406013D02*
X77461405Y-86706013D01*
X77461405Y-86706013D02*
X77294738Y-86706013D01*
X77294738Y-86706013D02*
X77194738Y-86739346D01*
X77194738Y-86739346D02*
X77128072Y-86806013D01*
X77128072Y-86806013D02*
X77094738Y-86872680D01*
X77094738Y-86872680D02*
X77061405Y-87006013D01*
X77061405Y-87006013D02*
X77061405Y-87106013D01*
X77061405Y-87106013D02*
X77094738Y-87239346D01*
X77094738Y-87239346D02*
X77128072Y-87306013D01*
X77128072Y-87306013D02*
X77194738Y-87372680D01*
X77194738Y-87372680D02*
X77294738Y-87406013D01*
X77294738Y-87406013D02*
X77461405Y-87406013D01*
X76761405Y-87406013D02*
X76761405Y-86706013D01*
X76294739Y-86706013D02*
X76161405Y-86706013D01*
X76161405Y-86706013D02*
X76094739Y-86739346D01*
X76094739Y-86739346D02*
X76028072Y-86806013D01*
X76028072Y-86806013D02*
X75994739Y-86939346D01*
X75994739Y-86939346D02*
X75994739Y-87172680D01*
X75994739Y-87172680D02*
X76028072Y-87306013D01*
X76028072Y-87306013D02*
X76094739Y-87372680D01*
X76094739Y-87372680D02*
X76161405Y-87406013D01*
X76161405Y-87406013D02*
X76294739Y-87406013D01*
X76294739Y-87406013D02*
X76361405Y-87372680D01*
X76361405Y-87372680D02*
X76428072Y-87306013D01*
X76428072Y-87306013D02*
X76461405Y-87172680D01*
X76461405Y-87172680D02*
X76461405Y-86939346D01*
X76461405Y-86939346D02*
X76428072Y-86806013D01*
X76428072Y-86806013D02*
X76361405Y-86739346D01*
X76361405Y-86739346D02*
X76294739Y-86706013D01*
X75161406Y-87406013D02*
X75161406Y-86706013D01*
X74828073Y-87406013D02*
X74828073Y-86706013D01*
X74828073Y-86706013D02*
X74428073Y-87406013D01*
X74428073Y-87406013D02*
X74428073Y-86706013D01*
X74194740Y-86706013D02*
X73794740Y-86706013D01*
X73994740Y-87406013D02*
X73994740Y-86706013D01*
X73561407Y-87039346D02*
X73328074Y-87039346D01*
X73228074Y-87406013D02*
X73561407Y-87406013D01*
X73561407Y-87406013D02*
X73561407Y-86706013D01*
X73561407Y-86706013D02*
X73228074Y-86706013D01*
X72528074Y-87406013D02*
X72761407Y-87072680D01*
X72928074Y-87406013D02*
X72928074Y-86706013D01*
X72928074Y-86706013D02*
X72661407Y-86706013D01*
X72661407Y-86706013D02*
X72594741Y-86739346D01*
X72594741Y-86739346D02*
X72561407Y-86772680D01*
X72561407Y-86772680D02*
X72528074Y-86839346D01*
X72528074Y-86839346D02*
X72528074Y-86939346D01*
X72528074Y-86939346D02*
X72561407Y-87006013D01*
X72561407Y-87006013D02*
X72594741Y-87039346D01*
X72594741Y-87039346D02*
X72661407Y-87072680D01*
X72661407Y-87072680D02*
X72928074Y-87072680D01*
X71994741Y-87039346D02*
X72228074Y-87039346D01*
X72228074Y-87406013D02*
X72228074Y-86706013D01*
X72228074Y-86706013D02*
X71894741Y-86706013D01*
X71661407Y-87206013D02*
X71328074Y-87206013D01*
X71728074Y-87406013D02*
X71494741Y-86706013D01*
X71494741Y-86706013D02*
X71261407Y-87406013D01*
X70628074Y-87339346D02*
X70661407Y-87372680D01*
X70661407Y-87372680D02*
X70761407Y-87406013D01*
X70761407Y-87406013D02*
X70828074Y-87406013D01*
X70828074Y-87406013D02*
X70928074Y-87372680D01*
X70928074Y-87372680D02*
X70994741Y-87306013D01*
X70994741Y-87306013D02*
X71028074Y-87239346D01*
X71028074Y-87239346D02*
X71061407Y-87106013D01*
X71061407Y-87106013D02*
X71061407Y-87006013D01*
X71061407Y-87006013D02*
X71028074Y-86872680D01*
X71028074Y-86872680D02*
X70994741Y-86806013D01*
X70994741Y-86806013D02*
X70928074Y-86739346D01*
X70928074Y-86739346D02*
X70828074Y-86706013D01*
X70828074Y-86706013D02*
X70761407Y-86706013D01*
X70761407Y-86706013D02*
X70661407Y-86739346D01*
X70661407Y-86739346D02*
X70628074Y-86772680D01*
X70328074Y-87039346D02*
X70094741Y-87039346D01*
X69994741Y-87406013D02*
X70328074Y-87406013D01*
X70328074Y-87406013D02*
X70328074Y-86706013D01*
X70328074Y-86706013D02*
X69994741Y-86706013D01*
X93294737Y-78575013D02*
X92861403Y-78575013D01*
X92861403Y-78575013D02*
X93094737Y-78841680D01*
X93094737Y-78841680D02*
X92994737Y-78841680D01*
X92994737Y-78841680D02*
X92928070Y-78875013D01*
X92928070Y-78875013D02*
X92894737Y-78908346D01*
X92894737Y-78908346D02*
X92861403Y-78975013D01*
X92861403Y-78975013D02*
X92861403Y-79141680D01*
X92861403Y-79141680D02*
X92894737Y-79208346D01*
X92894737Y-79208346D02*
X92928070Y-79241680D01*
X92928070Y-79241680D02*
X92994737Y-79275013D01*
X92994737Y-79275013D02*
X93194737Y-79275013D01*
X93194737Y-79275013D02*
X93261403Y-79241680D01*
X93261403Y-79241680D02*
X93294737Y-79208346D01*
X92561403Y-79208346D02*
X92528070Y-79241680D01*
X92528070Y-79241680D02*
X92561403Y-79275013D01*
X92561403Y-79275013D02*
X92594736Y-79241680D01*
X92594736Y-79241680D02*
X92561403Y-79208346D01*
X92561403Y-79208346D02*
X92561403Y-79275013D01*
X91894737Y-78575013D02*
X92228070Y-78575013D01*
X92228070Y-78575013D02*
X92261403Y-78908346D01*
X92261403Y-78908346D02*
X92228070Y-78875013D01*
X92228070Y-78875013D02*
X92161403Y-78841680D01*
X92161403Y-78841680D02*
X91994737Y-78841680D01*
X91994737Y-78841680D02*
X91928070Y-78875013D01*
X91928070Y-78875013D02*
X91894737Y-78908346D01*
X91894737Y-78908346D02*
X91861403Y-78975013D01*
X91861403Y-78975013D02*
X91861403Y-79141680D01*
X91861403Y-79141680D02*
X91894737Y-79208346D01*
X91894737Y-79208346D02*
X91928070Y-79241680D01*
X91928070Y-79241680D02*
X91994737Y-79275013D01*
X91994737Y-79275013D02*
X92161403Y-79275013D01*
X92161403Y-79275013D02*
X92228070Y-79241680D01*
X92228070Y-79241680D02*
X92261403Y-79208346D01*
X91028070Y-79275013D02*
X91028070Y-78808346D01*
X91028070Y-78875013D02*
X90994737Y-78841680D01*
X90994737Y-78841680D02*
X90928070Y-78808346D01*
X90928070Y-78808346D02*
X90828070Y-78808346D01*
X90828070Y-78808346D02*
X90761403Y-78841680D01*
X90761403Y-78841680D02*
X90728070Y-78908346D01*
X90728070Y-78908346D02*
X90728070Y-79275013D01*
X90728070Y-78908346D02*
X90694737Y-78841680D01*
X90694737Y-78841680D02*
X90628070Y-78808346D01*
X90628070Y-78808346D02*
X90528070Y-78808346D01*
X90528070Y-78808346D02*
X90461403Y-78841680D01*
X90461403Y-78841680D02*
X90428070Y-78908346D01*
X90428070Y-78908346D02*
X90428070Y-79275013D01*
X90094737Y-79275013D02*
X90094737Y-78808346D01*
X90094737Y-78875013D02*
X90061404Y-78841680D01*
X90061404Y-78841680D02*
X89994737Y-78808346D01*
X89994737Y-78808346D02*
X89894737Y-78808346D01*
X89894737Y-78808346D02*
X89828070Y-78841680D01*
X89828070Y-78841680D02*
X89794737Y-78908346D01*
X89794737Y-78908346D02*
X89794737Y-79275013D01*
X89794737Y-78908346D02*
X89761404Y-78841680D01*
X89761404Y-78841680D02*
X89694737Y-78808346D01*
X89694737Y-78808346D02*
X89594737Y-78808346D01*
X89594737Y-78808346D02*
X89528070Y-78841680D01*
X89528070Y-78841680D02*
X89494737Y-78908346D01*
X89494737Y-78908346D02*
X89494737Y-79275013D01*
X93328070Y-79702013D02*
X92928070Y-79702013D01*
X93128070Y-80402013D02*
X93128070Y-79702013D01*
X92694737Y-80335346D02*
X92661404Y-80368680D01*
X92661404Y-80368680D02*
X92694737Y-80402013D01*
X92694737Y-80402013D02*
X92728070Y-80368680D01*
X92728070Y-80368680D02*
X92694737Y-80335346D01*
X92694737Y-80335346D02*
X92694737Y-80402013D01*
X92694737Y-79968680D02*
X92661404Y-80002013D01*
X92661404Y-80002013D02*
X92694737Y-80035346D01*
X92694737Y-80035346D02*
X92728070Y-80002013D01*
X92728070Y-80002013D02*
X92694737Y-79968680D01*
X92694737Y-79968680D02*
X92694737Y-80035346D01*
X92361404Y-80402013D02*
X92361404Y-79702013D01*
X92361404Y-79702013D02*
X92094737Y-79702013D01*
X92094737Y-79702013D02*
X92028071Y-79735346D01*
X92028071Y-79735346D02*
X91994737Y-79768680D01*
X91994737Y-79768680D02*
X91961404Y-79835346D01*
X91961404Y-79835346D02*
X91961404Y-79935346D01*
X91961404Y-79935346D02*
X91994737Y-80002013D01*
X91994737Y-80002013D02*
X92028071Y-80035346D01*
X92028071Y-80035346D02*
X92094737Y-80068680D01*
X92094737Y-80068680D02*
X92361404Y-80068680D01*
X91761404Y-79702013D02*
X91361404Y-79702013D01*
X91561404Y-80402013D02*
X91561404Y-79702013D01*
X91228071Y-79702013D02*
X90828071Y-79702013D01*
X91028071Y-80402013D02*
X91028071Y-79702013D01*
X92828070Y-81529013D02*
X93061403Y-81195680D01*
X93228070Y-81529013D02*
X93228070Y-80829013D01*
X93228070Y-80829013D02*
X92961403Y-80829013D01*
X92961403Y-80829013D02*
X92894737Y-80862346D01*
X92894737Y-80862346D02*
X92861403Y-80895680D01*
X92861403Y-80895680D02*
X92828070Y-80962346D01*
X92828070Y-80962346D02*
X92828070Y-81062346D01*
X92828070Y-81062346D02*
X92861403Y-81129013D01*
X92861403Y-81129013D02*
X92894737Y-81162346D01*
X92894737Y-81162346D02*
X92961403Y-81195680D01*
X92961403Y-81195680D02*
X93228070Y-81195680D01*
X92528070Y-81462346D02*
X92494737Y-81495680D01*
X92494737Y-81495680D02*
X92528070Y-81529013D01*
X92528070Y-81529013D02*
X92561403Y-81495680D01*
X92561403Y-81495680D02*
X92528070Y-81462346D01*
X92528070Y-81462346D02*
X92528070Y-81529013D01*
X92528070Y-81095680D02*
X92494737Y-81129013D01*
X92494737Y-81129013D02*
X92528070Y-81162346D01*
X92528070Y-81162346D02*
X92561403Y-81129013D01*
X92561403Y-81129013D02*
X92528070Y-81095680D01*
X92528070Y-81095680D02*
X92528070Y-81162346D01*
X92194737Y-81529013D02*
X92194737Y-80829013D01*
X92194737Y-80829013D02*
X91961404Y-81329013D01*
X91961404Y-81329013D02*
X91728070Y-80829013D01*
X91728070Y-80829013D02*
X91728070Y-81529013D01*
X91394737Y-81529013D02*
X91394737Y-80829013D01*
X90661404Y-81462346D02*
X90694737Y-81495680D01*
X90694737Y-81495680D02*
X90794737Y-81529013D01*
X90794737Y-81529013D02*
X90861404Y-81529013D01*
X90861404Y-81529013D02*
X90961404Y-81495680D01*
X90961404Y-81495680D02*
X91028071Y-81429013D01*
X91028071Y-81429013D02*
X91061404Y-81362346D01*
X91061404Y-81362346D02*
X91094737Y-81229013D01*
X91094737Y-81229013D02*
X91094737Y-81129013D01*
X91094737Y-81129013D02*
X91061404Y-80995680D01*
X91061404Y-80995680D02*
X91028071Y-80929013D01*
X91028071Y-80929013D02*
X90961404Y-80862346D01*
X90961404Y-80862346D02*
X90861404Y-80829013D01*
X90861404Y-80829013D02*
X90794737Y-80829013D01*
X90794737Y-80829013D02*
X90694737Y-80862346D01*
X90694737Y-80862346D02*
X90661404Y-80895680D01*
X93261403Y-82622680D02*
X93161403Y-82656013D01*
X93161403Y-82656013D02*
X92994737Y-82656013D01*
X92994737Y-82656013D02*
X92928070Y-82622680D01*
X92928070Y-82622680D02*
X92894737Y-82589346D01*
X92894737Y-82589346D02*
X92861403Y-82522680D01*
X92861403Y-82522680D02*
X92861403Y-82456013D01*
X92861403Y-82456013D02*
X92894737Y-82389346D01*
X92894737Y-82389346D02*
X92928070Y-82356013D01*
X92928070Y-82356013D02*
X92994737Y-82322680D01*
X92994737Y-82322680D02*
X93128070Y-82289346D01*
X93128070Y-82289346D02*
X93194737Y-82256013D01*
X93194737Y-82256013D02*
X93228070Y-82222680D01*
X93228070Y-82222680D02*
X93261403Y-82156013D01*
X93261403Y-82156013D02*
X93261403Y-82089346D01*
X93261403Y-82089346D02*
X93228070Y-82022680D01*
X93228070Y-82022680D02*
X93194737Y-81989346D01*
X93194737Y-81989346D02*
X93128070Y-81956013D01*
X93128070Y-81956013D02*
X92961403Y-81956013D01*
X92961403Y-81956013D02*
X92861403Y-81989346D01*
X92561403Y-82589346D02*
X92528070Y-82622680D01*
X92528070Y-82622680D02*
X92561403Y-82656013D01*
X92561403Y-82656013D02*
X92594736Y-82622680D01*
X92594736Y-82622680D02*
X92561403Y-82589346D01*
X92561403Y-82589346D02*
X92561403Y-82656013D01*
X92561403Y-82222680D02*
X92528070Y-82256013D01*
X92528070Y-82256013D02*
X92561403Y-82289346D01*
X92561403Y-82289346D02*
X92594736Y-82256013D01*
X92594736Y-82256013D02*
X92561403Y-82222680D01*
X92561403Y-82222680D02*
X92561403Y-82289346D01*
X92228070Y-82656013D02*
X92228070Y-81956013D01*
X92228070Y-81956013D02*
X91994737Y-82456013D01*
X91994737Y-82456013D02*
X91761403Y-81956013D01*
X91761403Y-81956013D02*
X91761403Y-82656013D01*
X91428070Y-82656013D02*
X91428070Y-81956013D01*
X90694737Y-82589346D02*
X90728070Y-82622680D01*
X90728070Y-82622680D02*
X90828070Y-82656013D01*
X90828070Y-82656013D02*
X90894737Y-82656013D01*
X90894737Y-82656013D02*
X90994737Y-82622680D01*
X90994737Y-82622680D02*
X91061404Y-82556013D01*
X91061404Y-82556013D02*
X91094737Y-82489346D01*
X91094737Y-82489346D02*
X91128070Y-82356013D01*
X91128070Y-82356013D02*
X91128070Y-82256013D01*
X91128070Y-82256013D02*
X91094737Y-82122680D01*
X91094737Y-82122680D02*
X91061404Y-82056013D01*
X91061404Y-82056013D02*
X90994737Y-81989346D01*
X90994737Y-81989346D02*
X90894737Y-81956013D01*
X90894737Y-81956013D02*
X90828070Y-81956013D01*
X90828070Y-81956013D02*
X90728070Y-81989346D01*
X90728070Y-81989346D02*
X90694737Y-82022680D01*
X71511403Y-78641680D02*
X71478070Y-78608346D01*
X71478070Y-78608346D02*
X71411403Y-78575013D01*
X71411403Y-78575013D02*
X71244737Y-78575013D01*
X71244737Y-78575013D02*
X71178070Y-78608346D01*
X71178070Y-78608346D02*
X71144737Y-78641680D01*
X71144737Y-78641680D02*
X71111403Y-78708346D01*
X71111403Y-78708346D02*
X71111403Y-78775013D01*
X71111403Y-78775013D02*
X71144737Y-78875013D01*
X71144737Y-78875013D02*
X71544737Y-79275013D01*
X71544737Y-79275013D02*
X71111403Y-79275013D01*
X70811403Y-79208346D02*
X70778070Y-79241680D01*
X70778070Y-79241680D02*
X70811403Y-79275013D01*
X70811403Y-79275013D02*
X70844736Y-79241680D01*
X70844736Y-79241680D02*
X70811403Y-79208346D01*
X70811403Y-79208346D02*
X70811403Y-79275013D01*
X70144737Y-78575013D02*
X70478070Y-78575013D01*
X70478070Y-78575013D02*
X70511403Y-78908346D01*
X70511403Y-78908346D02*
X70478070Y-78875013D01*
X70478070Y-78875013D02*
X70411403Y-78841680D01*
X70411403Y-78841680D02*
X70244737Y-78841680D01*
X70244737Y-78841680D02*
X70178070Y-78875013D01*
X70178070Y-78875013D02*
X70144737Y-78908346D01*
X70144737Y-78908346D02*
X70111403Y-78975013D01*
X70111403Y-78975013D02*
X70111403Y-79141680D01*
X70111403Y-79141680D02*
X70144737Y-79208346D01*
X70144737Y-79208346D02*
X70178070Y-79241680D01*
X70178070Y-79241680D02*
X70244737Y-79275013D01*
X70244737Y-79275013D02*
X70411403Y-79275013D01*
X70411403Y-79275013D02*
X70478070Y-79241680D01*
X70478070Y-79241680D02*
X70511403Y-79208346D01*
X69278070Y-79275013D02*
X69278070Y-78808346D01*
X69278070Y-78875013D02*
X69244737Y-78841680D01*
X69244737Y-78841680D02*
X69178070Y-78808346D01*
X69178070Y-78808346D02*
X69078070Y-78808346D01*
X69078070Y-78808346D02*
X69011403Y-78841680D01*
X69011403Y-78841680D02*
X68978070Y-78908346D01*
X68978070Y-78908346D02*
X68978070Y-79275013D01*
X68978070Y-78908346D02*
X68944737Y-78841680D01*
X68944737Y-78841680D02*
X68878070Y-78808346D01*
X68878070Y-78808346D02*
X68778070Y-78808346D01*
X68778070Y-78808346D02*
X68711403Y-78841680D01*
X68711403Y-78841680D02*
X68678070Y-78908346D01*
X68678070Y-78908346D02*
X68678070Y-79275013D01*
X68344737Y-79275013D02*
X68344737Y-78808346D01*
X68344737Y-78875013D02*
X68311404Y-78841680D01*
X68311404Y-78841680D02*
X68244737Y-78808346D01*
X68244737Y-78808346D02*
X68144737Y-78808346D01*
X68144737Y-78808346D02*
X68078070Y-78841680D01*
X68078070Y-78841680D02*
X68044737Y-78908346D01*
X68044737Y-78908346D02*
X68044737Y-79275013D01*
X68044737Y-78908346D02*
X68011404Y-78841680D01*
X68011404Y-78841680D02*
X67944737Y-78808346D01*
X67944737Y-78808346D02*
X67844737Y-78808346D01*
X67844737Y-78808346D02*
X67778070Y-78841680D01*
X67778070Y-78841680D02*
X67744737Y-78908346D01*
X67744737Y-78908346D02*
X67744737Y-79275013D01*
X71578070Y-79702013D02*
X71178070Y-79702013D01*
X71378070Y-80402013D02*
X71378070Y-79702013D01*
X70944737Y-80335346D02*
X70911404Y-80368680D01*
X70911404Y-80368680D02*
X70944737Y-80402013D01*
X70944737Y-80402013D02*
X70978070Y-80368680D01*
X70978070Y-80368680D02*
X70944737Y-80335346D01*
X70944737Y-80335346D02*
X70944737Y-80402013D01*
X70944737Y-79968680D02*
X70911404Y-80002013D01*
X70911404Y-80002013D02*
X70944737Y-80035346D01*
X70944737Y-80035346D02*
X70978070Y-80002013D01*
X70978070Y-80002013D02*
X70944737Y-79968680D01*
X70944737Y-79968680D02*
X70944737Y-80035346D01*
X70644737Y-80368680D02*
X70544737Y-80402013D01*
X70544737Y-80402013D02*
X70378071Y-80402013D01*
X70378071Y-80402013D02*
X70311404Y-80368680D01*
X70311404Y-80368680D02*
X70278071Y-80335346D01*
X70278071Y-80335346D02*
X70244737Y-80268680D01*
X70244737Y-80268680D02*
X70244737Y-80202013D01*
X70244737Y-80202013D02*
X70278071Y-80135346D01*
X70278071Y-80135346D02*
X70311404Y-80102013D01*
X70311404Y-80102013D02*
X70378071Y-80068680D01*
X70378071Y-80068680D02*
X70511404Y-80035346D01*
X70511404Y-80035346D02*
X70578071Y-80002013D01*
X70578071Y-80002013D02*
X70611404Y-79968680D01*
X70611404Y-79968680D02*
X70644737Y-79902013D01*
X70644737Y-79902013D02*
X70644737Y-79835346D01*
X70644737Y-79835346D02*
X70611404Y-79768680D01*
X70611404Y-79768680D02*
X70578071Y-79735346D01*
X70578071Y-79735346D02*
X70511404Y-79702013D01*
X70511404Y-79702013D02*
X70344737Y-79702013D01*
X70344737Y-79702013D02*
X70244737Y-79735346D01*
X69944737Y-80402013D02*
X69944737Y-79702013D01*
X69944737Y-79702013D02*
X69678070Y-79702013D01*
X69678070Y-79702013D02*
X69611404Y-79735346D01*
X69611404Y-79735346D02*
X69578070Y-79768680D01*
X69578070Y-79768680D02*
X69544737Y-79835346D01*
X69544737Y-79835346D02*
X69544737Y-79935346D01*
X69544737Y-79935346D02*
X69578070Y-80002013D01*
X69578070Y-80002013D02*
X69611404Y-80035346D01*
X69611404Y-80035346D02*
X69678070Y-80068680D01*
X69678070Y-80068680D02*
X69944737Y-80068680D01*
X69244737Y-80402013D02*
X69244737Y-79702013D01*
X68844737Y-80402013D02*
X69144737Y-80002013D01*
X68844737Y-79702013D02*
X69244737Y-80102013D01*
X71078070Y-81529013D02*
X71311403Y-81195680D01*
X71478070Y-81529013D02*
X71478070Y-80829013D01*
X71478070Y-80829013D02*
X71211403Y-80829013D01*
X71211403Y-80829013D02*
X71144737Y-80862346D01*
X71144737Y-80862346D02*
X71111403Y-80895680D01*
X71111403Y-80895680D02*
X71078070Y-80962346D01*
X71078070Y-80962346D02*
X71078070Y-81062346D01*
X71078070Y-81062346D02*
X71111403Y-81129013D01*
X71111403Y-81129013D02*
X71144737Y-81162346D01*
X71144737Y-81162346D02*
X71211403Y-81195680D01*
X71211403Y-81195680D02*
X71478070Y-81195680D01*
X70778070Y-81462346D02*
X70744737Y-81495680D01*
X70744737Y-81495680D02*
X70778070Y-81529013D01*
X70778070Y-81529013D02*
X70811403Y-81495680D01*
X70811403Y-81495680D02*
X70778070Y-81462346D01*
X70778070Y-81462346D02*
X70778070Y-81529013D01*
X70778070Y-81095680D02*
X70744737Y-81129013D01*
X70744737Y-81129013D02*
X70778070Y-81162346D01*
X70778070Y-81162346D02*
X70811403Y-81129013D01*
X70811403Y-81129013D02*
X70778070Y-81095680D01*
X70778070Y-81095680D02*
X70778070Y-81162346D01*
X70444737Y-81529013D02*
X70444737Y-80829013D01*
X70444737Y-80829013D02*
X70178070Y-80829013D01*
X70178070Y-80829013D02*
X70111404Y-80862346D01*
X70111404Y-80862346D02*
X70078070Y-80895680D01*
X70078070Y-80895680D02*
X70044737Y-80962346D01*
X70044737Y-80962346D02*
X70044737Y-81062346D01*
X70044737Y-81062346D02*
X70078070Y-81129013D01*
X70078070Y-81129013D02*
X70111404Y-81162346D01*
X70111404Y-81162346D02*
X70178070Y-81195680D01*
X70178070Y-81195680D02*
X70444737Y-81195680D01*
X69844737Y-80829013D02*
X69444737Y-80829013D01*
X69644737Y-81529013D02*
X69644737Y-80829013D01*
X69311404Y-80829013D02*
X68911404Y-80829013D01*
X69111404Y-81529013D02*
X69111404Y-80829013D01*
X71511403Y-82622680D02*
X71411403Y-82656013D01*
X71411403Y-82656013D02*
X71244737Y-82656013D01*
X71244737Y-82656013D02*
X71178070Y-82622680D01*
X71178070Y-82622680D02*
X71144737Y-82589346D01*
X71144737Y-82589346D02*
X71111403Y-82522680D01*
X71111403Y-82522680D02*
X71111403Y-82456013D01*
X71111403Y-82456013D02*
X71144737Y-82389346D01*
X71144737Y-82389346D02*
X71178070Y-82356013D01*
X71178070Y-82356013D02*
X71244737Y-82322680D01*
X71244737Y-82322680D02*
X71378070Y-82289346D01*
X71378070Y-82289346D02*
X71444737Y-82256013D01*
X71444737Y-82256013D02*
X71478070Y-82222680D01*
X71478070Y-82222680D02*
X71511403Y-82156013D01*
X71511403Y-82156013D02*
X71511403Y-82089346D01*
X71511403Y-82089346D02*
X71478070Y-82022680D01*
X71478070Y-82022680D02*
X71444737Y-81989346D01*
X71444737Y-81989346D02*
X71378070Y-81956013D01*
X71378070Y-81956013D02*
X71211403Y-81956013D01*
X71211403Y-81956013D02*
X71111403Y-81989346D01*
X70811403Y-82589346D02*
X70778070Y-82622680D01*
X70778070Y-82622680D02*
X70811403Y-82656013D01*
X70811403Y-82656013D02*
X70844736Y-82622680D01*
X70844736Y-82622680D02*
X70811403Y-82589346D01*
X70811403Y-82589346D02*
X70811403Y-82656013D01*
X70811403Y-82222680D02*
X70778070Y-82256013D01*
X70778070Y-82256013D02*
X70811403Y-82289346D01*
X70811403Y-82289346D02*
X70844736Y-82256013D01*
X70844736Y-82256013D02*
X70811403Y-82222680D01*
X70811403Y-82222680D02*
X70811403Y-82289346D01*
X70511403Y-82622680D02*
X70411403Y-82656013D01*
X70411403Y-82656013D02*
X70244737Y-82656013D01*
X70244737Y-82656013D02*
X70178070Y-82622680D01*
X70178070Y-82622680D02*
X70144737Y-82589346D01*
X70144737Y-82589346D02*
X70111403Y-82522680D01*
X70111403Y-82522680D02*
X70111403Y-82456013D01*
X70111403Y-82456013D02*
X70144737Y-82389346D01*
X70144737Y-82389346D02*
X70178070Y-82356013D01*
X70178070Y-82356013D02*
X70244737Y-82322680D01*
X70244737Y-82322680D02*
X70378070Y-82289346D01*
X70378070Y-82289346D02*
X70444737Y-82256013D01*
X70444737Y-82256013D02*
X70478070Y-82222680D01*
X70478070Y-82222680D02*
X70511403Y-82156013D01*
X70511403Y-82156013D02*
X70511403Y-82089346D01*
X70511403Y-82089346D02*
X70478070Y-82022680D01*
X70478070Y-82022680D02*
X70444737Y-81989346D01*
X70444737Y-81989346D02*
X70378070Y-81956013D01*
X70378070Y-81956013D02*
X70211403Y-81956013D01*
X70211403Y-81956013D02*
X70111403Y-81989346D01*
X69811403Y-82656013D02*
X69811403Y-81956013D01*
X69811403Y-81956013D02*
X69544736Y-81956013D01*
X69544736Y-81956013D02*
X69478070Y-81989346D01*
X69478070Y-81989346D02*
X69444736Y-82022680D01*
X69444736Y-82022680D02*
X69411403Y-82089346D01*
X69411403Y-82089346D02*
X69411403Y-82189346D01*
X69411403Y-82189346D02*
X69444736Y-82256013D01*
X69444736Y-82256013D02*
X69478070Y-82289346D01*
X69478070Y-82289346D02*
X69544736Y-82322680D01*
X69544736Y-82322680D02*
X69811403Y-82322680D01*
X69111403Y-82656013D02*
X69111403Y-81956013D01*
X68711403Y-82656013D02*
X69011403Y-82256013D01*
X68711403Y-81956013D02*
X69111403Y-82356013D01*
X81673308Y-85594822D02*
X82073308Y-85023394D01*
X82359022Y-85594822D02*
X82359022Y-84394822D01*
X82359022Y-84394822D02*
X81901879Y-84394822D01*
X81901879Y-84394822D02*
X81787594Y-84451965D01*
X81787594Y-84451965D02*
X81730451Y-84509108D01*
X81730451Y-84509108D02*
X81673308Y-84623394D01*
X81673308Y-84623394D02*
X81673308Y-84794822D01*
X81673308Y-84794822D02*
X81730451Y-84909108D01*
X81730451Y-84909108D02*
X81787594Y-84966251D01*
X81787594Y-84966251D02*
X81901879Y-85023394D01*
X81901879Y-85023394D02*
X82359022Y-85023394D01*
X81159022Y-85594822D02*
X81159022Y-84394822D01*
X79959022Y-84451965D02*
X80073308Y-84394822D01*
X80073308Y-84394822D02*
X80244736Y-84394822D01*
X80244736Y-84394822D02*
X80416165Y-84451965D01*
X80416165Y-84451965D02*
X80530450Y-84566251D01*
X80530450Y-84566251D02*
X80587593Y-84680537D01*
X80587593Y-84680537D02*
X80644736Y-84909108D01*
X80644736Y-84909108D02*
X80644736Y-85080537D01*
X80644736Y-85080537D02*
X80587593Y-85309108D01*
X80587593Y-85309108D02*
X80530450Y-85423394D01*
X80530450Y-85423394D02*
X80416165Y-85537680D01*
X80416165Y-85537680D02*
X80244736Y-85594822D01*
X80244736Y-85594822D02*
X80130450Y-85594822D01*
X80130450Y-85594822D02*
X79959022Y-85537680D01*
X79959022Y-85537680D02*
X79901879Y-85480537D01*
X79901879Y-85480537D02*
X79901879Y-85080537D01*
X79901879Y-85080537D02*
X80130450Y-85080537D01*
X79387593Y-85594822D02*
X79387593Y-84394822D01*
X79387593Y-84394822D02*
X78701879Y-85594822D01*
X78701879Y-85594822D02*
X78701879Y-84394822D01*
X78130450Y-84966251D02*
X77730450Y-84966251D01*
X77559022Y-85594822D02*
X78130450Y-85594822D01*
X78130450Y-85594822D02*
X78130450Y-84394822D01*
X78130450Y-84394822D02*
X77559022Y-84394822D01*
X77159022Y-84394822D02*
X76359022Y-85594822D01*
X76359022Y-84394822D02*
X77159022Y-85594822D01*
X75673308Y-84394822D02*
X75444736Y-84394822D01*
X75444736Y-84394822D02*
X75330451Y-84451965D01*
X75330451Y-84451965D02*
X75216165Y-84566251D01*
X75216165Y-84566251D02*
X75159022Y-84794822D01*
X75159022Y-84794822D02*
X75159022Y-85194822D01*
X75159022Y-85194822D02*
X75216165Y-85423394D01*
X75216165Y-85423394D02*
X75330451Y-85537680D01*
X75330451Y-85537680D02*
X75444736Y-85594822D01*
X75444736Y-85594822D02*
X75673308Y-85594822D01*
X75673308Y-85594822D02*
X75787594Y-85537680D01*
X75787594Y-85537680D02*
X75901879Y-85423394D01*
X75901879Y-85423394D02*
X75959022Y-85194822D01*
X75959022Y-85194822D02*
X75959022Y-84794822D01*
X75959022Y-84794822D02*
X75901879Y-84566251D01*
X75901879Y-84566251D02*
X75787594Y-84451965D01*
X75787594Y-84451965D02*
X75673308Y-84394822D01*
D11*
X102750000Y-88500000D02*
X145250000Y-88500000D01*
X145250000Y-133500000D01*
X102750000Y-133500000D01*
X102750000Y-88500000D01*
X60250000Y-88500000D02*
X102750000Y-88500000D01*
X102750000Y-133500000D01*
X60250000Y-133500000D01*
X60250000Y-88500000D01*
X102750000Y-43500000D02*
X145250000Y-43500000D01*
X145250000Y-88500000D01*
X102750000Y-88500000D01*
X102750000Y-43500000D01*
X60250000Y-43500000D02*
X102750000Y-43500000D01*
X102750000Y-88500000D01*
X60250000Y-88500000D01*
X60250000Y-43500000D01*
M02*
