M48
; DRILL file {KiCad 7.0.11+dfsg-1build4} date mié 02 sep 2026 22:04:01
; FORMAT={-:-/ absolute / metric / decimal}
; #@! TF.CreationDate,2026-09-02T22:04:01-05:00
; #@! TF.GenerationSoftware,Kicad,Pcbnew,7.0.11+dfsg-1build4
; #@! TF.FileFunction,Plated,1,2,PTH
FMAT,2
METRIC
; #@! TA.AperFunction,Plated,PTH,ViaDrill
T1C0.300
; #@! TA.AperFunction,Plated,PTH,ComponentDrill
T2C0.400
; #@! TA.AperFunction,Plated,PTH,ComponentDrill
T3C1.000
%
G90
G05
T1
X61.25Y-44.5
X61.25Y-50.0
X61.25Y-55.75
X61.25Y-61.0
X61.25Y-67.5
X61.25Y-74.0
X61.25Y-89.5
X61.25Y-95.0
X61.25Y-100.75
X61.25Y-106.0
X61.25Y-112.5
X61.25Y-119.0
X64.75Y-58.25
X64.75Y-103.25
X66.885Y-68.75
X66.885Y-113.75
X67.25Y-71.0
X67.25Y-116.0
X67.5Y-72.5
X67.5Y-117.5
X67.75Y-44.5
X67.75Y-89.5
X69.5Y-71.5
X69.5Y-76.75
X69.5Y-116.5
X69.5Y-121.75
X69.695Y-49.855
X69.695Y-94.855
X71.0Y-67.0
X71.0Y-112.0
X71.25Y-61.75
X71.25Y-106.75
X72.0Y-73.1
X72.0Y-118.1
X73.75Y-76.75
X73.75Y-121.75
X76.0Y-44.75
X76.0Y-89.75
X77.25Y-62.5
X77.25Y-107.5
X77.5Y-53.0
X77.5Y-70.0
X77.5Y-98.0
X77.5Y-115.0
X77.865Y-73.454
X77.865Y-118.454
X78.654Y-80.446
X78.654Y-125.446
X80.0Y-76.75
X80.0Y-121.75
X82.0Y-59.5
X82.0Y-104.5
X82.25Y-70.0
X82.25Y-115.0
X83.25Y-76.75
X83.25Y-121.75
X84.75Y-53.0
X84.75Y-62.5
X84.75Y-98.0
X84.75Y-107.5
X85.25Y-68.25
X85.25Y-113.25
X85.5Y-67.25
X85.5Y-112.25
X87.0Y-44.75
X87.0Y-89.75
X88.25Y-80.0
X88.25Y-125.0
X89.25Y-76.75
X89.25Y-121.75
X90.249Y-87.132
X90.249Y-132.132
X92.02Y-66.0
X92.02Y-111.0
X93.0Y-73.25
X93.0Y-118.25
X93.5Y-63.0
X93.5Y-108.0
X93.65Y-49.0
X93.65Y-49.799
X93.65Y-94.0
X93.65Y-94.799
X94.0Y-46.0
X94.0Y-91.0
X94.25Y-52.5
X94.25Y-97.5
X95.5Y-76.0
X95.5Y-121.0
X96.0Y-44.5
X96.0Y-89.5
X96.5Y-78.0
X96.5Y-123.0
X101.75Y-44.5
X101.75Y-89.5
X103.75Y-44.5
X103.75Y-50.0
X103.75Y-55.75
X103.75Y-61.0
X103.75Y-67.5
X103.75Y-74.0
X103.75Y-89.5
X103.75Y-95.0
X103.75Y-100.75
X103.75Y-106.0
X103.75Y-112.5
X103.75Y-119.0
X107.25Y-58.25
X107.25Y-103.25
X109.385Y-68.75
X109.385Y-113.75
X109.75Y-71.0
X109.75Y-116.0
X110.0Y-72.5
X110.0Y-117.5
X110.25Y-44.5
X110.25Y-89.5
X112.0Y-71.5
X112.0Y-76.75
X112.0Y-116.5
X112.0Y-121.75
X112.195Y-49.855
X112.195Y-94.855
X113.5Y-67.0
X113.5Y-112.0
X113.75Y-61.75
X113.75Y-106.75
X114.5Y-73.1
X114.5Y-118.1
X116.25Y-76.75
X116.25Y-121.75
X118.5Y-44.75
X118.5Y-89.75
X119.75Y-62.5
X119.75Y-107.5
X120.0Y-53.0
X120.0Y-70.0
X120.0Y-98.0
X120.0Y-115.0
X120.365Y-73.454
X120.365Y-118.454
X121.154Y-80.446
X121.154Y-125.446
X122.5Y-76.75
X122.5Y-121.75
X124.5Y-59.5
X124.5Y-104.5
X124.75Y-70.0
X124.75Y-115.0
X125.75Y-76.75
X125.75Y-121.75
X127.25Y-53.0
X127.25Y-62.5
X127.25Y-98.0
X127.25Y-107.5
X127.75Y-68.25
X127.75Y-113.25
X128.0Y-67.25
X128.0Y-112.25
X129.5Y-44.75
X129.5Y-89.75
X130.75Y-80.0
X130.75Y-125.0
X131.75Y-76.75
X131.75Y-121.75
X132.749Y-87.132
X132.749Y-132.132
X134.52Y-66.0
X134.52Y-111.0
X135.5Y-73.25
X135.5Y-118.25
X136.0Y-63.0
X136.0Y-108.0
X136.15Y-49.0
X136.15Y-49.799
X136.15Y-94.0
X136.15Y-94.799
X136.5Y-46.0
X136.5Y-91.0
X136.75Y-52.5
X136.75Y-97.5
X138.0Y-76.0
X138.0Y-121.0
X138.5Y-44.5
X138.5Y-89.5
X139.0Y-78.0
X139.0Y-123.0
X144.25Y-44.5
X144.25Y-89.5
T3
X63.75Y-47.0
X63.75Y-59.7
X63.75Y-92.0
X63.75Y-104.7
X66.29Y-52.08
X66.29Y-97.08
X73.88Y-45.2
X73.88Y-47.74
X73.88Y-50.28
X73.88Y-52.82
X73.88Y-55.36
X73.88Y-57.9
X73.88Y-60.44
X73.88Y-62.98
X73.88Y-65.52
X73.88Y-90.2
X73.88Y-92.74
X73.88Y-95.28
X73.88Y-97.82
X73.88Y-100.36
X73.88Y-102.9
X73.88Y-105.44
X73.88Y-107.98
X73.88Y-110.52
X89.12Y-45.2
X89.12Y-47.74
X89.12Y-50.28
X89.12Y-52.82
X89.12Y-55.36
X89.12Y-57.9
X89.12Y-60.44
X89.12Y-62.98
X89.12Y-65.52
X89.12Y-90.2
X89.12Y-92.74
X89.12Y-95.28
X89.12Y-97.82
X89.12Y-100.36
X89.12Y-102.9
X89.12Y-105.44
X89.12Y-107.98
X89.12Y-110.52
X96.75Y-47.0
X96.75Y-59.7
X96.75Y-92.0
X96.75Y-104.7
X99.29Y-52.08
X99.29Y-97.08
X106.25Y-47.0
X106.25Y-59.7
X106.25Y-92.0
X106.25Y-104.7
X108.79Y-52.08
X108.79Y-97.08
X116.38Y-45.2
X116.38Y-47.74
X116.38Y-50.28
X116.38Y-52.82
X116.38Y-55.36
X116.38Y-57.9
X116.38Y-60.44
X116.38Y-62.98
X116.38Y-65.52
X116.38Y-90.2
X116.38Y-92.74
X116.38Y-95.28
X116.38Y-97.82
X116.38Y-100.36
X116.38Y-102.9
X116.38Y-105.44
X116.38Y-107.98
X116.38Y-110.52
X131.62Y-45.2
X131.62Y-47.74
X131.62Y-50.28
X131.62Y-52.82
X131.62Y-55.36
X131.62Y-57.9
X131.62Y-60.44
X131.62Y-62.98
X131.62Y-65.52
X131.62Y-90.2
X131.62Y-92.74
X131.62Y-95.28
X131.62Y-97.82
X131.62Y-100.36
X131.62Y-102.9
X131.62Y-105.44
X131.62Y-107.98
X131.62Y-110.52
X139.25Y-47.0
X139.25Y-59.7
X139.25Y-92.0
X139.25Y-104.7
X141.79Y-52.08
X141.79Y-97.08
T2
G00X62.75Y-82.7
M15
G01X62.75Y-81.9
M16
G05
G00X62.75Y-127.7
M15
G01X62.75Y-126.9
M16
G05
G00X64.15Y-79.6
M15
G01X64.95Y-79.6
M16
G05
G00X64.15Y-124.6
M15
G01X64.95Y-124.6
M16
G05
G00X66.35Y-82.7
M15
G01X66.35Y-81.9
M16
G05
G00X66.35Y-127.7
M15
G01X66.35Y-126.9
M16
G05
G00X95.45Y-84.4
M15
G01X95.45Y-83.6
M16
G05
G00X95.45Y-129.4
M15
G01X95.45Y-128.6
M16
G05
G00X100.05Y-79.45
M15
G01X100.05Y-78.65
M16
G05
G00X100.05Y-86.4
M15
G01X100.05Y-85.6
M16
G05
G00X100.05Y-124.45
M15
G01X100.05Y-123.65
M16
G05
G00X100.05Y-131.4
M15
G01X100.05Y-130.6
M16
G05
G00X105.25Y-82.7
M15
G01X105.25Y-81.9
M16
G05
G00X105.25Y-127.7
M15
G01X105.25Y-126.9
M16
G05
G00X106.65Y-79.6
M15
G01X107.45Y-79.6
M16
G05
G00X106.65Y-124.6
M15
G01X107.45Y-124.6
M16
G05
G00X108.85Y-82.7
M15
G01X108.85Y-81.9
M16
G05
G00X108.85Y-127.7
M15
G01X108.85Y-126.9
M16
G05
G00X137.95Y-84.4
M15
G01X137.95Y-83.6
M16
G05
G00X137.95Y-129.4
M15
G01X137.95Y-128.6
M16
G05
G00X142.55Y-79.45
M15
G01X142.55Y-78.65
M16
G05
G00X142.55Y-86.4
M15
G01X142.55Y-85.6
M16
G05
G00X142.55Y-124.45
M15
G01X142.55Y-123.65
M16
G05
G00X142.55Y-131.4
M15
G01X142.55Y-130.6
M16
G05
M30
